<svg xmlns="http://www.w3.org/2000/svg" width="261" height="271" fill="none" viewBox="0 0 261 271"><path fill="#2C2321" fill-rule="evenodd" d="M165.772 96c.512 0 .171.46.512.46 0 .23-.341.23-.682.23 0-.23.341-.23.17-.69Zm-39.763 2.757c0 .23-.171.23-.171.69-.682 0-.682.46-.682 1.148-.342 0-.512-.229-.683-.459.171-.23.683-.46.341-.92.512 0 .512-.459 1.195-.459Zm6.144 0c.341 0 .512.23.512.46-.342.23-.512 0-.512-.46Zm-17.066 1.15c-.512 0-.342-.23-.853 0 0-.46 1.023-.23.853 0Zm9.727.917c.342 0 .342.23.512.23 0 .23-.853 1.149-1.024.459-.341 0-.17.46-.512.23-.341-.23 0-.459.171-.689.171 0 .341.23.341.23.342 0 .342-.23.512-.46Zm74.408 7.813c-.342-.459-.342-.919-.854-1.378.512 0 .171-.23 0-.23.683-.459.171-1.378 1.195-1.608.171.459 1.024 1.608.171 2.068.17 0 .341.229.341.689-.683 0-.853 0-.853.459Zm-.342-1.148c.512 0 .512-.23.512-.46-.17 0-.17-.23-.341 0-.341.23 0 .23-.171.46Zm-87.889-.23h.341c0 .459-.17.459-.512.459-.17-.23.342 0 .171-.459Zm85.841 1.148c.342.23-.512.69 0 1.149-.682 0-.17.689-.853.689a5.495 5.495 0 0 1 .853-1.838Zm6.997.92c.342.23.512-.23.683 0 0 .459-.171 0-.341 0 .341.919 0 2.527-1.366 2.297 0-.459.683-.229.854-.459v-.46c-.512 0-.854.23-1.195 0 0-.459.683-.229.341-.689.512.23.683-.459 1.024-.689Zm10.923 2.756c1.365 0 .853 1.608 1.877 1.608.17.689-.683.689-.341 1.379.511 0 .682-.23 1.023 0-.17.229 0 .689-.341.689-.683-.23-.683.23-1.195.23 0 .459.342 1.378 0 2.068-.17 0-.682-.23-.682 0-.341-.23-.341-.46-.341-.919h.341c-.512-.92-.853-3.677-.341-5.055Zm-10.069.689c.341.23.17 1.149-.342 1.378.683.46 2.56-.229 2.902.919-.342 0-1.195-.229-1.536-.689-.342 0-.512.23-.683.46-.512.229-.512-.46-1.195-.23.171-.919.683-1.149.854-1.838Zm-1.536.23c0 .23-.683 0-.512.23 0 .23.512 0 .512.23-.342.459 0 .919 0 1.378-1.195.23-.512.919-1.536 1.379.341-.919.341-1.608.853-2.527-.341-.46 0-1.149.683-.69Zm-95.569.689c.341 0 .512.23.682.46-.17.23-.341.689-.341 1.149-1.365-.23-.512-1.149-.341-1.609Zm1.877.23c.512 0 .341.459.512.689-.341.23-.683.459-.683.919-.341 0 .171-.689-.341-.919.512-.23.341-.46.512-.689Zm94.716.919c.17.23-.171.46.512.46-.342.459-.512 1.149-.171 1.378-.171.23-1.024.23-1.195 0 0-.459.342-1.378.854-1.838Zm8.874.461c-.171.229-.853.229-.683-.23.171 0 .683 0 .683.23Zm-106.15.459c.512 0 1.024.23 1.195.689-.342.23-.512.46-1.024.46 0 .229.341.229.341.229 0 .23-.171.46-.512.46-.512-.689.341-.919 0-1.838Zm104.614.229c.341.23 1.024 0 1.024.46-.341-.23-.341.229-1.024 0v-.46Zm-102.566.231h.341v.459h-.341c-.341 0 0-.459 0-.459Zm101.713.459c0 .23-.512.229-.342.689-.17-.23-.853 0-1.024 0-.17 0-.17-.23-.17-.459.853.459 1.024-.69 1.536-.23Zm-10.41-.001h.512c.17.459-.854.459-.512 0Zm11.604 0h.512c0 .23-.17.23-.17.459-.171 0-.342 0-.342-.459Zm-.341.46c.512 0 .341.229.853.229-.171.23-1.024.23-.853-.229Zm2.56.46c0 .229.341.229.17.459-.511 0-.341-.459-.853-.23 0-.229.341-.229.683-.229Zm-2.389.459c.17 0 .512 0 .341.46h-.341v-.46Zm-8.704.46c.512.23.683.23 1.195.23-.171.23-.683.23-.854.689-.341 0-.17-.459-.512-.229.342-.23 0-.46.171-.69Zm13.994 0c.512 0 .512.46.853.46 0 .23-.682.23-1.024.23-.341-.23-.17-.69.171-.69Zm-12.117.229c.512.23.683 0 1.195 0-.171.46-.853.23-1.195.69-.17 0 .171-.46 0-.69Zm4.608.46c0 .23 0 .23.171.23-.171.459-.853.23-1.024 0 .341 0 .512-.23.853-.23Zm-5.973.69c0 .229-.853.229-.682 0 .341-.46.511-.23.682 0Zm17.066 2.297c-.683-.23-.853 0-1.536 0 .171-.46.171-1.379-.171-2.068.683-.23 1.536-.46 2.219 0-.341.689.341 1.378-.512 2.068Zm-14.165-2.298c0-.23.342 0 .512 0v.46c-.341-.23-.341-.46-.512-.46Zm5.973 1.378c.512 0 .683.459 1.195.459-.171.46-.853.46-1.024.92-.853 0-.341-.919-.512-1.379h.341Zm3.755.69c0 .459-.683.459-.683.919-.341-.23-.512 0-1.195 0-.17-.46.171-.46.171-.919.341-.46 1.024-.23 1.707 0Zm3.584.459-.171.23h-.512c0-.23.341-.23.683-.23Zm-7.168.46c.683.459 1.707.229 2.73.229-.853.46-2.218 1.379-3.413.69.171-.46.683-.69.683-.919ZM63.206 124.49c.512 0 .171.46.512.46-.512.229-.512.919-.853 1.148-1.365-.459.853-.919.341-1.608Zm-1.023 1.609c.34 0 .341.229.512.229.17.69-.171.92-.171 1.609-1.024-.23-1.024-.689-1.707-.689-.17-.23.342-.46 0-.46.342-.23 1.195-.23 1.366-.689Zm-5.12 7.351c.17-.229.853 0 .682.23h-.512s0-.23-.17-.23Zm2.73 2.758c-.34-.23-.34 0-.853 0 .341 0 .512-.23.853-.23v.23Zm-8.021.23c.342 0 .512.459.512.689-.17 0-.682-.459-.512-.689Zm2.39.688c0 .23-.512.23-.854.23-.17 0-.17-.23-.17-.459.341-.23.682 0 1.024.229Zm183.287.231c.341 0 .341.23.683 0-.512.23-.342.23-.342.69-1.365.689-1.024 2.297-2.559 2.757 0-.919.853-1.838 1.877-2.298-.171-.919.512-.689.341-1.149Zm18.943.918h.342c-.342.69-.171 1.609-1.366 1.609.512-.46.683-1.149 1.024-1.609Zm-19.284 2.529c-.342.229 0 .459-.854.459.171 0 .171-.23.171-.459.341 0 .341-.23.683 0Zm-3.414 1.837c-.341-.459.001-.919.342-1.148.512 0 .341.229 1.024.229-.171.46-.512.69-.683.919-.341 0-.341-.229-.683 0Zm16.555-.919h.341c0 .23-.171.459-.683.459.171 0 .512 0 .342-.459Zm-14.506.46c0 .229-.342.459.17.459-.17.23-.512.23-.853.23 0-.46.171-.689.683-.689Zm18.772 0c0 .229 0 .459-.341.459-.171-.23-.171-.459.341-.459Zm-15.018.919c.512 0 0 .46.512.46-.171.229-.171.689-.341.919-.342 0-.512-.23-.683-.23 0-.459.341-.689.171-1.149.17.23.341.23.341 0Zm-.512 1.378c.171.46 0 1.149-1.024.919v-.689c.853.23.512-.23 1.024-.23Zm-2.218.92c.682.23-.513.459 0 .459 0 .23-.342 0-.513 0 0-.229.342-.229.513-.459Zm18.772 1.149c.512 0 .341.689.171.919-.683-.23 0-.69-.171-.919Zm-33.108 0c.171.459-.853.459-.853 0h.853Zm6.314.229c.171 0 .683-.23.683 0 .171.459-1.024.459-.683 0Zm29.354 0c.512 0 0 .459 0 .689-.512-.23 0-.46 0-.689Zm-206.668.689-.17.23c-.513 0-.854.23-1.195 0 .341-.23.853-.459 1.365-.23Zm203.084.919c.853.23 0 1.379-.341 1.609-.342 0-.171-.23-.342-.23 0-.46.854-.46.683-1.379Zm6.144 0c.512 0 .17.46.341.919-.512 0-.512.23-.341.46-.342-.23-.683-.23-.512-.46.17 0 .341-.229.682 0-.17-.459-.341-.459-.17-.919Zm-1.195 1.838c.341 0 .171.23.341.23-.341.23-.682.23-.341.689-.853.23-.341-.689 0-.919Zm-4.608 1.149h.342c-.171.23-.512.459-.854.229 0 0 .342.001.512-.229Zm4.267.46c-.171.46.17.23.17.689-.341 0-.17.23-.512.23.342.23.171.46 0 .689-.682.23-.341-.459-.853-.229.341-.69.171-1.609 1.195-1.379Zm-3.755 3.216c-.341.23-.341 0-.512 0 0-.459.512-.459.512 0Zm1.024 1.609c.171 0 .342.23.512 0 0 .46-.17.919-.853 1.149.171-.459.341-.689.341-1.149Zm-3.072.918c.171 0 .854.69.512.919-.682 0-.682-.459-.512-.919Zm.683 2.988c.171-.23 1.024-.23.853.229-.512.23-.341-.229-.853-.229Zm-3.925.23c.341 0 .682 0 .512.229-.341.23-.512 0-.512-.229Zm2.901 1.608c.683 0 .171.23.341.689-.341 0-.17-.459-.341-.689Zm-2.731.918c0 .23-.341.23-.341.46-.171 0-.341-.23-.341-.46h.682Zm-204.619 4.137h.341c0 .23-.341.23-.683.23.171 0 .342 0 .342-.23Zm-10.581 4.365c0 .23 0 .23 0 0-.17.23-.342.23-.342.23-.511 0 .171-.459.342-.23Zm1.877.459c0-.229.683 0 .854 0-.171.46-.683.23-.854 0Zm213.153 5.055c-.342.23-.342.23-.171.46-.341 0-.512 0-.341-.23h-.342c-.512 0 .512-.23.854-.23Zm-1.195 1.379c-.682.23-1.194-.229-1.706 0-.171-.919 1.536-.459 1.706 0Zm-215.2-.001c0 .46-.171.689-.683.689 0-.459.17-.689.683-.689Zm218.784 2.988c-.512.229-2.218 0-3.072.229.683-.229 2.731-1.148 3.072-.229Zm-216.566 1.378c-.341.23-.512 0-1.024 0 0-.459 1.195-.689 1.024 0Zm206.839-.229h.341c0 .23-.171.23-.171.46-.17-.23-.341-.23-.17-.46Zm-205.132 4.136c.17.459-.17.459-.341.689-.683-.23-1.537 0-1.707-.689.682-.23 1.536-.23 2.048 0Zm5.29-.001a1.12 1.12 0 0 1-1.194 0c.34 0 .853-.23 1.194 0Zm-4.778 1.838c-.17.23-.854.459-.854 0 .342-.23.342 0 .854 0Zm201.548.231c-.342.689-.171.919-.342 1.838-.512 0-.682.23-1.024.459-.512-.229-1.194-.229-1.194-.919.341-.229.682 0 1.194 0 .512-.229.683-.919.342-1.378.512.229.853 0 1.024 0Zm-195.234.688c-.17.23-1.024.23-1.194 0 0-.459 1.365-.459 1.194 0Zm1.024.46c0 .229-.683.229-1.536.229-.17-.459 1.195-.459 1.536-.229Zm191.138 1.838c.171.46-.683.46-.512 0h.512Zm-1.365 1.609c0 .459-.171.459-.683.459-.171 0-.171-.229-.171-.459h.854Zm-1.536 1.378c0 .459 1.024.459 1.536.919-.342.459-.854.689-1.878.689-.341-.46-.341-1.379.342-1.608Zm-.683 2.069c0 .459-.683.459-.512.919-.683 0-1.195 0-1.365-.23 0-.46.512-.23.853-.46.171-.229-.171-.229-.171-.689.512-.23.683.23 1.195.46Zm-1.365 1.377h.341c0 .23 0 .46-.341.46-.171-.23 0-.23 0-.46Zm-2.048 1.838c0 .23.171.23.171.459-.512 0-.342.46-.854.23 0-.23-.341-.23-.341-.459.341 0 .341-.23 1.024-.23Zm-3.413.919c.341 0 .682 0 .682.46-.17 0-.512 0-.682-.46Zm-166.393 1.838c.342 0 .342.23.683 0 0 .23-.17.689-.512.46.512-.23-.17-.23-.17-.46Zm165.198 4.595c.341-.459.683.46 0 .46-.512 0 .341-.23 0-.46Zm-4.608 6.204h.342c.17.23 0 .23-.342 0 .171.459.512.689.342.919-.512 0-.171-.23-.683-.459l.171-.23c.17 0 .17.229.17-.23Zm-110.245 9.65c0 .23-.171.689.17.689-.682.919-1.365-.689-.17-.689Zm106.661.689c.342.23.171.919-.341.919.171-.46.341-.689.341-.919Zm-1.024 2.299c-.341.459-1.023.919-1.877.459.171-.229.683-.459 1.024-.459-.17 0-.17-.23-.341-.23.341-.23.853 0 1.194.23ZM84.71 228.572c.17 0 .34.23.512.23-.171.229-.854.459-1.195.229 0-.229.683-.229.683-.459Zm13.14 1.608c-.17.23-.682.46-1.365.46 0-.46.683-.46 1.365-.46Zm-2.56 0c.171 0 .342.23.342.23-.342 0-.171.46-.683.23 0 0 .512 0 .341-.46Zm75.431 4.825c.342.229.512 0 1.195 0 0 .459-.512.459-.683.689-.17-.23-.512-.46-.512-.689Zm-5.29.69c-.17 0-.341 0-.341-.23-.341 0-1.365.23-1.195-.23.342 0 1.366 0 1.536.46Zm7.509-.231c.853.23.853 1.149 1.707 1.379-.171.23-1.024.23-1.366.23 0-.46.001-.919-.511-1.149-.342-.23.17 0 .17-.46Zm-4.437.689c.512 0 .683.23.853.23.171.46-.853.23-1.024.46-.512-.23.171-.46.171-.69Zm1.536 1.38h.341v.23c-.341 0-.341.229-.682 0-.342-.23.341 0 .341-.23Zm12.117 1.149c.512 0 .512 1.149-.171 1.149-.341-.46 0-.92.171-1.149Zm5.12 1.837c.511 0 .511.23.511.69-.512 0-.853-.46-.511-.69Zm-72.701.231c.512 0 .682.23 1.194.23.171.689-.512.919-.341 1.378.683 0 .683-.459.853-.919.854-.229.854.46 1.024.919-.682.69-2.048.46-2.56 1.379-1.023-.46-1.877.459-2.901 0 0-.23 0-.23-.17-.23.341-.459 1.877-.23 2.73-.23.171 0 .171-.229.341-.229-.17-.46-1.194 0-1.365-.46 0-.459.683-.459 1.365-.459.171-.69-.341-.919-.17-1.379Zm45.907.229c.512.23.683.46 1.365.46-.341.459-.853.459-1.536.459-.17.23.342.46 0 .46-.341-.69-1.877.459-2.048-.46.854.23 1.366-.23 2.219 0-.171-.459 0-.459 0-.919Zm-35.838 2.987c-.171.46-2.048.46-2.219 0 .854-.23 1.536-.23 2.219 0Zm3.754.919c-.341.46-1.706.69-1.194 1.379-.342 0-.854-.23-1.195.23-.341 0-.512-.46-.683-.69-.341.46-1.194.46-1.877.46 0-.23-.341-.46-.512-.46 0 .23-.683 0-.683.23.171-2.068 4.267-.459 6.144-1.149Zm11.946.918c.171.23.683.46.854.69h-.854v-.69Z" clip-rule="evenodd"/><path fill="#2C2321" fill-rule="evenodd" d="M107.578 108.867c-.171 0 .341-.23.682 0 .171 0 .171-.23.342-.46 0-.229-.512 0-.683 0 1.195-.689 1.024-2.067 2.048-2.987.512 0-.171.46.512.23-1.024 1.609-.512 4.595-2.901 5.285.17.229.682.23 1.194.23 0 .689-.512.919-.512 1.608-.17 0-.17-.23-.341-.23-.682 1.149-1.706 2.298-3.072 2.757.342.689-.682.689-.17 1.379.341 0 .341-.23.682-.23.342.689 0 1.149-.682 1.379.682 0 1.024.459 1.365.919.853 0 2.73-.69 2.56.229.17-.229.512-.229.341 0 .341-.229.512-.689 1.195-.689-.171 0-.342 0-.342-.23.171 0 .342-.229.683 0-.171-.229-.171-.459.341-.689 0-.23-.512-.459-.512-.689.342 0 .342-.23.854 0-.171-.23.17-.23.17-.46-1.194-.689 1.536-2.297-1.194-2.527 0-.46.341-.46.682-.689-.17-1.379.171-3.447 1.366-4.136.17.23.17.23.17.459.683 0 .342-1.148 1.195-.689.341-.459.512-1.149-.171-1.378.512-.69.512-1.839 1.195-2.298.512.459.341.919.341 1.379.683-.23 0-.69.512-1.149.341 0 .341.229.341.229 1.195-.459.854-2.067 1.536-2.986.342-.23 1.024-.23.854-.69.17.23.341.46.341.919.171 0 .171.23.341.23.512 0 .512-.459 1.024-.459 0 0-.17 0-.17.229h.341c.512-.229.171-.919.853-1.378 0-.23-.341-.23-.341-.46.171-.689.683-1.378.341-1.838.512 0 .342.46.512.46.683 0 .853-.23 1.195-.23.17.46-.854.23-1.195.46.683.689 0 2.067.683 2.527.17-.23.17-.689.512-.919 1.194 0 1.365 1.149 1.536 2.068 0-.23 0-.46.17-.919.683 0 .683.459 1.195 0 .341.459.171 1.148.683 1.378.682-.23 0-.459.17-1.149.342-.229 1.024 0 1.366-.229-.171-.69.341-.919.341-1.609.512.23.171.919.682 1.149.512-.459.342-.919.342-1.608.341-.46 1.706-.46 1.877.229.512 0 .171-.689.341-.918h.342c.341 0 .341.459.341.689.512 0 .512-.23.512-.69.683.23.171.69.853.69.342-.23-.17-.46-.341-.46.341-.23.853-.69 1.024-1.149.512 0 .683.46.853.92.342-.46.683 0 1.195.23.341-.23.682-.23.853-.46.512 0 0 0 .171.23.682 0 1.365 0 1.194-.69.683-.23 1.366.46 1.024 1.149.342.23.512.689 1.195.689.341 0 .341-.459.341-.689 1.024.459 1.536 1.378 2.56 2.068.683-.23.683-.919 1.877-.919 0-.46.342-.69.854-.69.341.69 0 1.609 1.536 1.149 0 .919-.683 1.149-.683 1.838l.171.23c.341 0 .341-.23.682 0-1.194 1.149.683 2.298 1.195 3.217.683 0 .512-.689 1.194-.689-.341-.46 0-.69.171-.92h1.195c-.342 1.379-2.219 3.217-.512 4.596 0 1.149-.512 1.838-1.365 2.527.17 0 .17.23.341.23-.512.919 1.194.689.853 1.838.512-.23.341-.46 1.024 0 .512-.23.171-.23 0-.689.341-.23.512-.69 1.024-.919-.341-.46-.683-.69-.683-1.379.854 0 .854.46 1.536.46.512-.69 1.536-1.379 1.024-2.528 0-.23.512 0 .512-.23.171-.229-.512-.229-.341-.459 1.024-.919.341-2.987 1.877-3.906 0-.23-.341 0-.341 0 .171-.46.853.23 1.536 0-.683 1.379-.342 2.298-1.195 3.446-.17 0-.341-.229-.512 0 .342 1.379-.853 2.298.342 3.677-.171 0-.512 0-.683.229-.171 1.149.341 2.757-1.024 3.217.171 0 .341 0 .341.23 1.024-.69 1.366-2.068 2.219-2.987 0-.23-.171-.23-.342-.23.512-.919.342-2.068 1.707-2.527-.171-.23-.171-.69-.341-.919.341-.69.512-1.149.853-1.838.171 0 .171.229.341.229 1.195-.689 1.024-1.838 1.878-2.987.512.46.512.919.341 1.379 0 .23.512 0 .683 0 .682-.46 1.194-1.379.853-2.527.341 0 .512-.46 1.024-.23-1.024-.23.512-.46.682 0 .171-.23.683-.23 1.024-.46.171.46.683 1.149 1.878.69-.171-.69.512-.69 1.024-.919 0-.23-.171 0-.342 0 0-.23.512 0 .683 0-.171.459.171.689.341 1.148-.341 0-.853 0-1.024.46.512.689-.341 1.378.171 2.068.683 0 1.024-.23 1.536-.23 0-.23 0-.46-.341-.689.17-.23.341-.46.512-.46-.171-.919 0-2.527 1.365-2.987.17.23.341.46 0 .69.17.459 1.024.689 1.536.229 0-.459-.342-.459-.342-.919.342-.229 1.195-.23 1.195-.689.512 0 .512.23.341.46.171-.23 1.024 0 .512.229.512.23.171-.459.342-.229.341.459.853.229 1.194.459.342-.23.854-.459 1.195-.689 1.194.459 1.877 1.149 2.73 1.608.512 0 .512-.23 1.024-.23.171-.459-.341-.459-.341-.919-.171-.229.512-.229.341-.459.171 0 .683 0 .854-.23.341.459 1.024.689.512.919 1.024 0 .682 1.149 1.706 1.379.512 0 .342-.23.512-.23 1.365.459 1.707 1.838 2.731 2.527.682 0 .341-.689.853-.689.853.23 1.365.23 2.048.689-.171.23-.171.46-.512.23.171 1.379.683 2.298 1.877 2.987-.853.919.683 1.378.341 2.298.171.229.342.229.683.229 0 .23.171.69-.171.69 0 .229.683 0 .854.229-.342.919.341 1.609-.342 2.298.171.23.342.459.683.459 0 .23-.171.46-.512.23.683.23-.171 1.379.683 1.609.341 0 .17-.23.341-.23 1.195.23.171 2.297 2.219 2.068.17.229 0 .229 0 .229h1.194c-.341-.229-.682-.229-.512-.919 0-.229-.512 0-.853 0 0-.229.171-.459-.341-.459 0-.46.341-.46.682-.689-.17-.23-.341-.23-.341-.69.341 0 .512-.23.853 0 .171.23-.17.46 0 .919.342 0 .512-.23.512-.689-.17-.46-.512-.46-.853-.919-.512.23-.683.459-.683.689-.512-.23-.512 0-1.194 0 0-.23.682 0 .682-.459-.17-.23-.853 0-1.194 0 .17-.46 1.024-.23 1.536-.46 0 0-.171 0-.171-.23h-1.365c0-.459.17-.689.341-.919h.512c.512.23-.171.69.341.919.342 0 .342-.229.342-.229 0-.46-.512-.46-.342-.69 1.195.23 1.366-.689.512-.919.342-.229.512-.459.854-.689 0-.23-.342-.23-.342-.459.342-.23.683-.46 1.024-.23-1.024.459 1.195 1.838 2.219.919-.683 0-.342-.23-.512-.689.682-.23 1.194-.46 1.365-1.149-.853-.23-1.536-.23-1.877-.69 0 .46-1.365.919-1.877.46-.171.23-.512.23-.512.46-.683-.46 1.194-.69 1.877-1.149 0-.46-.341-1.609 0-1.838.341 0 .171.459.341.689.854-.23.853.23 1.536 0 0 .459-.171.459.171.689.17 0 .341-.23.682 0 0 0-.17-.23-.341-.23.512-.229.683.919.853 1.379-.341 0-.341.23-.512 0 .512.919-.341 1.379-.341 2.527.853 0 1.024-.689 1.877-.229-.17.229-.512.229-1.024.229 0 .23 0 .46-.17.69-.342-.23-.854 0-1.195-.23.171.689 0 .459.683 1.149h-.854c-1.023.229-.17 1.148-1.194 1.378 0 .23.341.23.341.69h-.682c0 .229.511.229.511.459s-.511.23-.682.46c0 .229.171.229.512.229-.853.46.853.69.17.919.171.23.854 0 1.195 0-.171-.689-.853-.689-.853-1.378.512-.23.512 0 1.024 0-.171 0-.342.23-.342.689h1.195c0 .23-.171.23-.341.46 0 .229.512 0 .682 0 .171.459-.17.459-.17.919-.854-.23-.854.229-1.707.229.341.23.512.69.512.919.512 0 0-.229.171-.459.512-.23.512 0 1.024 0 0 .23.17.459.17.919-.341 0-.512.23-.682.459.17.69.17 1.149.341 1.839 0 .229.853.229 1.024.459.341-.23.512-.459 1.195-.459-.171-.23-.512-.23-.683-.23.341-.919 0-2.068.341-2.528.171.23.342.69.854.69s.853-.69.512-.919c.341-.23.682.229 1.194.229-.341.23 0 .69.171.919-.512-.459-.512.23-1.195.23v.69c1.707-.23 1.877.229 3.072.459-.171.23-.341.46-.853.46v.459h1.365c0 .23.341.46.341.46.512 0 .171-.46.342-.46-.171-.459-.683-.23-1.195-.23 0-.229.341-.459 0-.459.341-.46.512.23 1.195 0 .17 0 .17 0 .341-.23 0-.689-.853-.459-1.024-1.149.341 0 .512-.23.512-.23-.341-.459-.683.46-.853 0-.171-.689 1.536-.919 2.218-.919.342-.229.342-.919.683-1.148.171 0 .512.229.341.459.171-.459.342-.689.854-.919.17.23-.171.23-.171.689 1.194.69 2.73.23 3.754.23-.17 1.379 1.707 1.149 1.878 2.068-.342.23-.854.23-1.536.23-.171-.46-1.195-.46-1.366-.919-.341.459-.853 0-1.194 0v-.69c-1.365.23-2.389 1.379-1.877 2.068-.342 0-.171.46-.683.46.853 0-.171.919.853.919 0 .23 0 .459-.17.459.17 0 .341-.229.512 0 0 .23-.512.23-.342.46 0 0 .171 0 .171.23.853-.23 2.56-.46 3.242 0 .512-.46.683-.46 1.366-.46 0 .689 1.024.689 1.194 1.149.683-.23-.341-.23-.341-.689.683-.23.683.229 1.195.229.17-.459.682-.919 1.536-1.148 0 .229.17.689-.171.919 0 .229.682 0 .341.459.853-.689.171-1.838 0-2.527.512 0 .341.23 1.024.23-.512.689.683 1.378-.341 1.608-.171.23.17.23.17.459.171.23.683.23 1.024.23.171.23 0 .689-.682.689.17.69.512 1.149-.512 1.609.512.459 0 .689-.342.919 1.024.919.683 2.068-.682 2.527.171.46.682.689 1.194.919-.682.46 0 .69-.341 1.379h-1.194c-.683-.689-.342-1.609-1.024-2.298-.512 0-.512.23-1.195.23 0 .23.512.23.683.23.17.459-.854 1.149-1.707.689 0-.23.171-.46.341-.46-.682-.459-1.365.23-2.048 0 0 .69.854.46 1.195.919 0 .23-.171.46-.512.46.171.46 1.195-.23 1.195.46.853-.23 1.194.459 2.048.459.341.23.341.46.512.919.341 0 .341-.23.853 0 .341-.23.171-.689.512-.689.512.459 0 .919.17 1.378-.341.23-.511 0-.853 0 .171.69.342.69-.17 1.149.17.23.512.46.341.689h-.512c.341.23.683.23.512.69 1.365 0 1.877.689 2.73 1.149-.512.229-1.365.229-1.877.459-.17-.23-.512-.23-.682-.23-.512 0 0 .23-.171.69 0 .229.853 0 .682.459-.682 0-1.194.23-1.535.689.17.23.512.69.512.919.17 0 .682.23.682 0 1.877 2.298 6.827-.689 9.216 1.149.341-.229 0-.23.341-.459h.683c.17.229.17.459.341.689.341-.23.683-.23.683.23 1.024.23 1.194-.46 1.877-.689-.341.229-.512.689-.171 1.148.512 0 1.195-.229 1.366 0 0 .23-.342.23-.512.23 0 .46.682.689.341.919-1.365-.23-1.365 1.379-2.048 2.068-.171.23.341.23.341.459.512-.229 1.024-.229 1.195-.689h1.024c.17.46-.341.69-.341 1.149.682 0 .682-.46 1.023-.689 1.024.459 1.195-1.379 2.39-1.379.341 0 .17.23.341.23.683 0 1.195-.689 1.024-1.149.341-.23.853.23.853.46 2.389-1.149 4.096-2.757 5.632-4.366h1.024c0 .46-.512.689-1.024.689.171 0 .171.23 0 .23.683.46 1.195-.459 1.536-.689h.853c0 .689-.512.459-.341 1.149.512.229.683-.69 1.706-.46-.17.46.512.46.342.919-.342.23-.342.69-.683.919 0 0 .171 0 .171.23 1.024-.23 1.194-1.149 1.877-1.608.512 0 .171.23.341.459l1.536-.689c.342.689-.512 1.149 0 1.838-.682.23-1.194.46-1.194 1.149.512.23 1.194-.23 1.194.689h.342c.17 0 0-.459.341-.459.512.229.512 1.378.171 1.838 0 .229.512-.23.682 0 0 .689-.682.689-1.024.229.512.92 0 1.609-.853 2.298.171.23.171.689.341.919-.17.23-.512.23-1.024.23-.17-.23-.17-.46-.341-.46s0 .23-.341.23c1.365.689.341 1.838 0 2.528.682.459.853.919 1.877.689.341-.23.512-.46.512-.689.171.229-.341 1.608-1.024 1.838-.171-.23.341-.23.341-.46-.341-.23-1.194.23-1.706 0-.512.23-.171.919-.342 1.379.342-.46.854.229 1.366 0 .512.229 0 .689.341.919-.853 1.149-1.195 2.987-3.925 2.987-.171 0-.171-.23-.171-.46a1.841 1.841 0 0 0-1.194 1.149c.341.23.512.919.853 1.149 0-.23.512-.23.512-.46.341.23.17.46.853.689-.171.46-1.194.46-.853 1.149-.341 0-.341.23-.512 0 .682.919-.853 1.379-.512 2.298-.171 0-.341.23-.512 0 0 .459.171.689.341.919.512 0 .854-.46 1.366-.689-.171-.23-.001-.69.341-.919.17 0 .512.229.341.459.853 0 1.365 0 1.877.23 0 .459-.17 1.149-.341 1.608-.341-.459-.512-.689-1.024-1.149-.683.919-.683 1.609-1.194 2.528.511.23.511.689.17.919.683.459 2.731.23 3.925.459.171.23-.17.23-.17.69-1.366.229-1.878 1.148-3.072 1.378.682 1.149-1.707 1.149-.853 1.838-.342.23-.342.23-1.024.23-.683.46-.854 1.149-1.536 1.608.17 1.149-1.536 1.379-1.366 2.528.342-.23 1.195-.23 1.366.229-1.536-.459-2.731 1.149-3.072 2.298 0 0-.342.46-.342.23.171.689 1.195.689 2.219.459-.512-.229-.171-.919-1.024-.919.512-.459 1.707.46 1.877-.459.342.23-.512.689-.512.919.854 0 1.195-.46 1.195-1.149 0-.23-.341 0-.512 0 0-.23.683-.689.341-.919.171-.23.854 0 .683.459.683 0 .171-.689 1.024-.459-.341 1.149-.853 1.379-1.195 2.527.342.23 1.195.23 1.878.23-.512.23-1.536.23-2.048.46 0 .689-.512 1.148-1.536 1.148-.171-.229-.512-.229-.342-.689-.512 0-.17.23-.341.46-.512 0-.683-.23-1.024-.23.171-.23.341-.46.683-.46 0-.229-.512 0-.683 0-.341 0 .171.23-.171.46-.512 0-.341-.46-1.194-.46 0 .69-.854.69-.854 1.379.342.23.683.23.854.459.341-.689 1.877.23 2.048-.689.682.23 1.024.46 1.194.919-.853.23-2.048.69-1.706 1.609-.342.459-1.024.919-1.707.689.341.23.341.459.171.689-.171-.459-.683-.23-.512.689-.853.69-2.219 1.149-3.243.46 0-.23 0-.689-.17-.919-.854.23-.342.689-1.195.919-.341.23.171.23.171.459-.342 0-.512.23-.683.23 0 .23.512.23.341.689-.17 0-.341.23-.682 0-1.024.69-2.219 1.839-2.901 3.447h-.342c.342.919-1.706 1.149-1.024 1.838-.853.23-.853.919-1.706 1.379 0 .459-.171.689 0 .919-.683-.23-.683.689-.854 1.148.512 0 .512-.229 1.195-.229.171 0 .171.229.171.459.512-.23.512.23 1.194 0 .171.23-.341.46 0 .46-.341.229-.682.459-1.365.229-.341 0-.171.46-.341.69-.512 0-.683-.46-1.366-.23.342-.46 1.366-.46 1.195-1.149 0-.23-.512 0-.341-.23-.342.69-1.536.69-2.048.23-.171.689-.683.919-.683 1.608-.341 0-.341.46-1.024.46.171.46-.341.919-.512 1.379.171.229 1.024 0 1.024.229.512 0 .512-.459.683-.919.682 0 1.194.23.853.46.683 0 .853.23 1.195.459 0 .919-.683 1.149-1.707 1.149 0 .23.512.23.341.689-1.194 0-1.706.919-1.877 1.609-.853 0-1.024-.46-1.877 0-.171-.23 0-.69-.341-.69 1.365.46 1.877-1.148 2.901-.919.683-.459-.171-.919-.341-1.378-1.707.23-2.219 1.149-2.731 2.068-.341 0-.853 0-.853-.23-.171 0-.512.23-.342.459.512.46.683.92 1.195.92 0 .689 0 .459.341 1.148-.512.46-1.365.23-1.877 0-.853 0-.683.919-1.195 1.149.171.46 1.024.23 1.195.689.683-.229 1.365-.229 1.877 0v.919c-.341 0-.512.23-1.024.23.171.46 0 .689-.341 1.149-.683 0-.683 0-1.365-.23 0-.229.17-.689.341-.919-1.024-.23-.683-.689-1.195-1.149-2.389.46-1.535 2.528-1.194 3.217 0 .46-.853.23-.683.919.171.689 1.195.689 1.536 1.149-.853.23-1.024 0-1.877.23.341.689-.853.689-.683 1.378.171.23.683.23 1.024.46-.341 1.149.171 2.297-.853 3.216.341.23.683.46.512.919-1.024.23-2.219-.459-2.901 0-.683 1.149.17 1.839.682 2.758-1.024 0-1.536-.23-1.877-.46-.341 0-.341.46-.341.689.17 0 .341 0 .341-.229 0 .229-.512 1.148-1.365 1.148.171.23.171.23 0 .69.171.229.341.459.682.459-.17.23-.341.689-1.023.689.511.69-.342.919.17 1.379.171.23-.853.23-.341.23-.512 0-1.195.23-1.707.23-.17 0 0-.23 0-.23h-1.194c-.171.459.512.459.17.689-.853.23-1.194-.459-1.706 0 .512 0 1.706.23 1.877.919-.341.23-1.195 0-1.195.46 0 .229.171 0 .342 0-.171.229 0 .459-.342.689h-.512c-1.365 1.608-2.389 3.906-3.754 5.744-.171.459.171.459.171.689-.683.46-1.707.69-2.219 1.379.341.23.683.23.512.689-.341-.23-1.024.23-1.195.46-1.706 0-1.194 1.838-2.73 1.838.512-.919-1.024-1.609-1.877-2.068-.512.23-.854.459-1.024.689-.512.23-.342 0-.854 0-.341 0-.341.46-.341.689-.512-.229-.683-.459-.853-.919-.342.46-1.536.23-1.878 0-.341 0-.341.23-.511.23-.854-.23-.683-1.378-.342-1.838-.17-.23-.512-.23-.682-.23-1.024 0-.171.919-.854 1.149-.682-.23-.682-.689-1.536-.919-.17-.23.342-.23.342-.46-.171 0-.171-.229-.342-.229-.17.689-.512 1.378-1.194 1.608.17.23.512.46.341.919h-.341c-.342-.459-1.195-.689-1.877-1.149-.342-.229-.171-1.149-1.024-.919.853-.919 0-2.757.17-3.906 0-.459.512-2.068-1.194-1.608 0-.23 0-.23-.342-.23-.341.69-.341 1.609-1.194 1.838.512.69 0 1.838 0 2.528-.854.229-1.024-.46-1.536 0 .17-.69 0-.919.17-1.609 0-.229-.512 0-.682 0-.342 0 .341.23.17.69-.512.229-2.047.229-1.535 1.148h-.854c.171-.459-.512-.689-1.024-.689v-.459c.171 0 .342-.23.683 0 0-.23-.341-.23.171-.46-.512-.23-.683-.459-.342-.919-.341-.23-1.194 0-1.706 0-.171-.23-.342-.459-.342-.689 1.024-.23 2.219-.23 2.39-1.379-.683-.459-.854 0-1.536-.23.341.92-1.024 1.379-2.219 1.609-.171-.23.171-.23.171-.46.682 0 .682.23 1.194 0-.17-.459-.17-.919-.682-1.149-1.195 0-1.536.92-2.731.69 0 .23 0 .459.341.459-1.194.46-2.218 1.149-3.413 1.609.171.229-.17.689.342.689-.342.459-.683.689-.854 1.149-.17 0-.341-.23-.512-.23 0-.46.342-.46.683-.689-.512-.919-2.901-.919-2.731-1.838-.512.229-2.218 0-1.877.689-.512 0-.512.23-1.024 0 0-.46-.853-.46-1.194-.689-.171 1.838 3.242.919 4.266 1.608.853 0 1.365-.23 1.877 0-1.024 0-1.365.689-2.389.689 0 .23.512.23.171.46.341 0 .682.229 1.194.229-.341.46-1.877 0-1.365-.459-.853 0-.853.689-1.536.689-.17.23.512 0 .342.46-.342.459-.854 0-1.024.689-.171-.459-.683 0-1.195 0-1.536 0-3.243-1.379-4.267 0 .342.46.342 0 1.024 0 .342.23.683.689 1.195 1.149-.341.459-1.024.23-1.195.459.512.46 1.195.23 1.878.23-.683.689-1.878.689-3.072.919-.171-.23-.342-.459-.342-.689-.853 0-1.194.23-1.535.689-1.707-.459-1.707 1.149-3.414.919.171.46.171.689.342 1.149.682 0 .512-.23.341-.689.512 0 .683.459 1.024.689.512-.23.853-.23 1.195 0-.342 1.149-2.219.46-3.414.23-.17-.23.342-.23.342-.46-.512 0-1.195.46-1.366 0-.341 0 .342.23 0 .46-1.877.23-3.413 1.378-5.461.459-1.194.23-2.389.69-3.583.46-.342 0-.512.23-.342.459-.341 0-.512-.689 0-.689-.512-.459-.853-.919-1.706-1.149.341-.919-1.195-.689-1.195-1.378-.512 0-.683 0-.853.229.17.23.512.23.512.23.17.46-.683.689-.342.919-1.194.23-1.877 1.149-3.071.919.17-.689 1.024-.689 1.365-1.149-1.024-.919-3.584-.919-4.949-.459 1.365.23 2.901-.23 3.413.919-.341.46-.853.689-1.195.919.171.23.342.46.342.689.853 0 1.194.46 1.877.46 0 .23-.512.23-.171.459.342 0 .342-.229.512-.459.683.23 1.707.23 1.877.689-2.559.23-5.631-.459-8.362-.459-.171-.23.171-.23.341-.46 0-.23-.682 0-.682-.23v-.459c.512-.23 1.024-.23 1.706-.23v-1.149c0-.23-.17-.23-.512-.23.171-1.378-2.218-.689-2.901 0-.17-.459-.512-.459-1.194-.229 1.365-.919 4.095-.919 5.631-1.609 0-.229-.17-.229-.17-.459-.683.459-1.366.459-2.219.23-.853.919-3.754 0-4.778 1.148-.171 0-.171-.229-.342-.229-.512.229-.17.689-1.024.689 0-.46.683-.46.683-.689-.512-.46-2.048 0-1.877.459.17.23.682.23 1.194.46-.341 1.149-2.901 0-3.583 1.378-.854 0-1.195-.229-1.878-.459-.512.23-1.536.229-2.218.229.512-.689 1.024-1.378 2.218-1.608-.17.23-.17.23-.17.46.341 0 .512-.23.682-.23-.341-.23 0-.689.342-.689.512.459 1.365.229 1.877 0-.512 0-1.024-.69-.512-1.149 0-.23-.512-.23-.853-.46.682-.229.682-.919 1.194-1.378-1.194-.23-3.584-1.149-4.437.23-.171 0-.341-.23-.683 0-.512.689-1.706.919-2.901 1.378-.17.23.171.46.171.689h-1.024c0-.459.171-.229.683-.229-.342-.46-1.195-.46-1.878-.46-.17-.23-.341-.23-.17-.689-.683 0-1.366-.46-1.878-.23-.17-.23-.17-.919-.853-.689 0-.23 0-.69.341-.69 0-.459-.682.001-.853-.229-.341 0-.17.459-.341.689-.341-.23-.683-.459-.341 0-1.024-.23 0-.919-.342-1.379-.512.46-.341 0-1.194-.229-.512-.23-1.536 0-1.878 0-.17 0-.17-.46-.341-.46-.341-.23-1.195.23-.683-.23-.682.23-1.194 0-2.047 0-.854-1.378 1.023-1.608 2.559-.919.171 0 0-.229 0-.229.342 0 1.366 0 1.024.459.342-.459.683-.23 1.195-.919.683 0 .512.46 1.024 0-.171-.919-1.707-.23-3.072-.459-1.024-.23-2.218-.46-2.901.229 0 .23.512 0 .683 0-.171.23-.683.23-1.195.23-.17-.23-.341-.689 0-.919-.853-.459-2.219-.23-2.73-.689-.513 0-1.537.23-1.366-.46.512 0 1.195 0 1.195-.23 0-.459-.683-.229-1.195-.229.17-.23.512-.46.853-.23.512-.919 2.39-.919 2.56-2.068.512 0 1.195-.23 1.707-.23-.17-.689.171-1.148 1.194-.919-.17-.459.854-.459.342-.919.682 0 1.024-.229 1.194-.689h.854c0-.23-.683 0-.342-.46.342 0 .512.23 1.024 0-.17-.459.171-.229.171-.689.512-.23.341 0 .683 0-.342-.23.341-.23.341-.689-.683 0-.853.459-1.195.689-1.024.23-2.56.689-3.413 1.609-.512 0-.853-.23-1.365 0 0-.23-.341-.46-.341-.69h.512c0-.23 0-.459-.342-.459.17.459-.853.459-1.365.459.17.23.341.46.683.23-.171.23-1.195 0-1.195-.46-.341 0-.512.23-.683.23-.17-.23.342-.459 0-.689-1.365.689-3.242-.23-4.607.459.17.46.853.69 1.877.69-.342.459-1.365.229-1.536.689-.341-.23-.341-.689-.853-.689.512-.919-1.024-1.379-1.195-2.068-2.56-.23-1.195 2.068-2.219 3.217 0 .229.342.459.342.689-.171.23-.342-.23-.512 0 0-.23-.854-.919 0-.919.17-.46-.512 0-.342-.23.342-.46 1.024-1.608 0-1.608-.512 0-.512.459-.682.689-.342 0-.512-.46-.17-.689-.342 0-.513.229-.854.229 0 .46-.341.46.17.69 0 .23-.511.23-.853.23 0 .459.342.229.17.689-.511.23-.17-.23-.511-.23-.17-1.149.683-2.987-1.877-2.527-.342-.23-.512-.46-1.024-.46-.683.23-1.024.23-1.878 0-.34.23.171.689-.17.919-1.365-.459-.17-2.068-1.536-2.527-.341.459.17 1.149.341 1.608-.341 0-.682.23-.853.46.17 1.378.17 2.297-.512 3.446-.853-.459-.17-1.149-.683-1.838h.512c-1.194-.919 0-2.068-.853-2.987 0-.689 0-2.987-1.195-3.217-.17-1.378-.853-2.986-1.194-4.595-1.536-.919-.342.689-.854 1.149 1.024.23-.34 1.149 1.195 1.149-.17.23-.512.459-.683.689.171.23.683.23.854.46-.683.229-.512.689-1.366.689.171.23.512.23 1.024.23-.17.919-.512 1.378.683 1.378.683 0-.341-.689.512-.689.341 1.149.683 2.068-.341 2.757.341.689.341.689.512 1.379-1.878-.46-1.707-2.757-2.56-4.366 0-.23.17-.23.341-.459-.853.229.17-.69-.683-.69.512-.459 0-1.148-.512-1.378-.17.23-.34.23-.34.459-1.878-.229-1.195-.919-2.049-1.838-.512 0-.17.46-.682.46-.171-.46-.342-.919-.512-1.149.512 0 .682.459.853.919.512 0 .853-.23 1.024-.689-.341-.69-1.195-.69-1.536-1.149-.853.689-.683 2.527.853 2.987-.17.459.17 1.149 0 2.297-.341 0-1.706-.229-1.536.46-.682.23-.682-1.608-1.365-1.149-.512-.23.341-.23.17-.689-.511-.23-.34.459-.853.23-.682-.69 0-1.379-.512-2.068.342-.23.683-.46.854-.689-.17-.23-.683.229-1.195 0-.17-.23-.341-.92.341-.69-.17.46.512.46 1.024.46.171.459 0 .919 0 1.378 1.536 0 1.195-1.838-.34-1.608 0-.23-.172-.23 0-.459-.172 0-.513-.23-.684 0-.682-.92-1.365-1.609-1.535-2.987.34-.23.34 0 .682-.23 0-.689-1.024-.46-1.024-1.149.342 0 .342-.23.512-.23 0-.459-.341.46-.341 0-.342-.229.17-.459.341-.459-1.194-.919-1.365-2.528-1.706-4.595.682-.23.853-.69 1.536-1.149-.171-.46-1.195-.23-1.878-.46-.341-.689-.17-1.149 0-1.608.17 0 .17.23 0 .23.512.459.683 0 1.195 0-.17-.919.512-1.838-.853-2.758-.512 0-.342.23-.854 0-.341-.229.171-.459 0-.919.683 0 1.024-.689.854-.919-.512 0-.342.46-1.024.23.341-.919.512-1.378 0-2.068.682 0 .682-.689 1.194-.689-.512-.689-1.024 0-1.706-.459-.171-.69.682-.919 1.024-.46.34 0 .17-.23.34-.23-.17-.23-.682-.23-1.023 0-.17 0-.17-.23-.341-.23v-1.838c.341 0 .512 0 .512-.229-.342-.46-.171-.69-.342-1.379.342.23.171 0 .342 0-.171-.23-.342 0-.683 0 0-1.149-.17-2.068-1.536-2.527-1.194.459-3.072 0-3.754.919-.512 0-.683-.23-1.195-.23-.512.23-.512.46-.341.919-.171.23-.512 0-.512.23.341-.46.17-1.838-.854-2.068-2.218 1.149-6.143-.46-8.533.689-.34 0-.17-.459-.34-.23-.513 0-.342.46-.854.46.341-.919-1.024-.23-1.365-.919.511.23.853.23.853-.23.512 0 .853 0 1.024.23.512-.23.682-.23.682-.689 1.195 0 3.072-.23 3.584-.919 0-.23-.17-.23-.341-.23 1.024-.689 1.877-.46 2.901 0 .512 0 .683-.23.683-.46.512 0 .682-.229 1.194 0-1.194-1.149-3.925.46-5.12-.689-.853.23-1.023-.23-1.535-.23-.17 0-.342.69.17.46-.34.23-.34.459-.34.689-.684-.23-2.049-.459-2.732 0-.511 0-.17-.459-.511-.23-.171.23-.512.46-.683 0-.17 0-.17.46-.512.46-.512-.23-1.536-.23-2.39-.23 0-.23-.17-.459-.682-.459v-.69c.512 0 .17.46.683.23a.54.54 0 0 0 0-.919c.512-.46.17-.689.853-1.379-.17-.459-.341-.459 0-.919-.341-.459-.853 0-1.536 0 .17-.689.683-1.148 1.195-1.378-.512 0-.512.23-1.024 0-.17-.46.17-.46.17-.689-.512 0-1.365.459-1.706 0 .682-.46 1.365-.69 1.365-1.839.512-.229 1.195-.689 1.707-1.148 1.706.229 1.536-.919 2.56-1.149-.171-.23-.512.23-.854 0-.17 0 0-.46-.341-.23 1.024-.23 1.706-1.149 2.73-1.149-.34-1.149-1.194-.459-2.218-.229-.512.689-1.365 1.608-2.73.919-.171-.23.511-.69 1.023-.69 0-.459-.17-.459-.17-.919 1.365.23 1.024-.919 2.048-1.149 0 .46.853 0 .682.46.342-.23 1.024-.23 1.024-1.149.342-.23 1.024-.23 1.195 0 0-.23-.512-.23-.17-.459.682 0 1.194-.23 1.535-.69.683.23 1.365.23 2.219 0-.683-.229-2.39-.229-3.072-.229.682-.919 1.706-1.149 3.072-.919 1.024-.46 2.218-.69 3.242-.919-.17-.23-.17-.69.342-.69-.513-.23-.342-.689-.683-1.149-.17.23-.683 0-.683.23-.17 0-.341-.23-.341-.23h-.683c-.512 0-.17-.229.17 0 .684-.229 1.366-.229 1.878-.459.683 0 1.024.23 1.536 0 .341-.23-.512-.46-.17-.689 1.535-.23 3.413-.69 4.949-.46.34-.459.853-.689 1.706-.919-.17-.46.17-.459.341-.919-.34-.46-.682-.919-1.365-1.149.342-.459.341-1.149-.341-1.378.17-.46.512-.46 1.024-.46.512-1.149.17-2.987-.342-3.446.171-.46.171-.69-.17-.919.853-.23 0-.69-.17-1.149.511-.46.511-1.379.17-1.608-.341 0-.17.229-.512.229-.17-.459.512 0 .341-.229-.341-.23-1.194-.23-1.194-.69.34-.229 1.023.23 1.194-.23-.17-.229-.341-.459-.682-.229.17-.23.682-.23.682-.46-.341-.459-1.365-.459-1.706-1.149.17-.229.682-.229.853-.459-.512-.689-1.024-1.608-2.219-1.149.512-.459 1.877-.689 2.73-.459 0-.69-.17-.69-.852-1.379 0 0 0-.46-.171-.46-.342-.229-1.365 0-1.195-.689h-1.194c.17-.689-.342-1.149 0-1.608.34 0 .34-.23.853 0-.17-.46 0-.689.341-.919-.341-.46-.853 0-1.194-.23.34-.459.17-.919 1.024-.919 0-.459-.854-.23-1.366-.23.683-.23 0-.689-.512-.689 1.195-1.149 4.096-.689 5.632-1.608.17 0 0 0 0 .229h.341c0-.229-.682-1.148.342-1.378-.342-.919-1.024-1.609-2.39-1.379.683-.23 1.366-.459 1.195-1.378h-.34c-.17 0-.17.229-.17.459-.684 0-.854-.23-1.196-.459.171-.69 1.707-.69 2.731-.69.17 0-.17-.459.17-.689.342.689.342 1.379.513 2.068 1.365 0 1.706-.23 2.56-.46-.171-.229-.342-.689-.342-1.148.683 0 1.195-.23 1.366-.69.17.69 1.706.23 2.218.46.512-.46.17-1.608 1.365-1.608.512-2.298 2.73-3.447 2.73-5.744.172-.23.513-.23.513-.46-.341-.46.512-1.608.853-2.068-.341-1.378-.17-3.216 0-4.825.17-1.149.683-2.297.853-3.446.171-1.149-.34-1.838 0-2.757.171-.69 1.366-1.379 1.707-2.528 1.195-.229.683.919.853 1.609.171.229.342.229.854.229.512-.459.682-1.148 1.706-1.378 0 .459.17.689.342 1.149.682-.23 1.535-.69 2.389-.46.341 0 0-.459 0-.459-.512 0-.342.229-.854.229-.17-.459.512-.689.342-1.148.853-.23.512.689 1.024.689h.341-.341c.853-.919.682-2.987 1.706-3.906.512 0 .683.459 1.195.459.512-.229.683-.459 1.195-.689.34 0 .17.46.853.46.17 0 .17-.46.341-.69 1.877.46 3.584-.689 4.437-1.838.512.23 1.024.69 1.707.46.683.689.683 2.297 2.56 2.068-.512.689-.17 1.378.682 1.838.683-1.149.342-2.298 1.366-2.987 0 .689-.171 1.838-.171 2.527 0 1.149 0 3.906 1.365 4.136.512-.689-.512-1.149-.341-2.068.341 0 .341-.459.853-.23-.17 1.838.683 2.757 1.195 4.136.682-.23.512-.919 1.194-1.149-.17 0-.341 0-.341-.23.171-.229.512-.229.683-.459.682.23.682.919 1.536 1.149-.342.229 0 .459.17.689.342 0 .171-.23.512-.23.512.46.171.919 0 1.379 0 .23.683 0 .683.23.341-.23.683-.69.512-1.149 1.024-.23 1.536-.23 2.048-.69h.341c.341-.229.171-.689.341-1.378.171-.23 1.195-.919.342-1.379.853-.229.512-1.378 1.194-1.838 1.536.23.854-.919 1.878-1.149-3.072-1.148-3.414-1.148-3.584-1.378Zm73.724-5.055c0-.23.171.23.342 0 0-.23 0-.459-.342-.459 0 0-.512.459 0 .459Zm3.072.919c.512 0 .854-.23.854-.689-.512 0-.342-.23-.854 0-.341 0-.341.459 0 .689Zm-18.943-.23c.341 0 .341.23.512 0 .171 0 .341-.459-.171-.459.342.459-.341.23-.341.459Zm9.045.69c.171.459.683.919.512 1.378.512 0 .512.46 1.195.23.341.689 0 1.149.682 1.608.171-.689-.17-1.608.171-2.067-.853-.46-1.365-2.298-2.56-1.149Zm12.458.689c.341 0 .341.46.683.46.17-.23-.171-.23-.171-.69-.171 0-.512 0-.512.23Zm-54.781.689c.512 0 .341-.459.341-.689h-.341c-.171.459.341.46 0 .689Zm53.757.23c.683 0 .853.23 1.365 0-.17-.46-.853-.689-1.706-.689 0 .459.341.459.341.689Zm-69.117 1.608c.342.23.342.69.342.919h-1.195c-.341.69-.171 1.149-.341 1.839.341 0 .682-.001.512.229 0 .23-.171.46-.512.23.341.689-.171 1.379-.342 2.068.342 0 .342 0 .171.23.512 0 .683-.23.853-.46-.341-.919.512-1.608.171-2.297 1.024-.23.683-1.839 1.195-2.068-.683-.46.341-.919.341-1.379-.853-.23-.683.689-1.195.689Zm64.68.69c.171-.23.683 0 1.195-.23 0-.46 0-.919-.342-1.149-1.024 0-1.365.919-.853 1.379Zm15.701 4.135c-.171.69.512.69.341 1.379 1.195-.23.683-1.149 0-1.608 0 0-.171.229-.341.229Zm-81.405 2.528c-.512-.46.683-.69.342-1.379-.171-.23-.512-.23-.854 0-.512.689 0 1.379.512 1.379Zm33.45 0c.341.459 1.194.689 1.877.229 0-.459-.171-.459-.171-.689-.853 0-1.706 0-1.706.46Zm48.296 1.149c.341 0 .683 0 .683-.23-.342 0-.171-.23-.512-.23 0 .23-.171.46-.171.46Zm-44.03.919c.853.229-.683 1.378-.341 1.838.853-.46.682-1.379 1.024-2.068-.342-.23-.854-.23-.683.23Zm44.03 0c.341.229.512-.46.341-.46-.17.23-.341.23-.341.46Zm-84.305 1.838h1.023c0-.46-.682-.23-.17-.46-.341 0-.512 0-.341-.23.17-.229.853-.459 1.194-.229-.17-.46-.682-.46-1.194-.69-.342.69-.171 1.149-.512 1.609Zm82.428.459c.512 0 .682-.23.682-.459h-.341c0 .229-.341.229-.341.459Zm0 1.149c.512-.46 1.194.23 1.536 0-.342 0 .17-.23 0-.46-.683-.229-1.024-.229-1.878-.459-.17.459-.17.689.342.919Zm3.072 0h.853c.17.23.341.919.512.919 0-.46.17-.689.682-.689v-.46c-.17 0-.341-.23-.512-.23-.341.919-1.365-.229-1.535.46Zm.682 1.838c.171 0 .853.23.683 0 0-.459-.853-.23-.683 0Zm5.461 0c-.341.689-.853 1.838.683 1.838 0-.689 1.024-.919 1.024-1.608-1.024.23-.853-.46-1.707-.23Zm-6.997 1.379h.854c.17.229.17.459.341.459-.512.23-.853.23-.853.689.17.23.853.23.853.69-1.024.459-2.048.919-3.072.919.171.689 1.365 1.378 2.219.919.17 0 .512 0 .341.459.683 0 .853-.229 1.365 0 .341.46-.341.46 0 .69.512-.23.683-.69 1.365-.69 0-.459.683-1.148-.17-1.378-.683.23-.683.919-1.366 1.149-.511-.23.001-1.149-.511-1.379.17 0 .511 0 .341-.23-.341 0-.512.23-.512 0 .171-.459.512-.689.171-1.149 1.023-.459.511-.919.341-1.838-.683.23-.853 0-1.877 0 0 .23.341.46.17.69Zm2.901.689c.512 0 .854 0 1.024.459-.512.46-1.536.46-1.536 1.149.854-.23.854.23 1.195.46.171-.23.512-.46.853-.46.512.46 2.56.23 2.902 0-.854 0-.512-.689-.854-.919-1.365-.23-1.877.46-2.048.689-.17-.689.171-1.148-.17-1.838-1.024-.459-.854 0-1.366.46Zm-48.296.689c.341.23.853.23 1.195.23 0-.23.17-.23.341-.23-.512 0-.512-.689-.853-.919 0 .46-.512.46-.683.919Zm52.904.689c.342 0 .512.23.342.46h1.877c.17.23.341.459.341.689.683.23.512-.23 1.024-.23-.171.69 1.365.46 1.365 0-.17 0-.17.001-.17-.229-.854.23-.683-.46-1.195-.46.853-.689-.853-1.149-1.365-.689.341 0 0 .459-.171.459-.341-.229.171-.689-.171-.919-1.023-.229-1.365.46-1.877.919Zm10.41-.229h-1.536c-.17-.23-.17-.46-.17-.69-1.024 0-.853.919-1.365 1.149.17.23.341.23.341.46 0 .459-.512.459-.853.689 1.024.23 1.877.46 2.559 0-.341-.23-1.023-.23-1.194-.46.171-.229.171-.689.341-.919 1.195.23 2.731.46 1.877-.229Zm-5.631.459c.17 0 .512.23.341.46.341 0 .683-.23 1.365-.23-.17-.46-.341-1.379-1.194-1.149.17 0-.512.46-.512.919Zm7.509 1.379c-.683 0-1.707-.23-1.878.23.683.229.512 1.148.854 1.608.341-.46.853-.919 1.365-1.149.171.23.683 0 1.024.23 0-.23.171-.23.341-.23-.512-.919-1.194-1.608-2.56-1.838.342.23.512.689.854 1.149Zm-12.117 1.378c-.171.23-.683 0-.853.23 1.365.919 2.901 0 3.925-.919-.171-.459-.512-.689-.854-.919-.853.689-3.071 0-2.218 1.608Zm4.437 2.298c0-.46.853-.46 1.365-.23.342-.459.342-1.149.854-1.378-.171-.23-.512-.23-.512-.69-.683 0-1.024-.229-1.366-.229-.17.919-.853 1.608-.341 2.527Zm-10.581-1.838c.854-.23 1.195.689 2.219.23-.512-.23-1.195-.23-1.536-.46-.512 0-.683-.23-.683.23 0-.23 0-.23 0 0Zm12.97 1.608c.854 0 1.195-.23 1.877 0 0-.23.171-.23.171-.459-.341-.23-1.024.229-1.194-.23.17 0 .341-.23.17-.46-1.194.23-1.365.69-1.024 1.149Zm-2.218.689c0-.229 0-.229.17-.229-.17 0-.853-.23-1.024 0 .512 0 .342.459.854.229Zm-7.68 2.528c.341 0 .512-.23.341-.46h-.341v.46Zm14.677 1.149c.17-.23.512-.69 0-.919-.342.229-.512.689 0 .919Zm-155.3.229c0-.229.342 0 .512 0 0-.229 0-.459-.341-.459.17 0-.512.23-.17.459Zm153.934.919c1.195 0 2.731 1.609 3.414.23-.342-.23-1.195-.23-1.195-.919-.683 0-.853-.23-1.195 0-.17-.23-.341-.459-.341-.689h-.683v1.378Zm-156.323 1.839c.512 0 .853 0 1.195.229-.171-.229.17-.229.341-.459-.683 0-.853 0-1.195-.23-.34.23-.512.23-.34.46Zm-.683.689c.342 0 .342-.23.342-.23h.341c0-.23-.17-.459-.512-.459-.17.459 0 .459-.17.689Zm-1.365 0c.341.23 1.195.23 1.195-.23-.512.23-.512-.23-1.024-.23 0 .23 0 .23-.17.46Zm168.611 3.216c-.171 0-.171-.229-.171-.459h-.341c-.171.689.341.689.512.459Zm.171.23c.682-.23 1.024.23 1.194-.459h-1.365c0 .229.341.229.171.459Zm-1.878 1.149c.171 0 .171-.459-.341-.459-.171 0-.171.459.341.459Zm-1.536 0v-.459h-.512c0 .229.171.459.512.459Zm3.243 6.433c.683.23 1.707.46 2.389.919.342 0 .341-.459.512-.459-.171-.23-.512-.23-.512-.689 1.024 0 1.365-.69 1.877-1.149.342.23 1.366 0 1.536 0 0 .23-.512.459 0 .689-1.024.23-1.706.23-1.706 1.149.682 0 .512.459.682.689.342-.23.512-.459.854-.459 0 .229 0 .459.17.459.171 0 .854.23.854 0-.171-.23-.512-.459-.854-.459.342-.46.342-.46 1.024-.46 0-.459-.682-.23-.682-.689.682-.23.682 0 1.194.23.342-.46.512-.919 1.195-.919-.341-.69 0-.92.512-1.149-.341 0-.341-.23-.512 0-.171 0 0 .459-.341.459-.342 0-.171-.459-.512-.23-.342.46 0 .69-.512.92-.512-.23-1.024-.69-.683-1.149-.683.229-1.195-.23-1.877-.46.17-.459 1.024-.689 1.194-1.149h-.512c0-.459 1.024-1.148 0-.919.512.46-1.024.46-1.024.919-.512 0-.341-.459-.853-.229-.512.459-1.195.459-1.706 0 .341 0 .341-.23.341-.46-.171-.23-.853 0-.853-.23 0-.229.682 0 .512-.459 0-.46-.342-.46-.683-.46-.171.23-.341.23-.341.69.17.229.512.459.512.689-.342.23-.512.459-1.024.689-.171 0 0-.459-.342-.459-.512.459-1.877.229-2.73.459-.171-.23-.171-.459-.342-.459-.682 0-.853.229-1.194.459-.512-.23-1.024-.459-1.877-.23-.342.46-.171.69 0 1.149.853-.23 1.194.23 1.365.689 1.024-.459 1.365.23 2.56.23.17.69.512.69.853.919-1.707.23-3.243.23-3.584 1.379 1.195.919 2.56.23 4.267.459.17-.459 1.024-.689 1.536-.229-.171.229-.683 0-.683.229h.341c-1.536-.459-2.048.69-2.56 1.609.683 0 1.024.229 1.366 0 .17-.23-.512 0-.342-.46 1.195-1.608.854-1.149 1.195-2.068Zm3.413-5.973c.341 0 .341-.23.512 0 .171-.23-.171-.23-.171-.46h-.512s.171.23.171.46Zm1.536 0c.341.229.512-.46.341-.46-.17 0-.512 0-.341.46Zm6.997 2.297c.512 0 .683-.459.683-.919-.683.23-.512.689-.683.919Zm-18.772 2.987h.853c0-.23.512-.459.341-.689-.512 0-1.365 0-1.194.689Zm-2.902-.23c.512.23 1.024-.229 1.195-.459-.853 0-1.195 0-1.195.459Zm-2.218 0c0-.229.682.46.682 0-.17 0-.17-.459-.682 0 0-.229 0-.229 0 0Zm26.452 2.068c.683-.23.341-1.149.853-1.378-.17 0-.341-.23-.853-.23-.171.459-1.024 1.378 0 1.608Zm1.706.689c.342-.229-.511-.229-.341-.689h-.512c.171.23.512.46.853.689Zm-18.089.919c.17.46-.342.46-.342.92.683-.23 1.195-.23 1.878 0-.171-.23-.171-.69 0-.92h-1.536Zm16.383 1.149c-.512.23-1.707 0-1.707.69 1.366.229 2.39-.46 3.413-.919-.341-.46-.853-.69-1.535-.92 0 .46-.512.69-.171 1.149Zm9.386 3.217c.341 0 .341.23.341.23 0-.23.342-.46.512-.46-.17 0 0-.23 0-.23h-1.023c.17 0 .17.23.17.46Zm-2.901 4.365c0 .46.853.23.683 0-.342-.229-.342 0-.683 0Zm-.512 1.149c.171 0 .341.23.683 0 0-.23.17-.23.17-.459-.512 0-.682.229-.853.459Zm-195.063 4.136c-.853 0-1.365-.46-2.048 0 .683.23-.341.459-.17.919 1.365 0 2.9 0 4.095-.46.171.23.512.23.683.46 0-.46.512-.23 1.024-.23 0-.23.341-.23.512-.459-.17-.23.17-.919-.341-1.149-.854.919-2.73 0-3.755.919Zm195.916-.23v.23h1.195c0-.23 0-.23.171-.23-.683 0 .17 0 .17-.23-.512 0-.17-.229-.512-.459 0 .23-.853.689-.341.919-.341 0-.341-.23-.683-.23ZM36.754 183.769c.512.23.854.459 1.536.689.512-.23.683-.689.854-1.378-.854-.23-2.048 0-2.39.689Zm9.728.919c.683.23 1.877 0 2.39 0-.342 0 .17-.46-.342-.46-.341.46-1.707-.229-2.048.46Zm192.503 2.068c.683 0-.341.459-.341.689.682.689 1.024 0 2.218.23.171-.23.171-.689.683-.689-.171-.46-.512-.919.171-1.149 0-.23-.342-.46-.854-.46-.17.919-1.365.69-1.877 1.379Zm-191.65 1.838h.854c.682-.46.512-1.379-.683-1.379-.341.69.17.919-.17 1.379Zm8.021.23c-.682 0-.682-.46-1.194-.46-.512.689 1.024.919 1.194.46Zm116.048 3.676c0 .23-.512.23-.17.23.17-.23.682.229 1.023 0-.17 0-.17-.23 0-.23h.171c-.683-.23-.683.459-1.024 0Zm-105.979 3.216c.512 0 .341.23.683.23.17-.23-.17-.23.17-.459h-.512s0-.23-.17 0c0 0-.17 0-.17.229Zm-.341 3.906c.341-.229.17-.919-.17-1.148-.513 0-.513 1.378.17 1.148Zm-.341 2.528c.34-.23.511.459 1.535.459.342-.229.171-.459.342-1.149-.683 0-1.024-.229-1.707 0 0 .23-.682.46-.17.69Zm-.512 1.608c1.023-.23.682.919 2.047.689-.17-.459.171-.689 0-1.148-.682 0-1.535 0-2.047.459Zm102.565.919c0 .23 0 .23.171.46.341 0 .512-.23.512-.46-.341-.23-.341 0-.683 0Zm-101.541.689c.682 0 1.194 0 1.194-.459-.683 0-1.195 0-1.195.459Zm105.979 1.379c.511 0 .511.23 1.194 0 0 0 0-.23.171-.23.17-.459-.853-.689-.512-.459.17.459-.683.689-.853.689Zm-105.126.689c-.17-.229-.17 0 0 0-.342-.229-.683-.229-.854-.229-.17.229.683.459.854.229Zm.853.46c0-.23 0-.689.17-.689-.34 0-.34-.23-.682 0-.341.229.17.459.512.689Zm105.808-.23c-.17-.23-.17-.689-.682-.689-.853.459.512.689.341 1.378.853-.229 2.219 0 2.389-.689-.512 0-1.365.23-2.048 0Zm-104.272 1.608c-.341-.689-1.365-.229-1.536-.919-.683.23-1.195-.229-1.536 0-.17 1.379 2.048 1.379 3.072.919Zm147.108 1.149c0-.23.17 0 .341 0 0-.23.171.23.512 0 0-.23.171 0 .341-.23-.512 0 .342 0 .171-.229-1.024-.23-.683.459-1.195 0 0 0 0-.23-.17 0 0 .229-.171.459 0 .459ZM67.473 212.03c.512.459.17 2.297-.17 2.527-.513 0-.342.23-.854 0v-.46h-.853c-.17.23.17.46 0 .69h-.853c0 .229 0 .229-.171.229 0-.229-.341-.229-.341 0 .17 0 0 .23-.171 0 0 .46 0 .69.512.46.341-.23-.17-.46.17-.46.683.23.512-.229 1.195 0 .17-.229-.512-.459-.17-.459.682.23.34.459 1.365.459.17-.229.17-.689.512-.689.17.23.682.23.512.46-.342.229-.342-.23-.683 0v.459c1.365-.459.341.919 1.365.919.171-1.608-1.706-3.906-1.194-5.974-.512.23-.854 0-1.366 0-.17.919.854 1.609 1.195 1.839Zm100.177-1.609c.341 0 .682.23.682-.23-.341 0-.682 0-.682.23Zm-9.557.919c0-.459 0-.689-.342-.689-.17.23-.511.23-.341.689.171-.23.341.23.683 0-.342-.23-.171 0 0 0Zm-92.497 5.055c-.512-.23.512-.23.341-.46-.683 0-.853.69-.341.46Zm51.539 4.365c.17-.229.682 0 .512.46 2.218-.23 2.73-1.379 3.072-2.757-.683-.46-1.366-.46-1.878 0-.17.689.512 1.378-.17 1.608-.171-.689-.854-1.149-1.024-1.838-.854.23-.683 1.379-1.366 1.838.683-.23.854.46.854.689Zm-47.785-2.297c-.17 0-.341-.689-.682-.46.341.23.512.919.682.46Zm39.934 3.216c.683 0 .683-.459 1.195-.459-.341-.46.171-.46.341-.919-.682.459-.853 1.149-1.536 1.378Zm9.045 1.149c0 .23-.17.23-.17.23.512.23 1.024-.23 1.706 0 0-.46.854-.46.683-1.149-1.024-.23-1.195-.459-2.219-.23 0-.229 0-.229-.17-.459-.342.23-.683 0-1.024.459.853.23 1.365.919 1.706 1.149-.341 0-.341-.23-.512 0Zm-10.069-.689c0 .23.512.23.342.689-.171.46-.683.46-.683 1.149.683 2.527 3.755.23 2.219-1.378-.854 0-1.366-.23-1.195-.92-.341 0-.512.23-.683.46Zm3.243 1.149c0-.23.683 0 .853-.23-.17-.23 0-.459-.341-.689-.171.459-.853.689-.512.919Zm49.832 2.527c.342 0 1.024.23 1.195.23-.512 0 .171-.46-.341-.689h-.171c.341.229-1.024 0-.683.459Zm-54.781.46c0-.23 0-.919-1.024-.69.171.23-.512.46-.171.69.342-.23 1.195.229 1.195 0Zm-15.36-.23c-.34.459.513.689 1.195.459.17-.459-.853-.689-1.194-.459Zm4.779 1.378c.512 0 .853-.229 1.024-.689-.683 0-1.195.46-1.024.689Zm2.39.69c.17-.23 1.365-.23.853-.46-.342 0-1.195.23-.854.46Zm65.362 2.987c-.683 0-2.219.689-1.195 1.378 1.195 0 1.706-.459 2.048-1.149.512.23 1.194-.229 1.365-.459-.853.23-2.048-.23-2.73 0 .341-.23.512-.23.512.23Zm12.799-.46h-.683c0 .46.683.46.683 0Zm-68.605 1.838c-.341.46 0 1.149.853 1.379 0-.919 1.366-.919 1.536-1.609-1.024-.229-1.365.23-2.389.23Zm5.291 0c.17 0 .853.23.853 0-.512 0-.171-.23-.341-.459-.342 0-.683.229-.512.459Zm66.215 0c-.171.689-.171 1.149 1.195 1.149 0-.46 0-.919.341-1.149-.683-.459-.683-.23-1.536 0Zm-10.069.46h-.341c.341 0 .683 0 .853-.23-.17-.23-.512 0-.512.23 0-.23 0-.23 0 0Zm-1.536.459c0 .23.171.23.171.46.341-.23 1.707 0 1.707-.69-.854 0-1.195 0-1.878.23Zm-66.727.69c.682-.46 1.536.229 1.706-.69-1.024.23-.512-.23-1.536-.23 0 .46-.512.92-.17.92Zm96.934.459c0 .46-.683.23-.512.689.683 0 .341-.229.512-.459.512.459 0 1.378 1.195 1.378.17-.689 1.023-.689 1.194-1.378-.683 0 .171-.23-.341-.23-.171 0-1.365.23-2.048 0Zm-20.82.689c.341 0 .341.23.512 0 0-.229.17-.229.17-.459h-.512c0 .459-.17.459-.17.459Zm22.356 5.285c0-.23-.171-.23-.171-.23 0-.23.512-.23.853-.459-.17-.23 0-.46-.341-.69-.341.23-.682.46-1.365.46 0-.689.512-.919.512-1.609-.683 0-1.536 0-1.707-.919.512-.229.512-.689.342-1.378-.342 0-.512-.23-.854-.23-.17.23-.341.46-.341.689.341 0 .512 0 .341.23-.341.23-.853.46-1.024.919.342 0 .683 0 .854.23v.919c-.342 0-.683 0-.512.459.512.23 1.024.46 1.365.69-.171 0-.171.23-.171.459.854 0 1.195.69 2.56.46 0-.23.171-.23 0-.23.171.23 0 .23-.341.23Zm-43.006-3.217c-.683 0-1.024.23-1.365 0-.171.46.341.46.341.919 1.195 0 2.389-.23 3.413-.689 0-.689-.853-.919-2.048-.919-.341.459-.17.459-.341.689Zm2.901.23h.512s0-.23.171-.23c0 .23.341.23.341 0-.171 0-.512 0-.683-.23 0 .23-.341.23-.341.46Zm1.877.459c.342.23.512.46 1.195.23 0-.459.512-.689-.171-.919-.17.919-.853.23-1.024.689Zm-9.386 2.528c-1.195-.919-3.072-.689-5.12-.46-.17 0-.341-.229-.853-.229-.512.459-1.195.919-2.389.919 0 .229 0 .229-.171.459 2.048 1.149 3.243-.23 4.949-.689 1.195.23 2.389 1.149 3.925.919 0-.23-.512-.23-.341-.919Zm-8.362 1.838c.17.23 1.024.23 1.194 0-.17 0-.17-.23-.341-.23-.341-.23-.853-.23-.853.23Zm-9.386.23c.17 0 .682 0 .853-.23-.512 0 0-.23-.341-.23 0 .23-.683 0-.512.46Zm15.188-.23c.171.23 1.024.689 1.365.459-.17-.689-.853-.459-1.365-.459Zm-10.239.919c.512 0 .682-.46.682-.919h-.341c0 .459-.341.459-.341.919Z" clip-rule="evenodd"/><path fill="#2C2321" fill-rule="evenodd" d="M164.237 98.987c.682 0-.342.46-.342.689.512.23.512.919-.17 1.378.511.46 0 .919 0 1.379-.512 0-.342-.23-.854 0 .854-1.379.512-2.527 1.366-3.447Zm3.925 1.148h.512c-.342.23-1.024.46-1.195.919-.341 0-.512-.459-.853-.459.341-.69 1.536.459 1.536-.46Zm38.91 12.638c-.341.229-.683.459-.853.689-.342-.46.682-.919.341-1.379.512-.229 1.365-.229 1.707-.229.17.459-1.024.689-1.195 1.378-.341 0 .171-.23 0-.459Zm-5.291 4.364c0-.229-.341 0-.512 0-.17-.229.171-.229.171-.459.341 0 .341.23.853.23.171.229-.682.229-.17.459-.512.46-.683 0-1.195.46 0-.46.512-.46.853-.69Zm18.261 1.149c0-.229.341.23.683 0 0 .46.512.69.17 1.149-.682.23-.341-.459-.853-.23-.171-.459.512-.689 0-.919Zm-157.689 4.596c.341.229-.341.459-.341.689-.341 0 .17-.23 0-.689.17.229.341 0 .341 0Zm177.144 12.178c0 .459-.683 1.378-1.195 1.838-.341-.46.854-1.379 1.195-1.838Zm13.141 26.192h-1.195c0-.69.171-.919.683-1.379 0 .689 1.024.46 1.024 1.379-.512 0-.171.459-.683.459-.171-.23.171 0 .171-.459Zm-206.156 7.352c-.17.23-1.024 0-1.195.459-.34 0 .513-.689 1.195-.459Zm-7.338 1.15c.341 0 1.194-.23 1.365.23-.512-.23-.683 0-1.195 0 0 0 0-.23-.17-.23Zm8.362 19.989c.341 0 .512.229.853.229 0 .23-.853 0-.853.23-.341 0 .17-.23 0-.459Zm50.003 38.829c.17.23 1.195 0 1.195.459-.342.46-1.024 0-1.195-.459Zm57.512 13.556c.171-.23.512.229 1.024 0-.171.229-.342.229-.853.229 0 0 0-.229-.171-.229Zm58.024-129.356c.853.459.341 1.149.341 1.838h-1.024c.512-.689.512-1.379.683-1.838Zm-2.219 5.285c0 .23.512.23.342.69-.342.229-.171 0-.512 0 .17.229.17.229.17.459-.512 0-1.024-.459-1.365-.23-.512-.229 0-.459-.341-.689.512-.23.853-.23 1.706-.23Z" clip-rule="evenodd"/><path fill="#fff" d="M178.296 243.188c-1.5-8.888-9.568-15.212-18.36-14.736a9.36 9.36 0 0 0-8.344-5.944 24.857 24.857 0 0 0-27.416-11.504c-.996.248-1.952.572-2.892.932.008-10.672 1.508-20.196 3.684-33.756l.892-5.572c.744-4.688 1.544-9.38 2.34-14.072 2.54-14.92 5.168-30.348 5.912-45.688.596-12.344-.68-28.272-1.916-43.68-.58-7.236-1.12-14.068-1.432-20.144.504-.884.832-1.8.832-2.78 0-1.472-.608-2.884-1.812-4.208.096-.6.148-1.176.148-1.74 0-6.768-5.728-12.272-12.772-12.272-1.528 0-3.04.268-4.472.792-2.736-7.62-11.324-12.504-19.916-10.436C89.508 7.612 79.096 0 67.2 0 52.516 0 40.568 11.436 40.568 25.492c0 .408.012.804.032 1.208-3.676 2.692-5.836 6.836-5.836 11.304 0 1.128.156 2.256.472 3.416-1.56 1.504-2.348 3.12-2.348 4.824 0 .548.104 1.084.26 1.608-3.032 32.64-5.872 79.896 3.168 118.656 5.596 23.98 6.24 35.82 4.764 59.556-1.4-.636-2.8-1.272-4.228-1.828a2.931 2.931 0 0 0-.852-.184c.028-.012.052-.036.084-.044-6.432-6.096-14.912-6.364-21.66-4.052l-1.1.376.492 1.056c.308.664.66 1.292 1.004 1.928-3.852.456-6.944 2.172-9.192 5.344-.6.844-.644 1.724-.144 2.604.164.284.36.524.54.788-.804.564-1.56 1.168-2.168 1.9-.644.776-2.432 4.168-2.796 5.128l-.28.736.872.64c.528.54 1.148.948 1.76 1.372-.968 1.236-1.808 2.568-2.112 3.524l-.28.884c-.9 2.804-1.44 4.492-.604 5.976.828 1.472 2.828 2.188 6.224 3 1.5.356 2.548.596 3.328.752 0 .244-.048.46-.036.712l.032.688.644.244c.924.352 3.132 1.028 3.36 1.072.868.176 1.732.26 2.588.26.712 0 1.128-.02 1.512-.08.028.116.04.22.072.34.336 1.212 1.084 1.836 2.348 1.952.476.044.94.068 1.4.068 3.192 0 5.992-1.192 8.44-3.356.232.624.448 1.244.724 1.868l.496 1.132 1.036-.676c3.492-2.284 6.076-4.86 7.932-7.664 1.668 2.568 3.828 4.744 6.18 6.436l.944.68.576-1.012c.364-.636.672-1.284.992-1.932 2.6 2.876 5.788 4.408 9.676 4.408 1.036 0 1.78-.468 2.204-1.388.14-.3.22-.596.332-.896.924.332 1.856.596 2.804.668 1.008.076 4.808-.428 5.8-.688l.764-.2.004-.16c3.696.568 7.508.972 11.46.972 6.1 0 11.964-.792 17.328-2.052 1.052 1.74 2.468 3.24 4.256 4.32a12.642 12.642 0 0 0 16.844-3.452 24.973 24.973 0 0 0 15.48 1.164c.956-.24 1.896-.532 2.82-.884.016.264.044.528.088.792a6.806 6.806 0 0 0 2.788 4.448 6.912 6.912 0 0 0 4.456 1.252 8.635 8.635 0 0 0 7.904 5.216 8.628 8.628 0 0 0 8.34-6.48c.408-.036.816-.084 1.228-.156a17.587 17.587 0 0 0 11.488-7.196 17.56 17.56 0 0 0 3.024-13.196ZM38.772 43.664l1.168-.9-.512-1.384c-.44-1.192-.656-2.292-.656-3.372 0-3.472 1.856-6.684 4.964-8.592l1.068-.652-.124-1.248a19.913 19.913 0 0 1-.108-2.02c0-11.852 10.152-21.492 22.632-21.492 10.772 0 20.108 7.276 22.192 17.304l.476 2.276 2.18-.808c7.852-2.904 16.02 1.928 17.372 9.24l.528 2.852 2.48-1.504a9.099 9.099 0 0 1 4.736-1.336c4.836 0 8.772 3.712 8.772 8.272 0 .584-.084 1.192-.264 1.912l-.3 1.184.916.804c.6.528 1.312 1.312 1.312 2.048 0 .196-.08.4-.152.604l-.764.032c.016.344.04.724.056 1.072-3.868 4.044-20.612 8.776-45.092 8.776-8.344 0-16.5-.584-23.576-1.696l-1.16-.18-.724.924c-4.384 5.604-5.812 13.416-3.64 19.908.276.828.608 1.644.936 2.46.672 1.656 1.312 3.22 1.384 4.772.144 3.164-2.564 6.328-5.68 6.644-3.116.28-6.388-2.132-7.132-5.344-.552-2.38-.024-5.124 1.716-8.896.3-.648.616-1.296.928-1.944 1.264-2.6 2.572-5.292 3.068-8.328.588-3.592.004-7.536-1.776-12.048l-.332-.84-.848-.308c-4.628-1.664-6.868-3.372-7.604-4.676.008-.064.012-.132.02-.196l-.128-.012c-.12-.26-.196-.508-.196-.728-.016-.728.652-1.648 1.864-2.58Zm89.068 20.744c-3.26 3.392-19.988 7.364-45.596 7.364-10.548 0-19.46-.7-26.676-1.732-.152-3.76.912-7.664 3.088-10.864 6.988 1.02 14.904 1.56 22.984 1.56 18.42 0 36.984-2.748 45.352-8.044.232 3.7.524 7.632.848 11.716ZM36.732 52.32c1.508 1.072 3.456 2.068 5.844 2.984 1.264 3.468 1.668 6.452 1.236 9.104-.164 1.016-.476 2.004-.84 2.988-4.456-1.368-6.944-2.856-6.944-4.164h-.184c.28-3.76.58-7.416.888-10.912ZM7.34 229.868c2.084-2.94 4.948-4.412 8.66-4.532 1.488 2.368 3.196 4.524 5.16 6.396l-.16.32c-.396.776-.776 1.524-1.076 2.308-.02.052-.04.124-.06.176-1.952-.02-3.904-.2-5.896-.668-.72-.164-1.536.156-2.132.544-1.784-.872-3.396-2.204-4.536-4.192l.04-.352Zm-4.024 9.288c.604-1.268 1.8-3.44 2.156-3.872.52-.628 1.164-1.14 1.852-1.612.856.9 1.8 1.636 2.816 2.224-1.648 1.504-2.972 3.2-3.928 5.1-1.068-.468-2.064-1.024-2.896-1.84Zm6.764 14.688a114.33 114.33 0 0 1-2.952-.672c-2.26-.536-4.416-1.152-4.888-1.988-.384-.684.076-2.128.776-4.308l.284-.892c.26-.828 1.072-2.044 1.936-3.12.04.02.08.032.12.052-.484 1.344-.856 2.748-1.028 4.256-.088.764.28 1.916 1.02 2.448a17.763 17.763 0 0 0 5.092 2.56c-.136.544-.284 1.084-.36 1.664Zm7.608 2.988c-1.052.148-2 .056-3.272-.196a64.642 64.642 0 0 1-2.408-.756c0-1.144.184-2.188.456-3.196.904.156 1.82.248 2.752.248.896 0 1.808-.096 2.724-.24a11.968 11.968 0 0 0-.252 4.14Zm1.716-6.572c-4.624 1.24-8.94.452-12.808-2.32-.092-.092-.2-.408-.188-.532.524-4.612 2.712-8.384 6.496-11.2.26-.192.552-.292.588-.304 1.924.452 3.82.656 5.704.716-.124.456-.256.912-.336 1.388l-.22 1.268c-.528 2.9-.344 3.304 2.16 4.84l1.096.68c.3.192.64.312.952.48-1.2 1.496-2.292 3.072-3.196 4.812a.675.675 0 0 1-.248.172Zm1.276 8.804c-.392-.036-.424-.06-.524-.424-.668-2.424-.628-4.36.08-6.508.528-.224 1.02-.6 1.264-1.064.916-1.756 2.024-3.336 3.256-4.824a18.03 18.03 0 0 0 3.384.992c.112 2.916.616 5.728 1.46 8.504-2.516 2.516-5.428 3.66-8.92 3.324Zm11.8-1.34a31.622 31.622 0 0 1-2.272-11.396l-.012-.9-.888-.124c-2.3-.324-4.416-1.092-6.292-2.28l-1.12-.696c-1.512-.924-1.512-.924-1.192-2.68l.228-1.3c.192-1.168.612-2.348.952-3.244.276-.716.624-1.396.984-2.108l.864-1.748-.584-.528c-2.788-2.52-5.108-5.592-6.912-9.14 5.592-1.6 12.236-1.148 17.564 3.304-.116.108-.248.196-.352.328-.832 1.032-.852 2.38-.116 3.328.508.64 1.352 1.192 2.252 1.472 1.5.472 2.832 1.116 4.044 1.96-3.416 7.116-2.824 13.448-.276 18.52-1.524 2.628-3.768 5.044-6.872 7.232Zm14.488-1.184c-6.224-4.984-10.588-13.772-5.08-24.4l.396-.768-.68-.536c-1.6-1.26-3.364-2.18-5.396-2.82-.504-.156-.988-.46-1.24-.776-.204-.244-.024-.556.1-.708.452-.56.88-.392 1.02-.336 1.52.592 3.012 1.268 4.5 1.944l.988.448c.12.056.276.172.456.312l1.204.852.608-.808c5.896-7.84 13.5-9.988 23.208-6.552a31.662 31.662 0 0 1-7.98 8.444l-.728.528.412.796c1.068 2.064 1.664 4.232 1.78 6.448l.08 1.32c.12 1.768.12 1.768-1.496 2.524l-1.192.568c-1.064.52-2.268.86-3.2 1.1-.74.188-1.5.3-2.288.416l-1.928.304-.092.78c-.44 3.728-1.6 7.396-3.452 10.92Zm-4.36-29.776c.16-.056.324-.144.484-.208-.092.112-.196.196-.288.312-.06-.036-.128-.068-.196-.104Zm26.972 8.844c-.488-.3-1.08-.484-1.6-.416-1.96.268-3.892.28-5.82.136a17.95 17.95 0 0 0-1.148-3.332c2.316-1.78 4.316-3.816 6.092-6.108 3.648.62 6.328 2.444 8.072 5.716-1.672 2.14-3.328 3.304-5.596 4.004Zm7.036 2.144c.064.172.488 1.436.776 2.404-.932.664-1.892 1.116-2.872 1.476a16.057 16.057 0 0 0-1.388-2.388c-.516-.732-1.124-1.42-1.772-2.084a11.892 11.892 0 0 0 3.524-2.188c.728.768 1.2 1.6 1.732 2.78Zm-17.436 21.08-.304.176c-3.604 0-6.46-1.484-8.708-4.444 1.072-2.584 1.844-5.224 2.232-7.908l.352-.056c.864-.124 1.692-.248 2.504-.456.052-.012.124-.036.18-.052 1.112 1.604 2.096 3.3 2.868 5.196.28.684 1.016 1.164 1.676 1.424.32 1.96.164 4.04-.8 6.12Zm9.608-2.184c-.108.12-.24.216-.364.324-1.416.224-3.54.464-4.052.428-.812-.06-1.604-.292-2.388-.576.24-1.216.296-2.416.184-3.584 2.184.476 4.328.572 6.432.256.22 1.044.316 2.096.188 3.152Zm-7.96-5.848a2.23 2.23 0 0 1-.588-.304c-.744-1.832-1.676-3.492-2.716-5.068.444-.16.892-.316 1.328-.528l4.06-1.928-.28-4.472c-.02-.356-.116-.7-.156-1.056 1.96.116 3.92.092 5.908-.196 3.856 3.132 5.76 7.244 5.66 12.188-4.16 2.404-8.612 2.86-13.216 1.364Zm9.864 2.404c-.008-.044-.02-.084-.028-.128 1.376-.384 2.736-.888 4.068-1.624.672-.372 1.4-1.336 1.408-2.248a17.793 17.793 0 0 0-.856-5.636c.524-.2 1.052-.392 1.564-.664.296.68.676 1.596 1.16 2.796.868 2.156 1.616 4.268 1.204 5.136-.336.712-1.78 1.168-3.96 1.86l-.892.284c-.832.264-2.292.308-3.668.224Zm27.336.492a72.328 72.328 0 0 1-15.784 1.752c-2.592 0-5.064-.172-7.468-.424.068-.02.156-.032.22-.052l.884-.28c2.804-.888 4.496-1.424 5.224-2.964.72-1.528.152-3.572-1.152-6.812a98.71 98.71 0 0 0-1.312-3.148c.2-.144.404-.228.604-.38l.544-.424-.172-.668c-.248-.96-.972-3.148-1.068-3.36a13.192 13.192 0 0 0-1.284-2.264c-.412-.58-.668-.908-.94-1.184.076-.092.16-.16.236-.252.796-.976.872-1.944.236-3.044a14.505 14.505 0 0 0-.756-1.18c-1.844-2.604-4.44-4.2-7.62-4.944.372-.552.756-1.088 1.104-1.668l.636-1.06-1.152-.452c-9.54-3.756-17.536-2.58-23.84 3.44 1.316-22.584.524-35.124-4.98-58.708-7.352-31.52-6.716-68.916-4.58-99.216 1.44 1.168 3.688 2.196 6.5 3.1-.324.708-.66 1.416-1.012 2.14-.328.676-.652 1.348-.964 2.024-1.328 2.872-2.972 7.188-1.98 11.472 1.128 4.84 5.716 8.46 10.496 8.46.312 0 .624-.016.936-.048 5.272-.528 9.52-5.476 9.276-10.804-.104-2.244-.904-4.204-1.672-6.096-.3-.736-.6-1.472-.848-2.224a15.297 15.297 0 0 1-.52-2.044c7.944 1.08 17.164 1.66 26.428 1.66 19.344 0 38.852-2.396 45.804-7.012.064.824.128 1.628.196 2.46 1.224 15.28 2.492 31.084 1.908 43.172-.728 15.1-3.336 30.412-5.856 45.212-.8 4.708-1.604 9.416-2.348 14.116l-.892 5.564c-2.28 14.212-3.88 24.376-3.704 36.3-8.476 5.132-13.364 15.06-11.804 25.164-5.688 2.34-8.972 8.536-7.524 14.676Zm65.088 5.952c-.776.128-1.544.176-2.304.176h-1.944l-.056 1.94a4.601 4.601 0 0 1-3.832 4.4c-2.516.424-4.884-1.272-5.308-3.844l-.416-2.488-2.328.968a2.9 2.9 0 0 1-.628.192 2.85 2.85 0 0 1-3.296-2.344c-.152-.888.132-1.776.768-2.444l.468-.624.708-4.948-3.668 2.292a20.864 20.864 0 0 1-6.088 2.592 20.937 20.937 0 0 1-14.396-1.62l-1.764-.884-.908 1.752c-1.184 2.292-3.18 3.888-5.62 4.492a8.657 8.657 0 0 1-6.604-1 8.635 8.635 0 0 1-3.964-5.38c-1.14-4.592 1.612-9.256 6.152-10.512h2.276l-.568-2.448c-2.564-11.076 4.324-22.3 15.344-25.032 9.368-2.336 19.04 2.04 23.528 10.584l.632 1.204 1.352-.144c2.84-.264 5.372 1.628 5.836 4.4l.332 1.952 1.948-.296c7.352-1.112 14.348 3.928 15.584 11.264 1.256 7.46-3.784 14.544-11.236 15.8Z"/><path fill="#fff" d="M108.836 95.027c2.2 0 3.992-1.792 3.992-3.992s-1.788-3.992-3.992-3.992a3.995 3.995 0 0 0-3.992 3.992c0 2.2 1.788 3.992 3.992 3.992Zm0-6.052a2.064 2.064 0 1 1 0 4.128 2.064 2.064 0 0 1 0-4.128Zm-8.108 19.531c3.332 0 6.044-2.716 6.044-6.048a6.052 6.052 0 0 0-6.044-6.044 6.048 6.048 0 0 0-6.04 6.044c0 3.332 2.708 6.048 6.04 6.048Zm0-10.16a4.12 4.12 0 0 1 4.116 4.112 4.123 4.123 0 0 1-4.116 4.116 4.123 4.123 0 0 1-4.116-4.116 4.117 4.117 0 0 1 4.116-4.112Zm7.144 17.23a3.92 3.92 0 0 0 3.916 3.916 3.92 3.92 0 0 0 3.916-3.916 3.92 3.92 0 0 0-3.916-3.916 3.92 3.92 0 0 0-3.916 3.916Zm5.908 0a1.994 1.994 0 0 1-1.992 1.988 1.994 1.994 0 0 1-1.992-1.988 1.991 1.991 0 0 1 3.984 0Zm-31.664 5.147c-14.264 0-25.868 17.312-25.868 38.592 0 21.28 11.604 38.592 25.868 38.592s25.868-17.312 25.868-38.592c0-21.28-11.608-38.592-25.868-38.592Zm0 73.22c-12.076 0-21.9-15.532-21.9-34.624 0-19.092 9.824-34.624 21.9-34.624 12.076 0 21.9 15.532 21.9 34.624 0 19.092-9.828 34.624-21.9 34.624Z"/><path fill="#fff" d="M82.116 127.09c-10.288 0-18.656 14.456-18.656 32.228 0 17.772 8.368 32.228 18.656 32.228 10.288 0 18.656-14.456 18.656-32.228 0-17.772-8.372-32.228-18.656-32.228Zm0 62.524c-9.224 0-16.732-13.588-16.732-30.296s7.504-30.296 16.732-30.296c9.224 0 16.728 13.588 16.728 30.296s-7.504 30.296-16.728 30.296Z"/></svg>