<svg xmlns="http://www.w3.org/2000/svg" width="238" height="325" fill="none" viewBox="0 0 238 325"><path fill="#2C2321" fill-rule="evenodd" d="M142.772 109c.512 0 .171.46.512.46 0 .229-.341.229-.682.229 0-.229.341-.229.17-.689Zm-39.763 2.757c0 .23-.171.23-.171.69-.682 0-.682.459-.682 1.148-.342 0-.512-.229-.683-.459.171-.23.683-.46.341-.919.512 0 .512-.46 1.195-.46Zm6.144 0c.341 0 .512.23.512.46-.342.23-.512 0-.512-.46Zm-17.066 1.15c-.512 0-.341-.23-.853 0 0-.46 1.023-.23.853 0Zm9.727.917c.342 0 .342.23.512.23 0 .23-.853 1.149-1.024.459-.341 0-.17.46-.512.23-.341-.23 0-.459.171-.689.171 0 .341.23.341.23.342 0 .342-.23.512-.46Zm74.408 7.813c-.342-.459-.342-.919-.854-1.378.512 0 .171-.23 0-.23.683-.459.171-1.378 1.195-1.608.171.459 1.024 1.608.171 2.068.17 0 .341.229.341.689-.683 0-.853 0-.853.459Zm-.342-1.148c.512 0 .512-.23.512-.46-.17 0-.17-.23-.341 0-.341.23 0 .23-.171.46Zm-87.889-.23h.341c0 .459-.17.459-.512.459-.17-.23.342 0 .171-.459Zm85.841 1.148c.342.23-.512.69 0 1.149-.682 0-.17.689-.853.689a5.495 5.495 0 0 1 .853-1.838Zm6.997.92c.342.23.512-.23.683 0 0 .459-.171 0-.341 0 .341.919 0 2.527-1.366 2.297 0-.459.683-.229.854-.459v-.46c-.512 0-.854.23-1.195 0 0-.459.683-.229.341-.689.512.23.683-.459 1.024-.689Zm10.923 2.756c1.365 0 .853 1.608 1.877 1.608.17.689-.683.689-.341 1.379.511 0 .682-.23 1.023 0-.17.229 0 .689-.341.689-.683-.23-.683.23-1.195.23 0 .459.342 1.378 0 2.068-.17 0-.682-.23-.682 0-.341-.23-.341-.46-.341-.919h.341c-.512-.92-.853-3.677-.341-5.055Zm-10.069.689c.341.23.17 1.149-.342 1.378.683.46 2.56-.229 2.902.919-.342 0-1.195-.229-1.536-.689-.342 0-.512.23-.683.46-.512.229-.512-.46-1.195-.23.171-.919.683-1.149.854-1.838Zm-1.536.23c0 .23-.683 0-.512.23 0 .23.512 0 .512.23-.342.459 0 .919 0 1.378-1.195.23-.512.919-1.536 1.379.341-.919.341-1.608.853-2.527-.341-.46 0-1.149.683-.69Zm-95.569.689c.341 0 .512.23.682.46-.17.23-.34.689-.34 1.149-1.366-.23-.513-1.149-.342-1.609Zm1.877.23c.512 0 .341.459.512.689-.341.23-.683.459-.683.919-.34 0 .171-.689-.34-.919.511-.23.34-.46.511-.689Zm94.716.919c.17.23-.171.46.512.46-.342.459-.512 1.149-.171 1.378-.171.23-1.024.23-1.195 0 0-.459.342-1.378.854-1.838Zm8.874.461c-.171.229-.853.229-.683-.23.171 0 .683 0 .683.23Zm-106.15.459c.512 0 1.024.23 1.195.689-.341.23-.512.46-1.024.46 0 .229.341.229.341.229 0 .23-.17.46-.512.46-.512-.689.342-.919 0-1.838Zm104.614.229c.341.23 1.024 0 1.024.46-.341-.23-.341.229-1.024 0v-.46Zm-102.566.231h.341v.459h-.341c-.341 0 0-.459 0-.459Zm101.713.459c0 .23-.512.229-.342.689-.17-.23-.853 0-1.024 0-.17 0-.17-.23-.17-.459.853.459 1.024-.69 1.536-.23Zm-10.41-.001h.512c.17.459-.854.459-.512 0Zm11.604 0h.512c0 .23-.17.23-.17.459-.171 0-.342 0-.342-.459Zm-.341.46c.512 0 .341.229.853.229-.171.23-1.024.23-.853-.229Zm2.56.46c0 .229.341.229.17.459-.511 0-.341-.459-.853-.23 0-.229.341-.229.683-.229Zm-2.389.459c.17 0 .512 0 .341.46h-.341v-.46Zm-8.704.46c.512.23.683.23 1.195.23-.171.23-.683.23-.854.689-.341 0-.17-.459-.512-.229.342-.23 0-.46.171-.69Zm13.994 0c.512 0 .512.46.853.46 0 .23-.682.23-1.024.23-.341-.23-.17-.69.171-.69Zm-12.117.229c.512.23.683 0 1.195 0-.171.46-.853.23-1.195.69-.17 0 .171-.46 0-.69Zm4.608.46c0 .23 0 .23.171.23-.171.459-.853.23-1.024 0 .341 0 .512-.23.853-.23Zm-5.973.69c0 .229-.853.229-.682 0 .341-.46.511-.23.682 0Zm17.066 2.297c-.683-.23-.853 0-1.536 0 .171-.46.171-1.379-.171-2.068.683-.23 1.536-.46 2.219 0-.341.689.341 1.378-.512 2.068Zm-14.165-2.298c0-.23.342 0 .512 0v.46c-.341-.23-.341-.46-.512-.46Zm5.973 1.378c.512 0 .683.459 1.195.459-.171.46-.853.46-1.024.92-.853 0-.341-.919-.512-1.379h.341Zm3.755.69c0 .459-.683.459-.683.919-.341-.23-.512 0-1.195 0-.17-.46.171-.46.171-.919.341-.46 1.024-.23 1.707 0Zm3.584.459-.171.23h-.512c0-.23.341-.23.683-.23Zm-7.168.46c.683.459 1.707.229 2.73.229-.853.46-2.218 1.379-3.413.69.171-.46.683-.69.683-.919ZM40.206 137.49c.512 0 .171.46.512.46-.512.229-.512.919-.853 1.148-1.365-.459.853-.919.341-1.608Zm-1.023 1.609c.34 0 .341.229.512.229.17.69-.171.92-.171 1.609-1.024-.23-1.024-.689-1.707-.689-.17-.23.342-.46 0-.46.342-.23 1.195-.23 1.366-.689Zm-5.12 7.351c.17-.229.853 0 .682.23h-.512s0-.23-.17-.23Zm2.73 2.758c-.34-.23-.34 0-.853 0 .341 0 .512-.23.853-.23v.23Zm-8.021.23c.342 0 .512.459.512.689-.17 0-.682-.459-.512-.689Zm2.39.688c0 .23-.512.23-.854.23-.17 0-.17-.23-.17-.459.341-.23.682 0 1.024.229Zm183.287.231c.341 0 .341.23.683 0-.512.23-.342.23-.342.69-1.365.689-1.024 2.297-2.559 2.757 0-.919.853-1.838 1.877-2.298-.171-.919.512-.689.341-1.149Zm18.943.918h.342c-.342.69-.171 1.609-1.366 1.609.512-.46.683-1.149 1.024-1.609Zm-19.284 2.529c-.342.229 0 .459-.854.459.171 0 .171-.23.171-.459.341 0 .341-.23.683 0Zm-3.414 1.837c-.341-.459.001-.919.342-1.148.512 0 .341.229 1.024.229-.171.46-.512.69-.683.919-.341 0-.341-.229-.683 0Zm16.555-.919h.341c0 .23-.171.459-.683.459.171 0 .512 0 .342-.459Zm-14.506.46c0 .229-.342.459.17.459-.17.23-.512.23-.853.23 0-.46.171-.689.683-.689Zm18.772 0c0 .229 0 .459-.341.459-.171-.23-.171-.459.341-.459Zm-15.018.919c.512 0 0 .46.512.46-.171.229-.171.689-.341.919-.342 0-.512-.23-.683-.23 0-.459.341-.689.171-1.149.17.23.341.23.341 0Zm-.512 1.378c.171.46 0 1.149-1.024.919v-.689c.853.23.512-.23 1.024-.23Zm-2.218.92c.682.23-.513.459 0 .459 0 .23-.342 0-.513 0 0-.229.342-.229.513-.459Zm18.772 1.149c.512 0 .341.689.171.919-.683-.23 0-.69-.171-.919Zm-33.108 0c.171.459-.853.459-.853 0h.853Zm6.314.229c.171 0 .683-.23.683 0 .171.459-1.024.459-.683 0Zm29.354 0c.512 0 0 .459 0 .689-.512-.23 0-.46 0-.689Zm-206.668.689-.17.23c-.512 0-.854.23-1.195 0 .341-.23.853-.459 1.365-.23Zm203.084.919c.853.23 0 1.379-.341 1.609-.342 0-.171-.23-.342-.23 0-.46.854-.46.683-1.379Zm6.144 0c.512 0 .17.46.341.919-.512 0-.512.23-.341.46-.342-.23-.683-.23-.512-.46.17 0 .341-.229.682 0-.17-.459-.341-.459-.17-.919Zm-1.195 1.838c.341 0 .171.23.341.23-.341.23-.682.23-.341.689-.853.23-.341-.689 0-.919Zm-4.608 1.149h.342c-.171.23-.512.459-.854.229 0 0 .342.001.512-.229Zm4.267.46c-.171.46.17.23.17.689-.341 0-.17.23-.512.23.342.23.171.46 0 .689-.682.23-.341-.459-.853-.229.341-.69.171-1.609 1.195-1.379Zm-3.755 3.216c-.341.23-.341 0-.512 0 0-.459.512-.459.512 0Zm1.024 1.609c.171 0 .342.23.512 0 0 .46-.17.919-.853 1.149.171-.459.341-.689.341-1.149Zm-3.072.918c.171 0 .854.69.512.919-.682 0-.682-.459-.512-.919Zm.683 2.988c.171-.23 1.024-.23.853.229-.512.23-.341-.229-.853-.229Zm-3.925.23c.341 0 .682 0 .512.229-.341.23-.512 0-.512-.229Zm2.901 1.608c.683 0 .171.23.341.689-.341 0-.17-.459-.341-.689Zm-2.731.918c0 .23-.341.23-.341.46-.171 0-.341-.23-.341-.46h.682Zm-204.619 4.137h.341c0 .23-.341.23-.683.23.171 0 .342 0 .342-.23Zm-10.581 4.365c0 .23 0 .23 0 0-.17.23-.341.23-.341.23-.512 0 .17-.459.34-.23Zm1.877.459c0-.229.683 0 .853 0-.17.46-.682.23-.853 0Zm213.153 5.055c-.342.23-.342.23-.171.46-.341 0-.512 0-.341-.23h-.342c-.512 0 .512-.23.854-.23Zm-1.195 1.379c-.682.23-1.194-.229-1.706 0-.171-.919 1.536-.459 1.706 0Zm-215.2-.001c0 .46-.171.689-.683.689 0-.459.17-.689.683-.689Zm218.784 2.988c-.512.229-2.218 0-3.072.229.683-.229 2.731-1.148 3.072-.229Zm-216.566 1.378c-.341.23-.512 0-1.024 0 0-.459 1.195-.689 1.024 0Zm206.839-.229h.341c0 .23-.171.23-.171.46-.17-.23-.341-.23-.17-.46Zm-205.132 4.136c.17.459-.17.459-.341.689-.683-.23-1.537 0-1.707-.689.682-.23 1.536-.23 2.048 0Zm5.29-.001a1.12 1.12 0 0 1-1.194 0c.34 0 .853-.23 1.194 0Zm-4.778 1.838c-.17.23-.854.459-.854 0 .342-.23.342 0 .854 0Zm201.548.231c-.342.689-.171.919-.342 1.838-.512 0-.682.23-1.024.459-.512-.229-1.194-.229-1.194-.919.341-.229.682 0 1.194 0 .512-.229.683-.919.342-1.378.512.229.853 0 1.024 0Zm-195.234.688c-.17.23-1.024.23-1.195 0 0-.459 1.366-.459 1.195 0Zm1.024.46c0 .229-.683.229-1.536.229-.17-.459 1.195-.459 1.536-.229Zm191.138 1.838c.171.46-.683.46-.512 0h.512Zm-1.365 1.609c0 .459-.171.459-.683.459-.171 0-.171-.229-.171-.459h.854Zm-1.536 1.378c0 .459 1.024.459 1.536.919-.342.459-.854.689-1.878.689-.341-.46-.341-1.379.342-1.608Zm-.683 2.069c0 .459-.683.459-.512.919-.683 0-1.195 0-1.365-.23 0-.46.512-.23.853-.46.171-.229-.171-.229-.171-.689.512-.23.683.23 1.195.46Zm-1.365 1.377h.341c0 .23 0 .46-.341.46-.171-.23 0-.23 0-.46Zm-2.048 1.838c0 .23.171.23.171.459-.512 0-.342.46-.854.23 0-.23-.341-.23-.341-.459.341 0 .341-.23 1.024-.23Zm-3.413.919c.341 0 .682 0 .682.46-.17 0-.512 0-.682-.46Zm-166.393 1.838c.342 0 .342.23.683 0 0 .23-.17.689-.512.46.512-.23-.17-.23-.17-.46Zm165.198 4.595c.341-.459.683.46 0 .46-.512 0 .341-.23 0-.46Zm-4.608 6.204h.342c.17.23 0 .23-.342 0 .171.459.512.689.342.919-.512 0-.171-.23-.683-.459l.171-.23c.17 0 .17.229.17-.23Zm-110.245 9.65c0 .23-.17.689.17.689-.682.919-1.365-.689-.17-.689Zm106.661.689c.342.23.171.919-.341.919.171-.46.341-.689.341-.919Zm-1.024 2.299c-.341.459-1.023.919-1.877.459.171-.229.683-.459 1.024-.459-.17 0-.17-.23-.341-.23.341-.23.853 0 1.194.23ZM61.71 241.572c.17 0 .34.23.511.23-.17.229-.853.459-1.194.229 0-.229.682-.229.682-.459Zm13.14 1.608c-.17.23-.682.46-1.365.46 0-.46.683-.46 1.365-.46Zm-2.56 0c.171 0 .342.23.342.23-.342 0-.171.46-.683.23 0 0 .512 0 .341-.46Zm75.431 4.825c.342.229.512 0 1.195 0 0 .459-.512.459-.683.689-.17-.23-.512-.46-.512-.689Zm-5.29.69c-.17 0-.341 0-.341-.23-.341 0-1.365.23-1.195-.23.342 0 1.366 0 1.536.46Zm7.509-.231c.853.23.853 1.149 1.707 1.379-.171.23-1.024.23-1.366.23 0-.46.001-.919-.511-1.149-.342-.23.17 0 .17-.46Zm-4.437.689c.512 0 .683.23.853.23.171.46-.853.23-1.024.46-.512-.23.171-.46.171-.69Zm1.536 1.38h.341v.23c-.341 0-.341.229-.682 0-.342-.23.341 0 .341-.23Zm12.117 1.149c.512 0 .512 1.149-.171 1.149-.341-.46 0-.92.171-1.149Zm5.12 1.837c.511 0 .511.23.511.69-.512 0-.853-.46-.511-.69Zm-72.701.231c.512 0 .682.23 1.194.23.171.689-.512.919-.34 1.378.682 0 .682-.459.852-.919.854-.229.854.46 1.024.919-.682.69-2.048.46-2.56 1.379-1.023-.46-1.877.459-2.9 0 0-.23 0-.23-.171-.23.34-.459 1.877-.23 2.73-.23.17 0 .17-.229.342-.229-.171-.46-1.195 0-1.366-.46 0-.459.683-.459 1.366-.459.17-.69-.342-.919-.171-1.379Zm45.907.229c.512.23.683.46 1.365.46-.341.459-.853.459-1.536.459-.17.23.342.46 0 .46-.341-.69-1.877.459-2.048-.46.854.23 1.366-.23 2.219 0-.171-.459 0-.459 0-.919Zm-35.838 2.987c-.171.46-2.048.46-2.219 0 .854-.23 1.536-.23 2.219 0Zm3.754.919c-.341.46-1.706.69-1.194 1.379-.342 0-.854-.23-1.195.23-.341 0-.512-.46-.683-.69-.341.46-1.194.46-1.877.46 0-.23-.341-.46-.512-.46 0 .23-.683 0-.683.23.171-2.068 4.267-.459 6.144-1.149Zm11.946.918c.171.23.683.46.854.69h-.854v-.69Z" clip-rule="evenodd"/><path fill="#2C2321" fill-rule="evenodd" d="M84.578 121.867c-.17 0 .341-.23.682 0 .171 0 .171-.23.342-.46 0-.229-.512 0-.683 0 1.195-.689 1.024-2.067 2.048-2.987.512 0-.17.46.512.23-1.024 1.609-.512 4.595-2.901 5.285.17.229.682.23 1.194.23 0 .689-.512.919-.512 1.608-.17 0-.17-.23-.34-.23-.683 1.149-1.707 2.298-3.073 2.757.342.689-.682.689-.17 1.379.341 0 .341-.23.682-.23.342.689 0 1.149-.682 1.379.682 0 1.024.459 1.365.919.853 0 2.73-.69 2.56.229.17-.229.512-.229.341 0 .341-.229.512-.689 1.195-.689-.171 0-.342 0-.342-.23.171 0 .342-.229.683 0-.17-.229-.17-.459.341-.689 0-.23-.512-.459-.512-.689.342 0 .342-.23.854 0-.171-.23.17-.23.17-.46-1.194-.689 1.536-2.297-1.194-2.527 0-.46.341-.46.682-.689-.17-1.379.171-3.447 1.366-4.136.17.23.17.23.17.459.683 0 .342-1.148 1.195-.689.341-.459.512-1.149-.17-1.378.511-.69.511-1.839 1.194-2.298.512.459.341.919.341 1.379.683-.23 0-.69.512-1.149.341 0 .341.229.341.229 1.195-.459.854-2.067 1.536-2.986.342-.23 1.024-.23.854-.69.17.23.341.46.341.919.17 0 .17.23.341.23.512 0 .512-.459 1.024-.459 0 0-.17 0-.17.229h.34c.513-.229.172-.919.854-1.378 0-.23-.341-.23-.341-.46.17-.689.683-1.378.341-1.838.512 0 .342.46.512.46.683 0 .853-.23 1.195-.23.17.459-.853.23-1.195.459.683.69 0 2.068.683 2.528.17-.23.17-.689.512-.919 1.194 0 1.365 1.149 1.536 2.068 0-.23 0-.46.17-.919.683 0 .683.459 1.195 0 .341.459.171 1.148.683 1.378.682-.23 0-.459.17-1.149.342-.229 1.024 0 1.366-.229-.171-.69.341-.919.341-1.609.512.23.171.919.682 1.149.512-.459.342-.919.342-1.608.341-.46 1.706-.46 1.877.229.512 0 .171-.689.341-.919h.342c.341 0 .341.46.341.69.512 0 .512-.23.512-.69.683.23.171.69.853.69.342-.23-.17-.46-.341-.46.341-.23.853-.689 1.024-1.149.512 0 .683.46.853.919.342-.459.683 0 1.195.23.341-.23.682-.23.853-.459.512 0 0 0 .171.229.682 0 1.365 0 1.194-.689.683-.23 1.366.46 1.024 1.149.342.23.512.689 1.195.689.341 0 .341-.459.341-.689 1.024.459 1.536 1.378 2.56 2.068.683-.23.683-.919 1.877-.919 0-.46.342-.69.854-.69.341.69 0 1.609 1.536 1.149 0 .919-.683 1.149-.683 1.838l.171.23c.341 0 .341-.23.682 0-1.194 1.149.683 2.298 1.195 3.217.683 0 .512-.689 1.194-.689-.341-.46 0-.69.171-.92h1.195c-.342 1.379-2.219 3.217-.512 4.596 0 1.149-.512 1.838-1.365 2.527.17 0 .17.23.341.23-.512.919 1.194.689.853 1.838.512-.23.341-.46 1.024 0 .512-.23.171-.23 0-.689.341-.23.512-.69 1.024-.919-.341-.46-.683-.69-.683-1.379.854 0 .854.46 1.536.46.512-.69 1.536-1.379 1.024-2.528 0-.23.512 0 .512-.23.171-.229-.512-.229-.341-.459 1.024-.919.341-2.987 1.877-3.906 0-.23-.341 0-.341 0 .171-.46.853.23 1.536 0-.683 1.379-.342 2.298-1.195 3.446-.17 0-.341-.229-.512 0 .342 1.379-.853 2.298.342 3.677-.171 0-.512 0-.683.229-.171 1.149.341 2.757-1.024 3.217.171 0 .341 0 .341.23 1.024-.69 1.366-2.068 2.219-2.987 0-.23-.171-.23-.342-.23.512-.919.342-2.068 1.707-2.527-.171-.23-.171-.69-.341-.919.341-.69.512-1.149.853-1.838.171 0 .171.229.341.229 1.195-.689 1.024-1.838 1.878-2.987.512.46.512.919.341 1.379 0 .23.512 0 .683 0 .682-.46 1.194-1.379.853-2.527.341 0 .512-.46 1.024-.23-1.024-.23.512-.46.682 0 .171-.23.683-.23 1.024-.46.171.46.683 1.149 1.878.69-.171-.69.512-.69 1.024-.919 0-.23-.171 0-.342 0 0-.23.512 0 .683 0-.171.459.171.689.341 1.148-.341 0-.853 0-1.024.46.512.689-.341 1.378.171 2.068.683 0 1.024-.23 1.536-.23 0-.23 0-.46-.341-.689.17-.23.341-.46.512-.46-.171-.919 0-2.527 1.365-2.987.17.23.341.46 0 .69.17.459 1.024.689 1.536.229 0-.459-.342-.459-.342-.919.342-.229 1.195-.23 1.195-.689.512 0 .512.23.341.46.171-.23 1.024 0 .512.229.512.23.171-.459.342-.229.341.459.853.229 1.194.459.342-.23.854-.459 1.195-.689 1.194.459 1.877 1.149 2.73 1.608.512 0 .512-.23 1.024-.23.171-.459-.341-.459-.341-.919-.171-.229.512-.229.341-.459.171 0 .683 0 .854-.23.341.459 1.024.689.512.919 1.024 0 .682 1.149 1.706 1.379.512 0 .342-.23.512-.23 1.365.459 1.707 1.838 2.731 2.527.682 0 .341-.689.853-.689.853.23 1.365.23 2.048.689-.171.23-.171.46-.512.23.171 1.379.683 2.298 1.877 2.987-.853.919.683 1.378.341 2.298.171.229.342.229.683.229 0 .23.171.69-.171.69 0 .229.683 0 .854.229-.342.919.341 1.609-.342 2.298.171.23.342.459.683.459 0 .23-.171.46-.512.23.683.23-.171 1.379.683 1.609.341 0 .17-.23.341-.23 1.195.23.171 2.297 2.219 2.068.17.229 0 .229 0 .229h1.194c-.341-.229-.682-.229-.512-.919 0-.229-.512 0-.853 0 0-.229.171-.459-.341-.459 0-.46.341-.46.682-.689-.17-.23-.341-.23-.341-.69.341 0 .512-.23.853 0 .171.23-.17.46 0 .919.342 0 .512-.23.512-.689-.17-.46-.512-.46-.853-.919-.512.23-.683.459-.683.689-.512-.23-.512 0-1.194 0 0-.23.682 0 .682-.459-.17-.23-.853 0-1.194 0 .17-.46 1.024-.23 1.536-.46 0 0-.171 0-.171-.23h-1.365c0-.459.17-.689.341-.919h.512c.512.23-.171.69.341.919.342 0 .342-.229.342-.229 0-.46-.512-.46-.342-.69 1.195.23 1.366-.689.512-.919.342-.229.512-.459.854-.689 0-.23-.342-.23-.342-.459.342-.23.683-.46 1.024-.23-1.024.459 1.195 1.838 2.219.919-.683 0-.342-.23-.512-.689.682-.23 1.194-.46 1.365-1.149-.853-.23-1.536-.23-1.877-.69 0 .46-1.365.919-1.877.46-.171.23-.512.23-.512.46-.683-.46 1.194-.69 1.877-1.149 0-.46-.341-1.609 0-1.838.341 0 .171.459.341.689.854-.23.853.23 1.536 0 0 .459-.171.459.171.689.17 0 .341-.23.682 0 0 0-.17-.23-.341-.23.512-.229.683.919.853 1.379-.341 0-.341.23-.512 0 .512.919-.341 1.379-.341 2.527.853 0 1.024-.689 1.877-.229-.17.229-.512.229-1.024.229 0 .23 0 .46-.17.69-.342-.23-.854 0-1.195-.23.171.689 0 .459.683 1.149h-.854c-1.023.229-.17 1.148-1.194 1.378 0 .23.341.23.341.69h-.682c0 .229.511.229.511.459s-.511.23-.682.46c0 .229.171.229.512.229-.853.46.853.69.17.919.171.23.854 0 1.195 0-.171-.689-.853-.689-.853-1.378.512-.23.512 0 1.024 0-.171 0-.342.23-.342.689h1.195c0 .23-.171.23-.341.46 0 .229.512 0 .682 0 .171.459-.17.459-.17.919-.854-.23-.854.229-1.707.229.341.23.512.69.512.919.512 0 0-.229.171-.459.512-.23.512 0 1.024 0 0 .23.17.459.17.919-.341 0-.512.23-.682.459.17.69.17 1.149.341 1.839 0 .229.853.229 1.024.459.341-.23.512-.459 1.195-.459-.171-.23-.512-.23-.683-.23.341-.919 0-2.068.341-2.528.171.23.342.69.854.69s.853-.69.512-.919c.341-.23.682.229 1.194.229-.341.23 0 .69.171.919-.512-.459-.512.23-1.195.23v.69c1.707-.23 1.877.229 3.072.459-.171.23-.341.46-.853.46v.459h1.365c0 .23.341.46.341.46.512 0 .171-.46.342-.46-.171-.459-.683-.23-1.195-.23 0-.229.341-.459 0-.459.341-.46.512.23 1.195 0 .17 0 .17 0 .341-.23 0-.689-.853-.459-1.024-1.149.341 0 .512-.23.512-.23-.341-.459-.683.46-.853 0-.171-.689 1.536-.919 2.218-.919.342-.229.342-.919.683-1.148.171 0 .512.229.341.459.171-.459.342-.689.854-.919.17.23-.171.23-.171.689 1.194.69 2.73.23 3.754.23-.17 1.379 1.707 1.149 1.878 2.068-.342.23-.854.23-1.536.23-.171-.46-1.195-.46-1.366-.919-.341.459-.853 0-1.194 0v-.69c-1.365.23-2.389 1.379-1.877 2.068-.342 0-.171.46-.683.46.853 0-.171.919.853.919 0 .23 0 .459-.17.459.17 0 .341-.229.512 0 0 .23-.512.23-.342.46 0 0 .171 0 .171.23.853-.23 2.56-.46 3.242 0 .512-.46.683-.46 1.366-.46 0 .689 1.024.689 1.194 1.149.683-.23-.341-.23-.341-.689.683-.23.683.229 1.195.229.17-.459.682-.919 1.536-1.148 0 .229.17.689-.171.919 0 .229.682 0 .341.459.853-.689.171-1.838 0-2.527.512 0 .341.23 1.024.23-.512.689.683 1.378-.341 1.608-.171.23.17.23.17.459.171.23.683.23 1.024.23.171.23 0 .689-.682.689.17.69.512 1.149-.512 1.609.512.459 0 .689-.342.919 1.024.919.683 2.068-.682 2.527.171.46.682.689 1.194.919-.682.46 0 .69-.341 1.379h-1.194c-.683-.689-.342-1.609-1.024-2.298-.512 0-.512.23-1.195.23 0 .23.512.23.683.23.17.459-.854 1.149-1.707.689 0-.23.171-.46.341-.46-.682-.459-1.365.23-2.048 0 0 .69.854.46 1.195.919 0 .23-.171.46-.512.46.171.46 1.195-.23 1.195.46.853-.23 1.194.459 2.048.459.341.23.341.46.512.919.341 0 .341-.23.853 0 .341-.23.171-.689.512-.689.512.459 0 .919.17 1.378-.341.23-.511 0-.853 0 .171.69.342.69-.17 1.149.17.23.512.46.341.689h-.512c.341.23.683.23.512.69 1.365 0 1.877.689 2.73 1.149-.512.229-1.365.229-1.877.459-.17-.23-.512-.23-.682-.23-.512 0 0 .23-.171.69 0 .229.853 0 .682.459-.682 0-1.194.23-1.535.689.17.23.512.69.512.919.17 0 .682.23.682 0 1.877 2.298 6.827-.689 9.216 1.149.341-.229 0-.23.341-.459h.683c.17.229.17.459.341.689.341-.23.683-.23.683.23 1.024.23 1.194-.46 1.877-.689-.341.229-.512.689-.171 1.148.512 0 1.195-.229 1.366 0 0 .23-.342.23-.512.23 0 .46.682.689.341.919-1.365-.23-1.365 1.379-2.048 2.068-.171.23.341.23.341.459.512-.229 1.024-.229 1.195-.689h1.024c.17.46-.341.69-.341 1.149.682 0 .682-.46 1.023-.689 1.024.459 1.195-1.379 2.39-1.379.341 0 .17.23.341.23.683 0 1.195-.689 1.024-1.149.341-.23.853.23.853.46 2.389-1.149 4.096-2.757 5.632-4.366h1.024c0 .46-.512.689-1.024.689.171 0 .171.23 0 .23.683.46 1.195-.459 1.536-.689h.853c0 .689-.512.459-.341 1.149.512.229.683-.69 1.706-.46-.17.46.512.46.342.919-.342.23-.342.69-.683.919 0 0 .171 0 .171.23 1.024-.23 1.194-1.149 1.877-1.608.512 0 .171.23.341.459l1.536-.689c.342.689-.512 1.149 0 1.838-.682.23-1.194.46-1.194 1.149.512.23 1.194-.23 1.194.689h.342c.17 0 0-.459.341-.459.512.229.512 1.378.171 1.838 0 .229.512-.23.682 0 0 .689-.682.689-1.024.229.512.92 0 1.609-.853 2.298.171.23.171.689.341.919-.17.23-.512.23-1.024.23-.17-.23-.17-.46-.341-.46s0 .23-.341.23c1.365.689.341 1.838 0 2.528.682.459.853.919 1.877.689.341-.23.512-.46.512-.689.171.229-.341 1.608-1.024 1.838-.171-.23.341-.23.341-.46-.341-.23-1.194.23-1.706 0-.512.23-.171.919-.342 1.379.342-.46.854.229 1.366 0 .512.229 0 .689.341.919-.853 1.149-1.195 2.987-3.925 2.987-.171 0-.171-.23-.171-.46a1.841 1.841 0 0 0-1.194 1.149c.341.23.512.919.853 1.149 0-.23.512-.23.512-.46.341.23.17.46.853.689-.171.46-1.194.46-.853 1.149-.341 0-.341.23-.512 0 .682.919-.853 1.379-.512 2.298-.171 0-.341.23-.512 0 0 .459.171.689.341.919.512 0 .854-.46 1.366-.689-.171-.23-.001-.69.341-.919.17 0 .512.229.341.459.853 0 1.365 0 1.877.23 0 .459-.17 1.149-.341 1.608-.341-.459-.512-.689-1.024-1.149-.683.919-.683 1.609-1.194 2.528.511.23.511.689.17.919.683.459 2.731.23 3.925.459.171.23-.17.23-.17.69-1.366.229-1.878 1.148-3.072 1.378.682 1.149-1.707 1.149-.853 1.838-.342.23-.342.23-1.024.23-.683.46-.854 1.149-1.536 1.608.17 1.149-1.536 1.379-1.366 2.528.342-.23 1.195-.23 1.366.229-1.536-.459-2.731 1.149-3.072 2.298 0 0-.342.46-.342.23.171.689 1.195.689 2.219.459-.512-.229-.171-.919-1.024-.919.512-.459 1.707.46 1.877-.459.342.23-.512.689-.512.919.854 0 1.195-.46 1.195-1.149 0-.23-.341 0-.512 0 0-.23.683-.689.341-.919.171-.23.854 0 .683.459.683 0 .171-.689 1.024-.459-.341 1.149-.853 1.379-1.195 2.527.342.23 1.195.23 1.878.23-.512.23-1.536.23-2.048.46 0 .689-.512 1.148-1.536 1.148-.171-.229-.512-.229-.342-.689-.512 0-.17.23-.341.46-.512 0-.683-.23-1.024-.23.171-.23.341-.46.683-.46 0-.229-.512 0-.683 0-.341 0 .171.23-.171.46-.512 0-.341-.46-1.194-.46 0 .69-.854.69-.854 1.379.342.23.683.23.854.459.341-.689 1.877.23 2.048-.689.682.23 1.024.46 1.194.919-.853.23-2.048.69-1.706 1.609-.342.459-1.024.919-1.707.689.341.23.341.459.171.689-.171-.459-.683-.23-.512.689-.853.69-2.219 1.149-3.243.46 0-.23 0-.689-.17-.919-.854.23-.342.689-1.195.919-.341.23.171.23.171.459-.342 0-.512.23-.683.23 0 .23.512.23.341.689-.17 0-.341.23-.682 0-1.024.69-2.219 1.839-2.901 3.447h-.342c.342.919-1.706 1.149-1.024 1.838-.853.23-.853.919-1.706 1.379 0 .459-.171.689 0 .919-.683-.23-.683.689-.854 1.148.512 0 .512-.229 1.195-.229.171 0 .171.229.171.459.512-.23.512.23 1.194 0 .171.23-.341.46 0 .46-.341.229-.682.459-1.365.229-.341 0-.171.46-.341.69-.512 0-.683-.46-1.366-.23.342-.46 1.366-.46 1.195-1.149 0-.23-.512 0-.341-.23-.342.69-1.536.69-2.048.23-.171.689-.683.919-.683 1.608-.341 0-.341.46-1.024.46.171.46-.341.919-.512 1.379.171.229 1.024 0 1.024.229.512 0 .512-.459.683-.919.682 0 1.194.23.853.46.683 0 .853.23 1.195.459 0 .919-.683 1.149-1.707 1.149 0 .23.512.23.341.689-1.194 0-1.706.919-1.877 1.609-.853 0-1.024-.46-1.877 0-.171-.23 0-.69-.341-.69 1.365.46 1.877-1.148 2.901-.919.683-.459-.171-.919-.341-1.378-1.707.23-2.219 1.149-2.731 2.068-.341 0-.853 0-.853-.23-.171 0-.512.23-.342.459.512.46.683.92 1.195.92 0 .689 0 .459.341 1.148-.512.46-1.365.23-1.877 0-.853 0-.683.919-1.195 1.149.171.46 1.024.23 1.195.689.683-.229 1.365-.229 1.877 0v.919c-.341 0-.512.23-1.024.23.171.46 0 .689-.341 1.149-.683 0-.683 0-1.365-.23 0-.229.17-.689.341-.919-1.024-.23-.683-.689-1.195-1.149-2.389.46-1.535 2.528-1.194 3.217 0 .46-.853.23-.683.919.171.689 1.195.689 1.536 1.149-.853.23-1.024 0-1.877.23.341.689-.853.689-.683 1.378.171.23.683.23 1.024.46-.341 1.149.171 2.297-.853 3.216.341.23.683.46.512.919-1.024.23-2.219-.459-2.901 0-.683 1.149.17 1.839.682 2.758-1.024 0-1.536-.23-1.877-.46-.341 0-.341.46-.341.689.17 0 .341 0 .341-.229 0 .229-.512 1.148-1.365 1.148.171.23.171.23 0 .69.171.229.341.459.682.459-.17.23-.341.689-1.023.689.511.69-.342.919.17 1.379.171.23-.853.23-.341.23-.512 0-1.195.23-1.707.23-.17 0 0-.23 0-.23h-1.194c-.171.459.512.459.17.689-.853.23-1.194-.459-1.706 0 .512 0 1.706.23 1.877.919-.341.23-1.195 0-1.195.46 0 .229.171 0 .342 0-.171.229 0 .459-.342.689h-.512c-1.365 1.608-2.389 3.906-3.754 5.744-.171.459.171.459.171.689-.683.46-1.707.69-2.219 1.379.341.23.683.23.512.689-.341-.23-1.024.23-1.195.46-1.706 0-1.194 1.838-2.73 1.838.512-.919-1.024-1.609-1.877-2.068-.512.23-.854.459-1.024.689-.512.23-.342 0-.854 0-.341 0-.341.46-.341.689-.512-.229-.683-.459-.853-.919-.342.46-1.536.23-1.878 0-.341 0-.341.23-.511.23-.854-.23-.683-1.378-.342-1.838-.17-.23-.512-.23-.682-.23-1.024 0-.171.919-.854 1.149-.682-.23-.682-.689-1.536-.919-.17-.23.342-.23.342-.46-.171 0-.171-.229-.342-.229-.17.689-.512 1.378-1.194 1.608.17.23.512.46.341.919h-.341c-.342-.459-1.195-.689-1.877-1.149-.342-.229-.171-1.149-1.024-.919.853-.919 0-2.757.17-3.906 0-.459.512-2.068-1.194-1.608 0-.23 0-.23-.342-.23-.341.69-.341 1.609-1.194 1.838.512.69 0 1.838 0 2.528-.854.229-1.024-.46-1.536 0 .17-.69 0-.919.17-1.609 0-.229-.512 0-.682 0-.342 0 .341.23.17.69-.512.229-2.047.229-1.535 1.148h-.854c.171-.459-.512-.689-1.024-.689v-.459c.171 0 .342-.23.683 0 0-.23-.341-.23.171-.46-.512-.23-.683-.459-.342-.919-.341-.23-1.194 0-1.706 0-.171-.23-.342-.459-.342-.689 1.024-.23 2.219-.23 2.39-1.379-.683-.459-.854 0-1.536-.23.341.92-1.024 1.379-2.219 1.609-.171-.23.171-.23.171-.46.682 0 .682.23 1.194 0-.17-.459-.17-.919-.682-1.149-1.195 0-1.536.92-2.731.69 0 .23 0 .459.341.459-1.194.46-2.218 1.149-3.413 1.609.171.229-.17.689.342.689-.342.459-.683.689-.854 1.149-.17 0-.341-.23-.512-.23 0-.46.342-.46.683-.689-.512-.919-2.901-.919-2.731-1.838-.512.229-2.218 0-1.877.689-.512 0-.512.23-1.024 0 0-.46-.853-.46-1.194-.689-.171 1.838 3.242.919 4.266 1.608.853 0 1.365-.23 1.877 0-1.024 0-1.365.689-2.389.689 0 .23.512.23.171.46.341 0 .682.229 1.194.229-.341.46-1.877 0-1.365-.459-.853 0-.853.689-1.536.689-.17.23.512 0 .342.46-.342.459-.854 0-1.024.689-.171-.459-.683 0-1.195 0-1.536 0-3.243-1.379-4.267 0 .342.46.342 0 1.024 0 .342.23.683.689 1.195 1.149-.341.459-1.024.23-1.195.459.512.46 1.195.23 1.878.23-.683.689-1.878.689-3.072.919-.171-.23-.342-.459-.342-.689-.853 0-1.194.23-1.535.689-1.707-.459-1.707 1.149-3.414.919.171.46.171.689.342 1.149.682 0 .512-.23.341-.689.512 0 .683.459 1.024.689.512-.23.853-.23 1.195 0-.342 1.149-2.219.46-3.414.23-.17-.23.342-.23.342-.46-.512 0-1.195.46-1.366 0-.341 0 .342.23 0 .46-1.877.23-3.413 1.378-5.461.459-1.194.23-2.389.69-3.583.46-.342 0-.512.23-.342.459-.341 0-.512-.689 0-.689-.512-.459-.853-.919-1.706-1.149.341-.919-1.195-.689-1.195-1.378-.512 0-.683 0-.853.229.17.23.512.23.512.23.17.46-.683.689-.342.919-1.194.23-1.877 1.149-3.071.919.17-.689 1.024-.689 1.365-1.149-1.024-.919-3.584-.919-4.949-.459 1.365.23 2.901-.23 3.413.919-.341.46-.853.689-1.195.919.171.23.342.46.342.689.853 0 1.194.46 1.877.46 0 .23-.512.23-.171.459.342 0 .342-.229.512-.459.683.23 1.707.23 1.877.689-2.559.23-5.631-.459-8.362-.459-.171-.23.171-.23.341-.46 0-.23-.682 0-.682-.23v-.459c.512-.23 1.024-.23 1.706-.23v-1.149c0-.23-.17-.23-.512-.23.171-1.378-2.218-.689-2.901 0-.17-.459-.512-.459-1.194-.229 1.365-.919 4.095-.919 5.631-1.609 0-.229-.17-.229-.17-.459-.683.459-1.366.459-2.219.23-.853.919-3.754 0-4.778 1.148-.171 0-.171-.229-.342-.229-.512.229-.17.689-1.024.689 0-.46.683-.46.683-.689-.512-.46-2.048 0-1.877.459.17.23.682.23 1.194.46-.34 1.149-2.9 0-3.583 1.378-.854 0-1.195-.229-1.878-.459-.512.23-1.536.229-2.218.229.512-.689 1.024-1.378 2.218-1.608-.17.23-.17.23-.17.46.341 0 .512-.23.682-.23-.341-.23 0-.689.342-.689.512.459 1.365.229 1.877 0-.512 0-1.024-.69-.512-1.149 0-.23-.512-.23-.853-.46.682-.229.682-.919 1.194-1.378-1.194-.23-3.584-1.149-4.437.23-.17 0-.341-.23-.683 0-.511.689-1.706.919-2.9 1.378-.171.23.17.46.17.689h-1.024c0-.459.17-.229.683-.229-.342-.46-1.195-.46-1.878-.46-.17-.23-.341-.23-.17-.689-.683 0-1.366-.46-1.878-.23-.17-.23-.17-.919-.853-.689 0-.23 0-.69.342-.69 0-.459-.683.001-.854-.229-.341 0-.17.459-.341.689-.341-.23-.683-.459-.341 0-1.024-.23 0-.919-.342-1.379-.512.46-.341 0-1.194-.229-.512-.23-1.536 0-1.878 0-.17 0-.17-.46-.34-.46-.342-.23-1.196.23-.684-.23-.682.23-1.194 0-2.047 0-.854-1.378 1.023-1.608 2.56-.919.17 0 0-.229 0-.229.34 0 1.365 0 1.023.459.342-.459.683-.23 1.195-.919.683 0 .512.46 1.024 0-.17-.919-1.707-.23-3.072-.459-1.024-.23-2.218-.46-2.901.229 0 .23.512 0 .683 0-.171.23-.683.23-1.195.23-.17-.23-.341-.689 0-.919-.853-.459-2.219-.23-2.73-.689-.513 0-1.537.23-1.366-.46.512 0 1.195 0 1.195-.23 0-.459-.683-.229-1.195-.229.17-.23.512-.46.853-.23.512-.919 2.39-.919 2.56-2.068.512 0 1.195-.23 1.707-.23-.17-.689.17-1.148 1.194-.919-.17-.459.854-.459.342-.919.682 0 1.024-.229 1.194-.689h.854c0-.23-.683 0-.342-.46.342 0 .512.23 1.024 0-.17-.459.171-.229.171-.689.512-.23.341 0 .683 0-.342-.23.34-.23.34-.689-.682 0-.852.459-1.194.689-1.024.23-2.56.689-3.413 1.609-.512 0-.853-.23-1.365 0 0-.23-.341-.46-.341-.69h.512c0-.23 0-.459-.342-.459.17.459-.853.459-1.365.459.17.23.341.46.683.23-.171.23-1.195 0-1.195-.46-.341 0-.512.23-.683.23-.17-.23.342-.459 0-.689-1.365.689-3.242-.23-4.607.459.17.46.853.69 1.877.69-.342.459-1.365.229-1.536.689-.341-.23-.341-.689-.853-.689.512-.919-1.024-1.379-1.195-2.068-2.56-.23-1.195 2.068-2.219 3.217 0 .229.342.459.342.689-.171.23-.342-.23-.512 0 0-.23-.854-.919 0-.919.17-.46-.512 0-.342-.23.342-.46 1.024-1.608 0-1.608-.512 0-.512.459-.682.689-.342 0-.512-.46-.17-.689-.342 0-.513.229-.854.229 0 .46-.342.46.17.69 0 .23-.511.23-.853.23 0 .459.341.229.17.689-.511.23-.17-.23-.511-.23-.17-1.149.682-2.987-1.877-2.527-.342-.23-.512-.46-1.024-.46-.683.23-1.024.23-1.878 0-.34.23.171.689-.17.919-1.365-.459-.17-2.068-1.536-2.527-.342.459.17 1.149.341 1.608-.341 0-.682.23-.853.46.17 1.378.17 2.297-.512 3.446-.853-.459-.17-1.149-.683-1.838h.512c-1.194-.919 0-2.068-.853-2.987 0-.689 0-2.987-1.195-3.217-.17-1.378-.853-2.986-1.194-4.595-1.536-.919-.342.689-.854 1.149 1.024.23-.34 1.149 1.195 1.149-.17.23-.512.459-.683.689.171.23.683.23.854.46-.683.229-.512.689-1.366.689.171.23.512.23 1.024.23-.17.919-.512 1.378.683 1.378.683 0-.341-.689.512-.689.341 1.149.683 2.068-.341 2.757.341.689.341.689.512 1.379-1.878-.46-1.707-2.757-2.56-4.366 0-.23.17-.23.341-.459-.853.229.17-.69-.682-.69.511-.459 0-1.148-.513-1.378-.17.23-.34.23-.34.459-1.878-.229-1.196-.919-2.049-1.838-.512 0-.17.46-.682.46-.171-.46-.342-.919-.512-1.149.512 0 .682.459.853.919.512 0 .853-.23 1.024-.689-.341-.69-1.195-.69-1.536-1.149-.853.689-.683 2.527.853 2.987-.17.459.17 1.149 0 2.297-.341 0-1.706-.229-1.536.46-.682.23-.682-1.608-1.365-1.149-.512-.23.341-.23.17-.689-.511-.23-.34.459-.853.23-.682-.69 0-1.379-.512-2.068.342-.23.683-.46.854-.689-.17-.23-.683.229-1.195 0-.17-.23-.341-.92.341-.69-.17.46.512.46 1.024.46.171.459 0 .919 0 1.378 1.536 0 1.195-1.838-.34-1.608 0-.23-.172-.23 0-.459-.172 0-.513-.23-.684 0-.682-.92-1.365-1.609-1.535-2.987.34-.23.34 0 .682-.23 0-.689-1.024-.46-1.024-1.149.341 0 .341-.23.512-.23 0-.459-.341.46-.341 0-.342-.229.17-.459.341-.459-1.194-.919-1.365-2.528-1.706-4.595.682-.23.853-.69 1.535-1.149-.17-.46-1.194-.23-1.877-.46-.341-.689-.17-1.149 0-1.608.17 0 .17.23 0 .23.512.459.683 0 1.195 0-.17-.919.512-1.838-.853-2.758-.512 0-.342.23-.854 0-.341-.229.171-.459 0-.919.683 0 1.024-.689.854-.919-.512 0-.342.46-1.024.23.341-.919.512-1.378 0-2.068.682 0 .682-.689 1.194-.689-.512-.689-1.024 0-1.706-.459-.171-.69.682-.919 1.024-.46.34 0 .17-.23.34-.23-.17-.23-.682-.23-1.023 0-.17 0-.17-.23-.341-.23v-1.838c.341 0 .512 0 .512-.229-.342-.46-.171-.69-.342-1.379.342.23.171 0 .342 0-.171-.23-.342 0-.683 0 0-1.149-.17-2.068-1.536-2.527-1.194.459-3.072 0-3.754.919-.512 0-.683-.23-1.195-.23-.512.23-.512.46-.341.919-.171.23-.512 0-.512.23.341-.46.17-1.838-.854-2.068-2.218 1.149-6.143-.46-8.533.689-.34 0-.17-.459-.34-.23-.513 0-.342.46-.854.46.341-.919-1.024-.23-1.365-.919.511.23.853.23.853-.23.512 0 .853 0 1.024.23.512-.23.682-.23.682-.689 1.195 0 3.072-.23 3.584-.919 0-.23-.17-.23-.341-.23 1.024-.689 1.877-.46 2.901 0 .512 0 .683-.23.683-.46.512 0 .682-.229 1.194 0-1.194-1.149-3.925.46-5.12-.689-.853.23-1.023-.23-1.535-.23-.17 0-.342.69.17.46-.34.23-.34.459-.34.689-.684-.23-2.049-.459-2.732 0-.512 0-.17-.459-.511-.23-.171.23-.512.46-.683 0-.17 0-.17.46-.512.46-.512-.23-1.536-.23-2.39-.23 0-.23-.17-.459-.682-.459v-.69c.512 0 .17.46.683.23a.54.54 0 0 0 0-.919c.512-.46.17-.689.853-1.379-.17-.459-.341-.459 0-.919-.341-.459-.853 0-1.536 0 .17-.689.683-1.148 1.195-1.378-.512 0-.512.23-1.024 0-.17-.46.17-.46.17-.689-.512 0-1.365.459-1.706 0 .682-.46 1.365-.69 1.365-1.839.512-.229 1.195-.689 1.707-1.148 1.706.229 1.536-.919 2.56-1.149-.171-.23-.512.23-.854 0-.17 0 0-.46-.341-.23 1.024-.23 1.706-1.149 2.73-1.149-.34-1.149-1.194-.459-2.218-.229-.512.689-1.365 1.608-2.73.919-.171-.23.511-.69 1.023-.69 0-.459-.17-.459-.17-.919 1.365.23 1.024-.919 2.048-1.149 0 .46.853 0 .682.46.342-.23 1.024-.23 1.024-1.149.341-.23 1.024-.23 1.195 0 0-.23-.512-.23-.17-.459.682 0 1.194-.23 1.535-.69.683.23 1.365.23 2.219 0-.683-.229-2.39-.229-3.072-.229.682-.919 1.706-1.149 3.072-.919 1.024-.46 2.218-.69 3.242-.919-.17-.23-.17-.69.341-.69-.511-.23-.34-.689-.682-1.149-.17.23-.683 0-.683.23-.17 0-.341-.23-.341-.23h-.683c-.512 0-.17-.229.17 0 .683-.229 1.366-.229 1.878-.459.683 0 1.024.23 1.536 0 .341-.23-.512-.46-.17-.689 1.535-.23 3.413-.69 4.948-.46.342-.459.854-.689 1.707-.919-.17-.46.17-.459.341-.919-.34-.46-.682-.919-1.365-1.149.342-.459.341-1.149-.341-1.378.17-.46.512-.46 1.024-.46.512-1.149.17-2.987-.342-3.446.171-.46.171-.69-.17-.919.853-.23 0-.69-.17-1.149.511-.46.511-1.379.17-1.608-.341 0-.17.229-.512.229-.17-.459.512 0 .341-.229-.341-.23-1.194-.23-1.194-.69.34-.229 1.023.23 1.194-.23-.17-.229-.341-.459-.682-.229.17-.23.682-.23.682-.46-.341-.459-1.365-.459-1.706-1.149.17-.229.682-.229.853-.459-.512-.689-1.024-1.608-2.219-1.149.512-.459 1.877-.689 2.73-.459 0-.69-.17-.69-.852-1.379 0 0 0-.46-.171-.46-.342-.229-1.365 0-1.195-.689h-1.194c.17-.689-.342-1.149 0-1.608.34 0 .34-.23.853 0-.17-.46 0-.689.341-.919-.341-.46-.853 0-1.194-.23.34-.459.17-.919 1.024-.919 0-.459-.854-.23-1.366-.23.683-.23 0-.689-.512-.689 1.195-1.149 4.096-.689 5.632-1.608.17 0 0 0 0 .229h.341c0-.229-.682-1.148.342-1.378-.342-.919-1.024-1.609-2.39-1.379.683-.23 1.366-.459 1.195-1.378h-.34c-.17 0-.17.229-.17.459-.684 0-.854-.23-1.196-.459.171-.69 1.707-.69 2.731-.69.17 0-.17-.459.17-.689.342.689.342 1.379.513 2.068 1.365 0 1.706-.23 2.56-.46-.171-.229-.342-.689-.342-1.148.683 0 1.195-.23 1.365-.69.171.69 1.707.23 2.22.46.511-.46.17-1.608 1.364-1.608.512-2.298 2.73-3.447 2.73-5.744.172-.23.513-.23.513-.46-.341-.46.512-1.608.853-2.068-.341-1.378-.17-3.216 0-4.825.17-1.149.683-2.297.854-3.446.17-1.149-.342-1.838 0-2.757.17-.69 1.365-1.379 1.706-2.528 1.195-.229.683.919.853 1.609.171.229.342.229.854.229.512-.459.682-1.148 1.706-1.378 0 .459.17.689.342 1.149.682-.23 1.535-.69 2.389-.46.341 0 0-.459 0-.459-.512 0-.342.229-.853.229-.171-.459.511-.689.34-1.148.854-.23.513.689 1.025.689h.341-.341c.853-.919.682-2.987 1.706-3.906.512 0 .683.459 1.195.459.512-.229.682-.459 1.194-.689.342 0 .171.46.854.46.17 0 .17-.46.341-.69 1.877.46 3.584-.689 4.437-1.838.512.23 1.024.69 1.707.46.683.689.683 2.297 2.56 2.068-.512.689-.17 1.378.682 1.838.683-1.149.342-2.298 1.366-2.987 0 .689-.171 1.838-.171 2.527 0 1.149 0 3.906 1.365 4.136.512-.689-.512-1.149-.341-2.068.341 0 .341-.459.853-.23-.17 1.838.683 2.757 1.195 4.136.682-.23.512-.919 1.194-1.149-.17 0-.34 0-.34-.23.17-.229.511-.229.682-.459.682.23.682.919 1.536 1.149-.342.229 0 .459.17.689.342 0 .171-.23.512-.23.512.46.171.919 0 1.379 0 .23.683 0 .683.23.341-.23.683-.69.512-1.149 1.024-.23 1.536-.23 2.048-.69h.341c.342-.229.17-.689.342-1.378.17-.23 1.194-.919.34-1.379.854-.229.513-1.378 1.195-1.838 1.536.23.854-.919 1.878-1.149-3.072-1.148-3.413-1.148-3.584-1.378Zm73.724-5.055c0-.23.171.23.342 0 0-.23 0-.459-.342-.459 0 0-.512.459 0 .459Zm3.072.919c.512 0 .854-.23.854-.689-.512 0-.342-.23-.854 0-.341 0-.341.459 0 .689Zm-18.943-.23c.341 0 .341.23.512 0 .171 0 .341-.459-.171-.459.342.459-.341.23-.341.459Zm9.045.69c.171.459.683.919.512 1.378.512 0 .512.46 1.195.23.341.689 0 1.149.682 1.608.171-.689-.17-1.608.171-2.067-.853-.46-1.365-2.298-2.56-1.149Zm12.458.689c.341 0 .341.46.683.46.17-.23-.171-.23-.171-.69-.171 0-.512 0-.512.23Zm-54.781.689c.512 0 .341-.459.341-.689h-.341c-.171.459.341.46 0 .689Zm53.757.23c.683 0 .853.23 1.365 0-.17-.46-.853-.689-1.706-.689 0 .459.341.459.341.689Zm-69.117 1.608c.342.23.342.69.342.919H92.94c-.341.69-.17 1.149-.341 1.839.341 0 .682-.001.512.229 0 .23-.17.46-.512.23.341.689-.17 1.379-.342 2.068.342 0 .342 0 .171.23.512 0 .683-.23.853-.46-.34-.919.512-1.608.171-2.297 1.024-.23.683-1.839 1.195-2.068-.683-.46.341-.919.341-1.379-.853-.23-.683.689-1.195.689Zm64.68.69c.171-.23.683 0 1.195-.23 0-.46 0-.919-.342-1.149-1.024 0-1.365.919-.853 1.379Zm15.701 4.135c-.171.69.512.69.341 1.379 1.195-.23.683-1.149 0-1.608 0 0-.171.229-.341.229Zm-81.405 2.528c-.512-.46.683-.69.342-1.379-.17-.23-.512-.23-.854 0-.511.689 0 1.379.512 1.379Zm33.45 0c.341.459 1.194.689 1.877.229 0-.459-.171-.459-.171-.689-.853 0-1.706 0-1.706.46Zm48.296 1.149c.341 0 .683 0 .683-.23-.342 0-.171-.23-.512-.23 0 .23-.171.46-.171.46Zm-44.03.919c.853.229-.683 1.378-.341 1.838.853-.46.682-1.379 1.024-2.068-.342-.23-.854-.23-.683.23Zm44.03 0c.341.229.512-.46.341-.46-.17.23-.341.23-.341.46Zm-84.305 1.838h1.024c0-.46-.683-.23-.171-.46-.341 0-.512 0-.341-.23.17-.229.853-.459 1.194-.229-.17-.46-.682-.46-1.194-.69-.342.69-.171 1.149-.512 1.609Zm82.428.459c.512 0 .682-.23.682-.459h-.341c0 .229-.341.229-.341.459Zm0 1.149c.512-.46 1.194.23 1.536 0-.342 0 .17-.23 0-.46-.683-.229-1.024-.229-1.878-.459-.17.459-.17.689.342.919Zm3.072 0h.853c.17.23.341.919.512.919 0-.46.17-.689.682-.689v-.46c-.17 0-.341-.23-.512-.23-.341.919-1.365-.229-1.535.46Zm.682 1.838c.171 0 .853.23.683 0 0-.459-.853-.23-.683 0Zm5.461 0c-.341.689-.853 1.838.683 1.838 0-.689 1.024-.919 1.024-1.608-1.024.23-.853-.46-1.707-.23Zm-6.997 1.379h.854c.17.229.17.459.341.459-.512.23-.853.23-.853.689.17.23.853.23.853.69-1.024.459-2.048.919-3.072.919.171.689 1.365 1.378 2.219.919.17 0 .512 0 .341.459.683 0 .853-.229 1.365 0 .341.46-.341.46 0 .69.512-.23.683-.69 1.365-.69 0-.459.683-1.148-.17-1.378-.683.23-.683.919-1.366 1.149-.511-.23.001-1.149-.511-1.379.17 0 .511 0 .341-.23-.341 0-.512.23-.512 0 .171-.459.512-.689.171-1.149 1.023-.459.511-.919.341-1.838-.683.23-.853 0-1.877 0 0 .23.341.46.17.69Zm2.901.689c.512 0 .854 0 1.024.459-.512.46-1.536.46-1.536 1.149.854-.23.854.23 1.195.46.171-.23.512-.46.853-.46.512.46 2.56.23 2.902 0-.854 0-.512-.689-.854-.919-1.365-.23-1.877.46-2.048.689-.17-.689.171-1.148-.17-1.838-1.024-.459-.854 0-1.366.46Zm-48.296.689c.341.23.853.23 1.195.23 0-.23.17-.23.341-.23-.512 0-.512-.689-.853-.919 0 .46-.512.46-.683.919Zm52.904.689c.342 0 .512.23.342.46h1.877c.17.23.341.459.341.689.683.23.512-.23 1.024-.23-.171.69 1.365.46 1.365 0-.17 0-.17.001-.17-.229-.854.23-.683-.46-1.195-.46.853-.689-.853-1.149-1.365-.689.341 0 0 .459-.171.459-.341-.229.171-.689-.171-.919-1.023-.229-1.365.46-1.877.919Zm10.41-.229h-1.536c-.17-.23-.17-.46-.17-.69-1.024 0-.853.919-1.365 1.149.17.23.341.23.341.46 0 .459-.512.459-.853.689 1.024.23 1.877.46 2.559 0-.341-.23-1.023-.23-1.194-.46.171-.229.171-.689.341-.919 1.195.23 2.731.46 1.877-.229Zm-5.631.459c.17 0 .512.23.341.46.341 0 .683-.23 1.365-.23-.17-.46-.341-1.379-1.194-1.149.17 0-.512.46-.512.919Zm7.509 1.379c-.683 0-1.707-.23-1.878.23.683.229.512 1.148.854 1.608.341-.46.853-.919 1.365-1.149.171.23.683 0 1.024.23 0-.23.171-.23.341-.23-.512-.919-1.194-1.608-2.56-1.838.342.23.512.689.854 1.149Zm-12.117 1.378c-.171.23-.683 0-.853.23 1.365.919 2.901 0 3.925-.919-.171-.459-.512-.689-.854-.919-.853.689-3.071 0-2.218 1.608Zm4.437 2.298c0-.46.853-.46 1.365-.23.342-.459.342-1.149.854-1.378-.171-.23-.512-.23-.512-.69-.683 0-1.024-.229-1.366-.229-.17.919-.853 1.608-.341 2.527Zm-10.581-1.838c.854-.23 1.195.689 2.219.23-.512-.23-1.195-.23-1.536-.46-.512 0-.683-.23-.683.23 0-.23 0-.23 0 0Zm12.97 1.608c.854 0 1.195-.23 1.877 0 0-.23.171-.23.171-.459-.341-.23-1.024.229-1.194-.23.17 0 .341-.23.17-.46-1.194.23-1.365.69-1.024 1.149Zm-2.218.689c0-.229 0-.229.17-.229-.17 0-.853-.23-1.024 0 .512 0 .342.459.854.229Zm-7.68 2.528c.341 0 .512-.23.341-.46h-.341v.46Zm14.677 1.149c.17-.23.512-.69 0-.919-.342.229-.512.689 0 .919Zm-155.3.229c0-.229.342 0 .512 0 0-.229 0-.459-.341-.459.17 0-.512.23-.17.459Zm153.934.919c1.195 0 2.731 1.609 3.414.23-.342-.23-1.195-.23-1.195-.919-.683 0-.853-.23-1.195 0-.17-.23-.341-.459-.341-.689h-.683v1.378Zm-156.323 1.839c.512 0 .853 0 1.195.229-.171-.229.17-.229.341-.459-.683 0-.853 0-1.195-.23-.34.23-.512.23-.34.46Zm-.683.689c.342 0 .342-.23.342-.23h.341c0-.23-.17-.459-.512-.459-.17.459 0 .459-.17.689Zm-1.365 0c.341.23 1.195.23 1.195-.23-.512.23-.512-.23-1.024-.23 0 .23 0 .23-.17.46Zm168.611 3.216c-.171 0-.171-.229-.171-.459h-.341c-.171.689.341.689.512.459Zm.171.23c.682-.23 1.024.23 1.194-.459h-1.365c0 .229.341.229.171.459Zm-1.878 1.149c.171 0 .171-.459-.341-.459-.171 0-.171.459.341.459Zm-1.536 0v-.459h-.512c0 .229.171.459.512.459Zm3.243 6.433c.683.23 1.707.46 2.389.919.342 0 .341-.459.512-.459-.171-.23-.512-.23-.512-.689 1.024 0 1.365-.69 1.877-1.149.342.23 1.366 0 1.536 0 0 .23-.512.459 0 .689-1.024.23-1.706.23-1.706 1.149.682 0 .512.459.682.689.342-.23.512-.459.854-.459 0 .229 0 .459.17.459.171 0 .854.23.854 0-.171-.23-.512-.459-.854-.459.342-.46.342-.46 1.024-.46 0-.459-.682-.23-.682-.689.682-.23.682 0 1.194.23.342-.46.512-.919 1.195-.919-.341-.69 0-.92.512-1.149-.341 0-.341-.23-.512 0-.171 0 0 .459-.341.459-.342 0-.171-.459-.512-.23-.342.46 0 .69-.512.92-.512-.23-1.024-.69-.683-1.149-.683.229-1.195-.23-1.877-.46.17-.459 1.024-.689 1.194-1.149h-.512c0-.459 1.024-1.148 0-.919.512.46-1.024.46-1.024.919-.512 0-.341-.459-.853-.229-.512.459-1.195.459-1.706 0 .341 0 .341-.23.341-.46-.171-.23-.853 0-.853-.23 0-.229.682 0 .512-.459 0-.46-.342-.46-.683-.46-.171.23-.341.23-.341.69.17.229.512.459.512.689-.342.23-.512.459-1.024.689-.171 0 0-.459-.342-.459-.512.459-1.877.229-2.73.459-.171-.23-.171-.459-.342-.459-.682 0-.853.229-1.194.459-.512-.23-1.024-.459-1.877-.23-.342.46-.171.69 0 1.149.853-.23 1.194.23 1.365.689 1.024-.459 1.365.23 2.56.23.17.69.512.69.853.919-1.707.23-3.243.23-3.584 1.379 1.195.919 2.56.23 4.267.459.17-.459 1.024-.689 1.536-.229-.171.229-.683 0-.683.229h.341c-1.536-.459-2.048.69-2.56 1.609.683 0 1.024.229 1.366 0 .17-.23-.512 0-.342-.46 1.195-1.608.854-1.149 1.195-2.068Zm3.413-5.973c.341 0 .341-.23.512 0 .171-.23-.171-.23-.171-.46h-.512s.171.23.171.46Zm1.536 0c.341.229.512-.46.341-.46-.17 0-.512 0-.341.46Zm6.997 2.297c.512 0 .683-.459.683-.919-.683.23-.512.689-.683.919Zm-18.772 2.987h.853c0-.23.512-.459.341-.689-.512 0-1.365 0-1.194.689Zm-2.902-.23c.512.23 1.024-.229 1.195-.459-.853 0-1.195 0-1.195.459Zm-2.218 0c0-.229.682.46.682 0-.17 0-.17-.459-.682 0 0-.229 0-.229 0 0Zm26.452 2.068c.683-.23.341-1.149.853-1.378-.17 0-.341-.23-.853-.23-.171.459-1.024 1.378 0 1.608Zm1.706.689c.342-.229-.511-.229-.341-.689h-.512c.171.23.512.46.853.689Zm-18.089.919c.17.46-.342.46-.342.92.683-.23 1.195-.23 1.878 0-.171-.23-.171-.69 0-.92h-1.536Zm16.383 1.149c-.512.23-1.707 0-1.707.69 1.366.229 2.39-.46 3.413-.919-.341-.46-.853-.69-1.535-.92 0 .46-.512.69-.171 1.149Zm9.386 3.217c.341 0 .341.23.341.23 0-.23.342-.46.512-.46-.17 0 0-.23 0-.23h-1.023c.17 0 .17.23.17.46Zm-2.901 4.365c0 .46.853.23.683 0-.342-.229-.342 0-.683 0Zm-.512 1.149c.171 0 .341.23.683 0 0-.23.17-.23.17-.459-.512 0-.682.229-.853.459Zm-195.063 4.136c-.853 0-1.365-.46-2.048 0 .683.23-.341.459-.17.919 1.365 0 2.9 0 4.095-.46.171.23.512.23.683.46 0-.46.512-.23 1.024-.23 0-.23.341-.23.512-.459-.17-.23.17-.919-.341-1.149-.854.919-2.73 0-3.755.919Zm195.916-.23v.23h1.195c0-.23 0-.23.171-.23-.683 0 .17 0 .17-.23-.512 0-.17-.229-.512-.459 0 .23-.853.689-.341.919-.341 0-.341-.23-.683-.23ZM13.754 196.769c.512.23.854.459 1.536.689.512-.23.683-.689.854-1.378-.854-.23-2.048 0-2.39.689Zm9.728.919c.683.23 1.877 0 2.39 0-.342 0 .17-.46-.342-.46-.341.46-1.707-.229-2.048.46Zm192.503 2.068c.683 0-.341.459-.341.689.682.689 1.024 0 2.218.23.171-.23.171-.689.683-.689-.171-.46-.512-.919.171-1.149 0-.23-.342-.46-.854-.46-.17.919-1.365.69-1.877 1.379Zm-191.65 1.838h.854c.682-.46.512-1.379-.683-1.379-.341.69.17.919-.17 1.379Zm8.021.23c-.682 0-.682-.46-1.194-.46-.512.689 1.024.919 1.194.46Zm116.048 3.676c0 .23-.512.23-.17.23.17-.23.682.229 1.023 0-.17 0-.17-.23 0-.23h.171c-.683-.23-.683.459-1.024 0Zm-105.979 3.216c.512 0 .342.23.683.23.17-.23-.17-.23.17-.459h-.512s0-.23-.17 0c0 0-.17 0-.17.229Zm-.341 3.906c.341-.229.17-.919-.17-1.148-.513 0-.513 1.378.17 1.148Zm-.342 2.528c.342-.23.513.459 1.536.459.342-.229.171-.459.342-1.149-.683 0-1.024-.229-1.707 0 0 .23-.682.46-.17.69Zm-.511 1.608c1.023-.23.682.919 2.047.689-.17-.459.171-.689 0-1.148-.682 0-1.535 0-2.047.459Zm102.565.919c0 .23 0 .23.171.46.341 0 .512-.23.512-.46-.341-.23-.341 0-.683 0Zm-101.541.689c.682 0 1.194 0 1.194-.459-.683 0-1.194 0-1.194.459Zm105.979 1.379c.511 0 .511.23 1.194 0 0 0 0-.23.171-.23.17-.459-.853-.689-.512-.459.17.459-.683.689-.853.689Zm-105.126.689c-.17-.229-.17 0 0 0-.341-.229-.683-.229-.853-.229-.171.229.682.459.853.229Zm.853.46c0-.23 0-.689.17-.689-.34 0-.34-.23-.682 0-.341.229.17.459.512.689Zm105.808-.23c-.17-.23-.17-.689-.682-.689-.853.459.512.689.341 1.378.853-.229 2.219 0 2.389-.689-.512 0-1.365.23-2.048 0Zm-104.272 1.608c-.341-.689-1.365-.229-1.536-.919-.683.23-1.194-.229-1.536 0-.17 1.379 2.048 1.379 3.072.919Zm147.108 1.149c0-.23.17 0 .341 0 0-.23.171.23.512 0 0-.23.171 0 .341-.23-.512 0 .342 0 .171-.229-1.024-.23-.683.459-1.195 0 0 0 0-.23-.17 0 0 .229-.171.459 0 .459ZM44.473 225.03c.512.459.17 2.297-.17 2.527-.513 0-.342.23-.854 0v-.46h-.853c-.17.23.17.46 0 .69h-.853c0 .229 0 .229-.171.229 0-.229-.342-.229-.342 0 .171 0 0 .23-.17 0 0 .46 0 .69.512.46.341-.23-.17-.46.17-.46.683.23.513-.229 1.195 0 .17-.229-.512-.459-.17-.459.682.23.34.459 1.365.459.17-.229.17-.689.512-.689.17.23.682.23.512.46-.342.229-.342-.23-.683 0v.459c1.365-.459.341.919 1.365.919.171-1.608-1.706-3.906-1.194-5.974-.512.23-.854 0-1.366 0-.17.919.854 1.609 1.195 1.839Zm100.177-1.609c.341 0 .682.23.682-.23-.341 0-.682 0-.682.23Zm-9.557.919c0-.459 0-.689-.342-.689-.17.23-.511.23-.341.689.171-.23.341.23.683 0-.342-.23-.171 0 0 0Zm-92.497 5.055c-.512-.23.512-.23.341-.46-.682 0-.853.69-.341.46Zm51.539 4.365c.17-.229.682 0 .512.46 2.218-.23 2.73-1.379 3.072-2.757-.683-.46-1.366-.46-1.878 0-.17.689.512 1.378-.17 1.608-.171-.689-.854-1.149-1.024-1.838-.854.23-.683 1.379-1.366 1.838.683-.23.854.46.854.689Zm-47.785-2.297c-.17 0-.341-.689-.682-.46.341.23.512.919.682.46Zm39.934 3.216c.683 0 .683-.459 1.195-.459-.341-.46.17-.46.341-.919-.682.459-.853 1.149-1.536 1.378Zm9.045 1.149c0 .23-.17.23-.17.23.512.23 1.024-.23 1.706 0 0-.46.854-.46.683-1.149-1.024-.23-1.195-.459-2.219-.23 0-.229 0-.229-.17-.459-.342.23-.683 0-1.024.459.853.23 1.365.919 1.706 1.149-.341 0-.341-.23-.512 0Zm-10.069-.689c0 .23.512.23.342.689-.17.46-.683.46-.683 1.149.683 2.527 3.755.23 2.219-1.378-.854 0-1.366-.23-1.195-.92-.341 0-.512.23-.683.46Zm3.243 1.149c0-.23.683 0 .853-.23-.17-.23 0-.459-.341-.689-.17.459-.853.689-.512.919Zm49.832 2.527c.342 0 1.024.23 1.195.23-.512 0 .171-.46-.341-.689h-.171c.341.229-1.024 0-.683.459Zm-54.781.46c0-.23 0-.919-1.024-.69.17.23-.512.46-.17.69.34-.23 1.194.229 1.194 0Zm-15.36-.23c-.34.459.513.689 1.195.459.17-.459-.853-.689-1.194-.459Zm4.779 1.378c.512 0 .853-.229 1.024-.689-.683 0-1.195.46-1.024.689Zm2.39.69c.17-.23 1.365-.23.853-.46-.342 0-1.195.23-.854.46Zm65.362 2.987c-.683 0-2.219.689-1.195 1.378 1.195 0 1.706-.459 2.048-1.149.512.23 1.194-.229 1.365-.459-.853.23-2.048-.23-2.73 0 .341-.23.512-.23.512.23Zm12.799-.46h-.683c0 .46.683.46.683 0Zm-68.605 1.838c-.341.46 0 1.149.853 1.379 0-.919 1.366-.919 1.536-1.609-1.024-.229-1.365.23-2.389.23Zm5.29 0c.171 0 .854.23.854 0-.512 0-.17-.23-.341-.459-.342 0-.683.229-.512.459Zm66.216 0c-.171.689-.171 1.149 1.195 1.149 0-.46 0-.919.341-1.149-.683-.459-.683-.23-1.536 0Zm-10.069.46h-.341c.341 0 .683 0 .853-.23-.17-.23-.512 0-.512.23 0-.23 0-.23 0 0Zm-1.536.459c0 .23.171.23.171.46.341-.23 1.707 0 1.707-.69-.854 0-1.195 0-1.878.23Zm-66.727.69c.682-.46 1.536.229 1.706-.69-1.024.23-.512-.23-1.536-.23 0 .46-.512.92-.17.92Zm96.934.459c0 .46-.683.23-.512.689.683 0 .341-.229.512-.459.512.459 0 1.378 1.195 1.378.17-.689 1.023-.689 1.194-1.378-.683 0 .171-.23-.341-.23-.171 0-1.365.23-2.048 0Zm-20.82.689c.341 0 .341.23.512 0 0-.229.17-.229.17-.459h-.512c0 .459-.17.459-.17.459Zm22.356 5.285c0-.23-.171-.23-.171-.23 0-.23.512-.23.853-.459-.17-.23 0-.46-.341-.69-.341.23-.682.46-1.365.46 0-.689.512-.919.512-1.609-.683 0-1.536 0-1.707-.919.512-.229.512-.689.342-1.378-.342 0-.512-.23-.854-.23-.17.23-.341.46-.341.689.341 0 .512 0 .341.23-.341.23-.853.46-1.024.919.342 0 .683 0 .854.23v.919c-.342 0-.683 0-.512.459.512.23 1.024.46 1.365.69-.171 0-.171.23-.171.459.854 0 1.195.69 2.56.46 0-.23.171-.23 0-.23.171.23 0 .23-.341.23Zm-43.006-3.217c-.683 0-1.024.23-1.365 0-.171.46.341.46.341.919 1.195 0 2.389-.23 3.413-.689 0-.689-.853-.919-2.048-.919-.341.459-.17.459-.341.689Zm2.901.23h.512s0-.23.171-.23c0 .23.341.23.341 0-.171 0-.512 0-.683-.23 0 .23-.341.23-.341.46Zm1.877.459c.342.23.512.46 1.195.23 0-.459.512-.689-.171-.919-.17.919-.853.23-1.024.689Zm-9.386 2.528c-1.195-.919-3.072-.689-5.12-.46-.17 0-.341-.229-.853-.229-.512.459-1.195.919-2.389.919 0 .229 0 .229-.171.459 2.048 1.149 3.243-.23 4.949-.689 1.195.23 2.389 1.149 3.925.919 0-.23-.512-.23-.341-.919Zm-8.362 1.838c.17.23 1.024.23 1.194 0-.17 0-.17-.23-.341-.23-.341-.23-.853-.23-.853.23Zm-9.386.23c.17 0 .682 0 .853-.23-.512 0 0-.23-.341-.23 0 .23-.683 0-.512.46Zm15.188-.23c.171.23 1.024.689 1.365.459-.17-.689-.853-.459-1.365-.459Zm-10.239.919c.512 0 .682-.46.682-.919h-.341c0 .459-.341.459-.341.919Z" clip-rule="evenodd"/><path fill="#2C2321" fill-rule="evenodd" d="M141.237 111.987c.682 0-.342.459-.342.689.512.23.512.919-.17 1.378.511.46 0 .919 0 1.379-.512 0-.342-.23-.854 0 .854-1.379.512-2.527 1.366-3.446Zm3.925 1.148h.512c-.342.23-1.024.46-1.195.919-.341 0-.512-.459-.853-.459.341-.689 1.536.459 1.536-.46Zm38.91 12.638c-.341.229-.683.459-.853.689-.342-.46.682-.919.341-1.379.512-.229 1.365-.229 1.707-.229.17.459-1.024.689-1.195 1.378-.341 0 .171-.23 0-.459Zm-5.291 4.364c0-.229-.341 0-.512 0-.17-.229.171-.229.171-.459.341 0 .341.23.853.23.171.229-.682.229-.17.459-.512.46-.683 0-1.195.46 0-.46.512-.46.853-.69Zm18.261 1.149c0-.229.341.23.683 0 0 .46.512.69.17 1.149-.682.23-.341-.459-.853-.23-.171-.459.512-.689 0-.919Zm-157.689 4.596c.341.229-.341.459-.341.689-.341 0 .17-.23 0-.689.17.229.341 0 .341 0Zm177.144 12.178c0 .459-.683 1.378-1.195 1.838-.341-.46.854-1.379 1.195-1.838Zm13.141 26.192h-1.195c0-.69.171-.919.683-1.379 0 .689 1.024.46 1.024 1.379-.512 0-.171.459-.683.459-.171-.23.171 0 .171-.459Zm-206.156 7.352c-.17.23-1.024 0-1.195.459-.34 0 .512-.689 1.195-.459Zm-7.338 1.15c.341 0 1.194-.23 1.365.23-.512-.23-.683 0-1.195 0 0 0 0-.23-.17-.23Zm8.362 19.989c.341 0 .512.229.853.229 0 .23-.853 0-.853.23-.341 0 .17-.23 0-.459Zm50.003 38.829c.17.23 1.195 0 1.195.459-.342.46-1.024 0-1.195-.459Zm57.512 13.556c.171-.23.512.229 1.024 0-.171.229-.342.229-.853.229 0 0 0-.229-.171-.229Zm58.024-129.356c.853.459.341 1.149.341 1.838h-1.024c.512-.689.512-1.379.683-1.838Zm-2.219 5.285c0 .23.512.23.342.69-.342.229-.171 0-.512 0 .17.229.17.229.17.459-.512 0-1.024-.459-1.365-.23-.512-.229 0-.459-.341-.689.512-.23.853-.23 1.706-.23Z" clip-rule="evenodd"/><path fill="#fff" d="M184.582 266.036c-.236-.636-.672-1.176-1.316-1.684-.948-.744-2.344-1.412-4.212-2.184-1.256-.52-2.168-.888-2.876-1.16.008-.164.024-.36.052-.608l.084-.74-.644-.372c-.796-.46-2.816-1.456-3.048-1.54-1.592-.596-2.564-.92-3.8-.904-.004-.044 0-.084-.004-.128-.088-.792-.388-1.384-.912-1.792-.296-.236-.668-.408-1.112-.524-3.496-.908-6.772-.332-9.804 1.528-.116-.564-.216-1.128-.36-1.696l-.336-1.296-1.224.544c-10.192 4.552-14.776 11.972-13.632 22.064a2.667 2.667 0 0 0-.288.092l-.808.312c-1.56.6-3.116 1.204-4.644 1.888-.828.376-1.368 1.072-1.588 1.908-7.692-1.928-15.044-4.776-22.112-8.304 2.492-.252 4.968-.84 7.16-1.728 5.06-2.048 9.24-5.22 12.66-8.056l-.904-1.268c2.876-2.408 5.092-5.916 6.36-10.14 1.232-4.104 1.648-8.792 1.304-14.752l-.276-4.788a46.658 46.658 0 0 0-.652-9.664l-.468-2.708c.524-1.7 1.32-3.256 2.348-4.556l3-3.8-4.78-.756a9.679 9.679 0 0 0-1.532-.124c-1.592 0-3.008.4-4.252.976l-.092-.028a21.178 21.178 0 0 0-6.368-.988c-5.416 0-10.364 2.104-13.804 5.756a12.917 12.917 0 0 0-1.52-.092c-3.656 0-6.772 1.552-9.624 3.496.136-8.568.552-16.732 1.324-24.6.736-7.504 1.168-15.156 1.588-22.556.236-4.088.468-8.176.752-12.256.82-11.944-2.216-23.268-9.552-35.64-4.888-8.248-10.788-16.056-17.54-23.204-.516-.544-.98-1.676-1.06-2.588-1.748-19.264-3.42-38.532-5.092-57.808l-.82-9.464c1.332-.88 2.264-2.316 2.264-4.024V15.568h-2.84a6.105 6.105 0 0 0-.632-1.756c.028-.176.04-.348.04-.52 0-2.424-2.184-4.396-4.872-4.396-.448 0-.892.056-1.32.168-1.124-2.308-3.96-3.768-6.872-3.288C54.598 2.372 50.934 0 46.778 0c-5.34 0-9.68 3.856-9.68 8.592v.112c-1.272.948-2.016 2.348-2.016 3.856 0 .364.048.728.144 1.092-.308.564-.492 1.28-.608 1.912h-2.92v10.512c0 1.76 1.004 3.236 2.432 4.104l-.336 4.204c-.336 4.2-.668 8.348-1.028 12.488l-.428 4.944c-1.312 15.092-2.624 30.188-4.056 45.264-.1 1.092-.736 2.504-1.464 3.292-6.388 6.84-12.288 14.772-18.044 24.244-7.176 11.812-9.844 25.652-8.392 43.556l.8 9.596c1.124 13.316 2.288 27.084 2.532 40.612.2 11.056-.444 22.352-1.072 33.28-.244 4.276-.488 8.548-.684 12.82-.228 4.868-.5 9.736-.776 14.604-.404 7.14-.808 14.276-1.056 21.424-.156 4.6 1.096 8.416 3.628 11.036 2.2 2.28 5.22 3.488 8.736 3.496a19096.12 19096.12 0 0 0 79.388 0c3.528-.008 6.56-1.228 8.76-3.524 1.324-1.38 2.272-3.104 2.868-5.072.4-.116.788-.248 1.176-.38-.132 3.656 1 6.872 3.624 9.5.744.744 1.612.94 2.58.584.268-.1.46-.268.716-.38.332.816.74 1.516 1.436 2.324.652.756 3.56 2.988 4.444 3.508l.92.248.62-.592c.564-.388.996-.908 1.48-1.376 1.04 1.108 2.172 2.092 2.984 2.508l.792.412c2.456 1.272 4.076 2.116 5.672 1.544.636-.228 1.18-.66 1.696-1.3.752-.94 1.436-2.328 2.224-4.188.532-1.252.908-2.156 1.188-2.868.164.008.36.028.604.056l.74.092.38-.64c.464-.792 1.48-2.804 1.568-3.032.612-1.588.944-2.556.94-3.792.044-.004.084 0 .128-.004.792-.08 1.388-.376 1.804-.892.236-.296.416-.664.536-1.108.94-3.488.396-6.768-1.436-9.816.564-.112 1.128-.204 1.7-.344l1.3-.324-.536-1.228c-4.456-10.236-11.828-14.892-21.932-13.844a2.636 2.636 0 0 0-.088-.288l-.304-.812c-.248-.656-.52-1.304-.776-1.96a104.274 104.274 0 0 0 15.488 4.884c.34.24.72.424 1.164.468.192.02.412-.028.62-.04.244.052.48.124.724.172-.032-.068-.036-.148-.064-.22.452-.096.908-.26 1.324-.484a14.086 14.086 0 0 1 3.928-1.424c4.404 12.024 14.896 14.792 23.404 13.316l1.24-.216-.348-1.216c-.176-.624-.396-1.22-.604-1.82 3.66.096 6.864-1.064 9.464-3.712.736-.748.924-1.62.56-2.584-.1-.268-.272-.46-.388-.712.812-.336 1.508-.752 2.312-1.456.752-.66 2.956-3.588 3.464-4.476l.236-.92-.596-.612c-.396-.56-.916-.988-1.392-1.464 1.1-1.052 2.068-2.192 2.476-3.008l.404-.8c1.24-2.472 2.068-4.104 1.48-5.692Zm-71.34 9.192c-.092.22-.176.44-.208.692-.092.804.112 1.78.544 2.608a14.1 14.1 0 0 1 1.388 3.94c-3.92 1.392-6.78 3.48-8.928 5.896-.152-4.876-2.148-9.36-6.12-13.38.06-.08.116-.164.168-.248l.44-.748c.68-1.14 1.332-2.296 1.972-3.46 1.008.324 2.044.6 3.14.768 2.508 1.388 5.032 2.716 7.604 3.932Zm-3.927-6.468c-.956 0-1.904-.096-2.844-.22a142.406 142.406 0 0 1-3.98-2.308c-.028-.032-.044-.068-.072-.1a2.842 2.842 0 0 0-1.372-.764c-.14-.084-.28-.164-.42-.252.196-.52.4-1.048.596-1.568l13.456 4.58c-1.717.392-3.533.632-5.364.632Zm8.775-1.664c-.46.188-.956.344-1.448.5l-15.012-5.108a243.707 243.707 0 0 1 1.956-4.944l18.552 7.532c-1.307.748-2.643 1.448-4.048 2.02Zm5.132-2.676c-.06-.084-.116-.176-.22-.216l-18.996-7.712a151.66 151.66 0 0 1 2.46-5.636l21.808 9.52a.57.57 0 0 0 .748-.292c.048-.112.028-.228.008-.34.336-.056.688-.088.972-.26-2.152 1.784-4.4 3.464-6.78 4.936Zm4.721-5.428-21.008-9.168a98.38 98.38 0 0 1 2.692-5.312c.02-.04.044-.072.064-.112l22.892 9.492c-1.192 2.06-2.733 3.816-4.64 5.1Zm6.612-9.552a21.75 21.75 0 0 1-1.4 3.468c-.008-.004-.008-.012-.016-.016l-22.872-9.484a119.884 119.884 0 0 1 2.652-4.508l22.108 8.532c-.152.672-.277 1.356-.472 2.008Zm.727-3.124-21.736-8.388a94.97 94.97 0 0 1 2.908-4.308l19.22 6.312c.052.016.1.02.152.024-.028 2.164-.18 4.3-.544 6.36Zm-18.12-13.656a78.005 78.005 0 0 1 3.112-3.952l14.872 4.736c.036.012.072.012.108.016a38.65 38.65 0 0 1-.552 3.564l1.044-1.356c.06 1.044.088 2.088.096 3.128l-18.68-6.136Zm17.692-11.128c.256 1.476.416 2.948.52 4.416l-9.996-2.74c3.056-2.916 6.336-5.424 9.868-7.652a18.68 18.68 0 0 0-1.588 6.44c.397-.156.796-.308 1.196-.464Zm.564 5.6a42.03 42.03 0 0 1-.08 5.176l-14.272-4.544a68.886 68.886 0 0 1 3.4-3.636l10.952 3.004Zm-25.24-9.568c.504 0 1.02.04 1.544.12l.26 1.392c2.84-4.58 7.976-7.18 13.52-7.18 1.816 0 3.676.28 5.512.86l-.496 1.552c1.772-1.36 3.572-2.368 5.692-2.368.352 0 .716.028 1.088.088-.316.4-.572.848-.848 1.28-.284-.192-.624-.272-.944-.088-11.116 6.684-19.588 16.064-27.476 30.42-3.48 6.336-6.36 13.52-8.96 20.452.024.028.044.068.068.096a180.472 180.472 0 0 1-4.268-2.768c-.208.092-.416.152-.624.232-.04-.04-.072-.08-.112-.12.108-.076.244-.136.344-.212 4.464-3.472 5.792-9.168 6.092-10.832 1.28-7.08-1.652-13.524-8.476-18.644-.148-.112-.3-.204-.448-.312 3.288-5.144 7.288-8.592 8.06-9.184 3.068-2.352 6.472-4.784 10.472-4.784Zm-24.816 86.408c-.132-.48-.192-.932-.28-1.396.58-.34 1.144-.72 1.696-1.14a11.57 11.57 0 0 0 1.74 3.484c-.712.528-1.444.736-2.768 1.16-.116.028-.676.152-1.308.28.673-.512 1.136-1.596.92-2.388Zm1.552-5.556c-3.276 3.176-7.244 4.528-11.732 4.004a.929.929 0 0 1-.332-.288c-1.7-4.092-1.62-8.248.228-12.356.12-.264.292-.456.272-.464 1.792-.508 3.424-1.256 5-2.08.104.42.2.844.352 1.264l.408 1.168c.928 2.732 1.32 3.024 4.196 3.144l1.236.06c.284.016.564-.032.844-.032a32.254 32.254 0 0 0-.472 5.58Zm-15.24 1.024c.232 1.192.592 2.38 1.084 3.568.308.728 1.18 1.548 2.108 1.656.74.084 1.464.128 2.18.128 2.128 0 4.132-.392 6.012-1.156.068.288.104.568.196.86-.516 1.024-2.652 1.344-5.248 2.076-2.02.568-4.188 1.084-4.94.624-.596-.368-.896-1.848-1.304-3.904l-.184-.88c-.14-.692-.068-1.832.096-2.972Zm-.903-4.836c-.34.476-.636 1.272-.88 2.176-.5-.032-1-.064-1.496-.192-.076-1.352-.084-3.652.008-4.144.136-.72.384-1.412.704-2.088 1.068.332 2.14.508 3.204.544a17.599 17.599 0 0 0-.704 3.068 1.716 1.716 0 0 0-.836.636Zm3.963-7.476c-.796.228-1.308.948-1.564 1.408-1.888.064-3.844-.34-5.724-1.532.376-3.4 2.06-5.936 5.004-7.756 2.332 1.28 4.752 2.288 7.248 2.944l.012.276c.032.832.064 1.636.176 2.424l.012.076c-1.62.876-3.308 1.636-5.164 2.16Zm11.004-63.096v3.992c-2.944-1.412-5.156-2.068-5.188-2.076-2.288-.656-4.728-1.3-7.208-1.3-1.628 0-3.128.284-4.476.852a17.209 17.209 0 0 0-6.884-1.416c-3.36 0-6.54.94-9.22 2.72a9.27 9.27 0 0 0-4.688.912l-4.972 2.44 4.888 2.608c1.108.592 2.14 1.38 3.036 2.308l.516 1.704a33.613 33.613 0 0 0 2.808 6.616l1.388 3.172c1.752 4.008 3.708 7.14 5.976 9.572 2.36 2.528 5.164 4.368 8.068 5.316l-.244 1.028c3.412 1.104 7.484 2.26 11.828 2.48.356.02.72.028 1.084.028 3.288 0 6.508-.728 9.168-1.972 1.448 1.628 3.348 3.44 5.636 4.976-.564 1.216-1.232 2.304-2.064 3.272-10.228-6.32-19.632-2.908-25.524 2.848-12.62 3.992-25.396 3.748-38-.868-9.144-3.348-12.768-9.792-12.928-22.984-.236-19.936-.14-40.22-.048-59.836l.068-15.636c.032-8.076 2.772-14.2 7.72-17.256 5.196-3.204 10.24-5.288 14.996-6.192 4.052-.768 7.936-1.152 11.692-1.152 6.044 0 11.744.996 17.232 3 1.688.62 3.536 1.564 5.64 2.888 6.432 4.052 9.696 11.164 9.696 21.14l-.004 36.32.008 10.496Zm-21.96 30.164c-2.347-2.516-4.063-5.596-5.451-8.776.4.22.8.44 1.204.656a30.717 30.717 0 0 1-5.28-10.128l1.012.036a15.473 15.473 0 0 0-4.092-4.548c11.108 2.204 20.748 8.372 28.764 14.248 4.868 3.568 9.616 7.952 14.024 12.16-.392.424-.756.872-1.212 1.224-2.676 2.08-6.732 3.068-10.296 3.068-.32 0-.632-.008-.944-.024-3.768-.192-7.476-1.176-11.1-2.344a2.442 2.442 0 0 0 2.064-.58c-3.317-.54-6.345-2.472-8.692-4.992Zm17.22-9.972c-8.16-5.984-17.992-12.268-29.412-14.548.184-.016.36-.06.544-.06.964 0 1.932.212 2.816.632l-.876-.908c2.304-1.616 5.096-2.424 7.904-2.424 2.756 0 5.532.78 7.88 2.34-.092-.324-.188-.648-.28-.972 1.184-.58 2.456-.804 3.76-.804 2.124 0 4.34.588 6.424 1.188 1.724.496 20.624 6.892 18.02 21.308-.36 1.996-1.256 4.4-2.68 6.468-4.416-4.22-9.18-8.616-14.1-12.22ZM69.578 18.408v7.672c0 1.148-.932 2.08-2.084 2.08H50.982c.268-3.156.78-7.32 1.1-9.752h17.496ZM37.134 14.78l.732-.516-.336-.832a2.347 2.347 0 0 1-.188-.868c0-.908.556-1.76 1.476-2.28l.648-.364-.076-.74a5.65 5.65 0 0 1-.036-.584c0-3.488 3.328-6.324 7.416-6.324 3.544 0 6.6 2.152 7.276 5.116l.276 1.224 1.188-.4c2.532-.832 5.072.52 5.484 2.564l.308 1.52 1.352-.756c.436-.244.94-.372 1.452-.372 1.436 0 2.604.952 2.604 2.128 0 .132-.024.28-.076.468l-.276.628.576.464c.08.104.18.348.268.612-1.764.036-3.16.072-4.424.104h-12.5v.008l-.1-.004-.14 1.012c-.02.116-1.624 11.908-1.492 15.12.028.648.316 1.312.592 1.952.168.384.396.912.408 1.14.02.332-.132.688-.408.976-.408.424-1.036.66-1.776.66h-.016c-1.008-.004-1.94-.588-2.128-1.328-.156-.612.02-1.388.556-2.444l.324-.616c.452-.86.92-1.748 1.112-2.792.192-1.088.012-8.856-.484-11.444-.044-.744-.096-1.488-.104-2.236h-9.708c.076-.372.156-.692.22-.796Zm-2.544 3.624h1.5c.828.124 2.044.132 4.1.08 1.448-.032 3.332-.076 4.388.044.284 1.908.508 7.536.444 9.632h-8.304c-1.172 0-2.128-.932-2.128-2.08v-7.676Zm63.176 290.368c-1.436 1.5-3.48 2.296-5.904 2.304-26.456.056-52.916.056-79.372 0-2.416-.004-4.452-.796-5.888-2.284-1.764-1.832-2.636-4.648-2.516-8.144.244-7.116.644-14.228 1.048-21.336.276-4.88.556-9.76.776-14.644.2-4.256.44-8.516.684-12.776.628-11 1.28-22.376 1.08-33.576-.248-13.664-1.416-27.496-2.548-40.876l-.8-9.584c-1.38-17.032 1.108-30.112 7.828-41.172 5.612-9.236 11.356-16.956 17.552-23.596 1.32-1.416 2.336-3.676 2.52-5.624.16-1.692.296-3.388.456-5.08H61.41v-2.268H32.886a7069.623 7069.623 0 0 0 3.396-37.948l.428-4.944c.36-4.148.692-8.308 1.032-12.516l.172-2.152h5.428c-.352.896-.604 1.984-.316 3.104.44 1.752 2.252 3.028 4.308 3.04h.032c1.368 0 2.58-.484 3.416-1.36.704-.74 1.084-1.708 1.032-2.66-.032-.636-.316-1.292-.588-1.924-.028-.06-.056-.132-.084-.2h15.24l.64 7.36c1.672 19.276 3.348 38.552 5.092 57.82.16 1.812.992 3.756 2.124 4.956 6.552 6.936 12.272 14.508 17.012 22.504 6.908 11.648 9.768 22.244 9.004 33.344-.28 4.096-.516 8.2-.752 12.308-.42 7.36-.856 14.968-1.584 22.392-.876 8.952-1.332 18.236-1.396 28.104-2.24 1.976-4.916 4.94-7.24 8.62-.428-.26-.864-.532-1.284-.764 0-1.72.004-3.44.004-5.164l-.024-11.628.004-35.192c0-10.808-3.616-18.564-10.752-23.06-2.244-1.412-4.228-2.424-6.068-3.096-9.296-3.392-19.156-4.032-30.124-1.944-5.032.956-10.336 3.136-15.76 6.488-5.64 3.48-8.764 10.292-8.796 19.176l-.072 15.632c-.088 19.624-.188 39.916.052 59.876.168 14.132 4.344 21.4 14.416 25.084 7.02 2.572 14.088 3.852 21.156 3.852 5.516 0 11.028-.848 16.52-2.42l.18.132c.524.38 1.064.712 1.6 1.06-2.936 2.184-4.736 5.08-5.144 8.768-.116 1.044.272 1.844 1.156 2.38.236.144.476.244.716.368-.416.752-.696 1.5-.888 2.528-.184.984-.104 4.648.044 5.664l.384.872.848.112c.656.196 1.316.316 1.984.4-.204 1.468-.252 2.916-.076 3.788l.176.876c.544 2.712.9 4.504 2.344 5.392.58.352 1.252.508 2.076.508 1.204 0 2.716-.336 4.66-.884 1.312-.368 2.252-.64 2.98-.868.096.132.204.3.332.508l.392.632.74-.104c.912-.132 3.112-.596 3.348-.672 1.62-.516 2.584-.864 3.544-1.64.032.032.052.064.084.096.56.568 1.16.848 1.824.848.38 0 .776-.092 1.2-.276 3.308-1.448 5.528-3.928 6.76-7.26.136.116.276.232.416.344l.012.272c.14 3.472-.72 6.288-2.48 8.124Zm-9.052-9.056c.332-.448.568-.996.556-1.508a26.87 26.87 0 0 1 .428-5.456 17.502 17.502 0 0 0 3.184-.72c1.436 2.352 3.148 4.444 5.12 6.36-.94 3.216-2.828 5.488-5.856 6.812-.216.092-.288.092-.5-.084-1.66-1.7-2.52-3.316-2.932-5.404Zm14.893-7.936a20.054 20.054 0 0 0-2.208 6.644c-2.88-2.392-5.192-5.128-7.032-8.34l-.484-.844-.908.348c-2.068.8-4.176 1.156-6.304 1.012l-1.268-.06c-.696-.028-1.416-.06-1.564-.144-.128-.12-.36-.804-.584-1.464l-.416-1.204c-.384-1.072-.58-2.248-.708-3.152-.096-.716-.124-1.44-.152-2.192l-.1-2.004-.828-.192c-3.384-.784-6.64-2.208-9.708-4.224.156-.052.312-.088.464-.14-.104-.104-.128-.264-.208-.392 5.424-5.068 13.936-7.896 23.144-1.764l.78.52.656-.668c1.248-1.268 2.208-2.724 3-4.372.38.204.772.396 1.172.58-.58 1.04-1.164 2.076-1.772 3.1l-.448.756c-.056.092-.18.228-.312.368l-1.028 1.172.788.744c5.003 4.704 6.984 9.96 6.028 15.912Zm6.299 22.184c-2.42-2.416-3.344-5.324-2.92-8.756 2.46-1.02 4.76-2.276 6.832-3.816l.224.164c.672.496 1.316.976 2.004 1.38.02.012.048.024.064.036-.332 1.812-.796 3.6-1.548 5.38-.32.764-.076 1.612.12 2.104-1.132 1.512-2.672 2.788-4.776 3.508Zm8.068 5.252c-1.104-.788-2.9-2.22-3.228-2.596-.484-.564-.868-1.2-1.2-1.884a12.076 12.076 0 0 0 2.424-2.152 17.875 17.875 0 0 0 1.968 2.492 1.748 1.748 0 0 0-.028 1.048c.16.564.592 1.292 1.148 2.048-.336.368-.672.74-1.084 1.044Zm-1.135-9.476c-.128-.26-.172-.512-.188-.504.724-1.72 1.164-3.456 1.504-5.204.396.18.78.372 1.208.516l1.164.412c2.712.984 3.184.86 5.076-1.308l.82-.924c.188-.212.324-.46.504-.68a32.42 32.42 0 0 0 4.06 3.856c.428 4.544-.996 8.484-4.212 11.656a.913.913 0 0 1-.432.08c-4.261-1.228-7.457-3.888-9.504-7.9Zm14.935 8.224c-.82 1.932-1.772 3.948-2.604 4.248-.66.236-2.004-.46-3.86-1.424l-.804-.412c-.616-.316-1.444-1.084-2.22-1.912a18.357 18.357 0 0 0 3.424 1.364c.76.216 1.948.048 2.612-.608a19.68 19.68 0 0 0 1.464-1.62 15.843 15.843 0 0 0 2.86-5.412c.264.128.508.272.796.384.476 1.044-.611 2.912-1.668 5.392Zm4.464-6.356a40.05 40.05 0 0 1-.6 1.196c.02-.844-.536-1.884-1.288-2.208-.46-.196-.848-.432-1.264-.656.096-.664.152-1.344.172-2.04 1.22.492 2.46.756 3.808.82-.032.892-.332 1.592-.828 2.888Zm3.317-5.536c-.06.228-.108.284-.38.336-2.364.236-4.164-.104-6.052-1.092-.144-.54-.42-1.064-.832-1.376a26.886 26.886 0 0 1-3.988-3.748c.56-.924 1.04-1.9 1.432-2.936 2.736.352 5.44.324 8.164-.016 1.924 2.748 2.515 5.64 1.656 8.832Zm-19.489-22.588c9.236-1.304 15.808 2.336 20.056 11.124-3.692.764-7.296.856-10.976.276l-.96-.148-.292.924c-.668 2.112-1.708 3.98-3.152 5.552l-.84.952c-.46.524-.932 1.068-1.088 1.128-.176.024-.852-.224-1.508-.46l-1.2-.428c-1.076-.372-2.116-.952-2.9-1.42-.62-.372-1.2-.804-1.808-1.252l-1.628-1.176-.668.528c-2.636 2.076-5.684 3.652-9.032 4.78.14-1.076.196-2.204.148-3.388-.036-.852-.072-1.668-.112-2.492.768-1.836 1.304-3.628 1.624-5.376 2.02-3.544 5.468-6.576 10.852-8.288l.896-.284-.112-.928c-.232-1.964-.812-3.804-1.768-5.632-.22-.424-.344-.944-.304-1.3 0-.012.016-.012.02-.024.472.212.948.416 1.424.624a96.545 96.545 0 0 1 1.588 4.024l.308.824c.036.1.064.28.092.472l.272 1.536 1.068-.148Zm48.828-24.424c.888.024 1.592.316 2.892.8.112.048.628.3 1.204.588-.844-.012-1.876.556-2.196 1.308-.192.46-.424.852-.644 1.272a17.117 17.117 0 0 0-2.04-.152c.48-1.224.732-2.468.784-3.816Zm8.94 10.212c.056.088.1.34.084.432-1.192 4.268-3.824 7.488-7.816 9.572-.26.132-.512.176-.5.196-1.724-.708-3.468-1.128-5.22-1.456.176-.396.364-.784.508-1.212l.404-1.168c.956-2.72.832-3.192-1.356-5.064l-.932-.812c-.212-.188-.464-.32-.684-.496a32.757 32.757 0 0 0 3.816-4.096c4.54-.472 8.496.916 11.696 4.104ZM166.219 256.6c.228.06.284.104.34.376.26 2.36-.064 4.164-1.032 6.06-.54.148-1.064.432-1.368.844a26.907 26.907 0 0 1-3.708 4.024 17.187 17.187 0 0 0-2.948-1.4c.324-2.74.272-5.44-.096-8.164 2.723-1.952 5.611-2.572 8.812-1.74Zm-21.529 23.184-.292-.892-.928.12c-1.852.236-3.592.812-5.312 1.692-.616-.124-1.22-.292-1.832-.428.076-.184.188-.308.304-.364 1.484-.668 3.008-1.252 4.528-1.84l.82-.316c.1-.04.28-.068.472-.096l1.532-.288-.16-1.072c-1.392-9.224 2.184-15.832 10.928-20.16.8 3.684.924 7.288.384 10.972l-.14.964.928.284c2.12.648 3.996 1.672 5.584 3.1l.96.832c.528.452 1.076.92 1.14 1.08.028.176-.216.856-.444 1.512l-.416 1.204c-.36 1.08-.932 2.124-1.392 2.912-.364.624-.792 1.208-1.236 1.82l-1.16 1.64.532.664c2.228 2.768 3.94 5.976 5.104 9.548-7.539.856-16.36-2.088-19.904-12.888Zm20.977 9.392c-1.04-2.448-2.32-4.736-3.88-6.796l.164-.224c.492-.676.964-1.324 1.36-2.016.012-.02.024-.048.036-.068 1.812.316 3.608.764 5.396 1.496.764.312 1.612.06 2.1-.14 1.524 1.116 2.812 2.644 3.552 4.744-2.397 2.44-5.293 3.392-8.728 3.004Zm11.336-7.872c-.56.492-1.196.88-1.876 1.22a12.185 12.185 0 0 0-2.176-2.404c.9-.604 1.724-1.268 2.472-1.992.316.1.66.132 1.048.016.564-.164 1.288-.604 2.036-1.168.372.336.748.668 1.056 1.076-.773 1.108-2.188 2.92-2.56 3.252Zm4.067-10.604-.404.808c-.312.62-1.072 1.452-1.892 2.24a18.792 18.792 0 0 0 1.332-3.436c.208-.764.028-1.948-.636-2.604a18.887 18.887 0 0 0-1.632-1.448 15.864 15.864 0 0 0-5.44-2.808c.124-.268.268-.512.38-.8 1.04-.484 2.916.58 5.408 1.616 1.94.8 3.964 1.736 4.272 2.564.24.652-.44 2-1.388 3.868Z"/></svg>