<svg
  xmlns="http://www.w3.org/2000/svg"
  width="2500"
  height="897"
  viewBox="0 0 2500 897"
  fill="none"
>
  <path
    d="M2454.92 362.163H1483.94C1482.81 364.921 1481.56 367.68 1480.28 370.362H2454.89V362.163H2454.92Z"
    fill="#41403C"
  />
  <path
    d="M2482.96 303.559H1517.46C1519.23 291.182 1520.13 278.695 1520.14 266.191C1520.14 119.398 1400.74 0 1253.99 0C1107.23 0 987.796 119.398 987.796 266.153C987.796 278.848 988.741 291.317 990.479 303.522H17.041C12.5346 303.531 8.21567 305.326 5.02916 308.513C1.84265 311.699 0.0480669 316.018 0.0380859 320.524L0.0380859 879.997C0.0380859 889.368 7.67052 897 17.041 897H2482.96C2487.47 897 2491.79 895.209 2494.98 892.02C2498.17 888.831 2499.96 884.507 2499.96 879.997V320.524C2499.95 316.022 2498.16 311.706 2494.97 308.526C2491.78 305.345 2487.46 303.559 2482.96 303.559V303.559Z"
    fill="#41403C"
  />
  <path
    d="M1497.13 320.524C1505.28 284.081 1505.13 246.272 1496.71 209.892C1488.28 173.512 1471.78 139.491 1448.43 110.346C1425.08 81.2001 1395.49 57.6747 1361.82 41.5086C1328.16 25.3425 1291.29 16.9492 1253.95 16.9492C1216.61 16.9492 1179.74 25.3425 1146.08 41.5086C1112.41 57.6747 1082.81 81.2001 1059.47 110.346C1036.12 139.491 1019.62 173.512 1011.19 209.892C1002.76 246.272 1002.62 284.081 1010.77 320.524H17.041V879.997H2482.96V320.524H1497.13Z"
    fill="#F3B822"
  />
  <path
    d="M1476.88 308.169C1474.27 301.746 1463.24 282.967 1449.33 264.377C1438.97 251.205 1427.63 238.839 1415.4 227.386C1415.4 225.195 1413.06 222.588 1409.88 219.225C1386.95 195.081 1348.37 184.614 1333.71 184.614C1322.15 184.614 1310.02 192.209 1306.2 194.778L1298.08 173.733C1296.42 169.35 1294.94 165.458 1295.51 162.359C1298.91 167.498 1304.99 168.103 1307.72 168.103C1309.3 168.103 1313.27 167.725 1316.44 164.4C1318.91 161.609 1320.19 157.959 1319.99 154.236C1319.94 151.437 1319.17 148.7 1317.73 146.295C1316.3 143.89 1314.27 141.899 1311.83 140.52L1321.92 132.321H1282.36L1278.21 110.482L1296.72 92.5718L1271.74 89.5113L1261.28 65.4805L1250.81 89.5113L1225.84 92.5718L1244.35 110.482L1240.12 132.359H1199.99L1210.08 140.558C1207.64 141.934 1205.61 143.924 1204.18 146.33C1202.74 148.736 1201.97 151.474 1201.92 154.274C1201.92 158.543 1203.13 161.944 1205.47 164.438C1206.6 165.609 1207.96 166.541 1209.46 167.177C1210.96 167.813 1212.57 168.141 1214.2 168.14C1216.88 168.14 1223 167.498 1226.4 162.397C1226.97 165.496 1225.5 169.387 1223.8 173.77L1219.45 185.295C1214.88 181.894 1202.22 172.864 1196.63 172.864L1196.52 172.523C1195.72 170.634 1193.23 169.727 1188.66 169.652C1187.56 168.556 1184.65 165.987 1182.46 166.705C1182.27 166.754 1182.1 166.831 1181.93 166.931C1181.6 166.306 1181.15 165.753 1180.61 165.307C1179.06 163.984 1176.94 163.531 1174.26 163.833C1171.77 161.642 1168.63 159.45 1166.89 160.621C1166.82 160.66 1166.76 160.711 1166.7 160.773C1165.89 159.973 1164.91 159.358 1163.83 158.967C1162.76 158.576 1161.61 158.419 1160.47 158.505C1158.77 157.599 1149.4 152.611 1141.35 152.536C1139.05 151.364 1126.54 145.394 1120.8 149.513C1115.51 147.699 1110.29 146.906 1107.99 149.626C1107.99 149.626 1104.85 149.513 1102.7 149.211C1088.57 147.397 1079.54 148.228 1075.83 151.667C1058.64 153.556 1059.51 155.974 1058.64 156.39C1049.91 160.735 1043.6 165.382 1048.59 169.387C1051.92 172.032 1058.98 165.08 1072.17 164.06C1080.82 163.38 1103 165.76 1113.35 171.352C1120.8 175.357 1133.6 181.327 1145.58 195.61C1145.58 195.61 1181.44 239.44 1197.04 243.747C1196.06 246.392 1195.04 248.621 1193.8 251.908C1191.45 250.624 1179.17 243.898 1176.53 241.48C1173.09 238.306 1168.33 238.268 1164.1 241.404C1161.79 243.105 1160.89 242.387 1158.84 240.762C1157.64 239.897 1156.43 239.04 1155.22 238.193C1152.53 236.341 1149.74 234.376 1147.25 234.376C1146.22 234.437 1145.23 234.726 1144.33 235.223C1143.43 235.72 1142.66 236.412 1142.07 237.248C1140.75 239.024 1139.5 243.596 1140.78 249.188C1141.31 247.941 1144.83 245.561 1147.62 246.694C1150.72 247.941 1152.5 253.533 1153.14 255.762L1149.93 254.931L1146 251.304L1146.6 254.024L1140.86 252.475L1139.95 254.289C1139.16 255.384 1140.29 258.369 1147.96 265.322C1153.59 270.385 1157.14 272.35 1159.52 273.634C1160.47 274.163 1161.19 274.541 1161.72 274.957C1162.36 275.524 1163.3 276.128 1164.32 276.846C1166.4 278.244 1169.01 279.982 1170.67 282.022C1172.33 284.063 1175.17 286.103 1177.93 288.106C1178.42 288.484 1178.91 288.861 1179.4 289.164C1173.07 305.566 1166.8 321.99 1160.58 338.434C1156.69 348.863 1151.63 355.249 1144.41 360.047C1144.41 357.213 1143.01 353.813 1139.76 349.921C1136.97 346.596 1132.81 344.896 1127.37 344.896C1117.55 344.896 1112.14 351.168 1112.14 362.503C1112.14 366.962 1114.03 372.365 1119.13 374.518L1083.2 396.282H1148.34C1148.38 396.207 1153.67 387.743 1162.77 387.743C1171.96 387.743 1177.93 396.207 1178 396.282H1211.44C1216.62 402.139 1219.07 407.315 1219.11 407.429C1235.92 412.076 1250.21 435.805 1250.32 436.031C1267.9 427.937 1284.19 417.307 1298.68 404.481L1300.08 405.048L1299.44 403.801C1302.2 401.232 1304.62 398.587 1306.69 396.396H1337.53C1337.56 396.32 1343.57 387.743 1352.75 387.743C1361.86 387.743 1367.15 396.282 1367.19 396.396H1432.33L1396.39 374.518C1401.5 372.365 1403.38 366.962 1403.38 362.503C1403.38 356.609 1401.91 352.075 1399 349.014C1397.59 347.601 1395.89 346.504 1394.02 345.794C1392.15 345.084 1390.15 344.778 1388.16 344.896C1382.72 344.896 1378.56 346.596 1375.76 349.921C1373.24 353.339 1371.94 357.502 1372.06 361.747C1364.85 356.949 1358.84 348.863 1354.95 338.397L1351.73 329.895C1352.75 329.997 1353.78 329.828 1354.72 329.404C1361.56 334.883 1367.94 335.223 1369.45 335.223C1371.34 337.414 1373.2 338.472 1375.01 338.472C1377.12 338.434 1378.52 336.961 1379.28 335.941C1381.47 337.528 1382.53 337.528 1383.36 336.923C1384.72 335.903 1384.34 333.523 1382.19 328.686C1379.05 321.734 1353.21 288.521 1347.39 281.002C1350.68 281.909 1352.91 281.607 1354.08 280.171C1355.44 278.509 1354.98 275.901 1354.27 273.823C1359.48 276.166 1362.73 276.393 1364.35 274.579C1365.94 272.841 1365.34 269.818 1364.5 267.4C1368.36 269.44 1371.38 269.894 1373.54 268.722C1374.7 268.081 1375.59 267.031 1376.03 265.775C1383.25 270.725 1388.31 272.539 1391.11 271.141C1391.58 270.92 1392 270.582 1392.31 270.158C1395.26 272.35 1397.83 273.105 1400.02 272.425C1401.26 272.011 1402.31 271.183 1403.01 270.083C1407.81 275.486 1412.08 278.168 1415.66 278.055C1416.74 278.035 1417.78 277.721 1418.69 277.148C1423.07 281.456 1426.51 283.08 1429.12 282.098C1429.7 281.867 1430.23 281.52 1430.68 281.079C1431.13 280.637 1431.48 280.11 1431.72 279.529C1438.34 288.03 1443.78 292.3 1447.93 292.224C1448.67 292.231 1449.39 292.063 1450.05 291.733C1453.3 297.363 1468.11 308.396 1469.13 309.227C1473.89 313.006 1475.89 314.479 1477.25 313.346C1478.35 312.514 1477.93 310.814 1476.88 308.169V308.169ZM1890.58 476.763C1887.33 490.932 1873.27 502.532 1859.18 502.607C1845.08 502.683 1836.32 491.31 1839.53 477.141C1842.78 462.972 1856.83 451.372 1870.93 451.258C1885.02 451.145 1893.83 462.594 1890.58 476.763ZM1062.31 578.138C1062.83 577.156 1063.02 576.665 1062.31 578.138V578.138Z"
    fill="#41403C"
  />
  <path
    d="M2341.12 634.55C2337.54 640.51 2335.19 647.126 2334.2 654.009C2332.05 668.178 2342.93 678.682 2357.36 679.022C2383.7 679.664 2391.97 676.717 2408.79 665.23C2420.69 657.069 2426.96 647.585 2426.96 645.772C2426.96 640.142 2420.2 636.892 2418.23 636.892C2415.63 636.892 2410.45 644.525 2393.71 657.069C2383.66 664.588 2379.13 666.477 2368.62 666.477C2356.8 666.477 2349.73 659.941 2352.3 648.303C2361.07 608.818 2438.34 589.662 2442.64 566.765C2444.53 556.752 2436.26 552.973 2425.07 552.973C2402.1 552.973 2385.66 555.505 2365.49 593.743C2359.48 605.153 2340.1 612.71 2318.33 633.34L2317.2 632.169C2332.77 616.224 2338.02 605.229 2341.61 581.614C2342.19 578.102 2342.03 574.508 2341.13 571.063C2340.24 567.618 2338.63 564.399 2336.41 561.617C2334.19 558.834 2331.41 556.549 2328.25 554.91C2325.09 553.272 2321.62 552.316 2318.07 552.104C2292.75 549.837 2266.23 567.671 2190.66 633C2181.89 641.086 2179.63 644.562 2149.55 668.858C2102.7 705.357 2079.61 713.481 2061.44 713.481C2053.58 713.481 2035.14 712.385 2036.23 690.659C2036.57 683.896 2037.59 679.135 2039.98 672.485C2081.01 665.193 2183.22 630.62 2191.3 585.165C2195.23 563.137 2176.19 552.898 2155.86 552.898C2119.32 552.898 2076.06 569.825 2033.67 603.869C2033.67 603.869 2018.63 612.71 1947.78 674.11C1957.83 644.6 1946.91 629.827 1948.65 584.977C1948.95 577.269 1948.05 570.203 1954.55 568.427C1968.79 564.535 1979.41 557.81 1981.11 546.588C1982.28 538.917 1977.59 532.419 1962.22 532.419C1940.38 532.419 1938 554.258 1919.71 566.651L1851.81 625.67C1835.26 638.668 1819.88 655.18 1800.46 670.558C1775.75 690.622 1743.78 715.446 1726.89 714.199C1721 713.783 1715.03 712.914 1717.22 703.015C1719.34 693.569 1742.8 671.729 1839.42 554.825L1776.85 558.376C1776.85 558.376 1675.28 646.943 1658.16 661.112C1609.88 701.088 1580.18 713.065 1562.53 713.065C1546.13 713.065 1534.35 709.551 1536.61 688.014C1537.33 681.478 1538.16 677.85 1540.47 671.389C1580.29 664.286 1685.71 630.847 1690.36 586.299C1693.3 558.339 1671.58 552.369 1651.89 552.369C1616.41 552.369 1564.65 576.135 1520.93 612.068L1481.18 645.62C1466.9 657.409 1451.14 668.82 1423.37 670.029L1422.24 668.858C1446.84 648.756 1481.18 607.383 1489 581.614C1496.18 557.847 1478.05 551.575 1468.87 551.575C1454.43 551.575 1439.62 567.256 1432.86 598.541C1418.57 666.44 1345.08 713.065 1306.32 713.594C1295.81 713.708 1290.07 710.156 1291.43 701.315C1295.02 677.699 1332.84 653.48 1410.3 555.505L1352.11 559.056C1310.17 618.68 1215.86 714.199 1173.85 714.199C1165.31 714.199 1162.43 707.095 1163.45 700.634C1166.06 683.518 1266.23 580.858 1286.18 557.81L1227.27 558.83C1211.52 570.43 1188.66 591.06 1166.59 611.426C1149.29 626.199 1120.8 650.948 1094.27 671.54C1061.97 697.083 1039.45 709.136 1033.33 711.138C1024.97 713.934 1022.52 708.871 1024.11 701.692C1028.26 682.725 1085.62 614.335 1217.11 444.117L1159.64 446.081L1063.51 579.46L1062.34 578.251C1061.44 580.14 1059.4 583.881 1059.93 580.329C1062.72 562.079 1045.15 552.784 1028.22 552.784C983.563 552.784 921.597 589.322 879.996 621.854C862.465 635.532 844.555 651.553 836.167 659.487L815.99 674.639C783.495 699.01 760.107 714.274 750.887 714.274C742.99 714.274 741.933 709.325 743.86 703.053C748.96 686.805 823.093 614.713 865.223 557.243L807.98 559.17C757.802 626.048 665.835 711.592 627.371 715.37C622.156 715.899 616.111 710.496 618.869 703.884C625.972 687.183 654.273 655.633 739.779 557.243L679.324 557.885C657.674 575.719 626.577 605.493 607.949 622.836C575.228 653.291 566.764 661.49 567.52 659.827C595.254 596.312 524.522 572.054 524.522 572.054C660.583 550.744 672.787 448.197 636.212 420.766C612.786 403.196 538.351 372.969 456.888 460.175C443.88 455.298 430.779 450.675 417.592 446.308C418.098 445.278 418.539 444.218 418.914 443.134C421.975 432.97 437.164 418.763 437.164 418.763H373.233L363.447 430.174C320.94 418.914 274.011 409.96 228.141 408.146C76.1349 402.025 -4.08122 487.04 74.9258 544.472C135.985 588.906 204.828 580.027 243.331 569.485C208.947 609.159 178.757 643.693 169.462 653.404C154.537 669.009 90.9086 751.681 132.547 770.951C174.185 790.221 193.493 766.908 250.358 721.227C255.535 717.071 261.24 712.045 267.324 706.34C266.152 717.108 264.641 758.369 309.491 769.326C404.027 792.488 479.936 750.661 510.806 726.857C541.676 703.053 609.952 643.391 609.952 643.391C597.861 656.729 588.679 671.125 586.072 687.637C582.218 712.045 601.526 729.426 622.723 728.784C655.558 727.801 690.281 702.713 712.121 684.425C712.121 684.425 715.975 682.498 715.483 686.427C712.536 710.949 725.27 729.35 748.243 729.35C766.001 729.35 784.213 713.67 825.323 686.994C840.814 676.906 854.265 664.399 862.616 655.595C857.666 693.002 869.719 728.028 897.188 730.295C932.252 733.204 966.636 710.118 984.659 689.45L985.83 690.659C982.77 697.347 984.848 695.08 985.49 704.904C986.51 720.131 1001.4 730.295 1016.96 730.295C1042.02 730.295 1077.87 708.645 1132.74 659.412L1139.12 653.631L1139.16 653.668C1141.16 653.668 1160.92 635.948 1160.92 635.948L1163.19 637.912C1163.19 637.912 1136.7 666.175 1133.76 685.634C1130.77 705.131 1141.88 727.575 1168.25 728.255C1205.85 729.275 1240.57 697.536 1262.22 680.382L1263.36 681.553C1255.57 716.05 1278.96 729.275 1299.25 729.275C1346.52 729.275 1400.36 683.82 1407.69 683.82C1433.46 683.82 1455.34 690.055 1492.78 656.465L1496.15 658.089C1495.88 659.865 1493.43 666.288 1494.37 675.206C1497.51 704.866 1520.93 730.635 1557.62 729.086C1588.57 727.763 1613.81 715.332 1650.8 688.166C1672.9 672.221 1711.86 635.456 1713.67 633.869L1715.37 635.57C1699.92 654.16 1687.11 670.331 1684.12 689.941C1681.44 707.662 1697.08 727.65 1722.51 728.897C1758.52 730.673 1818.82 676.944 1854.83 645.054C1873.01 629.109 1923.56 581.878 1932.06 577.722L1933.2 578.893C1930.29 587.206 1932.03 599.335 1927.34 623.214C1919.67 662.17 1880.11 707.624 1855.89 712.348C1848.14 713.859 1845.76 711.214 1845.8 705.811C1845.84 699.954 1851.73 704.602 1853.55 690.47C1854.68 681.667 1849.32 673.996 1834.01 674.563C1822.22 675.017 1811.38 685.747 1809.83 695.798C1808.85 702.297 1812.97 711.856 1817.27 715.861C1828.08 725.95 1841.91 729.048 1857.02 728.897C1910.15 728.293 1940.83 701.541 1979.22 669.273C1982.09 666.855 1992.97 657.258 1992.97 657.258L1994.71 658.618C1989.91 690.244 2009.79 726.932 2047.12 727.537C2094.35 728.33 2116.49 712.688 2154.58 684.727C2177.4 668.291 2208.91 636.968 2219.49 628.353C2219.49 628.353 2267.51 582.709 2296.64 570.883C2308.85 565.933 2315.31 567.709 2314.74 572.47C2313.16 585.846 2266.04 627.937 2185.03 724.174L2243.9 720.471C2278.47 686.768 2305.6 660.545 2337.72 634.436L2341.12 634.55V634.55Z"
    fill="#41403C"
  />
  <path
    d="M72.5454 488.211C77.344 443.928 149.134 422.353 260.485 428.361C289.956 429.948 321.128 436.069 351.394 444.117C331.028 467.807 299.176 504.874 267.626 541.411C170.898 573.604 67.9735 530.416 72.5454 488.211V488.211ZM182.347 753.721C152.913 769.969 140.708 750.699 163.039 727.348C185.369 703.997 332.615 532.381 359.026 516.134C377.049 505.063 396.924 479.785 408.713 461.649C421.295 465.918 433.235 470.263 444.419 474.344C440.678 478.916 436.9 483.639 433.121 488.702C342.779 610.557 211.781 737.474 182.347 753.721V753.721ZM508.312 658.278C468.714 727.348 368.17 753.721 323.471 750.699C278.772 747.638 284.893 713.103 309.264 678.606C333.635 644.071 373.233 642.031 373.233 642.031C380.337 632.887 367.15 630.885 367.15 630.885C356.139 631.21 345.223 633.015 334.693 636.25C373.724 592.447 411.634 547.658 448.386 501.927C453.034 496.032 458.134 489.042 463.878 481.599C495.239 493.387 517.343 502.002 522.632 500.189C536.99 495.428 521.423 487.04 521.423 487.04C521.423 487.04 504.005 478.614 475.553 467.278C492.367 447.933 514.433 428.701 545.87 420.69C597.672 407.466 631.149 430.854 586.488 495.843C541.789 560.832 487.984 555.732 465.654 551.689C443.323 547.646 415.892 549.648 412.869 564.913C409.808 580.14 425.035 580.14 453.487 573.037C481.901 565.858 547.91 589.209 508.312 658.278V658.278Z"
    fill="#F3B822"
  />
  <path
    d="M2316.71 726.744C2318.12 722.324 2320.85 718.438 2324.52 715.598C2328.19 712.758 2332.63 711.098 2337.26 710.837C2346.07 710.837 2351.09 717.978 2348.52 726.744C2345.99 735.548 2336.81 742.689 2328.04 742.689C2319.24 742.689 2314.18 735.548 2316.71 726.744Z"
    fill="#41403C"
  />
  <path
    d="M2345.95 726.743C2348.07 719.413 2343.84 713.443 2336.51 713.443C2332.63 713.655 2328.92 715.04 2325.85 717.417C2322.79 719.793 2320.52 723.046 2319.35 726.743C2317.2 734.149 2321.43 740.081 2328.8 740.081C2332.68 739.867 2336.39 738.476 2339.46 736.093C2342.52 733.709 2344.79 730.448 2345.95 726.743Z"
    fill="#F3B822"
  />
  <path
    d="M2324 735.51H2327.17L2329.25 728.293H2332.62C2335 728.293 2334.88 729.275 2334.13 731.769C2333.7 732.974 2333.46 734.234 2333.41 735.51H2337L2337.15 735.019C2336.55 734.716 2336.73 734.036 2337.53 731.354C2338.51 727.915 2338.02 727.348 2336.92 726.668C2338.62 726.064 2340.02 724.326 2340.59 722.247C2341.04 720.661 2341.34 717.033 2337.19 717.033H2329.33L2324 735.51V735.51Z"
    fill="#41403C"
  />
  <path
    d="M2330.2 725.195L2331.63 720.245H2335.68C2337.6 720.245 2337.53 721.681 2337.26 722.663C2336.73 724.477 2335.71 725.157 2334.01 725.157H2330.2V725.195Z"
    fill="#F3B822"
  />
  <path
    d="M48.6661 820.525H2455.64V828.762H48.6661V820.525ZM47.9482 362.163V370.362H1027.66C1026.37 367.661 1025.14 364.927 1023.99 362.163H47.9482Z"
    fill="#41403C"
  />
  <path
    d="M1261.24 123.517L1278.47 133.718C1269.93 144.411 1265.17 144.411 1260.94 144.411C1256.74 144.411 1252.02 144.411 1243.63 133.983L1261.24 123.517V123.517Z"
    fill="#F3B822"
  />
  <path
    d="M1207.7 391.484C1208.57 392.731 1207.93 394.015 1206.26 394.053H1182.04C1181.03 394.054 1180.04 393.798 1179.15 393.309C1178.27 392.82 1177.52 392.114 1176.98 391.257C1175.52 389.059 1173.51 387.277 1171.15 386.085C1168.79 384.894 1166.17 384.332 1163.53 384.456C1163.53 384.456 1153.44 384.456 1150.08 391.257C1149.17 393.108 1147.09 394.053 1145.05 394.053L1097.94 394.166L1090.87 393.864L1123.14 375.576C1123.84 375.185 1124.4 374.575 1124.73 373.838C1122.04 373.428 1119.53 372.246 1117.51 370.438C1115.32 368.052 1114.16 364.906 1114.26 361.672C1114.21 358.119 1115.55 354.688 1118 352.112C1119.35 350.697 1120.97 349.573 1122.78 348.811C1124.58 348.049 1126.51 347.665 1128.47 347.683C1130.42 347.701 1132.36 348.12 1134.14 348.914C1135.93 349.709 1137.53 350.861 1138.86 352.301C1141.26 354.827 1142.59 358.187 1142.56 361.672L1142.26 364.921C1142.32 364.903 1142.39 364.877 1142.45 364.846C1150.72 361.067 1158.32 349.808 1162.17 340.324L1180.65 292.64C1181.18 291.317 1183.03 293.547 1183.03 293.547L1164.51 341.268C1160.47 351.243 1152.42 363.108 1143.47 367.188C1143.2 367.302 1141.54 368.133 1139.27 369.002C1139.74 366.599 1139.98 364.157 1139.99 361.71C1140.01 358.871 1138.92 356.136 1136.97 354.077C1135.83 352.902 1134.48 351.963 1132.98 351.314C1131.48 350.666 1129.87 350.321 1128.24 350.299C1126.67 350.316 1125.13 350.642 1123.69 351.258C1122.25 351.874 1120.94 352.768 1119.85 353.888C1117.86 355.998 1116.77 358.807 1116.83 361.71C1116.83 364.581 1117.7 366.924 1119.4 368.7C1121.25 370.665 1124.27 371.609 1127.86 371.987C1127.86 373.176 1127.54 374.342 1126.94 375.366C1126.33 376.389 1125.46 377.232 1124.42 377.806L1100.35 391.521H1145.05C1146.23 391.521 1147.32 390.917 1147.96 389.935C1149.66 387.365 1151.99 385.277 1154.73 383.874C1157.47 382.47 1160.53 381.799 1163.61 381.924C1173.51 381.924 1178.08 388.083 1179.25 389.935C1179.56 390.43 1179.98 390.839 1180.49 391.123C1181 391.407 1181.58 391.557 1182.16 391.559L1207.7 391.484V391.484Z"
    fill="#F3B822"
    stroke="#41403C"
    stroke-width="0.982393"
  />
  <path
    d="M1401.46 391.522H1370.55C1369.97 391.52 1369.4 391.374 1368.9 391.097C1368.39 390.82 1367.96 390.421 1367.64 389.935C1365.95 387.365 1363.61 385.277 1360.87 383.874C1358.13 382.471 1355.08 381.799 1352 381.924C1348.92 381.806 1345.87 382.481 1343.13 383.884C1340.39 385.287 1338.06 387.37 1336.36 389.935C1336.05 390.432 1335.62 390.843 1335.11 391.128C1334.6 391.412 1334.03 391.561 1333.45 391.559H1311.31L1309.68 393.94H1333.45C1334.43 393.944 1335.41 393.693 1336.27 393.209C1337.13 392.726 1337.85 392.027 1338.36 391.182C1339.34 389.595 1343.31 384.305 1351.96 384.305C1360.61 384.305 1364.54 389.595 1365.56 391.182C1365.56 391.182 1368.47 393.902 1370.48 393.902H1401.38L1422.88 393.789L1404.48 383.247L1392.2 375.69C1391.52 375.3 1390.98 374.705 1390.65 373.99C1393.58 373.544 1396.25 372.058 1398.18 369.802C1400.1 367.546 1401.14 364.673 1401.12 361.71C1401.17 358.205 1399.86 354.817 1397.45 352.264C1395.52 350.272 1393.04 348.896 1390.32 348.306C1387.61 347.716 1384.78 347.939 1382.19 348.946C1379.61 349.954 1377.37 351.702 1375.77 353.972C1374.17 356.242 1373.28 358.934 1373.2 361.71L1373.54 365.224C1373.35 365.126 1373.16 365.038 1372.97 364.959C1364.73 361.219 1356.99 349.619 1353.21 340.399L1337.6 300.273C1337.11 299.063 1335.37 301.142 1335.37 301.142L1350.98 341.306C1355.02 351.281 1363.07 363.146 1371.87 367.151C1372.21 367.34 1373.95 368.171 1376.22 369.04C1375.78 366.633 1375.56 364.193 1375.54 361.748C1375.51 358.913 1376.58 356.177 1378.52 354.115C1379.61 352.935 1380.93 351.99 1382.39 351.338C1383.85 350.685 1385.44 350.34 1387.04 350.322C1388.64 350.304 1390.23 350.615 1391.71 351.235C1393.19 351.855 1394.53 352.771 1395.64 353.926C1397.6 356.004 1398.66 358.687 1398.66 361.748C1398.66 364.733 1397.45 371.232 1387.67 372.176C1387.68 373.337 1388.01 374.473 1388.6 375.468C1389.2 376.464 1390.05 377.283 1391.07 377.844L1403.16 385.287L1411.4 391.597L1401.46 391.522V391.522Z"
    fill="#F3B822"
  />
  <path
    d="M1317.2 383.662H1328.61C1328.61 383.662 1326.46 378.788 1325.17 378.07C1328.16 377.617 1333.6 377.126 1333.6 377.126C1334.29 377.014 1334.92 376.693 1335.43 376.206C1335.93 375.72 1336.26 375.091 1336.39 374.405L1336.47 373.763C1336.47 373.166 1336.31 372.579 1336.01 372.061C1335.72 371.544 1335.29 371.114 1334.77 370.816L1329.18 367.604C1330.21 364.4 1330.79 361.069 1330.92 357.705C1330.92 351.886 1318.82 323.132 1318.82 323.132C1318.56 322.515 1318.13 321.989 1317.57 321.62C1317.01 321.25 1316.36 321.053 1315.69 321.054H1202.3L1191.68 349.014C1185.37 365.148 1192.47 368.322 1192.47 368.322L1183.82 374.216C1196.4 378.939 1202.86 388.121 1202.86 388.121H1182.12C1180.72 385.854 1175.24 378.486 1163.61 378.486C1151.97 378.486 1146.49 385.854 1145.09 388.121H1114.18C1118.1 385.555 1122.08 383.098 1126.12 380.753C1127.99 379.67 1129.48 378.045 1130.4 376.094C1131.31 374.144 1131.62 371.96 1131.26 369.833L1130.13 368.889C1126.31 368.889 1123.48 368.02 1121.89 366.319C1121.33 365.69 1120.9 364.955 1120.62 364.157C1120.34 363.36 1120.22 362.515 1120.27 361.672C1120.25 359.642 1121 357.682 1122.38 356.193C1123.15 355.402 1124.07 354.77 1125.08 354.336C1126.09 353.901 1127.18 353.672 1128.28 353.662C1130.55 353.662 1132.96 354.682 1134.59 356.382C1135.95 357.806 1136.69 359.705 1136.67 361.672C1136.67 365.138 1136.18 368.588 1135.19 371.911L1134.51 374.027C1134.51 374.027 1154.35 371.458 1167.76 342.553C1172.37 332.654 1184.27 300.046 1186.28 294.756C1186.28 294.756 1187.75 299.177 1193.08 299.101C1193.08 299.101 1190.58 314.782 1207.89 308.849C1207.89 308.849 1210.23 307.262 1214.99 310.814C1219.75 314.366 1229.16 315.159 1229.16 315.159C1229.16 315.159 1235.17 318.484 1237.89 316.217C1237.89 316.217 1245.86 318.824 1250.81 318.447C1250.81 318.447 1256.14 318.447 1259.54 318.031C1259.54 318.031 1267.14 319.24 1268.27 318.031L1270.16 316.217L1274.73 317.011C1274.73 318.522 1276.88 319.24 1277.41 319.278C1281.23 319.694 1282.55 318.673 1284.86 317.426C1285.34 318.084 1286.01 318.573 1286.78 318.824C1288.75 319.467 1290.98 318.522 1292.19 317.918C1293.02 318.783 1294.16 319.297 1295.36 319.353C1296.7 319.353 1298 318.916 1299.06 318.107C1299.6 318.666 1300.33 319.003 1301.1 319.051C1302.84 319.202 1304.73 317.767 1306.2 316.255C1306.2 316.255 1314.74 317.426 1316.26 311.91C1316.26 311.91 1320.71 314.668 1322.6 308.283C1322.6 308.283 1328.38 310.285 1329.1 303.56C1330.05 300.915 1332.31 302.313 1332.31 302.313C1336.89 314.253 1344.78 334.807 1347.96 342.553C1351.96 352.377 1360.31 365.488 1370.59 370.173C1370.82 370.287 1374.56 372.252 1379.17 373.461L1381.21 374.027L1380.49 371.911C1380.49 371.874 1379.05 367.377 1379.05 361.672C1379.05 359.669 1379.77 357.818 1381.09 356.382C1382.76 354.679 1385.02 353.702 1387.4 353.662C1389.56 353.662 1391.79 354.568 1393.3 356.193C1394.7 357.669 1395.46 359.638 1395.41 361.672C1395.41 366.433 1392.09 368.889 1385.51 368.889H1384.57L1384.38 369.833C1384.03 371.96 1384.33 374.144 1385.25 376.094C1386.17 378.045 1387.66 379.67 1389.52 380.753C1393.03 382.718 1398.13 385.967 1401.46 388.121H1370.55C1368.56 385.052 1365.81 382.551 1362.56 380.862C1359.32 379.173 1355.69 378.355 1352.04 378.486C1348.38 378.355 1344.75 379.173 1341.51 380.862C1338.26 382.551 1335.51 385.052 1333.52 388.121H1313.87L1317.2 383.662V383.662Z"
    fill="#F3B822"
    stroke="#41403C"
    stroke-width="0.982393"
  />
  <path
    d="M1309.68 380.073L1297.51 379.015C1293.49 382.375 1289.56 385.839 1285.72 389.405L1285.69 389.443L1284.29 390.69L1288.11 393.335L1292.03 389.405L1295.28 395.678C1300.95 390.917 1305.3 386.685 1308.77 382.566H1308.06L1309.68 380.073ZM1226.18 371.76L1232.11 372.402V372.44C1233.48 371.365 1235.17 370.78 1236.91 370.778L1227.8 369.833L1226.18 371.76V371.76ZM1319.35 357.818V357.704C1319.01 355.345 1318.43 353.028 1317.61 350.79C1316.09 351.821 1314.44 352.646 1312.7 353.246C1311.87 353.548 1310.44 354.833 1310.44 355.702C1310.44 357.553 1308.24 360.878 1308.09 361.18C1304.18 360.837 1300.25 360.863 1296.34 361.256C1295.77 361.673 1295.16 362.04 1294.53 362.352C1294.64 364.014 1294.87 367.188 1294.87 368.624C1295.36 369.153 1297.1 369.266 1297.89 369.266C1298.34 369.266 1299.02 368.7 1299.86 367.906C1300.83 366.997 1301.88 366.175 1302.99 365.45C1306.02 363.448 1309.15 366.168 1310.47 367.982L1313.95 371.004L1315.99 372.062C1318.6 367.037 1319.77 362.238 1319.35 357.818V357.818ZM1262.75 371.571C1262.68 372.262 1262.54 372.945 1262.34 373.612L1262.03 374.443L1282.82 376.068C1283.68 374.858 1284.55 373.46 1285.42 372.289L1262.75 371.571V371.571ZM1263.7 376.37L1270.38 381.055C1271.71 380.902 1273.02 380.662 1274.31 380.337C1276.09 379.846 1280.25 378.712 1281.19 377.957L1281.38 377.768L1263.7 376.37V376.37ZM1286.1 361.18C1284.25 359.782 1283.76 357.213 1283.38 355.059C1283.16 353.85 1282.93 352.566 1282.51 351.999C1281.57 350.752 1281.53 349.43 1281.46 348.334C1281.42 347.2 1281.23 346.822 1280.66 346.331C1280.62 346.293 1280.62 346.331 1280.66 346.331C1280.25 346.558 1279.45 348.296 1278.77 349.618L1277.83 354.153L1276.77 354.077C1274.39 353.737 1272.08 354.039 1271.9 354.53C1270.95 357.062 1266.57 357.289 1261.35 357.251H1261.24C1260.34 357.251 1259.46 357.071 1258.63 356.722C1258.57 359.073 1258.87 361.419 1259.54 363.674L1265.59 360.5C1271.18 357.478 1275.49 358.196 1278.24 362.616L1279.6 364.77L1277.19 364.506C1275.9 364.354 1274.35 364.506 1274.05 364.77C1273.22 366.092 1269.52 368.7 1268.42 369.493L1268.38 369.531L1286.03 370.475C1286.29 368.322 1286.33 364.581 1286.1 361.18V361.18ZM1316.59 375.765L1316.56 375.803L1318.82 377.05L1319.73 375.539L1316.59 375.765ZM1321.7 369.569L1318.14 373.838L1329.29 373.083L1321.7 369.569Z"
    fill="#F3B822"
    stroke="#41403C"
    stroke-width="0.982393"
  />
  <path
    d="M1203.17 326.872C1199.84 335.222 1192.1 355.324 1192.1 359.291C1192.1 362.616 1193.87 365.639 1194.89 367.15L1198.37 364.959C1196.65 362.597 1195.65 359.789 1195.5 356.873C1195.5 352.339 1205.06 329.819 1205.06 329.819H1312.21C1312.21 329.819 1321.58 353.132 1321.58 357.629V357.553C1321.87 361.451 1321.28 365.364 1319.84 369.002L1321.17 367.415L1322.98 368.246C1324.23 364.859 1324.96 361.307 1325.17 357.704C1325.17 353.775 1315.2 326.91 1315.2 326.91H1203.17V326.872Z"
    fill="#F3B822"
  />
  <path
    d="M1233.96 348.561L1233.51 348.976H1230.9L1238.16 357.591H1243.63L1233.96 348.561ZM1244.16 354.493L1236.19 346.482L1235.25 347.351L1244.28 355.777L1244.16 354.493ZM1244.99 359.367H1239.33L1241.29 362.427L1248.73 363.296L1244.99 359.367ZM1241.29 364.241L1240.72 365.488L1244.84 369.115C1245.75 368.807 1246.69 368.604 1247.64 368.511C1248.17 368.435 1249.53 366.999 1250.77 365.375L1241.29 364.241Z"
    fill="#F3B822"
    stroke="#41403C"
    stroke-width="0.982393"
  />
  <path
    d="M1249.6 352.604C1247.37 349.387 1245.99 345.655 1245.6 341.76C1242.93 342.922 1240.3 344.156 1237.7 345.463L1245.79 353.662L1246.16 358.083L1250.77 362.919L1249.6 352.604V352.604Z"
    fill="#F3B822"
    stroke="#41403C"
    stroke-width="0.982393"
  />
  <path
    d="M1244.96 332.237H1206.53C1202.9 340.814 1197.8 353.925 1197.8 356.873C1197.98 359.353 1198.87 361.729 1200.37 363.712C1207.85 359.14 1240.27 341.419 1245.26 339.303C1244.96 336.394 1244.92 333.786 1244.96 332.237V332.237Z"
    stroke="#41403C"
    stroke-width="0.982393"
  />
  <path
    d="M1229.28 349.77L1225.35 351.923L1231.01 356.949L1235.7 357.402L1229.28 349.77ZM1237.25 359.329L1226.55 358.271L1226.74 359.707L1238.95 362.049L1237.25 359.329ZM1226.55 361.52L1225.91 364.09L1238.76 365.526L1239.51 363.939L1226.55 361.52ZM1238.87 367.339L1228.03 366.13L1228.22 368.057L1240.35 369.04L1238.87 367.339ZM1260.79 376.483C1260.1 377.169 1259.29 377.712 1258.4 378.082C1257.5 378.451 1256.54 378.64 1255.57 378.637L1262 384.304C1262.81 383.208 1263.89 382.337 1265.13 381.773C1265.96 381.545 1266.81 381.394 1267.66 381.319L1260.79 376.483ZM1283.38 398.474L1286.93 394.733L1282.97 391.937C1281.93 392.885 1281 393.95 1280.21 395.111C1279.43 396.259 1278.26 397.09 1276.92 397.453L1284.44 404.103L1289.01 400.665L1283.38 398.474ZM1306.62 373.423C1305.86 373.574 1305.15 373.8 1304.39 374.027C1303.79 374.405 1301.22 376.067 1299.52 377.39L1310.81 378.372L1313.57 374.14L1314.55 374.669L1315.01 373.876L1306.62 373.423V373.423ZM1314.1 376.483L1311.27 380.828H1321.81L1314.1 376.483Z"
    fill="#F3B822"
    stroke="#41403C"
    stroke-width="0.982393"
  />
  <path
    d="M1275.07 398.209L1272.8 398.133C1271.42 398.982 1270.32 400.235 1269.67 401.723C1270.08 399.994 1269.92 398.178 1269.21 396.547V396.584C1268.38 395.715 1268.27 394.015 1268.42 392.39L1266.76 390.879C1265.89 390.674 1265.04 390.383 1264.23 390.01C1263.85 390.01 1262.87 391.03 1262.15 392.315L1260.71 394.922L1260.07 391.975C1259.56 389.874 1259.87 387.659 1260.94 385.778L1253.99 379.619C1252.46 381.339 1250.37 382.452 1248.09 382.755C1247.07 385.967 1243.07 386.798 1241.06 387.252L1240.95 387.289C1240.23 387.441 1238.57 389.141 1238.46 390.274C1238.42 390.085 1236.57 385.098 1236.57 381.811C1236.57 381.735 1236.57 381.773 1236.57 381.811C1235.03 382.403 1233.59 383.217 1232.3 384.229L1230.82 385.438L1230.45 383.511C1230.33 382.831 1229.35 376.861 1230.64 374.178C1230.64 374.14 1230.64 374.178 1230.64 374.178L1222.59 373.196L1226.48 368.586L1226.18 365.941L1223.65 365.677L1225.01 360.425L1224.51 356.306L1227.91 356.646L1223.61 352.83C1209.63 360.576 1196.36 368.926 1191.3 372.176C1197.12 374.329 1211.86 381.206 1220.58 397.604C1223.53 398.965 1242.46 408.109 1251.08 424.998C1254.78 423.033 1268.46 415.628 1282.89 405.237L1275.07 398.209V398.209Z"
    fill="#F3B822"
  />
  <path
    d="M1291.58 392.391L1286.48 397.756L1296.38 401.61L1291.58 392.391Z"
    fill="#F3B822"
    stroke="#41403C"
    stroke-width="0.982393"
  />
  <path
    d="M1311.42 382.566C1307.6 387.252 1302.8 392.39 1296.34 397.793L1298.31 401.572C1308.74 391.786 1313.87 384.229 1314.93 382.566H1311.42V382.566Z"
    stroke="#41403C"
    stroke-width="0.982393"
  />
  <path
    d="M1380.15 329.782C1377.14 324.57 1373.79 319.571 1370.1 314.819C1368.51 312.25 1362.81 312.628 1366.09 318.144C1369.12 322.036 1373.23 327.061 1377.01 330.802C1378.41 332.374 1380.04 333.725 1381.85 334.807C1381.57 333.048 1380.99 331.35 1380.15 329.782V329.782Z"
    fill="#F3B822"
    stroke="#41403C"
    stroke-width="0.982393"
  />
  <path
    d="M1375.46 332.54C1372.96 329.987 1370.56 327.327 1368.28 324.568C1365.41 321.28 1357.44 311.645 1356.27 310.474C1355.14 309.265 1356.87 312.25 1356 314.668C1355.17 317.049 1354.3 318.258 1354.3 318.258C1354.3 318.258 1366.09 330.009 1367.57 332.427C1366.96 331.255 1367.11 329.48 1366.39 328.044C1370.14 335.563 1373.84 336.13 1375.09 336.13C1376.26 336.13 1377.13 335.147 1377.58 334.505C1376.84 333.882 1376.14 333.227 1375.46 332.54V332.54Z"
    fill="#F3B822"
  />
  <path
    d="M1242.54 131.829L1246.51 111.048L1260.11 106.4L1242.54 131.829ZM1251 91.9669L1259.39 104.133L1231.01 94.4228L1251 91.9669ZM1262.37 106.4L1275.98 111.048L1279.94 131.829L1262.37 106.4ZM1263.09 104.133L1271.48 91.9669L1291.47 94.4228L1263.09 104.133ZM1261.24 102.698L1252.85 90.5688L1261.24 71.2988V102.698Z"
    fill="#F3B822"
    stroke="#41403C"
    stroke-width="0.982393"
  />
  <path
    d="M1246.2 226.479C1249.19 225.497 1256.37 225.761 1258.29 225.421C1258.52 223.343 1253.53 221.945 1253.53 221.945C1253.53 221.945 1254.97 220.585 1254.4 219.376C1253.99 218.431 1251.34 217.676 1251.34 217.676C1251.34 217.676 1252.48 215.56 1250.74 214.426L1246.2 226.479V226.479ZM1265.21 199.539C1263.47 194.438 1262.19 191.869 1261.39 191.907H1261.05C1260.22 191.907 1258.94 194.438 1257.24 199.539C1257.24 199.539 1254.18 208.947 1252.74 213.028C1253.03 213.827 1253.09 214.689 1252.93 215.522C1257.31 216.164 1256.86 219.527 1256.71 220.396C1258.41 221.114 1260.3 222.512 1260.6 224.628C1266.12 225.346 1266.68 229.88 1266.57 230.484C1267.93 231.202 1270.16 232.714 1270.46 235.056C1271.37 236.19 1273.14 238.495 1274.2 240.535C1274.68 240.355 1275.13 240.127 1275.56 239.855C1277 238.948 1277.26 237.475 1277.56 235.661C1277.6 235.283 1277.72 235.019 1277.87 234.905C1273.56 223.149 1269.34 211.36 1265.21 199.539V199.539Z"
    fill="#F3B822"
  />
  <path
    d="M1296.34 336.054C1295.51 334.731 1292.34 333.295 1289.69 332.237H1280.36C1280.55 338.094 1281.42 343.573 1282.21 344.328C1283.65 345.5 1283.68 347.049 1283.76 348.258C1283.8 349.24 1283.84 349.92 1284.33 350.525C1285.12 351.545 1285.35 353.019 1285.65 354.606C1286.03 356.608 1286.4 358.686 1287.73 359.404C1290.41 360.802 1291.81 361.407 1294.57 359.593C1294.3 358.709 1294.13 357.796 1294.08 356.873C1294.08 355.664 1294.83 355.286 1294.83 355.286C1294.83 355.286 1292.53 354.87 1290.64 353.283C1288.75 351.696 1288.75 351.696 1289.88 350.487C1291.01 349.278 1294.08 350.865 1294.08 350.865C1291.77 347.275 1287.61 344.064 1285.69 343.27C1283.76 342.477 1284.93 341.268 1286.82 341.268C1288.71 341.268 1291.77 342.855 1291.77 342.855C1291.77 342.855 1291.01 341.646 1291.01 339.265C1291.01 336.885 1294.08 338.85 1295.96 339.265C1297.85 339.681 1297.85 338.472 1296.34 336.054V336.054ZM1266.98 362.465C1267.1 362.633 1267.18 362.827 1267.21 363.032C1267.23 363.109 1267.24 363.19 1267.23 363.269C1267.22 363.349 1267.19 363.425 1267.15 363.493C1267.1 363.56 1267.05 363.618 1266.98 363.663C1266.91 363.707 1266.84 363.737 1266.76 363.749C1266.6 363.771 1266.44 363.733 1266.32 363.641C1266.19 363.549 1266.1 363.412 1266.08 363.258C1266.08 363.183 1266 363.107 1265.93 363.032L1265.28 363.372C1265.59 363.636 1265.89 363.976 1265.93 364.354C1266 364.694 1265.81 365.034 1265.47 365.072C1265.17 365.147 1264.87 364.959 1264.79 364.618C1264.75 364.467 1264.45 364.203 1264.07 363.938L1260.9 365.639C1261.82 366.574 1262.45 367.755 1262.71 369.039L1267.29 367.415C1269.04 366.258 1270.67 364.929 1272.16 363.447C1272.69 362.654 1273.67 362.276 1274.69 362.125C1272.24 360.235 1269.25 361.293 1266.98 362.465Z"
    fill="#F3B822"
    stroke="#41403C"
    stroke-width="0.982393"
  />
  <path
    d="M1261.24 353.246C1262.37 351.659 1262.37 351.243 1261.24 350.034C1260.11 348.863 1255.99 345.273 1257.54 345.273C1259.05 345.273 1254.89 340.475 1258.67 340.475C1262.45 340.475 1259.81 338.888 1259.81 338.888C1259.81 338.888 1251.49 336.318 1249.26 332.275H1247.19C1247.15 336.054 1247.41 346.709 1251.49 351.281L1251.76 351.583L1253.38 365.639V365.677H1253.34L1253.12 366.017C1252.02 367.604 1250.09 370.06 1248.43 370.74C1248.56 371.051 1248.64 371.384 1248.66 371.722C1248.66 372.062 1248.39 372.327 1248.09 372.327C1247.75 372.327 1247.53 372.062 1247.53 371.722C1247.53 371.458 1247.37 371.193 1247.26 370.967C1246.5 371.118 1245.03 371.571 1243.82 371.911L1242.12 372.402C1242.29 372.744 1242.38 373.118 1242.39 373.498C1242.39 373.838 1242.16 374.103 1241.82 374.103C1241.52 374.103 1241.25 373.838 1241.25 373.498C1241.24 373.209 1241.13 372.931 1240.95 372.705C1240.48 372.849 1240 372.963 1239.51 373.045C1239.85 373.347 1240.16 373.687 1240.23 374.103C1240.27 374.258 1240.24 374.42 1240.15 374.555C1240.07 374.689 1239.93 374.785 1239.78 374.821C1239.48 374.896 1239.17 374.669 1239.1 374.329C1239.06 374.103 1238.46 373.649 1237.89 373.423C1237.85 373.426 1237.81 373.417 1237.78 373.396C1237.74 373.376 1237.72 373.345 1237.7 373.309L1237.06 373.271C1236 373.007 1233.55 373.611 1232.64 375.425C1232.16 377.303 1232.09 379.263 1232.45 381.168C1233.98 379.999 1235.79 379.267 1237.7 379.052C1239.08 377.769 1240.8 376.904 1242.65 376.559C1243.22 376.332 1245.6 375.312 1247.19 375.312C1248.78 374.595 1250.16 373.475 1251.19 372.062C1250.28 373.271 1249.26 376.823 1247.75 377.579V377.692C1247.75 378.032 1247.49 378.297 1247.19 378.297C1246.88 378.297 1246.66 378.032 1246.62 377.73C1245.9 377.843 1244.99 378.183 1244.24 378.448L1244.31 379.015C1244.31 379.355 1244.05 379.619 1243.75 379.619C1243.41 379.619 1243.18 379.355 1243.18 379.015V378.863L1242.5 379.052C1242.57 379.284 1242.61 379.527 1242.61 379.77C1242.61 380.11 1242.35 380.375 1242.05 380.375C1241.71 380.375 1241.48 380.11 1241.48 379.77L1241.44 379.468C1240.19 380.035 1238.83 380.904 1238.83 382.075C1238.83 383.171 1238.91 384.456 1239.02 385.74C1239.42 385.316 1239.93 385.025 1240.5 384.909L1240.61 384.871C1242.27 384.531 1245.75 383.813 1246.05 381.546L1246.16 380.564L1247.07 380.488C1247.11 380.488 1251.72 380.11 1252.97 376.861L1253.34 375.916L1254.25 376.105C1254.44 376.143 1258.9 377.012 1260.07 372.931C1261.09 369.38 1260.07 368.246 1258.9 367.037C1258.63 366.735 1258.29 366.395 1258.07 366.055C1256.59 364.014 1256.33 359.027 1256.33 358.12C1256.33 356.835 1256.25 355.626 1255.46 355.173L1255.57 354.87C1254.63 354.077 1254.86 352.566 1254.82 352.49C1254.82 352.528 1258.33 354.87 1261.17 354.87H1261.28C1265.28 354.87 1260.11 354.87 1261.24 353.246V353.246ZM1308.85 369.757L1308.74 369.606C1308.74 369.569 1306.32 366.13 1304.16 367.528C1303.58 367.907 1303.03 368.324 1302.5 368.775C1302.76 369.154 1302.91 369.6 1302.92 370.06C1302.92 370.4 1302.65 370.664 1302.35 370.664C1302.05 370.664 1301.78 370.4 1301.78 370.06C1301.79 369.872 1301.74 369.686 1301.63 369.531L1301.33 369.795C1300.12 370.853 1299.18 371.722 1297.89 371.722C1296.53 371.722 1294.49 371.722 1293.32 370.513C1292.82 369.968 1292.55 369.251 1292.56 368.511C1292.56 367.301 1292.41 364.77 1292.3 363.107C1290.99 363.235 1289.67 363 1288.48 362.427C1288.63 365.979 1288.71 371.873 1287.35 373.649L1285.84 375.765C1284.78 377.352 1283.72 378.939 1282.55 379.846C1280.42 381.074 1278.09 381.942 1275.67 382.415L1274.84 382.642C1274.96 382.916 1275.03 383.212 1275.03 383.511C1275.03 383.851 1274.77 384.116 1274.47 384.116C1274.16 384.116 1273.9 383.851 1273.9 383.511C1273.89 383.307 1273.83 383.11 1273.71 382.944L1272.99 383.058C1273.11 383.322 1273.18 383.624 1273.18 383.964C1273.18 384.304 1272.92 384.569 1272.61 384.569C1272.31 384.569 1272.05 384.304 1272.05 383.964C1272.03 383.692 1271.94 383.429 1271.78 383.209L1271.33 383.246C1271.51 383.599 1271.61 383.985 1271.63 384.38C1271.63 384.72 1271.37 384.985 1271.06 384.985C1270.9 384.985 1270.75 384.921 1270.64 384.807C1270.52 384.694 1270.46 384.54 1270.46 384.38C1270.44 384.008 1270.27 383.658 1270.01 383.398L1269.78 383.435C1268.45 383.539 1267.12 383.716 1265.81 383.964C1264.13 384.9 1262.88 386.461 1262.34 388.31C1263.17 387.629 1264.19 387.214 1265.21 387.743C1266.72 388.536 1269.89 389.216 1270.54 387.894C1271.48 385.854 1273.86 385.665 1275.75 385.514C1276.62 385.438 1277.75 385.362 1278.09 385.06C1279.64 383.851 1285.8 380.979 1286.03 380.79C1283.79 382.999 1281.48 385.141 1279.11 387.214C1279.24 387.5 1279.3 387.809 1279.3 388.121C1279.3 388.423 1279.04 388.725 1278.73 388.725C1278.43 388.725 1278.17 388.423 1278.17 388.121C1278.17 387.95 1278.13 387.783 1278.05 387.629L1277.26 387.781C1277.4 388.078 1277.48 388.399 1277.49 388.725C1277.49 389.065 1277.22 389.33 1276.92 389.33C1276.58 389.33 1276.35 389.065 1276.35 388.725C1276.34 388.418 1276.22 388.125 1276.01 387.894C1274.62 388.007 1273.03 388.158 1272.65 388.952C1272.34 389.661 1271.77 390.227 1271.06 390.539C1270.69 392.428 1270.61 394.393 1270.91 394.771C1271.23 395.139 1271.45 395.581 1271.56 396.055C1271.91 395.764 1272.35 395.604 1272.8 395.602C1274.65 395.602 1277.56 395.035 1278.32 393.788C1279.49 391.71 1283.68 388.007 1284.25 387.478C1284.97 386.76 1295.74 377.39 1297.63 375.841C1299.55 374.216 1303.29 371.836 1303.45 371.76L1303.56 371.684L1303.71 371.647C1305.68 371.041 1307.69 370.574 1309.72 370.249L1308.85 369.757V369.757Z"
    fill="#F3B822"
    stroke="#41403C"
    stroke-width="0.982393"
  />
  <path
    d="M1291.32 401.874L1287.24 405.01V411.131C1290.56 408.524 1293.58 405.955 1296.27 403.499L1291.32 401.874V401.874ZM1238.38 412.378V417.063C1243.44 422.089 1247.3 427.492 1249.53 430.892V426.849C1246.76 421.364 1242.98 416.453 1238.38 412.378V412.378ZM1202.75 380.941V385.211C1211.21 390.463 1216.16 397.226 1218.73 401.647V398.851C1214.91 391.696 1209.43 385.556 1202.75 380.941V380.941Z"
    fill="#F3B822"
  />
  <path
    d="M1352.26 318.56C1351.13 317.048 1349.13 315.537 1348.56 314.063C1347.99 312.59 1346.56 312.854 1347.12 314.668C1348.45 318.137 1350.73 321.162 1353.7 323.396C1353.7 323.396 1353.4 320.033 1352.26 318.56V318.56Z"
    fill="#F3B822"
    stroke="#41403C"
    stroke-width="0.982393"
  />
  <path
    d="M1341.72 281.909C1341.15 279.793 1340.02 277.979 1339.15 276.468C1338.32 274.957 1336.32 276.77 1336.32 276.77C1336.32 276.77 1334.01 278.886 1335.18 280.058C1336.36 281.229 1338.59 283.08 1338.59 283.08C1340.02 284.856 1340.89 285.763 1341.72 285.763C1342.55 285.801 1342.29 284.025 1341.72 281.909V281.909ZM1337.98 290.637C1336.92 287.279 1334.96 284.275 1332.31 281.947C1330.01 280.133 1330.01 285.234 1330.88 286.443C1331.75 287.652 1334.01 290.637 1335.71 292.753C1337.45 294.831 1338.85 293.622 1337.98 290.637V290.637ZM1332.58 296.607C1332.01 294.227 1329.33 290.373 1328.01 287.614C1326.31 284.025 1324.87 288.521 1325.13 290.637C1325.4 292.715 1328.27 295.738 1330.27 297.816C1332.31 299.932 1333.14 299.025 1332.58 296.607V296.607ZM1325.17 299.63C1324.87 297.816 1323.21 292.564 1321.47 291.204C1320.34 290.335 1319.47 291.809 1320.03 293.32C1320.6 294.831 1321.73 297.212 1322.04 299.025C1322.34 300.839 1322.34 302.313 1322.34 304.428C1322.34 306.544 1324.91 306.242 1325.21 304.731C1325.44 303.037 1325.43 301.32 1325.17 299.63V299.63ZM1318.86 301.746C1318.65 299.62 1317.96 297.568 1316.86 295.738C1315.16 294.227 1314.86 296.947 1314.55 298.421C1314.29 299.932 1315.42 304.126 1315.69 305.94C1315.99 307.716 1318.26 309.529 1319.43 308.623C1320.6 307.753 1319.16 305.033 1318.86 301.746V301.746ZM1311.46 299.63C1308.89 297.514 1307.49 301.141 1307.49 302.917C1307.49 304.731 1307.19 308.358 1308.62 310.738C1310.06 313.119 1312.89 309.832 1312.89 308.056C1312.89 306.242 1313.27 301.103 1311.46 299.63V299.63ZM1304.05 302.917C1304.05 301.746 1301.75 300.537 1302.05 302.917C1302.05 302.917 1302.88 309.227 1299.74 305.94C1299.74 305.94 1299.18 311.041 1300.31 312.854C1301.44 314.668 1303.71 316.142 1304.32 312.552C1304.88 308.925 1304.05 304.126 1304.05 302.917V302.917ZM1296.34 307.111C1295.21 310.738 1291.77 305.94 1291.77 305.94C1292.04 311.948 1293.47 315.839 1295.21 314.328C1296.91 312.854 1296.34 307.111 1296.34 307.111V307.111ZM1286.33 315.537C1288.9 314.026 1289.47 308.623 1289.47 308.623C1288.07 309.832 1283.8 317.048 1286.33 315.537ZM1278.36 315.235C1282.06 313.421 1284.36 302.615 1284.36 302.615C1281.8 304.428 1274.65 317.048 1278.36 315.235ZM1280.36 295.436C1280.36 295.436 1281.49 300.839 1282.93 300.839C1284.36 300.839 1282.36 297.816 1280.36 295.436ZM1286.63 292.715C1286.63 292.715 1287.24 300.234 1289.2 299.328C1291.17 298.421 1288.37 295.134 1286.63 292.715ZM1292.64 291.506C1292.64 291.506 1292.04 298.118 1294.64 298.685C1297.21 299.328 1293.77 293.018 1292.64 291.506ZM1300.91 292.715C1300.61 290.939 1299.18 287.01 1298.31 288.824C1298.31 288.824 1298.04 295.134 1300.61 296.909C1303.18 298.723 1301.18 294.529 1300.91 292.715V292.715ZM1307.19 291.809C1306.05 289.73 1305.75 287.01 1305.75 285.801C1305.75 284.592 1304.32 282.514 1304.05 284.592C1304.05 284.592 1302.92 292.073 1305.49 294.491C1308.02 296.909 1308.32 293.924 1307.19 291.809V291.809ZM1313.76 290.939C1313.19 288.824 1311.19 287.312 1311.19 285.536C1311.19 283.76 1309.19 282.249 1309.19 284.629C1309.19 287.048 1309.76 291.544 1311.19 293.055C1312.59 294.529 1314.33 293.018 1313.76 290.939ZM1318.86 285.801C1317.73 284.025 1315.73 281.909 1315.46 279.793C1315.16 277.677 1313.46 277.979 1313.46 279.793C1313.46 281.909 1315.16 286.972 1317.46 288.483C1319.73 290.033 1320.03 287.614 1318.86 285.801V285.801ZM1323.43 280.398C1322.3 278.282 1320 274.692 1319.73 272.879C1319.47 271.103 1317.43 270.498 1317.43 273.181C1317.43 276.468 1319.73 282.174 1323.13 284.289C1326.57 286.443 1324.61 282.514 1323.43 280.398V280.398ZM1329.44 277.11C1328.31 275.599 1325.74 272.01 1325.17 270.498C1324.61 268.987 1322.6 269.591 1322.6 271.103C1322.6 271.103 1325.44 277.413 1328.31 279.793C1331.18 282.174 1330.58 278.622 1329.44 277.11V277.11ZM1333.71 269.025C1332.58 268.118 1328.31 269.025 1328.31 269.025C1328.31 269.025 1331.44 272.916 1333.71 273.823C1335.98 274.73 1334.84 269.894 1333.71 269.025ZM1338.85 264.793C1337.72 263.281 1337.15 259.352 1334.01 259.994C1334.01 259.994 1337.72 265.095 1334.28 265.095C1334.28 265.095 1337.15 266.606 1338.28 268.118C1339.42 269.629 1339.98 266.304 1338.85 264.793ZM1342.86 258.785C1340.16 256.948 1337.75 254.72 1335.71 252.173C1335.15 251.001 1333.18 250.057 1333.45 251.87C1333.45 251.87 1339.72 259.956 1341.72 261.468C1343.72 262.979 1344.56 259.692 1342.86 258.785ZM1346.56 252.777C1344.86 250.661 1339.42 246.165 1338.85 244.691C1338.28 243.18 1336.55 243.785 1337.15 245.296C1337.15 245.296 1342.85 251.304 1341.42 253.722C1341.42 253.722 1344.56 255.8 1345.99 256.405C1347.43 256.971 1348.3 254.893 1346.56 252.777V252.777ZM1345.69 240.497C1344.56 239.288 1341.99 239.893 1343.69 242.009C1345.01 243.596 1353.09 248.923 1350.26 248.923H1347.39C1347.39 248.923 1351.39 254.024 1353.4 250.699C1354.3 249.226 1346.86 241.669 1345.69 240.497ZM1355.13 242.273C1354 239.591 1346.86 233.583 1342.55 235.963C1342.55 235.963 1352.26 238.948 1353.4 244.351C1354.53 249.755 1356.27 244.994 1355.13 242.273V242.273ZM1357.7 240.8C1357.7 240.8 1363.15 246.505 1363.71 244.389C1364.28 242.273 1359.97 241.971 1357.7 240.8ZM1361.97 237.777C1361.97 237.777 1369.95 242.576 1366.81 244.994C1366.81 244.994 1373.65 242.576 1361.97 237.777ZM1374.67 233.016C1372.67 230.333 1378.37 232.412 1378.37 232.412C1376.94 228.482 1368.96 226.102 1368.96 226.102L1372.1 230.598C1372.1 230.598 1371.53 232.978 1372.93 234.792C1374.37 236.568 1378.07 239.288 1378.94 241.706C1379.81 244.087 1374.93 242.576 1374.93 242.576C1374.93 242.576 1381.24 247.979 1382.94 245.901C1384.68 243.86 1376.71 235.737 1374.67 233.016V233.016ZM1383.93 234.49C1383.93 234.49 1392.2 243.18 1385.63 241.404C1385.63 241.404 1392.2 248.016 1393.9 245.598C1395.64 243.18 1385.36 235.661 1383.93 234.49ZM1389.93 234.49C1389.93 234.49 1397.34 244.087 1401.04 244.087C1404.78 244.087 1393.94 237.777 1389.93 234.49V234.49ZM1414.76 245.296C1413.06 242.916 1406.18 235.699 1406.18 235.699C1406.18 235.699 1409.88 245.901 1403.88 238.117C1397.91 230.296 1392.2 224.892 1393.33 229.087C1393.33 229.087 1407.58 246.505 1411.58 247.412C1415.59 248.319 1416.46 247.676 1414.76 245.296ZM1357.4 228.18C1357.4 228.18 1357.4 233.583 1365.11 234.187C1372.82 234.754 1357.4 228.18 1357.4 228.18ZM1324.04 258.18C1322.04 260.863 1329.48 260.863 1329.48 260.863C1329.48 260.863 1327.48 253.457 1324.04 258.18ZM1314.89 261.203C1313.46 264.83 1320.34 268.722 1320.6 265.133C1320.9 261.468 1314.89 261.203 1314.89 261.203ZM1309.45 264.49C1306.02 270.498 1312.29 271.669 1312.29 271.669C1313.46 267.211 1309.45 264.49 1309.45 264.49ZM1302.05 270.8C1299.48 279.831 1306.32 278.017 1306.32 278.017C1307.19 272.916 1302.05 270.8 1302.05 270.8ZM1283.42 267.324C1283.42 267.324 1285.42 272.123 1288.56 271.821C1291.7 271.556 1283.42 267.324 1283.42 267.324ZM1294.64 275.335C1294.64 275.335 1293.21 281.342 1295.78 281.04C1298.31 280.7 1294.64 275.335 1294.64 275.335ZM1269.21 260.296V264.793C1273.22 270.8 1265.51 265.397 1265.51 265.397C1270.95 270.498 1267.21 273.823 1267.21 273.823C1272.35 275.032 1272.92 271.443 1273.79 267.815C1274.65 264.188 1269.21 260.296 1269.21 260.296ZM1262.68 228.18C1261.81 225.497 1254.67 228.482 1254.67 228.482C1258.97 229.691 1263.51 230.862 1262.68 228.18ZM1264.94 233.583C1262.94 231.202 1258.67 233.583 1258.67 233.583C1263.51 234.187 1266.95 236.001 1264.94 233.583ZM1270.65 241.064C1269.52 237.135 1261.24 237.777 1261.24 237.777C1257.84 239.288 1262.94 239.893 1266.08 241.064C1269.21 242.235 1271.78 244.994 1270.65 241.064ZM1240.12 251.908C1240.12 251.908 1238.42 257.009 1235.55 259.087C1235.55 259.087 1241.82 260.599 1242.69 257.274C1243.56 253.986 1240.12 251.908 1240.12 251.908ZM1246.96 281.04C1251.53 282.249 1252.1 278.924 1252.1 278.924C1252.1 278.924 1242.39 279.831 1246.96 281.04ZM1255.54 293.32C1255.54 293.32 1251.27 293.924 1252.4 296.305C1253.53 298.723 1256.67 297.212 1255.54 293.32ZM1237.29 302.048C1235.59 300.839 1233.02 305.638 1230.71 302.653C1230.71 302.653 1234.72 308.358 1235.85 306.847C1236.98 305.335 1236.15 303.862 1236.15 303.862C1236.15 303.862 1238.99 303.219 1237.29 302.048V302.048ZM1207.02 302.048C1204.45 297.552 1199.31 296.947 1199.31 296.947C1196.74 298.459 1200.45 300.877 1201.88 302.955C1203.32 305.033 1208.38 304.466 1207.02 302.048V302.048ZM1201.01 305.033C1199.31 304.428 1199.31 306.847 1199.31 306.847C1199.31 306.847 1200.94 307.3 1200.75 308.056C1200.52 308.811 1202.75 308.056 1204.19 307.149C1205.58 306.242 1202.75 305.638 1201.01 305.033V305.033ZM1211.29 304.731C1211.29 304.731 1212.16 308.66 1214.73 307.451C1214.73 307.451 1213.29 303.522 1211.29 304.731ZM1216.43 308.358C1216.43 308.358 1218.73 311.645 1220.4 309.869C1222.13 308.056 1217.86 307.753 1216.43 308.358ZM1231.28 299.025C1231.28 299.025 1231.84 301.141 1233.58 301.141C1235.25 301.141 1234.72 298.421 1231.28 299.025Z"
    fill="#F3B822"
  />
  <path
    d="M1203.13 257.991C1203.7 258.18 1208.31 260.863 1211.29 259.011C1211.48 259.312 1211.76 259.549 1212.08 259.691C1212.95 260.031 1214.12 259.729 1216.13 258.671C1220.36 256.442 1221.83 258.596 1221.91 258.671L1222.74 259.956L1223.72 258.822C1225.08 257.16 1227.42 256.48 1228.78 256.177C1228.84 256.681 1228.99 257.17 1229.24 257.613C1229.8 258.52 1231.5 257.915 1232.07 259.729C1232.64 261.505 1232.07 263.016 1232.07 263.016H1236.08C1237.78 263.016 1242.65 262.109 1242.65 263.016C1242.65 263.923 1242.08 264.83 1240.95 265.132C1239.82 265.434 1236.98 264.943 1236.98 265.699C1236.98 267.513 1234.98 267.853 1236.38 269.629C1237.82 271.442 1238.38 270.535 1239.25 269.024C1240.08 267.513 1240.69 266.908 1242.69 266.644C1244.69 266.341 1246.66 265.434 1246.66 264.225C1246.66 263.016 1246.09 260.938 1247.53 261.203C1250.57 261.233 1253.58 260.615 1256.37 259.389C1257.5 258.52 1255.23 256.404 1257.24 256.102C1259.24 255.799 1259.81 254.59 1261.2 254.59C1262.64 254.59 1260.07 253.079 1257.8 253.079C1255.5 253.079 1248.09 254.59 1247.79 257.84C1247.79 257.84 1245.49 257.538 1244.65 255.459C1243.82 253.343 1246.96 254.817 1248.66 253.948C1250.01 253.351 1251.26 252.548 1252.36 251.568C1253.19 250.661 1252.63 250.359 1250.93 250.056C1249.23 249.754 1249.49 247.071 1252.06 247.94C1254.63 248.847 1255.76 247.94 1256.33 246.769C1256.97 245.598 1262.37 245.862 1264.94 245.598C1267.51 245.333 1274.65 246.505 1269.78 247.109C1264.94 247.714 1260.37 248.318 1258.94 249.225C1257.5 250.094 1258.94 251.039 1260.07 251.039H1267.17C1268.61 251.039 1269.74 252.55 1268.34 254.628C1266.95 256.668 1264.94 261.467 1262.68 261.467C1260.37 261.467 1258.41 262.978 1256.97 262.978C1255.54 262.978 1255.27 263.583 1257.27 264.792C1259.28 266.001 1258.97 266.606 1258.11 267.777C1255.63 270.358 1252.73 272.493 1249.53 274.087C1246.66 275.296 1244.69 274.994 1243.52 274.994C1242.35 274.994 1241.82 272.878 1244.09 272.273C1246.39 271.669 1248.92 269.893 1250.36 269.893C1251.8 269.893 1249.79 268.117 1248.09 268.722C1246.39 269.326 1241.52 269.591 1240.38 270.8C1239.25 272.009 1236.11 273.218 1238.08 274.389C1240.08 275.598 1238.95 277.412 1238.95 279.83C1238.95 282.248 1236.95 283.76 1237.51 285.838C1238.08 287.954 1239.82 289.125 1240.95 289.125C1242.08 289.125 1242.65 291.241 1240.95 291.241C1239.25 291.241 1237.51 290.372 1237.81 292.11C1238.08 293.924 1239.82 296.909 1239.82 298.722C1239.82 300.536 1238.99 299.932 1237.25 299.025C1235.51 298.118 1231.54 296.304 1233.55 296.002C1235.55 295.7 1237.81 293.017 1234.68 292.412C1231.54 291.808 1226.71 290.901 1225.23 290.334C1223.8 289.73 1222.66 293.017 1225.53 293.622C1228.41 294.226 1231.81 296.002 1229.8 296.002C1227.8 296.002 1228.67 298.685 1227.5 298.118C1226.33 297.551 1225.5 296.607 1224.1 296.607C1222.66 296.607 1220.36 296.909 1222.66 298.118C1224.97 299.327 1226.1 300.498 1227.8 300.838C1229.5 301.141 1228.07 302.917 1228.07 302.917C1228.07 302.917 1227.8 303.219 1226.93 303.521C1226.1 303.823 1226.67 304.73 1227.8 305.939C1228.94 307.111 1229.5 307.715 1227.24 307.111C1224.93 306.506 1220.93 308.32 1220.66 306.506C1220.36 304.692 1219.53 303.483 1217.52 303.219C1215.52 302.916 1213.52 301.103 1213.52 301.103C1213.52 301.103 1211.52 300.498 1209.51 300.498C1207.51 300.498 1208.38 296.002 1211.52 297.211C1214.65 298.42 1215.79 299.629 1218.36 300.838C1220.93 302.047 1222.06 301.141 1222.06 301.141C1222.06 301.141 1218.36 299.629 1218.09 298.42C1217.79 297.211 1215.79 295.435 1217.79 295.133C1219.79 294.831 1221.79 294.226 1222.63 294.226C1223.49 294.226 1222.93 292.11 1219.79 291.543C1216.73 290.939 1213.86 291.241 1213.03 290.939C1212.2 290.637 1210.72 289.125 1210.19 290.032C1209.59 290.939 1211.63 293.055 1209.33 293.055C1207.02 293.055 1207.32 292.148 1205.32 290.674C1203.32 289.163 1202.75 287.349 1201.92 289.163C1201.05 290.977 1202.49 291.543 1199.61 291.279C1196.74 291.014 1194.48 290.41 1194.48 290.41L1193.91 290.561L1189.6 285.611C1189.6 285.611 1193.87 287.123 1195.87 288.332C1197.88 289.503 1199.31 287.727 1196.44 286.518C1193.61 285.309 1177.02 271.518 1174.19 269.969C1171.35 268.457 1172.75 270.875 1170.48 269.969C1168.22 269.024 1167.35 262.978 1167.35 262.978C1171.16 261.921 1177.74 263.507 1183.25 265.321C1188.51 267.021 1192.74 268.986 1192.74 268.986L1191.6 265.359C1191.6 265.359 1187.34 263.243 1192.47 265.057C1197.61 266.87 1195.04 262.676 1195.04 262.676C1196.18 263.545 1207.32 264.792 1210.16 264.792C1211.86 264.792 1212.42 263.281 1211.59 263.281C1210.72 263.281 1207.89 262.412 1207.89 262.412C1207.89 262.412 1203.62 261.807 1200.75 261.505C1197.88 261.203 1199.31 259.124 1199.31 259.124C1199.31 259.124 1198.18 258.255 1196.74 257.915C1195.36 257.599 1194.04 257.036 1192.85 256.253C1191.42 255.346 1189.34 255.27 1189.34 257.046C1189.34 258.86 1192.78 262.147 1192.78 262.147C1192.78 262.147 1189.64 262.147 1187.64 261.543C1185.63 260.938 1185.33 263.356 1183.63 261.845C1179.53 258.155 1175.03 254.936 1170.22 252.248C1170.22 252.248 1169.39 250.132 1168.22 249.263C1167.47 248.639 1166.59 248.204 1165.64 247.994C1164.7 247.783 1163.71 247.804 1162.78 248.054C1164.59 247.638 1164.66 253.721 1164.78 253.759C1165.42 254.077 1165.93 254.612 1166.21 255.27V260.938L1165.08 261.845C1161.98 259.994 1158.96 256.404 1157.37 255.422C1156.16 254.628 1156.16 256.215 1155.37 255.837C1154.61 253.23 1152.46 246.164 1148.34 244.54C1145.73 243.482 1143.77 243.935 1142.45 245.031C1142.15 241.857 1142.94 239.892 1143.81 238.759C1144.19 238.202 1144.69 237.737 1145.27 237.397C1145.85 237.057 1146.5 236.851 1147.17 236.794C1148.98 236.794 1151.59 238.608 1153.9 240.195L1154.58 240.648C1154.2 242.575 1153.97 247.6 1161.04 249.489L1161.34 247.978C1161.34 247.978 1159.41 246.693 1159.98 244.389C1161.42 244.993 1163.08 244.993 1165.31 243.368C1168.71 240.875 1172.3 240.875 1174.94 243.293C1177.89 246.013 1191.72 253.079 1191.72 253.117L1203.13 257.991V257.991Z"
    fill="#F3B822"
  />
  <path
    d="M1282.36 134.361C1281.34 134.362 1280.33 134.622 1279.43 135.118C1278.53 135.613 1277.77 136.328 1277.22 137.195C1275.48 139.932 1273.07 142.183 1270.22 143.742C1267.37 145.3 1264.18 146.115 1260.93 146.112C1257.68 146.108 1254.49 145.285 1251.64 143.72C1248.8 142.155 1246.39 139.898 1244.65 137.157C1244.1 136.3 1243.34 135.594 1242.44 135.106C1241.54 134.617 1240.54 134.362 1239.51 134.361H1219.15C1217.94 134.354 1216.75 134.71 1215.74 135.383C1214.73 136.056 1213.94 137.016 1213.48 138.14L1213.03 140.483L1213.29 141.2C1207.44 143.732 1204.11 147.699 1204.11 152.8C1204.11 156.276 1205.32 159.564 1207.47 161.831C1208.49 162.905 1209.71 163.756 1211.07 164.328C1212.43 164.901 1213.9 165.183 1215.37 165.156C1216.84 165.156 1223.65 164.664 1226.25 156.239C1227.8 157.259 1228.86 158.43 1228.86 160.017C1228.73 163.476 1228.11 166.898 1227.01 170.181C1225.76 172.864 1222.74 180.647 1206 223.986L1198.07 244.578L1198.59 247.866C1199.89 250.038 1201.62 251.926 1203.66 253.419C1205.71 254.912 1208.03 255.979 1210.5 256.556C1214.35 258.407 1219.38 256.896 1222.21 255.762C1224.48 257.161 1227.61 256.216 1229.62 254.44C1230.3 253.873 1231.39 254.931 1232.37 254.742C1233.45 254.57 1234.46 254.116 1235.3 253.426C1236.15 252.735 1236.79 251.834 1237.17 250.813L1257.27 193.569C1258.56 190.244 1260.79 189.262 1261.28 189.224C1261.62 189.262 1263.89 190.244 1265.17 193.645L1265.09 193.305C1265.28 193.947 1265.85 195.194 1267.74 199.539L1276.43 220.51C1276.84 221.524 1277.51 222.413 1278.37 223.083C1279.23 223.754 1280.26 224.183 1281.34 224.326C1282.41 224.493 1283.5 224.363 1284.5 223.95C1285.5 223.537 1286.37 222.856 1287.01 221.983L1303.07 199.955L1304.16 196.554L1303.75 194.287L1294.87 170.823C1293.36 167.433 1292.72 163.717 1293.02 160.017C1293.02 158.468 1294.04 157.297 1295.59 156.276C1296.03 158.292 1296.95 160.171 1298.27 161.755C1300.39 163.984 1303.22 165.156 1306.51 165.156C1313.87 165.156 1317.77 158.921 1317.77 152.8C1317.77 147.737 1314.44 143.732 1308.55 141.2L1308.85 140.483L1308.36 138.14C1307.9 137.019 1307.13 136.061 1306.12 135.387C1305.12 134.714 1303.94 134.356 1302.73 134.361H1282.36V134.361Z"
    fill="#F3B822"
  />
  <path
    d="M1282.36 137.082C1281.79 137.089 1281.23 137.238 1280.73 137.515C1280.23 137.792 1279.8 138.188 1279.49 138.669C1277.5 141.787 1274.75 144.353 1271.5 146.129C1268.25 147.905 1264.61 148.834 1260.91 148.831C1257.21 148.827 1253.57 147.89 1250.32 146.108C1247.08 144.325 1244.34 141.754 1242.35 138.631C1242.04 138.163 1241.62 137.777 1241.12 137.507C1240.63 137.237 1240.08 137.091 1239.51 137.082H1219.15C1218.48 137.071 1217.82 137.264 1217.26 137.635C1216.7 138.006 1216.26 138.537 1216.01 139.16C1215.85 139.582 1215.76 140.03 1215.75 140.482C1215.75 141.276 1216.13 142.069 1216.65 142.712C1211.4 144.374 1206.83 147.548 1206.83 152.8C1206.83 155.596 1207.78 158.203 1209.44 159.979C1210.2 160.767 1211.12 161.391 1212.13 161.814C1213.15 162.236 1214.23 162.447 1215.33 162.435C1217.86 162.435 1223.23 160.961 1224.29 152.195C1227.05 153.027 1231.5 155.067 1231.5 159.979C1231.5 161.944 1231.16 165.42 1229.54 170.899C1227.99 174.261 1224.02 184.652 1200.52 245.523C1200.37 245.938 1203.39 252.248 1211.59 254.1C1214.92 255.687 1219.79 254.553 1221.68 253.684C1222.66 253.609 1223.08 253.911 1223.23 254.024C1223.85 254.516 1224.63 254.773 1225.42 254.752C1226.22 254.732 1226.98 254.434 1227.57 253.911C1228.82 252.931 1230.31 252.304 1231.88 252.097C1232.48 252 1233.04 251.745 1233.5 251.36C1233.97 250.975 1234.32 250.473 1234.53 249.906L1254.7 192.7C1256.48 188.053 1259.84 186.504 1261.2 186.504C1262.56 186.504 1265.93 188.053 1267.7 192.7L1270.23 198.481L1278.92 219.489C1279.38 220.623 1280.47 221.53 1281.68 221.681C1282.89 221.832 1284.1 221.416 1284.82 220.396L1300.95 198.368C1301.27 197.926 1301.47 197.407 1301.53 196.864C1301.59 196.321 1301.51 195.771 1301.29 195.27L1292.41 171.806C1290.71 168.109 1289.98 164.037 1290.3 159.979C1290.3 155.105 1294.72 153.064 1297.48 152.195C1297.82 155.445 1298.61 158.128 1300.23 159.866C1301.04 160.704 1302.02 161.362 1303.1 161.798C1304.18 162.234 1305.34 162.438 1306.51 162.397C1312.36 162.397 1315.05 157.372 1315.05 152.762C1315.05 147.51 1310.44 144.299 1305.22 142.674C1305.79 142.068 1306.11 141.274 1306.13 140.445C1306.13 139.543 1305.77 138.678 1305.13 138.04C1304.49 137.402 1303.63 137.044 1302.73 137.044H1282.36V137.082Z"
    fill="#41403C"
  />
  <path
    d="M1203.77 246.77C1238 158.128 1235.06 167.309 1232.6 173.128C1231.05 176.869 1234.98 167.347 1234.98 160.017C1234.98 152.044 1226.93 148.871 1222.63 148.266L1221.34 149.475C1221.34 155.785 1219.34 159.035 1215.37 159.035C1214.73 159.057 1214.09 158.944 1213.5 158.703C1212.91 158.463 1212.37 158.099 1211.93 157.637C1210.79 156.287 1210.19 154.566 1210.23 152.8C1210.23 146.641 1220.89 145.092 1221 145.092L1223.34 144.752L1219.11 140.482H1239.48C1241.06 142.938 1247.87 152.196 1260.9 152.196C1273.94 152.196 1280.74 142.976 1282.32 140.482H1302.69L1298.46 144.752L1300.84 145.054C1300.91 145.054 1311.61 146.603 1311.61 152.762C1311.61 155.105 1310.55 158.997 1306.47 158.997C1305.76 159.032 1305.06 158.916 1304.4 158.655C1303.74 158.395 1303.14 157.996 1302.65 157.485C1301.18 155.974 1300.46 153.254 1300.46 149.437L1299.18 148.228C1294.91 148.833 1286.86 152.007 1286.86 159.979C1286.54 164.48 1287.36 168.99 1289.24 173.09C1289.65 174.11 1293.02 183.33 1298.08 196.479C1298.08 196.479 1293.36 203.582 1282.14 218.318C1276.92 203.885 1272.54 195.799 1270.88 191.453C1268.53 185.332 1263.81 183.103 1261.2 183.065H1261.17C1258.52 183.103 1253.84 185.332 1251.53 191.453C1248.7 198.897 1233.66 242.425 1231.43 248.697C1229.23 249 1227.15 249.902 1225.42 251.304C1224.81 250.841 1224.1 250.513 1223.35 250.344C1222.61 250.175 1221.83 250.167 1221.08 250.321C1221.08 250.321 1216.69 252.702 1213.71 250.208C1210.23 253.231 1203.77 246.77 1203.77 246.77V246.77ZM1281.04 237.135C1281.04 237.135 1278.36 243.18 1277.79 244.692C1277.22 246.203 1276.66 247.979 1275.79 247.979C1274.92 247.979 1274.09 248.886 1274.09 250.699C1274.09 252.513 1274.09 253.118 1273.26 253.722C1272.39 254.327 1271.82 255.536 1271.52 258.218C1271.25 260.901 1274.65 262.11 1276.66 262.11C1278.66 262.11 1276.09 260.901 1276.09 259.087C1276.09 257.274 1276.96 257.878 1278.66 257.878C1280.36 257.878 1279.23 256.972 1278.36 254.856C1277.53 252.777 1280.36 253.118 1282.36 254.289C1284.37 255.498 1284.1 252.513 1282.66 250.699C1281.23 248.923 1281.83 248.583 1283.5 248.583C1285.2 248.583 1287.24 247.374 1287.24 247.374C1286.1 240.195 1290.94 241.971 1290.94 241.971C1286.37 238.382 1288.07 237.173 1289.5 237.173C1290.94 237.173 1291.51 235.661 1291.51 235.661C1289.5 233.885 1292.07 232.374 1293.51 232.638C1294.94 232.941 1296.95 233.243 1296.38 232.034C1295.81 230.825 1296.38 228.104 1297.21 228.104C1298.08 228.104 1298.91 226.593 1296.95 224.515C1294.94 222.399 1298.65 222.097 1300.91 222.097C1303.18 222.097 1303.48 216.693 1303.48 216.693C1302.05 214.011 1306.36 214.011 1306.36 214.011C1306.36 214.011 1313.46 204.98 1322.91 199.879C1332.35 194.779 1348.03 195.081 1355.74 198.67C1363.45 202.298 1355.17 194.174 1355.17 194.174C1355.17 194.174 1362.58 197.197 1366.28 200.182C1369.98 203.204 1372.55 202.298 1381.13 208.003C1389.71 213.708 1388.27 209.212 1388.27 209.212C1388.27 209.212 1401.35 219.149 1405.62 224.25C1408.75 228.029 1408.64 223.608 1408.45 221.114C1385.97 197.461 1348.03 187.033 1333.71 187.033C1320.83 187.033 1306.51 197.461 1306.36 197.575C1306.36 197.575 1294.11 205.207 1281.04 237.135ZM1205.58 286.141C1204.37 285.33 1203.22 284.42 1202.15 283.421C1202.15 283.421 1200.14 282.514 1199.84 283.421C1199.84 283.421 1201.28 289.126 1207.29 287.615C1206.88 286.967 1206.28 286.454 1205.58 286.141V286.141ZM1167.08 272.01L1169.92 274.39C1169.92 274.39 1170.79 274.088 1167.08 272.01ZM1176.49 275.599C1176.49 275.599 1177.62 277.715 1173.35 277.413C1173.35 277.413 1178.49 278.584 1181.63 282.211C1181.63 282.211 1180.76 278.017 1176.49 275.599V275.599ZM1185.6 287.615C1184.16 285.801 1181.02 284.894 1181.02 284.894C1181.02 284.894 1183.9 292.413 1189.87 293.018L1185.6 287.615V287.615ZM1156.5 269.591C1156.5 269.591 1163.34 273.219 1165.08 275.297C1166.78 277.413 1162.21 269.894 1156.5 269.591ZM1167.91 277.715C1167.91 277.715 1172.75 282.816 1175.62 283.118C1175.62 283.118 1171.54 278.622 1167.91 277.715ZM1474.76 309.114C1472.27 302.955 1461.12 284.025 1447.52 265.813C1439.33 255.233 1430.41 245.234 1420.84 235.888C1429.08 246.619 1444.87 268.836 1446.72 270.763C1448.99 273.181 1445.86 274.05 1444.72 272.576C1443.59 271.103 1436.14 261.166 1432.18 256.934C1428.17 252.74 1426.47 256.065 1427.91 257.841C1429.34 259.654 1436.75 269.554 1439.32 273.181C1441.89 276.77 1439.05 276.468 1437.32 274.352C1435.58 272.236 1430.17 266.002 1428.47 263.281C1426.77 260.599 1416.76 251.871 1414.49 250.397C1412.19 248.886 1409.05 249.792 1410.49 251.606C1411.92 253.42 1415.33 258.218 1416.76 259.994C1418.2 261.808 1421.33 262.412 1422.47 263.017C1423.6 263.622 1425.91 267.513 1427.04 268.42C1428.17 269.327 1426.77 271.443 1425.91 269.932C1425.04 268.42 1424.47 267.816 1423.34 266.342C1422.73 265.537 1421.96 264.875 1421.07 264.405C1420.18 263.935 1419.2 263.667 1418.2 263.622C1416.19 263.622 1413.36 259.427 1411.89 257.614C1408.25 254.03 1404.34 250.721 1400.21 247.714C1396.21 244.729 1396.21 248.017 1397.64 248.621C1399.08 249.226 1405.31 255.233 1406.75 256.443C1408.18 257.652 1406.18 260.032 1404.75 258.256C1403.31 256.443 1396.17 250.435 1393.9 249.566C1391.63 248.697 1388.46 248.659 1389.07 250.17C1389.63 251.682 1393.9 256.48 1395.07 257.992C1396.24 259.503 1395.07 261.279 1393.37 259.503C1391.67 257.727 1387.67 252.626 1385.97 250.51C1384.27 248.394 1383.96 247.79 1382.26 248.394C1380.56 248.999 1375.99 248.394 1377.13 249.604C1378.26 250.813 1383.66 258.596 1385.4 260.41C1387.1 262.186 1385.97 263.395 1383.7 261.014C1381.43 258.634 1375.73 252.626 1372.86 250.51C1369.98 248.394 1362.58 249.301 1362.58 249.301L1366.58 253.495C1367.98 254.969 1369.42 259.163 1364.88 254.364C1360.27 249.49 1356.84 250.699 1355.14 253.42C1353.43 256.102 1356.27 258.218 1357.44 258.823C1358.57 259.427 1356.87 262.753 1355.74 261.203C1354.61 259.692 1351.73 257.614 1348.86 259.692C1346.03 261.808 1346.6 267.513 1346.6 267.513C1344.1 266.493 1342.86 266.909 1342.86 266.909C1340.29 276.808 1347.69 278.471 1347.69 278.471C1351.39 279.604 1352.15 279 1352.41 278.66C1353.36 277.526 1352.15 274.012 1351.02 272.01L1349.09 268.496L1352.53 270.309C1360.5 274.503 1362.39 273.408 1362.77 272.954C1363.86 271.745 1363.15 266.72 1361.82 264.264C1366.32 267.324 1370.63 267.627 1372.59 266.607C1374.14 265.813 1374.41 261.695 1374.41 261.695L1376.07 262.866C1385.78 269.818 1389.18 269.478 1390.16 269.025C1390.73 268.76 1390.99 266.002 1390.99 266.002L1392.65 267.4C1395.38 269.705 1397.72 270.649 1399.38 270.12C1401.04 269.591 1402.29 265.662 1402.29 265.662L1403.61 267.249C1409.51 274.239 1413.32 275.675 1415.48 275.675C1417.1 275.675 1418.61 273.748 1418.61 273.748C1418.61 273.748 1424.32 280.965 1428.32 279.869C1429.87 279.415 1430.48 274.012 1430.48 274.012C1430.48 274.012 1441.66 289.768 1447.78 289.844C1448.99 289.844 1449.48 289.239 1449.48 289.239L1450.62 287.652L1451.45 289.428C1454.09 295.02 1474.23 310.247 1475.48 310.965C1475.33 310.587 1475.14 309.983 1474.76 309.114V309.114Z"
    fill="#F3B822"
  />
  <path
    d="M1411.36 235.358C1411.36 235.358 1413.36 239.25 1415.33 239.25C1417.29 239.25 1416.76 236.87 1411.36 235.358ZM1418.76 244.389C1418.76 244.389 1421.9 249.792 1425.9 250.699C1429.87 251.606 1423.9 244.087 1418.76 244.389ZM1156.88 259.767C1149.85 260.56 1141.69 254.591 1141.69 254.591C1151.36 272.614 1158.62 261.165 1158.62 261.165L1156.88 259.767ZM1159.94 262.412C1159.15 264.188 1157.07 264.603 1157.07 264.603C1157.64 265.624 1161.45 264.792 1161.45 264.792C1161.45 264.792 1160.7 260.598 1159.94 262.412ZM1189.03 269.289C1186.47 269.024 1181.63 266.606 1181.63 266.606C1185.9 272.614 1191.6 269.591 1189.03 269.289ZM1218.58 187.523C1209.59 180.798 1199.24 174.601 1196.4 175.168C1196.1 175.886 1193.64 175.508 1193.64 175.508C1193.66 174.79 1193.94 174.103 1194.44 173.581V173.43C1194.36 173.279 1193.27 171.881 1187.79 171.881C1186.39 170.369 1183.93 168.707 1183.18 168.933L1180.53 169.651C1180.43 168.672 1179.95 167.768 1179.21 167.12C1178.08 166.175 1175.92 165.835 1173.66 166.213C1172.09 164.751 1170.29 163.564 1168.33 162.699C1168.33 162.888 1166.29 164.324 1166.29 164.324C1165.99 163.455 1164.48 160.659 1160.05 160.848C1159.94 160.81 1149.06 154.84 1140.94 154.84C1137.57 153.102 1128.84 149.512 1124.01 150.646C1129 152.724 1133 156.314 1134.63 157.258C1127.07 152.875 1113.77 148.228 1110.22 150.797C1118.83 153.404 1125.14 158.845 1125.52 159.072C1118.29 155.418 1110.54 152.883 1102.55 151.553C1089.13 149.815 1080.14 150.57 1077.27 153.631L1076.97 153.933L1076.55 153.971C1071.39 154.411 1066.28 155.321 1061.29 156.691C1063.36 158.165 1068.65 157.258 1072.89 156.54C1088.64 153.782 1112.6 158.165 1123.48 164.059C1133.95 169.689 1150.68 181.78 1155.44 187.108L1157.49 189.11C1157.49 189.11 1159.79 187.599 1162.06 189.11C1164.36 190.622 1166.63 194.211 1166.63 197.234C1166.63 200.219 1167.46 199.614 1170.03 201.428C1172.6 203.242 1169.76 197.234 1170.63 198.103C1171.47 199.01 1172.9 201.126 1174.34 203.242C1175.77 205.358 1176.91 204.111 1177.47 202.637C1178.04 201.164 1174.9 200.219 1172.9 198.103C1170.34 194.901 1168.05 191.488 1166.06 187.901C1164.63 185.521 1158.09 183.405 1156.65 182.8C1155.22 182.196 1155.22 182.536 1156.09 181.327C1156.92 180.118 1160.66 182.196 1162.36 182.536C1164.06 182.8 1164.36 182.536 1163.79 180.118C1163.23 177.737 1151.25 169.916 1146.98 167.8C1142.71 165.684 1144.53 163.908 1144.53 163.908C1144.53 163.908 1144.83 164.513 1153.37 168.707C1161.91 172.901 1165.61 180.118 1165.61 180.118C1165.61 180.118 1168.18 182.536 1172.18 181.629C1176.19 180.722 1156.77 167.195 1156.77 167.195C1176.76 177.435 1176.19 181.629 1176.19 181.629L1180.19 182.8C1185.33 182.196 1168.78 168.707 1168.78 168.707C1186.16 179.211 1182.76 182.8 1182.76 182.8C1182.76 182.8 1187.03 185.181 1189.03 183.443C1191.04 181.629 1183.9 176.226 1183.9 176.226C1183.9 176.226 1190.74 179.249 1191.6 180.42C1192.47 181.629 1191.6 184.614 1191.91 185.521C1192.17 186.428 1196.18 187.334 1198.18 187.334C1200.18 187.334 1204.19 188.846 1204.19 188.846L1198.48 181.365C1204.49 184.047 1214.2 193.947 1214.2 193.947C1213.37 190.017 1211.33 187.939 1211.33 187.939C1213.33 188.732 1216.16 191.34 1216.88 191.982L1218.58 187.523V187.523ZM1198.18 225.761C1197.05 223.947 1195.04 223.645 1191.08 222.474C1187.07 221.265 1184.5 215.559 1181.93 212.877C1179.89 210.723 1180.19 213.746 1180.42 215.068C1188.81 223.796 1197.01 231.58 1201.13 232.902L1202.49 229.351C1200.86 228.401 1199.41 227.188 1198.18 225.761V225.761ZM1209.02 207.776C1207.47 207.133 1208.42 210.043 1209.17 211.894L1210.76 207.851C1210.19 208.012 1209.58 207.985 1209.02 207.776V207.776Z"
    fill="#F3B822"
  />
  <path
    d="M1182.2 192.134C1179.89 191.227 1178.19 190.622 1176.49 189.111C1174.79 187.599 1163.95 180.118 1166.52 184.312C1166.52 184.312 1176.49 195.119 1176.49 197.234C1176.49 199.35 1178.19 200.219 1179.36 200.824C1180.53 201.429 1180.5 197.801 1180.5 197.801C1180.5 197.801 1176.23 192.7 1179.66 193.909C1183.06 195.119 1184.24 197.499 1185.37 196.592C1186.5 195.685 1184.5 193.04 1182.2 192.134V192.134ZM1175.62 184.917C1175.62 184.917 1179.32 190.018 1181.33 190.018C1183.33 190.018 1175.32 182.234 1175.62 184.917ZM1193.91 194.25C1191.91 192.474 1188.47 191.227 1187.33 188.846C1186.2 186.466 1183.37 186.73 1184.5 187.94C1184.5 187.94 1187.9 192.738 1191.91 194.854C1195.87 196.97 1193.04 196.97 1191.34 196.97C1189.64 196.97 1190.47 198.141 1192.47 199.35C1194.48 200.56 1197.05 200.219 1197.05 200.219C1197.05 200.219 1195.87 196.025 1193.91 194.25V194.25ZM1202.45 197.537C1200.14 195.421 1194.48 189.111 1193.61 188.544C1192.74 187.94 1191.04 188.544 1191.04 188.544C1192.74 190.055 1198.44 195.459 1199.84 197.234C1201.31 199.048 1204.72 199.653 1202.45 197.537V197.537ZM1205.28 194.25C1204.15 192.738 1201.01 190.055 1201.31 192.134C1201.31 192.134 1203.62 195.723 1204.72 196.328C1205.89 196.932 1206.45 195.723 1205.28 194.25ZM1210.72 196.025C1209.89 193.909 1207.59 192.096 1207.89 193.305C1207.89 193.305 1210.19 199.313 1212.46 199.313C1214.73 199.35 1211.59 198.141 1210.72 196.025ZM1193.34 206.227C1192.27 205.465 1191.3 204.563 1190.47 203.544C1190.47 203.544 1186.77 201.164 1187.64 203.544C1187.64 203.544 1192.78 209.25 1194.21 209.854C1195.61 210.459 1194.48 206.87 1193.34 206.227ZM1195.87 216.467C1194.74 216.164 1191.6 215.862 1191.6 215.862C1191.6 215.862 1194.48 219.754 1197.31 218.28C1200.18 216.769 1197.05 216.769 1195.87 216.467ZM1157.18 250.473C1157.18 250.473 1157.37 251.984 1158.81 252.589C1160.24 253.193 1158.13 250.473 1157.18 250.473Z"
    fill="#F3B822"
  />
  <path
    d="M1418.23 369.455C1418.2 368.106 1418.44 366.764 1418.93 365.507C1419.43 364.251 1420.16 363.104 1421.1 362.134C1422.04 361.164 1423.16 360.39 1424.4 359.857C1425.64 359.323 1426.97 359.041 1428.32 359.026C1429.67 359.046 1431 359.332 1432.23 359.868C1433.47 360.403 1434.59 361.178 1435.52 362.148C1436.45 363.117 1437.19 364.262 1437.68 365.516C1438.17 366.77 1438.4 368.109 1438.37 369.455C1438.41 370.804 1438.18 372.147 1437.69 373.405C1437.2 374.664 1436.47 375.813 1435.53 376.787C1434.6 377.76 1433.48 378.538 1432.24 379.076C1431 379.614 1429.67 379.902 1428.32 379.921C1426.97 379.907 1425.63 379.623 1424.39 379.087C1423.15 378.551 1422.03 377.774 1421.09 376.8C1420.15 375.826 1419.41 374.675 1418.92 373.414C1418.43 372.153 1418.2 370.807 1418.23 369.455V369.455Z"
    fill="#41403C"
  />
  <path
    d="M1428.29 378.184C1432.78 378.184 1436.33 374.481 1436.33 369.455C1436.33 364.506 1432.78 360.803 1428.29 360.803C1423.75 360.803 1420.2 364.543 1420.2 369.455C1420.2 374.481 1423.79 378.184 1428.29 378.184Z"
    fill="#F3B822"
    stroke="#41403C"
    stroke-width="0.982393"
  />
  <path
    d="M1426.21 375.5H1424.47V363.447H1428.85C1431.57 363.447 1432.89 364.505 1432.89 366.848C1432.89 369.039 1431.57 369.946 1429.91 370.173L1433.16 375.5H1431.23L1428.21 370.248H1426.21V375.5V375.5Z"
    fill="#41403C"
  />
  <path
    d="M1428.29 368.7C1429.76 368.7 1431.08 368.624 1431.08 366.773C1431.08 365.262 1429.8 364.997 1428.59 364.997H1426.25V368.7H1428.29Z"
    fill="#F3B822"
    stroke="#41403C"
    stroke-width="0.982393"
  />
  <path
    d="M1288.11 262.677C1288.11 262.677 1289.47 270.083 1291.36 268.987C1293.24 267.891 1290.07 264.906 1288.11 262.677ZM1293.96 258.521C1293.96 258.521 1294.08 265.171 1296.68 265.511C1299.29 265.851 1295.25 259.919 1293.96 258.521ZM1302.31 258.861C1301.82 257.123 1300.01 253.382 1299.33 255.271C1299.33 255.271 1299.71 261.581 1302.46 263.093C1305.18 264.604 1302.8 260.637 1302.31 258.861ZM1308.43 257.312C1307.32 255.554 1306.62 253.563 1306.39 251.493C1306.28 250.284 1304.62 248.357 1304.54 250.473C1304.54 250.473 1304.2 258.067 1307 260.183C1309.79 262.299 1309.79 259.276 1308.43 257.312V257.312ZM1314.89 255.762C1314.1 253.722 1311.95 252.475 1311.76 250.661C1311.57 248.886 1309.42 247.601 1309.68 249.981C1309.95 252.362 1310.97 256.783 1312.55 258.105C1314.14 259.465 1315.69 257.765 1314.89 255.762ZM1319.47 250.133C1318.14 248.47 1315.95 246.581 1315.46 244.503C1314.93 242.462 1313.27 242.954 1313.46 244.729C1313.69 246.808 1315.92 251.719 1318.33 252.966C1320.75 254.251 1320.79 251.833 1319.47 250.133ZM1323.43 244.276C1322.07 242.311 1319.43 238.948 1318.98 237.172C1318.48 235.397 1316.44 235.019 1316.71 237.701C1317.05 240.989 1319.92 246.43 1323.55 248.168C1327.21 249.944 1324.79 246.279 1323.43 244.276V244.276ZM1329.06 240.384C1327.23 238.502 1325.57 236.453 1324.11 234.263C1323.4 232.827 1321.47 233.621 1321.62 235.094C1321.62 235.094 1325.13 241.102 1328.2 243.18C1331.29 245.296 1330.35 241.744 1329.06 240.384V240.384ZM1332.46 231.845C1331.26 231.051 1327.06 232.449 1327.06 232.449C1327.06 232.449 1330.58 236.001 1332.96 236.644C1335.34 237.286 1333.71 232.638 1332.46 231.845ZM1320.15 218.998C1318.45 221.908 1325.81 221.114 1325.81 221.114C1325.81 221.114 1323.13 213.973 1320.15 218.998ZM1312.93 226.064C1311.87 229.805 1319.13 232.978 1319.01 229.351C1318.9 225.724 1312.93 226.064 1312.93 226.064ZM1307.87 229.88C1305.11 236.228 1311.46 236.757 1311.46 236.757C1312.14 232.185 1307.87 229.88 1307.87 229.88ZM1280.96 277.262C1279.38 286.519 1285.99 283.987 1285.99 283.987C1286.29 278.849 1280.96 277.262 1280.96 277.262ZM1325.17 211.177C1325.17 211.177 1327.67 215.749 1330.73 215.106C1333.82 214.502 1325.17 211.177 1325.17 211.177ZM1294.26 242.198C1294.26 242.198 1293.47 248.319 1295.97 247.752C1298.5 247.185 1294.26 242.198 1294.26 242.198ZM1341.27 224.553C1338.43 221.794 1337.45 219.074 1337.45 219.074C1337.6 217.374 1340.36 219.489 1342.02 220.623C1343.69 221.756 1346.6 225.497 1348.03 227.046C1349.47 228.595 1349.05 230.749 1347.2 230.334C1345.35 229.918 1344.1 227.349 1341.27 224.553V224.553ZM1346.75 216.807C1347.09 214.389 1351.73 216.882 1353.4 218.356C1355.06 219.829 1358.69 222.663 1359.63 225.044C1360.61 227.386 1354.95 225.535 1353.28 224.099C1351.62 222.588 1346.52 218.545 1346.75 216.807ZM1362.69 214.237C1361.56 213.255 1362.5 211.63 1364.47 213.671C1364.47 213.671 1369.57 219.036 1369.3 215.447C1369.3 215.447 1374.59 219.414 1375.24 221.228C1375.88 223.003 1375.24 224.93 1371.34 222.134C1367.53 219.376 1363.79 215.22 1362.69 214.237V214.237ZM1357.21 218.507C1361.6 221.114 1360.2 216.202 1360.2 216.202C1365.53 221.152 1367.87 224.779 1364.96 224.024C1362.01 223.343 1357.21 218.507 1357.21 218.507ZM1391.75 223.759C1386.72 223.381 1374.63 215.258 1374.63 215.258C1378.6 215.938 1396.74 224.137 1391.75 223.759ZM1353.74 206.265C1353.74 206.265 1360.43 211.479 1358.65 212.726C1356.91 213.973 1354.12 207.814 1353.74 206.265ZM1347.47 209.665C1346.03 208.116 1343.69 204.527 1346.14 205.736C1346.14 205.736 1352.26 210.761 1351.66 212.953C1350.98 215.22 1348.86 211.215 1347.47 209.665V209.665ZM1340.97 210.761C1339.87 208.745 1338.41 206.951 1336.66 205.471C1335.53 204.527 1334.85 202.373 1337.07 203.998C1337.07 203.998 1345.08 209.741 1345.01 212.462C1344.93 215.182 1341.91 212.802 1340.97 210.761V210.761ZM1334.28 211.933C1332.84 210.081 1333.22 208.267 1331.56 206.794C1329.9 205.32 1330.27 203.544 1332.5 205.509C1334.73 207.474 1338.43 211.252 1338.55 212.915C1338.66 214.54 1335.71 213.822 1334.28 211.933V211.933Z"
    fill="#F3B822"
  />
  <path
    d="M1310.25 226.29C1307.68 235.321 1314.55 233.507 1314.55 233.507C1315.39 228.406 1310.25 226.29 1310.25 226.29ZM1302.84 230.787C1302.84 230.787 1301.41 236.794 1303.97 236.492C1306.54 236.19 1302.84 230.787 1302.84 230.787ZM1050.74 164.022C1050.74 164.022 1071.6 154.576 1099.56 159.676C1127.48 164.777 1148.38 182.914 1161.75 200.219C1175.13 217.524 1188.51 232.902 1194.82 233.28C1194.82 233.28 1194.78 239.515 1188.13 234.867C1164.51 218.318 1146.3 183.594 1119.25 170.332C1103.25 162.593 1085.33 159.716 1067.71 162.057C1056.26 164.022 1055.05 168.745 1050.74 164.022V164.022Z"
    fill="#F3B822"
  />
  <path
    d="M2461.65 362.616V370.815H1481.94C1483.19 368.095 1484.43 365.374 1485.6 362.616H2461.65Z"
    fill="#41403C"
  />
  <path
    d="M1650.08 567.219C1658.62 566.879 1664.44 571.262 1661.49 578.441C1650.57 605.041 1592.38 649.475 1548.29 654.198C1562.57 621.137 1621.7 568.352 1650.08 567.219Z"
    fill="#F3B822"
    stroke="#41403C"
    stroke-width="0.944608"
  />
  <path
    d="M2150.12 567.143C2158.92 566.879 2163.34 570.846 2161.91 578.705C2157.52 602.472 2093.52 648.757 2048.1 653.632C2062.76 619.588 2126.8 567.861 2150.12 567.143Z"
    fill="#F3B822"
    stroke="#41403C"
    stroke-width="0.982393"
  />
  <path
    d="M914.381 712.159C901.534 712.159 897.454 707.36 898.625 695.723C902.328 658.241 976.461 570.921 1026.11 569.259C1041 568.73 1045.23 579.158 1042.21 592.345C1034.31 626.804 948.198 712.159 914.381 712.159V712.159Z"
    fill="#F3B822"
  />
</svg>
