<svg
  xmlns="http://www.w3.org/2000/svg"
  width="2500"
  height="1368"
  viewBox="0 0 2500 1368"
  fill="none"
>
  <g clip-path="url(#clip0_5_59)">
    <path
      d="M2356.97 358.316C2365.84 367.185 2373.14 363.312 2376.45 351.468C2376.56 349.184 2377.55 347.029 2379.19 345.444C2380.84 343.858 2383.03 342.961 2385.32 342.936L2495.51 342.543C2509.04 358.765 2488.89 369.43 2475.36 371.058C2467.61 370.834 2461.72 377.401 2461.6 385.035L2462.67 690.568C2463.34 765.113 2388.18 810.075 2319.7 802.385C2279.4 797.389 2236.68 775.273 2218.89 737.327C2215.91 731.096 2214.68 740.19 2214.39 742.266L2208.56 774.262C2200.26 808.593 2184.52 840.681 2162.45 868.258C2140.39 895.835 2112.53 918.226 2080.85 933.849C2033.21 957.045 1981.24 970.046 1928.28 972.019C1921.49 973.086 1910.94 972.917 1913.58 960.849C1913.46 959.389 1914.7 957.761 1915.49 955.909C1930.25 918.973 1874.12 894.499 1856.66 930.537C1848.29 948.05 1859.8 975.107 1881.47 974.938C1892.53 974.994 1903.7 974.658 1914.92 973.984C1949.17 1026.3 1950.01 1101.41 1895.33 1141.32C1872.38 1157.82 1849.7 1142.72 1829.6 1129.87C1811.64 1118.13 1798.34 1138.34 1798.5 1154.68L1800.36 1316.62C1800.19 1340.93 1838.58 1323.58 1837.4 1347.83C1837.27 1351.43 1835.76 1354.84 1833.18 1357.35C1830.59 1359.86 1827.14 1361.28 1823.54 1361.3L1707.18 1361.47L1706 1138.62C1705.95 1135.15 1705.04 1131.74 1703.34 1128.7C1701.64 1125.67 1699.21 1123.11 1696.27 1121.26C1693.33 1119.41 1689.97 1118.32 1686.51 1118.1C1683.04 1117.88 1679.57 1118.52 1676.41 1119.99C1659.46 1127.84 1643.24 1137.28 1628.03 1148.22C1626.79 1157.88 1626.51 1167.19 1622.08 1176.12C1596.71 1225.91 1537.26 1253.08 1483.82 1256.73C1496.51 1323.41 1582 1330.99 1625.95 1290.29C1632.29 1283.84 1646.83 1266.27 1654.19 1281.99C1654.95 1283.33 1655.37 1284.84 1655.41 1286.39C1655.45 1287.94 1655.11 1289.47 1654.41 1290.86C1610.29 1385.16 1470.91 1393.8 1412.36 1308.48C1405.74 1297.7 1400.3 1286.24 1396.14 1274.3C1345.4 1339.75 1257.1 1393.02 1174.14 1355.18C1055.92 1301.91 1068.77 1113.03 1191.14 1071.37C1239.42 1055.83 1313.29 1063.8 1330.52 1121.45C1335.2 1137.43 1335.04 1154.44 1330.06 1170.33C1325.09 1186.22 1315.52 1200.29 1302.57 1210.75C1270.11 1236.56 1231.53 1253.53 1190.58 1260.04C1203.61 1314.82 1265.3 1327.57 1311.1 1305.51C1343.55 1288.95 1365.04 1257.91 1385.93 1229.28C1385.11 1219.43 1385.22 1209.52 1386.26 1199.7C1395.24 1106.91 1489.55 1040.78 1580.31 1072.89C1598.89 1080.19 1614.61 1095.79 1621.68 1115.21C1644.7 1096.8 1669.34 1080.41 1695.22 1066.32C1724.24 1050.49 1759.77 1060.99 1770.72 1093.55C1770.96 1096.78 1772 1099.91 1773.75 1102.64C1778.52 1109.94 1790.31 1106.68 1790.76 1097.93C1791.71 1073.79 1794.46 1035.34 1829.49 1039.27C1851.72 1041.18 1880.18 1085.58 1900.22 1055.38C1903.34 1051.42 1904.95 1046.49 1904.76 1041.46C1904.46 1028.76 1901.5 1016.27 1896.06 1004.79C1890.63 993.314 1882.85 983.105 1873.22 974.826C1741.42 972.188 1612.37 943.223 1484.66 912.743C1480.29 911.62 1475.85 910.89 1471.47 909.824C1453.51 905.333 1435.44 901.067 1417.36 896.969C1284.94 868.398 1144.61 850.435 1011.57 884.62L981.206 895.285C955.399 879.04 925.644 870.15 895.154 869.576C819.638 868.407 744.105 868.725 668.601 870.531C666.46 872.656 664.788 875.207 663.692 878.018C662.596 880.829 662.101 883.838 662.238 886.852C662.376 889.866 663.143 892.818 664.49 895.517C665.837 898.217 667.735 900.605 670.061 902.526C683.252 904.435 706.435 903.481 706.94 921.949L708.343 1046.62C708.343 1048.42 710.42 1049.43 711.824 1048.47L801.412 986.052C801.749 985.815 802.146 985.676 802.557 985.649C802.969 985.622 803.38 985.709 803.745 985.901C804.11 986.092 804.416 986.38 804.628 986.734C804.84 987.087 804.951 987.493 804.948 987.905L804.892 1073C845.196 1075.87 900.487 1077.32 916.709 1030.34C926.982 999.805 912.78 961.691 881.738 949.341C878.932 948.443 875.283 947.601 873.206 945.581C873.038 945.524 872.982 945.468 872.982 945.356V945.188L873.262 944.851C874.946 943.728 876.855 943.279 878.707 942.493C910.986 926.672 943.786 911.938 977.052 898.316C997.884 913.894 1013.12 935.791 1020.48 960.739C1027.85 985.686 1026.95 1012.35 1017.92 1036.74C1017.63 1037.62 1017.4 1038.52 1017.24 1039.44C1011.48 1053 1003.01 1065.24 992.342 1075.4C981.675 1085.57 969.041 1093.44 955.217 1098.54C936.188 1105.05 945.057 1116 961.897 1120.38C965.265 1120.38 968.464 1121.28 971.664 1122.4C1057.94 1152.88 1061.25 1274.58 996.082 1328.52C954.88 1361.92 900.992 1361.98 850.528 1361.92L665.57 1361.47C654.006 1352.88 655.803 1329.81 672.137 1327.34C688.304 1324.87 708.343 1323.92 708.399 1302.36L707.894 1050.04L456.306 915.044L523.553 868.173C685.216 755.345 878.37 677.377 1077.53 677.657C1192.89 677.633 1307.64 694.348 1418.2 727.279C1499.31 751.023 1578.8 779.876 1659.57 804.574L1740.13 829.16C1851.94 862.504 1981.89 884.339 2092.64 837.524C2118.78 826.605 2141.71 809.198 2159.25 786.951C2176.79 764.704 2188.37 738.351 2192.9 710.383L2197.11 680.015L2227.59 678.948C2230.95 743.838 2313.92 773.869 2358.77 726.044C2360.56 723.293 2362.75 720.038 2364.27 716.445C2368.26 706.846 2370.28 696.462 2370.22 686.021L2369.71 604.965C2369.38 589.023 2351.53 597.499 2344.9 602.944C2284.79 653.239 2189.36 626.576 2163.03 552.312C2133.39 467.326 2172.69 345.069 2274.91 334.796C2303.65 332.102 2333.9 339.455 2356.97 358.316V358.316Z"
      fill="#41403C"
    />
    <path
      d="M1422.08 555.006C1422.97 589.191 1475.07 596.769 1495.78 577.179C1498.61 574.657 1500.92 571.596 1502.55 568.175C1504.19 564.753 1505.13 561.04 1505.32 557.251L1506 470.47L1476.08 447.23C1472.02 444.053 1468.76 439.985 1466.53 435.342C1464.3 430.699 1463.17 425.605 1463.22 420.455L1463.17 344.731L1562.75 344.675L1562.63 460.871C1578.8 472.49 1596.87 481.415 1615.9 487.366C1619.78 488.713 1628.98 491.519 1629.15 484.559C1629.32 482.65 1629.04 480.742 1629.1 478.833C1631.79 409.284 1684.11 347.987 1754.22 338.894C1794.52 334.066 1846.27 344.731 1862.78 387.336C1887.31 367.08 1914.36 350.098 1943.27 336.817C1961.23 328.565 1986.55 330.137 1999.85 346.135C2006.93 354.442 2010.01 364.322 2014.95 373.808C2015.29 374.931 2016.02 375.885 2016.81 376.783C2021.75 382.172 2031.79 379.197 2032.19 371.563C2032.36 368.384 2032.36 365.199 2032.19 362.02C2030.73 339.736 2040.38 313.016 2066.71 311.781C2089.61 310.49 2101.01 336.199 2122.17 339.006C2124.97 339.431 2127.82 339.279 2130.56 338.56C2133.3 337.841 2135.86 336.57 2138.09 334.825C2140.32 333.079 2142.17 330.897 2143.52 328.411C2144.88 325.925 2145.71 323.189 2145.97 320.37C2146.57 313.256 2145.52 306.1 2142.91 299.459C2140.29 292.818 2136.17 286.872 2130.87 282.087L2113.97 266.426C2104.82 258.23 2115.15 243.074 2126.27 248.632C2165.05 268.222 2184.31 309.536 2176.06 352.141C2170.61 377.232 2154.73 407.881 2129.63 418.266C2112.74 425.844 2096.91 419.837 2082.82 409.734C2078.81 406.537 2074.46 403.789 2069.85 401.538C2066.86 400.141 2063.56 399.504 2060.26 399.684C2056.96 399.865 2053.76 400.856 2050.93 402.572C2048.1 404.287 2045.74 406.674 2044.06 409.519C2042.38 412.364 2041.42 415.581 2041.28 418.883C2039.46 475.154 2039.62 531.472 2041.79 587.732C2041.79 600.754 2053.18 605.077 2064.13 605.638C2077.43 605.975 2085.51 621.468 2078.44 632.863L1950.34 633.424C1949.17 618.549 1948.6 603.673 1948.55 588.742L1947.15 413.214C1947.06 409.664 1946.13 406.186 1944.43 403.068C1942.73 399.949 1940.31 397.281 1937.38 395.283C1934.44 393.286 1931.07 392.017 1927.55 391.582C1924.02 391.147 1920.45 391.558 1917.11 392.781C1899.04 399.91 1882.31 410.576 1868.28 424.16C1863.9 475.746 1811.58 507.461 1766.96 521.27C1753.08 525.827 1738.7 528.655 1724.13 529.69C1732.04 565.054 1765.44 590.65 1801.76 589.135C1830.66 587.738 1857.87 575.109 1877.6 553.939C1884.67 543.386 1901.34 553.21 1895.56 564.605C1859.18 637.578 1761.23 661.715 1693.26 617.594C1677.53 607.088 1664.04 593.575 1653.56 577.833C1643.08 562.092 1635.81 544.433 1632.18 525.873C1608.62 521.116 1585.94 512.747 1564.94 501.062L1562.75 561.686C1562.01 579.466 1554.87 596.381 1542.64 609.315C1530.42 622.25 1513.94 630.333 1496.23 632.077C1462.55 634.996 1428.53 634.49 1394.91 630.561C1377.27 628.338 1361.01 619.836 1349.13 606.61C1337.24 593.385 1330.52 576.321 1330.19 558.542L1330.3 185.762C1330.13 179.026 1325.58 171.224 1312.95 171.336L1300.83 168.923C1298.92 168.698 1296.06 165.947 1295.27 164.376C1293.56 161.42 1292.5 158.134 1292.17 154.736C1291.83 151.339 1292.22 147.908 1293.31 144.673L1422.19 144.617L1422.08 555.006V555.006ZM2065.42 8.38184C2069.63 7.70824 2073.78 7.14691 2078.05 6.64171C2078.78 6.57635 2079.51 6.59519 2080.24 6.69784C2083.02 7.16629 2085.68 8.21734 2088.03 9.78237C2090.39 11.3474 2092.38 13.3912 2093.89 15.7803C2095.4 18.1695 2096.39 20.8502 2096.8 23.6474C2097.2 26.4447 2097.01 29.2955 2096.24 32.0139C2094.43 36.7512 2091.57 41.0137 2087.87 44.4754C2084.05 48.5584 2081.21 53.4662 2079.59 58.8195C2077.96 64.1729 2077.59 69.8283 2078.5 75.3486C2078.1 77.575 2077.21 79.6825 2075.88 81.5122C2074.55 83.3419 2072.82 84.8459 2070.83 85.9109C2068.83 86.9758 2066.62 87.5738 2064.36 87.6597C2062.1 87.7456 2059.85 87.3172 2057.78 86.4068C2050.09 82.8705 2043.13 75.068 2034.32 75.4609C2025.4 75.7416 2020.96 86.9121 2027.25 93.3674C2027.86 93.8726 2028.54 94.4339 2029.32 94.8829L2045.94 104.538C2055.48 109.758 2055.93 123.904 2046.61 129.798C2043.92 131.426 2041 133.11 2038.47 135.187C2032.26 140.271 2027.71 147.092 2025.39 154.777C2024.27 158.369 2023.21 162.523 2020.85 165.555C2019.03 167.833 2016.74 169.68 2014.12 170.962C2011.51 172.243 2008.64 172.928 2005.73 172.965C2002.82 173.003 1999.93 172.393 1997.29 171.179C1994.64 169.965 1992.3 168.178 1990.42 165.947C1988.87 163.907 1987.69 161.607 1986.94 159.155C1985.79 153.794 1983.59 148.715 1980.46 144.214C1977.33 139.714 1973.33 135.881 1968.7 132.941C1963.42 129.573 1957.7 125.475 1957.19 118.627C1957.05 116.223 1957.54 113.823 1958.62 111.673C1959.71 109.523 1961.35 107.699 1963.37 106.39C1969.65 102.293 1978.02 98.1387 1983.13 93.2551C1989.69 87.1366 1985.43 75.7416 1976.33 75.3486C1972.01 75.2364 1968.03 78.2114 1964.66 80.5129C1960.52 83.4394 1955.98 85.7639 1951.19 87.4172C1948.83 88.1936 1946.32 88.3751 1943.87 87.9454C1941.43 87.5158 1939.13 86.4883 1937.18 84.9546C1935.23 83.421 1933.69 81.4287 1932.7 79.1552C1931.7 76.8818 1931.29 74.3978 1931.48 71.9245C1931.65 70.8609 1931.9 69.8105 1932.21 68.7811C1930.94 59.8027 1927.1 51.3831 1921.16 44.5316C1918.69 41.6688 1915.77 38.7498 1914.14 35.3257C1912.91 32.6873 1912.27 29.8121 1912.26 26.9003C1912.25 23.9886 1912.88 21.1102 1914.1 18.4655C1915.31 15.8208 1917.09 13.4733 1919.31 11.5864C1921.53 9.69958 1924.13 8.31868 1926.94 7.53984C1933.67 5.74358 1940.35 8.71864 1947.15 9.05543C1955.51 9.5045 1963.99 7.48371 1971.23 3.27373C1973.75 1.85508 1976.54 0.993693 1979.42 0.747736C1987.06 -0.150394 1994.58 6.41718 1993.68 14.2758C1993.51 15.7806 1993.62 17.304 1994.02 18.7665C1994.91 24.7166 1994.41 30.8351 1995.42 36.7291C1996.99 45.6542 2009.45 47.5066 2013.66 39.3112C2014.02 38.5229 2014.29 37.6935 2014.45 36.8413C2016.07 28.7494 2016.43 20.4566 2015.52 12.255C2016.47 8.32041 2018.89 4.8977 2022.28 2.686C2025.67 0.474296 2029.77 -0.359539 2033.76 0.354804C2038.2 3.79178 2043.31 6.27796 2048.75 7.65885C2054.2 9.03974 2059.87 9.28583 2065.42 8.38184V8.38184ZM1006.97 566.682C1008.15 589.023 1037.85 597.836 1051.26 579.648C1053.07 576.794 1054.13 573.532 1054.35 570.162C1054.66 565.298 1053.78 560.432 1051.81 555.976C1049.84 551.52 1046.82 547.606 1043.01 544.565C1051.33 537.062 1062.24 533.095 1073.43 533.507C1082.98 573.923 1128.11 597.218 1166.9 581.725C1193.56 571.004 1199.9 534.068 1177.9 514.815C1171.43 509.833 1164.24 505.877 1156.57 503.083C1139.28 496.17 1122.68 487.637 1107 477.598C1093.55 468.835 1083.83 455.395 1079.72 439.877C1068.1 397.665 1096.84 353.039 1140.23 345.742C1144.11 345.349 1148.37 344.956 1152.53 344.956H1297.29C1294.37 353.87 1291.02 362.637 1287.24 371.226L1267.21 417.592C1266.03 421.016 1264.12 426.573 1259.23 424.216C1257.44 423.318 1255.81 422.083 1254.13 420.96C1233.45 407.097 1208.36 401.415 1183.74 405.018C1165.66 407.6 1152.75 427.921 1164.37 444.199C1166.9 447.174 1169.98 449.869 1173.41 451.777C1199.73 466.316 1229.09 473.276 1254.29 490.06C1266.19 498.087 1275.46 509.819 1280.4 523.235C1287.36 542.32 1287.03 563.305 1279.47 582.161C1271.9 601.017 1257.64 616.415 1239.42 625.397C1228.49 630.458 1216.6 633.118 1204.56 633.199L1065.07 634.659C1041.1 634.771 1017.08 634.378 993.107 633.368C973.088 632.173 954.133 623.95 939.582 610.149C925.031 596.347 915.818 577.853 913.567 557.925C912.949 547.765 913.342 186.043 913.342 186.043C913.23 179.756 906.774 174.311 900.488 173.357C892.348 171.954 878.09 173.132 877.585 161.513C877.136 156.854 874.891 148.715 880.841 146.638C884.546 145.29 888.419 145.515 892.292 145.571L1006.35 145.627C1006.35 145.683 1005.29 534.854 1006.97 566.682V566.682ZM868.941 360.561C897.007 387.898 897.063 441.056 861.924 463.341C839.695 477.711 802.311 472.434 790.691 445.996C788.116 440.385 787.387 434.102 788.607 428.05C789.827 421.999 792.935 416.49 797.483 412.316C800.458 403.054 789.961 394.69 781.429 399.517C775.713 402.882 770.966 407.67 767.651 413.415C764.336 419.16 762.565 425.666 762.512 432.299L763.13 591.324C763.242 603.449 774.637 607.49 784.797 607.939C795.238 608.164 797.764 619.278 796.417 627.754C795.35 633.312 789.737 635.164 784.797 635.108L672.25 635.613L672.194 525.873C635.816 562.744 595.709 595.74 552.518 624.33C536.633 634.659 514.965 641.9 495.992 638.139C494.096 637.936 492.261 637.344 490.604 636.399C485.947 633.831 481.905 630.283 478.755 625.999C475.605 621.715 473.423 616.798 472.36 611.588C471.799 601.765 458.496 595.927 451.535 603.73C449.093 606.399 446.68 609.093 444.294 611.813C429.362 628.709 407.246 638.42 384.68 637.971C356.283 637.201 328.842 627.549 306.217 610.371C283.591 593.193 266.92 569.354 258.549 542.208C238.454 474.736 260.682 389.694 327.537 356.407C348.403 346.277 371.595 341.904 394.717 343.74C417.839 345.575 440.051 353.553 459.057 366.848C463.997 370.833 472.248 373.472 475.448 365.669L480.836 352.871C481.234 351.54 481.925 350.315 482.857 349.286C483.79 348.256 484.94 347.448 486.225 346.921C490.592 345.148 495.265 344.251 499.978 344.282L582.213 344.563C584.008 346.518 585.332 348.857 586.085 351.402C586.837 353.947 586.997 356.63 586.553 359.247C586.109 361.863 585.072 364.343 583.522 366.497C581.972 368.652 579.95 370.423 577.61 371.675C573.332 371.153 568.993 371.814 565.064 373.585C561.135 375.357 557.766 378.171 555.325 381.723L554.483 536.201C554.504 539.572 555.356 542.885 556.964 545.848C558.571 548.811 560.885 551.331 563.7 553.185C566.515 555.039 569.744 556.171 573.1 556.478C576.457 556.786 579.837 556.261 582.943 554.95C599.726 547.653 615.388 537.549 628.916 525.199L672.082 485.625L672.026 398.956C672 396.043 671.266 393.181 669.888 390.615C668.51 388.049 666.528 385.857 664.114 384.227C661.7 382.598 658.926 381.58 656.031 381.261C653.136 380.942 650.207 381.332 647.496 382.397C643.901 383.873 640.27 385.258 636.606 386.551C636.269 386.663 635.988 386.719 635.652 386.663C626.839 385.821 622.685 374.763 628.691 368.195C650.864 343.946 691.841 333.056 721.198 350.794C731.751 356.575 736.691 366.062 742.922 375.829C745.672 380.825 750.275 379.983 753.812 376.39L774.469 357.474C800.571 334.235 844.354 335.75 868.941 360.393V360.561V360.561ZM867.987 944.682L807.812 979.372L807.363 943.054C827.627 942.605 847.835 943.11 867.987 944.682Z"
      fill="#41403C"
    />
    <path
      d="M699.25 4.34076L529.952 238.921C513.634 223.997 495.512 211.173 476.008 200.75C475.223 200.358 474.493 199.965 473.651 199.628C470.736 198.447 467.798 197.324 464.838 196.26C381.312 165.723 286.728 189.58 224.701 252.73C174.574 304.092 151.559 374.931 150.044 445.828C149.482 463.173 150.549 480.63 153.019 497.863C171.711 626.239 274.828 731.321 403.204 752.876C445.063 759.482 487.829 757.477 528.886 746.982C567.216 735.193 602.98 716.283 634.304 691.242C642.78 684.786 652.323 673.391 662.763 673.054C671.689 672.269 676.684 683.271 670.678 689.726C610.728 754.56 528.1 801.319 439.69 811.31C298.291 827.477 157.565 760.566 75.4427 645.156C16.241 560.518 -9.51545 456.953 3.14331 354.443C16.2785 243.58 70.2785 140.688 143.925 58.004C146.507 55.1412 149.595 52.8398 152.064 49.9208C165.817 33.9229 180.692 18.8231 196.522 4.84596C359.869 3.72329 523.273 3.5549 686.62 4.22849C686.676 4.22849 700.148 3.0497 699.25 4.34076V4.34076Z"
      fill="#41403C"
    />
    <path
      d="M2362.59 423.767C2356.87 413.641 2348.34 405.393 2338.02 400.022C2327.71 394.651 2316.06 392.39 2304.49 393.511C2278.78 396.206 2257.06 416.189 2249.53 440.551C2242.52 462.802 2240.72 486.367 2244.26 509.426C2247.23 528.511 2259.36 545.632 2276.37 554.838C2298.43 567.075 2326.66 564.38 2346.14 548.102C2357.14 538.784 2364.78 525.592 2367.25 511.279C2371.51 486.355 2371.17 460.646 2366.23 435.836C2365.65 431.647 2364.42 427.576 2362.59 423.767V423.767ZM1812.87 413.102C1811.25 406.424 1807.38 400.508 1801.91 396.347C1796.45 392.187 1789.71 390.036 1782.84 390.256C1780.43 390.368 1778.02 390.985 1775.55 390.929C1772.63 390.861 1769.74 391.496 1767.13 392.782L1757.64 397.441C1755.69 398.367 1753.85 399.496 1752.14 400.809C1733.14 416.2 1720.9 438.391 1718.01 462.667C1716.83 473.613 1716.16 485.289 1718.4 496.01C1755.28 495 1791.82 474.287 1809.28 441.281C1813.73 432.595 1815 422.626 1812.87 413.102V413.102ZM1572.01 1149.51C1572.53 1143.1 1571 1136.68 1567.64 1131.2C1564.28 1125.71 1559.26 1121.43 1553.32 1118.98C1546.79 1116.39 1539.58 1116.11 1532.88 1118.19C1520.93 1122.15 1510.08 1128.88 1501.23 1137.84C1492.38 1146.79 1485.78 1157.72 1481.97 1169.72V1170.06L1478.83 1182.74C1475.6 1195.77 1475.2 1209.34 1477.65 1222.54C1502.93 1220.75 1527.1 1211.47 1547.08 1195.88C1561.4 1184.76 1570.55 1167.64 1572.01 1149.51V1149.51ZM1269.17 1125.04C1261.33 1119.45 1251.66 1117.04 1242.11 1118.3C1227.92 1120.23 1214.99 1127.5 1205.96 1138.62C1187.44 1161.86 1179.19 1192.51 1183.62 1221.98C1199.12 1221.36 1214.38 1217.49 1228.25 1210.64C1231.9 1208.79 1235.27 1206.54 1238.97 1204.86C1258.78 1195.99 1273.38 1177.58 1277.59 1156.3C1279.01 1149.03 1278.47 1141.52 1276.02 1134.52C1274.72 1130.76 1272.34 1127.46 1269.17 1125.04V1125.04ZM881.121 1149.18C856.379 1143.61 830.878 1142.22 805.678 1145.08L805.566 1285.86C828.805 1288.05 852.269 1287.49 875.34 1284.23C900.712 1280.64 922.155 1261.55 928.666 1236.74C930.637 1229.03 931.188 1221.02 930.294 1213.11C930.126 1211.43 930.013 1209.75 929.957 1208.06C929.454 1196.57 925.842 1185.43 919.505 1175.83C913.168 1166.23 904.345 1158.53 893.976 1153.55C889.851 1151.66 885.544 1150.19 881.121 1149.18V1149.18ZM456.362 433.029C450.553 423.787 442.212 416.409 432.33 411.772C422.448 407.135 411.443 405.433 400.622 406.871C389.478 408.722 379.014 413.465 370.277 420.626C361.54 427.787 354.835 437.116 350.832 447.68C343.21 468.432 341.443 490.881 345.724 512.57C351.113 538.952 371.994 560.507 398.208 566.85C408.578 569.148 419.401 568.242 429.244 564.253C439.088 560.263 447.487 553.378 453.331 544.509C458.536 536.412 461.375 527.022 461.526 517.397L461.863 466.035C461.931 459.049 461.462 452.068 460.46 445.154C459.949 440.872 458.554 436.743 456.362 433.029V433.029Z"
      fill="#F3B822"
    />
  </g>
  <defs>
    <clipPath id="clip0_5_59">
      <rect width="2500" height="1368" fill="white" />
    </clipPath>
  </defs>
</svg>
