<svg xmlns="http://www.w3.org/2000/svg" width="271" height="292" fill="none" viewBox="0 0 271 292"><path fill="#2C2321" fill-rule="evenodd" d="M175.772 37c.512 0 .171.46.512.46 0 .23-.341.23-.682.23 0-.23.341-.23.17-.69Zm-39.763 2.757c0 .23-.171.23-.171.69-.682 0-.682.46-.682 1.148-.342 0-.512-.23-.683-.46.171-.229.683-.459.341-.918.512 0 .512-.46 1.195-.46Zm6.144 0c.341 0 .512.23.512.46-.342.23-.512 0-.512-.46Zm-17.066 1.15c-.512 0-.342-.23-.853 0 0-.46 1.023-.23.853 0Zm9.727.917c.342 0 .342.23.512.23 0 .23-.853 1.149-1.024.46-.341 0-.17.459-.512.23-.341-.23 0-.46.171-.69.171 0 .341.23.341.23.342 0 .342-.23.512-.46Zm74.408 7.814c-.342-.46-.342-.92-.854-1.38.512 0 .171-.229 0-.229.683-.46.171-1.378 1.195-1.608.171.46 1.024 1.608.171 2.068.17 0 .341.23.341.689-.683 0-.853 0-.853.46Zm-.342-1.15c.512 0 .512-.23.512-.459-.17 0-.17-.23-.341 0-.341.23 0 .23-.171.46Zm-87.889-.229h.341c0 .46-.17.46-.512.46-.17-.23.342 0 .171-.46Zm85.841 1.148c.342.23-.512.69 0 1.15-.682 0-.17.688-.853.688a5.495 5.495 0 0 1 .853-1.838Zm6.997.92c.342.23.512-.23.683 0 0 .46-.171 0-.341 0 .341.919 0 2.527-1.366 2.297 0-.46.683-.23.854-.46v-.459c-.512 0-.854.23-1.195 0 0-.46.683-.23.341-.689.512.23.683-.46 1.024-.69Zm10.923 2.756c1.365 0 .853 1.608 1.877 1.608.17.69-.683.69-.341 1.379.511 0 .682-.23 1.023 0-.17.23 0 .689-.341.689-.683-.23-.683.23-1.195.23 0 .46.342 1.378 0 2.068-.17 0-.682-.23-.682 0-.341-.23-.341-.46-.341-.92h.341c-.512-.919-.853-3.676-.341-5.054Zm-10.069.689c.341.23.17 1.149-.342 1.378.683.46 2.56-.23 2.902.92-.342 0-1.195-.23-1.536-.69-.342 0-.512.23-.683.46-.512.23-.512-.46-1.195-.23.171-.92.683-1.149.854-1.838Zm-1.536.23c0 .23-.683 0-.512.23 0 .23.512 0 .512.23-.342.46 0 .919 0 1.378-1.195.23-.512.92-1.536 1.379.341-.92.341-1.608.853-2.528-.341-.459 0-1.148.683-.689Zm-95.569.689c.341 0 .512.23.682.46-.17.23-.341.69-.341 1.149-1.365-.23-.512-1.15-.341-1.609Zm1.877.229c.512 0 .341.46.512.69-.341.23-.683.46-.683.919-.341 0 .171-.69-.341-.92.512-.229.341-.459.512-.688Zm94.716.92c.17.23-.171.46.512.46-.342.46-.512 1.149-.171 1.378-.171.23-1.024.23-1.195 0 0-.46.342-1.378.854-1.838Zm8.874.46c-.171.23-.853.23-.683-.23.171 0 .683 0 .683.23Zm-106.15.46c.512 0 1.024.23 1.195.69-.342.229-.512.459-1.024.459 0 .23.341.23.341.23 0 .23-.171.459-.512.459-.512-.69.341-.92 0-1.838Zm104.614.229c.341.23 1.024 0 1.024.46-.341-.23-.341.23-1.024 0v-.46Zm-102.566.231h.341v.46h-.341c-.341 0 0-.46 0-.46Zm101.713.459c0 .23-.512.23-.342.689-.17-.23-.853 0-1.024 0-.17 0-.17-.23-.17-.46.853.46 1.024-.689 1.536-.23Zm-10.41-.001h.512c.17.46-.854.46-.512 0Zm11.604 0h.512c0 .23-.17.23-.17.46-.171 0-.342 0-.342-.46Zm-.341.46c.512 0 .341.23.853.23-.171.23-1.024.23-.853-.23Zm2.56.46c0 .23.341.23.17.46-.511 0-.341-.46-.853-.23 0-.23.341-.23.683-.23Zm-2.389.459c.17 0 .512 0 .341.46h-.341v-.46Zm-8.704.46c.512.23.683.23 1.195.23-.171.23-.683.23-.854.69-.341 0-.17-.46-.512-.23.342-.23 0-.46.171-.69Zm13.994 0c.512 0 .512.46.853.46 0 .23-.682.23-1.024.23-.341-.23-.17-.69.171-.69Zm-12.117.229c.512.23.683 0 1.195 0-.171.46-.853.23-1.195.69-.17 0 .171-.46 0-.69Zm4.608.46c0 .23 0 .23.171.23-.171.46-.853.23-1.024 0 .341 0 .512-.23.853-.23Zm-5.973.69c0 .23-.853.23-.682 0 .341-.46.511-.23.682 0Zm17.066 2.297c-.683-.23-.853 0-1.536 0 .171-.46.171-1.379-.171-2.068.683-.23 1.536-.46 2.219 0-.341.69.341 1.378-.512 2.068Zm-14.165-2.298c0-.23.342 0 .512 0v.46c-.341-.23-.341-.46-.512-.46Zm5.973 1.378c.512 0 .683.46 1.195.46-.171.459-.853.46-1.024.919-.853 0-.341-.92-.512-1.379h.341Zm3.755.689c0 .46-.683.46-.683.92-.341-.23-.512 0-1.195 0-.17-.46.171-.46.171-.92.341-.459 1.024-.23 1.707 0Zm3.584.46-.171.23h-.512c0-.23.341-.23.683-.23Zm-7.168.46c.683.46 1.707.23 2.73.23-.853.459-2.218 1.378-3.413.689.171-.46.683-.69.683-.92ZM73.207 65.49c.512 0 .17.46.512.46-.512.23-.512.919-.854 1.148-1.365-.459.854-.918.342-1.608Zm-1.024 1.609c.34 0 .341.23.512.23.17.689-.171.919-.171 1.608-1.024-.23-1.024-.69-1.707-.69-.17-.23.342-.459 0-.459.342-.23 1.195-.23 1.366-.69Zm-5.12 7.351c.17-.23.853 0 .683.23h-.513s0-.23-.17-.23Zm2.73 2.758c-.34-.23-.34 0-.853 0 .341 0 .512-.23.853-.23v.23Zm-8.021.23c.342 0 .512.46.512.689-.17 0-.682-.46-.512-.69Zm2.39.688c0 .23-.512.23-.854.23-.17 0-.17-.23-.17-.46.341-.229.682 0 1.024.23Zm183.287.231c.341 0 .341.23.683 0-.512.23-.342.23-.342.69-1.365.689-1.024 2.297-2.559 2.757 0-.92.853-1.838 1.877-2.298-.171-.919.512-.69.341-1.149Zm18.943.918h.342c-.342.69-.171 1.609-1.366 1.609.512-.46.683-1.149 1.024-1.609Zm-19.284 2.529c-.342.23 0 .46-.854.46.171 0 .171-.23.171-.46.341 0 .341-.23.683 0Zm-3.414 1.837c-.341-.46.001-.919.342-1.148.512 0 .341.23 1.024.23-.171.459-.512.689-.683.918-.341 0-.341-.23-.683 0Zm16.555-.919h.341c0 .23-.171.46-.683.46.171 0 .512 0 .342-.46Zm-14.506.46c0 .23-.342.46.17.46-.17.229-.512.229-.853.229 0-.46.171-.69.683-.69Zm18.772 0c0 .23 0 .459-.341.459-.171-.23-.171-.46.341-.46Zm-15.018.919c.512 0 0 .46.512.46-.171.23-.171.69-.341.919-.342 0-.512-.23-.683-.23 0-.46.341-.69.171-1.149.17.23.341.23.341 0Zm-.512 1.379c.171.459 0 1.148-1.024.918v-.69c.853.23.512-.229 1.024-.229Zm-2.218.919c.682.23-.513.46 0 .46 0 .23-.342 0-.513 0 0-.23.342-.23.513-.46Zm18.772 1.149c.512 0 .341.689.171.918-.683-.23 0-.689-.171-.918Zm-33.108 0c.171.46-.853.46-.853 0h.853Zm6.314.229c.171 0 .683-.23.683 0 .171.46-1.024.46-.683 0Zm29.354 0c.512 0 0 .46 0 .689-.512-.23 0-.46 0-.69Zm-206.668.689-.17.23c-.513 0-.854.23-1.195 0 .341-.23.853-.46 1.365-.23Zm203.084.919c.853.23 0 1.379-.341 1.609-.342 0-.171-.23-.342-.23 0-.46.854-.46.683-1.379Zm6.144 0c.512 0 .17.46.341.92-.512 0-.512.23-.341.459-.342-.23-.683-.23-.512-.46.17 0 .341-.23.682 0-.17-.46-.341-.46-.17-.919Zm-1.195 1.838c.341 0 .171.23.341.23-.341.23-.682.23-.341.69-.853.229-.341-.69 0-.92Zm-4.608 1.149h.342c-.171.23-.512.46-.854.23 0 0 .342 0 .512-.23Zm4.267.46c-.171.46.17.23.17.69-.341 0-.17.229-.512.229.342.23.171.46 0 .69-.682.23-.341-.46-.853-.23.341-.69.171-1.609 1.195-1.379Zm-3.755 3.216c-.341.23-.341 0-.512 0 0-.46.512-.46.512 0Zm1.024 1.609c.171 0 .342.23.512 0 0 .46-.17.92-.853 1.15.171-.46.341-.69.341-1.15Zm-3.072.919c.171 0 .854.689.512.918-.682 0-.682-.459-.512-.918Zm.683 2.987c.171-.23 1.024-.23.853.229-.512.23-.341-.229-.853-.229Zm-3.925.23c.341 0 .682 0 .512.229-.341.23-.512 0-.512-.229Zm2.901 1.608c.683 0 .171.23.341.689-.341 0-.17-.459-.341-.689Zm-2.731.918c0 .23-.341.23-.341.46-.171 0-.341-.23-.341-.46h.682Zm-204.619 4.137h.341c0 .23-.341.23-.683.23.171 0 .342 0 .342-.23Zm-10.581 4.365c0 .23 0 .23 0 0-.17.23-.342.23-.342.23-.511 0 .171-.459.342-.23Zm1.877.459c0-.229.683 0 .854 0-.171.46-.683.23-.854 0Zm213.153 5.055c-.342.23-.342.23-.171.46-.341 0-.512 0-.341-.23h-.342c-.512 0 .512-.23.854-.23Zm-1.195 1.379c-.682.23-1.194-.229-1.706 0-.171-.919 1.536-.459 1.706 0Zm-215.2-.001c0 .46-.171.689-.683.689 0-.459.17-.689.683-.689Zm218.784 2.988c-.512.229-2.218 0-3.072.229.683-.229 2.731-1.148 3.072-.229Zm-216.566 1.378c-.341.23-.512 0-1.024 0 0-.459 1.195-.689 1.024 0Zm206.839-.229h.341c0 .23-.171.23-.171.46-.17-.23-.341-.23-.17-.46Zm-205.132 4.136c.17.459-.17.459-.341.689-.683-.23-1.537 0-1.707-.689.682-.23 1.536-.23 2.048 0Zm5.29-.001a1.12 1.12 0 0 1-1.194 0c.34 0 .853-.23 1.194 0Zm-4.778 1.838c-.17.23-.854.459-.854 0 .342-.23.342 0 .854 0Zm201.548.231c-.342.689-.171.919-.342 1.838-.512 0-.682.23-1.024.459-.512-.229-1.194-.229-1.194-.919.341-.229.682 0 1.194 0 .512-.229.683-.919.342-1.378.512.229.853 0 1.024 0Zm-195.234.688c-.17.23-1.024.23-1.194 0 0-.459 1.365-.459 1.194 0Zm1.024.46c0 .229-.683.229-1.536.229-.17-.459 1.195-.459 1.536-.229Zm191.138 1.838c.171.46-.683.46-.512 0h.512Zm-1.365 1.609c0 .459-.171.459-.683.459-.171 0-.171-.229-.171-.459h.854Zm-1.536 1.378c0 .459 1.024.459 1.536.919-.342.459-.854.689-1.878.689-.341-.46-.341-1.379.342-1.608Zm-.683 2.069c0 .459-.683.459-.512.919-.683 0-1.195 0-1.365-.23 0-.46.512-.23.853-.46.171-.229-.171-.229-.171-.689.512-.23.683.23 1.195.46Zm-1.365 1.377h.341c0 .23 0 .46-.341.46-.171-.23 0-.23 0-.46Zm-2.048 1.838c0 .23.171.23.171.459-.512 0-.342.46-.854.23 0-.23-.341-.23-.341-.459.341 0 .341-.23 1.024-.23Zm-3.413.919c.341 0 .682 0 .682.46-.17 0-.512 0-.682-.46Zm-166.393 1.838c.342 0 .342.23.683 0 0 .23-.17.689-.512.46.512-.23-.17-.23-.17-.46Zm165.198 4.595c.341-.459.683.46 0 .46-.512 0 .341-.23 0-.46Zm-4.608 6.204h.342c.17.23 0 .23-.342 0 .171.459.512.689.342.919-.512 0-.171-.23-.683-.459l.171-.23c.17 0 .17.229.17-.23Zm-110.245 9.65c0 .23-.171.689.17.689-.682.919-1.365-.689-.17-.689Zm106.661.689c.342.23.171.919-.341.919.171-.46.341-.689.341-.919Zm-1.024 2.299c-.341.459-1.023.919-1.877.459.171-.229.683-.459 1.024-.459-.17 0-.17-.23-.341-.23.341-.23.853 0 1.194.23ZM94.71 169.572c.17 0 .34.23.512.23-.171.229-.854.459-1.195.229 0-.229.683-.229.683-.459Zm13.14 1.608c-.17.23-.682.46-1.365.46 0-.46.683-.46 1.365-.46Zm-2.56 0c.171 0 .342.23.342.23-.342 0-.171.46-.683.23 0 0 .512 0 .341-.46Zm75.431 4.825c.342.229.512 0 1.195 0 0 .459-.512.459-.683.689-.17-.23-.512-.46-.512-.689Zm-5.29.69c-.17 0-.341 0-.341-.23-.341 0-1.365.23-1.195-.23.342 0 1.366 0 1.536.46Zm7.509-.231c.853.23.853 1.149 1.707 1.379-.171.23-1.024.23-1.366.23 0-.46.001-.919-.511-1.149-.342-.23.17 0 .17-.46Zm-4.437.689c.512 0 .683.23.853.23.171.46-.853.23-1.024.46-.512-.23.171-.46.171-.69Zm1.536 1.38h.341v.23c-.341 0-.341.229-.682 0-.342-.23.341 0 .341-.23Zm12.117 1.149c.512 0 .512 1.149-.171 1.149-.341-.46 0-.92.171-1.149Zm5.12 1.837c.511 0 .511.23.511.69-.512 0-.853-.46-.511-.69Zm-72.701.231c.512 0 .682.23 1.194.23.171.689-.512.919-.341 1.378.683 0 .683-.459.853-.919.854-.229.854.46 1.024.919-.682.69-2.048.46-2.56 1.379-1.023-.46-1.877.459-2.901 0 0-.23 0-.23-.17-.23.341-.459 1.877-.23 2.73-.23.171 0 .171-.229.341-.229-.17-.46-1.194 0-1.365-.46 0-.459.683-.459 1.365-.459.171-.69-.341-.919-.17-1.379Zm45.907.229c.512.23.683.46 1.365.46-.341.459-.853.459-1.536.459-.17.23.342.46 0 .46-.341-.69-1.877.459-2.048-.46.854.23 1.366-.23 2.219 0-.171-.459 0-.459 0-.919Zm-35.838 2.987c-.171.46-2.048.46-2.219 0 .854-.23 1.536-.23 2.219 0Zm3.754.919c-.341.46-1.706.69-1.194 1.379-.342 0-.854-.23-1.195.23-.341 0-.512-.46-.683-.69-.341.46-1.194.46-1.877.46 0-.23-.341-.46-.512-.46 0 .23-.683 0-.683.23.171-2.068 4.267-.459 6.144-1.149Zm11.946.918c.171.23.683.46.854.69h-.854v-.69Z" clip-rule="evenodd"/><path fill="#2C2321" fill-rule="evenodd" d="M117.578 49.867c-.171 0 .341-.23.682 0 .171 0 .171-.23.342-.46 0-.23-.512 0-.683 0 1.195-.689 1.024-2.067 2.048-2.986.512 0-.171.459.512.23-1.024 1.607-.512 4.594-2.901 5.284.17.23.682.23 1.194.23 0 .689-.512.919-.512 1.608-.17 0-.17-.23-.341-.23-.682 1.149-1.706 2.298-3.072 2.757.342.69-.682.69-.17 1.379.341 0 .341-.23.682-.23.342.69 0 1.149-.682 1.379.682 0 1.024.46 1.365.919.853 0 2.73-.69 2.56.23.17-.23.512-.23.341 0 .341-.23.512-.69 1.195-.69-.171 0-.342 0-.342-.23.171 0 .342-.23.683 0-.171-.23-.171-.46.341-.689 0-.23-.512-.46-.512-.69.342 0 .342-.229.854 0-.171-.229.17-.229.17-.459-1.194-.69 1.536-2.297-1.194-2.527 0-.46.341-.46.682-.69-.17-1.378.171-3.446 1.366-4.135.17.23.17.23.17.46.683 0 .342-1.15 1.195-.69.341-.46.512-1.149-.171-1.379.512-.689.512-1.838 1.195-2.297.512.46.341.919.341 1.379.683-.23 0-.69.512-1.15.341 0 .341.23.341.23 1.195-.459.854-2.067 1.536-2.986.342-.23 1.024-.23.854-.69.17.23.341.46.341.92.171 0 .171.23.341.23.512 0 .512-.46 1.024-.46 0 0-.17 0-.17.23h.341c.512-.23.171-.92.853-1.38 0-.229-.341-.229-.341-.459.171-.689.683-1.378.341-1.838.512 0 .342.46.512.46.683 0 .853-.23 1.195-.23.17.46-.854.23-1.195.46.683.689 0 2.067.683 2.527.17-.23.17-.69.512-.92 1.194 0 1.365 1.15 1.536 2.069 0-.23 0-.46.17-.92.683 0 .683.46 1.195 0 .341.46.171 1.15.683 1.38.682-.23 0-.46.17-1.15.342-.23 1.024 0 1.366-.23-.171-.689.341-.918.341-1.608.512.23.171.92.682 1.15.512-.46.342-.92.342-1.61.341-.459 1.706-.459 1.877.23.512 0 .171-.689.341-.919h.342c.341 0 .341.46.341.69.512 0 .512-.23.512-.69.683.23.171.69.853.69.342-.23-.17-.46-.341-.46.341-.23.853-.69 1.024-1.149.512 0 .683.46.853.92.342-.46.683 0 1.195.23.341-.23.682-.23.853-.46.512 0 0 0 .171.23.682 0 1.365 0 1.194-.69.683-.23 1.366.46 1.024 1.149.342.23.512.69 1.195.69.341 0 .341-.46.341-.69 1.024.46 1.536 1.378 2.56 2.068.683-.23.683-.92 1.877-.92 0-.459.342-.688.854-.688.341.689 0 1.608 1.536 1.148 0 .92-.683 1.15-.683 1.838l.171.23c.341 0 .341-.23.682 0-1.194 1.149.683 2.298 1.195 3.217.683 0 .512-.69 1.194-.69-.341-.459 0-.689.171-.919h1.195c-.342 1.38-2.219 3.217-.512 4.596 0 1.148-.512 1.838-1.365 2.527.17 0 .17.23.341.23-.512.919 1.194.69.853 1.838.512-.23.341-.46 1.024 0 .512-.23.171-.23 0-.69.341-.23.512-.689 1.024-.918-.341-.46-.683-.69-.683-1.379.854 0 .854.46 1.536.46.512-.69 1.536-1.379 1.024-2.528 0-.23.512 0 .512-.23.171-.23-.512-.23-.341-.46 1.024-.918.341-2.986 1.877-3.905 0-.23-.341 0-.341 0 .171-.46.853.23 1.536 0-.683 1.379-.342 2.297-1.195 3.446-.17 0-.341-.23-.512 0 .342 1.379-.853 2.298.342 3.677-.171 0-.512 0-.683.23-.171 1.148.341 2.756-1.024 3.216.171 0 .341 0 .341.23 1.024-.69 1.366-2.068 2.219-2.987 0-.23-.171-.23-.342-.23.512-.919.342-2.068 1.707-2.527-.171-.23-.171-.69-.341-.92.341-.689.512-1.148.853-1.837.171 0 .171.23.341.23 1.195-.69 1.024-1.839 1.878-2.988.512.46.512.92.341 1.379 0 .23.512 0 .683 0 .682-.46 1.194-1.379.853-2.527.341 0 .512-.46 1.024-.23-1.024-.23.512-.46.682 0 .171-.23.683-.23 1.024-.46.171.46.683 1.15 1.878.69-.171-.69.512-.69 1.024-.92 0-.23-.171 0-.342 0 0-.23.512 0 .683 0-.171.46.171.69.341 1.15-.341 0-.853 0-1.024.459.512.69-.341 1.378.171 2.068.683 0 1.024-.23 1.536-.23 0-.23 0-.46-.341-.69.17-.229.341-.459.512-.459-.171-.919 0-2.527 1.365-2.987.17.23.341.46 0 .69.17.46 1.024.689 1.536.23 0-.46-.342-.46-.342-.92.342-.23 1.195-.23 1.195-.689.512 0 .512.23.341.46.171-.23 1.024 0 .512.23.512.23.171-.46.342-.23.341.459.853.23 1.194.46.342-.23.854-.46 1.195-.69 1.194.46 1.877 1.149 2.73 1.608.512 0 .512-.23 1.024-.23.171-.46-.341-.46-.341-.919-.171-.23.512-.23.341-.46.171 0 .683 0 .854-.229.341.46 1.024.69.512.92 1.024 0 .682 1.148 1.706 1.378.512 0 .342-.23.512-.23 1.365.46 1.707 1.838 2.731 2.527.682 0 .341-.69.853-.69.853.23 1.365.23 2.048.69-.171.23-.171.46-.512.23.171 1.378.683 2.298 1.877 2.987-.853.919.683 1.379.341 2.297.171.23.342.23.683.23 0 .23.171.69-.171.69 0 .23.683 0 .854.23-.342.918.341 1.608-.342 2.297.171.23.342.46.683.46 0 .23-.171.459-.512.23.683.229-.171 1.378.683 1.607.341 0 .17-.23.341-.23 1.195.23.171 2.298 2.219 2.069.17.23 0 .23 0 .23h1.194c-.341-.23-.682-.23-.512-.92 0-.23-.512 0-.853 0 0-.23.171-.46-.341-.46 0-.459.341-.459.682-.689-.17-.23-.341-.23-.341-.689.341 0 .512-.23.853 0 .171.23-.17.46 0 .92.342 0 .512-.23.512-.69-.17-.46-.512-.46-.853-.92-.512.23-.683.46-.683.69-.512-.23-.512 0-1.194 0 0-.23.682 0 .682-.46-.17-.229-.853 0-1.194 0 .17-.459 1.024-.23 1.536-.459 0 0-.171 0-.171-.23h-1.365c0-.46.17-.689.341-.919h.512c.512.23-.171.69.341.92.342 0 .342-.23.342-.23 0-.46-.512-.46-.342-.69 1.195.23 1.366-.689.512-.919.342-.23.512-.46.854-.689 0-.23-.342-.23-.342-.46.342-.23.683-.459 1.024-.23-1.024.46 1.195 1.839 2.219.92-.683 0-.342-.23-.512-.69.682-.23 1.194-.459 1.365-1.148-.853-.23-1.536-.23-1.877-.69 0 .46-1.365.92-1.877.46-.171.23-.512.23-.512.46-.683-.46 1.194-.69 1.877-1.15 0-.459-.341-1.608 0-1.837.341 0 .171.46.341.689.854-.23.853.23 1.536 0 0 .46-.171.46.171.69.17 0 .341-.23.682 0 0 0-.17-.23-.341-.23.512-.23.683.918.853 1.378-.341 0-.341.23-.512 0 .512.919-.341 1.379-.341 2.527.853 0 1.024-.689 1.877-.23-.17.23-.512.23-1.024.23 0 .23 0 .46-.17.69-.342-.23-.854 0-1.195-.23.171.69 0 .46.683 1.149h-.854c-1.023.23-.17 1.148-1.194 1.378 0 .23.341.23.341.69h-.682c0 .23.511.23.511.459 0 .23-.511.23-.682.46 0 .23.171.23.512.23-.853.459.853.689.17.918.171.23.854 0 1.195 0-.171-.689-.853-.689-.853-1.378.512-.23.512 0 1.024 0-.171 0-.342.23-.342.689h1.195c0 .23-.171.23-.341.46 0 .23.512 0 .682 0 .171.46-.17.46-.17.919-.854-.23-.854.23-1.707.23.341.23.512.689.512.918.512 0 0-.23.171-.46.512-.229.512 0 1.024 0 0 .23.17.46.17.92-.341 0-.512.23-.682.46.17.689.17 1.148.341 1.838 0 .23.853.23 1.024.46.341-.23.512-.46 1.195-.46-.171-.23-.512-.23-.683-.23.341-.92 0-2.068.341-2.528.171.23.342.69.854.69s.853-.69.512-.92c.341-.23.682.23 1.194.23-.341.23 0 .69.171.92-.512-.46-.512.23-1.195.23v.689c1.707-.23 1.877.23 3.072.459-.171.23-.341.46-.853.46v.46h1.365c0 .229.341.459.341.459.512 0 .171-.46.342-.46-.171-.46-.683-.23-1.195-.23 0-.23.341-.46 0-.46.341-.459.512.23 1.195 0 .17 0 .17 0 .341-.229 0-.69-.853-.46-1.024-1.149.341 0 .512-.23.512-.23-.341-.46-.683.46-.853 0-.171-.689 1.536-.919 2.218-.919.342-.23.342-.919.683-1.148.171 0 .512.23.341.46.171-.46.342-.69.854-.92.17.23-.171.23-.171.69 1.194.689 2.73.23 3.754.23-.17 1.378 1.707 1.148 1.878 2.067-.342.23-.854.23-1.536.23-.171-.46-1.195-.46-1.366-.92-.341.46-.853 0-1.194 0v-.689c-1.365.23-2.389 1.379-1.877 2.068-.342 0-.171.46-.683.46.853 0-.171.919.853.919 0 .23 0 .46-.17.46.17 0 .341-.23.512 0 0 .23-.512.23-.342.459 0 0 .171 0 .171.23.853-.23 2.56-.46 3.242 0 .512-.46.683-.46 1.366-.46 0 .69 1.024.69 1.194 1.149.683-.23-.341-.23-.341-.69.683-.23.683.23 1.195.23.17-.46.682-.919 1.536-1.148 0 .23.17.689-.171.919 0 .23.682 0 .341.46.853-.69.171-1.839 0-2.528.512 0 .341.23 1.024.23-.512.689.683 1.378-.341 1.608-.171.23.17.23.17.46.171.23.683.23 1.024.23.171.229 0 .688-.682.688.17.69.512 1.15-.512 1.609.512.46 0 .69-.342.919 1.024.919.683 2.068-.682 2.527.171.46.682.69 1.194.92-.682.459 0 .689-.341 1.378h-1.194c-.683-.69-.342-1.609-1.024-2.298-.512 0-.512.23-1.195.23 0 .23.512.23.683.23.17.46-.854 1.149-1.707.689 0-.23.171-.46.341-.46-.682-.46-1.365.23-2.048 0 0 .69.854.46 1.195.92 0 .23-.171.459-.512.459.171.46 1.195-.23 1.195.46.853-.23 1.194.46 2.048.46.341.229.341.459.512.918.341 0 .341-.23.853 0 .341-.23.171-.69.512-.69.512.46 0 .92.17 1.38-.341.23-.511 0-.853 0 .171.689.342.689-.17 1.148.17.23.512.46.341.69h-.512c.341.23.683.23.512.689 1.365 0 1.877.69 2.73 1.149-.512.23-1.365.23-1.877.46-.17-.23-.512-.23-.682-.23-.512 0 0 .23-.171.689 0 .23.853 0 .682.46-.682 0-1.194.229-1.535.688.17.23.512.69.512.92.17 0 .682.23.682 0 1.877 2.297 6.827-.69 9.216 1.148.341-.23 0-.23.341-.46h.683c.17.23.17.46.341.69.341-.23.683-.23.683.23 1.024.23 1.194-.46 1.877-.69-.341.23-.512.69-.171 1.15.512 0 1.195-.23 1.366 0 0 .23-.342.23-.512.23 0 .459.682.688.341.918-1.365-.23-1.365 1.379-2.048 2.068-.171.23.341.23.341.46.512-.23 1.024-.23 1.195-.69h1.024c.17.46-.341.69-.341 1.149.682 0 .682-.46 1.023-.69 1.024.46 1.195-1.378 2.39-1.378.341 0 .17.23.341.23.683 0 1.195-.69 1.024-1.149.341-.23.853.23.853.46 2.389-1.15 4.096-2.758 5.632-4.366h1.024c0 .46-.512.69-1.024.69.171 0 .171.23 0 .23.683.459 1.195-.46 1.536-.69h.853c0 .69-.512.46-.341 1.149.512.23.683-.69 1.706-.46-.17.46.512.46.342.92-.342.229-.342.689-.683.918 0 0 .171 0 .171.23 1.024-.23 1.194-1.149 1.877-1.608.512 0 .171.23.341.46l1.536-.69c.342.69-.512 1.149 0 1.838-.682.23-1.194.46-1.194 1.149.512.23 1.194-.23 1.194.69h.342c.17 0 0-.46.341-.46.512.23.512 1.378.171 1.838 0 .23.512-.23.682 0 0 .689-.682.689-1.024.23.512.918 0 1.608-.853 2.297.171.23.171.69.341.92-.17.229-.512.229-1.024.229-.17-.23-.17-.46-.341-.46s0 .23-.341.23c1.365.69.341 1.838 0 2.528.682.459.853.918 1.877.689.341-.23.512-.46.512-.69.171.23-.341 1.609-1.024 1.839-.171-.23.341-.23.341-.46-.341-.23-1.194.23-1.706 0-.512.23-.171.92-.342 1.379.342-.46.854.23 1.366 0 .512.23 0 .689.341.919-.853 1.149-1.195 2.987-3.925 2.987-.171 0-.171-.23-.171-.46a1.841 1.841 0 0 0-1.194 1.149c.341.23.512.919.853 1.149 0-.23.512-.23.512-.46.341.23.17.46.853.689-.171.46-1.194.46-.853 1.149-.341 0-.341.23-.512 0 .682.919-.853 1.379-.512 2.298-.171 0-.341.23-.512 0 0 .459.171.689.341.919.512 0 .854-.46 1.366-.689-.171-.23-.001-.69.341-.919.17 0 .512.229.341.459.853 0 1.365 0 1.877.23 0 .459-.17 1.149-.341 1.608-.341-.459-.512-.689-1.024-1.149-.683.919-.683 1.609-1.194 2.528.511.23.511.689.17.919.683.459 2.731.23 3.925.459.171.23-.17.23-.17.69-1.366.229-1.878 1.148-3.072 1.378.682 1.149-1.707 1.149-.853 1.838-.342.23-.342.23-1.024.23-.683.46-.854 1.149-1.536 1.608.17 1.149-1.536 1.379-1.366 2.528.342-.23 1.195-.23 1.366.229-1.536-.459-2.731 1.149-3.072 2.298 0 0-.342.46-.342.23.171.689 1.195.689 2.219.459-.512-.229-.171-.919-1.024-.919.512-.459 1.707.46 1.877-.459.342.23-.512.689-.512.919.854 0 1.195-.46 1.195-1.149 0-.23-.341 0-.512 0 0-.23.683-.689.341-.919.171-.23.854 0 .683.459.683 0 .171-.689 1.024-.459-.341 1.149-.853 1.379-1.195 2.527.342.23 1.195.23 1.878.23-.512.23-1.536.23-2.048.46 0 .689-.512 1.148-1.536 1.148-.171-.229-.512-.229-.342-.689-.512 0-.17.23-.341.46-.512 0-.683-.23-1.024-.23.171-.23.341-.46.683-.46 0-.229-.512 0-.683 0-.341 0 .171.23-.171.46-.512 0-.341-.46-1.194-.46 0 .69-.854.69-.854 1.379.342.23.683.23.854.459.341-.689 1.877.23 2.048-.689.682.23 1.024.46 1.194.919-.853.23-2.048.69-1.706 1.609-.342.459-1.024.919-1.707.689.341.23.341.459.171.689-.171-.459-.683-.23-.512.689-.853.69-2.219 1.149-3.243.46 0-.23 0-.689-.17-.919-.854.23-.342.689-1.195.919-.341.23.171.23.171.459-.342 0-.512.23-.683.23 0 .23.512.23.341.689-.17 0-.341.23-.682 0-1.024.69-2.219 1.839-2.901 3.447h-.342c.342.919-1.706 1.149-1.024 1.838-.853.23-.853.919-1.706 1.379 0 .459-.171.689 0 .919-.683-.23-.683.689-.854 1.148.512 0 .512-.229 1.195-.229.171 0 .171.229.171.459.512-.23.512.23 1.194 0 .171.23-.341.46 0 .46-.341.229-.682.459-1.365.229-.341 0-.171.46-.341.69-.512 0-.683-.46-1.366-.23.342-.46 1.366-.46 1.195-1.149 0-.23-.512 0-.341-.23-.342.69-1.536.69-2.048.23-.171.689-.683.919-.683 1.608-.341 0-.341.46-1.024.46.171.46-.341.919-.512 1.379.171.229 1.024 0 1.024.229.512 0 .512-.459.683-.919.682 0 1.194.23.853.46.683 0 .853.23 1.195.459 0 .919-.683 1.149-1.707 1.149 0 .23.512.23.341.689-1.194 0-1.706.919-1.877 1.609-.853 0-1.024-.46-1.877 0-.171-.23 0-.69-.341-.69 1.365.46 1.877-1.148 2.901-.919.683-.459-.171-.919-.341-1.378-1.707.23-2.219 1.149-2.731 2.068-.341 0-.853 0-.853-.23-.171 0-.512.23-.342.459.512.46.683.92 1.195.92 0 .689 0 .459.341 1.148-.512.46-1.365.23-1.877 0-.853 0-.683.919-1.195 1.149.171.46 1.024.23 1.195.689.683-.229 1.365-.229 1.877 0v.919c-.341 0-.512.23-1.024.23.171.46 0 .689-.341 1.149-.683 0-.683 0-1.365-.23 0-.229.17-.689.341-.919-1.024-.23-.683-.689-1.195-1.149-2.389.46-1.535 2.528-1.194 3.217 0 .46-.853.23-.683.919.171.689 1.195.689 1.536 1.149-.853.23-1.024 0-1.877.23.341.689-.853.689-.683 1.378.171.23.683.23 1.024.46-.341 1.149.171 2.297-.853 3.216.341.23.683.46.512.919-1.024.23-2.219-.459-2.901 0-.683 1.149.17 1.839.682 2.758-1.024 0-1.536-.23-1.877-.46-.341 0-.341.46-.341.689.17 0 .341 0 .341-.229 0 .229-.512 1.148-1.365 1.148.171.23.171.23 0 .69.171.229.341.459.682.459-.17.23-.341.689-1.023.689.511.69-.342.919.17 1.379.171.23-.853.23-.341.23-.512 0-1.195.23-1.707.23-.17 0 0-.23 0-.23h-1.194c-.171.459.512.459.17.689-.853.23-1.194-.459-1.706 0 .512 0 1.706.23 1.877.919-.341.23-1.195 0-1.195.46 0 .229.171 0 .342 0-.171.229 0 .459-.342.689h-.512c-1.365 1.608-2.389 3.906-3.754 5.744-.171.459.171.459.171.689-.683.46-1.707.69-2.219 1.379.341.23.683.23.512.689-.341-.23-1.024.23-1.195.46-1.706 0-1.194 1.838-2.73 1.838.512-.919-1.024-1.609-1.877-2.068-.512.23-.854.459-1.024.689-.512.23-.342 0-.854 0-.341 0-.341.46-.341.689-.512-.229-.683-.459-.853-.919-.342.46-1.536.23-1.878 0-.341 0-.341.23-.511.23-.854-.23-.683-1.378-.342-1.838-.17-.23-.512-.23-.682-.23-1.024 0-.171.919-.854 1.149-.682-.23-.682-.689-1.536-.919-.17-.23.342-.23.342-.46-.171 0-.171-.229-.342-.229-.17.689-.512 1.378-1.194 1.608.17.23.512.46.341.919h-.341c-.342-.459-1.195-.689-1.877-1.149-.342-.229-.171-1.149-1.024-.919.853-.919 0-2.757.17-3.906 0-.459.512-2.068-1.194-1.608 0-.23 0-.23-.342-.23-.341.69-.341 1.609-1.194 1.838.512.69 0 1.838 0 2.528-.854.229-1.024-.46-1.536 0 .17-.69 0-.919.17-1.609 0-.229-.512 0-.682 0-.342 0 .341.23.17.69-.512.229-2.047.229-1.535 1.148h-.854c.171-.459-.512-.689-1.024-.689v-.459c.171 0 .342-.23.683 0 0-.23-.341-.23.171-.46-.512-.23-.683-.459-.342-.919-.341-.23-1.194 0-1.706 0-.171-.23-.342-.459-.342-.689 1.024-.23 2.219-.23 2.39-1.379-.683-.459-.854 0-1.536-.23.341.92-1.024 1.379-2.219 1.609-.171-.23.171-.23.171-.46.682 0 .682.23 1.194 0-.17-.459-.17-.919-.682-1.149-1.195 0-1.536.92-2.731.69 0 .23 0 .459.341.459-1.194.46-2.218 1.149-3.413 1.609.171.229-.17.689.342.689-.342.459-.683.689-.854 1.149-.17 0-.341-.23-.512-.23 0-.46.342-.46.683-.689-.512-.919-2.901-.919-2.731-1.838-.512.229-2.218 0-1.877.689-.512 0-.512.23-1.024 0 0-.46-.853-.46-1.194-.689-.171 1.838 3.242.919 4.266 1.608.853 0 1.365-.23 1.877 0-1.024 0-1.365.689-2.389.689 0 .23.512.23.171.46.341 0 .682.229 1.194.229-.341.46-1.877 0-1.365-.459-.853 0-.853.689-1.536.689-.17.23.512 0 .342.46-.342.459-.854 0-1.024.689-.171-.459-.683 0-1.195 0-1.536 0-3.243-1.379-4.267 0 .342.46.342 0 1.024 0 .342.23.683.689 1.195 1.149-.341.459-1.024.23-1.195.459.512.46 1.195.23 1.878.23-.683.689-1.878.689-3.072.919-.171-.23-.342-.459-.342-.689-.853 0-1.194.23-1.535.689-1.707-.459-1.707 1.149-3.414.919.171.46.171.689.342 1.149.682 0 .512-.23.341-.689.512 0 .683.459 1.024.689.512-.23.853-.23 1.195 0-.342 1.149-2.219.46-3.414.23-.17-.23.342-.23.342-.46-.512 0-1.195.46-1.366 0-.341 0 .342.23 0 .46-1.877.23-3.413 1.378-5.461.459-1.194.23-2.389.69-3.583.46-.342 0-.512.23-.342.459-.341 0-.512-.689 0-.689-.512-.459-.853-.919-1.706-1.149.341-.919-1.195-.689-1.195-1.378-.512 0-.683 0-.853.229.17.23.512.23.512.23.17.46-.683.689-.342.919-1.194.23-1.877 1.149-3.071.919.17-.689 1.024-.689 1.365-1.149-1.024-.919-3.584-.919-4.949-.459 1.365.23 2.901-.23 3.413.919-.341.46-.853.689-1.195.919.171.23.342.46.342.689.853 0 1.194.46 1.877.46 0 .23-.512.23-.171.459.342 0 .342-.229.512-.459.683.23 1.707.23 1.877.689-2.559.23-5.631-.459-8.362-.459-.171-.23.171-.23.341-.46 0-.23-.682 0-.682-.23v-.459c.512-.23 1.024-.23 1.706-.23v-1.149c0-.23-.17-.23-.512-.23.171-1.378-2.218-.689-2.901 0-.17-.459-.512-.459-1.194-.229 1.365-.919 4.095-.919 5.631-1.609 0-.229-.17-.229-.17-.459-.683.459-1.366.459-2.219.23-.853.919-3.754 0-4.778 1.148-.171 0-.171-.229-.342-.229-.512.229-.17.689-1.024.689 0-.46.683-.46.683-.689-.512-.46-2.048 0-1.877.459.17.23.682.23 1.194.46-.341 1.149-2.901 0-3.583 1.378-.854 0-1.195-.229-1.878-.459-.512.23-1.536.229-2.218.229.512-.689 1.024-1.378 2.218-1.608-.17.23-.17.23-.17.46.341 0 .512-.23.682-.23-.341-.23 0-.689.342-.689.512.459 1.365.229 1.877 0-.512 0-1.024-.69-.512-1.149 0-.23-.512-.23-.853-.46.682-.229.682-.919 1.194-1.378-1.194-.23-3.584-1.149-4.437.23-.171 0-.341-.23-.683 0-.512.689-1.706.919-2.901 1.378-.17.23.171.46.171.689h-1.024c0-.459.171-.229.683-.229-.342-.46-1.195-.46-1.878-.46-.17-.23-.341-.23-.17-.689-.683 0-1.366-.46-1.878-.23-.17-.23-.17-.919-.853-.689 0-.23 0-.69.341-.69 0-.459-.682.001-.853-.229-.341 0-.17.459-.341.689-.341-.23-.683-.459-.341 0-1.024-.23 0-.919-.342-1.379-.512.46-.341 0-1.194-.229-.512-.23-1.536 0-1.878 0-.17 0-.17-.46-.341-.46-.341-.23-1.195.23-.683-.23-.682.23-1.194 0-2.047 0-.854-1.378 1.023-1.608 2.559-.919.171 0 0-.229 0-.229.342 0 1.366 0 1.024.459.342-.459.683-.23 1.195-.919.683 0 .512.46 1.024 0-.171-.919-1.707-.23-3.072-.459-1.024-.23-2.218-.46-2.901.229 0 .23.512 0 .683 0-.171.23-.683.23-1.195.23-.171-.23-.341-.689 0-.919-.853-.459-2.219-.23-2.731-.689-.512 0-1.536.23-1.365-.46.512 0 1.195 0 1.195-.23 0-.459-.683-.229-1.195-.229.171-.23.512-.46.853-.23.512-.919 2.39-.919 2.56-2.068.512 0 1.195-.23 1.707-.23-.171-.689.171-1.148 1.194-.919-.17-.459.854-.459.342-.919.682 0 1.024-.229 1.194-.689h.854c0-.23-.683 0-.342-.46.342 0 .512.23 1.024 0-.17-.459.171-.229.171-.689.512-.23.341 0 .683 0-.342-.23.341-.23.341-.689-.683 0-.853.459-1.195.689-1.024.23-2.56.689-3.413 1.609-.512 0-.853-.23-1.365 0 0-.23-.341-.46-.341-.69h.512c0-.23 0-.459-.342-.459.171.459-.853.459-1.365.459.171.23.341.46.683.23-.171.23-1.195 0-1.195-.46-.341 0-.512.23-.683.23-.17-.23.342-.459 0-.689-1.365.689-3.242-.23-4.607.459.17.46.853.69 1.877.69-.342.459-1.365.229-1.536.689-.341-.23-.341-.689-.853-.689.512-.919-1.024-1.379-1.195-2.068-2.56-.23-1.195 2.068-2.219 3.217 0 .229.342.459.342.689-.171.23-.342-.23-.512 0 0-.23-.854-.919 0-.919.17-.46-.512 0-.342-.23.342-.46 1.024-1.608 0-1.608-.512 0-.512.459-.682.689-.342 0-.512-.46-.17-.689-.342 0-.513.229-.854.229 0 .46-.341.46.17.69 0 .23-.511.23-.853.23 0 .459.342.229.17.689-.511.23-.17-.23-.511-.23-.17-1.149.683-2.987-1.877-2.527-.342-.23-.512-.46-1.024-.46-.683.23-1.024.23-1.878 0-.34.23.171.689-.17.919-1.365-.459-.17-2.068-1.536-2.527-.341.459.17 1.149.341 1.608-.341 0-.682.23-.853.46.17 1.378.17 2.297-.512 3.446-.853-.459-.17-1.149-.683-1.838h.512c-1.194-.919 0-2.068-.853-2.987 0-.689 0-2.987-1.195-3.217-.17-1.378-.853-2.986-1.194-4.595-1.536-.919-.342.689-.854 1.149 1.024.23-.34 1.149 1.195 1.149-.17.23-.512.459-.683.689.171.23.683.23.854.46-.683.229-.512.689-1.366.689.171.23.512.23 1.024.23-.17.919-.512 1.378.683 1.378.683 0-.341-.689.512-.689.341 1.149.683 2.068-.341 2.757.341.689.341.689.512 1.379-1.878-.46-1.707-2.757-2.56-4.366 0-.23.17-.23.341-.459-.853.229.17-.69-.683-.69.512-.459 0-1.148-.512-1.378-.17.23-.34.23-.34.459-1.878-.229-1.195-.919-2.049-1.838-.512 0-.17.46-.682.46-.171-.46-.342-.919-.512-1.149.512 0 .682.459.853.919.512 0 .853-.23 1.024-.689-.341-.69-1.195-.69-1.536-1.149-.853.689-.683 2.527.853 2.987-.17.459.17 1.149 0 2.297-.341 0-1.706-.229-1.536.46-.682.23-.682-1.608-1.365-1.149-.512-.23.341-.23.17-.689-.511-.23-.34.459-.853.23-.682-.69 0-1.379-.512-2.068.342-.23.683-.46.854-.689-.17-.23-.683.229-1.195 0-.17-.23-.341-.92.341-.69-.17.46.512.46 1.024.46.171.459 0 .919 0 1.378 1.536 0 1.195-1.838-.34-1.608 0-.23-.172-.23 0-.459-.172 0-.513-.23-.684 0-.682-.92-1.365-1.609-1.535-2.987.34-.23.34 0 .682-.23 0-.689-1.024-.46-1.024-1.149.342 0 .342-.23.512-.23 0-.459-.341.46-.341 0-.341-.229.17-.459.341-.459-1.194-.919-1.365-2.528-1.706-4.595.682-.23.853-.69 1.536-1.149-.171-.46-1.195-.23-1.878-.46-.341-.689-.17-1.149 0-1.608.17 0 .17.23 0 .23.512.459.683 0 1.195 0-.17-.919.512-1.838-.853-2.758-.512 0-.342.23-.854 0-.341-.229.171-.459 0-.919.683 0 1.024-.689.854-.919-.512 0-.342.46-1.024.23.341-.919.512-1.378 0-2.068.682 0 .682-.689 1.194-.689-.512-.689-1.024 0-1.706-.459-.171-.69.682-.919 1.024-.46.34 0 .17-.23.34-.23-.17-.23-.682-.23-1.023 0-.17 0-.17-.23-.341-.23v-1.838c.341 0 .512 0 .512-.229-.342-.46-.171-.69-.342-1.379.342.23.171 0 .342 0-.171-.23-.342 0-.683 0 0-1.149-.17-2.068-1.536-2.527-1.195.459-3.072 0-3.754.919-.512 0-.683-.23-1.195-.23-.512.23-.512.46-.341.919-.171.23-.512 0-.512.23.341-.46.17-1.838-.854-2.068-2.218 1.149-6.143-.46-8.533.689-.34 0-.17-.459-.34-.23-.513 0-.342.46-.854.46.341-.919-1.024-.23-1.365-.919.511.23.853.23.853-.23.512 0 .853 0 1.024.23.512-.23.682-.23.682-.689 1.195 0 3.072-.23 3.584-.919 0-.23-.17-.23-.341-.23 1.024-.689 1.877-.46 2.901 0 .512 0 .683-.23.683-.46.512 0 .682-.229 1.194 0-1.194-1.149-3.925.46-5.12-.689-.853.23-1.023-.23-1.535-.23-.17 0-.342.69.17.46-.34.23-.34.459-.34.689-.684-.23-2.049-.459-2.732 0-.511 0-.17-.459-.511-.23-.171.23-.512.46-.683 0-.17 0-.17.46-.512.46-.512-.23-1.536-.23-2.39-.23 0-.23-.17-.459-.682-.459v-.69c.512 0 .17.46.683.23a.54.54 0 0 0 0-.919c.512-.46.17-.689.853-1.379-.17-.459-.341-.459 0-.919-.341-.459-.853 0-1.536 0 .17-.689.683-1.148 1.195-1.378-.512 0-.512.23-1.024 0-.17-.46.17-.46.17-.689-.512 0-1.365.459-1.706 0 .682-.46 1.365-.69 1.365-1.839.512-.229 1.195-.689 1.707-1.148 1.706.229 1.536-.919 2.56-1.149-.171-.23-.512.23-.854 0-.17 0 0-.46-.341-.23 1.024-.23 1.706-1.149 2.73-1.149-.34-1.149-1.194-.459-2.218-.229-.512.689-1.365 1.608-2.73.919-.171-.23.511-.69 1.023-.69 0-.459-.17-.459-.17-.919 1.365.23 1.024-.919 2.048-1.149 0 .46.853 0 .682.46.342-.23 1.024-.23 1.024-1.149.342-.23 1.024-.23 1.195 0 0-.23-.512-.23-.17-.459.682 0 1.194-.23 1.535-.69.683.23 1.365.23 2.219 0-.683-.229-2.39-.229-3.072-.229.682-.919 1.706-1.149 3.072-.919 1.024-.46 2.218-.69 3.242-.919-.17-.23-.17-.69.342-.69-.513-.23-.342-.689-.683-1.149-.17.23-.683 0-.683.23-.17 0-.341-.23-.341-.23h-.683c-.512 0-.17-.229.17 0 .684-.229 1.366-.229 1.878-.459.683 0 1.024.23 1.536 0 .341-.23-.512-.46-.17-.689 1.535-.23 3.413-.69 4.949-.46.34-.459.853-.689 1.706-.919-.17-.46.17-.459.341-.919-.34-.46-.682-.919-1.365-1.149.341-.459.341-1.149-.341-1.378.17-.46.512-.46 1.024-.46.512-1.149.17-2.987-.342-3.446.171-.46.171-.69-.17-.92.853-.23 0-.689-.17-1.148.511-.46.511-1.379.17-1.609-.342 0-.17.23-.512.23-.17-.46.512 0 .341-.23-.341-.23-1.194-.23-1.194-.689.34-.23 1.023.23 1.194-.23-.17-.23-.341-.459-.682-.23.17-.229.682-.23.682-.459-.341-.46-1.365-.46-1.706-1.149.17-.23.682-.23.853-.46-.512-.688-1.024-1.607-2.219-1.148.512-.46 1.878-.69 2.73-.46 0-.689-.17-.689-.852-1.378 0 0 0-.46-.171-.46-.341-.23-1.365 0-1.195-.689h-1.194c.17-.69-.342-1.149 0-1.608.34 0 .34-.23.853 0-.17-.46 0-.69.341-.92-.341-.459-.853 0-1.194-.229.34-.46.17-.919 1.024-.919 0-.46-.854-.23-1.366-.23.683-.23 0-.69-.512-.69 1.195-1.148 4.096-.688 5.632-1.607.17 0 0 0 0 .23h.341c0-.23-.682-1.15.342-1.38-.342-.918-1.024-1.608-2.39-1.378.683-.23 1.366-.46 1.195-1.378h-.34c-.17 0-.17.23-.17.46-.683 0-.854-.23-1.195-.46.17-.69 1.706-.69 2.73-.69.17 0-.17-.46.17-.689.342.69.342 1.379.513 2.068 1.365 0 1.706-.23 2.56-.46-.171-.23-.342-.689-.342-1.148.683 0 1.195-.23 1.366-.69.17.69 1.706.23 2.218.46.512-.46.17-1.608 1.365-1.608.512-2.298 2.73-3.447 2.73-5.744.172-.23.513-.23.513-.46-.341-.46.512-1.608.853-2.068-.341-1.378-.17-3.216 0-4.825.17-1.149.683-2.297.853-3.446.171-1.149-.34-1.838 0-2.757.171-.69 1.366-1.379 1.707-2.528 1.195-.23.683.92.853 1.609.171.23.342.23.854.23.512-.46.682-1.15 1.706-1.38 0 .46.17.69.342 1.15.682-.23 1.535-.69 2.389-.46.341 0 0-.46 0-.46-.512 0-.342.23-.854.23-.17-.46.512-.689.342-1.148.853-.23.512.689 1.024.689h.341-.341c.853-.92.682-2.987 1.706-3.906.512 0 .683.46 1.195.46.512-.23.683-.46 1.195-.69.34 0 .17.46.853.46.17 0 .17-.46.341-.69 1.877.46 3.584-.689 4.437-1.838.512.23 1.024.69 1.707.46.683.69.683 2.297 2.56 2.068-.512.689-.171 1.378.682 1.838.683-1.15.342-2.298 1.366-2.987 0 .69-.171 1.838-.171 2.527 0 1.149 0 3.906 1.365 4.136.512-.69-.512-1.149-.341-2.068.341 0 .341-.46.853-.23-.17 1.838.683 2.757 1.195 4.136.682-.23.512-.92 1.194-1.149-.17 0-.341 0-.341-.23.171-.23.512-.23.683-.46.682.23.682.92 1.536 1.15-.342.23 0 .46.17.689.342 0 .171-.23.512-.23.512.46.171.92 0 1.379 0 .23.683 0 .683.23.341-.23.683-.69.512-1.15 1.024-.229 1.536-.23 2.048-.689h.341c.341-.23.171-.689.341-1.378.171-.23 1.195-.92.342-1.379.853-.23.512-1.378 1.194-1.838 1.536.23.854-.919 1.878-1.149-3.072-1.148-3.414-1.148-3.584-1.378Zm73.724-5.055c0-.23.171.23.342 0 0-.23 0-.46-.342-.46 0 0-.512.46 0 .46Zm3.072.92c.512 0 .854-.23.854-.69-.512 0-.342-.23-.854 0-.341 0-.341.46 0 .69Zm-18.943-.23c.341 0 .341.23.512 0 .171 0 .341-.46-.171-.46.342.46-.341.23-.341.46Zm9.045.689c.171.46.683.919.512 1.378.512 0 .512.46 1.195.23.341.69 0 1.149.682 1.608.171-.689-.17-1.608.171-2.067-.853-.46-1.365-2.298-2.56-1.15Zm12.458.689c.341 0 .341.46.683.46.17-.23-.171-.23-.171-.69-.171 0-.512 0-.512.23Zm-54.781.69c.512 0 .341-.46.341-.69h-.341c-.171.46.341.46 0 .69Zm53.757.229c.683 0 .853.23 1.365 0-.17-.46-.853-.69-1.706-.69 0 .46.341.46.341.69Zm-69.117 1.608c.342.23.342.69.342.92h-1.195c-.341.689-.171 1.148-.341 1.837.341 0 .682 0 .512.23 0 .23-.171.46-.512.23.341.69-.171 1.378-.342 2.068.342 0 .342 0 .171.23.512 0 .683-.23.853-.46-.341-.919.512-1.608.171-2.298 1.024-.23.683-1.838 1.195-2.067-.683-.46.341-.92.341-1.379-.853-.23-.683.69-1.195.69Zm64.68.69c.171-.23.683 0 1.195-.23 0-.46 0-.92-.342-1.149-1.024 0-1.365.92-.853 1.379Zm15.701 4.135c-.171.69.512.69.341 1.379 1.195-.23.683-1.149 0-1.608 0 0-.171.23-.341.23Zm-81.405 2.528c-.512-.46.683-.69.342-1.379-.171-.23-.512-.23-.854 0-.512.69 0 1.379.512 1.379Zm33.45 0c.341.46 1.194.689 1.877.23 0-.46-.171-.46-.171-.69-.853 0-1.706 0-1.706.46Zm48.296 1.148c.341 0 .683 0 .683-.23-.342 0-.171-.229-.512-.229 0 .23-.171.46-.171.46Zm-44.03.92c.853.23-.683 1.378-.341 1.838.853-.46.682-1.379 1.024-2.068-.342-.23-.854-.23-.683.23Zm44.03 0c.341.23.512-.46.341-.46-.17.23-.341.23-.341.46Zm-84.305 1.838h1.023c0-.46-.682-.23-.17-.46-.341 0-.512 0-.341-.23.17-.23.853-.46 1.194-.23-.17-.459-.682-.459-1.194-.689-.342.69-.171 1.15-.512 1.609Zm82.428.46c.512 0 .682-.23.682-.46h-.341c0 .23-.341.23-.341.46Zm0 1.148c.512-.46 1.194.23 1.536 0-.342 0 .17-.23 0-.46-.683-.23-1.024-.23-1.878-.46-.17.46-.17.69.342.92Zm3.072 0h.853c.17.23.341.919.512.919 0-.46.17-.69.682-.69v-.459c-.17 0-.341-.23-.512-.23-.341.92-1.365-.23-1.535.46Zm.682 1.838c.171 0 .853.23.683 0 0-.46-.853-.23-.683 0Zm5.461 0c-.341.69-.853 1.838.683 1.838 0-.69 1.024-.919 1.024-1.608-1.024.23-.853-.46-1.707-.23Zm-6.997 1.379h.854c.17.23.17.46.341.46-.512.229-.853.229-.853.688.17.23.853.23.853.69-1.024.46-2.048.919-3.072.919.171.689 1.365 1.378 2.219.919.17 0 .512 0 .341.46.683 0 .853-.23 1.365 0 .341.459-.341.459 0 .689.512-.23.683-.69 1.365-.69 0-.46.683-1.148-.17-1.378-.683.23-.683.919-1.366 1.149-.511-.23.001-1.15-.511-1.379.17 0 .511 0 .341-.23-.341 0-.512.23-.512 0 .171-.46.512-.69.171-1.149 1.023-.46.511-.919.341-1.838-.683.23-.853 0-1.877 0 0 .23.341.46.17.69Zm2.901.689c.512 0 .854 0 1.024.46-.512.459-1.536.459-1.536 1.148.854-.23.854.23 1.195.46.171-.23.512-.46.853-.46.512.46 2.56.23 2.902 0-.854 0-.512-.69-.854-.919-1.365-.23-1.877.46-2.048.69-.17-.69.171-1.15-.17-1.839-1.024-.46-.854 0-1.366.46Zm-48.296.69c.341.229.853.229 1.195.229 0-.23.17-.23.341-.23-.512 0-.512-.69-.853-.919 0 .46-.512.46-.683.92Zm52.904.688c.342 0 .512.23.342.46h1.877c.17.23.341.46.341.69.683.229.512-.23 1.024-.23-.171.689 1.365.459 1.365 0-.17 0-.17 0-.17-.23-.854.23-.683-.46-1.195-.46.853-.69-.853-1.149-1.365-.689.341 0 0 .46-.171.46-.341-.23.171-.69-.171-.92-1.023-.23-1.365.46-1.877.92Zm10.41-.23h-1.536c-.17-.23-.17-.459-.17-.689-1.024 0-.853.92-1.365 1.15.17.229.341.229.341.459 0 .46-.512.46-.853.689 1.024.23 1.877.46 2.559 0-.341-.23-1.023-.23-1.194-.46.171-.23.171-.689.341-.919 1.195.23 2.731.46 1.877-.23Zm-5.631.46c.17 0 .512.23.341.46.341 0 .683-.23 1.365-.23-.17-.46-.341-1.379-1.194-1.149.17 0-.512.46-.512.92Zm7.509 1.379c-.683 0-1.707-.23-1.878.23.683.23.512 1.148.854 1.608.341-.46.853-.92 1.365-1.149.171.23.683 0 1.024.23 0-.23.171-.23.341-.23-.512-.919-1.194-1.608-2.56-1.838.342.23.512.69.854 1.149Zm-12.117 1.378c-.171.23-.683 0-.853.23 1.365.92 2.901 0 3.925-.919-.171-.46-.512-.69-.854-.919-.853.69-3.071 0-2.218 1.608Zm4.437 2.298c0-.46.853-.46 1.365-.23.342-.46.342-1.149.854-1.378-.171-.23-.512-.23-.512-.69-.683 0-1.024-.23-1.366-.23-.17.92-.853 1.609-.341 2.528Zm-10.581-1.838c.854-.23 1.195.69 2.219.23-.512-.23-1.195-.23-1.536-.46-.512 0-.683-.23-.683.23 0-.23 0-.23 0 0Zm12.97 1.608c.854 0 1.195-.23 1.877 0 0-.23.171-.23.171-.46-.341-.23-1.024.23-1.194-.23.17 0 .341-.229.17-.459-1.194.23-1.365.69-1.024 1.15Zm-2.218.69c0-.23 0-.23.17-.23-.17 0-.853-.23-1.024 0 .512 0 .342.46.854.23Zm-7.68 2.527c.341 0 .512-.23.341-.46h-.341v.46Zm14.677 1.149c.17-.23.512-.69 0-.92-.342.23-.512.69 0 .92Zm-155.3.23c0-.23.342 0 .512 0 0-.23 0-.46-.341-.46.17 0-.512.23-.17.46Zm153.934.918c1.195 0 2.731 1.609 3.414.23-.342-.23-1.195-.23-1.195-.919-.683 0-.853-.23-1.195 0-.17-.23-.341-.46-.341-.69h-.683v1.38ZM69.452 79.966c.512 0 .853 0 1.195.23-.171-.23.17-.23.341-.46-.683 0-.853 0-1.195-.23-.34.23-.512.23-.34.46Zm-.683.689c.342 0 .342-.23.342-.23h.341c0-.23-.17-.46-.512-.46-.17.46 0 .46-.17.69Zm-1.365 0c.342.23 1.195.23 1.195-.23-.512.23-.512-.23-1.024-.23 0 .23 0 .23-.17.46Zm168.611 3.216c-.171 0-.171-.23-.171-.46h-.341c-.171.69.341.69.512.46Zm.171.23c.682-.23 1.024.23 1.194-.46h-1.365c0 .23.341.23.171.46Zm-1.878 1.15c.171 0 .171-.46-.341-.46-.171 0-.171.46.341.46Zm-1.536 0v-.46h-.512c0 .23.171.46.512.46Zm3.243 6.432c.683.23 1.707.46 2.389.92.342 0 .341-.46.512-.46-.171-.23-.512-.23-.512-.69 1.024 0 1.365-.689 1.877-1.148.342.23 1.366 0 1.536 0 0 .23-.512.46 0 .69-1.024.229-1.706.229-1.706 1.148.682 0 .512.46.682.69.342-.23.512-.46.854-.46 0 .23 0 .46.17.46.171 0 .854.229.854 0-.171-.23-.512-.46-.854-.46.342-.46.342-.46 1.024-.46 0-.46-.682-.23-.682-.69.682-.229.682 0 1.194.23.342-.459.512-.919 1.195-.919-.341-.689 0-.919.512-1.148-.341 0-.341-.23-.512 0-.171 0 0 .46-.341.46-.342 0-.171-.46-.512-.23-.342.459 0 .689-.512.918-.512-.23-1.024-.689-.683-1.148-.683.23-1.195-.23-1.877-.46.17-.46 1.024-.689 1.194-1.149h-.512c0-.46 1.024-1.148 0-.919.512.46-1.024.46-1.024.92-.512 0-.341-.46-.853-.23-.512.46-1.195.46-1.706 0 .341 0 .341-.23.341-.46-.171-.23-.853 0-.853-.23s.682 0 .512-.46c0-.459-.342-.459-.683-.459-.171.23-.341.23-.341.69.17.23.512.46.512.689-.342.23-.512.46-1.024.69-.171 0 0-.46-.342-.46-.512.46-1.877.23-2.73.46-.171-.23-.171-.46-.342-.46-.682 0-.853.23-1.194.46-.512-.23-1.024-.46-1.877-.23-.342.459-.171.689 0 1.148.853-.23 1.194.23 1.365.69 1.024-.46 1.365.23 2.56.23.17.689.512.688.853.918-1.707.23-3.243.23-3.584 1.379 1.195.919 2.56.23 4.267.46.17-.46 1.024-.69 1.536-.23-.171.23-.683 0-.683.23h.341c-1.536-.46-2.048.689-2.56 1.608.683 0 1.024.23 1.366 0 .17-.23-.512 0-.342-.46 1.195-1.608.854-1.149 1.195-2.068Zm3.413-5.974c.341 0 .341-.23.512 0 .171-.23-.171-.23-.171-.459h-.512s.171.23.171.46Zm1.536 0c.341.23.512-.459.341-.459-.17 0-.512 0-.341.46Zm6.997 2.298c.512 0 .683-.46.683-.919-.683.23-.512.69-.683.92Zm-18.772 2.987h.853c0-.23.512-.46.341-.69-.512 0-1.365 0-1.194.69Zm-2.902-.23c.512.23 1.024-.23 1.195-.46-.853 0-1.195 0-1.195.46Zm-2.218 0c0-.23.682.46.682 0-.17 0-.17-.46-.682 0 0-.23 0-.23 0 0Zm26.452 2.068c.683-.23.341-1.149.853-1.378-.17 0-.341-.23-.853-.23-.171.46-1.024 1.378 0 1.608Zm1.706.69c.342-.23-.511-.23-.341-.69h-.512c.171.23.512.46.853.69Zm-18.089.918c.17.46-.342.46-.342.92.683-.23 1.195-.23 1.878 0-.171-.23-.171-.69 0-.92h-1.536Zm16.383 1.15c-.512.23-1.707 0-1.707.688 1.366.23 2.39-.459 3.413-.919-.341-.459-.853-.689-1.535-.918 0 .459-.512.689-.171 1.148Zm9.386 3.216c.341 0 .341.23.341.23 0-.23.342-.46.512-.46-.17 0 0-.23 0-.23h-1.023c.17 0 .17.23.17.46Zm-2.901 4.365c0 .46.853.23.683 0-.342-.229-.342 0-.683 0Zm-.512 1.149c.171 0 .341.23.683 0 0-.23.17-.23.17-.459-.512 0-.682.229-.853.459Zm-195.063 4.136c-.853 0-1.365-.46-2.048 0 .683.23-.341.459-.17.919 1.365 0 2.9 0 4.095-.46.171.23.512.23.683.46 0-.46.512-.23 1.024-.23 0-.23.341-.23.512-.459-.17-.23.17-.919-.341-1.149-.854.919-2.73 0-3.755.919Zm195.916-.23v.23h1.195c0-.23 0-.23.171-.23-.683 0 .17 0 .17-.23-.512 0-.17-.229-.512-.459 0 .23-.853.689-.341.919-.341 0-.341-.23-.683-.23ZM46.755 124.769c.511.23.853.459 1.535.689.512-.23.683-.689.854-1.378-.854-.23-2.048 0-2.39.689Zm9.727.919c.683.23 1.877 0 2.39 0-.342 0 .17-.46-.342-.46-.341.46-1.707-.229-2.048.46Zm192.503 2.068c.683 0-.341.459-.341.689.682.689 1.024 0 2.218.23.171-.23.171-.689.683-.689-.171-.46-.512-.919.171-1.149 0-.23-.342-.46-.854-.46-.17.919-1.365.69-1.877 1.379Zm-191.65 1.838h.854c.682-.46.512-1.379-.683-1.379-.341.69.17.919-.17 1.379Zm8.021.23c-.682 0-.682-.46-1.194-.46-.512.689 1.024.919 1.194.46Zm116.048 3.676c0 .23-.512.23-.17.23.17-.23.682.229 1.023 0-.17 0-.17-.23 0-.23h.171c-.683-.23-.683.459-1.024 0Zm-105.979 3.216c.512 0 .341.23.683.23.17-.23-.17-.23.17-.459h-.512s0-.23-.17 0c0 0-.17 0-.17.229Zm-.341 3.906c.341-.229.17-.919-.17-1.148-.513 0-.513 1.378.17 1.148Zm-.341 2.528c.34-.23.511.459 1.535.459.342-.229.171-.459.342-1.149-.683 0-1.024-.229-1.707 0 0 .23-.682.46-.17.69Zm-.512 1.608c1.023-.23.682.919 2.047.689-.17-.459.171-.689 0-1.148-.682 0-1.535 0-2.047.459Zm102.565.919c0 .23 0 .23.171.46.341 0 .512-.23.512-.46-.341-.23-.341 0-.683 0Zm-101.541.689c.682 0 1.194 0 1.194-.459-.683 0-1.195 0-1.195.459Zm105.979 1.379c.511 0 .511.23 1.194 0 0 0 0-.23.171-.23.17-.459-.853-.689-.512-.459.17.459-.683.689-.853.689Zm-105.126.689c-.17-.229-.17 0 0 0-.342-.229-.683-.229-.854-.229-.17.229.683.459.854.229Zm.853.46c0-.23 0-.689.17-.689-.34 0-.34-.23-.682 0-.341.229.17.459.512.689Zm105.808-.23c-.17-.23-.17-.689-.682-.689-.853.459.512.689.341 1.378.853-.229 2.219 0 2.389-.689-.512 0-1.365.23-2.048 0Zm-104.272 1.608c-.341-.689-1.365-.229-1.536-.919-.683.23-1.195-.229-1.536 0-.17 1.379 2.048 1.379 3.072.919Zm147.108 1.149c0-.23.17 0 .341 0 0-.23.171.23.512 0 0-.23.171 0 .341-.23-.512 0 .342 0 .171-.229-1.024-.23-.683.459-1.195 0 0 0 0-.23-.17 0 0 .229-.171.459 0 .459ZM77.473 153.03c.512.459.17 2.297-.17 2.527-.513 0-.342.23-.854 0v-.46h-.853c-.17.23.17.46 0 .69h-.853c0 .229 0 .229-.171.229 0-.229-.341-.229-.341 0 .17 0 0 .23-.171 0 0 .46 0 .69.512.46.341-.23-.17-.46.17-.46.683.23.512-.229 1.195 0 .17-.229-.512-.459-.17-.459.682.23.34.459 1.365.459.17-.229.17-.689.512-.689.17.23.682.23.512.46-.342.229-.342-.23-.683 0v.459c1.365-.459.341.919 1.365.919.171-1.608-1.706-3.906-1.194-5.974-.512.23-.854 0-1.366 0-.17.919.854 1.609 1.195 1.839Zm100.177-1.609c.341 0 .682.23.682-.23-.341 0-.682 0-.682.23Zm-9.557.919c0-.459 0-.689-.342-.689-.17.23-.511.23-.341.689.171-.23.341.23.683 0-.342-.23-.171 0 0 0Zm-92.497 5.055c-.512-.23.512-.23.341-.46-.683 0-.853.69-.341.46Zm51.539 4.365c.17-.229.682 0 .512.46 2.218-.23 2.73-1.379 3.072-2.757-.683-.46-1.366-.46-1.878 0-.17.689.512 1.378-.17 1.608-.171-.689-.854-1.149-1.024-1.838-.854.23-.683 1.379-1.366 1.838.683-.23.854.46.854.689Zm-47.785-2.297c-.17 0-.341-.689-.682-.46.341.23.512.919.682.46Zm39.934 3.216c.683 0 .683-.459 1.195-.459-.341-.46.171-.46.341-.919-.682.459-.853 1.149-1.536 1.378Zm9.045 1.149c0 .23-.17.23-.17.23.512.23 1.024-.23 1.706 0 0-.46.854-.46.683-1.149-1.024-.23-1.195-.459-2.219-.23 0-.229 0-.229-.17-.459-.342.23-.683 0-1.024.459.853.23 1.365.919 1.706 1.149-.341 0-.341-.23-.512 0Zm-10.069-.689c0 .23.512.23.342.689-.171.46-.683.46-.683 1.149.683 2.527 3.755.23 2.219-1.378-.854 0-1.366-.23-1.195-.92-.341 0-.512.23-.683.46Zm3.243 1.149c0-.23.683 0 .853-.23-.17-.23 0-.459-.341-.689-.171.459-.853.689-.512.919Zm49.832 2.527c.342 0 1.024.23 1.195.23-.512 0 .171-.46-.341-.689h-.171c.341.229-1.024 0-.683.459Zm-54.781.46c0-.23 0-.919-1.024-.69.171.23-.512.46-.171.69.342-.23 1.195.229 1.195 0Zm-15.359-.23c-.342.459.512.689 1.194.459.171-.459-.853-.689-1.194-.459Zm4.778 1.378c.512 0 .853-.229 1.024-.689-.683 0-1.195.46-1.024.689Zm2.389.69c.171-.23 1.366-.23.854-.46-.342 0-1.195.23-.854.46Zm65.363 2.987c-.683 0-2.219.689-1.195 1.378 1.195 0 1.706-.459 2.048-1.149.512.23 1.194-.229 1.365-.459-.853.23-2.048-.23-2.73 0 .341-.23.512-.23.512.23Zm12.799-.46h-.683c0 .46.683.46.683 0Zm-68.605 1.838c-.341.46 0 1.149.853 1.379 0-.919 1.366-.919 1.536-1.609-1.024-.229-1.365.23-2.389.23Zm5.291 0c.17 0 .853.23.853 0-.512 0-.171-.23-.341-.459-.342 0-.683.229-.512.459Zm66.215 0c-.171.689-.171 1.149 1.195 1.149 0-.46 0-.919.341-1.149-.683-.459-.683-.23-1.536 0Zm-10.069.46h-.341c.341 0 .683 0 .853-.23-.17-.23-.512 0-.512.23 0-.23 0-.23 0 0Zm-1.536.459c0 .23.171.23.171.46.341-.23 1.707 0 1.707-.69-.854 0-1.195 0-1.878.23Zm-66.727.69c.682-.46 1.536.229 1.706-.69-1.024.23-.512-.23-1.536-.23 0 .46-.512.92-.17.92Zm96.934.459c0 .46-.683.23-.512.689.683 0 .341-.229.512-.459.512.459 0 1.378 1.195 1.378.17-.689 1.023-.689 1.194-1.378-.683 0 .171-.23-.341-.23-.171 0-1.365.23-2.048 0Zm-20.82.689c.341 0 .341.23.512 0 0-.229.17-.229.17-.459h-.512c0 .459-.17.459-.17.459Zm22.356 5.285c0-.23-.171-.23-.171-.23 0-.23.512-.23.853-.459-.17-.23 0-.46-.341-.69-.341.23-.682.46-1.365.46 0-.689.512-.919.512-1.609-.683 0-1.536 0-1.707-.919.512-.229.512-.689.342-1.378-.342 0-.512-.23-.854-.23-.17.23-.341.46-.341.689.341 0 .512 0 .341.23-.341.23-.853.46-1.024.919.342 0 .683 0 .854.23v.919c-.342 0-.683 0-.512.459.512.23 1.024.46 1.365.69-.171 0-.171.23-.171.459.854 0 1.195.69 2.56.46 0-.23.171-.23 0-.23.171.23 0 .23-.341.23Zm-43.006-3.217c-.683 0-1.024.23-1.365 0-.171.46.341.46.341.919 1.195 0 2.389-.23 3.413-.689 0-.689-.853-.919-2.048-.919-.341.459-.17.459-.341.689Zm2.901.23h.512s0-.23.171-.23c0 .23.341.23.341 0-.171 0-.512 0-.683-.23 0 .23-.341.23-.341.46Zm1.877.459c.342.23.512.46 1.195.23 0-.459.512-.689-.171-.919-.17.919-.853.23-1.024.689Zm-9.386 2.528c-1.195-.919-3.072-.689-5.12-.46-.17 0-.341-.229-.853-.229-.512.459-1.195.919-2.389.919 0 .229 0 .229-.171.459 2.048 1.149 3.243-.23 4.949-.689 1.195.23 2.389 1.149 3.925.919 0-.23-.512-.23-.341-.919Zm-8.362 1.838c.17.23 1.024.23 1.194 0-.17 0-.17-.23-.341-.23-.341-.23-.853-.23-.853.23Zm-9.386.23c.17 0 .682 0 .853-.23-.512 0 0-.23-.341-.23 0 .23-.683 0-.512.46Zm15.188-.23c.171.23 1.024.689 1.365.459-.17-.689-.853-.459-1.365-.459Zm-10.239.919c.512 0 .682-.46.682-.919h-.341c0 .459-.341.459-.341.919Z" clip-rule="evenodd"/><path fill="#2C2321" fill-rule="evenodd" d="M174.237 39.986c.682 0-.342.46-.342.69.512.23.512.919-.17 1.378.511.46 0 .92 0 1.379-.512 0-.342-.23-.854 0 .854-1.379.512-2.527 1.366-3.447Zm3.925 1.149h.512c-.342.23-1.024.46-1.195.92-.341 0-.512-.46-.853-.46.341-.69 1.536.46 1.536-.46Zm38.91 12.638c-.341.23-.683.46-.853.689-.342-.46.682-.919.341-1.379.512-.23 1.365-.23 1.707-.23.17.46-1.024.69-1.195 1.38-.341 0 .171-.23 0-.46Zm-5.291 4.364c0-.23-.341 0-.512 0-.17-.23.171-.23.171-.46.341 0 .341.23.853.23.171.23-.682.23-.17.46-.512.46-.683 0-1.195.46 0-.46.512-.46.853-.69Zm18.261 1.149c0-.23.341.23.683 0 0 .46.512.69.17 1.149-.682.23-.341-.46-.853-.23-.171-.46.512-.689 0-.919ZM72.353 63.882c.342.23-.341.46-.341.689-.341 0 .17-.23 0-.69.17.23.341 0 .341 0ZM249.497 76.06c0 .46-.683 1.378-1.195 1.838-.341-.46.854-1.379 1.195-1.838Zm13.141 26.192h-1.195c0-.69.171-.919.683-1.379 0 .689 1.024.46 1.024 1.379-.512 0-.171.459-.683.459-.171-.23.171 0 .171-.459Zm-206.156 7.352c-.17.23-1.024 0-1.195.459-.34 0 .513-.689 1.195-.459Zm-7.338 1.15c.341 0 1.194-.23 1.365.23-.512-.23-.683 0-1.195 0 0 0 0-.23-.17-.23Zm8.362 19.989c.341 0 .512.229.853.229 0 .23-.853 0-.853.23-.341 0 .17-.23 0-.459Zm50.003 38.829c.171.23 1.195 0 1.195.459-.342.46-1.024 0-1.195-.459Zm57.512 13.556c.171-.23.512.229 1.024 0-.171.229-.342.229-.853.229 0 0 0-.229-.171-.229Zm58.024-129.356c.853.46.341 1.149.341 1.838h-1.024c.512-.69.512-1.379.683-1.838Zm-2.219 5.285c0 .23.512.23.342.69-.342.23-.171 0-.512 0 .17.23.17.23.17.46-.512 0-1.024-.46-1.365-.23-.512-.23 0-.46-.341-.69.512-.23.853-.23 1.706-.23Z" clip-rule="evenodd"/><path fill="#fff" d="M230.045 235.248c-2.652-10.212-11.48-17.056-14.392-19.084-2.432-5.38-3.584-11.184-1.816-16.632 2.096.62 4.224.98 6.372.78 3.864-.356 8.6-2.424 7.068-7.068-.296-.896-1.012-1.312-1.752-1.364a1.98 1.98 0 0 0-.876-.22c-3.864-.088-7.384.372-10.664 1.256-.304.016-.6.1-.872.292-.82.244-1.628.516-2.42.816-2.28-.996-4.52-2.108-6.8-3.076-.028-.012-.052-.008-.08-.016-3.26-3.812-15.516-17.076-31.264-21.152-18.2-4.712-33.62 4.748-34.268 5.152l-1.344.84.984 1.244c.304.388 4.408 5.476 10.952 10.804-10.064 1.328-19.812 5.304-28.26 11.22a46722.88 46722.88 0 0 1-4.996-55.648c-2.32-25.928-4.628-51.704-6.04-67.1l36.684 8.012 2.768.604.604-2.768c2.532-11.588.368-23.5-6.092-33.548-6.46-10.048-16.412-16.98-28.02-19.512a44.492 44.492 0 0 0-9.5-1.028c-15.044 0-28.76 7.728-36.896 19.676a99.166 99.166 0 0 0-7.14-.276c-.484 0-.936.02-1.4.036L61.233 0l-9.004.008-.02 1.176-.628 46.5c-5.532.292-10.564.872-15.04 1.716l-3.164-31.96-8.956.872.1 1.044 3.2 32.328c-9.568 3.22-15.024 8.128-15.024 14.364 0 .452.076.888.132 1.324a92.198 92.198 0 0 0-.372 4.676l-1.852 32.096c-.332 5.76-2.624 34.316-4.844 61.936C3.54 193.716 1.249 222.3.913 228.1c-.088 1.544-.244 3.132-.396 4.744-.348 3.648-.704 7.416-.404 11.044 2.504 29.904 32.524 40.364 62.496 40.364 2.852 0 5.708-.096 8.536-.276 8.312-.532 19.264-2.12 29.108-6.272.04.06.06.116.104.176 1.392 2.016 8.408 6.976 11.444 4.896 21.992 14.108 53.572 11.064 74.42-3.728.084-.06.12-.136.192-.204.072-.044.144-.056.212-.108 22.36-17.784 25.424-49.512 10.36-70.712 4.184-4.096 8.504-7.496 13.492-9.684.004 0 .008.004.008.004-1.992 6.096-.864 12.612 1.708 18.672-1.604 3.108-6.06 13.056-3.412 23.26 3.12 12.024 14.844 19.408 15.344 19.716l1.232.764.74-1.248c.288-.492 7.08-12.22 3.948-24.26Zm-7.128-39.54c-1.008.644-3.112.632-4.916.452a34.366 34.366 0 0 1 4.916-.452Zm-60.6-12.96 8.492 2.196-8.524 8.2a58.409 58.409 0 0 1-7.168-4.24l7.2-6.156Zm-8.14 5.476a74.306 74.306 0 0 1-4.92-3.848l4.716-3.788 7.008 1.816-6.804 5.82Zm17.924-2.944 9.068 2.348-10.14 8.872c-.096-.024-.192-.028-.288-.052-2.564-.664-5-1.664-7.364-2.776l8.724-8.392Zm10.4 2.692 8.468 2.192-7.752 7.308c-3.376.24-6.992.072-10.76-.708l10.044-8.792Zm9.768 2.528 8.516 2.204c-2.86 1.424-8.584 3.832-15.78 4.644l7.264-6.848Zm-20.428-17.976c13.364 3.464 24.332 14.236 28.608 18.92l-58.652-15.176c4.588-2.288 16.644-7.216 30.044-3.744Zm-23.476 11.116a80.48 80.48 0 0 1-6.232-6.112l10.468 2.708-4.236 3.404Zm-36.736-39.896c1.908 21.26 3.808 42.468 5.228 58.136-10.272 8.308-18.112 19.544-21.332 32.208a173 173 0 0 0-11.644-1.664c1.88-5.992 1.636-11.488 1.616-11.848l-.068-1.256-1.252-.084c-.564-.036-13.844-.816-21.872 7.108-1.512 1.492-2.716 3.172-3.676 4.924-.376-.012-.752-.032-1.128-.032-1.416 0-2.784.108-4.16.204l7.968-12.824c3.184-5.132 1.74-11.804-3.128-15.252l.892-59.408c.544.008 1.104.024 1.644.024 3.928 0 8.04-.208 12.152-.52 1.332 1.56 2.892 3.004 4.736 4.176 4.336 2.76 9.364 3.528 13.596 3.528 5.056 0 8.984-1.088 9.276-1.172l1.212-.344-.2-1.244c-.048-.304-.732-4.32-2.864-8.896 5.88-1.52 10.332-3.316 12.156-5.244.28 3.148.564 6.308.848 9.48Zm-39.148 86.368-2.28 2.252-2.248-6.696a23.228 23.228 0 0 1 2.856-1.396l1.672 5.84Zm-.072-6.432c.792-.26 1.576-.492 2.348-.672l1.088 3.792-1.984 1.956-1.452-5.076Zm-3.552 10.016-3.016 2.976-2.224-7.5c.236-.264.428-.556.684-.808a16.981 16.981 0 0 1 2.168-1.788l2.388 7.12Zm-4.388 4.332-2.424 2.392-1.896-5.656c.58-1.384 1.268-2.748 2.16-4.02l2.16 7.284Zm-3.772 3.72-2.84 2.804c.156-1.956.54-4.524 1.36-7.224l1.48 4.42Zm21.864-17.6c-.332 4.224-1.62 11.424-6.444 16.188-4.812 4.752-12.036 5.944-16.264 6.228l22.708-22.416Zm-6.14-1.488a36.64 36.64 0 0 1 4.144-.52l-3.344 3.3-.8-2.78Zm-23.24-9.592c-6.576-8.908-16.12-15.444-27.464-13.232l1.492-2.4a9.04 9.04 0 0 1 5.664-4.052 9.43 9.43 0 0 1 2.1-.244c1.68 0 3.32.464 4.772 1.368l16.712 10.384c4.26 2.648 5.576 8.272 2.924 12.536l-10.916 17.564a9.035 9.035 0 0 1-5.664 4.048 9.038 9.038 0 0 1-6.872-1.12l-16.712-10.384a9.04 9.04 0 0 1-4.052-5.664A9.022 9.022 0 0 1 16.289 215l8.668-13.94c.028-.004.04.02.068.012 11.28-2.696 20.744 3.856 27.176 12.568.428.58 1.412.016.98-.572Zm-22.5-54.952 2.344 1.496-4.624 2.548a30.812 30.812 0 0 1-1.18-2.14l3.46-1.904Zm-4.168.352a35.502 35.502 0 0 1-1.428-3.92l3.96 2.524-2.532 1.396Zm8.148 2.184 2.696 1.72-6.024 3.684a22.265 22.265 0 0 1-1.996-2.468l5.324-2.936Zm4.3 2.736 3.572 2.276-6.82 3.84c-.308-.172-.636-.296-.936-.488a17.022 17.022 0 0 1-2.22-1.708l6.404-3.92Zm5.2 3.316 2.868 1.828-5.092 3.112c-1.476-.256-2.96-.624-4.396-1.208l6.62-3.732Zm.492 5.272 3.972-2.428 3.364 2.14a34.785 34.785 0 0 1-7.336.288Zm11.472 1.788.408-.116L56.109 202l-4.764-2.96.364-24.428c2.528-.328 4.228-.796 4.416-.848Zm-6.52 1.056-.12 7.908-.764-7.844c.308-.016.592-.044.884-.064Zm-2.984.104 2.2 22.548-5.14-3.196-1.928-19.8c1.672.276 3.32.436 4.868.448Zm36.696-35.3 3.572 2.276-6.816 3.836c-.312-.172-.636-.296-.936-.488a17.022 17.022 0 0 1-2.22-1.708l6.4-3.916Zm-7.624 2.664a22.305 22.305 0 0 1-1.996-2.472l5.324-2.932 2.7 1.72-6.028 3.684Zm12.824.648 2.868 1.828-5.088 3.108c-1.476-.256-2.96-.624-4.396-1.208l6.616-3.728Zm4.464 2.844 3.364 2.144c-1.936.284-4.524.484-7.34.284l3.976-2.428Zm-22.02-17.388c4.2-.612 11.508-.956 17.208 2.672 5.7 3.628 8.472 10.404 9.692 14.464l-26.9-17.136Zm2.44 4.916-2.532 1.396a36.757 36.757 0 0 1-1.432-3.92l3.964 2.524Zm1.636 1.04 2.344 1.492-4.624 2.548a28.288 28.288 0 0 1-1.176-2.136l3.456-1.904Zm69.004-53.424-33.92-7.408c.26-1.216-.224-2.388-1.1-3.272a11.17 11.17 0 0 1-.032-.364c-.084.024-.168.068-.252.092-.532-.444-1.144-.82-1.892-.98a4.735 4.735 0 0 0-.992-.108c-1.864 0-3.496 1.144-3.868 2.852l-33.736-7.368c2.212-9.928 8.184-18.408 16.84-23.904 8.712-5.528 19.08-7.36 29.176-5.148 10.12 2.208 18.792 8.192 24.416 16.852 5.588 8.612 7.484 18.816 5.36 28.756Zm-38.016-50.036c2.936 0 5.912.312 8.892.964 22.48 4.908 36.848 27.268 31.948 49.688l-.612-.132c2.252-10.54.244-21.356-5.676-30.476-5.952-9.164-15.128-15.496-25.836-17.836-10.688-2.328-21.656-.396-30.876 5.452-9.172 5.82-15.496 14.816-17.844 25.336l-.796-.172c4.252-19.452 21.6-32.824 40.8-32.824Zm-45.488 20.6c.476-.016.944-.04 1.456-.04 1.668 0 3.224.068 4.772.148a43.822 43.822 0 0 0-2.46 5.416c-.416-.016-.832-.036-1.264-.036-.904 0-1.736.084-2.58.156l.076-5.644ZM60.12 74.48l.1.012.208-15.316c.848-.072 1.672-.164 2.608-.164.184 0 .352.012.532.016a44.224 44.224 0 0 0-1.112 4.072l-.604 2.768 2.772.608 33.608 7.34C91.445 77.708 79 80.64 60.029 80.648l.092-6.168Zm-.152 10.172c20.7-.004 36.236-3.604 43.676-9.652l.5.108.148-.684c.348-.312.7-.624 1.008-.948 1.144 12.388 3.06 33.716 5.108 56.588-5.836-5.148-30.06-9.316-49.688-9.316-.42 0-.86.024-1.296.04l.544-36.136Zm.744 37.568c29.792 0 49.532 7.22 49.532 10.144 0 1.384-4.476 3.724-12.288 5.808-1.792-3.452-4.424-7.048-8.264-9.496-9.516-6.064-22.336-2.516-22.876-2.36l-1.212.344.2 1.244c.068.42 1.332 7.94 5.992 14.22-3.524.224-7.18.384-11.08.384-.552 0-1.076-.02-1.624-.024l.304-20.244c.436-.008.868-.02 1.316-.02Zm-7.496-48.224c.036-.008.072-.02.104-.02l.972-71.62 4.808-.008-.972 71.508a7.089 7.089 0 0 1-.1-.012l-.1 6.78c-1.652-.02-3.26-.056-4.808-.12l.096-6.508Zm-.156 10.5c1.564.064 3.168.104 4.808.124L57 142.452a166.64 166.64 0 0 1-4.808-.164l.868-57.792Zm-.888 59.244c1.616.088 3.22.148 4.808.188l-.388 25.772c-.672-2.56-2.068-6.708-4.652-10.588l.232-15.372Zm1.332 25.556-26.9-17.136c4.2-.612 11.516-.96 17.208 2.672 5.7 3.632 8.476 10.4 9.692 14.464Zm-20.68-87.36c1.556.372 3.212.704 4.928 1l.032.336c-.036 0-.068 0-.104-.004l5.692 58.376c-1.684-.168-3.312-.36-4.884-.568l-5.576-57.208c.036-.004.068-.02.1-.024l-.188-1.908Zm12.68 59.916-5.676-58.216h.104l-.032-.34c3.408.516 7.112.876 11.064 1.096l-.868 57.8a169.02 169.02 0 0 1-4.592-.34Zm4.572 1.748-.192 12.792a22.04 22.04 0 0 0-3.26-3.032l-.984-10.108c1.48.136 2.956.252 4.436.348Zm-5.704 8.296a21.855 21.855 0 0 0-5.028-2.036l-.72-7.376c1.612.212 3.244.404 4.888.572l.86 8.84Zm-4.88-72.684-1.828-18.456c3.444-.52 9.48-.928 13.756-1.22l-.196 14.248c-.032 0-.068 0-.1.008l-.1 6.608c-4.26-.236-8.104-.64-11.532-1.188Zm12.036-27.528-.08 5.804c-4.08.292-10.296.704-13.984 1.244l-.532-5.364c4.184-.804 9.028-1.392 14.596-1.684ZM26.705 20.196l4.784-.468 5.86 59.116a70.252 70.252 0 0 1-4.94-1.096l-5.704-57.552Zm3.54 56.948c-5.628-1.72-9.404-3.94-11.512-6.348.392-2.876 3.672-5.712 10.1-7.884l1.412 14.232ZM28.12 55.708l.508 5.12c-6.004 1.944-9.924 4.568-11.364 7.752a6.828 6.828 0 0 1-.412-1.184c.04-.34.064-.704.116-1.032l-.24-.04c-.004-.092-.032-.184-.032-.276 0-3.784 3.716-7.568 11.424-10.34ZM14.597 104.38l1.744-30.252c3.032 3.024 7.9 5.464 14.32 7.236l.248 2.504c-.032.008-.068.012-.1.02l3.796 38.944c-9.456 1.472-17.644 3.604-21.856 6.036.96-12.132 1.672-21.448 1.848-24.488ZM12.6 130.768c2.976-2.04 10.792-4.728 22.14-6.548l1.616 16.568c-12.528-1.852-21.056-4.816-23.996-6.968.08-1.032.16-2.056.24-3.052Zm-8.1 102.46c.16-1.66.316-3.296.408-4.888.332-5.76 2.624-34.316 4.844-61.936.852-10.604 1.712-21.332 2.472-30.876 4.268 2.736 13.58 5.12 24.268 6.656l.704 7.204c-7.412-1.32-14.34.58-14.732.696l-1.212.344.2 1.244c.088.56 2.292 13.68 11.8 19.74 2.016 1.284 4.18 2.104 6.348 2.648l1.836 18.828-.492-.304c-5.32-3.304-12.352-1.668-15.664 3.66l-10.912 17.564c-1.596 2.572-2.092 5.616-1.404 8.584a11.285 11.285 0 0 0 5.064 7.08l8.232 5.116c-10.176 1.996-18.092 4.664-22.22 7.408-.08-2.84.184-5.84.46-8.768Zm-.276 11.26c2.984-2.432 12.02-5.744 24.972-8.092l5.544 3.444a11.271 11.271 0 0 0 5.956 1.708c.872 0 1.752-.1 2.624-.304a11.335 11.335 0 0 0 7.08-5.064l1.48-2.384c1.824-.164 3.684-.292 5.624-.292h.056c-2.98 6.956-2.664 14.2-2.644 14.612l.068 1.256 1.252.084c.1.008.608.036 1.416.036 3.724 0 13.864-.636 20.452-7.144 2.3-2.272 3.876-4.984 4.972-7.712 4.292.46 8.236 1.06 11.948 1.724-1.132 5.484-1.468 11.18-.704 17.008.108.824.328 1.616.508 2.42-9.18 1.628-20.18 2.792-32.472 2.792-29.208 0-51.648-6.404-57.604-10.608a38.95 38.95 0 0 1-.528-3.484Zm66.668 35.496c-9.848.644-56.424 1.908-65.42-29.024 9.308 5.184 31.708 9.888 56.884 9.888 12.044 0 23.364-1.108 33.012-2.8 1.104 3.768 2.632 7.392 3.24 11.18.28 1.736.18 3.212.324 4.668-9.396 4.032-20.028 5.576-28.04 6.088Zm129.664-56.852c.108.392.252.768.344 1.168 4.604 19.448-1.188 38.784-16.86 51.4-20.296 14.3-50.948 17.14-71.86 2.588-1.008-.692-2.716-.012-2.94 1.2-4.008-.86-5.892-3.204-5.648-7.028-.752-1.42-1.016-2.86-.792-4.316-.1-.392-.116-.856-.236-1.276-1.684-5.852-4.164-10.54-4.572-16.828-.7-10.76 2.68-21.412 8.432-30.424 10.116-15.844 27.852-27.652 46.672-28.608 4.848 3.404 10.604 6.54 16.94 8.18 3.02.784 5.932 1.104 8.744 1.212-.116.332-.244.66-.284 1.06-.348 3.396 2.132 8.864 6.324 13.928 4.564 5.508 9.768 8.924 13.152 8.924.868 0 1.612-.224 2.204-.696.16-.128.252-.324.38-.484Zm-.444-1.488c-.14.452-.336.844-.648 1.096-2.048 1.652-8.084-1.204-13.768-8.076-3.944-4.764-6.388-10.028-6.072-13.084.036-.436.148-.8.304-1.112.168 0 .352.032.52.032 1.308 0 2.556-.1 3.792-.208a45.889 45.889 0 0 1 7.804 7.1c-.692.72-1.392 1.416-2.08 2.168-1.724 1.88 1.076 4.692 2.808 2.808.584-.636 1.172-1.228 1.756-1.844a39.335 39.335 0 0 1 5.584 11.12Zm-5.576-16.748a48.121 48.121 0 0 0-5.2-5.3c6.468-1.28 11.312-3.564 13.556-4.768.988.444 1.984.916 3 1.404-4.064 2.244-7.776 5.212-11.356 8.664Zm32.768 31.06c.376 1.444.54 2.88.628 4.304l-8.148-3.336-1.392-5.364 8.768 3.976c.04.144.104.276.144.42Zm-.648-1.892-8.632-3.912-1.296-4.992 6.78 2.836a26.319 26.319 0 0 1 3.148 6.068Zm-4.468-7.852-5.812-2.432-1.14-4.388a41.164 41.164 0 0 1 6.952 6.82Zm-10.66 13.356c-2.096-8.088.884-16.236 2.592-19.972l9.484 36.54c-3.36-2.576-9.976-8.492-12.076-16.568Zm13.188 16.364-1.488-5.732 3.104 1.536a38.818 38.818 0 0 1-1.616 4.196Zm1.96-5.292-3.824-1.892-1.044-4.024 5.644 2.624a35.257 35.257 0 0 1-.776 3.292Zm.98-4.452-6.216-2.888-1.3-5.008 7.844 3.212a29.26 29.26 0 0 1-.328 4.684Z"/></svg>