<svg
  xmlns="http://www.w3.org/2000/svg"
  width="2498"
  height="912"
  viewBox="0 0 2498 912"
  fill="none"
>
  <path
    d="M236.449 2.81908C217.011 4.76287 198.684 7.81739 195.629 9.48351C192.575 10.8719 187.576 12.2604 184.244 12.2604C173.97 12.2604 138.981 28.3661 114.545 44.4719C90.6642 60.2999 52.3437 100.564 36.5156 126.667C22.076 150.27 7.35866 190.534 2.91569 217.47C-0.971898 241.628 -0.971898 311.605 2.91569 333.542C9.02477 367.697 28.4627 413.793 47.623 439.896C67.6163 467.386 101.494 494.322 131.484 506.54C139.815 509.872 149.256 513.76 152.31 515.148C182.856 527.922 266.994 533.198 305.87 524.59C357.242 513.205 393.619 494.877 425.83 464.61C434.161 456.834 459.986 423.79 462.762 417.681C463.873 415.459 467.205 409.628 469.982 405.185C473.037 400.464 475.536 395.466 475.536 393.8C475.814 391.023 451.377 376.028 446.657 376.028C446.101 376.028 442.214 381.026 438.326 386.858C424.442 409.073 381.123 445.727 353.632 458.778C314.756 477.105 271.993 473.773 220.621 448.782C204.793 441.006 180.912 414.904 171.471 395.466C158.419 367.975 154.254 350.759 148.978 300.775C144.257 255.235 144.257 253.846 150.089 213.304C155.92 173.04 160.086 152.769 164.806 141.384C166.195 138.329 170.082 128.888 173.414 120.558C176.747 112.227 181.19 103.341 183.411 100.842C185.355 98.6204 187.021 95.2882 187.021 93.6221C187.021 87.7907 219.232 57.8007 231.728 51.6916C251.444 42.2503 278.379 38.3628 298.928 42.2504C336.416 49.1925 350.578 61.966 380.012 116.115C392.23 138.329 396.673 144.161 418.055 165.543C434.994 182.759 461.096 196.921 470.26 194.144C477.202 191.923 479.701 183.314 475.258 175.539C457.209 143.05 448.6 85.847 458.042 63.9098C462.485 53.6355 474.703 35.8636 483.311 26.7C485.255 24.7562 486.921 19.4802 486.921 15.0372C486.921 -1.90159 471.648 2.26367 443.88 27.2553C437.771 32.809 430.829 37.8074 428.052 38.6405C425.553 39.4735 415.556 35.8636 405.837 30.8653C376.125 14.7595 343.358 5.04054 309.202 2.54138C296.151 1.43063 282.545 0.319911 278.657 0.0422255C274.77 -0.23546 255.887 0.875281 236.449 2.81908V2.81908ZM654.921 144.161C642.702 146.105 627.152 149.437 620.21 151.936C553.565 174.429 506.359 235.242 506.359 298.276C506.359 315.493 512.468 343.261 519.133 355.757C521.076 360.2 523.02 365.198 523.02 366.864C523.02 368.808 524.131 370.474 525.242 370.474C526.63 370.474 529.129 373.529 530.795 377.416C539.404 396.299 576.058 426.567 604.937 439.063C633.539 451.281 647.423 453.78 684.078 453.78C711.846 453.78 723.231 452.669 737.115 448.226C761.829 440.451 783.767 430.454 794.874 422.124C807.925 412.127 834.305 383.803 840.692 372.696C856.52 345.205 859.852 332.709 860.13 297.721C860.408 275.228 859.297 264.121 857.075 261.622C855.132 259.956 853.466 256.346 853.466 254.124C853.466 239.407 825.419 200.253 799.872 179.427C779.324 162.766 748.501 149.715 718.788 145.272C687.132 140.829 678.246 140.551 654.921 144.161ZM716.844 186.647C744.058 208.306 753.499 237.463 753.499 300.22C753.499 345.483 749.889 367.697 738.782 389.079C731.284 403.241 712.124 419.902 697.684 424.623C684.911 428.788 682.967 428.788 669.638 424.345C652.421 418.792 634.372 401.853 625.486 382.692C620.21 370.752 619.099 362.977 617.711 320.491C615.489 262.177 617.988 236.63 627.43 216.637C641.036 188.035 659.641 175.262 687.132 176.65C702.682 177.483 706.848 178.871 716.844 186.647V186.647ZM1347.75 144.439C1334.69 146.382 1317.48 150.548 1309.15 153.602C1251.11 175.539 1209.46 223.579 1202.52 276.617C1191.96 355.202 1238.34 421.846 1321.09 447.671C1348.02 456.279 1405.5 456.279 1431.33 448.226C1489.64 429.621 1530.18 393.522 1547.68 343.816C1551.84 331.321 1553.23 320.769 1553.23 296.888C1553.23 268.286 1552.68 264.954 1543.79 244.961C1535.46 225.8 1523.52 207.751 1511.58 195.533C1494.09 178.038 1455.49 153.88 1444.93 153.88C1442.44 153.88 1439.38 152.769 1437.72 151.103C1435.49 148.881 1377.74 139.163 1373.01 140.273C1372.18 140.551 1360.8 142.217 1347.75 144.439V144.439ZM1404.39 181.926C1424.11 198.309 1433.27 211.638 1440.21 233.575C1444.1 244.961 1444.93 259.122 1444.93 301.886C1444.93 361.866 1442.99 372.418 1426.61 396.854C1415.78 412.96 1409.95 417.403 1391.06 424.345C1378.01 429.344 1377.18 429.344 1362.46 424.345C1343.58 417.958 1330.53 405.185 1319.14 381.582L1310.26 363.532L1310.54 301.053C1310.54 231.354 1312.2 223.856 1331.36 199.698C1345.52 181.648 1358.85 175.539 1381.35 176.928C1391.62 177.483 1401.89 179.705 1404.39 181.926ZM1108.66 145.272C1095.88 147.771 1063.95 165.82 1050.9 177.483C1045.35 182.481 1038.4 187.202 1035.35 187.757C1030.91 188.313 1029.8 186.924 1028.96 178.871C1028.68 173.595 1027.57 163.876 1026.74 157.212C1025.35 145.549 1025.35 145.549 1013.69 145.827C1007.3 145.827 995.918 147.215 988.143 148.604C980.645 150.27 954.821 152.491 931.217 153.324L888.176 155.268V185.814L904.837 186.647C936.493 188.313 936.771 189.424 936.771 307.717C936.493 377.694 935.66 403.519 933.161 406.851C927.608 414.071 916.778 418.792 902.06 420.458L888.176 421.846V444.061L986.199 444.616C1039.79 444.894 1083.94 444.339 1084.22 443.228C1087 421.013 1086.44 420.458 1066.17 420.458C1051.18 420.458 1047.85 419.625 1042.01 413.238L1035.35 406.018L1034.52 321.879L1033.68 237.741L1042.85 227.466C1056.73 211.361 1072 203.03 1087.28 202.752C1098.38 202.475 1101.44 203.585 1105.33 209.417C1108.1 213.304 1110.88 219.969 1111.71 224.69L1113.1 233.02L1143.92 233.853C1180.58 234.686 1178.36 237.741 1178.36 190.812C1178.36 158.323 1177.25 155.268 1164.47 148.326C1157.53 144.439 1121.15 142.495 1108.66 145.272V145.272ZM1699.02 148.881C1692.91 150.27 1671.8 152.769 1651.81 154.158C1632.09 155.546 1609.6 157.767 1601.83 158.878L1587.94 160.822L1587.11 173.595L1586.28 186.647L1599.61 188.59C1619.32 191.367 1627.65 196.643 1630.98 208.861C1633.21 215.526 1633.76 250.514 1633.21 312.716L1632.37 406.018L1625.99 412.96C1621.27 417.958 1614.88 420.458 1603.77 422.124L1587.94 424.623L1587.11 437.674L1586.28 451.003H1598.22C1604.88 451.003 1625.71 449.615 1644.59 448.226C1664.03 446.838 1689.3 446.838 1702.9 448.226C1715.96 449.615 1736.23 451.003 1747.61 451.558L1768.44 452.391L1769.27 441.839C1770.1 432.12 1769.55 431.287 1757.89 426.289C1751.22 423.512 1742.89 417.681 1739.84 413.516C1733.73 406.018 1733.73 403.796 1733.73 314.66V223.579L1741.5 219.414C1760.66 209.417 1780.38 203.863 1795.65 203.863C1813.7 203.863 1823.42 208.306 1832.31 219.969C1837.58 227.189 1837.86 231.632 1837.58 316.603C1837.58 399.909 1837.03 406.018 1832.03 412.96C1828.7 417.681 1822.86 420.735 1815.64 421.846C1800.65 424.623 1797.6 427.677 1797.6 440.173V451.003L1817.87 450.725C1828.7 450.725 1847.3 449.615 1858.69 448.504C1870.9 447.393 1897.56 447.671 1922.55 449.615C1946.16 451.281 1967.26 452.391 1969.2 451.558C1971.43 450.725 1972.54 446.838 1971.98 440.729C1971.15 432.12 1969.76 430.454 1960.6 427.4C1954.49 425.456 1946.71 421.013 1943.38 417.681L1936.72 411.294L1935.88 312.438L1935.05 213.582L1925.61 196.921C1915.06 177.761 1894.78 157.49 1883.96 154.991C1880.07 153.88 1875.35 151.936 1873.68 150.548C1868.4 146.382 1835.92 144.716 1823.42 148.048C1816.76 149.715 1806.76 152.214 1800.93 153.88C1789.26 156.657 1766.22 168.042 1748.17 179.705C1741.5 184.148 1734.84 187.202 1733.17 186.647C1731.23 185.814 1728.45 177.483 1726.51 167.764C1721.79 144.994 1720.12 143.883 1699.02 148.881V148.881ZM2143.31 148.326C2117.77 153.324 2103.05 156.657 2098.33 158.878C2060.56 176.928 2049.46 183.592 2046.96 189.701C2045.57 193.311 2045.01 208.861 2045.29 224.412L2046.12 252.458L2075.28 253.291C2116.66 254.402 2115.82 254.68 2117.77 233.02C2119.15 219.136 2121.65 211.916 2128.32 201.364C2138.31 186.091 2148.31 181.648 2171.64 181.648C2189.13 181.648 2200.24 185.536 2206.63 194.144C2213.29 203.585 2220.23 231.909 2219.12 247.46L2218.29 260.789L2204.4 264.399C2196.91 266.065 2182.47 269.119 2172.47 270.785C2162.47 272.174 2153.31 274.673 2151.92 276.339C2150.26 277.727 2146.65 278.838 2143.59 278.838C2140.26 278.838 2134.15 280.782 2129.71 283.003C2125.54 285.225 2120.54 287.169 2119.15 287.169C2109.44 287.169 2063.62 311.327 2051.12 323.268C2023.91 348.259 2011.97 390.19 2025.02 415.182C2036.96 437.952 2053.07 449.059 2083.61 455.446C2106.38 460.444 2121.93 460.444 2144.7 455.446C2167.19 451.003 2178.02 445.449 2196.35 429.899C2204.13 423.234 2212.46 417.681 2214.96 417.681C2217.18 417.681 2224.4 423.79 2230.78 431.565C2244.67 448.226 2266.33 459.334 2284.93 459.334C2291.87 459.334 2299.65 458.223 2302.43 456.834C2304.93 455.446 2317.98 449.337 2331.03 442.95C2359.91 429.344 2362.96 426.289 2359.35 414.071L2356.85 405.185L2338.53 406.018L2320.2 406.851L2316.59 397.687C2314.09 391.023 2312.7 366.031 2312.15 307.162C2311.31 233.02 2310.76 224.69 2305.76 213.86C2297.98 196.643 2275.21 172.762 2258 163.876C2230.51 149.437 2176.08 142.217 2143.31 148.326V148.326ZM2214.12 298.276C2217.46 300.22 2218.57 309.106 2219.12 341.04C2219.95 379.638 2219.95 381.304 2213.85 386.858C2200.52 399.076 2183.3 405.185 2161.36 405.185C2138.04 405.185 2133.32 402.408 2124.71 383.526C2118.32 370.474 2118.32 362.421 2124.43 349.092C2134.15 328.266 2156.36 312.16 2190.52 300.775C2207.46 294.944 2208.85 294.944 2214.12 298.276V298.276ZM2412.39 465.72C2409.89 472.385 2412.67 534.309 2415.44 534.309C2417.11 534.309 2418.78 528.477 2419.61 521.535C2422.11 497.932 2433.22 497.654 2448.77 521.257C2453.21 528.199 2459.6 534.864 2462.65 535.975C2465.71 537.085 2469.04 539.307 2470.15 540.973C2471.54 542.917 2474.31 541.806 2478.2 537.363C2484.31 530.976 2484.31 530.976 2478.48 532.642C2474.31 534.031 2471.81 532.92 2469.32 528.477C2467.65 524.867 2463.21 519.036 2459.6 515.148C2455.99 511.261 2452.93 507.373 2452.93 506.262C2452.93 505.429 2456.82 501.264 2461.26 497.376C2471.54 488.213 2472.09 478.216 2462.65 469.053C2456.82 462.943 2453.49 462.11 2434.88 462.11C2420.17 462.11 2413.5 463.221 2412.39 465.72V465.72ZM2451.27 474.884C2456.54 479.882 2456.82 482.659 2452.93 490.157C2450.71 494.044 2447.1 495.433 2438.21 495.433C2425.44 495.433 2419.61 491.823 2419.61 484.048C2419.61 476.272 2427.39 470.441 2437.66 470.441C2442.66 470.441 2449.04 472.385 2451.27 474.884ZM2489.03 484.048C2489.03 489.601 2492.64 495.433 2494.86 493.767C2499.03 491.267 2497.64 481.548 2493.2 481.548C2490.98 481.548 2489.03 482.659 2489.03 484.048ZM2381.57 499.598C2381.57 505.707 2382.12 507.929 2382.68 504.319C2383.23 500.986 2383.23 495.988 2382.68 493.211C2381.84 490.712 2381.29 493.489 2381.57 499.598ZM2490.7 510.983C2488.2 517.092 2488.48 517.647 2493.2 517.647C2495.42 517.647 2497.36 515.981 2497.36 513.76C2497.36 507.651 2492.64 505.985 2490.7 510.983ZM543.291 605.396C542.736 607.34 542.458 611.783 543.013 615.393C543.846 621.779 549.123 624.556 567.727 627.333C575.225 628.444 578.279 630.388 579.668 635.108C580.501 638.44 581.334 690.923 581.334 751.458V861.699L574.67 869.197C569.949 875.028 564.951 877.25 554.676 878.36C541.347 880.027 541.07 880.304 540.237 890.301L539.404 900.853H820.143L822.92 894.466C824.309 891.134 826.808 881.415 828.196 873.084C829.585 864.754 832.361 852.258 834.028 845.594C838.193 829.21 835.971 823.934 823.476 821.713C812.09 819.491 810.702 820.88 797.373 843.372C785.155 864.199 772.659 870.03 734.616 873.362C716.844 875.028 693.241 875.861 682.689 875.306L663.251 874.473L662.418 818.103L661.863 762.01H694.907C726.286 762.01 728.507 762.288 736.282 768.953C741.003 773.118 745.168 779.782 746.279 785.336C747.667 792.556 749.611 795.055 755.443 796.166C769.882 798.943 770.16 798.387 770.16 746.738C770.16 695.088 769.882 694.533 755.72 697.31C750.167 698.421 748.223 700.642 746.834 708.695C743.78 726.467 735.449 730.077 696.573 730.077H663.251V630.11L701.016 629.277C733.228 628.722 740.725 629.277 751.277 633.998C766.272 640.384 777.657 651.769 779.879 662.599C781.545 670.097 782.656 670.652 801.538 674.54C804.038 675.095 807.647 673.151 809.036 670.374C812.09 664.543 812.646 609.284 809.591 605.118C806.537 600.675 544.957 600.953 543.291 605.396V605.396ZM1235.56 646.493C1233.62 651.492 1230.84 659.822 1229.73 664.821C1226.67 679.26 1210.01 693.7 1191.41 697.865C1174.75 701.475 1170.3 705.64 1171.14 717.581C1171.42 723.968 1172.8 724.523 1186.69 725.911L1201.96 727.3L1203.35 805.052C1204.74 876.139 1205.29 883.359 1210.01 890.856C1223.06 909.739 1263.05 915.293 1291.65 901.686C1312.48 891.967 1333.86 878.083 1333.86 874.195C1333.86 872.529 1331.36 868.919 1328.31 866.142C1323.03 861.422 1322.48 861.422 1309.15 867.253C1301.65 870.308 1291.65 873.084 1286.93 873.084C1279.43 873.084 1278.32 871.974 1275.27 861.144C1270.83 845.038 1273.88 731.465 1278.88 728.133C1280.82 727.022 1291.38 725.911 1302.2 725.911C1321.64 725.911 1322.2 725.634 1323.59 718.414C1326.09 705.363 1323.86 703.697 1301.65 703.697C1276.38 703.697 1275.55 702.586 1275.55 665.098V637.052H1257.5C1239.73 637.052 1239.45 637.052 1235.56 646.493ZM1532.68 704.807C1522.13 710.361 1510.75 717.858 1507.14 721.746C1503.53 725.634 1499.64 728.688 1498.25 728.688C1494.64 728.688 1492.14 721.746 1492.14 712.582C1492.14 699.531 1488.81 697.032 1473.81 699.531C1466.32 700.642 1445.77 702.308 1428.27 703.141L1396.34 705.085V714.804C1396.34 723.134 1397.45 724.523 1403.28 725.356C1418 727.022 1421.89 728.688 1424.94 735.63C1427.16 740.629 1428.27 764.51 1428.27 810.05C1428.27 876.694 1428.27 877.25 1422.16 881.415C1418.55 883.637 1411.34 886.136 1406.06 886.969C1398.01 888.079 1396.06 889.468 1395.51 896.132L1394.67 903.63L1462.15 903.074L1529.63 902.241L1530.46 895.855C1531.02 892.245 1529.91 889.746 1527.69 889.468C1495.2 888.079 1494.92 887.802 1494.92 818.38V762.288L1504.36 753.124C1519.08 738.407 1521.85 737.019 1533.52 737.019C1543.79 737.019 1545.18 737.852 1550.46 748.126L1556.29 759.511L1574.89 758.678L1593.5 757.845L1594.33 732.576C1595.16 701.753 1592.39 697.588 1567.67 695.921C1553.79 695.088 1549.34 696.199 1532.68 704.807V704.807ZM1699.02 697.31C1695.96 698.143 1692.35 699.809 1690.69 700.92C1689.3 702.03 1684.3 703.697 1680.13 704.807C1672.08 706.751 1652.09 718.136 1649.59 722.301C1648.76 723.412 1647.92 734.52 1647.37 746.46L1646.26 768.675H1693.46L1694.3 758.401C1695.41 744.516 1705.68 725.634 1714.29 720.913C1724.29 715.637 1749.28 718.136 1756.22 724.801C1763.72 732.298 1769.27 762.288 1764.83 771.729C1762.33 777.283 1759.55 778.672 1751.22 778.672C1745.39 778.949 1735.67 780.615 1729.56 782.837C1723.45 785.058 1716.79 787.002 1714.84 787.002C1704.02 787.002 1657.64 811.161 1648.2 821.435C1625.99 845.871 1623.49 876.972 1642.37 895.855C1654.31 907.795 1667.64 911.96 1693.46 911.96C1720.95 911.96 1730.95 908.35 1752.61 891.967L1764.83 882.803L1773.44 892.522C1786.77 907.795 1794.54 911.96 1810.65 911.96C1824.81 911.96 1839.25 906.684 1856.19 895.022C1861.74 891.134 1863.13 888.079 1862.02 882.803C1860.63 874.195 1856.46 871.418 1852.3 875.584C1847.58 880.304 1837.3 879.194 1834.81 873.64C1833.69 871.141 1832.03 841.428 1831.2 807.828C1829.53 748.959 1829.25 746.46 1822.59 735.63C1813.42 720.635 1801.48 709.806 1786.49 702.864C1776.21 698.143 1767.61 697.032 1739.28 696.477C1720.12 695.921 1702.07 696.477 1699.02 697.31V697.31ZM1765.38 805.329C1768.44 813.382 1767.05 857.534 1763.44 862.255C1758.16 869.475 1736.5 878.638 1725.67 878.638C1713.18 878.361 1704.57 871.418 1700.96 858.09C1695.41 838.096 1706.79 819.769 1732.34 807.551C1748.72 800.053 1762.88 798.943 1765.38 805.329V805.329ZM896.229 702.03C893.452 709.528 896.507 718.969 902.06 720.08C905.115 720.635 910.946 723.412 915.389 726.467C922.609 731.743 954.265 772.562 967.039 793.111C970.371 798.943 974.536 803.663 975.925 803.663C981.478 803.663 977.868 813.382 968.427 824.212C937.326 859.2 916.5 878.361 906.781 880.582C897.34 882.804 896.507 883.914 896.507 892.522V902.241L928.441 903.074C945.935 903.352 963.151 903.074 966.761 902.241C974.814 900.298 974.536 892.245 965.928 884.192C962.04 880.582 958.986 876.417 958.986 875.028C958.986 869.197 988.421 837.263 993.697 837.263C997.862 836.985 1002.86 842.261 1011.19 854.757C1017.58 864.476 1022.85 873.918 1022.85 875.584C1022.85 877.25 1019.8 881.415 1015.91 884.747C1008.14 891.689 1006.75 899.465 1013.41 901.964C1021.19 905.018 1125.04 903.908 1126.99 900.853C1130.6 895.022 1125.32 881.693 1119.21 880.86C1115.32 880.304 1105.33 869.475 1090.05 849.481C1077.56 832.542 1064.51 815.326 1060.9 810.883C1044.51 789.779 1041.74 784.503 1044.24 780.338C1049.51 770.619 1087.83 730.91 1095.88 726.744C1100.88 724.245 1109.21 721.468 1114.49 720.635C1123.38 718.969 1124.21 718.136 1124.21 709.25V699.531H1040.9L1040.07 708.417C1039.51 715.082 1040.35 717.581 1043.4 717.581C1049.79 717.581 1056.18 725.356 1054.23 730.91C1051.18 738.129 1029.52 759.234 1024.8 759.234C1022.3 759.234 1019.8 757.012 1018.97 754.235C1018.13 751.736 1014.25 746.182 1010.08 741.739C1001.19 732.02 1001.75 719.525 1011.19 718.136C1016.19 717.303 1017.3 715.359 1017.3 707.584V698.143H957.597C908.17 698.143 897.34 698.976 896.229 702.03V702.03Z"
    fill="#41403C"
  />
</svg>
