<svg xmlns="http://www.w3.org/2000/svg" width="492" height="600" fill="none" viewBox="0 0 492 600"><g fill="#fff" clip-path="url(#a)"><path d="M346.787 3.317c-3.12-2.732-7.606-4.293-11.702-2.732-28.477 11.317-41.544 39.805-49.931 66.732-4.486 14.244-7.217 28.683-9.167 43.512-2.146 16.391-2.731 32.781.195 48.976 1.17 6.634 9.362 10.146 15.603 8.585 7.022-1.951 9.947-8.39 8.777-15.024 0-.39-.39-2.146-.39-2.732-.195-1.366-.195-2.732-.39-4.097-.195-3.513-.39-7.025-.39-10.537h40.959c1.17 0 2.146-.39 2.926-.976v29.074c0 5.853 9.362 5.853 9.362 0V7.61c.39-3.512-3.121-5.073-5.852-4.293Zm-6.046 123.707h-40.764c.195-4.683.78-9.365 1.17-13.853 0-.391.39-2.927.39-3.317.195-1.561.39-3.122.781-4.878.585-3.513 1.365-7.22 1.95-10.732a155.126 155.126 0 0 1 4.681-18.146c1.56-5.464 3.511-10.927 5.461-16.196.585-1.56 1.17-2.926 1.756-4.292 0 0 0-.195.195-.195.39-.78.585-1.366.975-1.952 1.365-2.926 2.73-5.658 4.291-8.39 1.56-2.731 3.316-5.268 5.071-7.805.39-.585.78-.975 1.17-1.56 0-.196.195-.196.39-.39.976-1.172 1.951-2.342 3.121-3.318.975-.976 2.146-2.146 3.316-3.122.39-.39.975-.78 1.365-1.17 0 0 .195-.196.39-.196 1.17-.78 2.536-1.56 3.706-2.341.78-.39 5.266-2.342 1.95-.976.586-.195 1.171-.585 1.756-.78V128c-.975-.585-1.951-.976-3.121-.976ZM182.951 4.098h-44.86c-6.046 0-6.046 9.365 0 9.365h44.86c6.046.196 6.046-9.365 0-9.365Zm0 113.756h-44.86c-6.046 0-6.046 9.366 0 9.366h44.86c6.046 0 6.046-9.366 0-9.366Zm0 39.609h-44.86c-6.046 0-6.046 9.366 0 9.366h44.86c6.046 0 6.046-9.366 0-9.366Z"/><path d="M141.602 3.707c-6.827 0-12.678 5.464-12.678 11.903v140.878c0 6.439 5.851 11.902 12.678 11.902 6.826 0 12.677-5.463 12.677-11.902V15.61c0-6.44-5.851-11.903-12.677-11.903Zm118.391 152.586h-44.86c-6.046 0-6.046 9.366 0 9.366h44.86c6.046 0 6.046-9.366 0-9.366Z"/><path d="M220.594 2.537c-6.826 0-12.678 5.463-12.678 11.707V153.17c0 6.439 5.852 11.707 12.678 11.707 6.827 0 12.678-5.463 12.678-11.707V14.244c0-6.44-5.851-11.707-12.678-11.707ZM76.652 1.756C74.702.586 72.556 0 70.216 0c-6.827 0-12.678 5.463-12.678 12.293v143.805c0 6.634 5.851 12.292 12.678 12.292 6.826 0 12.678-5.463 12.678-12.292v-30.439c5.46 1.561 9.362 7.219 12.092 12.292 4.096 7.61 6.827 16.976 6.437 25.756-.39 5.659 8.387 5.659 8.582 0 .78-13.268-6.242-35.902-19.31-44.097 6.827-6.634 11.508-15.805 14.824-24.976a140.007 140.007 0 0 0 5.851-21.463c1.17-5.659 2.34-11.513 2.34-17.561.195-21.073-11.507-55.22-37.058-53.854Zm21.65 86.83c-2.926 9.17-7.607 20.097-15.604 26.341V11.317c15.604 4.293 22.235 29.268 22.43 43.512.196 11.317-3.315 23.22-6.826 33.756ZM387.161 3.512c-6.826 1.366-11.312 7.805-10.142 14.44l26.721 141.072c1.17 6.635 7.997 10.927 14.628 9.561 6.827-1.365 11.313-7.805 10.143-14.439L401.79 13.073c-1.171-6.634-7.802-10.927-14.629-9.56Z"/><path d="m426.56 8.195-56.172 150.439c-2.146 5.659 6.631 8.976 8.777 3.317l56.172-150.439c2.146-5.658-6.631-8.975-8.777-3.317ZM94.401 244.683s5.266 6.049 9.362 0-.78-12.683-11.312-15.024c-10.533-2.342-37.449 7.024-32.378 34.341 6.242 33.561 111.37-4.293 111.37-4.293s-11.312 16.781-3.51 21.659c0 0 .975 5.463 31.792-14.244 0 0 43.299-26.927 47.2-42.732 3.901-15.805-15.018-13.073-28.671 9.366-13.653 22.439-26.331 44.098-17.554 49.171 8.777 5.073 34.327-22.049 34.523-26.342.195-4.292-3.901-6.634-7.607-1.756-3.706 4.878-22.04 26.537-23.015 19.317-.78-4.878 28.281-56 35.498-51.707 7.606 4.488-50.907 50.341-67.876 51.512 0 0-3.12-3.707 13.849-20.488 0 0-1.366-5.463-4.486-4.292-12.483 4.488-24.966 8.585-37.644 12.488-18.334 5.463-41.934 10.536-60.268 10.926-8.777.195-16.97-3.122-18.334-13.268-1.17-10.341 7.801-18.537 16.773-21.658 3.121-1.171 11.118-2.732 14.239-.196 3.12 2.927-2.536 6.635-1.95 7.22Zm162.081 2.146c-.585-.585-6.826-4.878.195-10.927 4.096-3.512 8.387.781 8.192 4.098-.195 3.122-5.656 14.244-11.117 17.366-5.266 3.122-6.047 0-4.486-2.732 1.365-2.732 7.216-7.805 7.216-7.805Z"/><path d="M195.434 228.878c-5.267 2.342-8.777 9.561-7.607 12.488 1.365 3.122 2.926 4.293 4.876 3.122 1.95-1.171 1.17-9.366 5.266-9.756 4.876-.391-.585-6.634-2.535-5.854Z"/><path d="M172.223 210.732c-3.705.585-.195 7.609 2.341 7.414 2.536-.195 14.823-3.512 15.408-10.341 2.146-25.366-53.246-9.171-50.516 16 0 0 .78 19.707 45.055 15.219 44.275-4.487 84.454-13.463 95.181-15.804 10.728-2.342 62.024-16.586 62.024-2.147 0 0-1.95 11.317-14.238 5.073-2.535-1.366-4.486 6.83-1.95 8.195 2.535 1.561 14.823 6.049 20.479-5.853 0 0 6.827-13.464-6.241-19.122-12.873-5.659-56.758 6.049-67.095 8.195-10.337 2.341-55.392 10.341-60.269 10.927-4.876.585-61.828 11.317-66.509-3.708-5.462-17.365 34.912-29.073 37.253-21.463-.195.39 1.95 5.268-10.923 7.415Z"/><path d="M311.68 248.195c-2.926 2.927 2.535 6.244 5.071 5.268 2.34-.975 7.606-7.609 2.535-13.658-5.266-6.049-15.018-1.756-17.944 4.488-2.34 4.878-1.56 12.878-1.95 18.146-.975 20.878-7.802 14.634-7.997 13.659-.195-.976-2.73-2.342 15.018-9.366 17.749-7.22 55.588-27.708 91.671-32 21.845-2.537 38.619 3.317 32.377 16.78-6.631 14.439-17.944 7.415-20.674 7.22-2.536-.195-3.121 7.414-.976 8.78 0 0 10.728 4.098 22.82-5.658 12.288-9.756 7.217-27.708-7.216-32.586s-52.467.781-72.946 11.512c-13.068 6.83-27.502 11.122-41.35 16.391-7.021 2.536-16.578 7.414-21.65 9.561-8.972 3.512-5.071 16.975 5.657 17.17 17.944.391 7.996-40.975 16.968-40.585 6.437 0 1.756 3.512.586 4.878ZM96.352 340.293c-5.072 3.122-76.458 96.78-44.666 190.048 0 0 18.53 7.805 18.335 3.318-.195-4.488-13.458-40 8.386-96 19.115-49.366 37.839-71.025 38.619-76.879.78-5.658-11.898-25.951-20.674-20.487Z"/><path d="M67.68 536.195c-4.876 0-13.458-3.512-16.579-4.878l-.585-.195-.195-.585c-31.792-93.464 39.594-187.903 45.25-191.415 2.731-1.756 6.242-1.366 9.753.976 7.021 4.682 13.458 16.195 12.677 20.878-.39 2.146-2.535 5.658-6.241 11.707-7.412 12.097-19.7 32.39-32.572 65.366-18.724 48.195-11.313 80.975-8.972 91.707.39 1.951.585 2.927.78 3.707 0 .781-.39 1.561-.975 2.147-.585.39-1.366.585-2.34.585Zm-15.213-6.829c7.606 3.122 15.018 5.073 16.188 4.293 0-.391-.39-1.757-.78-3.318-2.535-10.926-9.947-44.292 8.972-93.073 12.873-33.366 25.941-54.439 32.767-65.756 3.316-5.268 5.657-9.171 5.852-10.732.585-3.317-5.266-14.243-11.508-18.341-2.73-1.756-5.266-2.146-7.216-.976-5.462 3.317-75.092 96-44.275 187.903Z"/><path d="M103.958 405.659c-3.12 3.317-22.43 31.609-47.785 37.268-27.502 6.049-50.517-7.415-45.056-27.512 8.387-31.22 98.888-26.342 126.194-33.561 21.259-5.464 48.175-14.635 52.856-36.098 4.877-21.463-13.653-29.854-28.086-27.317-22.625 4.293-35.693 24.195-32.572 50.537 3.121 26.341 19.114 34.536 19.114 34.536s-74.116 63.61-37.838 95.025c24.77 21.463 73.141-51.122 73.141-51.122s-1.755-14.439-6.631-7.025c-4.876 7.61-40.179 56.976-53.442 50.537-13.263-6.439 49.346-69.854 49.541-74.147.585-10.926-32.573-25.17-25.161-53.463 7.607-28.488 27.306-25.756 29.062-18.732 2.34 9.171-38.619 32.976-79.773 35.122-41.154 2.147-88.94 4.878-94.986 30.634-6.827 29.269 20.48 48.391 55.392 45.659 34.718-2.732 57.148-19.317 57.733-27.317.39-7.805-7.802-27.122-11.703-23.024Z"/><path d="M121.122 503.805c-4.291 0-8.192-1.366-11.312-4.293-7.022-6.049-10.338-13.658-10.338-22.439 0-30.049 39.204-66.341 47.006-73.171-3.121-1.951-10.143-7.804-14.629-19.512-7.801 1.366-18.334 2.147-30.036 3.122-35.498 2.732-83.869 6.829-89.525 28.098-1.95 6.829-.39 13.073 4.486 18.146 7.996 8.39 23.405 11.317 39.204 7.805 21.454-4.878 38.618-26.146 44.86-34.146.975-1.366 1.755-2.147 2.145-2.732.975-.976 2.145-1.171 3.511-.585 4.876 2.146 10.727 17.756 10.142 24.585-.585 8.39-23.405 25.561-58.903 28.293-20.87 1.561-39.399-4.488-49.736-16.391-7.217-8.39-9.752-19.122-7.022-30.829 6.437-26.732 56.173-29.268 96.157-31.219 10.727-.586 21.454-2.537 31.402-5.464-.195-1.171-.39-2.536-.585-3.707-3.121-26.732 10.532-47.61 33.547-51.903 9.362-1.756 18.919.976 24.576 6.83 3.705 3.707 7.411 10.536 4.876 21.853-4.096 17.952-22.82 27.513-41.935 33.561 2.731 9.366 9.752 16.586 15.604 22.83 5.461 5.658 9.557 9.951 9.362 14.439 0 1.561-2.731 4.878-13.458 17.365-14.823 17.171-39.594 46.049-37.839 54.244.195.781.39 1.171 1.171 1.366 11.507 5.464 44.275-37.853 52.076-50.146 1.366-2.146 2.731-2.927 4.291-2.732 3.316.781 4.486 8 4.681 10.147v.39l-.195.39c-1.365 2.146-34.913 51.902-60.853 55.415-.781.195-1.756.39-2.731.39Zm13.068-120c5.461 13.854 14.628 18.536 14.823 18.732l1.561.78-1.366 1.171c-.39.39-47.395 40.975-47.395 72.585 0 8.195 3.12 15.22 9.557 20.683 3.511 2.927 7.607 4.098 12.288 3.512 23.6-3.122 55.587-49.366 58.903-54.048-.585-3.903-1.756-7.415-2.731-7.61-.195 0-.78.195-1.56 1.561-.39.585-39.399 58.536-55.002 50.927-1.366-.586-2.146-1.757-2.341-3.122-1.755-8.781 17.164-31.61 38.424-56.391 6.241-7.219 12.482-14.634 13.068-16 .195-3.317-3.901-7.609-8.777-12.487-5.852-6.244-13.263-13.854-16.189-23.805-3.121.975-6.437 1.951-9.557 2.731-1.366.391-2.536.586-3.706.781Zm-5.071-8.39c-10.142 2.926-20.87 5.073-31.792 5.463-39.204 1.951-87.965 4.488-93.816 29.659-2.536 10.926-.39 20.683 6.436 28.683 9.752 11.317 27.501 17.17 47.59 15.609 35.694-2.731 56.173-19.707 56.563-26.146.391-6.244-5.071-20.488-8.776-22.244-.391-.195-.391-.195-.781.195s-1.17 1.366-2.145 2.537c-6.632 8.195-23.99 30.049-46.225 34.927-16.774 3.707-32.963.39-41.545-8.586-5.266-5.658-7.021-12.878-5.07-20.488 6.24-23.024 53.636-26.926 91.67-30.048 11.507-.976 21.649-1.756 29.256-3.122-.39-1.952-.975-4.098-1.365-6.439Zm2.34-.781c.585 2.537 1.171 4.683 1.951 6.829 1.365-.195 2.535-.585 3.511-.78 3.12-.781 6.241-1.756 9.557-2.732-.585-2.731-.78-5.463-.585-8.585-4.681 1.951-9.363 3.707-14.434 5.268Zm16.774-6.244a26.141 26.141 0 0 0 .39 8.781c18.334-5.854 36.473-15.025 40.179-31.805 1.756-8 .39-14.829-4.291-19.512-5.071-5.269-14.043-7.805-22.43-6.244-22.235 4.097-34.718 23.414-31.597 49.171.195 1.17.195 2.341.39 3.317 5.266-1.561 10.338-3.513 15.019-5.464.195-1.171.39-2.536.78-3.902 4.681-17.952 14.628-24.195 22.235-24.195 4.486 0 8.192 2.341 9.167 5.463.39 1.756-.195 3.707-1.756 5.854-3.705 5.658-14.238 12.683-28.086 18.536Zm20.87-27.317c-6.632 0-15.409 5.854-19.895 22.439-.195.781-.39 1.366-.39 1.951 12.678-5.658 22.235-12.097 25.746-16.975 1.17-1.561 1.56-2.927 1.365-3.708-.585-1.951-3.511-3.512-6.826-3.707Z"/><path d="M200.7 381.854c-6.632 6.634-51.882 72.585-16.579 81.561 20.285 5.073 46.616-38.439 46.616-38.439s-.391-13.659-5.072-7.22c-4.876 6.439-17.163 30.439-34.522 34.537-17.359 4.097 29.841-44.098 29.841-50.147-.39-6.048-14.238-26.341-20.284-20.292Z"/><path d="M187.437 465.171c-1.17 0-2.536-.195-3.706-.391-7.022-1.756-11.508-5.853-13.458-12.292-6.241-22.634 24.185-65.951 29.452-71.415 1.17-1.171 3.12-2.146 6.241-.975 7.217 2.926 15.799 16.78 15.799 22.048 0 2.537-5.072 8.976-14.044 20.098-7.411 9.171-21.259 26.341-19.504 29.073 0 .195.585.39 2.341 0 13.848-3.317 24.77-20.097 30.621-29.073a275.895 275.895 0 0 1 3.316-5.073c1.365-1.756 2.731-2.537 3.901-2.147 2.926.976 3.316 7.22 3.316 9.952v.39l-.195.39c-.976 1.561-23.991 39.415-44.08 39.415Zm14.043-82.537c-4.486 4.488-34.718 47.415-28.866 68.878 1.56 5.464 5.266 8.976 11.702 10.537.975.195 2.146.39 3.121.39 17.749 0 39.594-34.341 41.934-38.049-.195-3.902-.975-7.219-1.56-7.414 0 0-.39 0-1.365 1.17-.781 1.171-1.951 2.927-3.316 4.878-6.047 9.366-17.164 26.537-31.987 30.049-.976.195-3.706.976-4.876-.975-2.341-3.903 5.851-14.635 19.699-31.805 6.046-7.415 13.458-16.781 13.458-18.537 0-4.293-8.192-17.171-14.433-19.707-1.951-.586-2.926.195-3.511.585Zm13.263-14.829c5.071 13.268 15.994 14.829 27.696.39 11.703-14.439 21.65-16.195 16.969-24.39-4.681-8.195-20.87-21.659-28.281-16.195-7.412 5.463-21.65 26.731-16.384 40.195Z"/><path d="M277.547 387.512s-36.473-19.317-52.077 31.61c-14.238 46.439 30.427 58.732 43.69 34.341 0 0 2.731-22.243-.78-11.902-3.706 10.537-9.167 12.098-13.653 11.707-10.923-1.17-6.046-56.975 19.699-56.975 18.529-.195 3.121-8.781 3.121-8.781Z"/><path d="M290.42 420.878s62.219-62.244 46.81-87.024c-.39-.586-.78-.976-1.17-1.366-3.121-2.927-15.994-12.488-33.743 5.853-19.699 20.098-70.215 140.879-20.479 154.537 14.823 4.098 42.519-62.829 42.519-62.829s7.997-17.756 0-9.951c-7.996 7.609-29.061 61.463-35.693 59.707-15.993-4.683 18.725-113.171 36.864-134.439 2.145-2.537 3.901-.195 5.071 2.927 3.121 8.585-27.891 46.048-39.984 64.195l-.195 8.39Z"/><path d="M358.295 417.951s7.217-31.024-15.018-33.171c-22.235-2.146-41.935 28.488-44.665 47.805-2.926 19.317 5.266 30.83 16.188 32 19.7 2.147 29.062-12.097 29.062-12.097s2.925-21.854-2.341-12.098c-4.681 8.781-8.387 14.439-14.433 11.708-8.777-3.903 14.043-60.683 20.48-55.22 6.241 5.463-7.412 21.659-6.632 25.171.585 3.512 16.579.585 17.359-4.098Z"/><path d="M368.047 385.561c-8.387 5.268-33.937 53.854-33.937 80.78 0 26.732 30.231 43.708 57.928-25.951 0 0-.586-13.073-3.511-8-2.926 5.073-19.895 43.512-29.452 43.708-9.362.195 23.6-63.22 23.015-66.927-.39-3.708-7.021-28.098-14.043-23.61Z"/><path d="M413.297 386.537c-8.777 3.512-53.442 76.097-11.507 80.78 6.826.781 13.653-4.293 13.653-4.293S336.45 595.902 266.43 589.463c-70.216-6.439-104.934-41.17-90.111-73.561 14.824-32.39 54.613-30.829 96.157-11.707 41.544 18.927 103.763 60.293 170.078 42.927 58.123-15.22 55.977-61.659 36.668-71.415-16.969-8.39-35.108 1.756-38.619 17.561-3.705 15.805 14.239 16 14.434 12.488.39-3.707 16.383-19.902 24.575-10.927 8.192 8.976-18.724 58.927-95.571 43.903-76.847-15.22-150.379-84.683-199.335-51.122-44.08 30.244-19.504 92.097 52.662 108.097 72.361 16 126.193-14.244 157.205-50.341 31.207-36.098 79.188-123.903 76.847-133.268-2.34-9.366-14.238-28.488-17.749-23.415-3.705 5.073-27.891 70.634-44.665 66.537-5.071-1.171 20.285-39.025 20.48-47.805-.195-8.781-9.752-23.415-16.189-20.878Z"/></g><defs><clipPath id="a"><path fill="#fff" d="M0 0h491.12v600H0z"/></clipPath></defs></svg>