<svg
  xmlns="http://www.w3.org/2000/svg"
  width="2500"
  height="1259"
  viewBox="0 0 2500 1259"
  fill="none"
>
  <path
    d="M1610.49 285.747C1608.8 280.523 1605.5 275.966 1601.06 272.723C1596.63 269.481 1591.29 267.718 1585.79 267.684H1338.95L1262.67 32.9214C1259.25 22.5079 1249.4 15.0117 1237.84 15.0117C1226.29 15.0117 1216.46 22.5129 1213.02 32.949L1136.72 267.684H889.924C878.955 267.737 868.771 274.753 865.201 285.747C863.499 290.975 863.489 296.607 865.171 301.842C866.854 307.077 870.144 311.648 874.574 314.906L1074.25 459.988L997.97 694.723C996.322 699.965 996.356 705.591 998.069 710.812C999.782 716.032 1003.09 720.586 1007.52 723.832C1016.89 730.648 1029.26 730.317 1038.17 723.932L1237.84 578.85L1437.52 723.932C1446.44 730.317 1458.8 730.645 1468.17 723.832C1472.62 720.594 1475.93 716.041 1477.64 710.816C1479.36 705.592 1479.38 699.961 1477.72 694.72L1401.44 459.988L1601.12 314.906C1605.55 311.648 1608.84 307.077 1610.52 301.842C1612.2 296.607 1612.19 290.975 1610.49 285.747"
    fill="#41403C"
  />
  <path
    d="M1610.49 270.735C1608.8 265.511 1605.5 260.954 1601.06 257.712C1596.63 254.469 1591.29 252.706 1585.79 252.673H1338.95L1262.67 17.9097C1259.25 7.49866 1249.39 0 1237.84 0C1226.29 0 1216.46 7.49866 1213.02 17.9347L1136.71 252.67H889.922C878.953 252.723 868.769 259.739 865.199 270.733C863.497 275.961 863.487 281.593 865.169 286.828C866.852 292.063 870.142 296.634 874.572 299.892L1074.25 444.973L997.968 679.711C996.32 684.952 996.355 690.578 998.068 695.799C999.781 701.019 1003.09 705.572 1007.52 708.818C1016.89 715.633 1029.26 715.303 1038.17 708.92L1237.84 563.836L1437.52 708.918C1446.44 715.303 1458.8 715.631 1468.17 708.818C1472.61 705.58 1475.93 701.027 1477.64 695.802C1479.35 690.578 1479.38 684.947 1477.72 679.706L1401.44 444.973L1601.12 299.892C1605.55 296.634 1608.84 292.063 1610.52 286.828C1612.2 281.593 1612.19 275.961 1610.49 270.733"
    fill="white"
  />
  <path
    d="M1030.29 685.846C1029.44 686.47 1028.41 686.806 1027.36 686.806C1026.3 686.806 1025.27 686.47 1024.42 685.846C1022.59 684.532 1021.86 682.478 1022.52 680.477L1101.86 436.191L894.233 285.357C893.384 284.743 892.753 283.873 892.435 282.875C892.116 281.876 892.125 280.802 892.461 279.81C892.763 278.803 893.383 277.921 894.227 277.295C895.072 276.67 896.097 276.335 897.148 276.339H1153.8L1233.09 32.3063C1233.41 31.2985 1234.05 30.4197 1234.9 29.7961C1235.76 29.1725 1236.79 28.8363 1237.85 28.8359C1240.08 28.8359 1241.93 30.3046 1242.61 32.3063L1321.88 276.339H1578.56C1580.66 276.339 1582.63 277.683 1583.32 279.81C1583.65 280.808 1583.65 281.885 1583.32 282.883C1582.99 283.882 1582.35 284.749 1581.49 285.357L1373.81 436.191L1453.16 680.377C1453.79 682.403 1453.08 684.533 1451.28 685.849C1450.43 686.472 1449.4 686.808 1448.34 686.808C1447.29 686.808 1446.26 686.472 1445.4 685.849L1237.85 534.967L1030.29 685.846Z"
    fill="#FFC123"
  />
  <path
    d="M647.102 659.865V611.733H637.654V596.203H674.209V611.733H664.329V659.865H647.102ZM712.118 625.67C716.652 625.67 719.109 621.691 719.109 617.563C719.109 611.988 715.739 609.609 711.027 609.887V625.592L712.118 625.67V625.67ZM720.48 659.87L710.93 633.371L710.752 633.524C710.855 636.641 711.03 639.784 711.03 642.896V659.87H693.803V596.208H710.422C725.369 596.208 736.16 600.591 736.16 617.385C736.16 624.404 733.146 630.634 726.307 633.371L739.125 659.87H720.48V659.87ZM779.228 638.172L777.379 623.403C776.874 619.427 776.544 615.374 776.138 611.395H775.936C775.455 615.374 775.025 619.427 774.339 623.403L771.985 638.172H779.228V638.172ZM782.521 659.858L781.255 651.673H769.703L768.259 659.858H750.527L765.802 596.195H786.83L800.331 659.858H782.521V659.858ZM833.365 644.503C841.219 644.425 842.56 634.622 842.56 628.617C842.56 621.701 841.217 612.073 833.365 612.073V644.503ZM816.141 596.218H829.998C849.581 596.218 860.12 608.528 860.12 627.781C860.12 657.17 841.652 659.853 831.164 659.853H816.141V596.218ZM879.373 596.205H911.369V611.228H896.6V620.095H909.848V635.115H896.6V644.82H911.369V659.868H879.373V596.205V596.205ZM1604.23 659.865L1602.63 619.837H1602.45C1601.69 624.474 1601.11 629.135 1600.28 633.771L1595.39 659.865H1581.35L1575.35 619.837H1575.2C1575.1 624.576 1575.2 629.212 1574.94 633.946L1573.5 659.863H1555L1562.43 596.2H1583.88L1588.8 630.046H1588.95C1589.46 626.092 1589.89 622.192 1590.62 618.241L1594.78 596.2H1615.96L1622.14 659.863H1604.23V659.865ZM1662.06 638.172L1660.21 623.403C1659.71 619.427 1659.38 615.374 1658.95 611.395H1658.77C1658.27 615.374 1657.86 619.427 1657.18 623.403L1654.82 638.172H1662.06V638.172ZM1665.36 659.858L1664.09 651.673H1652.54L1651.1 659.858H1633.36L1648.66 596.195H1669.67L1683.17 659.858H1665.36V659.858ZM1716.44 625.67C1721 625.67 1723.46 621.691 1723.46 617.563C1723.46 611.988 1720.07 609.609 1715.36 609.887V625.592L1716.44 625.67V625.67ZM1724.8 659.87L1715.26 633.371L1715.1 633.524C1715.18 636.641 1715.36 639.784 1715.36 642.896V659.87H1698.13V596.208H1714.75C1729.72 596.208 1740.51 600.591 1740.51 617.385C1740.51 624.404 1737.47 630.634 1730.63 633.371L1743.45 659.87H1724.8V659.87ZM1805.85 596.205L1792.09 626.933L1807.44 659.868H1788.98L1778.26 630.634H1778.16V659.868H1760.93V596.205H1778.16V623.31H1778.26L1787.68 596.205H1805.85V596.205ZM479.89 1084.92C472.974 1065.8 478.496 1007.36 510.695 996.337C544.565 984.712 565.388 1002.16 575.496 1036.31C579.269 1048.98 578.433 1062.35 574.305 1067.35C568.302 1074.64 557.586 1078.97 547.933 1082.24L522.575 1090.63C497.649 1099.11 485.742 1100.81 479.89 1084.92V1084.92ZM639.866 1155.81C623.4 1172.3 602.02 1188.66 580.968 1195.35C561.132 1201.74 504.588 1206.67 487.944 1159.99C484.346 1149.86 487.261 1146.74 496.431 1144.03C510.06 1139.97 545.223 1129.64 582.311 1115.73C615.979 1103.17 645.999 1087.74 655.422 1081.45C672.268 1070.41 674.75 1054.85 667.354 1038.11C643.742 984.99 590.266 929.382 501.397 946.281C430.767 959.754 380.178 1023.34 380.178 1096.07C380.178 1186.16 434.467 1238.8 503.524 1255.14C567.389 1270.31 642.451 1239.36 674.572 1187.32C687.315 1167.28 651.443 1143.5 639.866 1155.81V1155.81ZM1307.13 1084.92C1303.02 1073.48 1303.3 1047.99 1311.08 1026.99C1316.37 1012.88 1324.18 1001.83 1337.93 996.337C1353.41 990.107 1366.66 991.803 1377.02 997.778C1388.88 1004.6 1397.34 1018.1 1402.73 1036.31C1406.48 1048.98 1405.67 1062.35 1401.54 1067.35C1395.49 1074.64 1386.14 1078.29 1375.15 1082.24C1366.75 1085.23 1358.31 1088.07 1349.81 1090.75C1324.74 1098.61 1312.98 1100.81 1307.13 1084.92V1084.92ZM1467.06 1155.81C1450.64 1172.3 1429.24 1188.66 1408.23 1195.35C1388.37 1201.74 1331.8 1206.67 1315.19 1159.99C1311.59 1149.86 1314.53 1146.74 1323.67 1144.03C1337.3 1139.97 1372.47 1129.64 1409.55 1115.73C1443.22 1103.17 1473.27 1087.74 1482.64 1081.45C1499.51 1070.41 1501.99 1054.85 1494.59 1038.11C1470.96 984.99 1417.53 929.382 1328.64 946.281C1258.01 959.754 1207.42 1023.34 1207.42 1096.07C1207.42 1186.16 1261.68 1238.8 1330.77 1255.14C1394.61 1270.31 1469.69 1239.36 1501.81 1187.32C1514.56 1167.28 1478.68 1143.5 1467.06 1155.81V1155.81ZM1937.76 1084.92C1933.6 1073.48 1933.93 1047.99 1941.71 1026.99C1947 1012.88 1954.81 1001.83 1968.56 996.337C1984.04 990.107 1997.29 991.803 2007.65 997.778C2019.51 1004.6 2027.94 1018.1 2033.36 1036.31C2037.08 1048.98 2036.3 1062.35 2032.15 1067.35C2026.15 1074.64 2016.8 1078.29 2005.78 1082.24C1997.37 1085.23 1988.92 1088.06 1980.42 1090.75C1955.32 1098.61 1943.61 1100.81 1937.76 1084.92V1084.92ZM2097.68 1155.81C2081.29 1172.3 2059.86 1188.66 2038.81 1195.35C2019 1201.74 1962.43 1206.67 1945.79 1159.99C1942.22 1149.86 1945.15 1146.74 1954.3 1144.03C1967.93 1139.97 2003.06 1129.64 2040.18 1115.73C2073.82 1103.17 2103.89 1087.74 2113.26 1081.45C2130.11 1070.41 2132.59 1054.85 2125.22 1038.11C2101.59 984.99 2048.13 929.382 1959.26 946.281C1888.61 959.754 1838.05 1023.34 1838.05 1096.07C1838.05 1186.16 1892.31 1238.8 1961.39 1255.14C2025.23 1270.31 2100.29 1239.36 2132.42 1187.32C2145.16 1167.28 2109.31 1143.5 2097.68 1155.81V1155.81ZM149.613 1061.25C147.228 1061.25 144.941 1062.2 143.254 1063.89C141.568 1065.58 140.621 1067.86 140.621 1070.25L140.646 1172.27C140.746 1188.09 145.51 1198.69 154.147 1202.51C158.808 1204.59 168.967 1209.27 174.716 1211.86C178.67 1213.66 178.82 1217.68 178.237 1222.86C177.731 1227.46 176.388 1240.62 175.882 1245.45C175.352 1250.72 171.246 1252.95 163.267 1252.95H15.6006C8.12697 1252.95 3.49065 1251.63 2.85763 1245.45C2.34972 1240.61 0.981091 1226.73 0.475676 1222.12C-0.184867 1216.27 1.00611 1213.25 4.62909 1211.58C9.57065 1209.27 20.3345 1204.49 24.9983 1202.31C34.1684 1198.06 38.0691 1185.64 38.0691 1172.59L38.0441 920.352C38.019 906.268 34.0658 894.896 23.8074 890.132C19.146 887.978 9.41803 883.569 4.68163 881.317C0.755906 879.441 -0.30997 875.82 0.450655 870.678C1.1087 866.065 2.19959 858.188 2.85763 853.349C3.69332 847.217 8.12697 845.878 15.6006 845.878H156.401C163.9 845.878 168.181 847.217 169.042 853.349C169.7 858.188 170.791 866.065 171.449 870.678C172.209 875.82 171.196 879.368 167.37 881.42C162.354 884.127 155.313 888.08 150.802 890.54C144.722 893.858 140.743 900.723 140.643 916.987L140.618 990.504C140.616 991.687 140.847 992.859 141.298 993.952C141.748 995.046 142.41 996.04 143.246 996.877C144.081 997.715 145.073 998.379 146.165 998.833C147.257 999.287 148.428 999.521 149.611 999.522H228.448C229.631 999.523 230.803 999.291 231.897 998.838C232.99 998.385 233.983 997.72 234.818 996.882C235.654 996.044 236.316 995.049 236.766 993.955C237.216 992.86 237.445 991.688 237.44 990.504L237.415 916.987C237.313 900.723 233.337 893.858 227.282 890.54C222.748 888.083 215.73 884.13 210.713 881.42C206.888 879.368 205.849 875.82 206.608 870.678C207.268 866.065 208.357 858.188 209.015 853.349C209.875 847.217 214.181 845.878 221.655 845.878H362.456C369.929 845.878 374.363 847.217 375.224 853.349C375.882 858.188 376.945 866.065 377.631 870.678C378.364 875.82 377.325 879.441 373.4 881.317C368.636 883.569 358.908 887.978 354.246 890.132C344.013 894.896 340.06 906.268 340.035 920.352L340.01 1172.59C340.01 1185.64 343.885 1198.06 353.056 1202.31C357.717 1204.49 368.508 1209.27 373.447 1211.58C377.07 1213.25 378.236 1216.27 377.603 1222.12C377.095 1226.73 375.704 1240.62 375.221 1245.45C374.588 1251.63 369.927 1252.95 362.453 1252.95H214.794C206.815 1252.95 202.709 1250.72 202.179 1245.45C201.671 1240.61 200.33 1227.46 199.822 1222.86C199.264 1217.69 199.392 1213.66 203.367 1211.86C209.095 1209.27 219.253 1204.59 223.939 1202.51C232.551 1198.69 237.315 1188.09 237.415 1172.27L237.44 1070.25C237.442 1069.07 237.211 1067.9 236.76 1066.81C236.309 1065.71 235.647 1064.72 234.811 1063.89C233.976 1063.05 232.984 1062.39 231.892 1061.93C230.8 1061.48 229.63 1061.25 228.448 1061.25H149.613V1061.25Z"
    fill="#41403C"
  />
  <path
    d="M1732.27 1053.11C1732.27 1053.11 1785.75 1149.86 1800.33 1176.43C1811.43 1196.62 1823.9 1202.22 1840.79 1211.84C1845.15 1214.3 1846.47 1215.92 1845.68 1224.1C1845.1 1230.41 1844.11 1240.06 1843.63 1245.08C1842.95 1252.07 1837.98 1252.94 1831.04 1252.94H1752.21C1742.22 1252.94 1738.32 1250.86 1734.77 1244.43C1730.97 1237.53 1665.06 1117.61 1665.06 1117.61L1640.21 1141.34V1174.43C1640.33 1189.6 1647.32 1199.43 1654.14 1203.23C1658.55 1205.69 1665.24 1209.42 1670.61 1212.38C1674.73 1214.66 1675.04 1217.55 1674.48 1224.03C1674.08 1228.61 1672.81 1240.6 1672.33 1245.46C1671.77 1250.83 1668.12 1252.93 1659.69 1252.93H1528.46C1520.97 1252.93 1516.28 1251.64 1515.64 1245.46C1515.14 1240.6 1513.9 1227.73 1513.39 1223.14C1512.76 1217.36 1513.77 1214.43 1517.57 1212.3C1523.09 1209.18 1528.62 1206.09 1534.16 1203.03C1540.62 1199.45 1545.87 1189.78 1545.87 1173.94V917.732C1545.82 899.997 1539.11 891.943 1533.89 889.026C1530.21 886.949 1519.57 881.047 1517.14 879.653C1513.47 877.576 1512.76 873.573 1513.47 868.656C1514.13 864.098 1514.94 858.17 1515.62 853.331C1516.51 846.896 1520.71 845.86 1528.36 845.86H1623.13C1631.19 845.86 1640.18 851.813 1640.18 863.062L1640.21 1058.83C1640.21 1058.83 1693.38 1010.93 1701.24 1003.89C1706.84 998.846 1705.24 993.477 1702.1 992.005C1696.65 989.473 1690.57 986.786 1687.15 985.242C1683.38 983.518 1681.45 981.494 1682.09 975.264C1682.72 969.362 1683.76 959.831 1684.19 955.3C1684.75 949.42 1686.75 947.013 1696.42 947.013H1812.25C1819.52 947.013 1821.98 949.525 1822.46 954.284C1822.96 959.709 1824.28 970.953 1824.79 976.378C1825.19 980.706 1822.18 983.213 1815.8 985.545C1799.02 991.678 1791.76 996.009 1769.11 1017.9C1754.94 1031.58 1732.27 1053.11 1732.27 1053.11V1053.11ZM815.666 1174.9C815.793 1190.07 820.832 1199.42 827.673 1203.22C833.15 1206.29 838.638 1209.34 844.139 1212.37C848.242 1214.65 848.573 1217.56 847.99 1224.02C847.609 1228.63 846.343 1240.61 845.86 1245.45C845.302 1250.84 841.629 1252.95 833.22 1252.95H701.97C694.496 1252.95 689.86 1251.63 689.227 1245.45C688.482 1238.01 687.714 1230.57 686.922 1223.13C686.289 1217.38 687.327 1214.44 691.101 1212.29C696.612 1209.18 702.135 1206.1 707.669 1203.04C714.13 1199.44 719.399 1189.79 719.399 1173.93L719.374 1030.34C719.349 1011.07 713.674 1002.05 707.442 998.526C703.741 996.449 698.549 993.464 696.092 992.07C692.217 989.866 691.584 986.138 692.292 981.252C692.95 976.693 693.963 968.991 694.646 964.152C695.482 958.02 699.915 956.681 707.389 956.681H806.846C808.002 956.68 809.148 956.908 810.216 957.351C811.285 957.794 812.255 958.443 813.072 959.262C813.889 960.081 814.536 961.054 814.976 962.123C815.416 963.193 815.64 964.339 815.635 965.496L815.666 1174.9V1174.9ZM759.83 837.626C730.723 837.626 707.161 860.375 707.161 888.445C707.161 916.516 730.723 939.264 759.83 939.264C788.886 939.264 812.473 916.516 812.473 888.445C812.473 860.375 788.886 837.626 759.83 837.626ZM1157.87 1030.47C1157.87 977.751 1133.98 957.637 1106.32 948.795C1074.37 938.634 1035.82 955.353 1016.03 964.5C1010.8 966.916 1005.63 969.442 1000.5 972.074C995.386 960.067 992.674 956.671 985.1 956.671H891.545C884.072 956.671 879.638 958.015 878.802 964.142C878.119 968.981 877.106 976.683 876.445 981.242C875.737 986.133 876.345 989.856 880.246 992.06C882.678 993.454 887.897 996.469 891.57 998.546C897.826 1002.04 903.478 1011.06 903.528 1030.34L903.553 1173.92C903.553 1189.79 898.283 1199.44 891.823 1203.04C886.277 1206.08 880.754 1209.17 875.255 1212.31C871.454 1214.44 870.415 1217.37 871.074 1223.15C871.581 1227.73 872.873 1240.61 873.378 1245.44C873.986 1251.63 878.647 1252.94 886.121 1252.94H1017.35C1025.76 1252.94 1029.43 1250.84 1029.99 1245.44C1030.47 1240.6 1031.74 1228.62 1032.14 1224.01C1032.7 1217.55 1032.39 1214.66 1028.26 1212.36C1022.75 1209.35 1017.26 1206.3 1011.8 1203.21C1003.31 1198.4 999.762 1185.88 999.762 1174.51L999.814 1060.39C999.814 1030.57 1014.36 1013.83 1034.32 1011.37C1047.59 1009.69 1064.62 1017.88 1064.62 1041.36V1195.1C1064.62 1238.88 1101.83 1255.68 1131.04 1255.68C1161.97 1255.68 1188.37 1241.47 1200.17 1216.74C1203.92 1208.91 1199.34 1202.96 1195.51 1198.73C1191.13 1193.89 1187.18 1189.59 1180.03 1193.24C1172.99 1196.86 1165.59 1203.85 1161.33 1201.5C1158.17 1199.77 1157.86 1196.98 1157.86 1190.14V1030.47H1157.87ZM2432.05 1030.47C2432.05 977.751 2408.16 957.637 2380.5 948.795C2348.56 938.634 2310 955.353 2290.21 964.5C2282.18 968.201 2274.68 972.074 2274.68 972.074C2269.59 960.067 2266.86 956.671 2259.28 956.671H2165.73C2158.25 956.671 2153.82 958.015 2152.96 964.142C2152.3 968.981 2151.29 976.683 2150.63 981.242C2149.89 986.133 2150.53 989.856 2154.4 992.06C2156.86 993.454 2162.05 996.469 2165.78 998.546C2172.01 1002.04 2177.68 1011.06 2177.71 1030.34L2177.74 1173.92C2177.74 1189.79 2172.47 1199.44 2165.98 1203.04C2160.45 1206.09 2154.93 1209.18 2149.44 1212.31C2145.64 1214.44 2144.6 1217.37 2145.26 1223.15C2145.74 1227.73 2147.06 1240.61 2147.57 1245.44C2148.2 1251.63 2152.83 1252.94 2160.31 1252.94H2291.53C2299.97 1252.94 2303.62 1250.84 2304.17 1245.44C2304.65 1240.6 2305.92 1228.62 2306.35 1224.01C2306.88 1217.55 2306.58 1214.66 2302.45 1212.36C2296.94 1209.35 2291.45 1206.3 2285.98 1203.21C2277.47 1198.4 2273.95 1185.88 2273.95 1174.51L2274 1060.39C2274 1030.57 2288.54 1013.83 2308.51 1011.37C2321.78 1009.69 2338.8 1017.88 2338.8 1041.36V1195.1C2338.8 1238.88 2376.02 1255.68 2405.22 1255.68C2436.16 1255.68 2462.55 1241.47 2474.39 1216.74C2478.08 1208.91 2473.52 1202.96 2469.67 1198.73C2465.32 1193.89 2461.37 1189.59 2454.25 1193.24C2447.15 1196.86 2439.76 1203.85 2435.52 1201.5C2432.38 1199.77 2432.05 1196.98 2432.05 1190.14V1030.47H2432.05ZM2451.95 852.588C2451.95 847.549 2446.68 845.775 2442.3 845.775H2432.19V860.137H2443.69C2448.6 860.139 2451.95 856.899 2451.95 852.588ZM2465.85 881.67C2466.87 888.463 2469.91 893.349 2471.58 896.922C2464.61 896.922 2462 896.897 2456.02 896.897C2453.06 890.237 2452.4 885.75 2450.91 881.142C2448.88 874.426 2444.7 872.447 2437.46 872.447H2432.09V896.895H2417.77V834.348H2447.69C2454.66 834.348 2466.69 838.477 2466.69 851.775C2466.69 860.137 2462.05 865.912 2457.37 867.686C2462.54 871.086 2464.82 874.962 2465.85 881.67V881.67ZM2487.95 867.816C2487.95 842.18 2467.3 821.508 2441.79 821.508C2416.1 821.508 2395.28 842.18 2395.28 867.816C2395.28 893.374 2416.1 914.149 2441.79 914.149C2467.3 914.149 2487.95 893.374 2487.95 867.816V867.816ZM2499.78 867.816C2499.78 899.86 2473.73 925.828 2441.79 925.828C2409.67 925.828 2383.57 899.86 2383.57 867.816C2383.57 835.664 2409.67 809.7 2441.79 809.776C2473.73 809.703 2499.78 835.667 2499.78 867.816Z"
    fill="#41403C"
  />
</svg>
