<svg
  xmlns="http://www.w3.org/2000/svg"
  width="4340"
  height="976"
  viewBox="0 0 4340 976"
  fill="none"
>
  <path
    fill-rule="evenodd"
    clip-rule="evenodd"
    d="M18.8423 151.23L575.974 158.861L567.159 850.751C565.973 947.8 333.006 866.63 298.285 951.307C255.934 865.444 8.22371 945.479 10.0017 843.071L18.8423 151.23V151.23Z"
    fill="#41403C"
  />
  <path
    fill-rule="evenodd"
    clip-rule="evenodd"
    d="M585.975 158.837L576.567 148.86L19.4345 141.205L18.8418 161.208L575.974 168.863L585.975 158.837L586.543 148.86H576.567L585.975 158.837Z"
    fill="#41403C"
  />
  <path
    fill-rule="evenodd"
    clip-rule="evenodd"
    d="M557.132 850.724H577.135L585.975 158.833L565.948 158.266L557.132 850.724V850.724ZM289.469 956.021L307.668 955.453L310.632 948.983L314.756 943.674L319.448 938.957L325.35 934.858L331.82 931.326L339.45 927.82L347.698 925.449L357.107 923.671L366.515 921.918L377.109 920.14L387.703 918.979L398.89 917.769L410.644 917.201L421.806 916.608L433.586 915.991H445.365L457.119 915.423L468.899 914.83L480.653 913.67L491.84 913.102L502.434 911.892L513.028 910.163L523.029 907.792L532.438 904.854L541.254 901.915L549.477 897.767L557.132 892.507L563.627 885.987L569.479 878.949L573.603 870.701L575.974 861.293L577.135 850.724H557.132L556.564 857.786L554.786 863.663L552.44 868.331L548.909 873.072L544.785 876.579L539.476 880.159L533.623 883.666L525.968 885.987L518.312 888.407L509.496 890.136L499.471 891.914L489.494 893.075L478.875 894.235L467.713 894.877L456.527 895.445L444.772 896.013H433.018L421.238 896.606L409.484 897.174L397.705 898.384L385.925 898.976L374.763 900.162L363.602 901.915L352.415 904.261L342.414 906.632L332.412 910.163L322.979 913.67L314.163 918.979L306.533 924.239L299.445 930.758L293.593 938.957L288.876 947.773L307.101 947.205L289.469 956.021L298.853 975.999L307.668 955.453L289.469 956.021V956.021Z"
    fill="#41403C"
  />
  <path
    fill-rule="evenodd"
    clip-rule="evenodd"
    d="M0 843.068L0.592672 853.687L2.96334 863.664L7.08733 872.48L12.3472 880.16L19.4346 887.197L27.0652 892.507L35.9058 897.174L45.3144 900.705L55.3157 903.693L65.3169 906.015L76.5035 908.361L88.2581 909.521L100.013 911.324L112.385 911.892L124.732 913.102L137.079 913.67L149.451 914.263L162.391 914.831L174.738 915.423L187.11 916.609L199.457 917.769L211.212 918.979L222.399 920.708L232.968 922.511L242.994 924.239L252.378 927.178L261.218 930.759L268.306 934.858L275.343 938.957L280.653 944.266L285.345 949.551L289.469 956.021L307.101 947.205L301.816 937.797L295.346 930.116L287.098 923.671L278.85 918.362L268.874 913.102L258.872 908.953L248.278 906.015L237.092 903.076L225.337 900.705L213.558 898.977L201.211 897.767L188.863 896.606L175.899 895.445L163.552 894.877L150.612 894.235L138.264 893.667L125.917 893.075L113.545 891.914L101.766 891.297L90.6041 890.136L79.4175 888.408L69.4162 886.629L60.0323 884.259L51.7843 881.888L44.1537 878.95L37.6591 875.418L31.7818 871.27L27.6825 867.17L24.1265 862.503L21.7805 857.194L20.0025 850.724V843.636L0 843.068V843.068Z"
    fill="#41403C"
  />
  <path
    fill-rule="evenodd"
    clip-rule="evenodd"
    d="M19.4346 141.205L8.81594 151.231L0 843.072L20.0025 843.64L28.8185 151.231L19.4346 141.205H9.40861L8.81594 151.231L19.4346 141.205V141.205ZM120.015 453.615L103.544 484.779L45.8824 482.433L94.728 182.371L144.734 184.149L160.638 212.967L241.808 214.153L245.932 185.309L291.222 184.717L345.92 490.657L290.629 488.311L284.752 462.431L235.931 460.06L233.585 475.346L261.836 506.535L293.617 545.948L569.529 552.418L570.714 683.595L470.702 681.866L498.927 898.387L298.902 926.613L293.617 667.173C264.799 665.395 237.116 667.741 223.016 678.952L224.177 904.857L164.169 903.079L167.108 671.865C144.759 671.297 128.881 653.64 122.979 614.796L121.201 555.949C117.669 544.812 108.853 542.441 107.668 523.574C114.163 504.757 128.263 494.781 150.612 495.349L164.737 456.529C152.39 458.9 122.361 465.962 120.015 453.615V453.615ZM122.361 362.418L121.769 403.584L160.613 404.177L161.206 362.986L122.361 362.418ZM133.548 268.875L132.955 310.041L161.774 310.609L162.366 269.444L133.548 268.875ZM222.399 270.036L221.806 310.041L250.624 310.609L251.217 270.629L222.399 270.036ZM221.213 363.579L220.621 403.584L265.342 404.177L265.935 364.172L221.213 363.579Z"
    fill="#41403C"
  />
  <path
    fill-rule="evenodd"
    clip-rule="evenodd"
    d="M312.41 557.724H328.288L328.881 907.794L312.41 931.92V557.724ZM423.584 558.885H439.487L483.024 890.73H466.552L423.584 558.885ZM398.297 558.885L400.05 894.854L444.179 895.422L442.426 559.503L398.297 558.885ZM344.759 558.885L388.296 559.503L390.049 899.546L346.513 904.262L344.759 558.885ZM176.491 896.607L195.308 897.175L198.247 663.639L179.43 677.147L176.491 896.607V896.607ZM138.832 626.548C135.301 626.548 138.832 636.574 142.363 637.735C151.179 641.266 164.737 641.834 173.552 640.673C178.837 639.513 187.678 628.326 184.146 627.116C168.861 621.881 151.204 623.041 138.832 626.548V626.548ZM206.52 595.976C210.644 595.976 202.964 607.163 199.457 607.163C178.862 611.83 156.513 614.201 137.696 611.262C132.979 610.102 132.979 592.445 137.103 592.445C159.427 590.667 184.146 593.038 206.52 595.976ZM133.547 562.466C130.016 563.626 131.794 578.912 138.264 578.912C158.267 580.69 180.615 579.48 202.396 573.653C205.927 573.653 198.272 562.466 194.74 562.466C174.738 560.663 152.389 557.725 133.547 562.466V562.466ZM184.739 544.809C182.393 533.03 135.325 501.248 125.324 512.435C120.608 520.065 106.482 543.599 184.739 544.809ZM288.283 558.317L287.098 643.637C264.749 643.069 241.215 647.736 220.028 643.637C213.558 642.476 213.558 630.129 216.496 624.819C218.867 618.942 232.967 617.732 234.153 611.262C239.437 594.198 237.091 574.22 232.375 556.564C231.214 551.255 221.213 548.884 218.867 542.439C216.496 537.722 222.991 527.721 217.682 522.412C204.149 508.286 179.454 505.965 165.922 491.84C161.798 487.716 162.391 471.837 168.268 471.837C183.554 468.306 204.742 468.306 217.114 475.961C242.993 496.532 244.747 557.749 277.121 558.317H288.283V558.317ZM54.7227 464.182L98.259 195.926L130.609 197.679L138.264 224.152L245.339 225.337L254.748 198.272H277.121L318.287 463.614L293.592 465.96L285.369 432.425H205.359L207.112 463.614L175.923 458.329L175.331 431.857L90.0111 437.141L82.3558 464.207H54.7227V464.182ZM177.676 420.646L176.491 338.289H106.482L94.135 418.3L177.676 420.646ZM106.482 323.572L175.306 325.942L176.491 243.586L120.608 241.24L106.482 323.572V323.572ZM201.803 322.386H277.689L265.342 244.722L202.964 245.907L201.803 322.386ZM204.149 421.238L287.69 422.399L277.714 341.796L205.334 342.364L204.149 421.238Z"
    fill="#C6AA6A"
  />
  <path
    fill-rule="evenodd"
    clip-rule="evenodd"
    d="M388.296 10L945.428 17.6552L936.019 709.52C934.834 807.187 702.459 725.399 667.738 810.718C624.795 724.238 377.702 804.249 378.862 701.865L388.296 10V10Z"
    fill="#41403C"
  />
  <path
    fill-rule="evenodd"
    clip-rule="evenodd"
    d="M955.429 17.6567L945.428 7.65542L388.296 0V20.0027L945.428 27.6579L955.429 17.6567V7.65542H945.428L955.429 17.6567Z"
    fill="#41403C"
  />
  <path
    fill-rule="evenodd"
    clip-rule="evenodd"
    d="M926.018 709.522H946.021L955.429 17.6572L935.427 17.0645L926.018 709.522ZM658.33 815.437L676.579 814.795L679.518 808.35L683.642 803.09L688.334 798.349L694.211 794.249L701.274 790.693L708.336 787.162L717.152 784.791L725.993 782.495L735.994 780.124L745.996 778.963L757.182 777.753L768.344 776.543L779.531 775.975L791.285 775.407L803.064 774.815L814.819 774.247H826.598L838.353 773.654L849.539 772.444L860.701 771.876L871.888 770.715L881.889 768.937L891.891 766.567L901.892 763.628L910.708 760.689L918.956 756.59L926.611 751.281L933.081 744.811L938.366 737.773L942.465 728.957L945.428 719.499L946.021 709.522H926.018L925.426 716.56L924.265 722.438L921.302 727.154L918.363 731.896L914.239 735.402L908.954 738.934L902.484 742.465L895.422 744.811L887.174 747.182L878.358 748.91L868.949 750.713L858.948 751.849L848.354 753.059L837.192 753.652L825.413 754.219L814.251 754.812H802.472L790.693 755.43L778.345 755.998L766.566 756.59L755.404 757.8L743.625 758.961L732.463 760.689L721.869 763.06L711.275 765.406L701.866 768.937L692.458 772.444L683.642 777.185L675.962 783.063L668.924 790.101L663.047 798.349L658.33 807.189L676.579 806.596L658.33 815.437L668.331 834.822L676.579 814.795L658.33 815.437V815.437Z"
    fill="#41403C"
  />
  <path
    fill-rule="evenodd"
    clip-rule="evenodd"
    d="M368.861 701.842L370.071 712.461L372.393 722.437L375.949 731.278L381.826 738.933L388.296 746.02L396.544 751.28L404.767 755.997L414.176 759.528L424.177 762.467L434.771 764.788L445.957 767.208L457.119 768.344L468.899 769.505L481.246 770.715L493.593 771.308L506.558 772.444L518.905 773.036L531.252 773.654L544.217 774.246L556.564 775.407L568.319 776.543L580.073 777.753L591.26 779.506L602.446 781.284L612.448 783.655L621.856 786.593L630.104 790.1L637.735 794.249L644.205 798.348L650.107 803.657L654.799 808.967L658.33 815.437L676.579 806.596L671.295 797.187L664.207 789.532L656.552 782.494L647.736 776.543L638.328 771.876L628.326 767.776L617.732 764.788L606.546 761.899L594.791 759.528L582.444 757.8L570.689 756.59L557.725 755.429L545.378 754.219L532.438 753.651L520.066 753.058L507.15 752.49L494.779 751.848L483.024 750.712L471.245 750.12L459.465 748.91L448.896 747.181L438.895 745.403L429.486 743.032L420.646 740.711L413.015 737.772L406.52 734.216L401.236 730.117L397.112 726.018L393.58 721.276L391.235 715.967L389.481 709.522L388.864 702.459L368.861 701.842V701.842ZM388.296 0L378.295 10.0014L368.861 701.842L388.864 702.459L398.297 10.0014L388.296 0H378.295V10.0014L388.296 0V0Z"
    fill="#41403C"
  />
  <path
    fill-rule="evenodd"
    clip-rule="evenodd"
    d="M938.958 407.111L660.676 401.234L627.141 360.636L598.915 328.879L604.2 305.346L589.482 282.404C578.888 243.585 686.556 231.213 715.992 189.454C741.279 152.388 731.871 90.627 748.934 54.7212C734.809 52.3505 720.116 57.0671 698.928 66.5004C673.641 50.0292 629.512 27.0881 577.728 30.0267C515.374 32.9654 463.022 41.1887 430.647 28.2734C438.871 40.6207 444.18 52.9678 441.241 68.2784C417.115 87.6882 407.113 110.037 404.175 130.039C414.769 195.356 448.304 215.927 489.494 217.705C535.377 215.334 570.69 195.949 590.1 155.351C597.73 138.88 583.037 112.407 550.662 112.407C505.373 111.815 498.878 140.065 510.065 157.697C495.939 165.352 471.245 164.76 471.813 138.263C494.754 92.4049 537.13 95.9117 573.579 94.751C634.772 94.751 678.308 110.037 674.184 133.571C660.652 204.74 557.108 178.292 522.412 272.996C508.287 277.688 495.939 283.59 490.655 301.246C490.062 321.249 498.878 330.089 514.189 327.719L514.781 348.882C492.433 348.882 478.876 358.29 471.838 378.293C473.023 397.11 481.839 400.049 485.37 411.235L487.148 470.082C493.026 510.087 508.929 527.719 532.438 527.719L529.499 761.304L589.507 763.626L588.914 534.757C602.447 523.571 630.105 521.842 660.108 523.571L662.454 797.186L866.604 757.156L838.328 538.289L939.526 539.499L938.958 407.111V407.111Z"
    fill="#41403C"
  />
  <path
    fill-rule="evenodd"
    clip-rule="evenodd"
    d="M539.476 753.057H558.318L561.256 519.472L542.439 533.029L539.476 753.057ZM657.737 415.953L656.552 501.84C634.204 501.84 610.077 506.557 587.729 502.457C581.827 501.247 581.827 488.9 584.173 483.591C587.136 477.714 601.829 476.528 602.99 470.083C608.299 453.019 606.521 431.239 601.237 414.175C600.051 408.89 588.889 406.519 586.519 400.049C584.173 394.765 590.643 384.763 585.951 380.047C572.418 365.922 547.131 362.983 533.598 349.475C530.067 345.351 530.067 329.448 536.537 328.287C551.255 324.756 573.035 324.756 585.358 333.597C612.423 354.192 614.201 415.385 646.551 415.953H657.737V415.953ZM681.271 415.953L697.743 416.545L698.311 765.997H681.839L681.271 415.953ZM813.658 419.484L931.303 420.669L930.142 521.867L840.131 520.707C814.251 507.717 820.721 456.55 813.658 419.484ZM775.407 417.706L818.35 748.908L834.254 749.526L791.31 417.681H775.407V417.706V417.706ZM724.808 708.928L735.402 700.68L762.467 730.684L753.651 739.5L724.808 708.928V708.928ZM744.218 693.074L754.219 684.826L781.284 714.83L772.468 723.646L744.218 693.074V693.074ZM765.998 747.18L793.656 724.807L793.063 750.118L765.998 747.18V747.18ZM724.808 743.031L725.4 764.244L748.341 747.18L724.808 743.031V743.031ZM713.621 434.202L721.276 427.707L742.44 450.673L735.97 458.328L713.621 434.202ZM727.746 421.83L749.527 445.957L755.997 438.301L736.587 415.953L727.746 421.83ZM744.81 462.996L765.998 445.957V465.959L744.81 462.996ZM713.621 460.65L714.214 476.553L731.87 463.02L713.621 460.65V460.65ZM723.622 638.894C728.339 635.363 731.278 633.017 732.463 631.857C742.464 639.537 750.688 649.513 758.343 659.49C757.182 660.7 754.219 664.799 750.688 668.306C741.872 658.329 733.624 648.303 723.622 638.894V638.894ZM741.279 624.201C745.996 620.67 748.934 618.373 751.28 616.003C760.096 624.819 769.505 634.82 775.999 644.796C774.814 646.006 771.875 650.106 768.344 653.612C759.528 642.475 751.28 633.017 741.279 624.201V624.201ZM761.874 674.776C770.861 667.927 779.688 660.871 788.347 653.612C789.507 661.292 789.507 668.898 787.779 677.739C780.691 675.985 771.875 675.986 761.874 674.776ZM723.054 671.837C724.24 676.553 725.4 683.024 724.24 691.864C733.056 684.234 738.958 679.517 745.403 674.208C738.049 672.685 730.564 671.891 723.054 671.837V671.837ZM720.684 570.713C724.24 567.725 727.178 565.404 729.524 563.033C738.34 571.849 746.564 580.69 753.058 589.505C751.873 591.827 748.934 594.765 745.403 598.321C737.748 588.345 730.685 579.479 720.684 570.713ZM737.155 557.156C747.181 564.786 754.219 574.812 761.874 583.628C765.405 581.258 767.751 577.158 769.505 575.948C762.931 566.079 755.019 557.169 745.996 549.476C744.81 550.686 740.711 553.007 737.155 557.156ZM756.589 604.791C765.405 597.111 774.246 591.234 780.716 584.764C781.901 591.234 781.309 598.889 780.123 607.73C773.653 604.791 765.405 604.791 756.589 604.791V604.791ZM720.116 600.692C721.301 606.52 722.462 612.99 721.301 618.917C728.956 612.99 735.402 609.459 741.304 604.199C735.402 601.853 727.746 601.853 720.116 600.692V600.692ZM717.77 501.84C721.869 499.519 724.24 496.531 725.4 495.37C735.402 503.05 741.304 510.656 748.934 519.497C747.013 522.616 744.392 525.245 741.279 527.177C734.809 519.472 726.586 509.495 717.77 501.84V501.84ZM733.056 488.332C741.872 497.148 750.119 505.989 756.589 514.805C760.121 511.224 762.467 508.285 764.245 505.989C757.775 498.309 750.712 489.493 741.896 481.838C740.711 484.183 736.587 485.962 733.056 488.332V488.332ZM751.28 533.622C760.096 525.942 767.751 521.275 773.629 514.805C774.789 521.275 774.789 528.881 773.629 535.968C767.183 534.758 760.121 534.758 751.28 533.622ZM717.152 530.659C718.338 535.326 719.498 541.845 718.338 547.722C725.993 541.845 732.463 538.264 737.155 533.004C732.463 531.819 724.808 530.659 717.152 530.659ZM553.033 401.827C550.662 390.641 503.619 358.884 493.593 370.046C488.309 377.108 473.023 400.642 553.033 401.827ZM501.249 420.052C497.717 421.237 500.063 436.523 506.533 436.523C526.536 437.708 548.884 437.116 570.072 431.239C573.579 431.239 566.541 419.459 563.009 419.459C543.007 418.299 520.066 415.36 501.249 420.052V420.052ZM574.789 454.772C552.44 451.834 527.153 448.895 504.78 451.241C501.249 451.241 500.681 468.873 505.965 470.083C524.782 473.022 547.131 470.651 567.158 465.959C570.689 465.959 578.32 454.772 574.789 454.772ZM507.151 485.369C503.027 484.776 506.558 495.345 510.682 496.506C518.93 500.087 533.03 500.655 541.871 499.494C546.563 498.284 555.404 487.097 551.872 485.937C537.394 481.056 521.748 480.858 507.151 485.369V485.369ZM448.896 78.2557C453.613 81.8117 459.49 85.911 465.96 90.0349C428.326 121.817 424.794 174.169 484.777 174.762C490.062 174.762 508.311 171.823 520.09 167.699C512.435 143.005 520.683 125.348 547.748 124.755C580.691 123.57 589.507 202.42 493.025 202.42C410.644 202.963 396.544 131.201 448.896 78.2557V78.2557ZM673.023 92.3809L682.457 71.193C644.798 62.3771 611.262 44.1278 575.381 43.5352C541.254 43.5352 477.715 55.8825 456.527 59.4138L491.247 75.2923C512.435 70.6004 551.255 65.8837 575.974 66.4764C605.953 67.6617 642.452 82.3797 673.023 92.3809ZM558.318 280.627C563.009 233.559 611.83 220.619 640.674 214.742C713.028 199.456 699.521 102.975 720.684 108.259L723.622 79.441C675.962 78.8483 718.338 177.108 627.141 202.987C533.006 229.46 547.156 272.996 544.785 281.812L558.318 280.627V280.627ZM508.311 292.974L573.035 293.567V301.222L508.311 300.061V292.974Z"
    fill="#C6AA6A"
  />
  <path
    fill-rule="evenodd"
    clip-rule="evenodd"
    d="M1064.85 518.906L1200.15 383.013L1201.31 299.471C1201.9 267.097 1166.02 246.526 1130.14 240.032C1134.27 202.397 1170.15 126.487 1257.79 127.672C1333.7 128.857 1370.17 192.989 1377.8 215.337C1388.99 188.272 1427.22 127.672 1504.88 128.882C1560.17 129.475 1633.12 177.703 1631.96 243.02L1630.77 351.256C1644.31 343.032 1716.69 291.248 1761.38 291.841C1807.86 292.433 1860.8 348.317 1911.4 378.914H1926.12L2037.29 305.941C2106.71 258.898 2172.03 343.6 2203.22 383.013C2257.32 344.786 2326.74 287.124 2367.98 291.248C2414.43 297.125 2457.35 346.539 2509.16 371.851C2556.22 346.539 2609.14 291.841 2660.31 293.001C2726.81 293.594 2763.29 344.193 2811.52 371.234C2853.27 344.168 2909.18 290.038 2969.19 290.631C3010.38 291.223 3049.79 328.882 3094.49 347.107C3129.8 327.697 3160.42 285.914 3200.4 285.914C3230.41 286.507 3242.76 302.978 3263.35 310.609C3281.01 303.571 3329.24 269.443 3376.3 312.387L3453.97 385.927L3480.44 370.048L3481.01 313.572C3481.01 292.409 3466.34 284.754 3448.63 284.754C3443.37 245.934 3482.79 172.393 3565.17 173.554C3610.46 174.147 3678.12 230.055 3677.5 271.221L3676.34 358.886C3709.28 325.351 3766.38 287.692 3817.52 288.285C3865.18 288.853 3878.14 324.191 3912.87 340.637C3944.6 322.388 3974.6 288.853 4008.75 285.914C4031.08 284.753 4053.48 305.349 4075.8 314.165C4085.78 302.978 4103.48 284.754 4141.12 286.507C4215.87 290.038 4285.85 382.988 4285.85 404.176L4282.91 615.363C4282.91 633.02 4311.14 660.702 4339.98 663.641C4305.88 747.182 4260.59 767.777 4218.19 767.185C4162.28 766.567 4135.24 740.712 4109.38 709.499C4082.91 735.403 4034.63 768.346 3993.44 767.753L3924.62 767.185L3925.24 714.215C3895.23 733.032 3866.39 761.283 3835.77 768.321C3788.16 778.939 3742.82 741.848 3705.78 715.351C3635.18 764.222 3621.03 785.385 3533.98 758.912C3468.66 788.274 3407.47 743.577 3347.46 689.471C3292.19 780.668 3228.66 796.547 3158.05 740.688C3113.92 774.791 3065.05 777.729 3015.1 754.764C2914.49 799.485 2880.34 751.825 2854.48 736.539C2809.19 771.852 2759.76 782.446 2706.81 757.134C2652.71 785.977 2598.01 776.519 2542.1 729.501C2486.19 805.362 2382.65 898.93 2346.17 898.362L2313.8 897.745C2281.42 897.177 2196.75 841.268 2152 804.227L2228.48 717.746L2202.57 694.213C2164.94 746.022 2079.65 789.509 2046.11 767.778L1923.72 685.397C1876.66 715.969 1846.06 773.037 1786.08 773.037C1738.42 774.247 1697.82 748.343 1667.82 730.686C1639 750.121 1627.22 771.309 1574.87 770.716C1500.16 769.506 1467.79 735.403 1452.5 683.619C1426.03 721.278 1391.31 774.247 1326.61 773.655C1268.95 772.445 1201.88 721.846 1203.07 668.308L1204.82 520.66L1064.85 518.906V518.906ZM1390.79 529.525L1391.39 605.387C1390.79 640.7 1414.33 655.986 1444.33 653.615L1446.08 530.093L1390.79 529.525V529.525ZM1447.86 370.073V300.064C1447.86 267.714 1424.3 253.589 1394.32 255.935L1393.14 369.48L1447.86 370.073V370.073Z"
    fill="#41403C"
  />
  <path
    fill-rule="evenodd"
    clip-rule="evenodd"
    d="M1198.99 473.023L1251.34 421.264L1253.1 272.43C1253.69 246.55 1224.87 218.892 1206.62 210.669C1220.75 188.296 1239.56 184.764 1256.63 185.357C1301.92 184.764 1337.23 236.549 1336.64 276.554L1334.88 418.918L1497.28 420.696L1499.03 285.962C1499.62 242.426 1476.09 228.325 1452.55 213.015C1464.33 196.544 1481.97 183.604 1506.68 183.604C1544.32 183.011 1587.29 244.797 1586.69 280.678L1582 624.227C1581.41 654.281 1604.94 692.483 1633.76 694.829C1619.66 714.856 1592 730.71 1566.69 725.401C1538.47 720.141 1498.44 696.039 1499.03 667.196L1501.38 473.64L1335.48 471.27L1333.11 644.823C1333.11 663.689 1367.23 688.952 1389.02 693.1C1376.08 710.115 1353.11 724.833 1321.95 724.833C1293.13 724.265 1249 698.978 1249 668.925L1251.96 473.616L1198.99 473.023V473.023ZM1637.29 433.018C1656.7 388.296 1748.49 331.82 1782.03 351.23C1816.75 372.418 1859.69 405.953 1889.67 438.895L1886.73 638.328C1868.48 679.518 1832.01 710.09 1795.54 723.647C1795.54 723.647 1786.72 724.808 1782 724.808C1720.81 713.622 1634.33 648.947 1634.92 590.1L1637.29 433.018ZM1950.27 457.12L1948.52 619.511C1947.93 640.674 2053.25 729.525 2079.13 725.993L2086.78 724.783C2119.13 711.276 2152.07 681.864 2183.26 652.429L2183.83 613.609H2176.18L2120.29 657.738H2110.29L2043.22 608.3C2068.53 594.742 2139.11 541.847 2173.83 492.408C2176.77 487.716 2180.89 481.222 2180.89 477.715C2185.02 437.71 2117.95 347.699 2094.41 350.045L2079.13 351.205C2049.1 351.823 1950.84 423.017 1950.27 457.12V457.12ZM2237.34 440.649C2256.78 395.927 2349.73 337.105 2382.08 355.329C2415.59 375.9 2460.31 406.496 2489.72 438.871L2486.19 706.534L2480.93 737.748L2342.02 853.022L2320.27 854.232L2231.47 801.855L2285.57 744.786L2349.09 774.79C2373.78 784.766 2386.75 760.072 2402.06 751.256L2400.28 685.371C2400.28 674.184 2358.52 717.153 2348.52 715.943C2300.29 705.374 2234.41 662.973 2234.97 598.298L2237.34 440.649V440.649ZM2558.57 433.586V412.423C2591.51 379.48 2624.5 358.292 2657.45 351.23C2660.98 353.008 2664.49 353.008 2668.58 353.008C2726.84 367.133 2787.41 405.36 2786.85 450.675L2784.48 636.599C2786.85 643.069 2789.19 649.515 2791.56 655.417C2801.54 667.196 2812.73 678.382 2823.94 691.298C2813.32 714.832 2795.66 726.611 2774.5 727.771C2745.66 726.043 2726.27 710.708 2709.77 694.261C2682.14 718.956 2656.81 730.142 2639.79 728.364C2568.6 708.979 2544.49 668.357 2545.06 607.213C2546.22 525.993 2617.99 494.828 2684.49 454.231C2676.24 427.758 2653.87 412.472 2621.54 413.633C2600.35 413.015 2578.6 427.709 2558.57 433.586ZM2864.51 431.833C2865.08 425.338 2865.08 416.547 2865.08 410.645C2898.02 377.11 2930.96 356.514 2963.34 349.477C2966.87 350.637 2971.02 350.637 2974.52 350.637C3032.78 365.331 3093.95 403.582 3093.35 448.304L3090.42 634.797C3093.35 640.674 3095.72 647.144 3098.1 653.614C3107.5 664.8 3118.69 675.987 3129.83 688.927C3119.85 712.461 3102.19 724.808 3080.44 725.401C3052.16 724.24 3032.21 708.954 3016.28 692.458C2988.65 717.202 2963.31 727.771 2945.73 726.611C2874.54 706.584 2850.39 666.603 2851 605.41C2852.16 524.24 2923.93 492.458 2990.43 451.86C2982.18 425.98 2959.81 410.669 2927.43 411.262C2906.27 411.237 2884.51 425.955 2864.51 431.833V431.833ZM3143.95 394.174C3137.48 385.358 3192.18 344.76 3203.37 344.76C3221.02 344.167 3239.25 371.825 3257.47 391.828L3306.91 352.415L3320.42 353.008C3341.63 353.008 3369.86 395.952 3395.76 416.547L3396.92 422.424L3343.95 465.368L3293.4 420.078L3269.82 418.3L3258.04 429.487L3255.1 651.885L3290.98 689.495C3278.07 707.152 3271.6 721.869 3236.88 721.277C3205.71 721.277 3170.99 683.025 3171.56 654.231L3174.5 430.647L3143.95 394.174V394.174ZM3512.84 262.972C3539.9 225.93 3624.58 214.151 3623.45 320.633L3619.35 637.735C3626.38 666.579 3633.47 674.209 3658.76 681.864C3648.19 705.991 3630.48 717.745 3609.32 718.906C3580.53 717.177 3560.5 709.497 3544.65 693.051C3517.01 717.745 3502.89 721.277 3485.8 720.116C3414.6 700.089 3379.32 630.697 3379.88 569.48C3381.04 488.309 3475.82 443.587 3542.28 402.99L3543.44 330.635C3544.05 287.123 3531.71 272.973 3512.84 262.972ZM3687.58 453.613L3685.8 616.572C3685.23 637.735 3790.5 726.586 3816.41 723.055L3824.09 721.845C3857.03 708.337 3889.97 678.926 3921.14 649.49L3921.71 610.67H3914.67L3857.6 654.799H3847.57L3780.53 604.793C3805.84 591.828 3876.47 538.908 3911.14 489.47C3914.67 484.16 3918.82 478.308 3918.82 474.184C3922.92 434.771 3855.25 344.76 3831.72 347.106L3816.43 348.267C3786.4 348.884 3688.15 420.053 3687.58 453.613V453.613ZM3952.33 390.074C3948.75 383.604 3987.59 347.723 4011.74 348.291C4035.28 348.291 4051.15 376.542 4071.16 388.889C4094.69 375.356 4125.26 347.131 4145.29 347.723C4178.8 348.291 4230.61 417.14 4230.61 427.141L4231.18 646.008C4238.81 662.455 4248.19 676.58 4264.69 686.581C4249.4 708.954 4229.97 721.301 4206.43 719.523C4180.53 716.585 4150.52 688.952 4151.17 658.948L4154.06 451.267C4154.06 435.364 4135.88 414.769 4121.73 414.769C4109.38 414.769 4066.42 442.427 4066.42 464.183L4063.48 660.084C4063.48 687.766 4012.88 718.338 3985.24 714.239L3989.34 431.833L3952.33 390.074V390.074ZM1722 440.056L1720.22 584.79C1727.28 621.264 1744.34 638.896 1777.88 653.046C1790.23 649.515 1804.35 646.008 1805.54 628.919L1807.88 470.084C1803.19 447.736 1793.17 430.079 1769.66 414.769C1749.65 407.706 1737.31 406.521 1722 440.056V440.056ZM2030.28 570.714L2031.44 447.736C2032.03 436.549 2038.5 423.017 2052.01 420.671L2065.55 421.264C2074.36 421.264 2111.43 476.554 2110.83 487.741V505.373L2030.28 570.714ZM2322.1 448.304L2320.32 589.507C2327.36 625.388 2344.49 637.167 2378 651.293C2390.92 647.712 2404.48 644.205 2406.23 626.549L2408.01 488.309C2403.29 465.343 2393.29 447.711 2369.76 432.401C2349.73 425.955 2337.97 414.769 2322.1 448.304V448.304ZM2696.27 489.494L2694.49 657.763H2677.99C2638.01 639.538 2616.26 617.14 2616.82 578.32C2617.42 525.943 2645.05 505.966 2696.27 489.494V489.494ZM3002.75 487.124L3000.43 655.985L2983.93 655.417C2944.52 637.76 2922.2 614.794 2922.76 575.974C2923.36 523.573 2950.99 504.188 3002.75 487.124ZM3541.68 458.305L3539.31 649.515L3522.82 648.947C3482.84 638.328 3459.3 628.351 3459.87 581.852L3460.44 529.524C3461.08 494.779 3504 470.085 3541.68 458.305V458.305ZM3767.59 567.134L3769.32 444.773C3769.32 433.586 3775.79 420.053 3789.34 417.707H3803.47C3811.72 418.275 3848.76 473.591 3848.76 484.778L3848.19 502.459L3767.59 567.134V567.134Z"
    fill="#F3B822"
  />
</svg>
