<svg xmlns="http://www.w3.org/2000/svg" height="1em" fill="none" viewBox="0 0 1540 312"><path fill="#fff" d="M460 66.25V30.5c0-3-.5-4.917-1.5-5.75-1-1-3-1.5-6-1.5h-25V73.5h25c3 0 5-.417 6-1.25 1-1 1.5-3 1.5-6Zm0 70.75V98.5c0-3-.5-4.917-1.5-5.75-1-1-3-1.5-6-1.5h-25v53h25c3 0 5-.417 6-1.25 1-1 1.5-3 1.5-6ZM405 5.5h54.25c15.667 0 23.5 7.333 23.5 22v39.75c0 8.833-3.333 14-10 15.5 6.667 1.667 10 6.5 10 14.5V140c0 14.667-7.833 22-23.5 22H405V5.5Zm125.045 138.25h45.25V162h-68V5.5h66.25v18.25h-43.5V72h36v18.25h-36v53.5Zm85.693 0h45.25V162h-68V5.5h66.25v18.25h-43.5V72h36v18.25h-36v53.5Zm85.444-45V162h-22.5V5.5h51.25c15.5 0 23.25 7.333 23.25 22v49c0 12.667-5.584 19.917-16.75 21.75l24.75 63.75h-24.25l-23.5-63.25h-12.25Zm0-75v57h22c3 0 5-.417 6-1.25 1-1 1.5-3 1.5-6V31c0-3-.5-4.917-1.5-5.75-1-1-3-1.5-6-1.5h-22Zm167.754 42.5V30.5c0-3-.5-4.917-1.5-5.75-1-1-3-1.5-6-1.5h-25V73.5h25c3 0 5-.417 6-1.25 1-1 1.5-3 1.5-6Zm0 70.75V98.5c0-3-.5-4.917-1.5-5.75-1-1-3-1.5-6-1.5h-25v53h25c3 0 5-.417 6-1.25 1-1 1.5-3 1.5-6Zm-55-131.5h54.25c15.666 0 23.5 7.333 23.5 22v39.75c0 8.833-3.334 14-10 15.5 6.666 1.667 10 6.5 10 14.5V140c0 14.667-7.834 22-23.5 22h-54.25V5.5Zm124.544 0h27.75c15.5 0 23.25 7.333 23.25 22V140c0 14.667-7.75 22-23.25 22h-27.75c-15.666 0-23.5-7.333-23.5-22V27.5c0-14.667 7.834-22 23.5-22Zm28.5 131V31c0-3-.5-4.917-1.5-5.75-1-1-3-1.5-6-1.5h-14.5c-3 0-5 .5-6 1.5-.833.833-1.25 2.75-1.25 5.75v105.5c0 3 .417 5 1.25 6 1 .833 3 1.25 6 1.25h14.5c3 0 5-.417 6-1.25 1-1 1.5-3 1.5-6Zm98.64-131h22.76V140c0 14.667-7.84 22-23.5 22h-27.75c-15.67 0-23.5-7.333-23.5-22V5.5h22.75v131c0 3 .5 5 1.5 6 1 .833 3 1.25 6 1.25h14.25c3.16 0 5.16-.417 6-1.25 1-1 1.49-3 1.49-6V5.5Zm111.37 0v18.25h-26.25V162h-22.5V23.75h-26.25V5.5h75Zm16.14 0h22.5V162h-22.5V5.5Zm72.74 156.5c-15.66 0-23.5-7.333-23.5-22V27.5c0-14.667 7.84-22 23.5-22h27.75c15.5 0 23.25 7.333 23.25 22V140c0 11.333-4.66 18.333-14 21l17.75 23.75h-24l-16.5-22.75h-14.25Zm-.75-131v105.5c0 3 .42 5 1.25 6 1 .833 3 1.25 6 1.25h14.5c3 0 5-.417 6-1.25 1-1 1.5-3 1.5-6V31c0-3-.5-4.917-1.5-5.75-1-1-3-1.5-6-1.5h-14.5c-3 0-5 .5-6 1.5-.83.833-1.25 2.75-1.25 5.75Zm127.9-25.5h22.75V140c0 14.667-7.84 22-23.5 22h-27.75c-15.67 0-23.5-7.333-23.5-22V5.5h22.75v131c0 3 .5 5 1.5 6 1 .833 3 1.25 6 1.25h14.25c3.16 0 5.16-.417 6-1.25 1-1 1.5-3 1.5-6V5.5Zm70.86 138.25h45.25V162h-68V5.5h66.25v18.25h-43.5V72h36v18.25h-36v53.5Z"/><path fill="#FFC123" d="M263.682 19.63c-3.394 0-6.718.676-9.805 1.977-4.074-3.268-9.041-5.287-14.359-5.784a27.088 27.088 0 0 0-11.026 1.228A40.959 40.959 0 0 0 195.22 0a40.958 40.958 0 0 0-33.281 17.063c-4.531-1.486-9.437-1.762-14.238-.75-11.209 2.36-19.646 11.65-20.996 23.119-.565 4.805.101 9.442 1.938 13.72a5.63 5.63 0 0 0-2.131 4.412v28.544c0 14.507 2.01 28.826 5.979 42.704a61.088 61.088 0 0 0-10.57-.92 60.575 60.575 0 0 0-30.481 8.186 60.612 60.612 0 0 0-30.47-8.186c-23.198 0-44.088 12.915-54.517 33.704a5.645 5.645 0 0 0 10.09 5.062c8.502-16.949 25.525-27.478 44.426-27.478a49.4 49.4 0 0 1 20.257 4.329 61.478 61.478 0 0 0-9.535 10.85 35.86 35.86 0 0 0-10.722-1.634c-19.917 0-36.12 16.202-36.12 36.119 0 18.699 6.737 36.818 18.732 51.011a51.983 51.983 0 0 1-9.704.913c-2.069 0-4.055.354-5.906.997a91.666 91.666 0 0 1-13.617-29.312 5.643 5.643 0 1 0-10.913 2.881c3.163 11.982 8.392 23.157 15.551 33.282a17.953 17.953 0 0 0-3.175 10.212c0 9.959 8.102 18.06 18.06 18.06 4.549 0 9.018-.347 13.383-1.015l.066.043A80.603 80.603 0 0 0 91.384 289c15.371 0 30.755-4.389 44.227-13.131a88.707 88.707 0 0 0 13.401 1.019 18.04 18.04 0 0 0 4.589-.592v7.016a5.644 5.644 0 0 0 5.644 5.644h96.977a5.643 5.643 0 0 0 5.643-5.644V210.64c0-20.821 4.386-40.981 13.035-59.921 9.326-20.422 14.055-42.16 14.055-64.61V44.904c.001-13.937-11.337-25.275-25.273-25.275Zm9.026 43.578h4.961v22.9c0 5.013-.26 9.984-.767 14.913H261.82V74.096c0-6.004 4.884-10.888 10.888-10.888ZM137.915 40.751c.783-6.65 5.65-12.033 12.111-13.393 3.973-.837 7.874-.242 11.283 1.72a5.645 5.645 0 0 0 7.778-2.206 29.692 29.692 0 0 1 26.133-15.585 29.693 29.693 0 0 1 26.129 15.578 5.644 5.644 0 0 0 7.778 2.204c2.817-1.622 6.046-2.317 9.34-2.008 3.988.373 7.628 2.206 10.248 5.161a5.644 5.644 0 0 0 7.316.976 13.918 13.918 0 0 1 7.65-2.28c7.713 0 13.987 6.274 13.987 13.987v7.016h-4.962c-12.227 0-22.175 9.947-22.175 22.175v30.947c0 4.891-3.978 8.869-8.869 8.869-4.89 0-8.869-3.978-8.869-8.869a5.644 5.644 0 0 0-11.288 0v38.537c0 4.891-3.978 8.87-8.869 8.87s-8.869-3.979-8.869-8.87V75.333c0-12.91-10.503-23.412-23.413-23.412h-39.487c-2.435-3.351-3.431-7.1-2.952-11.17Zm-.115 45.357v-22.9h42.554c6.687 0 12.126 5.44 12.126 12.125v25.688h-53.906c-.511-4.94-.774-9.913-.774-14.913Zm17.122 155.657a17.99 17.99 0 0 0-5.909-.998c-3.272 0-6.516-.316-9.692-.925 11.988-14.19 18.72-32.304 18.72-50.999 0-19.916-16.203-36.119-36.119-36.119a35.9 35.9 0 0 0-15.265 3.395l-.103.046c-12.251 5.785-20.752 18.255-20.752 32.679a51.614 51.614 0 0 1-8.234 28.029 76.885 76.885 0 0 1-5.311-28.029 49.36 49.36 0 0 1 6.535-24.605l.067-.118a50.05 50.05 0 0 1 15.667-16.681l.077-.05a49.368 49.368 0 0 1 27.318-8.21c27.385 0 49.664 22.279 49.664 49.664.001 19.155-5.748 37.353-16.663 52.921Zm-38.072-77.231a24.86 24.86 0 0 1 5.071-.522c13.693 0 24.832 11.139 24.832 24.832 0 17.608-6.97 34.623-19.237 47.23a52.14 52.14 0 0 1-14.11-9.479c5.456-11.448 8.514-24.248 8.514-37.751a60.879 60.879 0 0 0-5.07-24.31Zm-80.712 24.309c0-13.692 11.14-24.832 24.832-24.832 1.722 0 3.412.18 5.063.523a60.608 60.608 0 0 0-5.063 24.309 88.135 88.135 0 0 0 8.523 37.749 52.108 52.108 0 0 1-14.097 9.503c-12.28-12.61-19.258-29.634-19.258-47.252Zm-9.032 69.984a6.78 6.78 0 0 1 6.772-6.772c18.363 0 34.92-7.874 46.48-20.42l.06-.063c10.345-11.26 16.671-26.268 16.671-42.729 0-7.923 3.735-14.985 9.531-19.535a49.626 49.626 0 0 1 4.014 19.535c0 42.324-34.432 76.757-76.756 76.757a6.78 6.78 0 0 1-6.772-6.773ZM63.37 271.8a87.709 87.709 0 0 0 16.295-7.782 42.129 42.129 0 0 0 11.773 1.685c3.965 0 7.93-.566 11.768-1.681a87.127 87.127 0 0 0 16.259 7.779c-17.897 7.86-38.258 7.87-56.095-.001Zm36.142-24.34a88.74 88.74 0 0 0 8.242-10.774c11.419 9.837 26.089 15.369 41.259 15.369a6.78 6.78 0 0 1 6.773 6.773 6.78 6.78 0 0 1-6.773 6.772c-18.277 0-35.651-6.404-49.501-18.14Zm65.378 30.207V267.43a17.93 17.93 0 0 0 2.071-6.613 19.638 19.638 0 0 0 6.23 1.013h69.088c2.966 0 5.778-.666 8.3-1.851v17.689H164.89v-.001Zm99.744-131.637c-9.326 20.422-14.055 42.16-14.055 64.61v31.602c0 4.577-3.723 8.3-8.3 8.3H173.19a8.285 8.285 0 0 1-7.44-4.622c11.224-16.949 17.123-36.521 17.123-57.077 0-25.247-15.43-46.957-37.355-56.197a144.047 144.047 0 0 1-5.317-20.339h52.279v31.273c0 11.114 9.042 20.156 20.156 20.156 11.115 0 20.157-9.042 20.157-20.156v-20.439a20.032 20.032 0 0 0 8.87 2.058c8.553 0 15.874-5.358 18.796-12.892h14.825a143.645 143.645 0 0 1-10.65 33.723Z"/><path fill="#FFC123" d="M227.79 185.967c1.49 0 2.941-.604 3.99-1.654a5.683 5.683 0 0 0 1.654-3.99c0-1.49-.604-2.94-1.654-3.99a5.677 5.677 0 0 0-3.99-1.653 5.69 5.69 0 0 0-3.99 1.653 5.678 5.678 0 0 0-1.654 3.99c0 1.485.604 2.941 1.654 3.99a5.676 5.676 0 0 0 3.99 1.654Zm-8.794 13.818c-9.336 0-16.931 7.595-16.931 16.931 0 9.336 7.595 16.931 16.931 16.931 9.336 0 16.931-7.595 16.931-16.931 0-9.336-7.595-16.931-16.931-16.931Zm0 22.575a5.65 5.65 0 0 1-5.644-5.644 5.65 5.65 0 0 1 5.644-5.644 5.65 5.65 0 0 1 5.644 5.644 5.65 5.65 0 0 1-5.644 5.644ZM9.634 192.833a5.685 5.685 0 0 0 1.653-3.99 5.69 5.69 0 0 0-1.653-3.99 5.69 5.69 0 0 0-3.99-1.654c-1.485 0-2.94.604-3.99 1.654A5.687 5.687 0 0 0 0 188.843c0 1.485.604 2.94 1.654 3.99a5.664 5.664 0 0 0 3.99 1.654 5.669 5.669 0 0 0 3.99-1.654Z"/><path fill="#fff" fill-opacity="0.42" d="M417.562 289h-8.753v-46.033h-15.747v-7.507h40.247v7.507h-15.747V289Zm70.71 0h-8.789v-24.133h-24.682V289h-8.753v-53.54h8.753v21.899h24.682V235.46h8.789V289Zm48.885 0h-30.285v-53.54h30.285v7.397h-21.533v14.576h20.178v7.324h-20.178v16.809h21.533V289Zm40.092-53.54h15.893c7.373 0 12.695 1.074 15.967 3.223 3.296 2.148 4.944 5.542 4.944 10.18 0 3.125-.806 5.725-2.417 7.801-1.612 2.075-3.931 3.381-6.958 3.918v.366c3.76.708 6.518 2.112 8.276 4.212 1.782 2.075 2.673 4.895 2.673 8.459 0 4.81-1.684 8.582-5.053 11.316-3.345 2.71-8.008 4.065-13.99 4.065h-19.335v-53.54Zm8.752 22.119h8.423c3.662 0 6.335-.574 8.02-1.721 1.684-1.172 2.527-3.15 2.527-5.933 0-2.514-.916-4.333-2.747-5.456-1.807-1.123-4.687-1.685-8.642-1.685h-7.581v14.795Zm0 7.105v16.955h9.302c3.662 0 6.421-.696 8.276-2.087 1.88-1.416 2.82-3.638 2.82-6.665 0-2.783-.952-4.846-2.857-6.189-1.904-1.343-4.797-2.014-8.679-2.014h-8.862ZM661.546 289H631.26v-53.54h30.286v7.397h-21.533v14.576h20.178v7.324h-20.178v16.809h21.533V289Zm46.98-14.539c0 4.761-1.721 8.497-5.163 11.206-3.443 2.71-8.191 4.065-14.246 4.065s-11.011-.94-14.868-2.819v-8.277a40.455 40.455 0 0 0 7.764 2.71c2.758.659 5.322.989 7.69.989 3.467 0 6.018-.659 7.654-1.978 1.66-1.318 2.49-3.088 2.49-5.31 0-2.002-.757-3.698-2.27-5.09-1.514-1.392-4.639-3.04-9.375-4.944-4.883-1.977-8.326-4.236-10.327-6.775-2.002-2.539-3.003-5.591-3.003-9.155 0-4.468 1.586-7.983 4.76-10.547 3.174-2.563 7.434-3.845 12.781-3.845 5.127 0 10.23 1.123 15.308 3.369l-2.783 7.141c-4.761-2.002-9.009-3.003-12.745-3.003-2.832 0-4.98.623-6.445 1.868-1.465 1.221-2.197 2.844-2.197 4.871 0 1.391.293 2.587.879 3.588.586.977 1.55 1.905 2.893 2.784 1.343.879 3.76 2.038 7.251 3.479 3.93 1.635 6.811 3.161 8.642 4.577 1.831 1.416 3.174 3.015 4.029 4.798.854 1.782 1.281 3.881 1.281 6.298ZM741.884 289h-8.753v-46.033h-15.747v-7.507h40.247v7.507h-15.747V289Zm75.247-46.802c-5.029 0-8.984 1.782-11.865 5.347-2.881 3.564-4.321 8.484-4.321 14.758 0 6.568 1.379 11.536 4.138 14.905 2.783 3.369 6.799 5.054 12.048 5.054 2.271 0 4.468-.22 6.592-.659a81.636 81.636 0 0 0 6.629-1.758v7.507c-4.2 1.587-8.96 2.38-14.283 2.38-7.837 0-13.855-2.368-18.054-7.104-4.199-4.761-6.299-11.56-6.299-20.398 0-5.566 1.013-10.437 3.04-14.612 2.051-4.175 5.005-7.373 8.862-9.595 3.858-2.221 8.386-3.332 13.587-3.332 5.468 0 10.522 1.147 15.161 3.442l-3.15 7.288a44.576 44.576 0 0 0-5.749-2.234c-2.002-.659-4.114-.989-6.336-.989Zm38.009 18.164h6.079c4.077 0 7.031-.757 8.862-2.27 1.831-1.514 2.747-3.76 2.747-6.738 0-3.028-.989-5.201-2.967-6.519-1.977-1.318-4.956-1.978-8.935-1.978h-5.786v17.505Zm0 7.251V289h-8.753v-53.54h15.125c6.909 0 12.024 1.294 15.344 3.882 3.32 2.588 4.98 6.494 4.98 11.719 0 6.665-3.466 11.413-10.4 14.245L886.561 289H876.6l-12.818-21.387h-8.642ZM932.076 289l-5.347-14.868h-20.471L901.021 289h-9.228l20.032-53.76h9.521L941.378 289h-9.302Zm-7.654-22.412-5.017-14.575c-.366-.977-.879-2.515-1.538-4.615-.635-2.099-1.074-3.637-1.318-4.614-.659 3.003-1.624 6.287-2.893 9.851l-4.834 13.953h15.6ZM961.625 289h-8.679v-53.54h30.212v7.397h-21.533v16.736h20.178v7.434h-20.178V289Zm54.235 0h-8.76v-46.033h-15.743v-7.507h40.243v7.507h-15.74V289Zm52.47-53.54h15.89c7.37 0 12.69 1.074 15.97 3.223 3.29 2.148 4.94 5.542 4.94 10.18 0 3.125-.81 5.725-2.42 7.801-1.61 2.075-3.93 3.381-6.96 3.918v.366c3.76.708 6.52 2.112 8.28 4.212 1.78 2.075 2.67 4.895 2.67 8.459 0 4.81-1.68 8.582-5.05 11.316-3.34 2.71-8.01 4.065-13.99 4.065h-19.33v-53.54Zm8.75 22.119h8.42c3.66 0 6.34-.574 8.02-1.721 1.69-1.172 2.53-3.15 2.53-5.933 0-2.514-.92-4.333-2.75-5.456-1.81-1.123-4.69-1.685-8.64-1.685h-7.58v14.795Zm0 7.105v16.955h9.3c3.66 0 6.42-.696 8.28-2.087 1.88-1.416 2.82-3.638 2.82-6.665 0-2.783-.96-4.846-2.86-6.189s-4.8-2.014-8.68-2.014h-8.86ZM1152.62 289h-30.28v-53.54h30.28v7.397h-21.53v14.576h20.18v7.324h-20.18v16.809h21.53V289Zm46.4 0h-30.29v-53.54h30.29v7.397h-21.54v14.576h20.18v7.324h-20.18v16.809h21.54V289Zm24.86-28.638h6.08c4.08 0 7.03-.757 8.86-2.27 1.83-1.514 2.75-3.76 2.75-6.738 0-3.028-.99-5.201-2.97-6.519-1.98-1.318-4.96-1.978-8.93-1.978h-5.79v17.505Zm0 7.251V289h-8.75v-53.54h15.12c6.91 0 12.02 1.294 15.35 3.882 3.32 2.588 4.98 6.494 4.98 11.719 0 6.665-3.47 11.413-10.4 14.245L1255.3 289h-9.96l-12.82-21.387h-8.64Zm67.7 21.387v-53.54h8.75V289h-8.75Zm72.03 0h-10.73l-26.33-42.664h-.29l.18 2.381c.34 4.541.51 8.691.51 12.451V289h-7.94v-53.54h10.62l26.25 42.444h.22c-.04-.562-.14-2.6-.29-6.116-.14-3.54-.22-6.299-.22-8.276V235.46h8.02V289Zm87.22 0h-10.73l-26.33-42.664h-.29l.18 2.381c.35 4.541.52 8.691.52 12.451V289h-7.95v-53.54h10.62l26.26 42.444h.22c-.05-.562-.15-2.6-.3-6.116-.14-3.54-.22-6.299-.22-8.276V235.46h8.02V289Zm33.76-29.114 12.68-24.426h9.52l-17.84 32.776V289h-8.79v-20.471l-17.76-33.069h9.52l12.67 24.426Z"/></svg>