<svg
  xmlns="http://www.w3.org/2000/svg"
  width="2427"
  height="1161"
  viewBox="0 0 2427 1161"
  fill="none"
>
  <path
    fill-rule="evenodd"
    clip-rule="evenodd"
    d="M2336.41 251.548C2315.28 251.548 2298.77 266.32 2298.77 287.876C2298.77 309.419 2315.39 324.114 2336.41 324.114C2357.43 324.114 2374.05 309.328 2374.05 287.876C2374.05 266.333 2357.51 251.548 2336.41 251.548ZM2336.41 313.816C2321.34 313.816 2310.15 302.778 2310.15 287.889C2310.15 272.987 2321.23 261.872 2336.41 261.872C2351.38 261.872 2362.67 273.156 2362.67 287.889C2362.67 302.519 2351.3 313.816 2336.41 313.816ZM1350.05 181.978C1329.98 210.978 1321.05 248.902 1347.81 264.531C1374.58 280.159 1403.57 264.531 1421.41 244.453C1439.26 224.376 1448.17 181.991 1430.34 164.132C1412.48 146.272 1372.34 144.042 1350.05 181.978Z"
    fill="#41403C"
  />
  <path
    fill-rule="evenodd"
    clip-rule="evenodd"
    d="M2326.02 8.93616L2254.58 89.3357C2243.42 100.503 2243.42 100.503 2247.89 82.6304L2263.52 35.7317L2156.34 64.771C2156.34 64.771 2111.71 189.851 2093.85 230.058C2062.59 294.829 2003.22 365.293 1962.15 384.164C1920.83 403.152 1906.34 370.767 1906.34 343.958C2058.13 279.187 2060.36 174.21 2055.9 154.107C2051.44 125.08 2023.9 98.5961 1942.06 140.709C1863.92 180.915 1809.23 292.585 1803.65 350.663C1785.79 399.806 1741.14 448.948 1729.98 448.948C1718.81 448.948 1707.66 453.41 1721.05 408.742L1868.37 0L1758.98 35.7446C1758.98 35.7446 1638.45 350.676 1611.66 417.678C1584.89 484.68 1546.94 517.066 1526.85 520.425C1512.92 522.746 1511.22 518.194 1522.36 482.449L1676.4 62.5402L1562.54 100.516C1562.54 100.516 1433.08 419.909 1406.3 495.847C1379.5 571.785 1343.78 576.247 1332.63 578.477C1321.46 580.721 1310.28 574.016 1323.69 533.823L1399.59 330.573L1290.2 364.074C1290.2 364.074 1238.86 495.86 1209.86 560.631C1180.83 625.402 1138.42 664.493 1103.81 664.493C1083.72 664.493 1088.19 642.159 1099.35 601.953L1235.52 264.687C1275.73 159.71 1206.51 65.8993 1179.73 43.5654L985.504 198.788C983.274 151.889 945.324 97.1565 927.465 79.2971L699.767 262.443C684.139 213.301 655.126 168.633 614.932 128.427C501.084 41.3216 351.075 35.9651 175.166 123.965C-12.3375 217.762 -10.1067 391.985 7.75269 427.717C72.4978 613.094 271.169 561.734 318.041 541.63C465.378 481.334 465.378 333.907 456.442 287.008L271.156 385.293C293.477 438.897 251.065 485.808 217.578 499.206C184.09 512.604 85.8696 514.848 56.8433 414.332C27.8299 313.829 99.2544 217.788 224.27 161.953C349.285 106.119 467.596 132.914 532.328 204.39C597.06 275.867 576.97 389.767 518.93 519.322C460.89 648.877 244.347 1006.23 226.501 1035.27L429.646 968.271C472.057 899.025 641.715 572.939 675.203 481.36C695.137 426.822 704.216 360.741 701.985 311.612L801.321 231.199C830.334 262.469 820.296 327.24 809.142 358.51C777.884 512.617 614.919 863.294 585.906 912.423L766.717 849.896C791.282 827.549 925.221 490.283 945.311 416.589C962.029 355.255 981.03 304.906 981.03 253.533L1075.9 176.48C1111.61 196.583 1088.19 291.496 1074.79 322.766C1074.79 322.766 989.953 528.259 958.709 608.658C927.452 689.071 943.08 767.252 1007.83 771.701C1106.05 767.239 1178.6 665.608 1198.69 643.287C1207.61 663.391 1231.81 695.789 1265.66 685.711C1306.96 673.429 1357.19 627.633 1386.22 600.837C1399.59 614.235 1412.99 638.813 1448.71 627.633C1502.28 614.235 1564.8 547.233 1584.89 527.13C1600.52 553.926 1607.21 567.336 1665.24 547.233C1723.26 527.13 1782.44 451.192 1807 419.922C1807 440.025 1857.15 482.216 1906.34 466.834C1959.92 450.077 2032.48 370.793 2054.78 343.984L2039.16 402.063L2138.5 373.023C2138.5 373.023 2189.82 234.545 2223.31 172.005C2253.96 114.769 2270.2 142.966 2279.12 154.133C2288.06 165.3 2296.98 174.236 2323.78 172.005C2379.59 167.543 2410.84 109.465 2426.47 80.4255C2341.65 80.4125 2339.42 40.2063 2326.02 8.93616V8.93616ZM1977.96 183.989C2002.55 168.322 2005.29 182.225 2000.34 196.31C1993.62 215.337 1974.6 259.006 1933.21 283.636C1922.04 288.11 1922.04 281.405 1922.04 275.802C1929.86 247.813 1953.33 199.67 1977.96 183.989V183.989ZM2358.77 382.945L2358.64 382.971L182.404 1153.14L182.183 1153.61L186.787 1160.24L187.968 1159.83C643.725 989.308 1230.96 863.371 1545.2 942.487C1694.54 748.563 2129.1 484.408 2360.88 391.907H2360.91L2358.77 382.945V382.945ZM2342.84 290.445C2348.16 290.173 2352.3 287.436 2352.3 280.095C2352.3 270.64 2346.11 268.254 2335.79 268.254H2320.94V307.513H2330.85V290.795H2332.52L2341.53 307.513H2352.93L2342.84 290.445ZM2336.47 284.103H2330.85V275.05H2335.58C2338.5 275.05 2341.83 275.4 2341.83 279.187C2341.84 283.221 2339.92 284.103 2336.47 284.103V284.103Z"
    fill="#41403C"
  />
</svg>
