<svg xmlns="http://www.w3.org/2000/svg" width="385" height="341" fill="none" viewBox="0 0 385 341"><path fill="#2C2321" fill-rule="evenodd" d="M289.772 190c.512 0 .171.46.512.46 0 .229-.341.229-.682.229 0-.229.341-.229.17-.689Zm-39.763 2.757c0 .23-.171.23-.171.69-.682 0-.682.459-.682 1.148-.342 0-.512-.229-.683-.459.171-.23.683-.46.341-.919.512 0 .512-.46 1.195-.46Zm6.144 0c.341 0 .512.23.512.46-.342.23-.512 0-.512-.46Zm-17.066 1.15c-.512 0-.342-.23-.853 0 0-.46 1.023-.23.853 0Zm9.727.917c.342 0 .342.23.512.23 0 .23-.853 1.149-1.024.459-.341 0-.17.46-.512.23-.341-.23 0-.459.171-.689.171 0 .341.23.341.23.342 0 .342-.23.512-.46Zm74.408 7.813c-.342-.459-.342-.919-.854-1.378.512 0 .171-.23 0-.23.683-.459.171-1.378 1.195-1.608.171.459 1.024 1.608.171 2.068.17 0 .341.229.341.689-.683 0-.853 0-.853.459Zm-.342-1.148c.512 0 .512-.23.512-.46-.17 0-.17-.23-.341 0-.341.23 0 .23-.171.46Zm-87.889-.23h.341c0 .459-.17.459-.512.459-.17-.23.342 0 .171-.459Zm85.841 1.148c.342.23-.512.69 0 1.149-.682 0-.17.689-.853.689a5.495 5.495 0 0 1 .853-1.838Zm6.997.92c.342.23.512-.23.683 0 0 .459-.171 0-.341 0 .341.919 0 2.527-1.366 2.297 0-.459.683-.229.854-.459v-.46c-.512 0-.854.23-1.195 0 0-.459.683-.229.341-.689.512.23.683-.459 1.024-.689Zm10.923 2.756c1.365 0 .853 1.608 1.877 1.608.17.689-.683.689-.341 1.379.511 0 .682-.23 1.023 0-.17.229 0 .689-.341.689-.683-.23-.683.23-1.195.23 0 .459.342 1.378 0 2.068-.17 0-.682-.23-.682 0-.341-.23-.341-.46-.341-.919h.341c-.512-.92-.853-3.677-.341-5.055Zm-10.069.689c.341.23.17 1.149-.342 1.378.683.46 2.56-.229 2.902.919-.342 0-1.195-.229-1.536-.689-.342 0-.512.23-.683.46-.512.229-.512-.46-1.195-.23.171-.919.683-1.149.854-1.838Zm-1.536.23c0 .23-.683 0-.512.23 0 .23.512 0 .512.23-.342.459 0 .919 0 1.378-1.195.23-.512.919-1.536 1.379.341-.919.341-1.608.853-2.527-.341-.46 0-1.149.683-.69Zm-95.569.689c.341 0 .512.23.682.46-.17.23-.341.689-.341 1.149-1.365-.23-.512-1.149-.341-1.609Zm1.877.23c.512 0 .341.459.512.689-.341.23-.683.459-.683.919-.341 0 .171-.689-.341-.919.512-.23.341-.46.512-.689Zm94.716.919c.17.23-.171.46.512.46-.342.459-.512 1.149-.171 1.378-.171.23-1.024.23-1.195 0 0-.459.342-1.378.854-1.838Zm8.874.461c-.171.229-.853.229-.683-.23.171 0 .683 0 .683.23Zm-106.15.459c.512 0 1.024.23 1.195.689-.342.23-.512.46-1.024.46 0 .229.341.229.341.229 0 .23-.171.46-.512.46-.512-.689.341-.919 0-1.838Zm104.614.229c.341.23 1.024 0 1.024.46-.341-.23-.341.229-1.024 0v-.46Zm-102.566.231h.341v.459h-.341c-.341 0 0-.459 0-.459Zm101.713.459c0 .23-.512.229-.342.689-.17-.23-.853 0-1.024 0-.17 0-.17-.23-.17-.459.853.459 1.024-.69 1.536-.23Zm-10.41-.001h.512c.17.459-.854.459-.512 0Zm11.604 0h.512c0 .23-.17.23-.17.459-.171 0-.342 0-.342-.459Zm-.341.46c.512 0 .341.229.853.229-.171.23-1.024.23-.853-.229Zm2.56.46c0 .229.341.229.17.459-.511 0-.341-.459-.853-.23 0-.229.341-.229.683-.229Zm-2.389.459c.17 0 .512 0 .341.46h-.341v-.46Zm-8.704.46c.512.23.683.23 1.195.23-.171.23-.683.23-.854.689-.341 0-.17-.459-.512-.229.342-.23 0-.46.171-.69Zm13.994 0c.512 0 .512.46.853.46 0 .23-.682.23-1.024.23-.341-.23-.17-.69.171-.69Zm-12.117.229c.512.23.683 0 1.195 0-.171.46-.853.23-1.195.69-.17 0 .171-.46 0-.69Zm4.608.46c0 .23 0 .23.171.23-.171.459-.853.23-1.024 0 .341 0 .512-.23.853-.23Zm-5.973.69c0 .229-.853.229-.682 0 .341-.46.511-.23.682 0Zm17.066 2.297c-.683-.23-.853 0-1.536 0 .171-.46.171-1.379-.171-2.068.683-.23 1.536-.46 2.219 0-.341.689.341 1.378-.512 2.068Zm-14.165-2.298c0-.23.342 0 .512 0v.46c-.341-.23-.341-.46-.512-.46Zm5.973 1.378c.512 0 .683.459 1.195.459-.171.46-.853.46-1.024.92-.853 0-.341-.919-.512-1.379h.341Zm3.755.69c0 .459-.683.459-.683.919-.341-.23-.512 0-1.195 0-.17-.46.171-.46.171-.919.341-.46 1.024-.23 1.707 0Zm3.584.459-.171.23h-.512c0-.23.341-.23.683-.23Zm-7.168.46c.683.459 1.707.229 2.73.229-.853.46-2.218 1.379-3.413.69.171-.46.683-.69.683-.919Zm-149.327 1.608c.512 0 .171.46.512.46-.511.229-.511.919-.853 1.148-1.365-.459.853-.919.341-1.608Zm-1.023 1.609c.341 0 .341.229.512.229.17.69-.171.92-.171 1.609-1.024-.23-1.024-.689-1.707-.689-.17-.23.342-.46 0-.46.342-.23 1.195-.23 1.366-.689Zm-5.12 7.351c.17-.229.853 0 .682.23h-.512s0-.23-.17-.23Zm2.73 2.758c-.341-.23-.341 0-.853 0 .341 0 .512-.23.853-.23v.23Zm-8.021.23c.342 0 .512.459.512.689-.17 0-.682-.459-.512-.689Zm2.39.688c0 .23-.512.23-.854.23-.17 0-.17-.23-.17-.459.341-.23.682 0 1.024.229Zm183.287.231c.341 0 .341.23.683 0-.512.23-.342.23-.342.69-1.365.689-1.024 2.297-2.559 2.757 0-.919.853-1.838 1.877-2.298-.171-.919.512-.689.341-1.149Zm18.943.918h.342c-.342.69-.171 1.609-1.366 1.609.512-.46.683-1.149 1.024-1.609Zm-19.284 2.529c-.342.229 0 .459-.854.459.171 0 .171-.23.171-.459.341 0 .341-.23.683 0Zm-3.414 1.837c-.341-.459.001-.919.342-1.148.512 0 .341.229 1.024.229-.171.46-.512.69-.683.919-.341 0-.341-.229-.683 0Zm16.555-.919h.341c0 .23-.171.459-.683.459.171 0 .512 0 .342-.459Zm-14.506.46c0 .229-.342.459.17.459-.17.23-.512.23-.853.23 0-.46.171-.689.683-.689Zm18.772 0c0 .229 0 .459-.341.459-.171-.23-.171-.459.341-.459Zm-15.018.919c.512 0 0 .46.512.46-.171.229-.171.689-.341.919-.342 0-.512-.23-.683-.23 0-.459.341-.689.171-1.149.17.23.341.23.341 0Zm-.512 1.378c.171.46 0 1.149-1.024.919v-.689c.853.23.512-.23 1.024-.23Zm-2.218.92c.682.23-.513.459 0 .459 0 .23-.342 0-.513 0 0-.229.342-.229.513-.459Zm18.772 1.149c.512 0 .341.689.171.919-.683-.23 0-.69-.171-.919Zm-33.108 0c.171.459-.853.459-.853 0h.853Zm6.314.229c.171 0 .683-.23.683 0 .171.459-1.024.459-.683 0Zm29.354 0c.512 0 0 .459 0 .689-.512-.23 0-.46 0-.689Zm-206.668.689-.171.23c-.512 0-.853.23-1.194 0 .341-.23.853-.459 1.365-.23Zm203.084.919c.853.23 0 1.379-.341 1.609-.342 0-.171-.23-.342-.23 0-.46.854-.46.683-1.379Zm6.144 0c.512 0 .17.46.341.919-.512 0-.512.23-.341.46-.342-.23-.683-.23-.512-.46.17 0 .341-.229.682 0-.17-.459-.341-.459-.17-.919Zm-1.195 1.838c.341 0 .171.23.341.23-.341.23-.682.23-.341.689-.853.23-.341-.689 0-.919Zm-4.608 1.149h.342c-.171.23-.512.459-.854.229 0 0 .342.001.512-.229Zm4.267.46c-.171.46.17.23.17.689-.341 0-.17.23-.512.23.342.23.171.46 0 .689-.682.23-.341-.459-.853-.229.341-.69.171-1.609 1.195-1.379Zm-3.755 3.216c-.341.23-.341 0-.512 0 0-.459.512-.459.512 0Zm1.024 1.609c.171 0 .342.23.512 0 0 .46-.17.919-.853 1.149.171-.459.341-.689.341-1.149Zm-3.072.918c.171 0 .854.69.512.919-.682 0-.682-.459-.512-.919Zm.683 2.988c.171-.23 1.024-.23.853.229-.512.23-.341-.229-.853-.229Zm-3.925.23c.341 0 .682 0 .512.229-.341.23-.512 0-.512-.229Zm2.901 1.608c.683 0 .171.23.341.689-.341 0-.17-.459-.341-.689Zm-2.731.918c0 .23-.341.23-.341.46-.171 0-.341-.23-.341-.46h.682Zm-204.619 4.137h.341c0 .23-.341.23-.683.23.171 0 .342 0 .342-.23Zm-10.581 4.365c0 .23 0 .23 0 0-.171.23-.341.23-.341.23-.512 0 .17-.459.341-.23Zm1.877.459c0-.229.683 0 .853 0-.17.46-.682.23-.853 0Zm213.153 5.055c-.342.23-.342.23-.171.46-.341 0-.512 0-.341-.23h-.342c-.512 0 .512-.23.854-.23Zm-1.195 1.379c-.682.23-1.194-.229-1.706 0-.171-.919 1.536-.459 1.706 0Zm-215.2-.001c0 .46-.171.689-.683.689 0-.459.171-.689.683-.689Zm218.784 2.988c-.512.229-2.218 0-3.072.229.683-.229 2.731-1.148 3.072-.229Zm-216.566 1.378c-.341.23-.512 0-1.024 0 0-.459 1.195-.689 1.024 0Zm206.839-.229h.341c0 .23-.171.23-.171.46-.17-.23-.341-.23-.17-.46Zm-205.132 4.136c.17.459-.171.459-.342.689-.682-.23-1.535 0-1.706-.689.683-.23 1.536-.23 2.048 0Zm5.29-.001a1.12 1.12 0 0 1-1.194 0c.341 0 .853-.23 1.194 0Zm-4.778 1.838c-.171.23-.854.459-.854 0 .342-.23.342 0 .854 0Zm201.548.231c-.342.689-.171.919-.342 1.838-.512 0-.682.23-1.024.459-.512-.229-1.194-.229-1.194-.919.341-.229.682 0 1.194 0 .512-.229.683-.919.342-1.378.512.229.853 0 1.024 0Zm-195.234.688c-.171.23-1.024.23-1.194 0 0-.459 1.365-.459 1.194 0Zm1.024.46c0 .229-.683.229-1.536.229-.171-.459 1.195-.459 1.536-.229Zm191.138 1.838c.171.46-.683.46-.512 0h.512Zm-1.365 1.609c0 .459-.171.459-.683.459-.171 0-.171-.229-.171-.459h.854Zm-1.536 1.378c0 .459 1.024.459 1.536.919-.342.459-.854.689-1.878.689-.341-.46-.341-1.379.342-1.608Zm-.683 2.069c0 .459-.683.459-.512.919-.683 0-1.195 0-1.365-.23 0-.46.512-.23.853-.46.171-.229-.171-.229-.171-.689.512-.23.683.23 1.195.46Zm-1.365 1.377h.341c0 .23 0 .46-.341.46-.171-.23 0-.23 0-.46Zm-2.048 1.838c0 .23.171.23.171.459-.512 0-.342.46-.854.23 0-.23-.341-.23-.341-.459.341 0 .341-.23 1.024-.23Zm-3.413.919c.341 0 .682 0 .682.46-.17 0-.512 0-.682-.46Zm-166.393 1.838c.342 0 .342.23.683 0 0 .23-.171.689-.512.46.512-.23-.171-.23-.171-.46Zm165.198 4.595c.341-.459.683.46 0 .46-.512 0 .341-.23 0-.46Zm-4.608 6.204h.342c.17.23 0 .23-.342 0 .171.459.512.689.342.919-.512 0-.171-.23-.683-.459l.171-.23c.17 0 .17.229.17-.23Zm-110.245 9.65c0 .23-.171.689.17.689-.682.919-1.365-.689-.17-.689Zm106.661.689c.342.23.171.919-.341.919.171-.46.341-.689.341-.919Zm-1.024 2.299c-.341.459-1.023.919-1.877.459.171-.229.683-.459 1.024-.459-.17 0-.17-.23-.341-.23.341-.23.853 0 1.194.23Zm-131.065 2.067c.17 0 .341.23.511.23-.17.229-.853.459-1.194.229 0-.229.683-.229.683-.459Zm13.14 1.608c-.17.23-.682.46-1.365.46 0-.46.683-.46 1.365-.46Zm-2.56 0c.171 0 .342.23.342.23-.342 0-.171.46-.683.23 0 0 .512 0 .341-.46Zm75.431 4.825c.342.229.512 0 1.195 0 0 .459-.512.459-.683.689-.17-.23-.512-.46-.512-.689Zm-5.29.69c-.17 0-.341 0-.341-.23-.341 0-1.365.23-1.195-.23.342 0 1.366 0 1.536.46Zm7.509-.231c.853.23.853 1.149 1.707 1.379-.171.23-1.024.23-1.366.23 0-.46.001-.919-.511-1.149-.342-.23.17 0 .17-.46Zm-4.437.689c.512 0 .683.23.853.23.171.46-.853.23-1.024.46-.512-.23.171-.46.171-.69Zm1.536 1.38h.341v.23c-.341 0-.341.229-.682 0-.342-.23.341 0 .341-.23Zm12.117 1.149c.512 0 .512 1.149-.171 1.149-.341-.46 0-.92.171-1.149Zm5.12 1.837c.511 0 .511.23.511.69-.512 0-.853-.46-.511-.69Zm-72.701.231c.512 0 .682.23 1.194.23.171.689-.512.919-.341 1.378.683 0 .683-.459.853-.919.854-.229.854.46 1.024.919-.682.69-2.048.46-2.56 1.379-1.023-.46-1.877.459-2.901 0 0-.23 0-.23-.17-.23.341-.459 1.877-.23 2.73-.23.171 0 .171-.229.341-.229-.17-.46-1.194 0-1.365-.46 0-.459.683-.459 1.365-.459.171-.69-.341-.919-.17-1.379Zm45.907.229c.512.23.683.46 1.365.46-.341.459-.853.459-1.536.459-.17.23.342.46 0 .46-.341-.69-1.877.459-2.048-.46.854.23 1.366-.23 2.219 0-.171-.459 0-.459 0-.919Zm-35.838 2.987c-.171.46-2.048.46-2.219 0 .854-.23 1.536-.23 2.219 0Zm3.754.919c-.341.46-1.706.69-1.194 1.379-.342 0-.854-.23-1.195.23-.341 0-.512-.46-.683-.69-.341.46-1.194.46-1.877.46 0-.23-.341-.46-.512-.46 0 .23-.683 0-.683.23.171-2.068 4.267-.459 6.144-1.149Zm11.946.918c.171.23.683.46.854.69h-.854v-.69Z" clip-rule="evenodd"/><path fill="#2C2321" fill-rule="evenodd" d="M231.578 202.867c-.171 0 .341-.23.682 0 .171 0 .171-.23.342-.46 0-.229-.512 0-.683 0 1.195-.689 1.024-2.067 2.048-2.987.512 0-.171.46.512.23-1.024 1.609-.512 4.595-2.901 5.285.17.229.682.23 1.194.23 0 .689-.512.919-.512 1.608-.17 0-.17-.23-.341-.23-.682 1.149-1.706 2.298-3.072 2.757.342.689-.682.689-.17 1.379.341 0 .341-.23.682-.23.342.689 0 1.149-.682 1.379.682 0 1.024.459 1.365.919.853 0 2.73-.69 2.56.229.17-.229.512-.229.341 0 .341-.229.512-.689 1.195-.689-.171 0-.342 0-.342-.23.171 0 .342-.229.683 0-.171-.229-.171-.459.341-.689 0-.23-.512-.459-.512-.689.342 0 .342-.23.854 0-.171-.23.17-.23.17-.46-1.194-.689 1.536-2.297-1.194-2.527 0-.46.341-.46.682-.689-.17-1.379.171-3.447 1.366-4.136.17.23.17.23.17.459.683 0 .342-1.148 1.195-.689.341-.459.512-1.149-.171-1.378.512-.69.512-1.839 1.195-2.298.512.459.341.919.341 1.379.683-.23 0-.69.512-1.149.341 0 .341.229.341.229 1.195-.459.854-2.067 1.536-2.986.342-.23 1.024-.23.854-.69.17.23.341.46.341.919.171 0 .171.23.341.23.512 0 .512-.459 1.024-.459 0 0-.17 0-.17.229h.341c.512-.229.171-.919.853-1.378 0-.23-.341-.23-.341-.46.171-.689.683-1.378.341-1.838.512 0 .342.46.512.46.683 0 .853-.23 1.195-.23.17.459-.854.23-1.195.459.683.69 0 2.068.683 2.528.17-.23.17-.689.512-.919 1.194 0 1.365 1.149 1.536 2.068 0-.23 0-.46.17-.919.683 0 .683.459 1.195 0 .341.459.171 1.148.683 1.378.682-.23 0-.459.17-1.149.342-.229 1.024 0 1.366-.229-.171-.69.341-.919.341-1.609.512.23.171.919.682 1.149.512-.459.342-.919.342-1.608.341-.46 1.706-.46 1.877.229.512 0 .171-.689.341-.919h.342c.341 0 .341.46.341.69.512 0 .512-.23.512-.69.683.23.171.69.853.69.342-.23-.17-.46-.341-.46.341-.23.853-.689 1.024-1.149.512 0 .683.46.853.919.342-.459.683 0 1.195.23.341-.23.682-.23.853-.459.512 0 0 0 .171.229.682 0 1.365 0 1.194-.689.683-.23 1.366.46 1.024 1.149.342.23.512.689 1.195.689.341 0 .341-.459.341-.689 1.024.459 1.536 1.378 2.56 2.068.683-.23.683-.919 1.877-.919 0-.46.342-.69.854-.69.341.69 0 1.609 1.536 1.149 0 .919-.683 1.149-.683 1.838l.171.23c.341 0 .341-.23.682 0-1.194 1.149.683 2.298 1.195 3.217.683 0 .512-.689 1.194-.689-.341-.46 0-.69.171-.92h1.195c-.342 1.379-2.219 3.217-.512 4.596 0 1.149-.512 1.838-1.365 2.527.17 0 .17.23.341.23-.512.919 1.194.689.853 1.838.512-.23.341-.46 1.024 0 .512-.23.171-.23 0-.689.341-.23.512-.69 1.024-.919-.341-.46-.683-.69-.683-1.379.854 0 .854.46 1.536.46.512-.69 1.536-1.379 1.024-2.528 0-.23.512 0 .512-.23.171-.229-.512-.229-.341-.459 1.024-.919.341-2.987 1.877-3.906 0-.23-.341 0-.341 0 .171-.46.853.23 1.536 0-.683 1.379-.342 2.298-1.195 3.446-.17 0-.341-.229-.512 0 .342 1.379-.853 2.298.342 3.677-.171 0-.512 0-.683.229-.171 1.149.341 2.757-1.024 3.217.171 0 .341 0 .341.23 1.024-.69 1.366-2.068 2.219-2.987 0-.23-.171-.23-.342-.23.512-.919.342-2.068 1.707-2.527-.171-.23-.171-.69-.341-.919.341-.69.512-1.149.853-1.838.171 0 .171.229.341.229 1.195-.689 1.024-1.838 1.878-2.987.512.46.512.919.341 1.379 0 .23.512 0 .683 0 .682-.46 1.194-1.379.853-2.527.341 0 .512-.46 1.024-.23-1.024-.23.512-.46.682 0 .171-.23.683-.23 1.024-.46.171.46.683 1.149 1.878.69-.171-.69.512-.69 1.024-.919 0-.23-.171 0-.342 0 0-.23.512 0 .683 0-.171.459.171.689.341 1.148-.341 0-.853 0-1.024.46.512.689-.341 1.378.171 2.068.683 0 1.024-.23 1.536-.23 0-.23 0-.46-.341-.689.17-.23.341-.46.512-.46-.171-.919 0-2.527 1.365-2.987.17.23.341.46 0 .69.17.459 1.024.689 1.536.229 0-.459-.342-.459-.342-.919.342-.229 1.195-.23 1.195-.689.512 0 .512.23.341.46.171-.23 1.024 0 .512.229.512.23.171-.459.342-.229.341.459.853.229 1.194.459.342-.23.854-.459 1.195-.689 1.194.459 1.877 1.149 2.73 1.608.512 0 .512-.23 1.024-.23.171-.459-.341-.459-.341-.919-.171-.229.512-.229.341-.459.171 0 .683 0 .854-.23.341.459 1.024.689.512.919 1.024 0 .682 1.149 1.706 1.379.512 0 .342-.23.512-.23 1.365.459 1.707 1.838 2.731 2.527.682 0 .341-.689.853-.689.853.23 1.365.23 2.048.689-.171.23-.171.46-.512.23.171 1.379.683 2.298 1.877 2.987-.853.919.683 1.378.341 2.298.171.229.342.229.683.229 0 .23.171.69-.171.69 0 .229.683 0 .854.229-.342.919.341 1.609-.342 2.298.171.23.342.459.683.459 0 .23-.171.46-.512.23.683.23-.171 1.379.683 1.609.341 0 .17-.23.341-.23 1.195.23.171 2.297 2.219 2.068.17.229 0 .229 0 .229h1.194c-.341-.229-.682-.229-.512-.919 0-.229-.512 0-.853 0 0-.229.171-.459-.341-.459 0-.46.341-.46.682-.689-.17-.23-.341-.23-.341-.69.341 0 .512-.23.853 0 .171.23-.17.46 0 .919.342 0 .512-.23.512-.689-.17-.46-.512-.46-.853-.919-.512.23-.683.459-.683.689-.512-.23-.512 0-1.194 0 0-.23.682 0 .682-.459-.17-.23-.853 0-1.194 0 .17-.46 1.024-.23 1.536-.46 0 0-.171 0-.171-.23h-1.365c0-.459.17-.689.341-.919h.512c.512.23-.171.69.341.919.342 0 .342-.229.342-.229 0-.46-.512-.46-.342-.69 1.195.23 1.366-.689.512-.919.342-.229.512-.459.854-.689 0-.23-.342-.23-.342-.459.342-.23.683-.46 1.024-.23-1.024.459 1.195 1.838 2.219.919-.683 0-.342-.23-.512-.689.682-.23 1.194-.46 1.365-1.149-.853-.23-1.536-.23-1.877-.69 0 .46-1.365.919-1.877.46-.171.23-.512.23-.512.46-.683-.46 1.194-.69 1.877-1.149 0-.46-.341-1.609 0-1.838.341 0 .171.459.341.689.854-.23.853.23 1.536 0 0 .459-.171.459.171.689.17 0 .341-.23.682 0 0 0-.17-.23-.341-.23.512-.229.683.919.853 1.379-.341 0-.341.23-.512 0 .512.919-.341 1.379-.341 2.527.853 0 1.024-.689 1.877-.229-.17.229-.512.229-1.024.229 0 .23 0 .46-.17.69-.342-.23-.854 0-1.195-.23.171.689 0 .459.683 1.149h-.854c-1.023.229-.17 1.148-1.194 1.378 0 .23.341.23.341.69h-.682c0 .229.511.229.511.459s-.511.23-.682.46c0 .229.171.229.512.229-.853.46.853.69.17.919.171.23.854 0 1.195 0-.171-.689-.853-.689-.853-1.378.512-.23.512 0 1.024 0-.171 0-.342.23-.342.689h1.195c0 .23-.171.23-.341.46 0 .229.512 0 .682 0 .171.459-.17.459-.17.919-.854-.23-.854.229-1.707.229.341.23.512.69.512.919.512 0 0-.229.171-.459.512-.23.512 0 1.024 0 0 .23.17.459.17.919-.341 0-.512.23-.682.459.17.69.17 1.149.341 1.839 0 .229.853.229 1.024.459.341-.23.512-.459 1.195-.459-.171-.23-.512-.23-.683-.23.341-.919 0-2.068.341-2.528.171.23.342.69.854.69s.853-.69.512-.919c.341-.23.682.229 1.194.229-.341.23 0 .69.171.919-.512-.459-.512.23-1.195.23v.69c1.707-.23 1.877.229 3.072.459-.171.23-.341.46-.853.46v.459h1.365c0 .23.341.46.341.46.512 0 .171-.46.342-.46-.171-.459-.683-.23-1.195-.23 0-.229.341-.459 0-.459.341-.46.512.23 1.195 0 .17 0 .17 0 .341-.23 0-.689-.853-.459-1.024-1.149.341 0 .512-.23.512-.23-.341-.459-.683.46-.853 0-.171-.689 1.536-.919 2.218-.919.342-.229.342-.919.683-1.148.171 0 .512.229.341.459.171-.459.342-.689.854-.919.17.23-.171.23-.171.689 1.194.69 2.73.23 3.754.23-.17 1.379 1.707 1.149 1.878 2.068-.342.23-.854.23-1.536.23-.171-.46-1.195-.46-1.366-.919-.341.459-.853 0-1.194 0v-.69c-1.365.23-2.389 1.379-1.877 2.068-.342 0-.171.46-.683.46.853 0-.171.919.853.919 0 .23 0 .459-.17.459.17 0 .341-.229.512 0 0 .23-.512.23-.342.46 0 0 .171 0 .171.23.853-.23 2.56-.46 3.242 0 .512-.46.683-.46 1.366-.46 0 .689 1.024.689 1.194 1.149.683-.23-.341-.23-.341-.689.683-.23.683.229 1.195.229.17-.459.682-.919 1.536-1.148 0 .229.17.689-.171.919 0 .229.682 0 .341.459.853-.689.171-1.838 0-2.527.512 0 .341.23 1.024.23-.512.689.683 1.378-.341 1.608-.171.23.17.23.17.459.171.23.683.23 1.024.23.171.23 0 .689-.682.689.17.69.512 1.149-.512 1.609.512.459 0 .689-.342.919 1.024.919.683 2.068-.682 2.527.171.46.682.689 1.194.919-.682.46 0 .69-.341 1.379h-1.194c-.683-.689-.342-1.609-1.024-2.298-.512 0-.512.23-1.195.23 0 .23.512.23.683.23.17.459-.854 1.149-1.707.689 0-.23.171-.46.341-.46-.682-.459-1.365.23-2.048 0 0 .69.854.46 1.195.919 0 .23-.171.46-.512.46.171.46 1.195-.23 1.195.46.853-.23 1.194.459 2.048.459.341.23.341.46.512.919.341 0 .341-.23.853 0 .341-.23.171-.689.512-.689.512.459 0 .919.17 1.378-.341.23-.511 0-.853 0 .171.69.342.69-.17 1.149.17.23.512.46.341.689h-.512c.341.23.683.23.512.69 1.365 0 1.877.689 2.73 1.149-.512.229-1.365.229-1.877.459-.17-.23-.512-.23-.682-.23-.512 0 0 .23-.171.69 0 .229.853 0 .682.459-.682 0-1.194.23-1.535.689.17.23.512.69.512.919.17 0 .682.23.682 0 1.877 2.298 6.827-.689 9.216 1.149.341-.229 0-.23.341-.459h.683c.17.229.17.459.341.689.341-.23.683-.23.683.23 1.024.23 1.194-.46 1.877-.689-.341.229-.512.689-.171 1.148.512 0 1.195-.229 1.366 0 0 .23-.342.23-.512.23 0 .46.682.689.341.919-1.365-.23-1.365 1.379-2.048 2.068-.171.23.341.23.341.459.512-.229 1.024-.229 1.195-.689h1.024c.17.46-.341.69-.341 1.149.682 0 .682-.46 1.023-.689 1.024.459 1.195-1.379 2.39-1.379.341 0 .17.23.341.23.683 0 1.195-.689 1.024-1.149.341-.23.853.23.853.46 2.389-1.149 4.096-2.757 5.632-4.366h1.024c0 .46-.512.689-1.024.689.171 0 .171.23 0 .23.683.46 1.195-.459 1.536-.689h.853c0 .689-.512.459-.341 1.149.512.229.683-.69 1.706-.46-.17.46.512.46.342.919-.342.23-.342.69-.683.919 0 0 .171 0 .171.23 1.024-.23 1.194-1.149 1.877-1.608.512 0 .171.23.341.459l1.536-.689c.342.689-.512 1.149 0 1.838-.682.23-1.194.46-1.194 1.149.512.23 1.194-.23 1.194.689h.342c.17 0 0-.459.341-.459.512.229.512 1.378.171 1.838 0 .229.512-.23.682 0 0 .689-.682.689-1.024.229.512.92 0 1.609-.853 2.298.171.23.171.689.341.919-.17.23-.512.23-1.024.23-.17-.23-.17-.46-.341-.46s0 .23-.341.23c1.365.689.341 1.838 0 2.528.682.459.853.919 1.877.689.341-.23.512-.46.512-.689.171.229-.341 1.608-1.024 1.838-.171-.23.341-.23.341-.46-.341-.23-1.194.23-1.706 0-.512.23-.171.919-.342 1.379.342-.46.854.229 1.366 0 .512.229 0 .689.341.919-.853 1.149-1.195 2.987-3.925 2.987-.171 0-.171-.23-.171-.46a1.841 1.841 0 0 0-1.194 1.149c.341.23.512.919.853 1.149 0-.23.512-.23.512-.46.341.23.17.46.853.689-.171.46-1.194.46-.853 1.149-.341 0-.341.23-.512 0 .682.919-.853 1.379-.512 2.298-.171 0-.341.23-.512 0 0 .459.171.689.341.919.512 0 .854-.46 1.366-.689-.171-.23-.001-.69.341-.919.17 0 .512.229.341.459.853 0 1.365 0 1.877.23 0 .459-.17 1.149-.341 1.608-.341-.459-.512-.689-1.024-1.149-.683.919-.683 1.609-1.194 2.528.511.23.511.689.17.919.683.459 2.731.23 3.925.459.171.23-.17.23-.17.69-1.366.229-1.878 1.148-3.072 1.378.682 1.149-1.707 1.149-.853 1.838-.342.23-.342.23-1.024.23-.683.46-.854 1.149-1.536 1.608.17 1.149-1.536 1.379-1.366 2.528.342-.23 1.195-.23 1.366.229-1.536-.459-2.731 1.149-3.072 2.298 0 0-.342.46-.342.23.171.689 1.195.689 2.219.459-.512-.229-.171-.919-1.024-.919.512-.459 1.707.46 1.877-.459.342.23-.512.689-.512.919.854 0 1.195-.46 1.195-1.149 0-.23-.341 0-.512 0 0-.23.683-.689.341-.919.171-.23.854 0 .683.459.683 0 .171-.689 1.024-.459-.341 1.149-.853 1.379-1.195 2.527.342.23 1.195.23 1.878.23-.512.23-1.536.23-2.048.46 0 .689-.512 1.148-1.536 1.148-.171-.229-.512-.229-.342-.689-.512 0-.17.23-.341.46-.512 0-.683-.23-1.024-.23.171-.23.341-.46.683-.46 0-.229-.512 0-.683 0-.341 0 .171.23-.171.46-.512 0-.341-.46-1.194-.46 0 .69-.854.69-.854 1.379.342.23.683.23.854.459.341-.689 1.877.23 2.048-.689.682.23 1.024.46 1.194.919-.853.23-2.048.69-1.706 1.609-.342.459-1.024.919-1.707.689.341.23.341.459.171.689-.171-.459-.683-.23-.512.689-.853.69-2.219 1.149-3.243.46 0-.23 0-.689-.17-.919-.854.23-.342.689-1.195.919-.341.23.171.23.171.459-.342 0-.512.23-.683.23 0 .23.512.23.341.689-.17 0-.341.23-.682 0-1.024.69-2.219 1.839-2.901 3.447h-.342c.342.919-1.706 1.149-1.024 1.838-.853.23-.853.919-1.706 1.379 0 .459-.171.689 0 .919-.683-.23-.683.689-.854 1.148.512 0 .512-.229 1.195-.229.171 0 .171.229.171.459.512-.23.512.23 1.194 0 .171.23-.341.46 0 .46-.341.229-.682.459-1.365.229-.341 0-.171.46-.341.69-.512 0-.683-.46-1.366-.23.342-.46 1.366-.46 1.195-1.149 0-.23-.512 0-.341-.23-.342.69-1.536.69-2.048.23-.171.689-.683.919-.683 1.608-.341 0-.341.46-1.024.46.171.46-.341.919-.512 1.379.171.229 1.024 0 1.024.229.512 0 .512-.459.683-.919.682 0 1.194.23.853.46.683 0 .853.23 1.195.459 0 .919-.683 1.149-1.707 1.149 0 .23.512.23.341.689-1.194 0-1.706.919-1.877 1.609-.853 0-1.024-.46-1.877 0-.171-.23 0-.69-.341-.69 1.365.46 1.877-1.148 2.901-.919.683-.459-.171-.919-.341-1.378-1.707.23-2.219 1.149-2.731 2.068-.341 0-.853 0-.853-.23-.171 0-.512.23-.342.459.512.46.683.92 1.195.92 0 .689 0 .459.341 1.148-.512.46-1.365.23-1.877 0-.853 0-.683.919-1.195 1.149.171.46 1.024.23 1.195.689.683-.229 1.365-.229 1.877 0v.919c-.341 0-.512.23-1.024.23.171.46 0 .689-.341 1.149-.683 0-.683 0-1.365-.23 0-.229.17-.689.341-.919-1.024-.23-.683-.689-1.195-1.149-2.389.46-1.535 2.528-1.194 3.217 0 .46-.853.23-.683.919.171.689 1.195.689 1.536 1.149-.853.23-1.024 0-1.877.23.341.689-.853.689-.683 1.378.171.23.683.23 1.024.46-.341 1.149.171 2.297-.853 3.216.341.23.683.46.512.919-1.024.23-2.219-.459-2.901 0-.683 1.149.17 1.839.682 2.758-1.024 0-1.536-.23-1.877-.46-.341 0-.341.46-.341.689.17 0 .341 0 .341-.229 0 .229-.512 1.148-1.365 1.148.171.23.171.23 0 .69.171.229.341.459.682.459-.17.23-.341.689-1.023.689.511.69-.342.919.17 1.379.171.23-.853.23-.341.23-.512 0-1.195.23-1.707.23-.17 0 0-.23 0-.23h-1.194c-.171.459.512.459.17.689-.853.23-1.194-.459-1.706 0 .512 0 1.706.23 1.877.919-.341.23-1.195 0-1.195.46 0 .229.171 0 .342 0-.171.229 0 .459-.342.689h-.512c-1.365 1.608-2.389 3.906-3.754 5.744-.171.459.171.459.171.689-.683.46-1.707.69-2.219 1.379.341.23.683.23.512.689-.341-.23-1.024.23-1.195.46-1.706 0-1.194 1.838-2.73 1.838.512-.919-1.024-1.609-1.877-2.068-.512.23-.854.459-1.024.689-.512.23-.342 0-.854 0-.341 0-.341.46-.341.689-.512-.229-.683-.459-.853-.919-.342.46-1.536.23-1.878 0-.341 0-.341.23-.511.23-.854-.23-.683-1.378-.342-1.838-.17-.23-.512-.23-.682-.23-1.024 0-.171.919-.854 1.149-.682-.23-.682-.689-1.536-.919-.17-.23.342-.23.342-.46-.171 0-.171-.229-.342-.229-.17.689-.512 1.378-1.194 1.608.17.23.512.46.341.919h-.341c-.342-.459-1.195-.689-1.877-1.149-.342-.229-.171-1.149-1.024-.919.853-.919 0-2.757.17-3.906 0-.459.512-2.068-1.194-1.608 0-.23 0-.23-.342-.23-.341.69-.341 1.609-1.194 1.838.512.69 0 1.838 0 2.528-.854.229-1.024-.46-1.536 0 .17-.69 0-.919.17-1.609 0-.229-.512 0-.682 0-.342 0 .341.23.17.69-.512.229-2.047.229-1.535 1.148h-.854c.171-.459-.512-.689-1.024-.689v-.459c.171 0 .342-.23.683 0 0-.23-.341-.23.171-.46-.512-.23-.683-.459-.342-.919-.341-.23-1.194 0-1.706 0-.171-.23-.342-.459-.342-.689 1.024-.23 2.219-.23 2.39-1.379-.683-.459-.854 0-1.536-.23.341.92-1.024 1.379-2.219 1.609-.171-.23.171-.23.171-.46.682 0 .682.23 1.194 0-.17-.459-.17-.919-.682-1.149-1.195 0-1.536.92-2.731.69 0 .23 0 .459.341.459-1.194.46-2.218 1.149-3.413 1.609.171.229-.17.689.342.689-.342.459-.683.689-.854 1.149-.17 0-.341-.23-.512-.23 0-.46.342-.46.683-.689-.512-.919-2.901-.919-2.731-1.838-.512.229-2.218 0-1.877.689-.512 0-.512.23-1.024 0 0-.46-.853-.46-1.194-.689-.171 1.838 3.242.919 4.266 1.608.853 0 1.365-.23 1.877 0-1.024 0-1.365.689-2.389.689 0 .23.512.23.171.46.341 0 .682.229 1.194.229-.341.46-1.877 0-1.365-.459-.853 0-.853.689-1.536.689-.17.23.512 0 .342.46-.342.459-.854 0-1.024.689-.171-.459-.683 0-1.195 0-1.536 0-3.243-1.379-4.267 0 .342.46.342 0 1.024 0 .342.23.683.689 1.195 1.149-.341.459-1.024.23-1.195.459.512.46 1.195.23 1.878.23-.683.689-1.878.689-3.072.919-.171-.23-.342-.459-.342-.689-.853 0-1.194.23-1.535.689-1.707-.459-1.707 1.149-3.414.919.171.46.171.689.342 1.149.682 0 .512-.23.341-.689.512 0 .683.459 1.024.689.512-.23.853-.23 1.195 0-.342 1.149-2.219.46-3.414.23-.17-.23.342-.23.342-.46-.512 0-1.195.46-1.366 0-.341 0 .342.23 0 .46-1.877.23-3.413 1.378-5.461.459-1.194.23-2.389.69-3.583.46-.342 0-.512.23-.342.459-.341 0-.512-.689 0-.689-.512-.459-.853-.919-1.706-1.149.341-.919-1.195-.689-1.195-1.378-.512 0-.683 0-.853.229.17.23.512.23.512.23.17.46-.683.689-.342.919-1.194.23-1.877 1.149-3.071.919.17-.689 1.024-.689 1.365-1.149-1.024-.919-3.584-.919-4.949-.459 1.365.23 2.901-.23 3.413.919-.341.46-.853.689-1.195.919.171.23.342.46.342.689.853 0 1.194.46 1.877.46 0 .23-.512.23-.171.459.342 0 .342-.229.512-.459.683.23 1.707.23 1.877.689-2.559.23-5.631-.459-8.362-.459-.171-.23.171-.23.341-.46 0-.23-.682 0-.682-.23v-.459c.512-.23 1.024-.23 1.706-.23v-1.149c0-.23-.17-.23-.512-.23.171-1.378-2.218-.689-2.901 0-.17-.459-.512-.459-1.194-.229 1.365-.919 4.095-.919 5.631-1.609 0-.229-.17-.229-.17-.459-.683.459-1.366.459-2.219.23-.853.919-3.754 0-4.778 1.148-.171 0-.171-.229-.342-.229-.512.229-.17.689-1.024.689 0-.46.683-.46.683-.689-.512-.46-2.048 0-1.877.459.17.23.682.23 1.194.46-.341 1.149-2.901 0-3.583 1.378-.854 0-1.195-.229-1.878-.459-.512.23-1.536.229-2.218.229.512-.689 1.024-1.378 2.218-1.608-.17.23-.17.23-.17.46.341 0 .512-.23.682-.23-.341-.23 0-.689.342-.689.512.459 1.365.229 1.877 0-.512 0-1.024-.69-.512-1.149 0-.23-.512-.23-.853-.46.682-.229.682-.919 1.194-1.378-1.194-.23-3.584-1.149-4.437.23-.171 0-.341-.23-.683 0-.512.689-1.706.919-2.901 1.378-.17.23.171.46.171.689h-1.024c0-.459.171-.229.683-.229-.342-.46-1.195-.46-1.878-.46-.17-.23-.341-.23-.17-.689-.683 0-1.366-.46-1.878-.23-.17-.23-.17-.919-.853-.689 0-.23 0-.69.341-.69 0-.459-.682.001-.853-.229-.341 0-.17.459-.341.689-.341-.23-.683-.459-.341 0-1.024-.23 0-.919-.342-1.379-.512.46-.341 0-1.194-.229-.512-.23-1.536 0-1.878 0-.17 0-.17-.46-.341-.46-.341-.23-1.195.23-.683-.23-.682.23-1.194 0-2.047 0-.854-1.378 1.023-1.608 2.559-.919.171 0 0-.229 0-.229.342 0 1.366 0 1.024.459.342-.459.683-.23 1.195-.919.683 0 .512.46 1.024 0-.171-.919-1.707-.23-3.072-.459-1.024-.23-2.218-.46-2.901.229 0 .23.512 0 .683 0-.171.23-.683.23-1.195.23-.171-.23-.341-.689 0-.919-.853-.459-2.219-.23-2.731-.689-.512 0-1.536.23-1.365-.46.512 0 1.195 0 1.195-.23 0-.459-.683-.229-1.195-.229.171-.23.512-.46.853-.23.512-.919 2.39-.919 2.56-2.068.512 0 1.195-.23 1.707-.23-.171-.689.171-1.148 1.194-.919-.17-.459.854-.459.342-.919.682 0 1.024-.229 1.194-.689h.854c0-.23-.683 0-.342-.46.342 0 .512.23 1.024 0-.17-.459.171-.229.171-.689.512-.23.341 0 .683 0-.342-.23.341-.23.341-.689-.683 0-.853.459-1.195.689-1.024.23-2.56.689-3.413 1.609-.512 0-.853-.23-1.365 0 0-.23-.341-.46-.341-.69h.512c0-.23 0-.459-.342-.459.171.459-.853.459-1.365.459.171.23.341.46.683.23-.171.23-1.195 0-1.195-.46-.341 0-.512.23-.683.23-.17-.23.342-.459 0-.689-1.365.689-3.242-.23-4.607.459.17.46.853.69 1.877.69-.342.459-1.365.229-1.536.689-.341-.23-.341-.689-.853-.689.512-.919-1.024-1.379-1.195-2.068-2.56-.23-1.195 2.068-2.219 3.217 0 .229.342.459.342.689-.171.23-.342-.23-.512 0 0-.23-.854-.919 0-.919.17-.46-.512 0-.342-.23.342-.46 1.024-1.608 0-1.608-.512 0-.512.459-.682.689-.342 0-.512-.46-.171-.689-.341 0-.512.229-.853.229 0 .46-.341.46.17.69 0 .23-.511.23-.853.23 0 .459.342.229.171.689-.512.23-.171-.23-.512-.23-.171-1.149.683-2.987-1.877-2.527-.342-.23-.512-.46-1.024-.46-.683.23-1.024.23-1.878 0-.341.23.171.689-.17.919-1.366-.459-.171-2.068-1.536-2.527-.341.459.171 1.149.341 1.608-.341 0-.682.23-.853.46.171 1.378.171 2.297-.512 3.446-.853-.459-.171-1.149-.683-1.838h.512c-1.194-.919 0-2.068-.853-2.987 0-.689 0-2.987-1.195-3.217-.17-1.378-.853-2.986-1.194-4.595-1.536-.919-.342.689-.854 1.149 1.024.23-.341 1.149 1.195 1.149-.171.23-.512.459-.683.689.171.23.683.23.854.46-.683.229-.512.689-1.366.689.171.23.512.23 1.024.23-.17.919-.512 1.378.683 1.378.683 0-.341-.689.512-.689.341 1.149.683 2.068-.341 2.757.341.689.341.689.512 1.379-1.878-.46-1.707-2.757-2.56-4.366 0-.23.17-.23.341-.459-.853.229.171-.69-.683-.69.512-.459 0-1.148-.511-1.378-.171.23-.342.23-.342.459-1.877-.229-1.194-.919-2.048-1.838-.512 0-.17.46-.682.46-.171-.46-.342-.919-.512-1.149.512 0 .682.459.853.919.512 0 .853-.23 1.024-.689-.341-.69-1.195-.69-1.536-1.149-.853.689-.683 2.527.853 2.987-.17.459.171 1.149 0 2.297-.341 0-1.706-.229-1.536.46-.682.23-.682-1.608-1.365-1.149-.512-.23.341-.23.171-.689-.512-.23-.342.459-.854.23-.682-.69 0-1.379-.512-2.068.342-.23.683-.46.854-.689-.171-.23-.683.229-1.195 0-.171-.23-.341-.92.341-.69-.17.46.512.46 1.024.46.171.459 0 .919 0 1.378 1.536 0 1.195-1.838-.341-1.608 0-.23-.171-.23 0-.459-.171 0-.512-.23-.683 0-.682-.92-1.365-1.609-1.535-2.987.341-.23.341 0 .682-.23 0-.689-1.024-.46-1.024-1.149.342 0 .342-.23.512-.23 0-.459-.341.46-.341 0-.341-.229.171-.459.341-.459-1.194-.919-1.365-2.528-1.706-4.595.682-.23.853-.69 1.536-1.149-.171-.46-1.195-.23-1.878-.46-.341-.689-.17-1.149 0-1.608.171 0 .171.23 0 .23.512.459.683 0 1.195 0-.171-.919.512-1.838-.853-2.758-.512 0-.342.23-.854 0-.341-.229.171-.459 0-.919.683 0 1.024-.689.854-.919-.512 0-.342.46-1.024.23.341-.919.512-1.378 0-2.068.682 0 .682-.689 1.194-.689-.512-.689-1.024 0-1.706-.459-.171-.69.682-.919 1.024-.46.341 0 .17-.23.341-.23-.171-.23-.683-.23-1.024 0-.171 0-.171-.23-.341-.23v-1.838c.341 0 .512 0 .512-.229-.342-.46-.171-.69-.342-1.379.342.23.171 0 .342 0-.171-.23-.342 0-.683 0 0-1.149-.171-2.068-1.536-2.527-1.195.459-3.072 0-3.754.919-.512 0-.683-.23-1.195-.23-.512.23-.512.46-.341.919-.171.23-.512 0-.512.23.341-.46.17-1.838-.854-2.068-2.218 1.149-6.143-.46-8.533.689-.341 0-.17-.459-.341-.23-.512 0-.341.46-.853.46.341-.919-1.024-.23-1.365-.919.512.23.853.23.853-.23.512 0 .853 0 1.024.23.512-.23.682-.23.682-.689 1.195 0 3.072-.23 3.584-.919 0-.23-.17-.23-.341-.23 1.024-.689 1.877-.46 2.901 0 .512 0 .683-.23.683-.46.512 0 .682-.229 1.194 0-1.194-1.149-3.925.46-5.119-.689-.854.23-1.024-.23-1.536-.23-.171 0-.342.69.17.46-.341.23-.341.459-.341.689-.683-.23-2.048-.459-2.73 0-.512 0-.171-.459-.512-.23-.171.23-.512.46-.683 0-.171 0-.171.46-.512.46-.512-.23-1.536-.23-2.389-.23 0-.23-.171-.459-.683-.459v-.69c.512 0 .171.46.683.23a.54.54 0 0 0 0-.919c.512-.46.17-.689.853-1.379-.171-.459-.341-.459 0-.919-.341-.459-.853 0-1.536 0 .171-.689.683-1.148 1.195-1.378-.512 0-.512.23-1.024 0-.171-.46.17-.46.17-.689-.512 0-1.365.459-1.706 0 .682-.46 1.365-.69 1.365-1.839.512-.229 1.195-.689 1.707-1.148 1.706.229 1.536-.919 2.56-1.149-.171-.23-.512.23-.854 0-.17 0 0-.46-.341-.23 1.024-.23 1.707-1.149 2.73-1.149-.341-1.149-1.194-.459-2.218-.229-.512.689-1.365 1.608-2.731.919-.17-.23.512-.69 1.024-.69 0-.459-.17-.459-.17-.919 1.365.23 1.024-.919 2.048-1.149 0 .46.853 0 .682.46.342-.23 1.024-.23 1.024-1.149.341-.23 1.024-.23 1.195 0 0-.23-.512-.23-.171-.459.683 0 1.195-.23 1.536-.69.683.23 1.365.23 2.219 0-.683-.229-2.39-.229-3.072-.229.682-.919 1.706-1.149 3.072-.919 1.024-.46 2.218-.69 3.242-.919-.171-.23-.171-.69.341-.69-.512-.23-.341-.689-.682-1.149-.171.23-.683 0-.683.23-.17 0-.341-.23-.341-.23h-.683c-.512 0-.17-.229.171 0 .683-.229 1.365-.229 1.877-.459.683 0 1.024.23 1.536 0 .341-.23-.512-.46-.171-.689 1.536-.23 3.414-.69 4.95-.46.341-.459.853-.689 1.706-.919-.171-.46.171-.459.341-.919-.341-.46-.682-.919-1.365-1.149.341-.459.341-1.149-.341-1.378.17-.46.512-.46 1.024-.46.512-1.149.17-2.987-.342-3.446.171-.46.171-.69-.17-.919.853-.23 0-.69-.171-1.149.512-.46.512-1.379.171-1.608-.342 0-.171.229-.512.229-.171-.459.512 0 .341-.229-.341-.23-1.194-.23-1.194-.69.341-.229 1.023.23 1.194-.23-.171-.229-.341-.459-.682-.229.17-.23.682-.23.682-.46-.341-.459-1.365-.459-1.706-1.149.17-.229.682-.229.853-.459-.512-.689-1.024-1.608-2.219-1.149.512-.459 1.878-.689 2.731-.459 0-.69-.171-.69-.853-1.379 0 0-.001-.46-.171-.46-.341-.229-1.365 0-1.195-.689h-1.194c.17-.689-.342-1.149 0-1.608.341 0 .341-.23.853 0-.171-.46 0-.689.341-.919-.341-.46-.853 0-1.194-.23.341-.459.17-.919 1.024-.919 0-.459-.854-.23-1.366-.23.683-.23 0-.689-.512-.689 1.195-1.149 4.096-.689 5.632-1.608.171 0 0 0 0 .229h.341c0-.229-.682-1.148.342-1.378-.342-.919-1.024-1.609-2.389-1.379.682-.23 1.365-.459 1.194-1.378h-.341c-.171 0-.171.229-.171.459-.682 0-.853-.23-1.194-.459.17-.69 1.706-.69 2.73-.69.171 0-.171-.459.171-.689.341.689.341 1.379.512 2.068 1.365 0 1.706-.23 2.56-.46-.171-.229-.342-.689-.342-1.148.683 0 1.195-.23 1.366-.69.17.69 1.706.23 2.218.46.512-.46.171-1.608 1.365-1.608.512-2.298 2.731-3.447 2.731-5.744.171-.23.512-.23.512-.46-.341-.46.512-1.608.853-2.068-.341-1.378-.17-3.216 0-4.825.171-1.149.683-2.297.853-3.446.171-1.149-.341-1.838 0-2.757.171-.69 1.366-1.379 1.707-2.528 1.195-.229.683.919.853 1.609.171.229.342.229.854.229.512-.459.682-1.148 1.706-1.378 0 .459.171.689.342 1.149.682-.23 1.535-.69 2.389-.46.341 0 0-.459 0-.459-.512 0-.342.229-.854.229-.17-.459.512-.689.342-1.148.853-.23.512.689 1.024.689h.341-.341c.853-.919.682-2.987 1.706-3.906.512 0 .683.459 1.195.459.512-.229.683-.459 1.195-.689.341 0 .17.46.853.46.17 0 .17-.46.341-.69 1.877.46 3.584-.689 4.437-1.838.512.23 1.024.69 1.707.46.683.689.683 2.297 2.56 2.068-.512.689-.171 1.378.682 1.838.683-1.149.342-2.298 1.366-2.987 0 .689-.171 1.838-.171 2.527 0 1.149 0 3.906 1.365 4.136.512-.689-.512-1.149-.341-2.068.341 0 .341-.459.853-.23-.17 1.838.683 2.757 1.195 4.136.682-.23.512-.919 1.194-1.149-.17 0-.341 0-.341-.23.171-.229.512-.229.683-.459.682.23.682.919 1.536 1.149-.342.229 0 .459.17.689.342 0 .171-.23.512-.23.512.46.171.919 0 1.379 0 .23.683 0 .683.23.341-.23.683-.69.512-1.149 1.024-.23 1.536-.23 2.048-.69h.341c.341-.229.171-.689.341-1.378.171-.23 1.195-.919.342-1.379.853-.229.512-1.378 1.194-1.838 1.536.23.854-.919 1.878-1.149-3.072-1.148-3.414-1.148-3.584-1.378Zm73.724-5.055c0-.23.171.23.342 0 0-.23 0-.459-.342-.459 0 0-.512.459 0 .459Zm3.072.919c.512 0 .854-.23.854-.689-.512 0-.342-.23-.854 0-.341 0-.341.459 0 .689Zm-18.943-.23c.341 0 .341.23.512 0 .171 0 .341-.459-.171-.459.342.459-.341.23-.341.459Zm9.045.69c.171.459.683.919.512 1.378.512 0 .512.46 1.195.23.341.689 0 1.149.682 1.608.171-.689-.17-1.608.171-2.067-.853-.46-1.365-2.298-2.56-1.149Zm12.458.689c.341 0 .341.46.683.46.17-.23-.171-.23-.171-.69-.171 0-.512 0-.512.23Zm-54.781.689c.512 0 .341-.459.341-.689h-.341c-.171.459.341.46 0 .689Zm53.757.23c.683 0 .853.23 1.365 0-.17-.46-.853-.689-1.706-.689 0 .459.341.459.341.689Zm-69.117 1.608c.342.23.342.69.342.919h-1.195c-.341.69-.171 1.149-.341 1.839.341 0 .682-.001.512.229 0 .23-.171.46-.512.23.341.689-.171 1.379-.342 2.068.342 0 .342 0 .171.23.512 0 .683-.23.853-.46-.341-.919.512-1.608.171-2.297 1.024-.23.683-1.839 1.195-2.068-.683-.46.341-.919.341-1.379-.853-.23-.683.689-1.195.689Zm64.68.69c.171-.23.683 0 1.195-.23 0-.46 0-.919-.342-1.149-1.024 0-1.365.919-.853 1.379Zm15.701 4.135c-.171.69.512.69.341 1.379 1.195-.23.683-1.149 0-1.608 0 0-.171.229-.341.229Zm-81.405 2.528c-.512-.46.683-.69.342-1.379-.171-.23-.512-.23-.854 0-.512.689 0 1.379.512 1.379Zm33.45 0c.341.459 1.194.689 1.877.229 0-.459-.171-.459-.171-.689-.853 0-1.706 0-1.706.46Zm48.296 1.149c.341 0 .683 0 .683-.23-.342 0-.171-.23-.512-.23 0 .23-.171.46-.171.46Zm-44.03.919c.853.229-.683 1.378-.341 1.838.853-.46.682-1.379 1.024-2.068-.342-.23-.854-.23-.683.23Zm44.03 0c.341.229.512-.46.341-.46-.17.23-.341.23-.341.46Zm-84.305 1.838h1.023c0-.46-.682-.23-.17-.46-.341 0-.512 0-.341-.23.17-.229.853-.459 1.194-.229-.17-.46-.682-.46-1.194-.69-.342.69-.171 1.149-.512 1.609Zm82.428.459c.512 0 .682-.23.682-.459h-.341c0 .229-.341.229-.341.459Zm0 1.149c.512-.46 1.194.23 1.536 0-.342 0 .17-.23 0-.46-.683-.229-1.024-.229-1.878-.459-.17.459-.17.689.342.919Zm3.072 0h.853c.17.23.341.919.512.919 0-.46.17-.689.682-.689v-.46c-.17 0-.341-.23-.512-.23-.341.919-1.365-.229-1.535.46Zm.682 1.838c.171 0 .853.23.683 0 0-.459-.853-.23-.683 0Zm5.461 0c-.341.689-.853 1.838.683 1.838 0-.689 1.024-.919 1.024-1.608-1.024.23-.853-.46-1.707-.23Zm-6.997 1.379h.854c.17.229.17.459.341.459-.512.23-.853.23-.853.689.17.23.853.23.853.69-1.024.459-2.048.919-3.072.919.171.689 1.365 1.378 2.219.919.17 0 .512 0 .341.459.683 0 .853-.229 1.365 0 .341.46-.341.46 0 .69.512-.23.683-.69 1.365-.69 0-.459.683-1.148-.17-1.378-.683.23-.683.919-1.366 1.149-.511-.23.001-1.149-.511-1.379.17 0 .511 0 .341-.23-.341 0-.512.23-.512 0 .171-.459.512-.689.171-1.149 1.023-.459.511-.919.341-1.838-.683.23-.853 0-1.877 0 0 .23.341.46.17.69Zm2.901.689c.512 0 .854 0 1.024.459-.512.46-1.536.46-1.536 1.149.854-.23.854.23 1.195.46.171-.23.512-.46.853-.46.512.46 2.56.23 2.902 0-.854 0-.512-.689-.854-.919-1.365-.23-1.877.46-2.048.689-.17-.689.171-1.148-.17-1.838-1.024-.459-.854 0-1.366.46Zm-48.296.689c.341.23.853.23 1.195.23 0-.23.17-.23.341-.23-.512 0-.512-.689-.853-.919 0 .46-.512.46-.683.919Zm52.904.689c.342 0 .512.23.342.46h1.877c.17.23.341.459.341.689.683.23.512-.23 1.024-.23-.171.69 1.365.46 1.365 0-.17 0-.17.001-.17-.229-.854.23-.683-.46-1.195-.46.853-.689-.853-1.149-1.365-.689.341 0 0 .459-.171.459-.341-.229.171-.689-.171-.919-1.023-.229-1.365.46-1.877.919Zm10.41-.229h-1.536c-.17-.23-.17-.46-.17-.69-1.024 0-.853.919-1.365 1.149.17.23.341.23.341.46 0 .459-.512.459-.853.689 1.024.23 1.877.46 2.559 0-.341-.23-1.023-.23-1.194-.46.171-.229.171-.689.341-.919 1.195.23 2.731.46 1.877-.229Zm-5.631.459c.17 0 .512.23.341.46.341 0 .683-.23 1.365-.23-.17-.46-.341-1.379-1.194-1.149.17 0-.512.46-.512.919Zm7.509 1.379c-.683 0-1.707-.23-1.878.23.683.229.512 1.148.854 1.608.341-.46.853-.919 1.365-1.149.171.23.683 0 1.024.23 0-.23.171-.23.341-.23-.512-.919-1.194-1.608-2.56-1.838.342.23.512.689.854 1.149Zm-12.117 1.378c-.171.23-.683 0-.853.23 1.365.919 2.901 0 3.925-.919-.171-.459-.512-.689-.854-.919-.853.689-3.071 0-2.218 1.608Zm4.437 2.298c0-.46.853-.46 1.365-.23.342-.459.342-1.149.854-1.378-.171-.23-.512-.23-.512-.69-.683 0-1.024-.229-1.366-.229-.17.919-.853 1.608-.341 2.527Zm-10.581-1.838c.854-.23 1.195.689 2.219.23-.512-.23-1.195-.23-1.536-.46-.512 0-.683-.23-.683.23 0-.23 0-.23 0 0Zm12.97 1.608c.854 0 1.195-.23 1.877 0 0-.23.171-.23.171-.459-.341-.23-1.024.229-1.194-.23.17 0 .341-.23.17-.46-1.194.23-1.365.69-1.024 1.149Zm-2.218.689c0-.229 0-.229.17-.229-.17 0-.853-.23-1.024 0 .512 0 .342.459.854.229Zm-7.68 2.528c.341 0 .512-.23.341-.46h-.341v.46Zm14.677 1.149c.17-.23.512-.69 0-.919-.342.229-.512.689 0 .919Zm-155.3.229c0-.229.342 0 .512 0 0-.229 0-.459-.341-.459.171 0-.512.23-.171.459Zm153.934.919c1.195 0 2.731 1.609 3.414.23-.342-.23-1.195-.23-1.195-.919-.683 0-.853-.23-1.195 0-.17-.23-.341-.459-.341-.689h-.683v1.378Zm-156.323 1.839c.512 0 .853 0 1.195.229-.171-.229.17-.229.341-.459-.683 0-.853 0-1.195-.23-.341.23-.512.23-.341.46Zm-.683.689c.342 0 .342-.23.342-.23h.341c0-.23-.171-.459-.512-.459-.171.459 0 .459-.171.689Zm-1.365 0c.341.23 1.195.23 1.195-.23-.512.23-.512-.23-1.024-.23 0 .23 0 .23-.171.46Zm168.611 3.216c-.171 0-.171-.229-.171-.459h-.341c-.171.689.341.689.512.459Zm.171.23c.682-.23 1.024.23 1.194-.459h-1.365c0 .229.341.229.171.459Zm-1.878 1.149c.171 0 .171-.459-.341-.459-.171 0-.171.459.341.459Zm-1.536 0v-.459h-.512c0 .229.171.459.512.459Zm3.243 6.433c.683.23 1.707.46 2.389.919.342 0 .341-.459.512-.459-.171-.23-.512-.23-.512-.689 1.024 0 1.365-.69 1.877-1.149.342.23 1.366 0 1.536 0 0 .23-.512.459 0 .689-1.024.23-1.706.23-1.706 1.149.682 0 .512.459.682.689.342-.23.512-.459.854-.459 0 .229 0 .459.17.459.171 0 .854.23.854 0-.171-.23-.512-.459-.854-.459.342-.46.342-.46 1.024-.46 0-.459-.682-.23-.682-.689.682-.23.682 0 1.194.23.342-.46.512-.919 1.195-.919-.341-.69 0-.92.512-1.149-.341 0-.341-.23-.512 0-.171 0 0 .459-.341.459-.342 0-.171-.459-.512-.23-.342.46 0 .69-.512.92-.512-.23-1.024-.69-.683-1.149-.683.229-1.195-.23-1.877-.46.17-.459 1.024-.689 1.194-1.149h-.512c0-.459 1.024-1.148 0-.919.512.46-1.024.46-1.024.919-.512 0-.341-.459-.853-.229-.512.459-1.195.459-1.706 0 .341 0 .341-.23.341-.46-.171-.23-.853 0-.853-.23 0-.229.682 0 .512-.459 0-.46-.342-.46-.683-.46-.171.23-.341.23-.341.69.17.229.512.459.512.689-.342.23-.512.459-1.024.689-.171 0 0-.459-.342-.459-.512.459-1.877.229-2.73.459-.171-.23-.171-.459-.342-.459-.682 0-.853.229-1.194.459-.512-.23-1.024-.459-1.877-.23-.342.46-.171.69 0 1.149.853-.23 1.194.23 1.365.689 1.024-.459 1.365.23 2.56.23.17.69.512.69.853.919-1.707.23-3.243.23-3.584 1.379 1.195.919 2.56.23 4.267.459.17-.459 1.024-.689 1.536-.229-.171.229-.683 0-.683.229h.341c-1.536-.459-2.048.69-2.56 1.609.683 0 1.024.229 1.366 0 .17-.23-.512 0-.342-.46 1.195-1.608.854-1.149 1.195-2.068Zm3.413-5.973c.341 0 .341-.23.512 0 .171-.23-.171-.23-.171-.46h-.512s.171.23.171.46Zm1.536 0c.341.229.512-.46.341-.46-.17 0-.512 0-.341.46Zm6.997 2.297c.512 0 .683-.459.683-.919-.683.23-.512.689-.683.919Zm-18.772 2.987h.853c0-.23.512-.459.341-.689-.512 0-1.365 0-1.194.689Zm-2.902-.23c.512.23 1.024-.229 1.195-.459-.853 0-1.195 0-1.195.459Zm-2.218 0c0-.229.682.46.682 0-.17 0-.17-.459-.682 0 0-.229 0-.229 0 0Zm26.452 2.068c.683-.23.341-1.149.853-1.378-.17 0-.341-.23-.853-.23-.171.459-1.024 1.378 0 1.608Zm1.706.689c.342-.229-.511-.229-.341-.689h-.512c.171.23.512.46.853.689Zm-18.089.919c.17.46-.342.46-.342.92.683-.23 1.195-.23 1.878 0-.171-.23-.171-.69 0-.92h-1.536Zm16.383 1.149c-.512.23-1.707 0-1.707.69 1.366.229 2.39-.46 3.413-.919-.341-.46-.853-.69-1.535-.92 0 .46-.512.69-.171 1.149Zm9.386 3.217c.341 0 .341.23.341.23 0-.23.342-.46.512-.46-.17 0 0-.23 0-.23h-1.023c.17 0 .17.23.17.46Zm-2.901 4.365c0 .46.853.23.683 0-.342-.229-.342 0-.683 0Zm-.512 1.149c.171 0 .341.23.683 0 0-.23.17-.23.17-.459-.512 0-.682.229-.853.459Zm-195.063 4.136c-.853 0-1.365-.46-2.048 0 .683.23-.341.459-.17.919 1.365 0 2.901 0 4.095-.46.171.23.512.23.683.46 0-.46.512-.23 1.024-.23 0-.23.341-.23.512-.459-.171-.23.171-.919-.341-1.149-.854.919-2.731 0-3.755.919Zm195.916-.23v.23h1.195c0-.23 0-.23.171-.23-.683 0 .17 0 .17-.23-.512 0-.17-.229-.512-.459 0 .23-.853.689-.341.919-.341 0-.341-.23-.683-.23Zm-210.593 16.543c.512.23.854.459 1.536.689.512-.23.683-.689.854-1.378-.854-.23-2.048 0-2.39.689Zm9.728.919c.683.23 1.877 0 2.389 0-.341 0 .171-.46-.341-.46-.341.46-1.707-.229-2.048.46Zm192.503 2.068c.683 0-.341.459-.341.689.682.689 1.024 0 2.218.23.171-.23.171-.689.683-.689-.171-.46-.512-.919.171-1.149 0-.23-.342-.46-.854-.46-.17.919-1.365.69-1.877 1.379Zm-191.65 1.838h.854c.682-.46.512-1.379-.683-1.379-.341.69.171.919-.171 1.379Zm8.021.23c-.682 0-.682-.46-1.194-.46-.512.689 1.024.919 1.194.46Zm116.048 3.676c0 .23-.512.23-.17.23.17-.23.682.229 1.023 0-.17 0-.17-.23 0-.23h.171c-.683-.23-.683.459-1.024 0Zm-105.979 3.216c.512 0 .341.23.683.23.17-.23-.171-.23.17-.459h-.512s0-.23-.17 0c0 0-.171 0-.171.229Zm-.341 3.906c.341-.229.17-.919-.171-1.148-.512 0-.512 1.378.171 1.148Zm-.342 2.528c.342-.23.512.459 1.536.459.342-.229.171-.459.342-1.149-.683 0-1.024-.229-1.707 0 0 .23-.682.46-.171.69Zm-.511 1.608c1.023-.23.682.919 2.047.689-.17-.459.171-.689 0-1.148-.682 0-1.535 0-2.047.459Zm102.565.919c0 .23 0 .23.171.46.341 0 .512-.23.512-.46-.341-.23-.341 0-.683 0Zm-101.542.689c.683 0 1.195 0 1.195-.459-.683 0-1.195 0-1.195.459Zm105.98 1.379c.511 0 .511.23 1.194 0 0 0 0-.23.171-.23.17-.459-.853-.689-.512-.459.17.459-.683.689-.853.689Zm-105.126.689c-.171-.229-.171 0 0 0-.342-.229-.683-.229-.854-.229-.17.229.683.459.854.229Zm.853.46c0-.23 0-.689.171-.689-.342 0-.342-.23-.683 0-.341.229.171.459.512.689Zm105.808-.23c-.17-.23-.17-.689-.682-.689-.853.459.512.689.341 1.378.853-.229 2.219 0 2.389-.689-.512 0-1.365.23-2.048 0Zm-104.272 1.608c-.341-.689-1.365-.229-1.536-.919-.683.23-1.195-.229-1.536 0-.171 1.379 2.048 1.379 3.072.919Zm147.108 1.149c0-.23.17 0 .341 0 0-.23.171.23.512 0 0-.23.171 0 .341-.23-.512 0 .342 0 .171-.229-1.024-.23-.683.459-1.195 0 0 0 0-.23-.17 0 0 .229-.171.459 0 .459Zm-148.132 1.609c.512.459.171 2.297-.171 2.527-.512 0-.341.23-.853 0v-.46h-.853c-.171.23.17.46 0 .69h-.854c0 .229.001.229-.17.229 0-.229-.341-.229-.341 0 .17 0 0 .23-.171 0 0 .46 0 .69.512.46.341-.23-.171-.46.17-.46.683.23.512-.229 1.195 0 .171-.229-.512-.459-.171-.459.683.23.342.459 1.366.459.17-.229.17-.689.512-.689.17.23.682.23.512.46-.342.229-.342-.23-.683 0v.459c1.365-.459.341.919 1.365.919.171-1.608-1.706-3.906-1.194-5.974-.512.23-.854 0-1.366 0-.17.919.854 1.609 1.195 1.839Zm100.177-1.609c.341 0 .682.23.682-.23-.341 0-.682 0-.682.23Zm-9.557.919c0-.459 0-.689-.342-.689-.17.23-.511.23-.341.689.171-.23.341.23.683 0-.342-.23-.171 0 0 0Zm-92.497 5.055c-.512-.23.512-.23.341-.46-.683 0-.853.69-.341.46Zm51.539 4.365c.17-.229.682 0 .512.46 2.218-.23 2.73-1.379 3.072-2.757-.683-.46-1.366-.46-1.878 0-.17.689.512 1.378-.17 1.608-.171-.689-.854-1.149-1.024-1.838-.854.23-.683 1.379-1.366 1.838.683-.23.854.46.854.689Zm-47.785-2.297c-.17 0-.341-.689-.682-.46.341.23.512.919.682.46Zm39.934 3.216c.683 0 .683-.459 1.195-.459-.341-.46.171-.46.341-.919-.682.459-.853 1.149-1.536 1.378Zm9.045 1.149c0 .23-.17.23-.17.23.512.23 1.024-.23 1.706 0 0-.46.854-.46.683-1.149-1.024-.23-1.195-.459-2.219-.23 0-.229 0-.229-.17-.459-.342.23-.683 0-1.024.459.853.23 1.365.919 1.706 1.149-.341 0-.341-.23-.512 0Zm-10.069-.689c0 .23.512.23.342.689-.171.46-.683.46-.683 1.149.683 2.527 3.755.23 2.219-1.378-.854 0-1.366-.23-1.195-.92-.341 0-.512.23-.683.46Zm3.243 1.149c0-.23.683 0 .853-.23-.17-.23 0-.459-.341-.689-.171.459-.853.689-.512.919Zm49.832 2.527c.342 0 1.024.23 1.195.23-.512 0 .171-.46-.341-.689h-.171c.341.229-1.024 0-.683.459Zm-54.781.46c0-.23 0-.919-1.024-.69.171.23-.512.46-.171.69.342-.23 1.195.229 1.195 0Zm-15.359-.23c-.342.459.512.689 1.194.459.171-.459-.853-.689-1.194-.459Zm4.778 1.378c.512 0 .853-.229 1.024-.689-.683 0-1.195.46-1.024.689Zm2.389.69c.171-.23 1.366-.23.854-.46-.342 0-1.195.23-.854.46Zm65.363 2.987c-.683 0-2.219.689-1.195 1.378 1.195 0 1.706-.459 2.048-1.149.512.23 1.194-.229 1.365-.459-.853.23-2.048-.23-2.73 0 .341-.23.512-.23.512.23Zm12.799-.46h-.683c0 .46.683.46.683 0Zm-68.605 1.838c-.341.46 0 1.149.853 1.379 0-.919 1.366-.919 1.536-1.609-1.024-.229-1.365.23-2.389.23Zm5.291 0c.17 0 .853.23.853 0-.512 0-.171-.23-.341-.459-.342 0-.683.229-.512.459Zm66.215 0c-.171.689-.171 1.149 1.195 1.149 0-.46 0-.919.341-1.149-.683-.459-.683-.23-1.536 0Zm-10.069.46h-.341c.341 0 .683 0 .853-.23-.17-.23-.512 0-.512.23 0-.23 0-.23 0 0Zm-1.536.459c0 .23.171.23.171.46.341-.23 1.707 0 1.707-.69-.854 0-1.195 0-1.878.23Zm-66.727.69c.682-.46 1.536.229 1.706-.69-1.024.23-.512-.23-1.536-.23 0 .46-.512.92-.17.92Zm96.934.459c0 .46-.683.23-.512.689.683 0 .341-.229.512-.459.512.459 0 1.378 1.195 1.378.17-.689 1.023-.689 1.194-1.378-.683 0 .171-.23-.341-.23-.171 0-1.365.23-2.048 0Zm-20.82.689c.341 0 .341.23.512 0 0-.229.17-.229.17-.459h-.512c0 .459-.17.459-.17.459Zm22.356 5.285c0-.23-.171-.23-.171-.23 0-.23.512-.23.853-.459-.17-.23 0-.46-.341-.69-.341.23-.682.46-1.365.46 0-.689.512-.919.512-1.609-.683 0-1.536 0-1.707-.919.512-.229.512-.689.342-1.378-.342 0-.512-.23-.854-.23-.17.23-.341.46-.341.689.341 0 .512 0 .341.23-.341.23-.853.46-1.024.919.342 0 .683 0 .854.23v.919c-.342 0-.683 0-.512.459.512.23 1.024.46 1.365.69-.171 0-.171.23-.171.459.854 0 1.195.69 2.56.46 0-.23.171-.23 0-.23.171.23 0 .23-.341.23Zm-43.006-3.217c-.683 0-1.024.23-1.365 0-.171.46.341.46.341.919 1.195 0 2.389-.23 3.413-.689 0-.689-.853-.919-2.048-.919-.341.459-.17.459-.341.689Zm2.901.23h.512s0-.23.171-.23c0 .23.341.23.341 0-.171 0-.512 0-.683-.23 0 .23-.341.23-.341.46Zm1.877.459c.342.23.512.46 1.195.23 0-.459.512-.689-.171-.919-.17.919-.853.23-1.024.689Zm-9.386 2.528c-1.195-.919-3.072-.689-5.12-.46-.17 0-.341-.229-.853-.229-.512.459-1.195.919-2.389.919 0 .229 0 .229-.171.459 2.048 1.149 3.243-.23 4.949-.689 1.195.23 2.389 1.149 3.925.919 0-.23-.512-.23-.341-.919Zm-8.362 1.838c.17.23 1.024.23 1.194 0-.17 0-.17-.23-.341-.23-.341-.23-.853-.23-.853.23Zm-9.386.23c.17 0 .682 0 .853-.23-.512 0 0-.23-.341-.23 0 .23-.683 0-.512.46Zm15.188-.23c.171.23 1.024.689 1.365.459-.17-.689-.853-.459-1.365-.459Zm-10.239.919c.512 0 .682-.46.682-.919h-.341c0 .459-.341.459-.341.919Z" clip-rule="evenodd"/><path fill="#2C2321" fill-rule="evenodd" d="M288.237 192.987c.682 0-.342.459-.342.689.512.23.512.919-.17 1.378.511.46 0 .919 0 1.379-.512 0-.342-.23-.854 0 .854-1.379.512-2.527 1.366-3.446Zm3.925 1.148h.512c-.342.23-1.024.46-1.195.919-.341 0-.512-.459-.853-.459.341-.689 1.536.459 1.536-.46Zm38.91 12.638c-.341.229-.683.459-.853.689-.342-.46.682-.919.341-1.379.512-.229 1.365-.229 1.707-.229.17.459-1.024.689-1.195 1.378-.341 0 .171-.23 0-.459Zm-5.291 4.364c0-.229-.341 0-.512 0-.17-.229.171-.229.171-.459.341 0 .341.23.853.23.171.229-.682.229-.17.459-.512.46-.683 0-1.195.46 0-.46.512-.46.853-.69Zm18.261 1.149c0-.229.341.23.683 0 0 .46.512.69.17 1.149-.682.23-.341-.459-.853-.23-.171-.459.512-.689 0-.919Zm-157.689 4.596c.341.229-.341.459-.341.689-.341 0 .171-.23 0-.689.171.229.341 0 .341 0Zm177.144 12.178c0 .459-.683 1.378-1.195 1.838-.341-.46.854-1.379 1.195-1.838Zm13.141 26.192h-1.195c0-.69.171-.919.683-1.379 0 .689 1.024.46 1.024 1.379-.512 0-.171.459-.683.459-.171-.23.171 0 .171-.459Zm-206.156 7.352c-.171.23-1.024 0-1.195.459-.341 0 .512-.689 1.195-.459Zm-7.338 1.15c.341 0 1.194-.23 1.365.23-.512-.23-.683 0-1.195 0 0 0 0-.23-.17-.23Zm8.362 19.989c.341 0 .512.229.853.229 0 .23-.853 0-.853.23-.341 0 .171-.23 0-.459Zm50.003 38.829c.171.23 1.195 0 1.195.459-.342.46-1.024 0-1.195-.459Zm57.512 13.556c.171-.23.512.229 1.024 0-.171.229-.342.229-.853.229 0 0 0-.229-.171-.229Zm58.024-129.356c.853.459.341 1.149.341 1.838h-1.024c.512-.689.512-1.379.683-1.838Zm-2.219 5.285c0 .23.512.23.342.69-.342.229-.171 0-.512 0 .17.229.17.229.17.459-.512 0-1.024-.459-1.365-.23-.512-.229 0-.459-.341-.689.512-.23.853-.23 1.706-.23Z" clip-rule="evenodd"/><path fill="#fff" d="M272.809 179.38c.096-.688.2-1.372.264-2.068a12.596 12.596 0 0 0 2.244-7.172v-6.444a6.242 6.242 0 0 0-6.232-6.232h-1.324c.136-.484.308-.96.408-1.452 1.22-6.016-.372-11.976-4.412-17.308 6.46-.576 11.56-5.956 11.56-12.564v-6.444c0-2.712-4.7-6.672-5.16-6.884L148.733 57.46c.012-17.092-.328-32.752-2.7-49.644L144.941 0l-1.148 7.808c-2.464 16.716-2.584 32.952-2.452 49.888 0 0-111.1 57.072-111.644 57.768-1.328 1.7-3.256 5.756-1.24 13.852.308 1.172.804 2.248 1.396 3.256-.76 1.448-1.408 2.972-1.796 4.652-1.62 7.032.48 14.78 5.212 20.052l-.58.296c-2.608.272-4.68 2.412-4.68 5.096v2.556a19.194 19.194 0 0 0-3.952 8c-.848 3.68-.648 7.56.38 11.18-4.52 3.036-8.576 6.236-11.936 9.632-8.384 8.476-12.588 17.544-12.5 26.948.344 36.7 68.872 66.452 152.888 66.452h.616c60.944-.104 115.812-15.836 139.776-40.072 8.384-8.476 12.584-17.54 12.496-26.944-.14-15.496-12.476-29.74-32.968-41.04Zm-3.728-17.948a2.263 2.263 0 0 1 2.26 2.26v6.444c0 4.8-3.908 8.708-8.708 8.708H85.325c5.004-2.396 9.7-6.508 13.496-11.924 1.048 2.72 2.856 4.912 5.36 6.468 5.528 3.432 12.752 2.8 15.224 1.72 3.992-1.744 7.628-4.544 10.704-8.024 6.296 4.044 13.756 6.408 21.768 6.408 11.208 0 21.316-4.64 28.656-12.06h17.124c1.276 6.396 5.204 13.06 11.94 15.532a20.96 20.96 0 0 0 7.208 1.256c7.008 0 13.952-3.348 17.948-8.968 5.192 4.164 11.624 5.448 17.956 3.544 5.808-1.756 10.768-6.04 13.52-11.364h2.852Zm-168.816 47.996v.004c5.516 3.376 12.688 2.752 15.14 1.676a27.718 27.718 0 0 0 3.2-1.676h27.336c1.592 1.5 3.456 2.728 5.608 3.516a20.944 20.944 0 0 0 7.208 1.256c5.012 0 9.976-1.74 13.868-4.772h13.748a19.2 19.2 0 0 0 5.136 0h21.804c5.76 3.176 12.352 5.012 19.376 5.012 7.048 0 13.676-1.82 19.456-5.012h16.94a2.263 2.263 0 0 1 2.26 2.26v6.444c0 4.8-3.908 8.708-8.708 8.708H40.689c-4.8 0-8.708-3.908-8.708-8.708v-7.476c0-.668.564-1.232 1.228-1.232h24.696c3.432 4.52 8.268 7.8 13.644 7.8.084 0 .172-.004.256-.004 6.02-.116 12.092-2.96 17.324-7.796h11.136Zm-7.404-3.964a41.956 41.956 0 0 0 1.96-2.544c.352.916.824 1.752 1.348 2.544h-3.308Zm63.012-7.996 1.4-9.132 3.46 4.216-1.74 11.36 2.244.344 1.432-9.344 4.488 5.476 1.752-1.436-8.284-10.1 11.028.176.04-2.264-12.884-.208v.08l-3.132-3.82h37.564c1.46 6.36 4.364 12.168 8.396 17.012-2.212 2.36-5.02 4.184-8.132 5.12-.772.232-1.54.4-2.304.516h-4.54c-3.264-.496-6.336-2.072-8.992-4.724l-1.92-1.916-1.26 2.404c-3.788 7.216-13.66 10.852-21.56 7.964-7.832-2.868-11.236-14.076-9.304-19.864l1.84-5.532-4.848 3.236c-2.58 1.72-4.992 2.944-7.312 3.816.012-.04.032-.076.044-.112a79.74 79.74 0 0 0 2.332-7.916h17.064l2.596 3.164-1.708 11.144 2.24.34Zm67.384-12.024c.284.328 3.012.052 3.012.052-.248.428-.576 1.02-.396 1.772.14.6.532 1.06 1.104 1.292.668.26 1.532.18 2.14-.216l.188-.128c.216-.144.38-.248.504-.308.108 1.124.788 2.264 1.756 2.804.672.38 1.448.44 2.12.172a2.349 2.349 0 0 0 1.388-1.46c.272-.812.16-1.66.052-2.484-.032-.24-.064-.48-.084-.72-.068-.76.136-1.224.232-1.276.068-.004.344.056 1.04.688a109.766 109.766 0 0 1 11.364 12.004c.576.704 1.148 1.452 1.288 2.228.232 1.24-.68 2.18-2.696 2.792-5.792 1.748-12.368 3.74-19.136 1.724-2.764-.82-5.752-2.38-9.14-4.76-3.432-2.42-5.96-4.776-7.96-7.352.02-.092.056-.176.076-.268.212-1.052.312-2.1.352-3.148 3.312-2.232 6.784-4.22 10.352-6.032h2.688c-.292.52-.524 2.296-.244 2.624Zm-12.788 1.384c-.084-1.352-.348-2.688-.704-4.012h7.496a96.977 96.977 0 0 0-6.792 4.012Zm6.552 14.18c3.54 2.492 6.688 4.124 9.632 5.004 2.208.652 4.376.916 6.492.916 4.84 0 9.424-1.384 13.62-2.648 2.86-.868 4.268-2.588 3.876-4.728-.216-1.168-.928-2.12-1.644-2.992a111.237 111.237 0 0 0-11.536-12.188c-.48-.436-1.336-1.268-2.408-1.116-1.168.152-1.856 1.408-1.704 3.108.024.26.06.532.092.796.084.66.168 1.284.024 1.724a.653.653 0 0 1-.392.416c-.2.084-.448.06-.68-.072-.58-.324-.508-2.032-.752-2.44-.508-.856-2.688-.38-3.456.128-.156.1-.424.12-.66-.036-.028-.108.072-.288.224-.56.26-.456.568-2.192.06-2.5-.508-.308-2.888-.048-2.888-.048.084-.164.2-.344.34-.556.088-.132.16-.268.24-.404h16.512c5.608 2.976 11.44 5.6 17.44 7.696.32.108.756.26 1.252.26.192 0 .392-.024.596-.08 1.06-.292 1.848-1.316 2.352-3.052.464-1.584.752-3.276.964-5.028 1.428-.228 2.756-.7 3.984-1.36.296.156.576.316.872.472-3.688 17.052-18.744 29.884-36.788 29.884-10.34 0-19.716-4.212-26.536-11.016a21.976 21.976 0 0 0 3.328-6.332c1.976 2.348 4.396 4.532 7.544 6.752Zm28.8-18.192h16.816c.088 0 .168-.024.256-.028-.204 1.524-.468 2.996-.872 4.376-.312 1.084-.74 1.768-1.172 1.888-.208.056-.476-.024-.836-.152-4.856-1.692-9.576-3.796-14.192-6.084Zm14.372 22.648h-2.172c.26-.212.52-.42.776-.636l1.396.636Zm-52.796 0h-6.216a23.245 23.245 0 0 0 3.152-2.72c.972.96 2 1.86 3.064 2.72Zm-1.2-14.264c-.46 2.268-1.428 4.424-2.752 6.356a37.885 37.885 0 0 1-7.328-14.74h9.464c.928 2.744 1.184 5.564.616 8.384Zm-29.18 14.264h-.504c.056-.08.128-.148.184-.228.108.084.216.148.32.228Zm-37.912-12.824c-.068 4.1 1.18 8.84 3.668 12.824h-18.928c2.9-2.712 5.368-6.036 7.292-9.736 2.932-.668 5.628-1.792 7.968-3.088Zm109.728 38.176c-1.164 1.856-2.612 3.688-4.388 5.484-15.768 15.944-52.184 26.292-92.776 26.364h-.416c-46.76 0-86.144-13.54-97.516-31.848h195.096ZM41.681 205.464l11.62-5.888a24.87 24.87 0 0 0 2.064 5.888H41.681Zm-8.992.104c-2.608.272-4.68 2.412-4.68 5.096v7.476c0 6.988 5.688 12.676 12.676 12.676h10.468c11.156 19.572 51.804 34.112 100.1 34.112h.416c41.16-.072 78.212-10.684 94.384-27.036 2.272-2.3 4.072-4.664 5.416-7.08h11.164c6.988 0 12.676-5.688 12.676-12.676v-6.444c0-3.136-2.34-5.716-5.36-6.144l-8.048-3.668a41.013 41.013 0 0 0 7.604-11.204c13.124 8.156 20.704 17.908 20.704 28.636 0 31.276-61.332 56.724-136.72 56.724s-136.72-25.444-136.72-56.724c0-8.856 5.148-17.052 14.304-24.24 3.532 3.044 7.832 4.7 12.608 4.92l-10.992 5.576Zm109.752-61.076c.28.38 3.012.052 3.012.052-.248.428-.576 1.02-.396 1.772.14.6.532 1.06 1.104 1.292.672.264 1.532.176 2.14-.216l.188-.128c.22-.144.38-.248.508-.308.108 1.124.784 2.26 1.752 2.804.672.38 1.444.44 2.12.172a2.349 2.349 0 0 0 1.388-1.46c.272-.812.16-1.66.052-2.484-.032-.24-.064-.48-.084-.72-.068-.76.136-1.224.232-1.276.056-.012.376.084 1.04.688 4.02 3.644 7.844 7.68 11.36 11.996.6.74 1.152 1.464 1.292 2.236.284 1.548-1.308 2.372-2.696 2.788-5.8 1.752-12.384 3.74-19.136 1.728-2.764-.82-5.752-2.38-9.14-4.76-3.656-2.58-6.312-5.076-8.368-7.856-.68-.92-.828-1.524-.736-1.784.048-.136.228-.268.444-.416a96.818 96.818 0 0 1 14.856-8.476c.056.228.072.468.012.596-.1.208-.236.404-.364.596-.408.62-1.152 2.392-.58 3.164Zm-14.88 2.708c-.32.22-.852.584-1.084 1.26-.324.916.004 2.044.972 3.352 2.164 2.932 4.944 5.552 8.756 8.24 3.54 2.492 6.688 4.124 9.632 5.004 2.172.644 4.328.904 6.44.904 4.952 0 9.656-1.42 13.672-2.636 2.86-.86 4.268-2.584 3.876-4.724-.212-1.164-.928-2.116-1.644-2.996a111.29 111.29 0 0 0-11.54-12.188c-.672-.6-1.484-1.248-2.404-1.112-1.168.152-1.856 1.408-1.704 3.108.024.26.06.532.092.796.084.66.168 1.284.024 1.724a.653.653 0 0 1-.392.416c-.216.084-.452.056-.68-.072-.58-.324-.46-2.02-.752-2.44-.704-1.028-2.688-.38-3.456.128-.152.1-.856.092-.436-.592.276-.448.34-2.18.06-2.5-.28-.32-2.892-.052-2.892-.052.084-.164.2-.344.34-.556.172-.26.344-.524.476-.804.396-.816.168-1.924-.304-2.644h13.58c.48 1.748 1.044 3.46 1.816 5.08 3.62 7.608 10.416 13.488 18.164 15.728.056.016.108.02.164.036-6.816 6.78-16.152 11-26.472 11-18.732 0-34.26-13.82-37.18-31.84h27.544c-5.096 2.364-10.036 5.164-14.668 8.38Zm68.032 10.264a40.751 40.751 0 0 0 1.564-.808c-.004.26.036.544.04.808h-1.604Zm68.652-2.252c-1.28 6.32-6.384 11.844-12.696 13.752-5.752 1.744-11.376.248-15.836-4.208l-1.92-1.916-1.26 2.404c-3.784 7.216-13.64 10.864-21.564 7.964-7.828-2.868-11.232-14.076-9.3-19.864l1.84-5.532-4.848 3.236c-7.368 4.912-13.528 6.416-19.372 4.732-6.668-1.924-12.524-7.012-15.664-13.6-.512-1.076-.908-2.208-1.26-3.36h65.476l-2.712 3.68-12.044 1.728.32 2.244 9.84-1.412-3.392 4.6-12.28 1.76.32 2.244 10.072-1.444-4.364 5.92 1.828 1.344 8.236-11.172 2.936 10.744 2.188-.592-3.396-12.424-.06.016 5.216-7.076-.208-.152h28.24c4.772 4.988 6.816 10.7 5.664 16.384ZM144.901 17.348c1.7 16.772 1.62 32.816 1.536 50.948-.032 6.42-.064 13.04-.016 19.952-.788-.012-1.58-.02-2.368-.024l-.392-.004c.152-8.296.076-16.528-.004-24.5-.152-15.884-.292-31.04 1.244-46.372Zm-3.524 44.78c.004.54.008 1.076.016 1.62.08 8.32.16 16.924-.02 25.58l-.024 1.144 2.688.028c1.164.008 2.328.012 3.492.052l1.18.04-.012-1.18c-.064-7.332-.028-14.324.004-21.096.012-2.196.02-4.344.028-6.488l111.464 50.812H41.681l99.696-50.512ZM33.209 117.432h235.876a2.263 2.263 0 0 1 2.26 2.26v6.444c0 4.8-3.908 8.708-8.708 8.708h-1.064l5.008-10.536-2.048-.976-5.472 11.512h-4.036l4.924-10.364-2.048-.976-5.388 11.34h-4.04l4.844-10.192-2.048-.976-5.308 11.168h-4.04l4.76-10.02-2.048-.976-5.224 10.996H40.689c-3.932 0-7.384-2.688-8.388-6.516-.4-1.608-.58-2.956-.668-4.168h110.86v-2.168c0-.192.06-.336.1-.5H31.625c.28-2.78 1.344-3.948 1.584-4.06Zm32.108 25.848c.304-.052 3.056-.576 5.296-2.248a9.613 9.613 0 0 0 2.136-2.212h3.02a9.703 9.703 0 0 0 2.136 2.216c2.24 1.676 4.988 2.196 5.296 2.248l3.676.648-1.12-3.56c-.04-.124-.272-.752-.744-1.548h10.892c-3.62 6.164-11.916 10.524-21.644 10.524-9.728 0-18.02-4.36-21.64-10.524H63.53c-.48.796-.724 1.424-.764 1.548l-1.12 3.56 3.672-.652Zm-.392-2.236s.36-1.088 1.372-2.232h3.384c-.148.132-.256.272-.428.396-1.868 1.404-4.328 1.836-4.328 1.836Zm13.908-2.228h3.384c1.012 1.14 1.372 2.232 1.372 2.232s-2.456-.436-4.328-1.836c-.168-.128-.28-.264-.428-.396Zm-46.876-.696c.18-.784.416-1.532.696-2.248 2.212 1.84 5.016 2.944 8.036 2.944h8.716c3.676 7.768 13.396 13.36 24.856 13.36 11.452 0 21.144-5.596 24.824-13.36h12.732a40.793 40.793 0 0 0 15.028 25.924c-2.628 2.904-5.696 5.24-9.044 6.704-1.488.652-7.264 1.188-11.508-1.448-2.828-1.76-4.352-4.616-4.528-8.488l-.32-7.152-3.428 6.284c-5.5 10.076-14.04 16.432-22.288 16.588-7.708.068-14.564-9.364-14.94-17.256l-.128-2.74-2.572.964c-8.1 3.036-15.388 2.248-20.5-2.228-4.852-4.248-7.112-11.42-5.632-17.848Zm.024 24.544c0-.668.564-1.232 1.228-1.232h5.312c5.24 2.896 11.632 3.392 18.568 1.316 1.136 6.348 5.248 12.756 10.712 16.096H40.69c-4.8 0-8.708-3.908-8.708-8.708v-7.472Zm-4.024 11.456c.096-.416.26-.784.392-1.176 1.284 5.64 6.316 9.872 12.34 9.872h43.376l-1.74 2.36-12.048 1.728.32 2.244 9.844-1.412-3.392 4.6-12.28 1.76.32 2.244 10.072-1.444-4.364 5.92 1.828 1.344 8.236-11.168 2.932 10.74 2.188-.592-3.396-12.424-.056.016 4.356-5.904h44.712a86.81 86.81 0 0 1-2.032 6.604c-2.86 8.224-8.752 14.96-15.76 18.024-1.492.648-7.268 1.188-11.508-1.448-2.828-1.76-4.352-4.616-4.528-8.488l-.32-7.152-3.428 6.284c-5.5 10.076-14.04 16.432-22.288 16.588-.06 0-.112.004-.172.004-7.528 0-14.392-9.428-14.768-17.26l-.128-2.74-2.572.964c-8.104 3.036-15.388 2.248-20.5-2.228-4.856-4.26-7.116-11.432-5.636-17.86Zm262.508 70.456c-23.256 23.52-77.02 38.784-136.964 38.892h-.62c-81.84 0-148.584-27.992-148.908-62.524-.08-8.308 3.744-16.42 11.352-24.116 2.996-3.028 6.572-5.892 10.544-8.624a21.626 21.626 0 0 0 3.732 5.408c-9.648 7.596-15.092 16.292-15.092 25.708 0 32.528 62.348 58.988 138.984 58.988 76.636 0 138.984-26.46 138.984-58.988 0-11.488-8.128-21.9-22.144-30.54a40.47 40.47 0 0 0 1.768-5.624c18.524 10.416 29.58 23.324 29.712 37.312.08 8.3-3.74 16.412-11.348 24.108Z"/><path fill="#fff" d="M239.717 200.808c.412.468 1.056.816 1.728.816.288 0 .584-.068.864-.212.388-.208.704-.556.936-1.028.924-1.84.08-3.984-1.104-5.204-1.212-1.248-2.828-1.912-4.256-2.496l.956 6.236c.16.584.364 1.304.876 1.888Zm1.2-4.44c.8.82 1.332 2.204.804 3.252-.104.216-.2.276-.216.284-.076.036-.34-.02-.512-.22-.256-.296-.392-.768-.52-1.228l-.868-3.092c.488.288.936.616 1.312 1.004Zm-13.34 5.877c.184.06.38.088.584.088.252 0 .524-.048.808-.136 1.956-.632 2.892-2.748 2.928-4.444.036-1.756-.66-3.436-1.22-4.784l-3.756 5.064c-.3.528-.672 1.18-.732 1.952-.06.88.392 1.944 1.388 2.26Zm.828-3.372 1.592-2.788c.132.544.216 1.088.204 1.632-.024 1.148-.636 2.5-1.748 2.864-.24.072-.344.044-.36.048-.104-.036-.224-.272-.204-.52.032-.392.276-.82.516-1.236Zm-13.448-6.608c-.636.62-.996 1.72-.46 2.608.228.372.584.672 1.08.892.484.212.984.3 1.476.3 1.424 0 2.804-.768 3.66-1.7 1.18-1.28 1.752-2.932 2.256-4.392l-6.176 1.304c-.6.212-1.28.448-1.836.988Zm5.428-.408a6.11 6.11 0 0 1-.92 1.36c-.772.844-2.128 1.46-3.204.992-.228-.1-.288-.184-.304-.208-.052-.084.008-.34.192-.52.276-.268.728-.424 1.2-.588l3.036-1.036Zm-61.484-32.003c.412.468 1.06.816 1.728.816.284 0 .58-.064.856-.212.392-.204.708-.552.944-1.028.924-1.84.08-3.984-1.104-5.2-1.204-1.248-2.828-1.916-4.256-2.5l.96 6.236c.168.612.364 1.308.872 1.888Zm1.2-4.44c.8.82 1.332 2.204.804 3.252-.108.22-.2.272-.22.284-.076.036-.336-.02-.508-.22-.252-.292-.384-.752-.52-1.232l-.868-3.092c.488.292.936.62 1.312 1.008Zm-13.352 5.874c.192.064.392.091.6.091.252 0 .524-.048.804-.136 1.956-.632 2.892-2.748 2.928-4.444.036-1.74-.628-3.356-1.22-4.783l-3.756 5.064c-.3.528-.672 1.18-.732 1.952-.06.884.392 1.948 1.376 2.256Zm.836-3.368 1.592-2.789c.132.544.216 1.085.204 1.633-.024 1.148-.636 2.499-1.748 2.863-.24.068-.34.049-.364.041-.092-.028-.22-.257-.2-.513.036-.392.28-.819.516-1.235Zm-13.232-7.308c-.636.62-.996 1.72-.46 2.608.228.38.592.676 1.08.888.488.212.988.304 1.48.304 1.424 0 2.8-.772 3.656-1.7 1.18-1.28 1.752-2.932 2.256-4.392l-6.176 1.304c-.6.212-1.28.448-1.836.988Zm5.424-.412a6.11 6.11 0 0 1-.92 1.36c-.78.844-2.132 1.452-3.212.984-.172-.076-.264-.152-.296-.2-.052-.084.008-.34.192-.52.276-.268.728-.424 1.2-.588l3.036-1.036Zm6.72-26.036h15.668v-2.668h-15.768c.04.164.1.308.1.5v2.168Zm43.836-2.672h-24.16v2.668h24.16v-2.668Z"/></svg>