<?xml version="1.0" standalone="no"?>
<!DOCTYPE svg PUBLIC "-//W3C//DTD SVG 20010904//EN" "http://www.w3.org/TR/2001/REC-SVG-20010904/DTD/svg10.dtd">
<svg
  version="1.0"
  xmlns="http://www.w3.org/2000/svg"
  width="1625.000000pt"
  height="1819.000000pt"
  viewBox="0 0 1625.000000 1819.000000"
  preserveAspectRatio="xMidYMid meet"
>
  <metadata>
    Created by potrace 1.12, written by Peter Selinger 2001-2015
  </metadata>
  <g
    transform="translate(0.000000,1819.000000) scale(0.100000,-0.100000)"
    fill="#000000"
    stroke="none"
  >
    <path
      d="M7635 17838 c-11 -6 -24 -17 -28 -25 -4 -7 -17 -13 -27 -13 -10 0
-25 -9 -33 -20 -8 -11 -16 -18 -19 -15 -3 3 -11 -1 -18 -10 -7 -8 -17 -15 -22
-15 -5 0 -16 -7 -24 -15 -8 -8 -21 -12 -29 -9 -8 4 -15 1 -15 -5 0 -6 -17 -11
-40 -11 -26 0 -42 -5 -49 -17 -7 -14 -27 -17 -108 -19 -54 -2 -98 -3 -98 -4 0
-1 -15 -3 -32 -4 -18 -2 -33 0 -33 5 0 5 -10 5 -22 0 -13 -5 -45 -7 -73 -5
-93 7 -160 14 -185 18 -14 3 -56 8 -95 11 -38 3 -92 10 -120 15 -27 5 -93 12
-145 15 -107 7 -121 8 -170 20 -19 4 -102 9 -185 11 -82 2 -170 4 -195 5 -25
1 -72 -1 -105 -4 -33 -4 -103 -9 -155 -12 -138 -8 -172 -12 -179 -22 -3 -5
-24 -10 -46 -11 -107 -5 -243 -36 -252 -59 -4 -9 -9 -10 -17 -4 -8 7 -36 5
-81 -4 -39 -8 -73 -15 -77 -15 -5 0 -8 -6 -8 -12 0 -7 -15 -15 -33 -16 -67 -7
-233 -5 -272 3 -50 11 -275 13 -282 2 -2 -4 -8 -5 -12 -2 -5 2 -44 -2 -87 -11
-65 -12 -156 -21 -264 -26 -8 0 -22 -6 -30 -13 -8 -7 -30 -13 -49 -13 -19 0
-37 -5 -40 -10 -3 -5 -13 -10 -21 -10 -76 -7 -114 -15 -127 -28 -9 -8 -21 -13
-28 -10 -15 6 -105 -20 -119 -34 -6 -6 -21 -10 -36 -10 -14 0 -45 -10 -70 -22
-25 -12 -60 -22 -78 -24 -19 -2 -49 -14 -67 -28 -19 -15 -47 -26 -65 -26 -18
0 -33 -6 -36 -15 -4 -8 -12 -15 -20 -15 -8 0 -22 -5 -32 -10 -9 -6 -46 -24
-82 -40 -74 -34 -151 -77 -160 -88 -3 -4 -18 -12 -35 -18 -16 -6 -29 -16 -28
-22 2 -7 -6 -12 -16 -12 -19 0 -40 -15 -104 -73 -19 -17 -37 -25 -46 -22 -45
18 -421 1 -465 -20 -16 -8 -35 -15 -43 -15 -7 0 -13 -5 -13 -10 0 -6 -6 -10
-12 -9 -22 3 -98 -13 -98 -21 0 -6 -88 -25 -98 -21 -7 4 -62 -31 -62 -39 0 -6
-9 -10 -20 -10 -23 0 -206 -107 -270 -158 -51 -41 -160 -153 -160 -165 0 -4
-11 -12 -25 -17 -14 -5 -25 -16 -25 -24 0 -9 -9 -20 -20 -26 -11 -6 -20 -20
-20 -30 0 -11 -3 -19 -7 -19 -23 4 -33 -4 -43 -36 -6 -19 -16 -35 -21 -35 -5
0 -9 -6 -9 -14 0 -8 -6 -27 -14 -43 -8 -15 -23 -46 -34 -68 -29 -58 -45 -244
-24 -282 13 -22 -13 -134 -32 -145 -15 -8 -76 -126 -76 -147 0 -5 -7 -12 -16
-15 -8 -3 -13 -10 -9 -15 3 -5 1 -12 -4 -15 -5 -3 -7 -15 -4 -26 3 -11 1 -20
-5 -20 -10 0 -30 -64 -36 -115 -2 -17 -13 -46 -24 -65 -12 -21 -22 -58 -23
-90 -2 -30 -7 -61 -12 -67 -6 -8 -5 -13 1 -13 7 0 11 -45 11 -134 0 -134 10
-203 34 -228 6 -8 26 -40 42 -72 17 -32 41 -67 55 -78 48 -38 66 -103 35 -128
-8 -7 -15 -21 -15 -32 0 -11 -5 -28 -10 -39 -8 -13 -7 -19 0 -19 6 0 4 -7 -4
-16 -9 -8 -16 -22 -16 -30 0 -8 -5 -14 -11 -14 -6 0 -9 -9 -6 -20 3 -11 0 -20
-5 -20 -7 0 -6 -5 1 -14 13 -15 4 -49 -10 -40 -5 3 -9 -6 -9 -20 0 -14 -5 -28
-10 -31 -21 -13 -6 -214 20 -266 5 -9 7 -28 6 -43 -2 -14 1 -26 5 -26 5 0 9
-19 9 -42 0 -38 27 -139 30 -113 3 18 28 -60 29 -87 1 -17 9 -32 21 -38 11 -6
20 -17 20 -25 0 -8 4 -15 9 -15 5 0 11 -8 15 -17 11 -34 44 -78 55 -76 6 2 13
-8 17 -22 3 -14 17 -34 30 -44 13 -10 24 -24 24 -30 0 -6 11 -17 25 -23 14 -6
25 -15 25 -20 0 -6 6 -8 12 -6 7 3 25 -7 41 -21 60 -55 67 -61 67 -53 0 4 4 2
8 -4 10 -16 103 -64 123 -64 9 0 27 -8 40 -17 13 -10 47 -29 74 -43 28 -14 51
-28 53 -32 2 -5 8 -8 13 -8 6 0 7 5 4 10 -3 6 1 10 9 10 9 0 16 -6 16 -14 0
-14 29 -26 63 -26 11 0 30 -9 44 -20 16 -13 41 -20 67 -20 43 0 117 -41 126
-70 2 -8 4 -45 5 -82 0 -36 3 -64 8 -61 4 2 7 -7 7 -21 0 -14 -5 -26 -10 -26
-7 0 -7 -8 1 -22 14 -25 22 -128 10 -128 -4 0 -8 -7 -8 -15 0 -8 4 -15 9 -15
4 0 8 -11 8 -25 0 -14 -3 -25 -7 -25 -10 0 -9 -63 1 -78 3 -5 4 -16 1 -24 -3
-7 -1 -50 3 -95 4 -46 5 -83 1 -83 -7 0 -2 -92 6 -117 2 -7 0 -15 -6 -19 -6
-3 -6 -10 -1 -17 5 -7 10 -119 11 -250 0 -131 3 -242 6 -247 3 -5 2 -11 -3
-14 -5 -3 -5 -29 -1 -58 4 -29 7 -172 8 -318 0 -146 1 -269 2 -275 1 -5 0 -14
-1 -20 -4 -19 -2 -161 4 -262 3 -57 3 -103 -2 -103 -9 0 -9 -41 1 -57 9 -14 6
-188 -3 -204 -5 -7 -4 -24 2 -38 6 -14 12 -98 14 -186 2 -88 7 -243 10 -345 4
-102 6 -204 5 -226 -1 -30 3 -44 15 -48 14 -5 14 -9 2 -29 -14 -23 -15 -50 -5
-412 6 -214 5 -207 17 -200 6 3 10 -4 10 -17 0 -19 -2 -20 -11 -8 -8 11 -9 -2
-5 -49 3 -36 10 -67 15 -70 12 -8 12 -100 0 -122 -6 -13 -6 -19 1 -19 14 0 13
-73 -2 -89 -9 -9 -9 -12 -1 -7 8 4 11 -26 12 -116 0 -151 0 -227 -1 -253 0
-11 2 -59 5 -107 2 -51 0 -88 -5 -88 -5 0 -6 -10 -2 -22 11 -37 12 -172 0
-180 -7 -5 -7 -8 2 -8 10 0 10 -5 2 -21 -7 -13 -8 -25 -2 -32 5 -7 9 -105 8
-227 -1 -118 2 -225 6 -238 4 -13 4 -41 -1 -63 -5 -23 -5 -41 0 -45 12 -7 11
-54 -1 -54 -5 0 -10 -11 -10 -25 0 -15 5 -24 12 -23 15 3 12 -40 -4 -59 -7 -9
-6 -13 3 -13 10 0 11 -2 2 -8 -8 -5 -9 -21 -3 -52 4 -25 8 -114 8 -199 0 -94
4 -156 11 -160 6 -4 7 -21 1 -46 -11 -52 -10 -195 1 -217 5 -9 4 -29 -3 -48
-8 -25 -8 -38 1 -52 6 -10 10 -22 7 -26 -11 -18 -15 -106 -6 -112 8 -5 7 -15
0 -35 -6 -15 -7 -37 -4 -49 4 -11 7 -95 6 -186 -1 -114 2 -166 10 -171 9 -6 9
-23 1 -66 -11 -61 -4 -113 8 -58 7 30 7 30 8 3 0 -15 -3 -30 -9 -33 -13 -8
-13 -88 0 -101 6 -6 5 -19 -5 -37 -12 -23 -12 -29 1 -41 8 -8 14 -25 14 -38 0
-15 -3 -19 -8 -11 -5 7 -8 -4 -7 -27 0 -22 3 -40 8 -40 4 0 5 -29 3 -65 -4
-46 -2 -64 6 -59 7 5 8 2 3 -5 -9 -15 -13 -81 -4 -76 9 6 4 -139 -6 -154 -5
-9 -4 -12 2 -8 13 8 14 -257 2 -291 -5 -14 -5 -21 0 -17 6 3 9 -270 8 -684 -2
-546 -5 -687 -15 -684 -7 3 -12 -3 -12 -14 0 -11 -7 -34 -16 -52 -9 -18 -14
-40 -11 -51 3 -12 -2 -20 -15 -24 -14 -3 -19 -10 -15 -20 4 -9 2 -16 -3 -16
-6 0 -10 -10 -10 -22 0 -13 -9 -37 -19 -55 -25 -39 -81 -179 -81 -200 0 -8 -9
-26 -20 -40 -11 -14 -20 -34 -20 -44 0 -10 -11 -39 -25 -65 -14 -26 -25 -58
-25 -70 0 -13 -3 -24 -7 -24 -5 0 -16 -21 -26 -48 -10 -26 -30 -75 -44 -110
-17 -41 -23 -72 -20 -91 5 -24 1 -34 -22 -52 -25 -20 -27 -26 -20 -57 4 -20 4
-43 -1 -53 -13 -23 0 -232 17 -279 4 -12 7 -11 13 5 5 12 7 -9 6 -53 -1 -65 2
-76 21 -92 12 -9 24 -28 27 -41 3 -13 7 -37 11 -52 3 -15 9 -26 14 -23 4 3 13
-12 20 -34 7 -23 19 -41 31 -45 10 -3 20 -16 22 -28 2 -14 10 -22 23 -22 13 0
20 -7 21 -21 1 -12 11 -31 23 -43 11 -11 21 -25 21 -31 0 -5 6 -7 14 -4 7 3
21 -6 30 -20 9 -15 22 -26 29 -26 7 0 18 -9 25 -20 7 -12 17 -18 22 -15 13 8
50 -17 50 -33 0 -7 6 -12 13 -11 25 3 38 -1 32 -11 -3 -5 6 -12 20 -16 14 -3
25 -10 25 -16 0 -5 5 -6 10 -3 5 3 10 2 10 -2 0 -12 55 -43 77 -43 10 0 24 -9
31 -20 7 -11 23 -20 37 -20 14 0 33 -8 43 -18 11 -11 37 -22 60 -26 25 -3 47
-14 56 -27 8 -12 19 -18 26 -14 6 4 17 1 25 -5 8 -6 19 -9 25 -5 5 3 10 2 10
-4 0 -10 68 -33 81 -28 4 1 15 -5 25 -14 25 -21 54 -31 54 -18 0 6 7 3 16 -5
14 -15 36 -21 58 -17 5 1 12 -2 15 -7 10 -14 108 -42 126 -36 10 4 15 2 13 -7
-3 -15 78 -36 144 -38 20 -1 40 -6 43 -11 3 -6 15 -10 26 -10 10 0 19 -4 19
-8 0 -5 14 -6 31 -4 24 4 30 2 24 -8 -5 -8 -4 -11 3 -6 6 4 19 2 29 -3 36 -19
79 -28 126 -25 26 2 47 -1 47 -7 0 -5 11 -9 25 -9 14 0 25 -4 25 -8 0 -8 36
-13 113 -16 15 -1 27 -7 27 -14 0 -10 5 -10 20 -2 16 9 20 8 20 -6 0 -12 6
-15 24 -10 14 3 28 1 32 -5 4 -7 22 -9 50 -4 24 3 59 2 77 -4 84 -25 138 -34
210 -36 42 -2 83 -8 90 -14 8 -6 31 -13 53 -15 21 -3 61 -8 89 -12 27 -4 68
-8 90 -9 22 -2 72 -8 110 -14 113 -18 125 -20 244 -26 62 -3 117 -8 122 -11
15 -9 96 -15 244 -18 77 -1 149 -7 159 -13 12 -7 31 -7 49 -2 18 5 37 4 50 -2
11 -7 88 -12 181 -13 88 0 164 -5 167 -10 4 -4 14 -4 24 1 10 6 32 7 49 3 31
-7 241 -4 261 4 6 2 42 1 80 -4 39 -4 72 -4 75 0 9 11 82 11 96 -1 11 -9 14
-8 14 2 0 12 2 12 9 0 7 -10 16 -11 42 -3 19 5 88 10 154 11 66 1 175 3 243 5
72 2 125 -1 129 -6 3 -6 9 -5 14 3 5 9 26 13 63 11 33 -1 56 2 56 8 0 5 7 10
15 10 8 0 15 -5 15 -10 0 -7 19 -9 53 -5 58 6 147 14 192 18 17 1 32 5 35 8 8
10 150 17 150 7 0 -5 6 -6 12 -2 12 8 40 12 113 17 17 1 33 7 37 12 5 6 8 5 8
-3 0 -7 5 -10 11 -6 6 4 37 8 67 11 31 2 60 9 64 16 6 9 8 9 8 0 0 -18 35 -16
50 2 10 12 15 13 20 4 5 -7 13 -8 21 -3 7 4 38 9 69 10 30 1 93 7 140 14 47 6
100 13 119 15 18 1 36 7 40 13 4 7 30 10 64 8 32 -2 60 1 63 6 3 5 13 7 21 4
9 -4 22 -1 29 5 8 6 24 9 37 5 13 -3 32 1 43 8 18 13 56 18 212 30 29 3 59 10
67 16 7 6 42 13 77 16 37 3 67 10 73 18 7 10 16 11 27 5 26 -14 198 25 198 45
0 6 4 5 9 -2 10 -16 47 -11 44 5 -1 6 6 9 16 6 10 -3 22 0 25 6 4 6 29 11 56
11 27 0 61 5 77 11 15 6 40 11 56 11 15 0 27 3 27 8 0 4 9 6 21 3 12 -3 24 0
28 6 5 7 25 14 47 16 21 2 66 9 99 16 33 6 68 12 77 12 9 1 15 4 12 8 -6 10
26 19 62 20 72 0 91 4 90 19 -1 11 9 15 37 14 20 -1 37 3 37 9 0 5 7 4 15 -3
10 -9 15 -9 15 -1 0 6 11 11 24 11 14 0 31 7 39 15 10 10 17 11 19 4 2 -7 17
-5 43 6 22 10 55 18 73 19 18 0 37 8 42 16 8 13 10 12 10 -2 0 -24 7 -23 33 5
21 22 28 24 140 28 10 0 20 6 23 13 3 8 16 11 35 8 20 -3 29 0 27 8 -2 7 10
13 31 15 18 2 37 9 41 15 4 7 15 10 24 7 9 -4 24 -2 34 3 9 5 34 12 55 15 23
4 37 11 37 20 0 8 5 15 10 15 6 0 10 -4 10 -8 0 -13 62 -1 78 14 7 8 23 14 36
14 12 0 26 4 32 8 5 5 29 14 54 21 51 15 88 29 110 42 8 5 27 14 42 20 16 6
26 14 24 18 -3 4 -1 13 5 21 7 12 9 11 9 -4 0 -17 2 -18 18 -4 9 9 27 19 40
22 12 4 22 14 22 21 0 8 6 12 13 9 11 -4 37 16 118 91 9 8 21 15 28 15 6 0 16
11 22 24 6 13 22 29 35 35 15 6 24 19 24 32 0 12 3 20 6 16 12 -12 37 25 37
54 0 16 4 29 9 29 5 0 6 -4 3 -10 -3 -5 -2 -10 4 -10 14 0 33 38 26 51 -4 5 5
21 19 34 16 15 26 35 26 53 0 16 9 39 19 51 11 13 17 29 14 37 -3 8 0 14 7 14
8 0 10 20 7 70 -3 50 -1 72 9 80 41 35 40 278 -2 378 -8 20 -17 57 -19 82 -7
101 -26 151 -45 120 -4 -7 -10 3 -14 27 -11 63 -16 73 -36 73 -12 0 -17 5 -14
14 3 7 -1 20 -8 27 -8 8 -24 31 -37 52 -13 21 -41 50 -62 64 -22 14 -39 32
-39 40 0 23 -32 66 -40 53 -4 -7 -10 1 -13 19 -5 22 -12 31 -25 31 -14 0 -21
9 -26 31 -4 19 -13 33 -26 36 -12 3 -23 19 -29 40 -6 20 -17 44 -27 54 -13 15
-17 50 -22 191 -6 201 -6 227 -3 288 2 25 0 86 -4 135 -6 84 -5 92 16 114 15
16 24 40 27 75 3 28 8 53 12 56 14 11 39 90 33 107 -6 16 -5 16 10 4 15 -12
17 -11 17 3 0 9 5 16 10 16 6 0 10 7 10 14 0 8 11 27 25 42 14 15 25 36 25 46
0 11 4 16 10 13 12 -8 80 45 80 63 0 18 18 14 23 -5 4 -17 5 -17 6 0 0 9 5 17
11 17 5 0 7 7 4 15 -4 10 0 15 15 15 12 0 21 5 21 12 0 9 3 9 11 1 12 -12 18
-10 97 24 19 8 44 12 57 9 14 -4 25 -1 28 7 4 8 8 9 14 1 8 -10 26 -10 170 -3
35 1 65 0 67 -2 12 -11 428 9 440 21 5 5 22 10 37 10 15 0 30 4 33 9 8 12 76
19 82 9 3 -4 13 -4 22 1 9 4 39 11 66 15 27 3 56 12 64 19 13 9 14 9 8 0 -4
-7 -3 -13 2 -13 6 0 12 7 15 14 4 11 16 13 40 9 24 -3 38 0 51 12 9 10 19 15
22 12 3 -3 24 3 47 13 23 10 62 21 87 24 24 3 46 10 48 15 2 6 11 11 19 11 9
0 36 11 60 26 24 14 47 23 51 20 14 -8 76 17 102 42 13 12 30 20 37 18 12 -5
73 20 83 34 3 4 16 10 30 13 14 3 35 15 47 26 12 11 33 23 47 27 14 3 26 10
26 15 0 5 7 6 15 3 8 -4 17 1 21 10 3 9 9 14 14 11 4 -2 16 4 27 14 11 10 29
22 41 25 14 5 19 12 15 23 -5 12 -2 15 10 10 16 -6 34 4 72 40 8 7 25 17 39
23 14 5 26 17 26 25 0 9 6 15 13 14 25 -3 37 1 37 14 0 7 16 19 35 26 19 7 35
19 35 27 0 8 7 14 15 14 8 0 15 4 15 10 0 5 4 9 9 7 11 -3 71 59 71 73 0 6 8
10 17 8 11 -2 22 6 28 20 5 12 14 22 20 22 15 0 95 74 95 88 0 6 4 12 10 12
13 0 153 140 146 147 -5 5 18 33 28 33 14 0 46 42 46 60 0 13 7 20 20 20 11 0
20 4 20 8 0 5 14 24 30 42 16 18 30 38 30 43 0 6 3 7 7 4 9 -10 83 103 84 128
0 12 3 15 6 7 6 -16 93 113 93 139 0 10 4 21 10 24 6 3 7 -1 4 -12 -4 -15 -3
-14 7 2 13 20 15 25 18 45 0 6 7 10 15 10 15 0 53 57 58 87 2 10 5 20 9 23 22
20 61 83 63 102 1 13 17 45 34 72 18 28 32 56 32 63 0 7 5 13 10 13 6 0 10 4
10 9 0 5 5 22 12 38 6 15 10 34 9 42 -1 8 2 10 9 6 16 -10 30 13 30 47 0 14 4
28 10 30 5 2 15 27 22 56 7 28 16 52 20 52 12 0 38 69 38 101 0 15 7 34 15 43
8 8 15 19 15 25 0 6 5 11 11 11 7 0 9 9 5 24 -3 13 -3 26 2 28 14 6 42 79 42
108 0 17 5 30 10 30 6 0 10 8 10 18 0 10 5 23 12 30 7 7 8 12 4 12 -5 0 -3 7
4 15 6 8 12 30 13 50 1 19 4 35 9 35 4 0 10 17 13 38 4 20 13 50 20 66 7 16
11 35 8 42 -3 8 4 33 15 56 11 24 23 68 27 98 4 30 10 60 13 65 4 6 8 17 9 25
2 8 5 26 8 40 8 45 35 135 47 158 13 26 15 62 4 111 -5 21 -4 36 2 40 6 4 15
35 21 70 6 35 15 69 22 77 7 9 10 37 7 76 -3 45 1 80 15 123 16 50 19 93 21
265 1 113 5 211 9 217 14 22 17 54 19 186 1 70 6 127 9 127 4 0 4 14 -1 31 -5
17 -9 34 -8 38 0 3 0 8 -1 11 -5 16 -3 168 2 177 4 6 4 13 1 16 -6 5 -10 106
-17 417 -3 85 -8 180 -11 211 -5 38 -4 59 3 64 6 3 8 11 4 18 -3 6 -8 22 -9
36 -15 159 -22 200 -34 181 -5 -8 -8 1 -7 23 0 20 4 34 8 32 3 -3 1 12 -6 33
-10 28 -10 39 -2 44 9 6 9 10 0 16 -7 5 -11 42 -11 107 -1 230 -20 419 -49
483 -9 18 -13 36 -9 39 3 3 6 -2 6 -12 0 -10 3 -16 6 -12 3 3 -1 28 -10 55
-11 32 -14 57 -8 72 5 13 4 45 -1 74 -12 67 -18 116 -18 144 1 13 -6 30 -14
38 -8 9 -16 27 -17 42 -1 15 -3 45 -4 67 -7 123 -14 197 -19 205 -3 6 -4 14 0
19 7 12 -15 61 -27 61 -5 0 -6 5 -3 10 3 6 3 16 -2 23 -4 6 -9 46 -10 87 -3
92 -12 150 -24 150 -5 0 -9 18 -9 40 0 25 -5 40 -12 40 -8 0 -14 15 -15 35 -1
19 3 35 9 35 7 0 7 4 1 13 -6 6 -13 32 -16 57 -8 62 -15 93 -24 99 -9 7 -12
19 -18 75 -2 22 -6 50 -9 61 -2 11 -5 32 -5 46 -1 14 -10 35 -21 47 -15 16
-23 45 -30 104 -14 113 -14 113 -34 133 -10 10 -15 26 -13 36 6 23 -20 126
-39 156 -12 19 -19 52 -26 120 -1 6 -7 9 -13 6 -7 -2 -15 7 -17 21 -3 14 -1
23 3 20 5 -3 9 -1 9 5 0 5 -4 12 -8 15 -4 2 -9 22 -10 43 -2 21 -7 40 -12 41
-6 2 -10 15 -10 28 0 13 -11 33 -24 45 -16 14 -22 27 -18 44 2 13 -3 37 -11
54 -8 16 -21 53 -28 81 -7 28 -21 59 -31 70 -10 10 -18 26 -18 34 0 8 -5 18
-10 21 -6 4 -10 14 -9 23 1 10 -19 60 -44 112 -26 52 -47 103 -47 112 0 9 -11
27 -24 40 -13 13 -26 35 -30 49 -3 14 -17 38 -31 53 -14 15 -25 35 -25 44 0
10 -9 23 -20 30 -11 7 -20 16 -20 22 0 5 -12 23 -27 39 -16 17 -41 46 -57 65
-16 20 -37 38 -48 41 -10 4 -18 12 -18 19 0 7 -17 21 -37 32 -21 10 -39 22
-41 27 -2 4 -8 7 -12 7 -5 0 -32 14 -60 30 -28 17 -59 30 -68 30 -10 0 -27 7
-38 15 -12 8 -23 12 -26 10 -3 -3 -26 1 -51 9 -26 8 -47 12 -47 9 0 -3 -7 1
-17 8 -18 16 -251 21 -260 6 -2 -4 -12 -6 -21 -3 -62 19 -692 31 -692 13 0 -5
-5 -5 -12 1 -7 5 -35 8 -63 6 -27 -3 -84 -5 -125 -5 -41 0 -80 -5 -85 -9 -6
-5 -27 -5 -47 -1 -20 5 -48 6 -62 4 -14 -3 -26 -1 -26 3 0 5 -15 9 -32 10 -18
0 -83 2 -145 3 -61 2 -116 0 -122 -3 -6 -4 -11 -4 -11 1 0 9 -343 8 -359 -1
-5 -4 -12 -2 -16 4 -4 6 -10 8 -15 5 -12 -8 -146 -17 -185 -14 -16 1 -60 2
-97 1 -38 0 -68 3 -68 7 0 7 -30 11 -67 10 -32 -1 -276 2 -338 4 -62 2 -69 6
-126 64 -18 18 -35 30 -40 27 -14 -8 -21 43 -23 162 -1 109 0 117 22 134 12
10 22 24 22 30 0 7 6 10 14 7 8 -3 16 2 19 14 3 10 13 22 24 26 19 7 63 53 63
65 0 4 16 24 36 45 66 71 72 78 79 101 4 13 16 33 26 43 11 11 19 33 19 50 0
26 2 29 14 20 12 -10 16 -6 21 21 4 18 19 56 33 83 18 36 25 65 25 103 -1 29
2 50 7 47 20 -12 33 46 38 160 5 158 -10 304 -33 321 -12 9 -19 30 -21 70 -3
55 -24 117 -44 129 -6 3 -10 20 -10 37 0 18 -11 45 -25 64 -14 18 -25 41 -25
52 0 10 -9 29 -20 42 -11 13 -20 31 -20 41 0 11 -9 24 -20 31 -11 7 -20 19
-20 27 0 17 -88 141 -101 141 -5 0 -9 6 -9 13 0 8 -12 25 -27 39 -16 15 -45
45 -65 67 -20 23 -41 41 -46 41 -5 0 -12 8 -14 18 -3 10 -24 28 -46 39 -23 11
-39 16 -35 10 4 -6 1 -7 -6 -2 -7 4 -11 16 -8 26 3 11 1 19 -4 19 -5 0 -9 6
-9 14 0 8 -7 21 -15 30 -9 8 -18 34 -21 58 -3 28 -14 51 -30 65 -13 12 -24 28
-24 35 0 37 -123 178 -155 178 -8 0 -20 8 -27 18 -7 9 -22 19 -33 20 -11 2
-23 8 -26 14 -3 5 -33 10 -66 12 -33 2 -66 7 -73 11 -21 13 -230 9 -280 -6
-25 -7 -54 -14 -65 -16 -11 -2 -37 -6 -57 -9 -21 -3 -38 -10 -38 -15 0 -5 -6
-9 -12 -9 -7 0 -42 -14 -78 -32 -47 -23 -89 -56 -152 -120 -49 -49 -88 -96
-88 -105 0 -9 -3 -13 -7 -10 -3 4 -12 2 -20 -5 -14 -11 -25 -8 -87 24 -12 7
-16 6 -11 -1 3 -6 -1 -11 -10 -11 -9 0 -14 4 -10 9 5 9 -13 18 -55 29 -47 12
-68 13 -75 2 -5 -8 -10 -7 -19 5 -7 9 -42 21 -86 29 -41 8 -84 17 -95 21 -47
16 -114 51 -115 58 0 19 -123 128 -169 151 -27 14 -51 31 -53 37 -2 7 -20 12
-39 12 -18 -1 -28 1 -21 4 26 10 -23 31 -86 39 -34 3 -62 11 -62 15 0 5 -9 9
-20 9 -11 0 -20 -5 -20 -11 0 -6 -7 -3 -16 5 -9 10 -34 16 -62 17 -98 3 -139
6 -150 13 -6 3 -59 11 -119 17 -71 6 -118 16 -139 28 -17 10 -44 17 -59 15
-16 -1 -48 4 -73 12 -24 9 -53 16 -65 16 -12 1 -26 5 -32 9 -5 4 -26 10 -45
14 -19 4 -55 18 -79 31 -24 13 -48 24 -53 24 -5 0 -20 8 -33 18 -12 9 -33 24
-45 32 -12 8 -40 30 -62 48 -22 17 -43 32 -48 32 -4 0 -11 12 -14 26 -4 16
-12 24 -20 21 -7 -3 -19 3 -27 14 -15 22 -71 25 -104 7z m-1220 -305 c77 -1
140 -2 140 -4 0 -1 9 -3 20 -4 11 -1 36 -5 55 -9 19 -3 78 -10 130 -15 52 -6
96 -14 98 -20 2 -6 12 -7 27 -1 12 5 25 7 27 5 5 -5 162 -24 244 -30 36 -2 72
-9 80 -16 11 -9 14 -8 14 3 0 11 14 14 58 15 31 0 103 1 159 1 56 1 159 -1
230 -4 70 -3 136 -6 146 -6 9 1 15 -2 13 -6 -3 -4 14 -9 37 -10 23 -1 69 -6
101 -12 33 -6 65 -9 73 -6 7 3 13 1 13 -4 0 -5 8 -9 18 -9 25 0 116 -22 122
-30 7 -10 70 -38 103 -46 15 -4 27 -11 27 -16 0 -5 9 -9 20 -9 11 0 25 -9 32
-19 6 -10 17 -17 25 -14 7 3 15 -2 19 -10 3 -9 12 -13 20 -10 7 3 17 -2 20
-11 3 -9 12 -16 19 -16 6 0 20 -9 30 -20 10 -11 22 -20 27 -20 18 0 138 -118
138 -136 0 -8 6 -14 14 -14 8 0 17 -11 20 -25 4 -14 10 -23 15 -20 10 6 21
-18 21 -46 0 -11 11 -30 25 -43 20 -18 26 -36 29 -80 3 -44 10 -62 29 -80 13
-12 26 -28 28 -35 7 -21 127 -19 168 2 27 14 36 15 43 5 5 -9 8 -8 8 5 0 11 8
17 22 17 22 0 81 16 109 31 10 4 21 3 28 -4 9 -9 14 -8 21 3 5 8 17 16 27 17
10 1 64 6 120 11 56 5 109 14 117 21 8 7 17 8 20 3 3 -5 35 -4 76 3 39 7 73 9
75 5 2 -4 33 -8 67 -9 93 -3 214 -41 223 -71 3 -9 20 -16 44 -18 45 -3 54 9
57 73 5 86 7 105 15 105 4 0 10 9 14 19 11 36 67 96 99 107 18 7 72 12 120 13
73 1 93 -2 130 -22 63 -33 72 -46 75 -106 4 -75 16 -104 40 -96 11 3 22 1 26
-5 4 -7 12 -7 24 0 10 5 21 7 24 4 4 -5 51 -12 119 -18 16 -2 36 -10 46 -19
10 -10 23 -17 28 -17 10 0 74 -53 74 -61 0 -8 -85 -4 -97 4 -8 5 -13 3 -13 -4
0 -9 -5 -8 -17 2 -28 22 -147 15 -195 -12 -10 -5 -31 -9 -48 -9 -16 0 -30 -4
-30 -9 0 -7 -22 -17 -45 -20 -22 -3 -65 -35 -70 -51 -4 -11 -10 -18 -15 -15
-14 9 -79 -38 -92 -67 -7 -15 -15 -25 -19 -22 -4 2 -19 -13 -34 -34 -43 -58
-76 -85 -104 -88 -14 -2 -84 10 -156 26 -71 17 -152 32 -180 35 -27 2 -70 9
-95 14 -25 6 -79 13 -120 15 -108 8 -124 10 -130 18 -12 16 -145 24 -218 14
-21 -4 -30 -2 -26 6 4 6 -1 8 -14 3 -12 -3 -61 -8 -109 -11 -125 -6 -167 -11
-170 -21 -2 -5 -22 -8 -45 -6 -22 2 -47 -2 -54 -8 -7 -6 -42 -13 -76 -15 -69
-5 -164 -31 -189 -51 -8 -7 -36 -13 -61 -13 -37 0 -47 4 -51 20 -3 11 -12 20
-21 20 -9 0 -16 6 -16 13 0 18 -35 49 -44 40 -4 -4 -9 3 -13 16 -4 16 -11 21
-24 18 -11 -3 -19 0 -19 5 0 15 -57 68 -72 68 -6 0 -24 11 -39 26 -14 14 -38
26 -52 28 -13 1 -32 10 -42 19 -9 9 -28 20 -43 23 -15 4 -33 11 -40 17 -7 5
-26 11 -43 13 -18 2 -37 11 -43 19 -6 9 -27 17 -46 20 -19 2 -46 6 -60 9 -119
23 -182 30 -220 26 -25 -3 -55 -2 -67 2 -12 4 -23 3 -25 -2 -2 -6 -16 -6 -38
0 -20 5 -47 7 -60 4 -14 -3 -46 -7 -71 -9 -25 -2 -79 -6 -119 -9 -72 -6 -130
5 -156 29 -34 32 -177 85 -234 86 -150 3 -458 -17 -475 -31 -7 -6 -15 -6 -19
-2 -4 4 -14 -1 -21 -12 -8 -11 -21 -16 -29 -13 -20 8 -98 -20 -109 -38 -4 -8
-22 -15 -38 -15 -39 0 -70 -17 -63 -34 3 -9 -3 -13 -23 -12 -15 1 -32 -2 -38
-7 -108 -82 -155 -123 -160 -140 -4 -9 -11 -14 -17 -11 -6 4 -5 10 3 15 8 5
10 9 6 9 -4 0 -27 -19 -50 -42 -24 -24 -66 -63 -95 -87 -29 -24 -52 -48 -52
-55 0 -6 -13 -11 -30 -12 -16 -1 -28 4 -27 10 1 6 -7 11 -18 11 -11 0 -28 8
-37 18 -10 9 -29 17 -41 17 -13 0 -32 9 -42 20 -10 11 -27 20 -37 20 -11 0
-32 9 -46 20 -14 12 -35 20 -46 18 -12 -1 -32 5 -46 14 -14 9 -37 18 -52 20
-15 2 -30 7 -34 11 -4 4 -17 7 -28 7 -12 0 -34 7 -50 15 -15 8 -49 15 -75 15
-25 0 -58 6 -72 14 -14 7 -42 13 -61 12 -20 -1 -34 3 -31 7 3 4 -58 6 -134 3
-170 -7 -238 -13 -277 -26 -17 -5 -43 -11 -58 -12 -16 -1 -28 -6 -28 -11 0 -5
-7 -7 -15 -4 -8 4 -17 2 -20 -3 -4 -6 -17 -10 -30 -10 -13 0 -31 -7 -39 -16
-9 -9 -22 -17 -29 -18 -40 -6 -147 -52 -147 -63 0 -7 -12 -15 -27 -19 -49 -10
-81 -25 -87 -41 -3 -8 -10 -12 -15 -9 -5 3 -21 -6 -35 -19 -15 -14 -35 -25
-45 -25 -10 0 -26 -9 -36 -20 -9 -10 -21 -18 -25 -17 -4 1 -22 -10 -39 -25
-17 -16 -35 -28 -39 -28 -5 0 -24 -7 -42 -16 -24 -12 -29 -19 -19 -25 10 -6 8
-9 -8 -9 -13 0 -23 -4 -23 -10 0 -5 -7 -10 -15 -10 -8 0 -15 -4 -15 -10 0 -5
-7 -10 -15 -10 -9 0 -25 -9 -37 -20 -12 -11 -29 -20 -39 -20 -9 0 -19 -9 -22
-21 -3 -12 -10 -18 -16 -15 -10 6 -51 -31 -51 -46 0 -4 -6 -8 -14 -8 -8 0 -23
-11 -34 -25 -11 -14 -23 -25 -26 -25 -7 0 -19 -10 -95 -80 -30 -28 -58 -50
-62 -50 -4 0 -11 -9 -14 -21 -4 -12 -12 -18 -21 -15 -8 3 -14 0 -14 -7 0 -13
-59 -83 -63 -76 -26 37 -41 229 -17 214 10 -6 29 56 36 115 3 20 13 41 24 49
16 11 20 25 20 77 0 59 -2 64 -32 85 -34 24 -91 30 -111 10 -6 -6 -21 -11 -33
-11 -13 0 -35 -15 -53 -35 -17 -19 -33 -35 -37 -35 -6 0 -63 -58 -90 -92 -24
-30 -34 -57 -27 -75 6 -16 5 -16 -10 -4 -15 12 -19 12 -32 -5 -8 -10 -15 -27
-15 -36 0 -10 -7 -18 -15 -18 -8 0 -15 -6 -15 -12 0 -7 -12 -24 -25 -37 -14
-13 -25 -29 -25 -36 0 -7 -12 -21 -26 -31 -15 -10 -30 -23 -35 -29 -89 -108
-116 -126 -155 -100 -13 8 -35 15 -49 15 -15 0 -23 4 -20 10 3 5 -7 12 -22 16
-15 4 -32 10 -38 14 -5 4 -41 8 -79 9 -38 2 -80 7 -94 12 -34 13 -139 9 -182
-7 -19 -7 -64 -15 -98 -18 -35 -3 -74 -12 -87 -20 -14 -9 -31 -16 -39 -16 -8
0 -28 -11 -44 -25 -16 -13 -32 -22 -34 -19 -3 3 -15 -7 -26 -21 -12 -15 -26
-24 -32 -20 -5 3 -10 -1 -10 -9 0 -9 -11 -23 -25 -32 -14 -9 -25 -23 -25 -30
0 -8 -7 -14 -15 -14 -8 0 -17 -11 -21 -25 -3 -14 -10 -25 -15 -25 -5 0 -9 -7
-9 -15 0 -8 -4 -15 -9 -15 -5 0 -23 -40 -40 -88 -30 -84 -32 -95 -29 -205 2
-65 6 -117 10 -117 4 0 5 -6 2 -14 -3 -8 -1 -17 5 -21 6 -3 11 -14 11 -25 0
-10 7 -20 15 -24 8 -3 12 -11 10 -19 -3 -7 13 -32 35 -55 22 -24 40 -45 40
-48 0 -9 61 -64 71 -64 5 0 9 -7 9 -16 0 -8 4 -13 10 -9 5 3 29 -9 54 -27 24
-18 74 -54 110 -80 37 -25 62 -49 56 -53 -5 -3 -10 -15 -10 -26 0 -11 -7 -22
-15 -25 -8 -3 -20 -21 -27 -40 -6 -19 -16 -34 -21 -34 -4 0 -6 -4 -3 -9 3 -5
-1 -11 -9 -15 -8 -3 -15 -17 -15 -31 0 -14 -6 -25 -12 -26 -10 0 -10 -2 0 -6
6 -2 12 -11 12 -19 0 -7 -6 -11 -13 -8 -14 5 -32 -43 -63 -171 -19 -79 -22
-125 -11 -173 4 -21 3 -31 -3 -27 -6 3 -10 -1 -10 -9 0 -9 4 -16 10 -16 5 0 8
-16 6 -36 -1 -19 1 -37 5 -40 5 -3 8 -20 7 -38 -1 -36 9 -59 22 -51 4 3 11
-20 15 -51 4 -33 12 -57 21 -61 8 -3 14 -10 14 -16 0 -28 34 -98 45 -93 8 3
15 -6 18 -22 8 -36 83 -137 90 -120 4 8 6 7 6 -4 1 -11 9 -18 22 -18 16 0 20
-5 16 -19 -4 -19 23 -51 44 -51 5 0 7 -4 4 -10 -6 -10 7 -14 32 -11 6 1 14 -8
18 -19 3 -11 13 -20 21 -20 8 0 14 -7 14 -16 0 -8 5 -12 10 -9 6 3 10 1 10 -4
0 -6 11 -11 25 -11 14 0 28 -6 31 -14 3 -8 23 -17 45 -21 21 -4 38 -10 38 -13
-5 -34 2 -38 66 -36 69 1 104 -15 38 -18 -21 0 -51 -2 -68 -3 -16 -1 -43 4
-60 10 -16 6 -36 10 -44 7 -10 -3 -12 0 -8 12 3 8 3 15 -1 15 -37 -6 -82 3
-82 16 0 8 -12 17 -28 21 -15 3 -39 10 -54 14 -20 6 -28 5 -28 -3 0 -6 -7 -1
-16 11 -9 14 -26 22 -44 22 -15 0 -30 3 -32 8 -2 4 -24 18 -50 31 -27 13 -48
28 -48 33 0 4 -6 8 -13 8 -8 0 -24 11 -37 25 -13 14 -30 25 -38 25 -8 0 -12 6
-8 15 3 10 -3 17 -19 21 -14 3 -25 10 -25 14 0 4 -12 20 -26 35 -14 15 -30 38
-35 51 -4 13 -15 24 -24 24 -8 0 -15 6 -15 13 0 8 -11 36 -25 63 -14 27 -25
54 -25 61 0 7 -8 27 -18 45 -11 18 -25 58 -32 88 -7 30 -18 62 -25 70 -27 31
-30 78 -22 338 1 28 -2 54 -8 56 -5 3 -1 5 9 5 11 1 17 4 13 7 -3 4 3 24 13
45 11 21 20 50 20 64 0 16 6 25 15 25 8 0 14 3 13 8 -1 4 3 17 10 29 6 12 9
29 6 38 -5 12 -2 16 12 13 13 -2 20 6 27 30 6 17 14 32 18 32 5 0 9 7 9 15 0
8 4 15 9 15 5 0 12 11 15 24 3 13 16 26 28 29 16 5 19 9 10 19 -5 7 -11 16
-12 20 0 4 -7 22 -14 39 -9 21 -16 27 -21 19 -5 -8 -11 -5 -19 12 -7 12 -18
22 -24 21 -15 -4 -77 55 -86 81 -5 16 -9 16 -23 5 -15 -12 -16 -12 -10 3 3 10
-9 45 -29 85 -36 71 -58 137 -44 128 5 -3 12 -1 15 5 4 6 1 9 -5 8 -19 -5 -43
73 -47 154 -3 56 1 96 15 150 11 40 23 90 27 111 3 20 10 37 15 37 5 0 15 19
22 43 6 23 25 56 40 72 77 80 95 96 116 101 12 4 22 9 22 13 0 4 23 18 51 30
l50 23 -5 47 c-10 75 -18 111 -27 117 -11 7 -12 157 -1 170 8 9 26 66 36 114
3 14 14 35 26 47 11 12 20 27 20 32 0 22 36 79 55 87 11 5 26 24 34 42 8 17
19 32 24 32 5 0 33 24 63 54 29 30 70 67 91 82 21 15 43 33 48 40 6 7 20 14
30 16 11 1 25 8 31 14 32 29 259 81 364 82 14 1 50 1 80 2 106 1 216 -8 270
-24 30 -8 73 -18 95 -21 22 -3 51 -7 65 -9 35 -5 53 6 123 81 81 86 90 95 167
156 36 28 71 60 78 69 7 10 17 18 21 18 5 0 39 20 75 45 37 25 74 45 82 45 8
0 14 5 14 11 0 5 4 8 9 5 4 -3 16 3 26 14 10 11 21 17 25 15 4 -2 25 4 48 15
22 11 58 22 81 26 23 4 41 10 41 15 0 5 9 9 19 9 11 0 21 5 23 12 2 6 28 13
56 15 29 1 68 9 88 18 19 8 74 19 120 25 46 6 94 14 107 19 80 31 434 51 534
30 32 -6 72 -13 88 -16 48 -8 137 -55 180 -96 25 -23 47 -36 58 -33 11 3 17
-2 17 -12 0 -27 14 -42 48 -52 30 -8 38 -4 100 42 37 28 69 54 72 57 3 4 16
12 30 19 14 6 32 16 40 22 27 17 128 60 144 60 8 0 18 5 21 10 4 6 16 8 26 5
11 -4 25 -2 32 3 17 13 59 22 131 29 34 3 69 10 79 15 12 6 23 6 32 -2 9 -8
14 -8 17 0 2 8 73 13 218 17 118 3 217 7 219 9 2 2 9 0 15 -4 6 -3 74 -8 151
-9z m4575 -877 c0 -3 -4 -8 -10 -11 -5 -3 -10 -1 -10 4 0 6 5 11 10 11 6 0 10
-2 10 -4z m42 -56 c-3 -20 -8 -28 -14 -22 -10 10 0 64 11 57 4 -2 6 -18 3 -35z
m48 -37 c11 -10 20 -23 20 -31 0 -9 7 -11 21 -7 14 5 20 3 18 -7 -3 -27 2 -38
31 -68 17 -17 30 -37 30 -45 0 -8 6 -15 13 -15 6 0 20 -20 30 -45 11 -25 23
-43 27 -40 5 3 11 -13 15 -35 4 -22 11 -42 16 -46 5 -3 9 -14 9 -26 0 -14 5
-18 16 -14 8 3 13 2 11 -2 -6 -9 11 -133 19 -141 3 -3 9 1 14 8 5 9 10 -15 15
-65 9 -114 25 -176 42 -162 11 8 13 -7 14 -83 1 -52 3 -128 6 -169 5 -102 -4
-180 -23 -180 -8 0 -14 -9 -14 -21 0 -35 -30 -126 -45 -139 -8 -7 -15 -23 -15
-36 0 -12 -4 -25 -9 -28 -11 -7 -22 20 -15 38 3 8 1 17 -5 20 -6 4 -8 13 -5
20 7 17 -30 158 -39 150 -10 -11 -8 56 3 97 5 19 24 50 42 68 31 32 32 36 31
110 -2 140 -11 212 -27 224 -9 8 -16 37 -19 82 -3 38 -10 71 -16 73 -6 2 -11
15 -11 28 0 13 -4 24 -10 24 -5 0 -12 17 -15 38 -4 20 -15 49 -26 64 -10 15
-19 38 -19 51 0 13 -9 32 -20 42 -11 10 -20 24 -20 32 0 8 -4 11 -10 8 -6 -3
-10 5 -10 19 0 33 -21 80 -30 66 -4 -6 -13 9 -20 34 -8 29 -17 43 -25 40 -9
-4 -14 8 -17 40 -2 25 -2 46 -1 46 2 0 12 -8 23 -17z m-8447 -718 c-3 -9 -8
-14 -10 -11 -3 3 -2 9 2 15 9 16 15 13 8 -4z m8132 -65 c6 -5 35 -11 65 -13
71 -6 100 -16 100 -34 0 -10 6 -12 21 -8 13 4 19 3 16 -2 -4 -6 4 -8 18 -5 20
3 24 1 19 -11 -3 -10 4 -18 23 -24 l28 -10 -32 -5 c-18 -2 -33 -1 -33 4 0 4
-12 8 -27 9 -16 0 -22 3 -15 6 6 2 10 9 6 14 -3 5 -11 6 -17 2 -16 -10 -97
-11 -97 -2 0 5 -15 6 -32 3 -54 -9 -106 -9 -101 -1 2 4 -2 8 -9 9 -7 0 -17 2
-23 3 -5 2 -14 4 -20 5 -5 1 -39 2 -75 2 -36 -1 -82 3 -102 8 -21 4 -38 5 -38
1 0 -3 -19 -6 -42 -6 -24 -1 -77 -3 -118 -5 -41 -2 -86 0 -99 4 -16 6 -21 5
-17 -3 5 -8 -10 -11 -51 -10 -32 1 -110 -1 -173 -5 -172 -9 -204 -10 -233 -3
-14 4 -38 2 -54 -4 -15 -6 -62 -13 -103 -14 -41 -2 -75 -4 -75 -4 0 -1 -58 -4
-130 -6 -130 -5 -197 -8 -500 -20 -88 -3 -216 -8 -285 -10 -69 -2 -125 -4
-125 -4 0 -1 -70 -4 -155 -7 -85 -3 -200 -8 -255 -10 -55 -3 -163 -6 -240 -8
-77 -2 -169 -8 -204 -14 -35 -6 -69 -9 -74 -5 -15 9 -118 10 -123 1 -3 -4 -17
-7 -32 -7 -35 -1 -315 -9 -324 -10 -5 -1 -9 -9 -9 -18 -1 -17 -2 -16 -6 0 -4
15 -11 17 -36 11 -18 -4 -81 -6 -142 -5 -126 2 -110 3 -197 -3 -37 -3 -76 -9
-86 -15 -11 -6 -23 -7 -27 -3 -10 11 -85 10 -85 -1 0 -5 -7 -4 -15 3 -9 8 -28
10 -54 5 -22 -4 -61 -7 -86 -7 -25 0 -45 -4 -45 -9 0 -5 -23 -6 -52 -2 -90 11
-252 5 -290 -12 -12 -5 -18 -3 -18 6 0 9 -3 10 -8 4 -10 -14 -75 -16 -84 -2
-5 8 -8 6 -8 -6 0 -17 -9 -18 -87 -16 -49 1 -200 -1 -338 -5 -137 -4 -315 -9
-395 -11 -80 -3 -149 -5 -155 -5 -5 -1 -43 0 -84 3 -41 2 -90 0 -110 -4 -20
-5 -103 -8 -186 -8 -82 0 -161 0 -175 0 -14 -1 -68 -2 -122 -4 -53 -1 -100 -5
-104 -9 -4 -5 -18 -8 -31 -8 -13 0 -23 -4 -23 -9 0 -5 -10 -12 -22 -16 -33
-11 -40 -13 -71 -14 -20 -1 -31 -7 -34 -21 -3 -11 -14 -20 -24 -20 -12 0 -21
-10 -25 -25 -5 -20 -11 -24 -27 -19 -15 5 -19 3 -14 -9 4 -11 1 -14 -7 -11 -8
3 -18 -7 -26 -25 -6 -17 -22 -36 -34 -44 -12 -8 -30 -31 -41 -51 -11 -20 -22
-36 -26 -36 -3 0 -4 -11 -2 -24 3 -16 -2 -28 -15 -38 -11 -8 -24 -27 -28 -42
-4 -16 -15 -37 -25 -47 -10 -10 -16 -25 -13 -33 3 -8 0 -17 -6 -21 -6 -4 -8
-16 -4 -27 9 -29 -5 -88 -20 -88 -18 0 -26 -22 -26 -68 0 -25 -3 -32 -9 -23
-10 16 -16 7 -26 -36 -3 -18 -12 -31 -18 -30 -7 1 -12 -8 -11 -21 0 -15 -4
-21 -13 -18 -8 4 -13 -3 -13 -19 0 -18 -7 -25 -30 -30 -19 -4 -30 -13 -30 -24
0 -12 -8 -18 -27 -19 -55 -2 -88 -16 -77 -34 4 -6 -13 -7 -50 -3 -31 4 -62 3
-69 -2 -15 -11 -70 -16 -64 -5 3 4 -8 7 -24 8 -16 1 -26 -3 -22 -9 3 -5 -3 -7
-13 -4 -35 10 -157 -7 -162 -22 -3 -8 0 -11 7 -7 7 5 11 -6 11 -33 0 -44 18
-93 31 -85 5 3 9 -2 9 -10 0 -8 5 -37 11 -65 8 -38 14 -48 25 -44 10 4 15 1
13 -8 -4 -22 13 -161 22 -187 5 -13 13 -20 19 -17 10 6 14 -55 12 -192 -1 -51
-7 -81 -19 -99 -9 -15 -19 -35 -20 -45 -2 -11 -4 -28 -6 -40 -2 -11 -8 -24
-14 -27 -9 -6 -26 -45 -28 -64 0 -3 -9 -15 -21 -25 -12 -10 -24 -28 -28 -40
-4 -11 -13 -24 -21 -27 -8 -3 -15 -15 -15 -26 0 -14 -7 -20 -21 -20 -12 0 -23
-8 -26 -20 -3 -11 -11 -20 -18 -20 -7 0 -18 -7 -25 -15 -7 -8 -21 -15 -31 -15
-11 0 -19 -5 -19 -10 0 -6 -12 -16 -26 -23 l-27 -12 24 -6 c20 -6 17 -7 -13
-8 -21 -1 -38 -5 -38 -11 0 -5 -13 -10 -29 -10 -16 0 -31 -4 -33 -9 -5 -14
-168 -25 -168 -12 0 11 31 16 77 14 15 -1 20 3 16 13 -3 10 2 14 18 14 15 0
19 3 12 8 -8 5 -3 12 16 20 15 7 56 39 90 72 35 33 67 60 73 60 5 0 7 4 4 9
-3 4 6 21 20 37 13 16 32 44 41 62 8 17 19 32 24 32 5 0 12 19 15 41 5 29 13
43 25 46 13 4 19 15 19 35 0 16 10 50 22 76 20 43 22 61 20 211 -1 115 -6 168
-14 179 -10 12 -10 16 -1 19 8 3 6 10 -6 22 -11 11 -21 41 -25 79 -4 35 -14
68 -23 78 -10 9 -18 39 -21 70 -4 46 -2 55 14 61 27 10 39 25 39 48 0 19 7 20
110 22 61 1 122 2 136 2 15 1 46 10 70 21 24 11 54 20 67 20 15 0 22 6 22 20
0 11 7 20 15 20 27 0 124 90 130 121 2 11 14 29 25 39 12 10 21 27 20 37 -5
44 0 62 15 57 10 -4 15 0 15 15 0 26 27 81 39 81 5 0 8 6 8 13 -1 6 3 33 7 60
6 35 13 47 26 47 13 0 19 11 24 39 3 21 13 41 21 45 8 3 15 13 15 23 0 16 62
81 148 156 18 15 32 31 32 36 0 5 12 14 27 21 16 6 44 20 63 31 19 10 54 19
78 19 23 0 42 5 42 11 0 5 -5 7 -10 4 -5 -3 -10 -2 -10 3 0 12 116 22 315 28
385 11 437 13 440 16 2 2 54 2 117 2 62 -1 117 1 123 4 5 3 29 5 53 3 24 -1
50 3 58 9 7 7 14 8 14 3 0 -10 163 -9 179 2 5 3 12 1 16 -5 4 -6 12 -7 18 -3
7 4 34 8 60 9 27 1 53 6 59 12 9 9 15 8 26 0 10 -9 16 -8 23 3 6 10 9 10 9 2
0 -7 11 -13 25 -13 14 0 25 -5 25 -10 0 -7 11 -6 28 3 15 7 41 12 57 11 17 -1
35 3 42 8 7 5 27 8 45 7 18 -2 39 0 45 4 6 4 14 3 17 -2 4 -5 20 -5 42 2 27 8
40 8 56 -2 11 -7 23 -9 27 -4 8 10 81 12 81 2 0 -4 14 -3 30 3 17 6 44 8 60 4
16 -3 32 -1 35 5 8 13 108 9 117 -5 4 -6 11 -6 20 2 9 7 83 14 204 18 104 3
236 7 294 9 58 3 204 7 325 9 121 3 254 8 295 11 41 2 131 7 200 10 69 3 170
8 225 10 55 3 170 7 255 9 375 10 699 24 711 31 3 3 20 0 37 -4 17 -5 33 -6
37 -3 4 4 48 8 98 8 51 1 139 5 197 8 58 3 193 8 300 11 107 2 229 7 270 10
77 6 299 13 562 17 82 2 148 5 148 8 0 10 384 9 395 0z m-4638 -256 c-3 -3
-12 -4 -19 -1 -8 3 -5 6 6 6 11 1 17 -2 13 -5z m4538 -271 c28 -11 58 -18 69
-15 11 2 16 0 12 -7 -4 -6 0 -11 8 -11 8 0 23 -16 32 -36 9 -20 23 -38 31 -41
7 -3 13 -19 13 -35 0 -22 4 -29 15 -24 23 8 40 -66 44 -188 1 -36 4 -47 15
-43 10 4 12 -4 9 -34 -3 -22 0 -46 6 -53 6 -8 11 -27 11 -42 -1 -16 1 -94 4
-174 13 -307 18 -459 20 -565 1 -60 5 -116 9 -123 5 -7 6 -21 2 -31 -3 -10 -1
-30 5 -45 6 -17 6 -49 1 -89 -9 -65 -6 -82 9 -57 8 13 10 12 10 -2 0 -10 -4
-18 -9 -18 -11 0 -22 -66 -14 -86 3 -7 10 -11 16 -7 6 4 8 0 4 -10 -17 -44
-18 -114 -4 -150 19 -45 19 -134 -1 -165 -13 -20 -13 -22 2 -16 14 5 16 2 12
-17 -13 -65 -16 -110 -6 -104 6 4 10 -11 10 -39 0 -25 -5 -48 -10 -51 -6 -4
-8 -11 -4 -16 3 -5 9 -7 14 -4 5 3 8 -8 8 -25 -1 -17 -5 -33 -10 -36 -11 -7
-10 -64 2 -64 5 0 9 -30 9 -67 -1 -38 1 -138 4 -223 7 -196 24 -1056 32 -1560
1 -85 5 -312 9 -505 3 -192 8 -525 11 -740 3 -214 8 -446 10 -515 3 -69 7
-289 10 -490 4 -348 9 -552 20 -1025 9 -349 15 -656 20 -940 5 -291 13 -661
20 -980 3 -110 10 -420 15 -690 5 -269 13 -627 16 -793 6 -256 5 -305 -7 -313
-8 -5 -9 -9 -3 -9 18 0 26 -48 13 -72 -9 -17 -9 -23 0 -26 12 -4 16 -92 3 -92
-4 0 -8 -33 -8 -72 -1 -82 -11 -217 -19 -265 -3 -18 -2 -33 3 -33 15 0 24 -31
13 -44 -14 -17 -24 -79 -11 -71 5 3 10 1 10 -5 0 -6 4 -9 9 -5 5 3 1 -18 -9
-47 -15 -46 -16 -68 -9 -163 4 -60 6 -118 3 -128 -3 -10 -1 -23 4 -30 5 -7 12
-25 16 -40 4 -15 11 -25 16 -22 6 3 10 -3 10 -14 0 -12 7 -21 16 -21 8 0 14
-3 12 -7 -5 -10 49 -62 56 -55 4 3 6 -1 6 -10 0 -19 36 -52 48 -44 5 3 12 -8
16 -24 3 -17 12 -30 21 -30 8 0 17 -10 20 -23 4 -12 16 -27 28 -32 12 -6 23
-20 25 -32 2 -13 8 -23 13 -23 5 0 9 -7 9 -16 0 -8 4 -12 10 -9 5 3 12 -6 15
-20 3 -14 7 -36 10 -49 3 -14 14 -27 24 -31 15 -4 21 -19 26 -66 4 -36 13 -63
21 -66 7 -2 17 -28 23 -56 13 -69 14 -207 2 -207 -6 0 -7 8 -4 17 6 15 5 15
-16 1 -34 -24 -81 0 -81 40 0 11 -5 22 -10 24 -6 2 -13 44 -16 93 -3 52 -12
99 -20 112 -8 12 -14 29 -14 38 0 8 -4 15 -9 15 -5 0 -12 12 -16 27 -3 15 -15
39 -26 54 -10 15 -19 37 -19 49 0 25 -20 48 -38 42 -7 -2 -12 6 -12 22 0 16
-11 36 -30 53 -16 14 -30 32 -30 40 0 12 -13 17 -32 14 -5 0 -8 4 -8 11 0 13
-77 88 -91 88 -5 0 -9 9 -9 19 0 18 -74 101 -91 101 -4 0 -9 8 -11 17 -3 14
-12 17 -48 14 -25 -1 -49 -6 -55 -9 -5 -4 -18 -5 -27 -4 -12 2 -18 -3 -18 -14
0 -14 -3 -15 -12 -6 -8 8 -17 8 -30 1 -10 -5 -22 -8 -27 -5 -5 3 -16 -3 -26
-14 -13 -14 -21 -17 -26 -9 -5 8 -14 5 -30 -10 -12 -11 -30 -21 -40 -21 -9 0
-22 -7 -29 -15 -6 -8 -15 -14 -18 -13 -7 2 -60 -9 -94 -18 -10 -3 -18 -12 -18
-21 0 -13 -2 -13 -16 -2 -14 11 -18 11 -29 -5 -9 -12 -23 -17 -45 -14 -17 1
-34 -2 -38 -8 -13 -19 -50 -34 -87 -34 -20 0 -43 -7 -51 -15 -8 -8 -20 -12
-28 -9 -7 3 -19 -2 -26 -11 -7 -8 -24 -15 -39 -15 -14 0 -43 -11 -63 -25 -26
-17 -50 -25 -82 -25 -24 0 -51 -6 -58 -13 -13 -14 -66 -32 -82 -28 -4 1 -14
-3 -20 -9 -7 -5 -16 -7 -19 -3 -4 3 -13 1 -20 -6 -8 -6 -22 -9 -31 -5 -10 4
-16 1 -16 -8 0 -8 -6 -15 -12 -15 -7 -1 -29 -4 -48 -8 -19 -3 -43 -6 -53 -6
-10 0 -21 -8 -25 -17 -7 -17 -15 -19 -82 -23 -40 -3 -70 -15 -87 -38 -8 -10
-12 -11 -13 -4 0 7 -7 10 -15 7 -14 -6 -45 -10 -98 -13 -10 -1 -16 -5 -13 -9
7 -12 -48 -29 -117 -38 -31 -3 -60 -11 -63 -16 -3 -5 -12 -4 -20 3 -12 10 -19
8 -37 -9 -18 -17 -37 -21 -107 -23 -47 -1 -91 -7 -98 -13 -9 -7 -16 -6 -21 3
-6 9 -14 5 -29 -16 -12 -15 -22 -22 -22 -14 0 9 -7 11 -27 6 -16 -4 -65 -9
-109 -10 -78 -3 -124 -18 -124 -40 0 -5 -5 -3 -10 5 -9 13 -11 13 -20 0 -6 -9
-26 -15 -52 -16 -116 -1 -204 -9 -216 -18 -10 -7 -17 -5 -24 5 -7 11 -11 11
-15 2 -2 -7 -10 -13 -16 -13 -7 0 -24 -7 -39 -14 -15 -8 -30 -11 -32 -7 -3 4
-27 4 -53 0 -26 -4 -58 -5 -69 -2 -12 2 -45 -3 -74 -11 -38 -11 -57 -13 -66
-5 -9 8 -16 5 -24 -11 -8 -16 -15 -19 -22 -12 -7 7 -18 8 -27 3 -9 -5 -29 -7
-46 -6 -16 1 -48 -5 -71 -12 -35 -12 -42 -20 -58 -64 -10 -27 -16 -53 -12 -56
3 -4 6 1 6 11 0 9 5 14 10 11 6 -3 10 -38 10 -76 0 -57 3 -71 18 -76 9 -4 19
-10 22 -14 3 -4 24 -10 48 -12 32 -4 42 -2 42 9 0 8 5 14 10 14 6 0 10 -5 10
-10 0 -13 169 -10 176 2 3 5 12 4 20 -3 10 -9 18 -9 25 -2 6 6 28 8 50 6 26
-4 39 -2 39 6 0 13 66 11 87 -2 6 -4 27 0 47 8 40 17 49 18 42 7 -5 -8 210 -6
224 3 5 3 11 1 15 -5 3 -5 17 -10 31 -10 14 0 22 4 19 10 -3 6 -1 10 4 10 6 0
11 -4 11 -8 0 -9 113 -8 127 1 5 3 28 1 51 -5 33 -8 46 -8 59 3 15 12 16 12
10 -4 -3 -9 -2 -17 3 -17 6 0 10 5 10 10 0 6 18 10 40 10 22 0 40 -5 40 -10 0
-6 14 -9 30 -8 17 1 30 6 30 11 0 5 12 6 28 2 15 -4 44 -9 65 -11 31 -4 37 -2
37 13 0 14 2 15 9 4 5 -7 14 -10 20 -6 7 4 18 1 26 -5 8 -7 24 -9 36 -5 15 5
20 3 17 -6 -3 -8 -15 -15 -29 -17 -13 -2 -31 -6 -39 -9 -21 -8 -53 -8 -67 0
-6 4 -16 1 -22 -7 -8 -9 -25 -12 -49 -9 -53 7 -83 4 -97 -7 -8 -7 -21 -6 -40
4 -15 8 -33 12 -39 10 -7 -3 -37 -6 -67 -8 -30 -1 -59 -5 -65 -8 -5 -3 -26 -8
-46 -12 -31 -6 -38 -4 -38 9 0 8 -4 15 -10 15 -5 0 -10 -7 -10 -15 0 -23 -80
-21 -81 3 0 10 -3 12 -6 5 -2 -7 -11 -13 -19 -13 -9 0 -12 -4 -9 -10 5 -9 -70
-16 -125 -12 -55 4 -120 3 -220 -2 -63 -3 -265 -8 -447 -10 -235 -2 -337 -7
-347 -15 -9 -8 -16 -8 -20 -2 -4 6 -13 8 -20 5 -8 -3 -16 -1 -19 3 -3 5 -21 8
-39 6 -18 -1 -87 -5 -153 -7 -66 -3 -127 -7 -135 -8 -8 -1 -34 1 -58 6 -30 5
-47 4 -57 -4 -11 -9 -15 -9 -15 -1 0 14 -73 4 -78 -11 -2 -5 -11 -3 -19 3 -12
10 -16 10 -23 -1 -7 -11 -11 -11 -23 -1 -9 6 -18 8 -21 3 -9 -15 -136 -15
-136 0 0 8 -3 9 -8 3 -4 -5 -13 -10 -19 -11 -36 -3 -43 -5 -58 -20 -9 -9 -19
-14 -22 -10 -4 3 2 13 13 21 13 10 15 14 5 15 -8 0 -22 -7 -30 -14 -13 -11
-26 -13 -56 -6 -21 5 -43 6 -47 4 -5 -3 -15 0 -23 6 -9 7 -15 8 -15 2 0 -15
-32 -24 -43 -13 -7 7 -15 5 -23 -7 -12 -14 -15 -15 -23 -3 -7 11 -13 12 -23 4
-7 -7 -49 -10 -98 -9 -47 1 -107 -1 -133 -5 -26 -3 -50 -3 -52 0 -1 3 -64 6
-139 6 -93 0 -137 4 -140 11 -6 15 -79 15 -88 1 -6 -9 -8 -8 -8 1 0 10 -30 12
-127 12 -135 0 -200 4 -209 13 -3 3 -12 3 -19 1 -7 -3 -15 1 -18 10 -4 11 -23
14 -74 14 -37 0 -72 1 -78 2 -5 1 -14 1 -20 0 -34 -7 -260 2 -265 11 -4 5 -22
11 -42 13 -19 2 -40 6 -47 10 -7 5 -21 0 -32 -10 -17 -15 -19 -15 -19 -1 0 13
-12 16 -66 16 -36 -1 -71 4 -77 10 -16 16 -30 13 -23 -4 3 -8 1 -15 -4 -15 -6
0 -10 9 -10 21 0 15 -6 20 -22 18 -41 -4 -168 13 -168 23 0 5 -9 7 -20 3 -15
-5 -18 -3 -14 9 6 14 -6 16 -102 11 -63 -2 -103 -1 -95 4 21 13 -49 43 -96 41
-65 -3 -65 -3 -58 32 4 18 14 45 23 59 14 26 18 27 86 23 39 -2 85 -6 101 -8
17 -2 35 1 41 6 8 5 18 3 27 -7 9 -8 23 -12 31 -9 9 3 16 1 16 -5 0 -7 21 -11
53 -11 29 0 59 -6 66 -12 11 -11 12 -10 6 1 -6 11 -2 12 21 7 16 -4 32 -12 35
-18 4 -6 12 -7 19 -3 7 4 16 2 20 -5 5 -7 22 -13 39 -12 17 0 31 -3 31 -7 0
-8 59 -5 68 3 2 3 26 -4 53 -15 28 -10 60 -19 72 -19 13 0 29 -6 36 -13 11
-10 12 -9 7 1 -9 15 55 10 172 -15 40 -8 84 -12 98 -9 16 4 23 3 19 -3 -3 -7
0 -8 9 -5 9 3 24 3 33 -1 26 -12 47 -11 56 0 6 7 10 6 13 -2 3 -7 18 -10 37
-6 18 2 66 -2 107 -10 93 -18 166 -21 175 -7 9 15 25 12 25 -5 0 -17 26 -20
35 -5 4 7 12 7 18 2 7 -4 40 -8 75 -7 34 0 62 -3 62 -8 0 -4 9 -5 20 -2 11 4
20 2 20 -4 0 -6 7 -11 15 -11 8 0 15 6 15 14 0 8 5 18 11 21 6 4 10 1 8 -6 -1
-8 -1 -22 0 -33 1 -15 4 -16 16 -6 8 7 15 19 15 26 0 8 4 14 10 14 5 0 7 -7 4
-15 -4 -9 0 -15 10 -15 9 0 16 6 16 13 0 9 3 8 9 -2 5 -7 27 -17 50 -21 22 -4
38 -3 35 1 -3 5 2 9 10 9 8 0 18 -5 21 -10 4 -6 11 -7 17 -4 16 10 268 1 286
-10 6 -3 12 -1 14 5 3 10 93 13 206 6 29 -2 55 -1 58 2 10 10 114 10 114 0 0
-6 5 -7 11 -3 15 9 199 18 349 16 25 0 91 1 148 2 56 1 102 -2 102 -6 0 -4 19
-1 41 7 48 17 70 19 49 4 -11 -8 -9 -8 10 -2 14 4 43 7 65 5 28 -1 49 5 76 24
46 32 50 41 55 129 6 94 -4 127 -40 132 -16 2 -35 11 -44 19 -9 10 -24 13 -38
10 -13 -4 -24 -3 -24 1 0 5 -93 9 -207 11 -149 2 -209 6 -215 15 -6 9 -8 9 -8
0 0 -16 -27 -17 -32 -2 -2 6 -22 12 -45 13 -22 2 -46 7 -52 10 -6 4 -20 5 -30
1 -11 -3 -22 -1 -26 5 -3 6 -10 8 -14 5 -4 -2 -89 -5 -187 -6 -161 -1 -179 0
-176 15 2 9 -2 16 -8 16 -5 0 -10 -7 -10 -15 0 -8 -4 -15 -10 -15 -5 0 -10 9
-10 20 0 20 -15 28 -22 11 -2 -5 -24 -6 -50 -2 -29 5 -51 4 -58 -3 -6 -6 -10
-6 -10 0 0 8 -102 16 -217 16 -13 0 -23 6 -23 14 0 17 -12 18 -28 2 -9 -9 -12
-8 -12 4 0 12 -9 16 -27 16 -16 0 -72 0 -125 1 -80 1 -98 4 -98 16 0 8 -4 15
-10 15 -5 0 -7 -8 -3 -17 5 -16 4 -16 -8 0 -14 17 -70 23 -256 27 -13 0 -23 5
-23 11 0 5 -4 8 -9 5 -5 -3 -12 1 -15 10 -5 13 -9 14 -21 4 -11 -9 -15 -9 -15
-1 0 8 -18 11 -52 10 -107 -4 -178 3 -178 17 0 8 -7 14 -16 14 -8 0 -12 -4 -9
-10 3 -5 -1 -10 -10 -10 -9 0 -13 5 -10 10 8 13 11 12 -117 15 -70 1 -113 7
-123 15 -9 7 -18 10 -22 7 -3 -4 -13 -1 -21 6 -10 8 -53 12 -125 13 -99 0
-111 2 -118 20 -7 17 -8 17 -8 2 -1 -21 -12 -23 -29 -6 -7 7 -42 13 -79 14
-113 4 -165 14 -159 30 6 16 10 15 -79 20 -38 1 -88 4 -110 5 -22 1 -57 11
-78 22 -30 15 -50 18 -91 14 -54 -5 -83 3 -72 21 3 5 -4 10 -17 10 -12 0 -35
2 -52 5 -16 3 -57 6 -90 6 -39 1 -55 4 -46 10 24 16 -18 28 -98 29 -56 1 -77
5 -83 16 -5 8 -15 13 -22 10 -7 -3 -16 2 -20 11 -3 9 -11 13 -17 10 -6 -4 -35
-4 -65 0 -46 5 -54 9 -49 24 5 16 -1 18 -58 14 -51 -4 -67 -1 -81 12 -10 10
-36 19 -58 21 -23 2 -48 10 -57 18 -11 10 -21 12 -31 6 -9 -5 -17 -5 -20 1
-11 17 -139 -126 -140 -156 0 -11 -11 -32 -25 -47 -14 -15 -25 -36 -25 -47 0
-13 -5 -18 -13 -15 -8 3 -18 -9 -25 -29 -6 -18 -20 -42 -30 -53 -10 -11 -22
-32 -26 -47 -3 -15 -13 -27 -21 -27 -8 0 -15 -7 -15 -15 0 -8 -4 -15 -9 -15
-4 0 -6 -11 -4 -24 4 -20 0 -25 -18 -28 -19 -2 -25 -11 -30 -40 -3 -21 -13
-46 -21 -55 -9 -10 -21 -35 -29 -55 -7 -21 -17 -38 -21 -38 -4 0 -8 -4 -8 -9
0 -5 -7 -26 -16 -46 -10 -25 -18 -34 -23 -26 -6 9 -11 8 -21 -4 -7 -8 -17 -15
-23 -15 -6 0 -1 9 11 20 12 12 22 31 22 43 0 29 15 51 29 43 11 -7 13 -3 16
49 6 80 7 89 12 78 7 -19 22 -16 21 5 -1 9 4 43 11 75 10 44 16 57 31 57 15 0
20 11 26 58 4 32 14 64 23 72 9 8 17 28 18 44 0 16 5 31 11 35 5 3 17 28 26
54 9 27 27 65 41 85 14 20 25 42 25 48 0 6 11 32 25 57 14 24 23 52 19 61 -3
8 4 31 16 51 20 32 20 34 3 29 -16 -5 -16 -4 2 13 12 10 21 27 22 38 5 78 4
865 -1 873 -3 6 -2 14 4 17 8 5 9 45 4 123 -4 65 -6 164 -4 222 2 121 2 99 -5
305 -6 176 -6 189 -4 208 0 6 -1 58 -4 115 -2 61 0 105 5 108 6 4 5 10 -3 14
-10 7 -10 11 0 24 11 13 11 17 -3 22 -9 3 -16 14 -16 23 0 12 2 13 9 3 5 -8 7
5 6 32 0 25 -4 49 -8 52 -4 4 -7 2 -7 -5 0 -7 -5 -9 -11 -5 -8 5 -7 9 3 15 8
5 15 25 16 46 1 21 4 49 7 63 2 13 0 27 -6 30 -7 5 -7 21 0 51 8 34 7 45 -3
51 -7 4 -13 21 -14 38 0 17 4 28 9 25 5 -4 9 1 9 10 0 11 -5 15 -15 12 -12 -5
-14 3 -11 40 2 25 10 49 17 54 10 6 10 11 1 22 -7 8 -12 36 -11 63 0 27 -2
153 -4 279 -3 127 -7 451 -10 720 -13 1126 -16 1297 -21 1302 -3 3 -1 13 4 23
5 10 7 33 5 51 -3 19 -7 172 -9 341 -3 169 -7 312 -10 316 -3 5 -1 24 4 43 8
28 7 36 -7 47 -9 6 -12 12 -7 12 11 0 12 120 1 137 -4 6 -3 14 2 17 5 3 7 41
4 84 -8 120 -8 195 1 221 5 15 5 21 -2 17 -17 -10 -22 9 -12 44 10 37 5 53
-10 30 -8 -12 -10 -11 -10 7 0 12 4 23 9 25 4 2 11 22 14 46 4 36 2 44 -13 50
-14 5 -17 11 -10 22 7 10 10 11 10 3 0 -7 5 -13 11 -13 7 0 8 7 4 18 -4 9 -8
36 -9 59 0 24 -3 43 -6 43 -3 0 -6 21 -7 48 0 26 -3 68 -5 95 -1 26 0 47 5 47
4 0 7 10 7 23 0 18 -2 19 -10 7 -7 -11 -10 -6 -10 21 0 20 3 39 7 42 9 10 9
66 0 60 -5 -3 -7 21 -6 53 1 33 -1 138 -5 234 -8 219 -14 527 -21 1120 -3 256
-8 544 -10 640 -4 209 -6 480 -6 642 l1 118 48 30 c26 16 55 30 65 30 10 0 20
7 23 15 3 8 25 25 47 39 49 29 147 119 147 135 0 6 4 11 9 11 14 0 81 71 81
86 0 8 5 14 11 14 16 0 38 31 39 53 0 10 7 20 15 23 8 3 19 23 25 44 13 49 20
51 252 55 103 2 207 7 231 10 24 4 60 2 80 -3 20 -6 38 -7 42 -4 3 4 30 7 58
8 84 4 171 12 188 19 8 3 28 1 44 -5 24 -9 30 -8 42 10 10 14 19 18 26 11 7
-5 28 -10 47 -12 19 -2 41 -7 48 -12 8 -7 12 -3 12 12 0 23 19 28 37 10 8 -8
21 -8 45 -1 46 15 142 21 423 28 132 3 252 7 268 9 15 2 27 -1 27 -7 0 -6 6
-6 14 1 9 8 55 13 115 14 55 1 103 6 107 10 4 4 13 2 19 -3 9 -7 16 -6 25 4
12 16 64 12 87 -7 9 -6 15 -4 19 7 5 13 9 14 20 5 11 -9 14 -9 14 0 0 7 4 9
10 6 14 -9 90 -12 90 -4 0 13 92 20 390 33 80 3 192 9 250 12 58 4 134 7 170
9 108 4 376 17 427 21 27 2 76 5 110 6 35 2 63 6 63 9 0 4 11 9 25 11 14 3 25
2 25 -2 0 -11 53 -9 67 2 7 6 14 5 18 -2 3 -6 12 -7 18 -3 18 11 77 10 77 -2
0 -5 4 -4 9 3 8 13 146 24 471 37 80 3 172 8 205 9 33 2 116 7 184 10 68 4
128 9 134 13 5 3 62 7 126 8 64 2 143 6 176 9 33 3 94 8 135 10 41 3 102 8
135 10 113 10 227 17 323 21 266 12 614 24 824 29 81 2 182 7 225 10 43 3 139
9 213 12 177 9 247 13 293 17 21 1 40 0 42 -4 7 -10 49 1 75 21 21 16 24 26
24 76 -1 70 -23 92 -87 87 -23 -1 -97 -5 -164 -7 -67 -3 -131 -9 -141 -15 -11
-6 -35 -8 -53 -6 -21 3 -40 -2 -50 -11 -12 -10 -19 -12 -24 -4 -3 5 -10 8 -15
5 -5 -3 -19 -1 -30 5 -11 6 -20 7 -20 2 0 -4 -28 -7 -62 -5 -35 2 -69 3 -75 3
-37 -2 -84 -3 -138 -1 -71 2 -353 -6 -512 -13 -80 -4 -113 -2 -113 5 0 8 -4 8
-13 0 -8 -6 -17 -7 -21 -3 -4 4 -22 8 -39 9 -18 1 -57 4 -87 6 -30 2 -66 0
-78 -4 -13 -5 -29 -6 -35 -2 -6 4 -33 5 -59 4 -32 -2 -48 2 -48 9 0 10 -3 10
-14 1 -10 -8 -16 -9 -21 -1 -3 5 -13 10 -21 10 -8 0 -13 -4 -10 -8 4 -6 -121
-12 -357 -16 -32 -1 -61 2 -64 7 -2 4 -9 5 -14 1 -13 -8 -198 -10 -193 -2 7
11 -40 5 -48 -7 -5 -6 -11 -5 -17 4 -5 8 -16 11 -25 8 -8 -3 -18 -2 -21 3 -3
5 -27 8 -53 6 -26 -3 -90 -1 -142 3 -52 4 -97 4 -100 0 -3 -4 -43 -8 -90 -9
-47 -1 -89 -2 -95 -2 -5 0 -23 1 -40 2 -16 1 -72 -1 -124 -4 -72 -5 -96 -4
-103 6 -5 9 -10 10 -15 2 -10 -13 -83 -18 -83 -4 0 5 -10 10 -22 10 -19 0 -20
-2 -8 -10 11 -7 4 -9 -23 -8 -22 1 -41 7 -43 13 -4 8 -38 12 -107 13 -56 0
-136 1 -177 1 -41 1 -132 0 -202 -2 -75 -2 -125 0 -121 6 3 5 -3 4 -14 -1 -10
-6 -49 -10 -86 -9 -36 0 -70 -2 -74 -6 -9 -9 -165 3 -179 14 -5 5 -48 8 -95 8
-46 0 -111 0 -144 0 -33 0 -96 0 -140 -1 -44 0 -93 -1 -110 0 -16 0 -61 0
-100 0 -38 -1 -134 -1 -213 -2 -95 -1 -145 3 -150 10 -4 6 -29 11 -57 12 -27
0 -156 0 -285 1 -129 0 -243 1 -252 1 -10 1 -28 1 -40 2 -13 1 -72 -1 -133 -4
-63 -3 -160 1 -229 9 -84 10 -122 10 -131 3 -9 -8 -15 -8 -20 0 -6 10 -36 11
-280 9 -423 -2 -465 0 -465 32 0 6 -6 9 -14 6 -11 -4 -14 6 -13 46 1 29 -2 91
-6 139 -8 95 -5 102 46 100 17 0 44 6 60 14 16 9 35 13 42 10 7 -2 16 2 19 9
3 8 11 12 18 10 15 -6 129 59 140 80 4 7 19 16 33 19 17 4 22 11 18 22 -4 10
-1 15 8 13 17 -4 79 50 79 69 0 7 4 11 9 8 5 -4 31 28 57 69 26 41 51 75 54
75 4 0 10 18 14 40 3 22 10 40 14 40 5 0 16 19 26 43 9 23 23 56 31 72 7 17
16 47 20 67 3 21 11 37 18 35 6 -1 16 18 23 43 10 44 12 45 60 52 27 5 147 9
266 10 173 2 219 6 223 17 4 10 9 10 19 2 7 -6 21 -9 30 -5 9 3 23 1 30 -5 9
-8 16 -9 21 -2 3 6 30 8 65 5 33 -3 68 0 78 5 12 7 31 7 51 1 17 -5 31 -6 31
-2 0 4 23 8 50 10 28 2 50 -1 50 -6 0 -6 15 -7 37 -2 21 4 63 6 93 5 30 -1 63
2 72 7 11 5 22 3 32 -7 8 -9 16 -11 18 -4 3 9 77 15 123 10 11 -2 56 0 100 4
44 3 92 6 108 6 27 -1 38 -1 80 0 12 0 44 0 71 -1 27 -1 53 3 59 9 6 6 18 6
33 -1 16 -8 32 -8 47 -2 12 6 54 9 92 8 192 -5 248 -2 262 16 10 13 12 13 18
-3 6 -14 10 -15 21 -6 8 6 21 9 30 5 8 -3 25 -1 36 5 11 6 18 7 14 1 -8 -13
200 -7 236 7 15 6 34 8 41 5 8 -3 52 -6 98 -7 66 -2 87 0 96 13 7 8 13 10 13
4 0 -7 17 -10 45 -8 24 2 47 -1 51 -7 3 -6 11 -3 19 8 11 15 15 15 29 4 13
-11 19 -11 31 -1 10 9 15 9 15 1 0 -15 27 -14 34 2 5 9 7 9 12 -1 4 -8 10 -10
17 -3 19 15 77 17 86 3 6 -10 10 -8 14 9 4 16 10 20 19 13 15 -12 218 -11 298
1 49 7 95 10 103 5 4 -2 151 -2 162 1 13 3 93 8 235 13 117 4 258 10 500 22
74 3 172 6 217 6 46 0 85 4 88 8 3 5 67 9 143 9 75 0 162 3 192 5 59 6 281 16
445 21 388 11 636 21 767 29 20 1 39 4 42 6 2 3 58 5 123 4 92 -1 129 -6 168
-21z m2295 -1082 c5 -9 10 -10 14 -2 6 10 100 6 117 -5 4 -2 80 -4 170 -5 90
-1 171 -5 180 -10 9 -5 67 -10 128 -11 61 -2 111 -5 111 -8 0 -3 35 -6 77 -7
73 -2 236 -12 293 -17 14 -2 48 -4 77 -4 31 -1 58 -8 67 -17 8 -8 22 -15 31
-15 17 0 57 -18 65 -30 3 -4 20 -15 38 -24 17 -9 32 -21 32 -26 0 -6 6 -10 13
-10 15 0 87 -65 87 -79 0 -6 9 -11 20 -11 13 0 20 -7 20 -20 0 -11 9 -25 20
-32 11 -7 20 -16 20 -20 0 -11 38 -48 49 -48 5 0 12 -13 16 -29 3 -16 12 -32
19 -34 8 -3 23 -26 36 -51 12 -25 26 -46 31 -46 5 0 9 -5 9 -12 0 -16 40 -97
51 -104 5 -3 9 -16 9 -30 0 -30 17 -66 36 -77 8 -4 14 -23 14 -42 0 -36 17
-83 36 -100 11 -9 24 -67 27 -122 1 -13 7 -23 13 -23 14 0 24 -23 24 -53 0
-45 21 -99 36 -93 10 4 14 -3 15 -22 1 -54 10 -107 20 -117 5 -5 9 -19 9 -31
0 -12 6 -27 14 -34 8 -6 12 -18 9 -26 -7 -20 18 -117 34 -129 9 -6 16 -38 19
-85 6 -77 30 -164 43 -155 5 2 13 -38 19 -90 6 -52 18 -109 26 -127 9 -18 22
-67 30 -108 22 -111 27 -133 36 -155 5 -11 14 -58 19 -105 6 -47 13 -100 15
-118 3 -18 9 -39 16 -46 12 -15 15 -36 25 -169 4 -48 15 -110 26 -139 10 -28
21 -88 24 -132 4 -45 9 -90 12 -101 4 -11 7 -33 7 -50 1 -16 9 -46 18 -66 10
-22 18 -76 21 -138 3 -56 7 -105 11 -108 3 -4 6 -28 6 -55 0 -26 4 -48 9 -48
11 0 18 -46 35 -240 8 -85 17 -180 21 -210 4 -30 7 -72 6 -93 -1 -22 3 -36 8
-33 15 10 19 -16 26 -150 8 -174 15 -303 18 -339 2 -16 4 -56 5 -89 2 -51 4
-57 17 -46 18 15 18 8 6 -57 -5 -24 -4 -46 1 -51 5 -5 11 -52 13 -103 2 -52 7
-150 10 -219 14 -272 9 -576 -11 -632 -7 -22 -14 -69 -14 -106 0 -131 -9 -215
-26 -233 -9 -10 -17 -42 -20 -81 -7 -111 -15 -160 -30 -190 -8 -15 -17 -56
-20 -91 -3 -34 -11 -66 -18 -72 -13 -10 -29 -90 -28 -138 1 -17 -6 -32 -18
-40 -14 -8 -20 -23 -20 -47 0 -19 -9 -60 -21 -90 -11 -30 -24 -77 -27 -105 -6
-40 -11 -50 -25 -48 -12 0 -16 -4 -13 -13 3 -7 0 -16 -5 -20 -6 -3 -9 -15 -6
-25 3 -11 -6 -35 -19 -54 -13 -20 -24 -45 -24 -57 0 -28 -22 -88 -32 -88 -4 0
-10 -22 -14 -50 -4 -27 -11 -48 -17 -47 -5 1 -18 -19 -27 -45 -10 -26 -27 -62
-39 -81 -11 -19 -21 -43 -21 -54 0 -12 -7 -26 -15 -33 -8 -7 -20 -30 -25 -52
-6 -21 -18 -42 -26 -45 -7 -3 -14 -15 -14 -27 0 -26 -10 -41 -32 -49 -10 -3
-18 -15 -18 -25 0 -11 -8 -30 -19 -43 -10 -13 -22 -35 -26 -49 -4 -14 -15 -36
-25 -50 -10 -14 -21 -35 -24 -47 -4 -13 -13 -29 -19 -35 -23 -25 -87 -123 -87
-134 0 -7 -7 -18 -16 -25 -9 -7 -20 -24 -25 -37 -5 -13 -16 -22 -25 -20 -10 2
-18 -4 -19 -14 -4 -21 -65 -108 -77 -108 -5 0 -12 -8 -16 -17 -15 -37 -58 -92
-74 -97 -10 -2 -21 -12 -25 -23 -4 -10 -17 -29 -30 -43 -13 -14 -23 -28 -23
-33 0 -4 -4 -6 -9 -2 -5 3 -20 -9 -32 -27 -13 -18 -32 -40 -44 -48 -11 -8 -45
-39 -75 -70 -30 -30 -69 -67 -85 -82 -17 -15 -35 -32 -42 -38 -39 -39 -65 -60
-73 -60 -5 0 -12 -9 -15 -20 -3 -11 -15 -20 -25 -20 -10 0 -20 -7 -24 -15 -3
-8 -14 -15 -24 -15 -16 0 -47 -22 -111 -80 -9 -8 -33 -23 -54 -32 -20 -10 -37
-22 -37 -28 0 -5 -9 -10 -20 -10 -10 0 -27 -8 -37 -18 -10 -10 -37 -24 -60
-32 -23 -7 -40 -16 -38 -20 5 -8 -114 -70 -133 -70 -5 0 -17 -10 -25 -23 -13
-21 -22 -23 -69 -20 -29 1 -58 5 -65 8 -7 2 -15 0 -18 -4 -2 -5 5 -11 17 -14
12 -4 19 -9 16 -12 -10 -10 -48 14 -48 30 0 13 27 21 54 16 5 -1 6 5 3 13 -4
11 2 18 19 22 13 3 31 16 39 28 9 11 18 20 20 19 11 -6 35 10 35 23 0 8 11 19
25 24 14 5 25 16 25 25 0 8 6 15 14 15 7 0 21 11 32 24 10 14 21 23 25 21 3
-3 19 7 33 20 15 14 34 25 42 25 9 0 18 9 21 20 3 11 11 20 18 20 7 0 16 7 19
16 3 8 10 13 15 9 12 -7 62 45 55 57 -3 4 5 8 16 8 16 0 20 4 16 16 -3 8 -2
12 4 9 6 -3 15 -3 21 1 8 4 7 9 -2 15 -11 7 -11 9 2 9 9 0 22 7 29 15 7 8 16
12 21 9 5 -3 23 11 41 31 18 19 37 35 41 35 10 0 46 41 47 53 0 10 41 64 43
59 6 -11 37 13 37 28 0 10 8 21 18 24 25 8 73 60 76 82 2 13 10 18 23 16 15
-2 22 4 27 22 3 14 17 37 30 51 15 16 22 33 19 43 -3 9 -3 14 2 10 12 -11 35
11 35 33 0 10 16 30 35 45 19 14 35 32 35 39 0 7 7 15 15 19 8 3 15 17 15 32
0 19 4 25 15 20 11 -4 19 3 26 22 6 15 15 34 20 42 5 8 14 25 19 38 6 14 15
20 22 16 8 -5 9 -2 5 9 -3 10 -2 17 2 17 12 0 41 88 35 104 -3 8 0 17 7 22 9
5 10 2 5 -12 -7 -18 -6 -18 11 1 24 25 75 152 75 185 0 14 8 30 17 37 23 15
43 85 35 120 -3 18 -2 23 3 15 12 -16 33 71 33 133 0 29 5 47 16 53 22 12 35
121 27 222 -4 47 -6 90 -4 95 7 24 6 247 -1 251 -7 5 -4 58 7 124 12 68 14 94
9 83 -8 -18 -24 -16 -24 2 0 8 7 15 15 15 8 0 15 5 15 10 0 6 -7 10 -15 10
-10 0 -15 10 -15 33 0 40 -7 50 -47 71 -82 42 -113 12 -120 -114 -4 -85 -9
-104 -23 -95 -5 3 -10 3 -10 -2 -5 -89 -16 -156 -31 -201 -10 -30 -19 -71 -19
-90 0 -19 -11 -58 -24 -86 -13 -28 -27 -68 -30 -90 -3 -21 -12 -46 -21 -56 -9
-9 -18 -40 -22 -69 -3 -28 -10 -51 -14 -51 -12 0 -39 -67 -39 -95 0 -12 -7
-28 -15 -35 -8 -7 -15 -18 -15 -25 0 -23 -59 -129 -85 -154 -14 -12 -22 -27
-19 -32 3 -6 -6 -19 -20 -30 -13 -11 -28 -28 -31 -39 -4 -11 -11 -18 -16 -15
-5 4 -9 2 -9 -3 0 -5 -12 -22 -27 -37 -16 -15 -33 -41 -39 -58 -7 -20 -18 -31
-28 -31 -9 1 -16 -2 -16 -7 0 -21 -2 -24 -21 -31 -11 -4 -22 -16 -26 -25 -7
-18 -73 -83 -85 -83 -3 0 -12 -16 -18 -34 -8 -24 -16 -33 -26 -29 -8 3 -14 1
-14 -4 0 -6 -11 -22 -24 -36 -13 -14 -26 -32 -28 -39 -4 -11 -8 -11 -21 0 -14
12 -17 10 -23 -12 -3 -14 -9 -26 -13 -26 -12 0 -91 -78 -91 -90 0 -6 -5 -10
-12 -8 -7 3 -23 -6 -36 -19 -12 -13 -27 -23 -32 -23 -6 0 -10 -9 -10 -20 0
-11 -6 -20 -14 -20 -8 0 -24 -12 -35 -27 -11 -16 -21 -22 -21 -16 0 10 -6 10
-25 1 -14 -6 -25 -15 -25 -20 0 -5 -5 -6 -10 -3 -6 3 -13 -1 -16 -9 -3 -9 -12
-16 -19 -16 -7 0 -20 -10 -28 -23 -13 -18 -16 -19 -16 -4 -1 15 -3 15 -21 -3
-11 -11 -26 -17 -33 -14 -7 2 -25 -7 -40 -22 -15 -14 -39 -27 -54 -29 -38 -4
-64 -15 -57 -26 3 -5 -19 -9 -49 -9 -47 0 -55 -3 -65 -24 -10 -22 -20 -26 -83
-32 -50 -5 -78 -13 -90 -25 -13 -13 -34 -19 -66 -19 -27 0 -77 -9 -113 -21
-49 -15 -98 -21 -196 -23 -72 -2 -135 -5 -140 -8 -19 -9 -81 -9 -107 1 -20 8
-26 8 -22 0 5 -7 -17 -8 -68 -3 -52 5 -76 3 -82 -5 -5 -9 -10 -9 -20 -1 -10 8
-17 5 -29 -12 -13 -18 -16 -19 -16 -5 0 9 -7 17 -15 17 -8 0 -15 -5 -15 -11 0
-8 -4 -8 -13 -1 -8 7 -18 7 -27 2 -8 -5 -22 -4 -33 2 -14 7 -22 7 -27 -2 -5
-8 -9 -6 -14 6 -6 15 -9 16 -16 4 -6 -9 -25 -14 -54 -13 -25 1 -46 -3 -46 -8
0 -5 -7 -9 -15 -9 -29 0 -61 -22 -74 -50 -16 -37 -16 -337 0 -356 6 -7 7 -19
3 -25 -4 -7 0 -18 10 -25 20 -14 35 -134 17 -134 -11 0 -17 16 -27 72 -7 41
-17 48 -33 21 -9 -15 -10 -13 -11 12 0 37 -30 116 -41 110 -4 -3 -11 20 -14
50 -4 31 -10 54 -13 51 -7 -7 -31 25 -32 42 0 7 5 10 12 6 7 -5 8 -3 2 7 -5 8
-10 37 -11 64 -12 224 -12 208 11 220 13 7 20 19 19 34 -2 12 1 20 6 17 5 -4
7 3 4 13 -3 13 2 21 16 26 19 6 26 25 23 65 -1 8 1 22 4 30 4 12 7 12 13 1 11
-18 31 -5 31 20 0 10 5 19 10 19 11 0 35 24 75 74 11 14 25 25 32 26 7 0 26
13 43 30 17 16 36 30 43 30 7 0 19 9 27 20 17 24 30 26 30 5 0 -10 10 -15 32
-15 17 0 39 -7 49 -16 16 -14 38 -21 125 -38 7 -1 19 -8 27 -14 13 -11 129
-24 240 -26 15 -1 27 -4 27 -8 0 -10 129 -8 135 3 9 13 72 11 81 -2 5 -8 10
-6 16 5 10 18 48 22 48 5 0 -7 7 -8 18 -3 9 4 42 8 72 9 53 1 82 10 143 42 15
8 31 12 36 9 14 -9 171 44 192 65 10 10 25 19 33 19 7 0 19 6 26 14 6 8 17 13
24 10 8 -3 16 2 19 10 4 9 15 16 25 16 11 0 30 8 43 18 13 10 32 21 42 25 9 3
17 13 17 22 0 8 7 15 16 15 23 0 94 59 95 78 0 11 2 12 6 5 6 -17 23 -17 23 0
0 6 14 20 30 29 17 9 30 24 30 32 0 10 6 13 15 10 10 -4 18 3 25 20 5 14 12
26 15 26 4 0 3 -6 0 -12 -4 -7 7 3 25 22 18 19 39 52 48 73 9 20 20 37 25 37
13 0 34 24 42 49 4 12 9 20 12 17 10 -10 30 19 25 38 -3 13 -1 17 6 12 7 -4
12 -1 12 7 0 8 7 17 15 21 8 3 15 15 15 26 0 12 4 19 9 15 13 -8 41 35 41 63
0 13 11 38 25 56 14 18 25 38 25 44 0 7 3 12 8 12 9 0 44 63 41 76 -4 25 2 64
10 59 10 -5 31 54 31 86 0 8 9 25 20 37 11 12 20 32 20 46 0 13 6 31 13 38 15
15 42 103 40 130 -1 10 2 18 8 18 5 0 9 8 9 18 0 9 7 37 16 62 9 25 13 58 10
76 -4 17 -2 42 3 55 6 14 10 17 11 9 0 -9 7 -3 16 13 10 18 13 39 9 58 -4 18
-3 29 4 29 6 0 8 7 5 15 -4 8 -1 15 5 15 6 0 11 8 11 17 0 9 6 24 14 32 17 19
34 77 20 68 -5 -3 -9 14 -9 37 0 24 5 42 10 42 12 -1 14 1 29 62 7 26 11 63 8
81 -4 31 12 78 32 92 5 4 10 46 11 93 1 62 6 91 18 104 21 23 30 72 27 152 -3
104 -3 112 10 120 7 4 14 23 15 41 2 19 10 68 19 109 18 85 19 93 9 87 -11 -7
-10 92 1 123 8 23 7 24 -8 11 -16 -13 -16 -12 -5 15 6 16 15 38 19 49 17 41
22 82 20 170 -4 316 -3 426 3 473 5 32 4 51 -1 48 -11 -6 -13 46 -3 54 18 15
31 52 22 68 -5 9 -5 38 -1 65 4 26 3 47 -2 47 -4 0 -8 23 -8 50 0 28 5 50 10
50 7 0 9 49 5 150 -6 168 -6 172 -20 183 -6 4 -3 11 7 18 20 11 19 23 -8 254
-6 51 -12 132 -13 168 -1 16 -5 26 -11 22 -5 -3 -10 4 -11 17 -6 183 -10 373
-9 410 0 25 -3 49 -8 52 -5 3 -7 18 -5 33 10 55 4 159 -12 202 -8 24 -15 58
-15 76 0 19 -5 35 -12 37 -8 3 -9 12 -1 35 8 23 8 34 0 42 -7 7 -13 54 -14
119 -6 298 -9 335 -33 382 -21 40 -24 62 -27 195 -2 83 -7 157 -10 165 -4 8
-8 29 -8 45 -3 53 -17 125 -25 125 -4 0 -12 42 -19 93 -26 214 -35 268 -42
250 -5 -16 -25 139 -20 160 1 4 -5 15 -14 23 -8 9 -15 22 -15 30 0 8 -4 12
-10 9 -6 -4 -10 13 -10 42 0 27 -4 53 -9 59 -4 5 -21 47 -36 94 -31 97 -33
100 -46 80 -8 -12 -10 -9 -6 12 3 18 -1 29 -11 33 -8 3 -12 8 -9 12 4 3 0 11
-8 17 -7 6 -15 18 -17 26 -13 62 -211 218 -249 195 -5 -4 -9 -3 -8 2 1 4 1 15
0 23 -1 13 -2 13 -12 0 -8 -12 -12 -12 -16 -2 -6 15 -67 42 -96 42 -11 0 -40
9 -64 21 -24 12 -55 19 -68 17 -13 -3 -22 -1 -19 3 3 5 1 9 -5 9 -5 0 -11 -5
-13 -10 -2 -6 -14 -1 -26 11 -18 16 -38 21 -85 23 -34 1 -68 5 -74 9 -6 4 -14
3 -18 -3 -3 -5 -20 -7 -37 -3 -24 5 -29 3 -23 -7 5 -9 4 -11 -4 -6 -6 4 -9 11
-6 16 7 12 -90 16 -350 13 -253 -3 -310 -2 -370 1 -22 1 -46 -3 -54 -8 -10 -8
-15 -8 -18 2 -3 6 -10 9 -16 5 -10 -6 -128 -14 -222 -16 -35 0 -345 12 -360
15 -6 1 -23 -2 -38 -6 -15 -3 -27 -2 -27 3 0 5 -15 8 -32 6 -112 -14 -128 -17
-121 -28 4 -7 0 -6 -9 1 -14 11 -20 10 -37 -7 -12 -12 -28 -21 -36 -21 -8 0
-15 -7 -15 -16 0 -8 -5 -12 -10 -9 -11 7 -40 -53 -40 -81 0 -9 -8 -23 -17 -30
-16 -11 -18 -30 -17 -151 0 -141 8 -198 23 -188 9 5 22 -94 24 -191 1 -34 6
-51 14 -51 7 0 13 4 13 9 0 5 4 7 8 4 19 -11 12 -146 -6 -146 -9 0 -32 50 -32
68 0 8 -6 12 -13 9 -9 -3 -14 7 -16 37 -1 28 -8 46 -23 57 -16 12 -22 29 -24
65 -3 71 -14 138 -22 144 -30 21 -49 343 -22 375 7 8 10 15 6 15 -4 0 0 13 9
30 8 16 15 50 15 75 0 25 4 44 9 41 12 -8 28 13 36 47 4 15 13 27 21 27 8 0
14 4 14 8 0 14 36 52 49 52 6 0 11 5 11 11 0 5 4 8 9 5 4 -3 16 3 26 14 10 11
26 20 35 20 10 0 23 7 30 15 7 8 23 15 37 15 13 0 34 5 45 11 12 7 58 13 102
15 45 2 128 6 186 8 58 3 149 8 202 11 53 3 179 8 278 10 100 2 183 5 185 7 2
1 67 3 145 2 103 -1 144 -4 150 -13z m-185 -887 c17 -3 82 -7 145 -10 63 -2
133 -11 155 -18 22 -8 51 -14 65 -14 32 0 100 -18 137 -37 15 -8 38 -15 50
-15 12 0 24 -4 28 -9 3 -5 19 -12 35 -16 17 -4 30 -11 30 -17 0 -6 3 -8 7 -5
3 4 12 2 19 -3 6 -6 16 -10 20 -8 7 2 24 -7 72 -38 2 -1 4 -8 6 -16 1 -7 5
-18 8 -24 5 -7 -9 -9 -40 -7 -25 2 -50 9 -54 16 -4 7 -8 8 -8 4 0 -5 -5 -5
-12 -1 -17 11 -42 13 -218 20 -85 3 -180 8 -210 10 -159 13 -429 2 -440 -17
-6 -8 -9 -8 -12 1 -3 9 -16 10 -46 5 -23 -4 -40 -11 -36 -16 3 -5 -1 -9 -10
-9 -8 0 -16 5 -18 10 -2 7 -17 6 -43 -3 -23 -9 -100 -17 -185 -20 -80 -3 -153
-8 -162 -11 -10 -3 -26 -9 -35 -13 -10 -3 -25 -5 -35 -4 -9 1 -19 -3 -23 -9
-5 -8 -10 -8 -20 0 -7 6 -18 9 -25 8 -7 -2 -15 3 -17 10 -3 6 3 12 12 12 9 0
14 4 10 9 -3 5 -1 12 5 16 5 3 10 1 10 -4 0 -20 17 -11 28 14 9 18 19 25 41
25 16 0 33 5 36 10 9 15 86 53 93 46 3 -3 11 -1 18 4 6 6 16 9 20 8 5 -2 27 8
49 21 22 14 44 24 49 22 6 -1 26 4 45 12 20 9 56 20 81 26 25 5 59 13 75 17
17 4 47 7 68 7 20 0 37 3 37 8 0 15 119 18 195 3z m-10488 -50 c-3 -3 -12 -4
-19 -1 -8 3 -5 6 6 6 11 1 17 -2 13 -5z m9290 -264 c2 -25 -1 -30 -20 -29 -18
1 -18 2 -4 6 14 4 16 8 7 18 -7 8 -9 19 -5 25 11 18 20 11 22 -20z m1421 -211
c2 -4 14 -4 27 1 12 5 25 7 27 5 2 -2 58 -7 125 -10 90 -4 140 -11 191 -29 85
-28 191 -78 192 -89 0 -10 26 -37 35 -37 11 0 61 -54 68 -72 3 -10 13 -18 21
-18 8 0 22 -16 32 -35 9 -19 21 -33 27 -32 7 1 13 -10 15 -25 2 -14 14 -37 26
-50 13 -13 26 -39 30 -60 4 -20 13 -39 21 -42 8 -3 19 -24 25 -48 7 -24 20
-52 30 -63 9 -11 21 -44 24 -74 4 -29 16 -65 26 -80 11 -14 23 -48 26 -75 3
-28 15 -68 26 -90 11 -23 22 -70 25 -106 3 -36 10 -74 16 -85 6 -11 10 -26 8
-34 -1 -7 2 -10 7 -7 6 3 15 -36 23 -94 7 -55 15 -100 19 -100 8 0 26 -93 39
-204 6 -49 15 -92 21 -96 14 -8 27 -94 35 -222 4 -60 11 -108 16 -108 5 0 9
-20 9 -44 0 -25 4 -47 9 -50 11 -7 19 -81 26 -236 3 -63 8 -167 11 -230 11
-223 6 -1125 -6 -1170 -14 -54 -19 -113 -22 -277 -1 -103 -5 -133 -15 -133 -7
0 -13 -3 -13 -7 -1 -5 -3 -48 -5 -98 -7 -131 -14 -197 -24 -209 -11 -14 -22
-60 -27 -111 -8 -83 -14 -113 -28 -140 -8 -15 -17 -55 -21 -89 -4 -33 -13 -68
-21 -77 -8 -8 -16 -47 -20 -87 -3 -39 -14 -88 -25 -109 -10 -20 -19 -51 -19
-69 0 -17 -9 -41 -20 -54 -11 -13 -23 -35 -26 -49 -3 -14 -16 -54 -30 -89 -13
-34 -24 -75 -24 -90 0 -16 -8 -32 -20 -40 -11 -7 -20 -23 -20 -37 0 -25 -25
-73 -44 -87 -6 -4 -7 -10 -4 -14 4 -3 -4 -31 -18 -61 -13 -31 -24 -66 -24 -80
0 -13 -7 -26 -17 -30 -23 -9 -33 -23 -33 -50 0 -12 -10 -32 -22 -43 -13 -12
-23 -26 -24 -33 0 -7 -2 -20 -2 -29 -1 -9 -11 -20 -22 -23 -14 -4 -22 -19 -26
-46 -4 -21 -10 -39 -13 -39 -12 0 -67 -84 -74 -112 -4 -15 -16 -29 -27 -33
-10 -3 -22 -14 -25 -24 -3 -10 -25 -40 -50 -67 -24 -27 -47 -57 -50 -66 -4
-10 -12 -18 -20 -18 -7 0 -27 -16 -44 -35 -17 -19 -33 -35 -36 -35 -8 0 -31
-20 -57 -47 -12 -13 -30 -23 -40 -23 -9 0 -25 -11 -34 -25 -9 -14 -19 -23 -22
-21 -6 7 -62 -26 -62 -36 0 -4 -17 -8 -37 -8 -24 0 -45 -8 -59 -21 -23 -22
-80 -30 -214 -31 -30 0 -60 -4 -66 -9 -6 -5 -26 -4 -45 1 -19 4 -68 11 -109
13 -41 3 -88 12 -105 21 -16 8 -54 17 -84 19 -29 3 -56 9 -60 15 -10 15 -76
33 -96 26 -12 -5 -16 -4 -11 4 9 15 -37 44 -66 42 -13 -1 -26 -2 -30 -1 -5 1
-11 1 -14 0 -3 0 -13 8 -22 19 -9 11 -26 19 -37 19 -49 -1 -76 4 -70 12 7 13
-27 31 -57 31 -13 0 -28 8 -34 18 -7 10 -30 24 -53 32 -22 7 -41 17 -41 21 0
5 -19 13 -42 20 -24 6 -48 15 -54 20 -7 6 -21 11 -32 14 -28 5 -110 43 -116
54 -3 5 -15 7 -26 4 -14 -4 -20 0 -20 11 0 9 -7 16 -15 16 -8 0 -19 8 -24 19
-6 10 -13 158 -16 342 -3 178 -7 378 -10 444 -2 66 -6 276 -7 467 -2 192 -6
348 -10 348 -3 0 -7 127 -7 283 -1 155 -4 392 -7 527 -11 510 -14 644 -19 965
-3 182 -7 443 -10 580 -3 138 -7 374 -10 525 -3 151 -8 379 -11 507 -6 225 -5
232 15 249 12 11 23 36 27 63 4 26 15 57 25 70 11 13 19 35 19 48 0 13 11 44
25 69 14 25 25 58 25 74 0 19 7 33 19 40 12 6 21 23 23 43 2 20 8 32 18 32 8
0 19 16 25 37 5 20 20 47 33 60 12 14 22 30 22 37 0 6 9 21 20 33 11 12 20 32
20 46 0 18 4 22 18 18 13 -5 22 1 30 19 7 15 16 24 21 20 5 -3 12 4 16 15 3
11 10 20 14 20 4 0 26 17 49 38 39 36 149 82 232 97 59 11 107 18 130 17 14 0
28 5 32 11 6 9 8 8 8 -1 0 -7 5 -10 10 -7 10 6 54 10 232 19 42 2 82 7 87 11
6 3 41 6 78 6 38 -1 84 1 103 3 19 3 40 0 46 -5 7 -6 16 -4 24 6 10 12 31 13
114 8 55 -3 102 -9 104 -14z m2749 -5151 c-3 -8 -6 -5 -6 6 -1 11 2 17 5 13 3
-3 4 -12 1 -19z m-2407 -2818 c0 -5 -4 -10 -10 -10 -5 0 -10 5 -10 10 0 6 5
10 10 10 6 0 10 -4 10 -10z m-1554 -72 c2 -30 -1 -35 -16 -31 -15 4 -19 27
-11 71 1 2 7 2 14 0 6 -3 13 -21 13 -40z m1784 -152 c0 -3 -4 -8 -10 -11 -5
-3 -10 -1 -10 4 0 6 5 11 10 11 6 0 10 -2 10 -4z m-2383 -1003 c-3 -10 -5 -2
-5 17 0 19 2 27 5 18 2 -10 2 -26 0 -35z m-8510 -765 c-3 -8 -6 -5 -6 6 -1 11
2 17 5 13 3 -3 4 -12 1 -19z m8086 -564 c4 -5 12 -2 17 6 8 13 10 13 10 -1 0
-9 3 -31 6 -48 6 -27 4 -31 -15 -31 -12 0 -24 -6 -27 -14 -3 -8 -13 -18 -22
-21 -28 -12 -481 -17 -500 -6 -15 9 -13 11 8 12 14 1 28 1 33 0 4 0 7 8 7 19
0 17 7 20 39 20 22 0 43 5 46 10 5 8 12 7 22 -2 12 -10 17 -9 24 5 6 9 18 17
27 17 10 0 23 5 29 11 10 10 32 14 97 18 11 1 16 6 13 15 -5 11 6 16 41 21 26
4 63 14 82 24 l35 18 10 -33 c6 -18 14 -36 18 -40z m-553 -94 c0 -5 -4 -10
-10 -10 -5 0 -10 5 -10 10 0 6 5 10 10 10 6 0 10 -4 10 -10z m-7473 -435 c28
-4 54 -13 57 -20 5 -15 92 -36 114 -28 8 4 19 -1 24 -10 5 -10 21 -17 35 -17
20 0 23 -3 14 -14 -9 -11 -8 -15 5 -20 9 -3 20 -4 25 0 5 3 9 -1 9 -8 0 -8 14
-25 30 -40 17 -14 30 -35 30 -46 0 -19 29 -52 31 -36 1 5 5 -13 9 -41 4 -27 3
-57 -1 -65 -5 -8 -9 -10 -9 -5 0 6 -4 4 -9 -4 -11 -17 -59 -18 -74 -1 -9 10
-9 11 1 6 6 -4 12 -3 12 2 0 9 -65 28 -82 24 -4 -1 -10 7 -13 18 -3 11 -17 20
-33 22 -15 2 -26 9 -25 16 2 7 -8 12 -27 12 -19 0 -33 7 -40 20 -6 12 -22 25
-36 30 -13 5 -24 15 -24 22 0 7 -23 25 -50 40 -28 16 -50 33 -50 39 0 13 -25
39 -38 39 -6 0 -13 7 -16 16 -8 20 39 67 62 60 9 -2 40 -8 69 -11z m5894 -293
c17 3 32 1 34 -2 3 -4 25 -3 51 2 33 7 53 6 75 -2 25 -11 32 -10 49 5 12 10
20 13 20 7 0 -19 30 -14 31 6 1 16 2 16 6 0 5 -21 14 -23 31 -6 9 9 12 9 12 1
0 -7 9 -10 23 -6 12 2 33 4 47 2 14 -1 72 -2 130 -2 69 1 108 -3 112 -10 6 -9
8 -8 8 1 0 10 8 12 29 7 22 -5 32 -2 40 12 7 12 11 13 11 4 0 -7 6 -11 15 -8
8 4 17 2 19 -2 3 -5 16 -9 28 -10 13 0 39 -2 58 -3 20 -1 41 1 48 6 6 4 21 2
33 -5 17 -8 23 -8 29 1 4 7 12 10 18 6 6 -3 14 -2 17 4 4 7 11 8 18 2 18 -14
77 -20 77 -8 0 6 5 3 11 -7 6 -9 15 -15 21 -11 7 4 5 10 -3 16 -16 10 43 4 60
-6 5 -3 16 1 24 9 20 19 27 19 27 0 0 -11 7 -14 25 -9 14 3 31 1 39 -5 10 -8
16 -9 21 -1 8 13 65 13 65 0 0 -5 7 -10 15 -10 8 0 15 -3 15 -7 -1 -23 -24
-37 -67 -41 -26 -2 -66 -10 -87 -17 -29 -10 -42 -11 -47 -3 -5 7 -12 4 -20
-10 -10 -16 -17 -18 -30 -11 -11 6 -20 5 -24 -1 -3 -5 -17 -10 -31 -10 -13 0
-32 -8 -42 -18 -11 -11 -36 -19 -63 -20 -67 -4 -80 -7 -89 -22 -7 -11 -12 -11
-23 -2 -11 10 -17 9 -27 -3 -9 -10 -16 -12 -25 -5 -7 6 -18 5 -31 -4 -10 -7
-48 -17 -84 -21 -35 -4 -75 -14 -88 -23 -15 -10 -56 -16 -120 -19 -53 -3 -103
-6 -110 -8 -7 -3 -16 -5 -20 -5 -4 -1 -11 -8 -15 -16 -5 -8 -13 -12 -18 -8 -5
3 -15 1 -22 -4 -7 -5 -56 -9 -109 -10 -53 0 -106 -5 -117 -11 -14 -8 -22 -8
-27 0 -5 9 -11 7 -20 -5 -11 -16 -13 -16 -23 1 -10 17 -11 17 -17 -3 -3 -14
-14 -22 -27 -22 -12 0 -71 -3 -132 -7 -194 -12 -286 -15 -324 -12 -17 1 -29
-5 -37 -21 l-12 -23 -7 28 c-7 28 -7 28 -18 6 -5 -13 -14 -23 -19 -23 -5 0 -7
4 -4 8 2 4 1 14 -5 22 -7 12 -9 11 -9 -5 0 -22 -20 -24 -255 -29 -38 0 -72 -4
-75 -8 -3 -3 -20 -3 -38 0 -17 4 -77 5 -132 2 -56 -3 -112 -2 -125 1 -13 4
-27 4 -30 1 -8 -9 -635 -11 -635 -2 0 12 -55 5 -64 -9 -7 -12 -11 -11 -22 4
-11 14 -16 15 -28 6 -11 -9 -15 -8 -20 5 -5 13 -10 14 -18 6 -8 -8 -15 -9 -25
-1 -9 8 -17 8 -28 -1 -9 -7 -22 -9 -37 -3 -22 7 -171 12 -373 11 -269 -1 -337
1 -350 12 -12 10 -16 9 -21 -4 -9 -22 -24 -20 -24 3 0 28 -20 37 -27 12 -6
-23 -19 -28 -25 -9 -6 17 -29 20 -182 24 -84 2 -144 8 -152 15 -10 8 -14 8
-14 0 0 -6 -7 -11 -15 -11 -8 0 -15 7 -15 16 0 11 -5 14 -16 10 -9 -3 -20 -3
-25 0 -5 3 -69 7 -142 10 -91 2 -135 8 -142 16 -5 7 -19 14 -30 16 -45 7 -83
10 -145 13 -72 2 -88 14 -62 43 16 18 16 19 0 13 -10 -4 -18 -2 -18 2 0 13 30
22 43 14 19 -12 97 -10 107 2 5 6 39 12 76 13 38 2 74 8 81 14 7 5 18 8 25 5
8 -2 34 -1 60 3 30 4 52 3 59 -4 7 -6 9 -7 6 -1 -3 7 16 11 50 11 34 1 58 6
63 14 6 10 12 11 22 3 10 -8 35 -9 88 -2 41 5 85 7 97 4 12 -3 25 -1 28 5 3 5
17 10 30 10 13 0 27 5 31 11 5 8 9 8 14 -1 5 -9 13 -9 27 -2 11 6 69 11 129
11 60 0 131 4 159 10 27 5 56 6 64 1 15 -8 49 -2 69 13 8 6 12 6 12 -1 0 -13
209 -9 218 4 8 10 162 13 162 3 0 -10 52 -2 59 9 8 13 111 23 111 11 0 -5 4
-9 10 -9 5 0 7 7 4 15 -5 12 0 12 27 5 19 -6 42 -7 53 -4 11 4 59 8 108 9 48
1 90 4 93 6 2 3 30 2 62 -2 32 -3 61 -4 65 0 4 4 38 4 75 1 49 -4 72 -2 81 7
9 9 19 10 31 3 11 -5 31 -6 47 -1 16 4 39 5 52 0 12 -5 91 -6 174 -3 84 2 205
6 268 7 64 2 122 7 129 12 10 6 12 4 7 -4 -6 -10 7 -11 55 -7 72 7 151 7 158
1 2 -3 10 0 18 6 7 6 13 7 13 2 0 -5 25 -9 55 -9 30 0 52 3 50 6 -6 10 189 7
196 -2 3 -4 21 -3 39 2 19 6 52 10 72 10 29 0 38 4 39 18 1 15 2 15 6 -1 4
-15 12 -18 34 -15z m-3928 -229 c-7 -2 -19 -2 -25 0 -7 3 -2 5 12 5 14 0 19
-2 13 -5z m3447 -153 c0 -5 -5 -10 -11 -10 -5 0 -7 5 -4 10 3 6 8 10 11 10 2
0 4 -4 4 -10z"
    />
    <path
      d="M4441 17392 c-11 -21 2 -57 26 -71 43 -25 54 -41 59 -82 3 -24 14
-54 26 -66 17 -18 19 -31 16 -94 -4 -60 -1 -76 14 -91 24 -24 48 -23 88 7 19
14 41 25 51 25 9 0 22 7 29 15 7 8 21 15 32 15 10 0 17 3 15 8 -3 4 5 8 16 8
44 3 67 8 67 15 0 4 15 9 33 12 74 12 87 20 87 54 0 36 -22 93 -35 93 -6 0
-24 14 -40 30 -16 17 -35 30 -42 30 -7 0 -13 5 -13 10 0 6 -6 10 -14 10 -7 0
-19 7 -26 15 -7 8 -17 12 -22 9 -6 -4 -14 -1 -18 6 -5 7 -23 15 -41 17 -18 2
-46 10 -63 18 -19 10 -69 17 -133 20 -90 4 -104 2 -112 -13z"
    />
    <path d="M4552 17140 c0 -14 2 -19 5 -12 2 6 2 18 0 25 -3 6 -5 1 -5 -13z" />
    <path
      d="M10500 15168 c-36 -4 -106 -7 -157 -5 -50 1 -89 -1 -86 -5 2 -5 -35
-8 -84 -9 -175 -1 -311 -6 -320 -12 -12 -7 -55 -3 -70 6 -6 4 -13 3 -15 -3 -3
-9 -133 -14 -206 -7 -18 2 -35 0 -37 -4 -3 -4 -25 -6 -49 -4 -25 1 -50 -1 -57
-6 -7 -4 -23 -3 -36 2 -14 5 -23 5 -23 -1 0 -5 -13 -4 -31 2 -24 8 -33 8 -39
-2 -6 -9 -23 -11 -64 -6 -30 4 -61 4 -68 -1 -7 -4 -67 -9 -133 -10 -104 -2
-351 -10 -395 -12 -8 -1 -44 -2 -80 -2 -101 0 -315 -7 -315 -9 0 -2 -12 -3
-27 -4 -16 -1 -28 3 -28 9 0 6 -4 5 -8 -2 -5 -8 -37 -12 -87 -12 -140 -1 -169
-2 -220 -7 -72 -7 -172 -6 -196 1 -15 5 -19 4 -14 -4 5 -9 -25 -11 -112 -11
-65 1 -126 -1 -136 -5 -9 -4 -24 -2 -32 5 -8 6 -18 9 -23 6 -18 -11 -62 -14
-62 -4 0 7 -4 7 -12 0 -16 -13 -130 -23 -122 -11 3 5 0 9 -5 9 -6 0 -11 -5
-11 -10 0 -7 -13 -8 -34 -5 -18 4 -73 2 -122 -4 -49 -6 -173 -11 -276 -12
-124 0 -188 -4 -188 -11 0 -7 -5 -6 -15 2 -10 9 -44 10 -127 4 -169 -11 -182
-11 -195 -1 -8 6 -13 6 -13 0 0 -7 -48 -10 -124 -9 -68 0 -122 -3 -119 -7 2
-4 -8 -5 -23 -1 -16 4 -33 7 -39 6 -27 -2 -333 -13 -350 -12 -11 1 -27 1 -35
0 -52 -5 -110 -4 -145 2 -27 5 -35 4 -25 -2 11 -7 7 -10 -17 -10 -20 0 -33 5
-33 13 0 9 -2 9 -8 0 -5 -9 -33 -13 -83 -12 -56 0 -479 -9 -579 -13 -8 0 -20
-5 -27 -10 -7 -6 -14 -5 -18 2 -4 6 -16 8 -26 5 -18 -6 -148 -9 -174 -4 -5 1
-14 1 -19 0 -6 -1 -36 -4 -69 -7 -32 -2 -63 -6 -68 -10 -5 -3 -9 -22 -9 -42 1
-42 36 -95 49 -74 6 9 55 11 197 8 124 -3 193 0 202 7 9 7 16 7 23 0 7 -7 195
-9 586 -6 316 2 582 1 591 -3 26 -10 62 -11 62 -1 0 5 9 7 20 4 11 -3 35 -1
55 3 19 4 35 5 35 1 0 -3 28 -6 63 -6 34 0 65 -4 69 -10 5 -7 8 -7 8 0 0 6 22
10 53 9 28 -1 58 2 65 8 6 6 12 6 12 1 0 -8 23 -8 135 -2 18 1 75 -10 86 -16
5 -4 16 -1 24 5 9 7 22 9 32 5 10 -5 23 -7 28 -5 6 1 22 2 38 2 15 0 27 4 27
9 0 6 5 7 12 3 7 -4 127 -7 268 -5 349 3 538 1 583 -4 21 -3 37 -1 37 5 0 5 7
10 16 10 9 0 12 -5 8 -12 -4 -7 -3 -8 4 -4 10 6 81 7 217 4 99 -2 245 7 245
15 0 5 6 5 13 -1 7 -6 65 -9 155 -6 99 2 142 0 142 -7 0 -8 4 -8 13 -1 7 6 80
11 172 13 88 1 186 3 218 4 44 1 60 -2 67 -14 5 -9 10 -11 10 -5 0 8 29 12 82
13 45 1 84 4 87 6 2 3 10 0 17 -6 8 -7 14 -7 19 1 5 8 11 8 21 -1 10 -8 18 -9
27 0 8 6 17 8 20 4 9 -8 303 -7 316 1 5 4 12 3 15 -2 2 -4 37 -6 78 -5 180 6
594 10 601 6 11 -7 151 -8 163 -1 8 4 70 3 84 -2 3 -1 70 -1 150 -1 124 1 149
4 170 20 31 23 46 95 28 138 -6 15 -11 31 -10 34 1 4 -8 15 -18 24 -11 10 -20
23 -20 30 0 15 -28 46 -60 66 -20 12 -39 13 -90 7z"
    />
    <path
      d="M10442 13509 c-9 -3 -64 -7 -122 -7 -58 0 -105 -2 -105 -2 0 -1 -47
-4 -105 -5 -58 -2 -159 -6 -225 -10 -66 -3 -202 -8 -302 -10 -101 -3 -194 -10
-208 -15 -14 -5 -25 -6 -25 -1 0 4 -37 6 -82 5 -46 -2 -169 -5 -275 -8 -110
-3 -201 -9 -213 -16 -11 -6 -20 -7 -20 -3 0 12 -160 6 -175 -7 -9 -8 -14 -6
-19 6 -5 12 -10 14 -20 5 -7 -6 -60 -12 -118 -15 -58 -2 -110 -6 -115 -9 -4
-3 -23 -2 -41 1 -55 12 -130 2 -135 -16 -4 -15 -5 -14 -6 1 -1 14 -6 17 -23
11 -13 -4 -52 -7 -87 -5 -50 1 -66 -2 -77 -16 -11 -14 -14 -14 -12 -3 2 11 -8
16 -34 18 -21 2 -38 0 -38 -5 0 -4 -28 -8 -63 -7 -34 0 -78 -3 -97 -7 -20 -5
-36 -4 -38 1 -2 5 -14 5 -29 -1 -14 -5 -46 -9 -72 -9 -60 1 -215 -8 -266 -16
-39 -6 -89 -8 -420 -19 -88 -2 -203 -7 -255 -10 -52 -2 -234 -8 -405 -11 -597
-12 -640 -13 -684 -20 -32 -5 -42 -4 -37 4 10 16 -7 15 -22 0 -10 -10 -15 -10
-22 2 -7 10 -13 11 -17 5 -5 -6 -35 -11 -68 -12 -33 0 -120 -2 -193 -4 -74 -2
-136 -1 -139 4 -2 4 -9 4 -16 0 -14 -8 -85 -12 -242 -13 -22 0 -78 -3 -125 -6
-47 -4 -110 -6 -140 -5 -130 2 -202 1 -210 -4 -10 -6 -360 -18 -472 -16 -45 1
-68 -3 -68 -10 0 -8 -5 -8 -15 1 -17 14 -166 7 -211 -10 -15 -6 -24 -6 -24 0
0 6 -16 10 -36 10 -21 0 -33 -4 -29 -10 4 -7 -3 -7 -20 0 -43 16 -90 12 -110
-10 -19 -21 -51 -28 -39 -9 4 8 0 7 -15 -1 -12 -6 -26 -23 -32 -37 -5 -15 -15
-23 -23 -20 -15 6 -62 -51 -58 -70 2 -8 -7 -13 -23 -13 -14 0 -25 -4 -25 -8 0
-15 -58 -73 -76 -76 -9 -1 -18 -11 -20 -20 -5 -34 -14 -46 -34 -46 -12 0 -20
-7 -20 -16 0 -9 -6 -14 -12 -12 -17 6 -37 -14 -31 -30 3 -7 0 -10 -9 -7 -18 7
-71 -52 -64 -70 3 -9 0 -12 -9 -9 -7 3 -16 -3 -20 -15 -3 -12 -13 -21 -21 -21
-9 0 -14 -11 -14 -35 0 -19 5 -35 11 -35 7 0 8 -6 3 -17 -10 -22 -12 -573 -2
-573 4 0 5 -22 2 -49 -4 -41 -2 -51 13 -60 17 -10 17 -12 1 -21 -14 -9 -16
-27 -15 -119 1 -60 4 -108 8 -105 4 2 11 -1 15 -7 3 -6 1 -15 -6 -19 -14 -8
-22 -230 -9 -230 5 0 4 -11 -1 -24 -6 -16 -4 -39 4 -67 9 -30 10 -52 4 -69 -5
-14 -7 -41 -4 -61 3 -19 2 -49 -3 -67 -10 -32 -4 -75 8 -67 4 2 4 -17 0 -43
-4 -26 -3 -52 2 -58 6 -8 4 -27 -7 -54 -10 -24 -13 -45 -8 -48 11 -8 12 -77 2
-87 -3 -3 -2 -22 3 -41 6 -19 8 -38 4 -43 -3 -5 1 -11 7 -14 10 -3 10 -7 0
-19 -9 -11 -10 -23 -3 -41 5 -14 8 -27 5 -30 -4 -4 -8 -206 -4 -217 1 -3 3
-87 5 -186 1 -100 5 -186 8 -190 3 -5 2 -28 -3 -52 -4 -24 -3 -45 2 -48 5 -3
6 -14 3 -24 -6 -20 -6 -130 0 -335 3 -77 5 -151 4 -165 -1 -113 -5 -167 -12
-177 -5 -7 -5 -18 -1 -24 4 -7 6 -38 5 -70 -1 -38 2 -59 10 -59 7 0 9 -13 4
-40 -10 -60 -11 -239 -1 -233 4 3 5 -4 1 -16 -8 -26 -9 -100 -2 -108 3 -3 2
-16 -3 -29 -5 -13 -6 -24 -2 -24 4 0 6 -53 5 -117 -3 -101 -1 -120 14 -130 9
-7 12 -13 6 -13 -6 0 -9 -9 -6 -20 3 -11 1 -20 -3 -20 -5 0 -8 -44 -7 -97 5
-256 5 -312 -1 -321 -3 -6 -2 -14 4 -17 7 -4 8 -26 4 -57 -5 -38 -3 -52 7 -59
8 -5 9 -9 4 -9 -7 0 -11 -65 -13 -180 -2 -125 1 -180 8 -180 7 0 8 -5 3 -12
-12 -19 -10 -587 2 -592 7 -3 7 -7 0 -13 -5 -4 -11 -29 -11 -56 -1 -35 1 -45
10 -38 8 7 12 4 12 -12 0 -12 -3 -24 -7 -27 -11 -7 -16 -190 -6 -190 4 0 4
-12 1 -26 -6 -22 -4 -25 7 -19 11 7 12 6 2 -6 -14 -18 -15 -91 -1 -83 12 8 1
-66 -11 -79 -5 -5 -5 -27 -1 -50 4 -23 6 -84 5 -135 -1 -51 1 -95 5 -97 4 -3
4 -20 0 -39 -4 -19 -8 -66 -8 -105 0 -38 -3 -74 -6 -80 -4 -5 0 -16 7 -23 11
-9 12 -21 5 -43 -4 -16 -6 -52 -3 -80 2 -27 1 -85 -3 -128 -5 -43 -5 -80 -1
-82 11 -7 10 -115 -1 -136 -8 -15 -7 -19 4 -19 11 0 12 -8 5 -38 -4 -21 -6
-81 -3 -133 3 -52 5 -105 5 -119 -9 -177 -6 -224 11 -214 6 4 5 -4 -2 -16 -6
-12 -9 -24 -6 -27 3 -4 1 -12 -5 -19 -6 -7 -7 -19 -3 -26 9 -14 9 -78 0 -113
-3 -13 -1 -27 4 -30 6 -4 7 -12 3 -18 -10 -16 -10 -228 -1 -233 4 -3 6 -23 4
-44 -3 -28 0 -40 9 -40 7 0 15 -7 19 -15 3 -8 12 -15 21 -15 13 0 19 -12 16
-32 -1 -9 12 -11 45 -9 12 1 35 -12 55 -32 19 -19 45 -38 59 -42 14 -4 32 -13
40 -20 8 -7 26 -16 40 -19 36 -10 73 -29 85 -43 6 -7 28 -13 50 -15 25 -2 39
-8 37 -16 -3 -16 15 -16 21 1 4 7 6 6 6 -4 1 -14 49 -33 67 -26 3 1 10 -6 15
-16 7 -11 22 -17 44 -17 19 0 35 -4 35 -10 0 -5 7 -10 15 -10 8 0 15 -6 15
-14 0 -10 8 -13 25 -10 20 3 28 -1 35 -18 7 -18 9 -19 9 -5 1 20 31 24 31 4 0
-14 115 -41 131 -31 5 3 9 0 9 -5 0 -6 -8 -11 -17 -11 -15 0 -16 -2 -3 -10 8
-5 31 -10 50 -10 19 0 53 -9 74 -21 24 -13 60 -21 93 -22 29 -1 53 -6 53 -12
0 -13 43 -26 104 -30 27 -2 53 -10 57 -17 5 -7 9 -9 9 -4 0 6 5 5 12 -2 7 -7
26 -12 43 -13 16 0 39 -4 50 -8 12 -5 26 -4 34 3 12 9 13 8 9 -6 -4 -10 -1
-19 8 -22 8 -3 14 1 14 9 0 8 9 15 19 15 15 0 18 -5 13 -23 -5 -21 -4 -21 14
-5 16 14 21 14 32 2 7 -8 30 -14 50 -14 21 0 43 -5 48 -10 14 -14 128 -27 251
-29 57 -1 61 -2 55 -23 -4 -16 -2 -19 9 -12 21 13 42 14 56 2 7 -5 24 -7 37
-4 14 3 27 2 30 -3 3 -5 35 -6 71 -4 42 4 70 2 79 -6 11 -9 15 -9 19 1 4 10 8
10 15 -1 12 -16 49 -22 145 -20 46 0 67 -3 67 -12 0 -8 4 -8 13 -1 18 16 162
8 184 -9 15 -12 16 -12 8 1 -8 13 -6 13 8 1 22 -17 237 -25 237 -8 0 8 3 7 9
-2 7 -10 62 -13 275 -14 154 0 266 -4 266 -9 0 -5 6 -6 13 -1 6 4 28 9 47 10
25 2 31 0 20 -7 -12 -8 -11 -10 7 -10 12 0 23 5 25 11 3 8 14 8 43 0 25 -7 43
-7 50 -1 7 6 15 7 19 3 9 -10 167 -10 173 0 3 4 11 3 18 -3 13 -11 45 -4 45
11 0 5 8 9 18 9 14 0 15 -2 2 -10 -8 -5 -10 -10 -5 -10 6 0 17 4 25 10 9 6 17
5 22 -3 6 -9 12 -9 27 0 16 10 20 9 25 -4 5 -12 9 -13 20 -4 7 6 21 8 31 5 10
-4 21 -1 26 7 6 10 9 10 9 2 0 -17 37 -17 43 0 4 9 8 8 16 -3 6 -8 11 -10 11
-4 0 7 9 14 20 17 11 3 20 2 20 -2 0 -3 18 -6 40 -6 22 0 40 2 40 5 0 3 17 6
38 6 186 1 502 27 552 45 23 8 96 13 282 21 46 2 74 9 87 20 18 15 138 30 229
29 13 -1 33 4 45 11 12 6 38 13 57 15 19 2 42 6 50 9 8 3 44 8 80 10 43 3 69
10 77 20 7 10 34 17 75 21 116 9 163 18 185 35 7 5 17 7 22 3 6 -3 20 -1 32 5
11 7 36 13 55 15 19 2 41 9 50 15 8 7 31 14 52 14 20 1 52 9 70 18 21 11 45
15 63 11 18 -3 29 -1 29 6 0 6 9 11 20 11 11 0 20 3 20 8 0 4 12 8 28 9 54 3
82 8 82 16 0 4 7 7 15 7 8 0 15 4 15 10 0 5 7 7 15 4 8 -4 22 -1 30 6 8 7 21
10 29 7 9 -4 17 1 21 12 3 11 15 19 28 19 60 2 131 20 143 37 8 10 17 16 20
12 4 -3 20 1 36 9 16 8 32 12 37 9 5 -2 12 2 15 11 4 9 9 14 12 11 3 -3 24 1
46 9 22 7 44 12 48 9 4 -3 10 3 13 14 3 13 18 19 58 24 30 4 55 11 57 17 2 5
10 10 18 10 8 0 14 4 14 8 0 4 16 6 35 4 21 -3 35 0 35 7 0 6 7 11 15 11 8 0
15 7 15 15 0 15 16 19 53 15 10 -1 27 6 36 15 10 8 27 17 38 19 10 2 42 18 71
35 29 17 60 31 68 31 8 0 17 7 20 15 9 21 25 19 17 -2 -4 -11 5 -6 22 12 16
16 33 30 39 31 6 0 19 2 29 2 9 1 17 8 17 16 0 9 7 12 19 9 10 -2 24 1 32 9
32 30 111 78 127 78 10 0 33 11 52 25 19 14 41 25 51 25 18 0 32 28 50 100 11
42 12 108 3 210 -3 25 -6 125 -9 223 -2 98 -9 194 -15 212 -8 24 -8 45 -1 71
6 23 7 43 1 53 -8 14 -10 13 -10 -4 -1 -11 -4 -15 -6 -8 -3 6 2 35 10 63 16
55 11 103 -7 59 -9 -21 -11 -22 -14 -6 -3 10 2 26 10 35 9 11 13 33 10 62 -2
25 -3 71 -3 103 0 33 -4 57 -10 57 -5 0 -10 12 -9 28 l1 27 9 -25 c6 -18 8 -9
4 33 -2 32 -10 66 -17 75 -7 9 -8 13 -2 9 8 -5 13 7 16 36 6 51 0 76 -13 55
-14 -22 -11 8 5 47 9 21 11 37 5 40 -5 4 -9 1 -9 -6 0 -7 -3 -9 -6 -6 -4 3 -8
95 -10 204 -1 109 -5 255 -9 324 -3 75 -2 136 4 152 7 17 7 28 1 32 -13 8 -13
105 0 105 6 0 6 9 0 24 -5 13 -11 136 -14 273 -3 136 -8 320 -11 408 -6 183
-14 545 -20 985 -2 168 -7 400 -9 515 -3 116 -8 333 -11 484 -4 150 -9 283
-12 295 -3 11 -7 98 -9 191 -5 223 -9 285 -18 313 -6 17 -3 27 11 37 12 9 13
14 5 15 -9 0 -11 7 -7 20 5 14 2 20 -9 20 -9 0 -16 7 -16 15 0 8 4 15 8 15 12
0 5 185 -7 209 -14 25 -14 81 -1 81 6 0 6 7 -2 19 -8 13 -9 35 -2 77 5 33 6
88 2 124 -4 36 -10 139 -13 230 -2 91 -7 248 -10 350 -4 102 -8 316 -10 475
-3 160 -7 394 -10 520 -14 618 -17 763 -15 795 1 19 2 40 1 45 0 6 -4 48 -7
95 -4 47 -11 91 -16 98 -8 9 -49 11 -155 10 -79 -2 -151 -6 -161 -9z m-229
-166 c3 -21 6 -121 7 -223 0 -102 2 -259 5 -350 3 -91 7 -442 10 -780 4 -338
8 -703 10 -810 2 -107 6 -440 9 -740 4 -300 8 -660 11 -800 3 -140 7 -471 10
-735 6 -531 12 -961 20 -1370 7 -390 14 -798 21 -1215 3 -201 7 -408 9 -460 1
-52 6 -286 10 -520 l8 -426 -54 -35 c-30 -20 -81 -49 -114 -66 -33 -17 -85
-45 -115 -61 -141 -76 -406 -204 -450 -217 -14 -4 -31 -12 -39 -18 -7 -6 -50
-24 -95 -39 -44 -16 -82 -33 -84 -38 -2 -6 -9 -10 -15 -10 -13 0 -110 -36
-142 -53 -11 -5 -53 -21 -94 -33 -41 -13 -79 -28 -85 -33 -6 -5 -15 -10 -21
-11 -5 -1 -20 -6 -33 -11 -13 -5 -29 -9 -37 -9 -8 0 -17 -4 -20 -10 -3 -5 -19
-10 -34 -10 -15 0 -31 -4 -36 -8 -6 -5 -37 -17 -70 -27 -33 -10 -85 -26 -115
-36 -30 -10 -71 -21 -90 -25 -19 -3 -39 -10 -45 -14 -5 -4 -21 -10 -35 -13
-14 -3 -43 -11 -65 -17 -22 -6 -58 -16 -80 -20 -22 -5 -83 -21 -135 -35 -168
-45 -350 -81 -765 -151 -22 -4 -47 -8 -55 -10 -8 -1 -69 -7 -135 -13 -66 -6
-145 -15 -175 -21 -30 -6 -69 -10 -85 -8 -17 1 -35 -1 -41 -4 -53 -34 -1100
-43 -1324 -13 -90 12 -232 19 -237 11 -3 -4 -8 -3 -12 3 -4 5 -36 13 -71 15
-36 3 -90 10 -120 15 -30 6 -82 12 -115 14 -33 3 -67 7 -75 10 -14 6 -159 33
-300 57 -30 5 -72 13 -92 19 -20 5 -39 6 -42 3 -3 -2 -12 1 -20 7 -8 7 -25 14
-38 15 -13 2 -41 8 -63 14 -22 6 -71 19 -110 28 -38 10 -75 21 -82 27 -7 5
-16 6 -21 3 -10 -6 -160 40 -178 55 -6 5 -13 7 -16 4 -4 -4 -97 25 -143 44
-11 5 -51 20 -90 33 -38 12 -72 26 -73 30 -2 5 -10 8 -18 8 -8 0 -22 4 -32 10
-26 14 -144 61 -170 67 -12 3 -22 9 -22 14 0 5 -11 9 -25 9 -13 0 -28 6 -32
13 -4 7 -39 26 -78 42 -38 16 -90 41 -115 56 -25 15 -67 39 -95 53 -27 14 -58
32 -68 39 -16 13 -17 90 -17 1368 0 745 0 1431 0 1524 0 94 0 379 0 635 -1
555 -6 1535 -14 2605 -4 429 -8 1073 -11 1432 l-4 651 40 16 c21 9 77 22 123
31 46 8 128 23 182 34 95 19 354 54 499 67 39 3 72 7 75 9 3 2 48 6 100 9 52
4 142 11 200 16 58 5 150 12 205 15 55 3 138 8 185 10 213 14 424 18 935 18
479 1 1207 -9 1299 -18 42 -4 837 -4 906 0 30 2 143 6 250 10 107 3 236 10
285 15 50 5 131 12 180 16 128 10 180 15 375 40 19 2 58 7 85 10 28 3 75 9
105 14 30 5 89 14 130 20 41 6 80 16 85 20 6 5 19 8 28 6 10 -1 46 4 80 11 34
8 73 15 87 18 43 6 333 83 390 103 147 51 237 86 255 98 11 8 29 14 41 14 17
0 23 -8 27 -37z m-7336 -8935 c-3 -8 -6 -5 -6 6 -1 11 2 17 5 13 3 -3 4 -12 1
-19z"
    />
    <path
      d="M11050 4245 c-7 -8 -19 -15 -26 -15 -8 0 -24 -11 -36 -25 -12 -14
-30 -25 -39 -25 -10 0 -23 -9 -29 -19 -5 -11 -23 -22 -39 -26 -17 -3 -33 -14
-36 -23 -2 -9 -35 -32 -72 -50 -100 -49 -164 -88 -174 -103 -5 -8 -21 -13 -39
-11 -17 2 -30 -1 -30 -7 0 -11 -37 -30 -68 -37 -30 -6 -42 -14 -42 -29 0 -11
-10 -15 -35 -15 -19 0 -35 -3 -35 -8 0 -11 -71 -48 -86 -44 -8 1 -31 -6 -53
-18 -22 -11 -53 -20 -69 -20 -33 0 -62 -24 -40 -33 7 -3 -1 -6 -17 -6 -17 -1
-45 -5 -62 -10 -20 -6 -35 -6 -38 0 -4 5 -16 -2 -28 -16 -16 -17 -35 -25 -66
-28 -32 -3 -46 -9 -51 -22 -4 -11 -18 -19 -36 -20 -16 -2 -47 -4 -69 -6 -23
-2 -48 -12 -60 -24 -15 -15 -31 -20 -62 -19 -24 1 -45 -2 -48 -6 -3 -5 -12 -7
-20 -4 -7 3 -23 -4 -34 -15 -12 -12 -31 -21 -43 -22 -13 0 -36 -2 -53 -5 -16
-2 -40 -4 -52 -4 -15 0 -23 -6 -23 -17 0 -15 -2 -14 -15 3 -12 16 -14 17 -15
3 0 -21 -36 -31 -120 -34 -38 -2 -66 -7 -68 -14 -3 -9 -8 -9 -18 0 -12 10 -16
9 -20 -8 -5 -17 -14 -20 -67 -19 -74 0 -117 -10 -117 -27 0 -6 -10 -13 -22
-13 -13 -1 -45 -4 -73 -7 -27 -3 -71 -6 -97 -7 -27 0 -53 -6 -61 -15 -9 -9
-17 -11 -19 -4 -2 6 -16 3 -36 -7 -20 -9 -70 -19 -119 -22 -59 -3 -86 -9 -90
-19 -4 -11 -8 -10 -18 3 -9 13 -14 14 -19 5 -6 -9 -11 -9 -21 -1 -10 8 -17 6
-27 -7 -16 -22 -15 -22 -213 -29 -119 -4 -162 -9 -167 -19 -4 -7 -23 -13 -42
-13 -19 0 -41 -4 -48 -8 -7 -4 -62 -9 -123 -10 -229 -3 -321 -7 -337 -16 -12
-5 -18 -5 -18 2 0 14 -67 13 -76 -1 -5 -8 -8 -8 -13 0 -9 14 -81 2 -88 -15 -4
-10 -9 -11 -24 -1 -16 10 -21 9 -29 -3 -8 -13 -10 -12 -10 3 0 22 -19 22 -27
1 -6 -15 -8 -15 -21 2 -10 13 -16 15 -19 7 -6 -16 -33 -17 -33 -1 0 6 -7 4
-18 -5 -20 -18 -82 -23 -82 -7 0 17 -21 11 -41 -12 -10 -13 -18 -17 -19 -10 0
6 5 12 10 12 6 0 10 5 10 11 0 6 -8 8 -17 5 -38 -11 -82 -16 -86 -9 -5 7 -38
8 -87 4 -13 -1 -13 -2 0 -11 13 -8 13 -10 -2 -10 -9 0 -21 8 -27 18 -9 16 -10
16 -16 0 -10 -25 -21 -22 -29 5 -5 17 -8 19 -15 8 -5 -8 -16 -11 -25 -8 -9 4
-20 -1 -26 -11 -9 -16 -11 -16 -21 1 -10 18 -11 18 -32 0 -11 -10 -17 -13 -14
-7 4 7 1 17 -7 23 -10 9 -15 8 -20 -4 -4 -10 -11 -13 -18 -8 -7 4 -196 8 -420
10 -275 1 -413 5 -427 13 -16 8 -21 8 -21 -2 0 -10 -3 -9 -9 1 -9 15 -34 17
-286 24 -66 1 -89 5 -88 15 2 6 -2 12 -7 12 -6 0 -10 -4 -10 -10 0 -5 -7 -10
-15 -10 -8 0 -15 4 -15 9 0 13 -74 24 -170 26 -107 2 -113 3 -105 15 3 6 -1
10 -9 10 -8 0 -20 -8 -25 -17 -9 -16 -10 -16 -11 3 0 19 -7 21 -62 24 -35 1
-76 3 -93 4 -16 0 -36 8 -42 17 -9 12 -34 18 -85 22 -90 6 -111 10 -118 19 -3
4 -39 13 -80 20 -41 7 -78 17 -82 23 -5 6 -8 4 -8 -4 0 -12 -3 -11 -13 2 -8
12 -31 18 -71 21 -32 2 -62 9 -65 15 -4 6 -34 16 -67 22 -87 16 -92 18 -74 30
13 9 12 10 -2 5 -10 -3 -20 -1 -23 4 -4 6 -31 10 -62 10 -31 0 -53 3 -50 7 13
13 -16 33 -48 33 -42 0 -65 9 -65 24 0 7 -17 12 -42 13 -26 1 -45 8 -51 18 -7
13 -12 14 -23 4 -11 -9 -14 -8 -14 4 0 15 -28 27 -67 27 -16 0 -20 5 -16 20 5
18 0 20 -41 20 -36 0 -44 3 -40 15 4 8 1 15 -5 15 -6 0 -11 -8 -12 -17 0 -13
-3 -12 -10 6 -7 18 -15 22 -34 19 -15 -3 -25 -1 -25 6 0 13 -46 36 -73 36 -11
0 -27 8 -36 19 -9 10 -31 22 -49 26 -18 4 -36 13 -39 21 -3 7 -20 16 -39 20
-20 4 -36 13 -39 25 -5 14 -16 19 -42 19 -29 0 -33 2 -24 14 10 12 6 16 -21
21 -18 4 -40 15 -48 25 -22 25 -86 33 -96 12 -11 -27 -21 -102 -13 -96 7 4 4
-38 -6 -88 -2 -10 3 -18 10 -18 10 0 11 -8 4 -32 -4 -18 -7 -63 -5 -100 1 -37
-1 -73 -5 -79 -4 -7 -2 -21 6 -32 9 -13 11 -28 4 -50 -13 -47 -11 -60 7 -53
14 5 15 1 9 -26 -4 -18 -10 -44 -13 -57 -4 -20 -2 -23 12 -18 13 5 15 2 10
-21 -4 -15 -11 -38 -16 -51 -6 -16 -5 -27 3 -31 6 -5 11 -40 11 -93 1 -80 2
-86 25 -96 13 -6 33 -11 44 -11 11 0 18 -4 14 -9 -7 -12 61 -35 81 -27 8 3 25
-1 38 -9 12 -8 45 -18 72 -21 27 -4 56 -12 64 -19 20 -17 45 -23 115 -30 32
-3 64 -10 69 -15 6 -6 18 -10 27 -10 9 0 22 -7 29 -15 10 -12 16 -13 26 -4 11
9 23 7 50 -6 20 -9 42 -18 49 -19 7 -1 19 -7 26 -12 8 -6 33 -10 57 -9 29 2
42 -1 42 -10 0 -7 6 -12 12 -12 23 2 113 -15 132 -25 13 -7 16 -7 12 1 -9 15
-5 14 32 -4 42 -22 144 -37 156 -25 12 12 29 13 22 1 -10 -15 68 -50 87 -39
11 6 17 5 17 -1 0 -6 13 -8 33 -5 24 4 28 3 17 -5 -12 -8 -7 -11 22 -11 20 0
39 -4 42 -9 5 -8 99 -15 169 -12 20 1 26 -2 21 -10 -5 -9 -1 -10 14 -7 12 3
23 1 25 -5 2 -7 16 -11 30 -9 15 1 27 -3 27 -8 0 -8 28 -8 50 0 15 6 57 -4 71
-16 9 -8 24 -12 33 -8 9 3 16 2 16 -3 0 -4 21 -9 48 -10 141 -5 180 -8 175
-16 -3 -5 3 -7 13 -6 11 2 24 1 29 -3 10 -6 95 -15 219 -23 38 -2 72 -8 75
-14 9 -14 328 -30 348 -18 5 3 23 -1 39 -9 35 -18 104 -25 122 -11 8 6 12 6
12 0 0 -6 12 -10 28 -11 166 -2 373 -11 381 -16 5 -4 12 -2 16 4 7 11 45 4 83
-16 17 -8 32 -10 49 -3 18 6 22 6 17 -3 -4 -6 -3 -8 2 -5 5 3 45 7 88 8 42 2
80 7 83 12 3 4 10 1 16 -7 10 -13 23 -14 72 -7 37 5 68 5 82 -2 14 -6 31 -6
51 1 16 6 34 7 38 2 5 -4 32 -4 59 0 28 4 53 6 58 3 13 -8 191 -6 210 2 10 4
51 5 90 3 40 -3 107 -3 150 1 44 4 77 3 77 -2 0 -5 7 -4 15 3 8 6 19 9 24 6 5
-4 12 -2 16 4 3 5 15 10 26 10 11 0 17 -4 14 -10 -8 -13 1 -13 26 1 11 5 16
15 13 21 -5 8 -1 9 12 4 36 -14 138 -20 130 -8 -5 9 21 12 96 13 57 0 150 3
208 6 58 2 117 5 133 5 17 1 27 6 27 16 0 12 3 12 15 2 12 -10 15 -9 15 4 0
14 6 16 33 11 17 -3 41 -5 52 -5 11 1 49 3 85 5 36 2 67 5 70 6 6 2 36 5 124
14 33 3 65 10 73 16 9 8 13 8 13 0 0 -17 28 -13 39 6 7 13 12 15 23 5 9 -7 18
-8 24 -2 5 5 31 11 58 13 26 3 52 11 57 18 7 11 9 11 9 -2 0 -12 8 -16 28 -15
32 3 105 23 149 42 37 17 54 18 33 3 -12 -9 -11 -10 5 -4 11 4 42 8 68 10 27
2 64 9 83 15 19 7 42 9 51 6 8 -4 22 -1 30 5 7 7 44 14 81 16 37 2 77 10 90
19 13 9 26 13 29 10 3 -3 15 0 27 6 11 7 41 13 66 13 106 3 121 6 140 25 11
11 20 16 20 10 0 -13 27 -13 32 0 3 9 20 12 133 25 22 3 48 6 58 7 9 1 17 5
17 8 0 3 9 6 21 7 19 2 86 14 154 29 17 4 42 7 57 8 16 1 23 5 18 11 -5 6 4
10 23 11 49 1 108 14 103 22 -3 5 7 7 22 7 15 -1 32 2 37 6 6 4 21 8 35 8 14
1 40 3 58 5 17 2 41 4 53 5 11 0 23 10 26 20 4 15 12 19 40 16 19 -1 52 2 72
7 20 5 43 10 51 11 8 1 18 7 22 12 5 6 8 5 8 -3 0 -9 7 -8 25 4 14 9 40 18 57
20 17 2 36 8 43 14 7 6 15 6 21 0 5 -5 25 -1 49 10 23 11 50 16 64 13 18 -4
22 -3 16 7 -6 10 -4 12 8 7 12 -4 18 0 22 16 16 79 24 136 20 162 -4 30 -12
299 -20 725 -3 124 -7 235 -11 248 -7 25 -26 29 -44 7z"
    />
    <path
      d="M11153 3695 c-8 -9 -9 -16 -3 -20 6 -3 13 1 16 10 9 21 2 26 -13 10z"
    />
    <path
      d="M7890 3280 c0 -5 5 -10 11 -10 5 0 7 5 4 10 -3 6 -8 10 -11 10 -2 0
-4 -4 -4 -10z"
    />
    <path
      d="M4720 1790 c0 -5 5 -10 10 -10 6 0 10 5 10 10 0 6 -4 10 -10 10 -5 0
-10 -4 -10 -10z"
    />
    <path
      d="M14382 12100 c7 -10 14 -18 15 -16 6 6 -9 36 -18 36 -5 0 -4 -9 3
-20z"
    />
    <path
      d="M14610 7496 c0 -9 5 -16 10 -16 6 0 10 4 10 9 0 6 -4 13 -10 16 -5 3
-10 -1 -10 -9z"
    />
    <path
      d="M2195 11330 c-3 -5 -1 -10 4 -10 6 0 11 5 11 10 0 6 -2 10 -4 10 -3
0 -8 -4 -11 -10z"
    />
  </g>
</svg>
