<svg width="492" height="600" viewBox="0 0 492 600" fill="none" xmlns="http://www.w3.org/2000/svg">
<g clip-path="url(#clip0_2_2)">
<path d="M346.787 3.31708C343.667 0.585368 339.181 -0.975607 335.085 0.585368C306.608 11.9024 293.541 40.3902 285.154 67.3171C280.668 81.561 277.937 96 275.987 110.829C273.841 127.22 273.256 143.61 276.182 159.805C277.352 166.439 285.544 169.951 291.785 168.39C298.807 166.439 301.732 160 300.562 153.366C300.562 152.976 300.172 151.22 300.172 150.634C299.977 149.268 299.977 147.902 299.782 146.537C299.587 143.024 299.392 139.512 299.392 136H340.351C341.521 136 342.497 135.61 343.277 135.024V164.098C343.277 169.951 352.639 169.951 352.639 164.098V7.60976C353.029 4.09756 349.518 2.53659 346.787 3.31708ZM340.741 127.024H299.977C300.172 122.341 300.757 117.659 301.147 113.171C301.147 112.78 301.537 110.244 301.537 109.854C301.732 108.293 301.927 106.732 302.318 104.976C302.903 101.463 303.683 97.7561 304.268 94.2439C305.438 88.1951 306.999 82.1463 308.949 76.0976C310.509 70.6341 312.46 65.1707 314.41 59.9024C314.995 58.3415 315.58 56.9756 316.166 55.6098C316.166 55.6098 316.166 55.4146 316.361 55.4146C316.751 54.6341 316.946 54.0488 317.336 53.4634C318.701 50.5366 320.066 47.8049 321.627 45.0732C323.187 42.3415 324.943 39.8049 326.698 37.2683C327.088 36.6829 327.478 36.2927 327.868 35.7073C327.868 35.5122 328.063 35.5122 328.258 35.3171C329.234 34.1463 330.209 32.9756 331.379 32C332.354 31.0244 333.525 29.8537 334.695 28.8781C335.085 28.4878 335.67 28.0976 336.06 27.7073C336.06 27.7073 336.255 27.5122 336.45 27.5122C337.62 26.7317 338.986 25.9512 340.156 25.1707C340.936 24.7805 345.422 22.8293 342.106 24.1951C342.692 24 343.277 23.6098 343.862 23.4146V128C342.887 127.415 341.911 127.024 340.741 127.024Z" fill="white"/>
<path d="M182.951 4.09756H138.091C132.045 4.09756 132.045 13.4634 138.091 13.4634H182.951C188.997 13.6585 188.997 4.09756 182.951 4.09756Z" fill="white"/>
<path d="M182.951 117.854H138.091C132.045 117.854 132.045 127.22 138.091 127.22H182.951C188.997 127.22 188.997 117.854 182.951 117.854Z" fill="white"/>
<path d="M182.951 157.463H138.091C132.045 157.463 132.045 166.829 138.091 166.829H182.951C188.997 166.829 188.997 157.463 182.951 157.463Z" fill="white"/>
<path d="M141.602 3.70732C134.775 3.70732 128.924 9.17074 128.924 15.6098V156.488C128.924 162.927 134.775 168.39 141.602 168.39C148.428 168.39 154.279 162.927 154.279 156.488V15.6098C154.279 9.17074 148.428 3.70732 141.602 3.70732Z" fill="white"/>
<path d="M259.993 156.293H215.133C209.087 156.293 209.087 165.659 215.133 165.659H259.993C266.039 165.659 266.039 156.293 259.993 156.293Z" fill="white"/>
<path d="M220.594 2.53659C213.768 2.53659 207.916 8 207.916 14.2439V153.171C207.916 159.61 213.768 164.878 220.594 164.878C227.421 164.878 233.272 159.415 233.272 153.171V14.2439C233.272 7.80488 227.421 2.53659 220.594 2.53659Z" fill="white"/>
<path d="M76.6521 1.7561C74.7017 0.585366 72.5562 0 70.2157 0C63.3892 0 57.5379 5.46341 57.5379 12.2927V156.098C57.5379 162.732 63.3892 168.39 70.2157 168.39C77.0422 168.39 82.8935 162.927 82.8935 156.098V125.659C88.3547 127.22 92.2556 132.878 94.9862 137.951C99.0821 145.561 101.813 154.927 101.423 163.707C101.033 169.366 109.81 169.366 110.005 163.707C110.785 150.439 103.763 127.805 90.6953 119.61C97.5218 112.976 102.203 103.805 105.519 94.6341C108.054 87.6098 110.005 80.3902 111.37 73.1707C112.54 67.5122 113.71 61.6585 113.71 55.6098C113.905 34.5366 102.203 0.390244 76.6521 1.7561ZM98.302 88.5854C95.3763 97.7561 90.6953 108.683 82.6985 114.927V12.2927C82.6985 11.9024 82.6985 11.5122 82.6985 11.3171C98.302 15.6098 104.933 40.5854 105.128 54.8293C105.324 66.1463 101.813 78.0488 98.302 88.5854Z" fill="white"/>
<path d="M387.161 3.51219C380.335 4.87804 375.849 11.3171 377.019 17.9512L403.74 159.024C404.91 165.659 411.737 169.951 418.368 168.585C425.195 167.22 429.681 160.78 428.511 154.146L401.79 13.0732C400.619 6.43902 393.988 2.14634 387.161 3.51219Z" fill="white"/>
<path d="M426.56 8.19511L370.388 158.634C368.242 164.293 377.019 167.61 379.165 161.951L435.337 11.5122C437.483 5.85365 428.706 2.53658 426.56 8.19511Z" fill="white"/>
<path d="M94.4011 244.683C94.4011 244.683 99.6673 250.732 103.763 244.683C107.859 238.634 102.983 232 92.4507 229.659C81.9183 227.317 55.0023 236.683 60.0734 264C66.3148 297.561 171.443 259.707 171.443 259.707C171.443 259.707 160.131 276.488 167.933 281.366C167.933 281.366 168.908 286.829 199.725 267.122C199.725 267.122 243.024 240.195 246.925 224.39C250.826 208.585 231.907 211.317 218.254 233.756C204.601 256.195 191.923 277.854 200.7 282.927C209.477 288 235.027 260.878 235.223 256.585C235.418 252.293 231.322 249.951 227.616 254.829C223.91 259.707 205.576 281.366 204.601 274.146C203.821 269.268 232.882 218.146 240.099 222.439C247.705 226.927 189.192 272.78 172.223 273.951C172.223 273.951 169.103 270.244 186.072 253.463C186.072 253.463 184.706 248 181.586 249.171C169.103 253.659 156.62 257.756 143.942 261.659C125.608 267.122 102.008 272.195 83.6737 272.585C74.8967 272.78 66.7049 269.463 65.3396 259.317C64.1693 248.976 73.1413 240.78 82.1133 237.659C85.234 236.488 93.2308 234.927 96.3515 237.463C99.4722 240.39 93.816 244.098 94.4011 244.683Z" fill="white"/>
<path d="M256.482 246.829C255.897 246.244 249.656 241.951 256.677 235.902C260.773 232.39 265.064 236.683 264.869 240C264.674 243.122 259.213 254.244 253.752 257.366C248.486 260.488 247.705 257.366 249.266 254.634C250.631 251.902 256.482 246.829 256.482 246.829Z" fill="white"/>
<path d="M195.434 228.878C190.167 231.22 186.657 238.439 187.827 241.366C189.192 244.488 190.753 245.659 192.703 244.488C194.653 243.317 193.873 235.122 197.969 234.732C202.845 234.341 197.384 228.098 195.434 228.878Z" fill="white"/>
<path d="M172.223 210.732C168.518 211.317 172.028 218.341 174.564 218.146C177.1 217.951 189.387 214.634 189.972 207.805C192.118 182.439 136.726 198.634 139.456 223.805C139.456 223.805 140.236 243.512 184.511 239.024C228.786 234.537 268.965 225.561 279.692 223.22C290.42 220.878 341.716 206.634 341.716 221.073C341.716 221.073 339.766 232.39 327.478 226.146C324.943 224.78 322.992 232.976 325.528 234.341C328.063 235.902 340.351 240.39 346.007 228.488C346.007 228.488 352.834 215.024 339.766 209.366C326.893 203.707 283.008 215.415 272.671 217.561C262.334 219.902 217.279 227.902 212.402 228.488C207.526 229.073 150.574 239.805 145.893 224.78C140.431 207.415 180.805 195.707 183.146 203.317C182.951 203.707 185.096 208.585 172.223 210.732Z" fill="white"/>
<path d="M311.68 248.195C308.754 251.122 314.215 254.439 316.751 253.463C319.091 252.488 324.357 245.854 319.286 239.805C314.02 233.756 304.268 238.049 301.342 244.293C299.002 249.171 299.782 257.171 299.392 262.439C298.417 283.317 291.59 277.073 291.395 276.098C291.2 275.122 288.665 273.756 306.413 266.732C324.162 259.512 362.001 239.024 398.084 234.732C419.929 232.195 436.703 238.049 430.461 251.512C423.83 265.951 412.517 258.927 409.787 258.732C407.251 258.537 406.666 266.146 408.811 267.512C408.811 267.512 419.539 271.61 431.631 261.854C443.919 252.098 438.848 234.146 424.415 229.268C409.982 224.39 371.948 230.049 351.469 240.78C338.401 247.61 323.967 251.902 310.119 257.171C303.098 259.707 293.541 264.585 288.469 266.732C279.497 270.244 283.398 283.707 294.126 283.902C312.07 284.293 302.122 242.927 311.094 243.317C317.531 243.317 312.85 246.829 311.68 248.195Z" fill="white"/>
<path d="M96.3515 340.293C91.2804 343.415 19.8944 437.073 51.6865 530.341C51.6865 530.341 70.2157 538.146 70.0206 533.659C69.8256 529.171 56.5626 493.659 78.4075 437.659C97.5218 388.293 116.246 366.634 117.026 360.78C117.806 355.122 105.128 334.829 96.3515 340.293Z" fill="white"/>
<path d="M67.6801 536.195C62.804 536.195 54.2221 532.683 51.1014 531.317L50.5163 531.122L50.3212 530.537C18.5291 437.073 89.9151 342.634 95.5714 339.122C98.302 337.366 101.813 337.756 105.324 340.098C112.345 344.78 118.782 356.293 118.001 360.976C117.611 363.122 115.466 366.634 111.76 372.683C104.348 384.78 92.0606 405.073 79.1877 438.049C60.4635 486.244 67.8752 519.024 70.2157 529.756C70.6058 531.707 70.8008 532.683 70.9959 533.463C70.9959 534.244 70.6058 535.024 70.0207 535.61C69.4355 536 68.6553 536.195 67.6801 536.195ZM52.4667 529.366C60.0734 532.488 67.4851 534.439 68.6553 533.659C68.6553 533.268 68.2653 531.902 67.8752 530.341C65.3396 519.415 57.9279 486.049 76.8472 437.268C89.7201 403.902 102.788 382.829 109.614 371.512C112.93 366.244 115.271 362.341 115.466 360.78C116.051 357.463 110.2 346.537 103.958 342.439C101.228 340.683 98.692 340.293 96.7416 341.463C91.2804 344.78 21.6498 437.463 52.4667 529.366Z" fill="white"/>
<path d="M103.958 405.659C100.838 408.976 81.5282 437.268 56.1725 442.927C28.6714 448.976 5.65626 435.512 11.1175 415.415C19.5044 384.195 110.005 389.073 137.311 381.854C158.57 376.39 185.486 367.219 190.167 345.756C195.044 324.293 176.514 315.902 162.081 318.439C139.456 322.732 126.388 342.634 129.509 368.976C132.63 395.317 148.623 403.512 148.623 403.512C148.623 403.512 74.5066 467.122 110.785 498.537C135.555 520 183.926 447.415 183.926 447.415C183.926 447.415 182.171 432.976 177.295 440.39C172.419 448 137.116 497.366 123.853 490.927C110.59 484.488 173.199 421.073 173.394 416.78C173.979 405.854 140.821 391.61 148.233 363.317C155.84 334.829 175.539 337.561 177.295 344.585C179.635 353.756 138.676 377.561 97.5218 379.707C56.3676 381.854 8.58192 384.585 2.53557 410.341C-4.29096 439.61 23.0151 458.732 57.9279 456C92.6457 453.268 115.076 436.683 115.661 428.683C116.051 420.878 107.859 401.561 103.958 405.659Z" fill="white"/>
<path d="M121.122 503.805C116.831 503.805 112.93 502.439 109.81 499.512C102.788 493.463 99.4722 485.854 99.4722 477.073C99.4722 447.024 138.676 410.732 146.478 403.902C143.357 401.951 136.335 396.098 131.849 384.39C124.048 385.756 113.515 386.537 101.813 387.512C66.3148 390.244 17.944 394.341 12.2877 415.61C10.3373 422.439 11.8977 428.683 16.7737 433.756C24.7705 442.146 40.179 445.073 55.9775 441.561C77.4323 436.683 94.5961 415.415 100.838 407.415C101.813 406.049 102.593 405.268 102.983 404.683C103.958 403.707 105.128 403.512 106.494 404.098C111.37 406.244 117.221 421.854 116.636 428.683C116.051 437.073 93.2308 454.244 57.7329 456.976C36.8632 458.537 18.3341 452.488 7.99679 440.585C0.780176 432.195 -1.75539 421.463 0.97522 409.756C7.41166 383.024 57.1478 380.488 97.1317 378.537C107.859 377.951 118.586 376 128.534 373.073C128.339 371.902 128.144 370.537 127.949 369.366C124.828 342.634 138.481 321.756 161.496 317.463C170.858 315.707 180.415 318.439 186.072 324.293C189.777 328 193.483 334.829 190.948 346.146C186.852 364.098 168.128 373.659 149.013 379.707C151.744 389.073 158.765 396.293 164.617 402.537C170.078 408.195 174.174 412.488 173.979 416.976C173.979 418.537 171.248 421.854 160.521 434.341C145.698 451.512 120.927 480.39 122.682 488.585C122.877 489.366 123.072 489.756 123.853 489.951C135.36 495.415 168.128 452.098 175.929 439.805C177.295 437.659 178.66 436.878 180.22 437.073C183.536 437.854 184.706 445.073 184.901 447.22V447.61L184.706 448C183.341 450.146 149.793 499.902 123.853 503.415C123.072 503.61 122.097 503.805 121.122 503.805ZM134.19 383.805C139.651 397.659 148.818 402.341 149.013 402.537L150.574 403.317L149.208 404.488C148.818 404.878 101.813 445.463 101.813 477.073C101.813 485.268 104.933 492.293 111.37 497.756C114.881 500.683 118.977 501.854 123.658 501.268C147.258 498.146 179.245 451.902 182.561 447.22C181.976 443.317 180.805 439.805 179.83 439.61C179.635 439.61 179.05 439.805 178.27 441.171C177.88 441.756 138.871 499.707 123.268 492.098C121.902 491.512 121.122 490.341 120.927 488.976C119.172 480.195 138.091 457.366 159.351 432.585C165.592 425.366 171.833 417.951 172.419 416.585C172.614 413.268 168.518 408.976 163.642 404.098C157.79 397.854 150.379 390.244 147.453 380.293C144.332 381.268 141.016 382.244 137.896 383.024C136.53 383.415 135.36 383.61 134.19 383.805ZM129.119 375.415C118.977 378.341 108.249 380.488 97.3267 380.878C58.123 382.829 9.36209 385.366 3.51079 410.537C0.97522 421.463 3.1207 431.22 9.94722 439.22C19.6994 450.537 37.4484 456.39 57.5379 454.829C93.2308 452.098 113.71 435.122 114.1 428.683C114.491 422.439 109.029 408.195 105.324 406.439C104.933 406.244 104.933 406.244 104.543 406.634C104.153 407.024 103.373 408 102.398 409.171C95.7664 417.366 78.4075 439.22 56.1725 444.098C39.3988 447.805 23.2102 444.488 14.6283 435.512C9.36209 429.854 7.6067 422.634 9.55714 415.024C15.7985 392 63.1941 388.098 101.228 384.976C112.735 384 122.877 383.22 130.484 381.854C130.094 379.902 129.509 377.756 129.119 375.415ZM131.459 374.634C132.044 377.171 132.63 379.317 133.41 381.463C134.775 381.268 135.945 380.878 136.921 380.683C140.041 379.902 143.162 378.927 146.478 377.951C145.893 375.22 145.698 372.488 145.893 369.366C141.212 371.317 136.53 373.073 131.459 374.634ZM148.233 368.39C147.843 371.512 148.038 374.439 148.623 377.171C166.957 371.317 185.096 362.146 188.802 345.366C190.558 337.366 189.192 330.537 184.511 325.854C179.44 320.585 170.468 318.049 162.081 319.61C139.846 323.707 127.363 343.024 130.484 368.781C130.679 369.951 130.679 371.122 130.874 372.098C136.14 370.537 141.212 368.585 145.893 366.634C146.088 365.463 146.283 364.098 146.673 362.732C151.354 344.78 161.301 338.537 168.908 338.537C173.394 338.537 177.1 340.878 178.075 344C178.465 345.756 177.88 347.707 176.319 349.854C172.614 355.512 162.081 362.537 148.233 368.39ZM169.103 341.073C162.471 341.073 153.694 346.927 149.208 363.512C149.013 364.293 148.818 364.878 148.818 365.463C161.496 359.805 171.053 353.366 174.564 348.488C175.734 346.927 176.124 345.561 175.929 344.78C175.344 342.829 172.418 341.268 169.103 341.073Z" fill="white"/>
<path d="M200.7 381.854C194.068 388.488 148.818 454.439 184.121 463.415C204.406 468.488 230.737 424.976 230.737 424.976C230.737 424.976 230.346 411.317 225.665 417.756C220.789 424.195 208.502 448.195 191.143 452.293C173.784 456.39 220.984 408.195 220.984 402.146C220.594 396.098 206.746 375.805 200.7 381.854Z" fill="white"/>
<path d="M187.437 465.171C186.267 465.171 184.901 464.976 183.731 464.78C176.709 463.024 172.223 458.927 170.273 452.488C164.032 429.854 194.458 386.537 199.725 381.073C200.895 379.902 202.845 378.927 205.966 380.098C213.183 383.024 221.765 396.878 221.765 402.146C221.765 404.683 216.693 411.122 207.721 422.244C200.31 431.415 186.462 448.585 188.217 451.317C188.217 451.512 188.802 451.707 190.558 451.317C204.406 448 215.328 431.22 221.179 422.244C222.545 420.098 223.715 418.341 224.495 417.171C225.86 415.415 227.226 414.634 228.396 415.024C231.322 416 231.712 422.244 231.712 424.976V425.366L231.517 425.756C230.541 427.317 207.526 465.171 187.437 465.171ZM201.48 382.634C196.994 387.122 166.762 430.049 172.614 451.512C174.174 456.976 177.88 460.488 184.316 462.049C185.291 462.244 186.462 462.439 187.437 462.439C205.186 462.439 227.031 428.098 229.371 424.39C229.176 420.488 228.396 417.171 227.811 416.976C227.811 416.976 227.421 416.976 226.446 418.146C225.665 419.317 224.495 421.073 223.13 423.024C217.083 432.39 205.966 449.561 191.143 453.073C190.167 453.268 187.437 454.049 186.267 452.098C183.926 448.195 192.118 437.463 205.966 420.293C212.012 412.878 219.424 403.512 219.424 401.756C219.424 397.463 211.232 384.585 204.991 382.049C203.04 381.463 202.065 382.244 201.48 382.634Z" fill="white"/>
<path d="M214.743 367.805C219.814 381.073 230.737 382.634 242.439 368.195C254.142 353.756 264.089 352 259.408 343.805C254.727 335.61 238.538 322.146 231.127 327.61C223.715 333.073 209.477 354.341 214.743 367.805Z" fill="white"/>
<path d="M277.547 387.512C277.547 387.512 241.074 368.195 225.47 419.122C211.232 465.561 255.897 477.854 269.16 453.463C269.16 453.463 271.891 431.22 268.38 441.561C264.674 452.098 259.213 453.659 254.727 453.268C243.804 452.098 248.681 396.293 274.426 396.293C292.955 396.098 277.547 387.512 277.547 387.512Z" fill="white"/>
<path d="M290.42 420.878C290.42 420.878 352.639 358.634 337.23 333.854C336.84 333.268 336.45 332.878 336.06 332.488C332.939 329.561 320.066 320 302.317 338.341C282.618 358.439 232.102 479.22 281.838 492.878C296.661 496.976 324.357 430.049 324.357 430.049C324.357 430.049 332.354 412.293 324.357 420.098C316.361 427.707 295.296 481.561 288.664 479.805C272.671 475.122 307.389 366.634 325.528 345.366C327.673 342.829 329.429 345.171 330.599 348.293C333.72 356.878 302.708 394.341 290.615 412.488L290.42 420.878Z" fill="white"/>
<path d="M358.295 417.951C358.295 417.951 365.512 386.927 343.277 384.78C321.042 382.634 301.342 413.268 298.612 432.585C295.686 451.902 303.878 463.415 314.8 464.585C334.5 466.732 343.862 452.488 343.862 452.488C343.862 452.488 346.787 430.634 341.521 440.39C336.84 449.171 333.134 454.829 327.088 452.098C318.311 448.195 341.131 391.415 347.568 396.878C353.809 402.341 340.156 418.537 340.936 422.049C341.521 425.561 357.515 422.634 358.295 417.951Z" fill="white"/>
<path d="M368.047 385.561C359.66 390.829 334.11 439.415 334.11 466.341C334.11 493.073 364.341 510.049 392.038 440.39C392.038 440.39 391.452 427.317 388.527 432.39C385.601 437.463 368.632 475.902 359.075 476.098C349.713 476.293 382.675 412.878 382.09 409.171C381.7 405.463 375.069 381.073 368.047 385.561Z" fill="white"/>
<path d="M413.297 386.537C404.52 390.049 359.855 462.634 401.79 467.317C408.616 468.098 415.443 463.024 415.443 463.024C415.443 463.024 336.45 595.902 266.43 589.463C196.214 583.024 161.496 548.293 176.319 515.902C191.143 483.512 230.932 485.073 272.476 504.195C314.02 523.122 376.239 564.488 442.554 547.122C500.677 531.902 498.531 485.463 479.222 475.707C462.253 467.317 444.114 477.463 440.603 493.268C436.898 509.073 454.842 509.268 455.037 505.756C455.427 502.049 471.42 485.854 479.612 494.829C487.804 503.805 460.888 553.756 384.041 538.732C307.194 523.512 233.662 454.049 184.706 487.61C140.626 517.854 165.202 579.707 237.368 595.707C309.729 611.707 363.561 581.463 394.573 545.366C425.78 509.268 473.761 421.463 471.42 412.098C469.08 402.732 457.182 383.61 453.671 388.683C449.966 393.756 425.78 459.317 409.006 455.22C403.935 454.049 429.291 416.195 429.486 407.415C429.291 398.634 419.734 384 413.297 386.537Z" fill="white"/>
</g>
<defs>
<clipPath id="clip0_2_2">
<rect width="491.12" height="600" fill="white"/>
</clipPath>
</defs>
</svg>
